/* XPM */
static char *bullet[] = {
"8 8 2 1",
"  c #FF00FF",
"X c #FFFF00",
"        ",
"  XXXX  ",
"  XXXX  ",
"  XXXX  ",
"  XXXX  ",
"        ",
"        ",
"        "
};