/* XPM */
static char *Enemies[] = {
/* columns rows colors chars-per-pixel */
"64 64 184 2 ",
"   c #FF00FF",
".  c #020102",
"X  c #090104",
"o  c #060209",
"O  c #0A030B",
"+  c #0B0A0B",
"@  c #060808",
"#  c #150403",
"$  c #190404",
"%  c #11060E",
"&  c #11100F",
"*  c #110612",
"=  c #150914",
"-  c #160918",
";  c #190A19",
":  c #180A17",
">  c #151515",
",  c #1E121F",
"<  c #181818",
"1  c #191817",
"2  c #2F0906",
"3  c #280808",
"4  c #350703",
"5  c #3C0A06",
"6  c #360C0B",
"7  c #3C0E0C",
"8  c #320904",
"9  c #3B100D",
"0  c #260E16",
"q  c #2C182B",
"w  c #2A1629",
"e  c #311A2F",
"r  c #2E1730",
"t  c #331B32",
"y  c #381C37",
"u  c #3C1D3B",
"i  c #3D243C",
"p  c #5B110A",
"a  c #52140F",
"s  c #451A15",
"d  c #491914",
"f  c #62140B",
"g  c #6C140B",
"h  c #721509",
"j  c #661912",
"k  c #74271E",
"l  c #471C2C",
"z  c #551E20",
"x  c #451B3E",
"c  c #561E3B",
"v  c #5A1D3C",
"b  c #6B2925",
"n  c #712720",
"m  c #722821",
"M  c #7F2F3F",
"N  c #461D43",
"B  c #4C1C45",
"V  c #4B1D49",
"C  c #541C42",
"Z  c #5B1E44",
"A  c #462543",
"S  c #4A2446",
"D  c #4A2A47",
"F  c #4D2649",
"G  c #4B294A",
"H  c #47204A",
"J  c #512A4E",
"K  c #512B52",
"L  c #5A2B56",
"P  c #5D2D5B",
"I  c #5C315B",
"U  c #662A4B",
"Y  c #6B2A53",
"T  c #612D5F",
"R  c #612D5E",
"E  c #622D5E",
"W  c #62305E",
"Q  c #5F2D61",
"!  c #622B61",
"~  c #602E60",
"^  c #622E61",
"/  c #622E62",
"(  c #622D61",
")  c #642D61",
"_  c #662E62",
"`  c #622D62",
"'  c #682C66",
"]  c #653063",
"[  c #5F5858",
"{  c #616162",
"}  c #981E0C",
"|  c #8F1F14",
" . c #951E12",
".. c #9D1E10",
"X. c #BE1F07",
"o. c #BE1E09",
"O. c #BB1E09",
"+. c #AD1F1B",
"@. c #9E220F",
"#. c #962716",
"$. c #A4210E",
"%. c #BC220B",
"&. c #B7210B",
"*. c #A42211",
"=. c #AA201B",
"-. c #A82115",
";. c #B72316",
":. c #982F3B",
">. c #94313B",
",. c #9C333D",
"<. c #BC2C20",
"1. c #A33339",
"2. c #C61C04",
"3. c #C61C05",
"4. c #C91E05",
"5. c #C21E0A",
"6. c #CD1E08",
"7. c #C52104",
"8. c #CA2106",
"9. c #C42109",
"0. c #CB230B",
"q. c #CF280E",
"w. c #D0280F",
"e. c #CF2810",
"r. c #CB2814",
"t. c #D12A12",
"y. c #CC371F",
"u. c #D73018",
"i. c #DB331C",
"p. c #E03C1F",
"a. c #CC3A25",
"s. c #D33A26",
"d. c #E53E25",
"f. c #CB433E",
"g. c #C3403C",
"h. c #D14633",
"j. c #D34935",
"k. c #DD4A3C",
"l. c #D9463A",
"z. c #DD533F",
"x. c #E64226",
"c. c #EB452C",
"v. c #EE4A2E",
"b. c #E6462B",
"n. c #F0472F",
"m. c #EE4D35",
"M. c #E64E3B",
"N. c #EE4F38",
"B. c #E34A34",
"V. c #F24E35",
"C. c #F24E38",
"Z. c #E3513C",
"A. c #EE5039",
"S. c #EF5036",
"D. c #F35136",
"F. c #F15139",
"G. c #8C334D",
"H. c #9A3241",
"J. c #8D3450",
"K. c #883850",
"L. c #923654",
"P. c #933A57",
"I. c #A03641",
"U. c #C74A45",
"Y. c #C94946",
"T. c #DE4D42",
"R. c #D24E43",
"E. c #E24D42",
"W. c #E05046",
"Q. c #F35E44",
"!. c #F55E4E",
"~. c #F3654D",
"^. c #EA6E5C",
"/. c #F36351",
"(. c #F7AFA5",
"). c #F6BEB7",
"_. c #FBC3B9",
"`. c #F4CEC8",
"'. c #FCD3CC",
"]. c #F8E3DF",
"[. c #F7E3E0",
"{. c #FDE9E7",
"}. c #FAE7E4",
"|. c white",
/* pixels */
"                                                                                                                                ",
"                                                + @ @ @ @ @ @                                   @ + + + @ @                     ",
"                                              @ . . . . . . . .                             < . . . . . . . . @                 ",
"                                              @ . . . . . . . @                             1 . . . . . . . . <                 ",
"                                              @ . . . . . . . .                             < . . . . . . . . <                 ",
"                                              o o o o . . . . .                             * o o o o . . . . <                 ",
"                                    < + @ & , G J J J q . . . .                     + + = + i G J J i o . . . <                 ",
"                                    + . . . : P ! ! E t . . . .                     . . . o D P ! ! A o . . . <                 ",
"                                    + . . . : P ! ! ) t . . . @                     . . . o G E ! ! S o . . . <                 ",
"                                    + . . . : P ! ! ) t . . . @                     . . . o G E ! ! S o . . . <                 ",
"                                    @ . . . : P E ! ) t . . . @                   @ . . . . G E ! ! S o . . . <                 ",
"                  . X o . . . . X X . . . . = P ! ! E t . . . . . o . . . . o o X . . . . . G E ) ! S O . . . <                 ",
"                  . . . . . . . . . . . . . = P ! ! E e . . . . . . . . . . . . . . . . . o D E ) Q S O . . . <                 ",
"                  . . . . . . . . . . . . . = P ! ! E e . . . . . . . . . . . . . . . . . o D E ! Q S O . . . <                 ",
"                  . . . . . o X . . . . . . = P ! ! E e . . . . . . . . . . . . . . . . . o G E ! ! S O . . . <                 ",
"                  . . . . 6 g h h j $ . . . = P ! ! E e . . . X a g g g g g g h g 6 o . . o G E ! ! S O . . . <                 ",
"                  . . . . p &.9.9.;.2 . . . = P ! ) ! e . . . # | 5.o.o.o.O.X.o.%.f . . . . D E ) ! S O . . . <                 ",
"                  . . . . p 5.4.7.%.8 . . . = P ) ' ) t . . . $  .2.4.2.2.2.2.2.7.f . . . . G ) ) ) S X . . . <                 ",
"                  . . . . p X.2.4.%.2 . . . = L E E E t . . . #  .4.2.2.2.2.2.2.9.f X . . X F ) ! P A O . . . <                 ",
"                  . . . . f 9.7.6.%.5 $ $ $ 0 U Y Y Y l $ $ $ 3  .2.8.0.0.0.9.4.9.g $ $ # $ S L L L A O . . . <                 ",
"                  . . . . k b.c.c.x.*.} *.$.*.=.=.=.+.-.$.*.$...s.x.c.c.c.c.n.c.x.<. .@.$.#.7 = = - = o . . . <                 ",
"                  . . . . m A.V.V.m.0.2.4.8.8.4.2.2.2.2.4.8.8.8.c.V.V.V.V.V.V.V.V.u.2.8.8.%.4 . . . . . . . . <                 ",
"                  . . . . m A.V.V.m.0.2.4.4.4.4.2.2.2.2.4.4.8.8.c.V.V.V.V.V.V.V.V.i.8.4.2.%.4 . . . . . . . . >                 ",
"                  . . . . m F.V.V.V.0.2.4.4.4.2.2.2.2.2.2.2.4.8.v.D.V.V.V.V.V.V.D.p.8.2.2.%.5 . . . . . . . . <                 ",
"                  . . . . n A.V.V.V.u.q.q.q.q.w.t.t.t.e.e.q.q.t.m.D.V.V.V.d.d.x.c.i.q.0.e.r.5 . . . . . . . .                   ",
"                  . . . . n m.V.V.V.V.V.V.V.V.V.V.V.V.V.V.V.V.V.V.V.V.V.c.2.2.2.2.i.V.m.V.M.7 . . . @                           ",
"                  . . . . n N.V.V.V.V.V.V.V.V.V.V.V.V.V.V.V.m.V.V.V.V.V.c.2.4.2.2.i.V.D.V.M.7 . . . @                           ",
"                  . . . . n N.V.V.V.V.V.C.C.V.V.V.V.V.V.V.D.V.V.V.V.V.V.c.2.2.4.2.i.V.D.D.Z.7 . . . @                           ",
"                  . . . . m N.V.V.V.V.V.C.V.Q.~.~.~.~.~.~.~.~./.Q.V.V.V.c.2.2.2.7.B.!.~.~.^.s . . . @                           ",
"                  . . . . m N.V.V.V.V.V.V.D._.{.{.{.{.{.{.{.{.{.(.V.V.V.c.4.2.2.y.`.{.{.{.{.[ . . . .                           ",
"                  . . . . m N.V.V.V.V.V.m.V.'.|.|.|.|.|.|.|.|.|.).V.V.V.c.4.4.4.a.[.|.|.|.|.{ . . . .                           ",
"                  . . . . m N.V.V.V.V.V.V.V.'.|.|.|.|.|.|.|.|.|.).V.V.V.c.2.4.4.a.[.|.|.|.|.{ . . . .                           ",
"                  . . . . m N.V.V.V.V.V.V.V.'.|.|.|.|.|.|.|.|.|.).V.V.V.c.2.4.4.a.[.|.|.|.|.{ . . . .                           ",
"                  . . . . m N.V.V.V.V.V.V.V.'.|.|.|.|.|.|.|.|.|.).V.V.V.c.2.2.2.a.[.|.|.|.|.{ . . . .                           ",
"                  . . . . m N.V.V.V.V.V.C.V.'.|.|.|.|.|.|.|.|.|.).V.V.V.c.2.2.2.a.[.|.|.|.|.{ . . . .                           ",
"                  . . . . n N.V.V.V.V.V.C.V.'.|.|.|.|.|.|.|.|.|.).V.V.V.c.2.2.2.a.].|.|.|.|.{ . . . .                           ",
"                  . . . . n N.V.V.V.V.V.V.V.'.|.|.|.|.|.|.|.|.|.).V.V.V.c.4.2.2.a.[.|.|.|.|.{ . . . .                           ",
"                  . . . . n N.V.V.V.V.V.V.V.'.|.|.|.|.|.|.|.|.|.).V.V.V.c.4.4.2.a.[.|.|.|.|.{ . . . .                           ",
"                  . . . . m N.V.V.V.V.V.V.V.'.|.|.|.|.|.|.|.|.|.).m.V.V.v.0.8.2.a.[.|.|.|.|.{ . . . .                           ",
"                  . . . . m N.V.V.V.V.V.V.V.f.c N N N N N V H c U.V.V.V.V.V.V.V.m.>.x B B x * . . . @                           ",
"                  . . . . m N.V.V.V.V.V.V.N.f.v V V V V V V V v U.D.V.V.V.V.V.V.N.,.B V B S * . . . .                           ",
"                  . . . . m N.V.V.V.V.V.V.V.f.C B V V V B V V Z Y.V.V.V.V.V.V.V.D.,.C B V H = . . . @                           ",
"                  . . . . m N.V.V.V.V.V.V.V.f.v B V V B B B B Z U.V.V.V.V.V.V.V.F.I.C B B S = . . . .                           ",
"                  . . . . n m.V.V.V.V.V.C.V.k.1.,.,.,.:.>.H.,.1.l.V.V.V.V.V.V.V.F.g.,.H.:.>.3 . . . @                           ",
"                  . . . . m m.V.V.V.V.V.V.V.F.F.F.A.N.N.m.N.V.A.N.V.V.V.V.V.V.V.V.V.N.A.A.z.9 . . . @                           ",
"                  . . . . m m.V.V.V.V.V.V.V.D.D.V.V.V.V.V.V.V.V.V.V.V.V.V.V.V.V.V.V.V.D.D.Z.7 . . . @                           ",
"                  . . . . k m.V.V.V.V.V.V.D.V.V.V.m.m.V.C.C.C.V.V.V.V.V.V.S.m.V.V.V.V.D.V.Z.9 . . . @                           ",
"                  . . . . b T.k.k.k.k.T.W.E.k.h.h.j.j.j.j.j.j.j.j.j.j.j.j.k.k.k.k.E.E.T.k.R.9 . . . @                           ",
"                  . . . . l P.L.G.G.J.L.P.L.U d s d d d d d d d d d d d z G.G.J.L.L.L.J.G.K.0 . . . .                           ",
"                  . . . o r ! ! ! ! ! ! ! E S o . . . . . . . . . . . . = L ! _ _ _ ) E E E : . . . .                           ",
"                  . . . . r E ! ) _ / ! ! ! F O . . . . . . . . . . . . = P ! ) ! ! ! ! ! W : . . . .                           ",
"                  . . . . q E ) ) _ _ ! ! ! F O . . . . . . . . . . . . = P ! ) E ! ! ! ! ] : . . . .                           ",
"                  . . . . w G J K K P E ! ! F o . . . @ @ @ @ @ @ . . . * D G G J P ! ! ! I - . . . @                           ",
"                  . . . . o O % O * F E ! ! F o . . . @         @ . . . . @ O @ O u ] ) ! I - . . . @                           ",
"                  . . . . . . . . o S E ] ) F o . . .           @ . . . . . . . . y ] _ ! I = . . . @                           ",
"                  . . . . . . . . o F E ] ) G o . . .           @ . . . . . . . . y ! Q Q I - . . . @                           ",
"                  . . . . . . . . o G E P E G O . . .           @ . . . . . . . . t I P E W ; . . . @                           ",
"                  < < < < @ . . . o t u y y q o . . .             < > > > . . . . , y y u u * . . . X                           ",
"                            . . . . . . . . . . . . .                     . . . . . . . . . . . . . @                           ",
"                            . . . . . . . . . . . . .                     . . . . . . . . . . . . . @                           ",
"                            . . . . . . . . . . . . .                     . . . . . . . . . . . . . @                           ",
"                            . . . . . . . . . . . . .                     @ . . . . . . . . . . . . @                           ",
"                                                                                                                                ",
"                                                                                                                                "
};
