/* XPM */
static char *front_milka_tablet[] = {
/* columns rows colors chars-per-pixel */
"64 64 207 2 ",
"   c #5A2F1F",
".  c #5C331C",
"X  c #652F1A",
"o  c #65351B",
"O  c #6A341C",
"+  c #6D3A1E",
"@  c #5B3427",
"#  c #5A3435",
"$  c #633522",
"%  c #643A25",
"&  c #673A27",
"*  c #6D3C24",
"=  c #723E23",
"-  c #723F29",
";  c #613934",
":  c #5F4131",
">  c #754325",
",  c #7B4425",
"<  c #7D4926",
"1  c #744229",
"2  c #7A452A",
"3  c #7D4A2B",
"4  c #6B4737",
"5  c #734D32",
"6  c #3B2D64",
"7  c #3F316A",
"8  c #5A3645",
"9  c #5D3843",
"0  c #623B44",
"q  c #633E50",
"w  c #432E69",
"e  c #463666",
"r  c #493867",
"t  c #45356A",
"y  c #4D3C6D",
"u  c #553D65",
"i  c #483873",
"p  c #4D3C74",
"a  c #513F72",
"s  c #543F78",
"d  c #584658",
"f  c #724F42",
"g  c #6A4555",
"h  c #775258",
"j  c #7D6353",
"k  c #50406E",
"l  c #564475",
"z  c #594676",
"x  c #554974",
"c  c #56437A",
"v  c #5A447C",
"b  c #5C4A7A",
"n  c #5F5174",
"m  c #6B4964",
"M  c #664768",
"N  c #6C536A",
"B  c #625E6F",
"V  c #79566F",
"C  c #694E78",
"Z  c #655777",
"A  c #6C527D",
"S  c #685A7F",
"D  c #755776",
"F  c #795C7C",
"G  c #6D6379",
"H  c #844C27",
"J  c #824B2B",
"K  c #87532E",
"L  c #8B522D",
"P  c #844C32",
"I  c #804F3F",
"U  c #8C5432",
"Y  c #86543B",
"T  c #8B5B3C",
"R  c #925736",
"E  c #945B3A",
"W  c #9A5E3C",
"Q  c #9C613C",
"!  c #855949",
"~  c #8A5D5C",
"^  c #88664A",
"/  c #8C6A5C",
"(  c #9A7158",
")  c #A06241",
"_  c #B07A58",
"`  c #805F7B",
"'  c #8A6363",
"]  c #987C6A",
"[  c #8B7978",
"{  c #9D7574",
"}  c #917A71",
"|  c #B8885B",
" . c #98806E",
".. c #968375",
"X. c #A38D7C",
"o. c #A3907F",
"O. c #C9A17D",
"+. c #D3A477",
"@. c #5D4681",
"#. c #5D4881",
"$. c #644D86",
"%. c #664F88",
"&. c #655484",
"*. c #6C5584",
"=. c #675A84",
"-. c #6B5A84",
";. c #66528B",
":. c #6C568D",
">. c #6D598B",
",. c #715784",
"<. c #715883",
"1. c #795C85",
"2. c #70568D",
"3. c #715A8D",
"4. c #6D5691",
"5. c #6E5991",
"6. c #705691",
"7. c #735C92",
"8. c #6D6188",
"9. c #786687",
"0. c #75648D",
"q. c #7A6B8C",
"w. c #7C718C",
"e. c #746592",
"r. c #7B6B93",
"t. c #796499",
"y. c #7E6B9B",
"u. c #7E7395",
"i. c #846785",
"p. c #906F83",
"a. c #83768E",
"s. c #9B7888",
"d. c #816C97",
"f. c #816D9C",
"g. c #837393",
"h. c #867A94",
"j. c #84729C",
"k. c #857B9A",
"l. c #8D7D9F",
"z. c #8573A1",
"x. c #8873A0",
"c. c #8D7CA3",
"v. c #907EA7",
"b. c magenta",
"n. c #978987",
"m. c #908A95",
"M. c #96869F",
"N. c #A49789",
"B. c #B08C90",
"V. c #AD9E93",
"C. c #ADA097",
"Z. c #B8AD9E",
"A. c #9385A3",
"S. c #978CA7",
"D. c #9485AA",
"F. c #9B8EAB",
"G. c #9A92A2",
"H. c #9C8BB3",
"J. c #9F92B0",
"K. c #A594AA",
"L. c #A69DAE",
"P. c #B99CA3",
"I. c #A394B2",
"U. c #A899B6",
"Y. c #AA9DBA",
"T. c #A7A2A6",
"R. c #B7AEA1",
"E. c #ACA3B4",
"W. c #AFA2BA",
"Q. c #B2A6BD",
"!. c #B3ACBC",
"~. c #B8ADBF",
"^. c #B4B0BA",
"/. c #BBB5BE",
"(. c #AB9CC2",
"). c #AEA0C5",
"_. c #B5ACC2",
"`. c #B3AACB",
"'. c #BCB3C4",
"]. c #BAB2CC",
"[. c #BDB7D1",
"{. c #C3B9CA",
"}. c #C4B9CD",
"|. c #C5BBD2",
" X c #C7BDD7",
".X c #CDCBC3",
"XX c #CAC6CB",
"oX c #D2CFC5",
"OX c #C7C1D1",
"+X c #CDC4D3",
"@X c #CFC8D5",
"#X c #D1C7D6",
"$X c #D1CBD6",
"%X c #D5C7D8",
"&X c #D4CCDB",
"*X c #D6D4D9",
"=X c #DBD5DE",
"-X c #DACFE1",
";X c #DED9E3",
":X c #E1DCE4",
">X c #E4DBE8",
",X c #EAE7EB",
"<X c #EAE5EC",
"1X c #EEEBF0",
"2X c #F1EDF1",
"3X c #F6F3F7",
"4X c #FEFEFD",
/* pixels */
"b.b.b.b.b.b.b.b.b.b.b.b.b.b.b.b.b.b.b.b.b.b.b.b.b.b.b.b.b.b.b.b.b.b.b.b.b.b.b.b.b.b.b.b.b.b.b.b.b.b.b.b.b.b.b.b.b.b.b.b.b.b.b.b.",
"b.b.b.b.b.b.b.b.b.b.b.b.b.b.b.b.b.b.b.b.b.b.b.b.b.b.b.b.b.b.b.b.b.b.b.b.b.b.b.b.b.b.b.b.b.b.b.b.b.b.b.b.b.b.b.b.b.b.b.b.b.b.b.b.",
"b.b.b.b.b.b.b.b.b.b.b.b.b.b.b.b.b.b.b.b.b.b.b.b.b.b.b.b.b.b.b.b.b.b.b.b.b.b.b.b.b.b.b.b.b.b.b.b.b.b.b.b.b.b.b.b.b.b.b.b.b.b.b.b.",
"b.b.b.b.b.b.b.b.b.b.b.b.b.b.b.b.b.b.b.b.b.b.b.b.b.b.b.b.b.b.b.b.b.b.b.b.b.b.b.b.b.b.b.b.b.b.b.b.b.b.b.b.b.b.b.b.b.b.b.b.b.b.b.b.",
"b.b.b.b.b.b.b.b.b.b.b.b.b.b.b.b.b.b.b.b.b.b.b.b.b.b.b.b.b.b.b.b.b.b.b.b.b.b.b.b.b.b.b.b.b.b.b.b.b.b.b.b.b.b.b.b.b.b.b.b.b.b.b.b.",
"b.b.b.b.b.b.b.b.b.b.b.b.b.b.b.b.b.b.b.b.b.b.b.b.b.b.b.b.b.b.b.b.b.b.b.b.b.b.b.b.b.b.b.b.b.b.b.b.b.b.b.b.b.b.b.b.b.b.b.b.b.b.b.b.",
"b.b.b.b.b.b.b.b.b.b.b.b.b.b.b.b.b.b.b.S &.=.*.>.*.>.*.>.>.=.*.>.>.>.>.*.;.*.=.=.>.>.>.-.=.b.b.b.b.b.b.b.b.b.b.b.b.b.b.b.b.b.b.b.",
"b.b.b.b.b.b.b.b.b.b.b.b.b.b.b.b.b.b.b.*.*.*.,.*.*.*.*.*.-.,.<.<.A *.*.*.*.*.,.*.,.,.*.;.=.b.b.b.b.b.b.b.b.b.b.b.b.b.b.b.b.b.b.b.",
"b.b.b.b.b.b.b.b.b.b.b.b.b.b.b.b.b.b.b.N g 9 9 9 9 9 8 0 0 0 0 0 9 # 8 0 0 9 0 0 0 0 g C &.b.b.b.b.b.b.b.b.b.b.b.b.b.b.b.b.b.b.b.",
"b.b.b.b.b.b.b.b.b.b.b.b.b.b.b.b.b.b.b.b.; - = * * * -   = 2 1 1 - - % $ > > 1 1 1 - @ g B b.b.b.b.b.b.b.b.b.b.b.b.b.b.b.b.b.b.b.",
"b.b.b.b.b.b.b.b.b.b.b.b.b.b.b.b.b.b.b.b.+ W W R T E ) * P ) W E E W 3 - Q Q Q E E U o ; b.b.b.b.b.b.b.b.b.b.b.b.b.b.b.b.b.b.b.b.",
"b.b.b.b.b.b.b.b.b.b.b.b.b.b.b.b.b.b.b.b.* W L H < 3 J + J U < < < J = , Q H H < 3 > % : b.b.b.b.b.b.b.b.b.b.b.b.b.b.b.b.b.b.b.b.",
"b.b.b.b.b.b.b.b.b.b.b.b.b.b.b.b.b.b.b.b.* W H H < < 2 o 3 U , , < < = > E H < 5 1 f } ..b.b.b.b.b.b.b.b.b.b.b.b.b.b.b.b.b.b.b.b.",
"b.b.b.b.b.b.b.b.b.b.b.b.b.b.b.b.b.b.b.b.% E U H J 3 3 o 3 U , 3 < 3 1 , R 3 / ] ] [ G n b.b.b.b.b.b.b.b.b.b.b.b.b.b.b.b.b.b.b.b.",
"b.b.b.b.b.b.b.b.b.b.b.b.b.b.b.b.b.b.b.b.$ P J , > , 1 $ 1 3 > 1 - > = 5 ^ j [ m.m.w.r e b.b.b.b.b.b.b.b.b.b.b.b.b.b.b.b.b.b.b.b.",
"b.b.b.b.b.b.b.b.b.b.b.b.b.b.b.b.b.b.b.b.@ X O o o O O X o . @ . & 4 j n.N.n.d e e y ;.x b.b.b.b.b.b.b.b.b.b.b.b.b.b.b.b.b.b.b.b.",
"b.b.b.b.b.b.b.b.b.b.b.b.b.b.b.b.b.b.b.b.$ P U E R T T > . 5  ...V.Z. .4 4 f # M *.;.5.l b.b.b.b.b.b.b.b.b.b.b.b.b.b.b.b.b.b.b.b.",
"b.b.b.b.b.b.b.b.b.b.b.b.b.b.b.b.b.b.b.b.% E U J K T  .X.N.C.T.B G } ^ > * $   ; M 3.5.l b.b.b.b.b.b.b.b.b.b.b.b.b.b.b.b.b.b.b.b.",
"b.b.b.b.b.b.b.b.b.b.b.b.b.b.b.b.b.b.b.b.1 Q ^ ^ / X.R.oX.XT.u.k g 1 < H 2 o T 2 0 2.4.c b.b.b.b.b.b.b.b.b.b.b.b.b.b.b.b.b.b.b.b.",
"b.b.b.b.b.b.b.b.b.b.b.b.b.b.b.b.b.b.b.b.4 / o.N.R.oX.X/.G.G k D ! 3 2 3 , o _ ! q 2.4.l b.b.b.b.b.b.b.b.b.b.b.b.b.b.b.b.b.b.b.b.",
"b.b.b.b.b.b.b.b.b.b.b.b.b.b.b.b.b.b.b.b.d m./..X.XXX^.8.k &.5.V 4 U Y - O * & g A :.:.l b.b.b.b.b.b.b.b.b.b.b.b.b.b.b.b.b.b.b.b.",
"b.b.b.b.b.b.b.b.b.b.b.b.b.b.b.b.b.b.b.b.8.n !.*X^.n n n ;.>.F ~ P R L * > | 2 m :.4.*.c b.b.b.b.b.b.b.b.b.b.b.b.b.b.b.b.b.b.b.b.",
"b.b.b.b.b.b.b.b.b.b.b.b.b.b.b.b.b.b.b.b.y.$.k.G.k.l l ;.5.>.F ' T U J * $ ( h D 7.6.>.c b.b.b.b.b.b.b.b.b.b.b.b.b.b.b.b.b.b.b.b.",
"b.b.b.b.b.b.b.b.b.b.b.b.b.b.b.b.b.b.b.b.f.t.l r l 5.4.5.:.5.6.F ' Y > * * . m F i.3.5.z b.b.b.b.b.b.b.b.b.b.b.b.b.b.b.b.b.b.b.b.",
"b.b.b.b.b.b.b.b.b.b.b.b.b.b.b.b.b.b.b.b.z.7.4.4.:.3.5.5.>.>.4.6.F ~ P L | ; M s.B.1.6.v b.b.b.b.b.b.b.b.b.b.b.b.b.b.b.b.b.b.b.b.",
"b.b.b.b.b.b.b.b.b.b.b.b.b.b.b.b.b.b.b.b.z.7.6.4.6.>.6.5.5.5.4.5.2.D q & I g C i.i.3.6.c b.b.b.b.b.b.b.b.b.b.b.b.b.b.b.b.b.b.b.b.",
"b.b.b.b.b.b.b.b.b.b.b.b.b.b.b.b.b.b.b.b.f.7.>.3.7.6.5.>.5.5.2.2.>.z u 8 h { h C 3.2.;.x b.b.b.b.b.b.b.b.b.b.b.b.b.b.b.b.b.b.b.b.",
"b.b.b.b.b.b.b.b.b.b.b.b.b.b.b.b.b.b.b.b.f.7.:.6.7.>.>.c.f.5.3.>.@.t 6 u { +.! m 6.;.*.v b.b.b.b.b.b.b.b.b.b.b.b.b.b.b.b.b.b.b.b.",
"b.b.b.b.b.b.b.b.b.b.b.b.b.b.b.b.b.b.b.b.y.3.2.3.0.0.q.-XI.4.6.>.y t 6 N O.+.I m 6.;.:.z b.b.b.b.b.b.b.b.b.b.b.b.b.b.b.b.b.b.b.b.",
"b.b.b.b.b.b.b.b.b.b.b.b.b.b.b.b.b.b.b.b.y.3.:.:.A.:X>X2XI.;.6.e.).8.6 k { O.' A 4.4.:.z b.b.b.b.b.b.b.b.b.b.b.b.b.b.b.b.b.b.b.b.",
"b.b.b.b.b.b.b.b.b.b.b.b.b.b.b.b.b.b.b.b.y.7.:.>.S.2X!.E.!.D.,.d.U.I.r.i M p.1.2.:.4.:.l b.b.b.b.b.b.b.b.b.b.b.b.b.b.b.b.b.b.b.b.",
"b.b.b.b.b.b.b.b.b.b.b.b.b.b.b.b.b.b.b.b.f.7.6.:.l.{.a.h.&X_.3.j.v.`.D.w t $.2.2.5.>.:.l b.b.b.b.b.b.b.b.b.b.b.b.b.b.b.b.b.b.b.b.",
"b.b.b.b.b.b.b.b.b.b.b.b.b.b.b.b.b.b.b.b.x.7.4.6.5.0.J.;X3X_.3.l.A.M.i.e t ;.2.2.4.2.:.z b.b.b.b.b.b.b.b.b.b.b.b.b.b.b.b.b.b.b.b.",
"b.b.b.b.b.b.b.b.b.b.b.b.b.b.b.b.b.b.b.b.z.7.>.;.;.0.&XT.$X'.g.%X%XP.K.l.e ;.6.2.:.>.4.z b.b.b.b.b.b.b.b.b.b.b.b.b.b.b.b.b.b.b.b.",
"b.b.b.b.b.b.b.b.b.b.b.b.b.b.b.b.b.b.b.b.x.7.*.U.OX'.M.^.,X/.q.Y.a.N i.D.&.a ;.2.>.>.4.z b.b.b.b.b.b.b.b.b.b.b.b.b.b.b.b.b.b.b.b.",
"b.b.b.b.b.b.b.b.b.b.b.b.b.b.b.b.b.b.b.b.f.7.>.I.{._.G.<X4X^.1.g.q.9.g.y.>.=.,.2.>.3.6.z b.b.b.b.b.b.b.b.b.b.b.b.b.b.b.b.b.b.b.b.",
"b.b.b.b.b.b.b.b.b.b.b.b.b.b.b.b.b.b.b.b.r.4.>.g.m.A.@X;X2XOXu.8.Y._.].I.n f.7.3.3.>.:.z b.b.b.b.b.b.b.b.b.b.b.b.b.b.b.b.b.b.b.b.",
"b.b.b.b.b.b.b.b.b.b.b.b.b.b.b.b.b.b.b.b.y.5.*.].1X;XA.u.XX4X+X=.p e q.Y.=.y ;.3.2.>.;.l b.b.b.b.b.b.b.b.b.b.b.b.b.b.b.b.b.b.b.b.",
"b.b.b.b.b.b.b.b.b.b.b.b.b.b.b.b.b.b.b.b.y.6.*.j.S.A.h.'.1X4X%X=.i 6 0.Q.f.p *.3.3.2.;.l b.b.b.b.b.b.b.b.b.b.b.b.b.b.b.b.b.b.b.b.",
"b.b.b.b.b.b.b.b.b.b.b.b.b.b.b.b.b.b.b.b.f.7.:.4.>.0.E.+X+X>X&X&.t i S.+Xr.t b :.6.2.;.l b.b.b.b.b.b.b.b.b.b.b.b.b.b.b.b.b.b.b.b.",
"b.b.b.b.b.b.b.b.b.b.b.b.b.b.b.b.b.b.b.b.z.7.3.4.>.q.&XA.q.^.=X9.t =.].+Xq.x e v 4.>.;.l b.b.b.b.b.b.b.b.b.b.b.b.b.b.b.b.b.b.b.b.",
"b.b.b.b.b.b.b.b.b.b.b.b.b.b.b.b.b.b.b.b.z.7.4.:.3.q.h.r.~.,X<X#Xb y =.E.&X[.x c ;.:.4.z b.b.b.b.b.b.b.b.b.b.b.b.b.b.b.b.b.b.b.b.",
"b.b.b.b.b.b.b.b.b.b.b.b.b.b.b.b.b.b.b.b.j.7.:.;.l.>X<X<XL.w.g.h.e.=.r.j.=.S e s :.:.4.c b.b.b.b.b.b.b.b.b.b.b.b.b.b.b.b.b.b.b.b.",
"b.b.b.b.b.b.b.b.b.b.b.b.b.b.b.b.b.b.b.b.d.7.3.:.q.Y.2X4X=X}.OX+X@X@X_.e.p s w v :.:.4.l b.b.b.b.b.b.b.b.b.b.b.b.b.b.b.b.b.b.b.b.",
"b.b.b.b.b.b.b.b.b.b.b.b.b.b.b.b.b.b.b.b.d.7.6.2.>.e.}.2X;X+X&X&X$X&XY.-.b s p $.2.>.4.z b.b.b.b.b.b.b.b.b.b.b.b.b.b.b.b.b.b.b.b.",
"b.b.b.b.b.b.b.b.b.b.b.b.b.b.b.b.b.b.b.b.d.7.2.3.6.4.e.&XL.q.a.g.w.q.r.r.>.w $.:.:.2.:.z b.b.b.b.b.b.b.b.b.b.b.b.b.b.b.b.b.b.b.b.",
"b.b.b.b.b.b.b.b.b.b.b.b.b.b.b.b.b.b.b.b.d.7.2.3.:.*.-.*X2X,X1X1X<XI.0.t.:.w $.:.:.2.;.z b.b.b.b.b.b.b.b.b.b.b.b.b.b.b.b.b.b.b.b.",
"b.b.b.b.b.b.b.b.b.b.b.b.b.b.b.b.b.b.b.b.f.7.4.:.d.~.'.,X4X*XE.!.Q.j.>.:.v v %.:.6.2.:.z b.b.b.b.b.b.b.b.b.b.b.b.b.b.b.b.b.b.b.b.",
"b.b.b.b.b.b.b.b.b.b.b.b.b.b.b.b.b.b.b.b.j.7.:.:.d.+X3X*XOXJ.*.3.D.F.c.#.c 5.;.4.4.>.4.z b.b.b.b.b.b.b.b.b.b.b.b.b.b.b.b.b.b.b.b.",
"b.b.b.b.b.b.b.b.b.b.b.b.b.b.b.b.b.b.b.b.x.7.:.4.2.q.+XL.q.>.;.e.|.&XY.*.:.3.6.5.4.:.4.z b.b.b.b.b.b.b.b.b.b.b.b.b.b.b.b.b.b.b.b.",
"b.b.b.b.b.b.b.b.b.b.b.b.b.b.b.b.b.b.b.b.j.7.4.4.5.3.r.+XI.-.>.2.>.3.>.>.6.7.5.e.>.>.;.z b.b.b.b.b.b.b.b.b.b.b.b.b.b.b.b.b.b.b.b.",
"b.b.b.b.b.b.b.b.b.b.b.b.b.b.b.b.b.b.b.b.j.y.5.>.>.3.3.j._.%X&X|.0.>.:.z.).).Y.).(.H.>.l b.b.b.b.b.b.b.b.b.b.b.b.b.b.b.b.b.b.b.b.",
"b.b.b.b.b.b.b.b.b.b.b.b.b.b.b.b.b.b.b.b.f.t.6.>.6.7.7.>.D.Q.W.U.0.4.>.c.+XOX|.|. X).6.l b.b.b.b.b.b.b.b.b.b.b.b.b.b.b.b.b.b.b.b.",
"b.b.b.b.b.b.b.b.b.b.b.b.b.b.b.b.b.b.b.b.r.6.5.5.7.6.6.;.;.=.%.%.4.4.5.z.`.`.`.`.`.(.7.l b.b.b.b.b.b.b.b.b.b.b.b.b.b.b.b.b.b.b.b.",
"b.b.b.b.b.b.b.b.b.b.b.b.b.b.b.b.b.b.b.b.j.7.:.5.>.;.5.4.6.4.:.:.6.6.5.5.5.5.e.7.>.>.4.z b.b.b.b.b.b.b.b.b.b.b.b.b.b.b.b.b.b.b.b.",
"b.b.b.b.b.b.b.b.b.b.b.b.b.b.b.b.b.b.b.b.3.;.@.v v v v v v @.v $.@.v @.v c c @.@.z z #.&.Z b.b.b.b.b.b.b.b.b.b.b.b.b.b.b.b.b.b.b.",
"b.b.b.b.b.b.b.b.b.b.b.b.b.b.b.b.b.b.b.S >.;.%.$.$.$.$.$.$.%.%.%.;.%.%.$.$.$.$.$.%.;.;.>.=.b.b.b.b.b.b.b.b.b.b.b.b.b.b.b.b.b.b.b.",
"b.b.b.b.b.b.b.b.b.b.b.b.b.b.b.b.b.b.b.8.6.2.>.6.:.:.:.:.:.:.5.5.2.:.:.:.6.:.:.4.:.5.6.>.=.b.b.b.b.b.b.b.b.b.b.b.b.b.b.b.b.b.b.b.",
"b.b.b.b.b.b.b.b.b.b.b.b.b.b.b.b.b.b.b.>.:.4.;.:.5.:.;.4.:.4.:.:.:.>.;.:.:.:.:.:.4.>.>.>.-.b.b.b.b.b.b.b.b.b.b.b.b.b.b.b.b.b.b.b.",
"b.b.b.b.b.b.b.b.b.b.b.b.b.b.b.b.b.b.b.-.*.*.>.>.7.>.*.>.>.*.>.*.>.>.-.>.*.:.*.%.-.>.-.>.<.b.b.b.b.b.b.b.b.b.b.b.b.b.b.b.b.b.b.b.",
"b.b.b.b.b.b.b.b.b.b.b.b.b.b.b.b.b.b.b.b.b.b.b.b.b.b.b.b.b.b.b.b.b.b.b.b.b.b.b.b.b.b.b.b.b.b.b.b.b.b.b.b.b.b.b.b.b.b.b.b.b.b.b.b.",
"b.b.b.b.b.b.b.b.b.b.b.b.b.b.b.b.b.b.b.b.b.b.b.b.b.b.b.b.b.b.b.b.b.b.b.b.b.b.b.b.b.b.b.b.b.b.b.b.b.b.b.b.b.b.b.b.b.b.b.b.b.b.b.b.",
"b.b.b.b.b.b.b.b.b.b.b.b.b.b.b.b.b.b.b.b.b.b.b.b.b.b.b.b.b.b.b.b.b.b.b.b.b.b.b.b.b.b.b.b.b.b.b.b.b.b.b.b.b.b.b.b.b.b.b.b.b.b.b.b.",
"b.b.b.b.b.b.b.b.b.b.b.b.b.b.b.b.b.b.b.b.b.b.b.b.b.b.b.b.b.b.b.b.b.b.b.b.b.b.b.b.b.b.b.b.b.b.b.b.b.b.b.b.b.b.b.b.b.b.b.b.b.b.b.b."
};
