/* XPM */
static char *front4_milka_tablet[] = {
/* columns rows colors chars-per-pixel */
"64 64 47 1 ",
"  c #4D3D66",
". c #4E3E68",
"X c #523F6A",
"o c #563D77",
"O c #573E78",
"+ c #583F79",
"@ c #4F4169",
"# c #52436C",
"$ c #574176",
"% c #574078",
"& c #5B457C",
"* c #5E497E",
"= c #635579",
"- c #67587F",
"; c #5E4780",
": c #5F4880",
"> c #604780",
", c #654D86",
"< c #684F87",
"1 c #674E88",
"2 c #684F8A",
"3 c #665086",
"4 c #695486",
"5 c #6A5A83",
"6 c #675088",
"7 c #6C548D",
"8 c #6D598C",
"9 c #70578F",
"0 c #6E5690",
"q c #6F5890",
"w c #705791",
"e c #755D95",
"r c #785F97",
"t c #775D99",
"y c #6D6085",
"u c #74618F",
"i c #766096",
"p c #786097",
"a c #786199",
"s c #826F9D",
"d c #826CA3",
"f c #876EA8",
"g c #8572A4",
"h c #8974A6",
"j c #8770AA",
"k c #8973A9",
"l c magenta",
/* pixels */
"llllllllllllllllllllllllllllllllllllllllllllllllllllllllllllllll",
"llllllllllllllllllllllllllllllllllllllllllllllllllllllllllllllll",
"llllllllllllllllllllllllllllllllllllllllllllllllllllllllllllllll",
"llllllllllllllllllllllllllllllllllllllllllllllllllllllllllllllll",
"llllllllllllllllllllllllllllllllllllllllllllllllllllllllllllllll",
"llllllllllllllllllllllllllllllllllllllllllllllllllllllllllllllll",
"llllllllllllllllll80887666678876447777884748ylllllllllllllllllll",
"llllllllllllllllll5q700787qqqqqq7767q77800085lllllllllllllllllll",
"llllllllllllllllll5878072277727wq77700088774-lllllllllllllllllll",
"lllllllllllllllllllupeeeretwett2qiiqq6qiie85llllllllllllllllllll",
"lllllllllllllllllllsjddffdfdsdd,aaaga%aaggi=llllllllllllllllllll",
"llllllllllllllllllldfr00w977777>7qqq7%607q:#llllllllllllllllllll",
"lllllllllllllllllllgdw7w9997077>7q777%,748*#llllllllllllllllllll",
"lllllllllllllllllllgw7w79279007>68876%,787&Xllllllllllllllllllll",
"lllllllllllllllllllft2797777022;,0076%,087& llllllllllllllllllll",
"lllllllllllllllllllsd7977777707;,0006%,707&@llllllllllllllllllll",
"lllllllllllllllllllgp7770207707;67076%3777*@llllllllllllllllllll",
"lllllllllllllllllllgp7070207027;6q776%,774*#llllllllllllllllllll",
"lllllllllllllllllllhp7777077007;68786%,777&#llllllllllllllllllll",
"lllllllllllllllllllhp7770027027;,7796%,097* llllllllllllllllllll",
"lllllllllllllllllllka0700700072;,7874+2w77& llllllllllllllllllll",
"lllllllllllllllllllka0772007707;,7776+<797$ llllllllllllllllllll",
"lllllllllllllllllllgtw700070707;<7774+<997* llllllllllllllllllll",
"lllllllllllllllllllft2772077777;<7972o,777*#llllllllllllllllllll",
"llllllllllllllllllldt7w77777702;29902o,799*#llllllllllllllllllll",
"llllllllllllllllllldt277w777770;<9772o>779*#llllllllllllllllllll",
"lllllllllllllllllllkt0077777777&2w702o,777*#llllllllllllllllllll",
"lllllllllllllllllllkt7777777777;,7777+,777&@llllllllllllllllllll",
"lllllllllllllllllllkp7777777077&,7202+1077& llllllllllllllllllll",
"lllllllllllllllllllhp7077777702;,7777+,077$ llllllllllllllllllll",
"lllllllllllllllllllgr7777770007;,6700+,074&.llllllllllllllllllll",
"lllllllllllllllllllgr7777777077;,0702+,784&@llllllllllllllllllll",
"lllllllllllllllllllht0777777707;67772o,078*#llllllllllllllllllll",
"lllllllllllllllllllkt6777777707;67701o:078*#llllllllllllllllllll",
"lllllllllllllllllllat6000777770;6q072o,078*$llllllllllllllllllll",
"lllllllllllllllllllaa6777077770;60076o:088&#llllllllllllllllllll",
"lllllllllllllllllllgt6077777777;20076O1778*@llllllllllllllllllll",
"lllllllllllllllllllgt0777777077;:7772%1778&@llllllllllllllllllll",
"lllllllllllllllllllgt2207777702;27772o:047&@llllllllllllllllllll",
"lllllllllllllllllllgt0707777777;:7772;1084&@llllllllllllllllllll",
"lllllllllllllllllllhi88q7000007;27777O2777;.llllllllllllllllllll",
"lllllllllllllllllllaiy770072077;27772O2007; llllllllllllllllllll",
"lllllllllllllllllllhi7770202777;67772O200q%@llllllllllllllllllll",
"lllllllllllllllllllhi7770200777;67722o207q%@llllllllllllllllllll",
"lllllllllllllllllllha7770020067;60076;1007&#llllllllllllllllllll",
"lllllllllllllllllllhiqq72002007;6007,o,777*#llllllllllllllllllll",
"lllllllllllllllllllat7772077777;6q002o;778:#llllllllllllllllllll",
"lllllllllllllllllllae7000777777;6qq02;;77q:#llllllllllllllllllll",
"lllllllllllllllllllse7777777702;2www2o,777*@llllllllllllllllllll",
"lllllllllllllllllllde7770770770;,7072+,077&@llllllllllllllllllll",
"lllllllllllllllllllse7776077007;,77w7+,097&@llllllllllllllllllll",
"lllllllllllllllllllhr7770020270&,7777+2097&#llllllllllllllllllll",
"lllllllllllllllllllhp6777007707;12772&2077&@llllllllllllllllllll",
"lllllllllllllllllllha7770270777;,7277&2077&#llllllllllllllllllll",
"lllllllllllllllllllse8770000007;,7w72+6w77$#llllllllllllllllllll",
"lllllllllllllllllll86666,,,6222&,222,O,766*#llllllllllllllllllll",
"lllllllllllllllllll3%%%%%%%o+++%++%%Oo%&%&2*llllllllllllllllllll",
"llllllllllllllllll-334463333,<<62766666,2405llllllllllllllllllll",
"llllllllllllllllll57778qww777770w97w770777785lllllllllllllllllll",
"llllllllllllllllll548877877767767797767788445lllllllllllllllllll",
"llllllllllllllllllllllllllllllllllllllllllllllllllllllllllllllll",
"llllllllllllllllllllllllllllllllllllllllllllllllllllllllllllllll",
"llllllllllllllllllllllllllllllllllllllllllllllllllllllllllllllll",
"llllllllllllllllllllllllllllllllllllllllllllllllllllllllllllllll"
};
