/* XPM */
static char *front1_milka_tablet[] = {
/* columns rows colors chars-per-pixel */
"64 64 210 2 ",
"   c #63331D",
".  c #69361E",
"X  c #67381E",
"o  c #6C391C",
"O  c #713A1E",
"+  c #532F2D",
"@  c #5C3526",
"#  c #5D3536",
"$  c #633324",
"%  c #6B3622",
"&  c #6C3B22",
"*  c #65392B",
"=  c #723E25",
"-  c #733D29",
";  c #633933",
":  c #633A3D",
">  c #734124",
",  c #7B4726",
"<  c #7E4A26",
"1  c #74442A",
"2  c #7B4629",
"3  c #764A2B",
"4  c #7D4A2A",
"5  c #6C4937",
"6  c #7B4B33",
"7  c #744B38",
"8  c #765339",
"9  c #382665",
"0  c #3C2B65",
"q  c #3F3067",
"w  c #5C3A44",
"e  c #41325B",
"r  c #54395A",
"t  c #643C42",
"y  c #623E4D",
"u  c #623F55",
"i  c #443766",
"p  c #45336B",
"a  c #49356C",
"s  c #4C3C6C",
"d  c #503760",
"f  c #513F6A",
"g  c #453372",
"h  c #4F3D74",
"j  c #533E76",
"k  c #564256",
"l  c #6A4348",
"z  c #7D594A",
"x  c #674657",
"c  c #6E555C",
"v  c #795358",
"b  c #7A6049",
"n  c #7A6454",
"m  c #4E4068",
"M  c #534162",
"N  c #53436D",
"B  c #544372",
"V  c #584474",
"C  c #574C70",
"Z  c #5A4973",
"A  c #564279",
"S  c #5A447C",
"D  c #5C4B7C",
"F  c #5D5176",
"G  c #684663",
"H  c #6D4C64",
"J  c #6C4E6D",
"K  c #75566B",
"L  c #654A7C",
"P  c #62537C",
"I  c #6B547C",
"U  c #6B587A",
"Y  c #755776",
"T  c #72557D",
"R  c #796676",
"E  c #814728",
"W  c #824B2B",
"Q  c #8A4D2C",
"!  c #85512D",
"~  c #834D33",
"^  c #865535",
"/  c #8C5535",
"(  c #8E5936",
")  c #8B5638",
"_  c #915535",
"`  c #945B3B",
"'  c #995E3D",
"]  c #9C613D",
"[  c #875B46",
"{  c #8D6244",
"}  c #976746",
"|  c #886A59",
" . c #916453",
".. c #A4744E",
"X. c #A57856",
"o. c #815E6C",
"O. c #846368",
"+. c #917B6A",
"@. c #82617C",
"#. c #8F7C77",
"$. c #A57D77",
"%. c #9B8473",
"&. c #AD8A72",
"*. c #A2847E",
"=. c #A7927D",
"-. c #D0A377",
";. c #5D4780",
":. c #5D4981",
">. c #634D84",
",. c #684F86",
"<. c #665284",
"1. c #6B5585",
"2. c #675984",
"3. c #6B5A84",
"4. c #665289",
"5. c #6C558C",
"6. c #6E598C",
"7. c #715584",
"8. c #735A84",
"9. c #785C85",
"0. c #70578D",
"q. c #715A8E",
"w. c #6E5691",
"e. c #6E5991",
"r. c #705791",
"t. c #715A92",
"y. c #716386",
"u. c #776684",
"i. c #73638B",
"p. c #756A8B",
"a. c #7A6B8C",
"s. c #7C718D",
"d. c #756392",
"f. c #796393",
"g. c #7C6C94",
"h. c #7D679C",
"j. c #7E6A9D",
"k. c #7F7592",
"l. c #7F6CA1",
"z. c #8B6D82",
"x. c #867A88",
"c. c #9B7786",
"v. c #816D99",
"b. c #837593",
"n. c #857892",
"m. c #85759A",
"M. c #877A9A",
"N. c #8B7B9D",
"B. c #826DA2",
"V. c #8473A2",
"C. c #8B7AA3",
"Z. c #8D7CAA",
"A. c #917EA9",
"S. c magenta",
"D. c #8E838D",
"F. c #8A8492",
"G. c #91859C",
"H. c #95889F",
"J. c #AB8789",
"K. c #AC9A89",
"L. c #A59398",
"P. c #8D82A2",
"I. c #9384A3",
"U. c #958AA3",
"Y. c #9686AB",
"T. c #9B8CAE",
"R. c #9B94A4",
"E. c #9D98A3",
"W. c #9D94A9",
"Q. c #9D90B2",
"!. c #A294AD",
"~. c #A49AB5",
"^. c #A99DB6",
"/. c #B19EB3",
"(. c #A8A3A8",
"). c #B9B2AC",
"_. c #ABA2B7",
"`. c #ADA3B9",
"'. c #B5ACBC",
"]. c #C8C3B8",
"[. c #AC9CC2",
"{. c #B7AAC8",
"}. c #BCB3C6",
"|. c #BFB7D3",
" X c #C1BBC7",
".X c #C3B7C9",
"XX c #C2B5CB",
"oX c #C3BBCB",
"OX c #C2B6D3",
"+X c #C5BAD3",
"@X c #C9C6C5",
"#X c #C5C2CC",
"$X c #D5D4CB",
"%X c #CDC4D4",
"&X c #CCC5D7",
"*X c #D4CCDA",
"=X c #DAD2DF",
"-X c #D7D9DC",
";X c #D9CFE2",
":X c #DED7E2",
">X c #E1D9E5",
",X c #E5DEEA",
"<X c #E5E1E5",
"1X c #E7E4E9",
"2X c #EAE5EC",
"3X c #EFEAF1",
"4X c #F1EDF3",
"5X c #F5F2F6",
"6X c #F8F5F7",
"7X c #FEFCFD",
/* pixels */
"S.S.S.S.S.S.S.S.S.S.S.S.S.S.S.S.S.S.S.S.S.S.S.S.S.S.S.S.S.S.S.S.S.S.S.S.S.S.S.S.S.S.S.S.S.S.S.S.S.S.S.S.S.S.S.S.S.S.S.S.S.S.S.S.",
"S.S.S.S.S.S.S.S.S.S.S.S.S.S.S.S.S.S.S.S.S.S.S.S.S.S.S.S.S.S.S.S.S.S.S.S.S.S.S.S.S.<.3.3.S.S.S.S.S.S.S.S.S.S.S.S.S.S.S.S.S.S.S.S.",
"S.S.S.S.S.S.S.S.S.S.S.S.S.S.S.S.S.S.S.S.S.S.S.S.S.S.S.S.S.S.S.S.S.S.S.3.3.U 2.2.1.8.0.3.S.S.S.S.S.S.S.S.S.S.S.S.S.S.S.S.S.S.S.S.",
"S.S.S.S.S.S.S.S.S.S.S.S.S.S.S.S.S.S.S.S.S.S.S.S.S.S.S.S.S.S.<.<.2.5.5.5.2.1.T T K H G U S.S.S.S.S.S.S.S.S.S.S.S.S.S.S.S.S.S.S.S.",
"S.S.S.S.S.S.S.S.S.S.S.S.S.S.S.S.S.S.S.S.S.S.S.S.P P 1.6.1.1.,.5.5.<.I J x y t : ; * # x S.S.S.S.S.S.S.S.S.S.S.S.S.S.S.S.S.S.S.S.",
"S.S.S.S.S.S.S.S.S.S.S.S.S.S.S.S.S.S.S.S.3.2.<.<.2.5.5.7.T T J G u w # # ; % , ~ ) / % + S.S.S.S.S.S.S.S.S.S.S.S.S.S.S.S.S.S.S.S.",
"S.S.S.S.S.S.S.S.S.S.S.S.S.S.S.S.S.S.S.S.3.3.I I I J x u l : ; $ $ & & $ ) ' ' ' ] ^ @ + S.S.S.S.S.S.S.S.S.S.S.S.S.S.S.S.S.S.S.S.",
"S.S.S.S.S.S.S.S.S.S.S.S.S.S.S.S.S.S.S.S.Y H y w # # @ % % 6 / ` ` ` ^ o ' _ Q E 4 3 8 n S.S.S.S.S.S.S.S.S.S.S.S.S.S.S.S.S.S.S.S.",
"S.S.S.S.S.S.S.S.S.S.S.S.S.S.S.S.S.S.S.S.l # & 1 1 W / ~ O ` ' ( / ! 2 % ` Q 4 , 3 [ %.x.S.S.S.S.S.S.S.S.S.S.S.S.S.S.S.S.S.S.S.S.",
"S.S.S.S.S.S.S.S.S.S.S.S.S.S.S.S.S.S.S.S.S.> ] ` ( / Q 2 o ( W < < < < O ` < 8 | +.x.m m S.S.S.S.S.S.S.S.S.S.S.S.S.S.S.S.S.S.S.S.",
"S.S.S.S.S.S.S.S.S.S.S.S.S.S.S.S.S.S.S.S.S.= ' Q < 2 2 > o / W 2 < E 4 = ` 6 | D.k.i.D m S.S.S.S.S.S.S.S.S.S.S.S.S.S.S.S.S.S.S.S.",
"S.S.S.S.S.S.S.S.S.S.S.S.S.S.S.S.S.S.S.S.S.& ' Q E 2 2 > . ) W 2 4 2 6 [ %.%.R s q s 4.N S.S.S.S.S.S.S.S.S.S.S.S.S.S.S.S.S.S.S.S.",
"S.S.S.S.S.S.S.S.S.S.S.S.S.S.S.S.S.S.S.S.S.& ' Q E 4 4 - . ~ 2 > & X 5 %.=.%.c r D P 5.B S.S.S.S.S.S.S.S.S.S.S.S.S.S.S.S.S.S.S.S.",
"S.S.S.S.S.S.S.S.S.S.S.S.S.S.S.S.S.S.S.S.S.% ` ~ 4 2 1 &   $ $ @ 5 | %.z * 5 * : G 8.5.m S.S.S.S.S.S.S.S.S.S.S.S.S.S.S.S.S.S.S.S.",
"S.S.S.S.S.S.S.S.S.S.S.S.S.S.S.S.S.S.S.S.S.$ 1 o o o O O   @ b #.L.).=.6 2 - % . : T 4.s S.S.S.S.S.S.S.S.S.S.S.S.S.S.S.S.S.S.S.S.",
"S.S.S.S.S.S.S.S.S.S.S.S.S.S.S.S.S.S.S.S.S.@   > E ( ] [ 8 n K.D.k k 7 < W % ] ..l T <.N S.S.S.S.S.S.S.S.S.S.S.S.S.S.S.S.S.S.S.S.",
"S.S.S.S.S.S.S.S.S.S.S.S.S.S.S.S.S.S.S.S.S.% ^ ( ( ( { =.].].(.y.k l 3 , 2 o `  .K 8.4.N S.S.S.S.S.S.S.S.S.S.S.S.S.S.S.S.S.S.S.S.",
"S.S.S.S.S.S.S.S.S.S.S.S.S.S.S.S.S.S.S.S.S.& ) 4 3 b %.].$X(.C S K ^ ! > % O - l 8.0.5.B S.S.S.S.S.S.S.S.S.S.S.S.S.S.S.S.S.S.S.S.",
"S.S.S.S.S.S.S.S.S.S.S.S.S.S.S.S.S.S.S.S.S.& [ | %.K.$X@XL.y.<.T v 6 ( 3   .. .x 8.q.5.V S.S.S.S.S.S.S.S.S.S.S.S.S.S.S.S.S.S.S.S.",
"S.S.S.S.S.S.S.S.S.S.S.S.S.S.S.S.S.S.S.S.S.; | K.).].@XE.N B <.Y [ Q ( 1   ~ z H 9.t.6.B S.S.S.S.S.S.S.S.S.S.S.S.S.S.S.S.S.S.S.S.",
"S.S.S.S.S.S.S.S.S.S.S.S.S.S.S.S.S.S.S.S.S.k L.].$X Xs.F 2.e.8.O.[ _ E 1 o   y @.J.u.<.V S.S.S.S.S.S.S.S.S.S.S.S.S.S.S.S.S.S.S.S.",
"S.S.S.S.S.S.S.S.S.S.S.S.S.S.S.S.S.S.S.S.S.F p.#X-XU.e N e.e.e.T o. .~ > X.z u @.c.8.6.B S.S.S.S.S.S.S.S.S.S.S.S.S.S.S.S.S.S.S.S.",
"S.S.S.S.S.S.S.S.S.S.S.S.S.S.S.S.S.S.S.S.S.l.F P.k.P >.w.6.e.t.t.u.K [ > } v K 7.7.r.5.N S.S.S.S.S.S.S.S.S.S.S.S.S.S.S.S.S.S.S.S.",
"S.S.S.S.S.S.S.S.S.S.S.S.S.S.S.S.S.S.S.S.S.B.d.A h :.5.5.6.q.q.6.0.8.T t ; O.O.J 1.5.<.N S.S.S.S.S.S.S.S.S.S.S.S.S.S.S.S.S.S.S.S.",
"S.S.S.S.S.S.S.S.S.S.S.S.S.S.S.S.S.S.S.S.S.j.t.t.t.t.q.6.e.6.6.5.q.1.V r v &.X.x q.0.<.s S.S.S.S.S.S.S.S.S.S.S.S.S.S.S.S.S.S.S.S.",
"S.S.S.S.S.S.S.S.S.S.S.S.S.S.S.S.S.S.S.S.S.l.t.t.t.q.q.t.t.5.w.w.5.S g d J.-.X.H 0.5.,.B S.S.S.S.S.S.S.S.S.S.S.S.S.S.S.S.S.S.S.S.",
"S.S.S.S.S.S.S.S.S.S.S.S.S.S.S.S.S.S.S.S.S.l.w.t.t.t.t.d.d.5.w.6.D p g s *.-.$.Y 0.5.4.B S.S.S.S.S.S.S.S.S.S.S.S.S.S.S.S.S.S.S.S.",
"S.S.S.S.S.S.S.S.S.S.S.S.S.S.S.S.S.S.S.S.S.l.w.t.t.t.t.N.OXd.5.6.V.T.i g 9.c.z.8.5.5.4.V S.S.S.S.S.S.S.S.S.S.S.S.S.S.S.S.S.S.S.S.",
"S.S.S.S.S.S.S.S.S.S.S.S.S.S.S.S.S.S.S.S.S.j.w.w.t.f.M. X,Xa.4.0.T.OXY.B a L 0.1.5.r.4.B S.S.S.S.S.S.S.S.S.S.S.S.S.S.S.S.S.S.S.S.",
"S.S.S.S.S.S.S.S.S.S.S.S.S.S.S.S.S.S.S.S.S.j.t.w.6.!.3X2X%X^.g.v.I.!.{.N 0 ;.5.5.0.t.5.N S.S.S.S.S.S.S.S.S.S.S.S.S.S.S.S.S.S.S.S.",
"S.S.S.S.S.S.S.S.S.S.S.S.S.S.S.S.S.S.S.S.S.m.e.w.2.^.;Xs.n.>XI.m.I.I.G.Z q :.5.0.w.t.6.N S.S.S.S.S.S.S.S.S.S.S.S.S.S.S.S.S.S.S.S.",
"S.S.S.S.S.S.S.S.S.S.S.S.S.S.S.S.S.S.S.S.S.l.t.w.5.Y.^.G.=X4XG.N.`.XXL./.j j ,.r.6.q.5.N S.S.S.S.S.S.S.S.S.S.S.S.S.S.S.S.S.S.S.S.",
"S.S.S.S.S.S.S.S.S.S.S.S.S.S.S.S.S.S.S.S.S.l.6.6.w.r.a.}. X1XG.T.XX!.R H.g.Z <.6.e.r.4.N S.S.S.S.S.S.S.S.S.S.S.S.S.S.S.S.S.S.S.S.",
"S.S.S.S.S.S.S.S.S.S.S.S.S.S.S.S.S.S.S.S.S.V.6.6.5.2.N.#XE.<XH.v.Y e F p.<.C.C.q.t.r.4.f S.S.S.S.S.S.S.S.S.S.S.S.S.S.S.S.S.S.S.S.",
"S.S.S.S.S.S.S.S.S.S.S.S.S.S.S.S.S.S.S.S.S.V.t.6.N.`._.E.3X6XN.2.N.OX*X~.D D 5.t.r.w.5.N S.S.S.S.S.S.S.S.S.S.S.S.S.S.S.S.S.S.S.S.",
"S.S.S.S.S.S.S.S.S.S.S.S.S.S.S.S.S.S.S.S.S.j.t.6.XX2X X#X7X6XH.y.i.v.p.^.G.N D t.5.5.<.N S.S.S.S.S.S.S.S.S.S.S.S.S.S.S.S.S.S.S.S.",
"S.S.S.S.S.S.S.S.S.S.S.S.S.S.S.S.S.S.S.S.S.h.t.t.v.b.G.oX'.1X1X~.B 9 s `.T.A h :.5.5.5.Z S.S.S.S.S.S.S.S.S.S.S.S.S.S.S.S.S.S.S.S.",
"S.S.S.S.S.S.S.S.S.S.S.S.S.S.S.S.S.S.S.S.S.j.t.t.I.%X Xy.s.<X7X{.A q <.%Xp.q 9 s 5.5.5.B S.S.S.S.S.S.S.S.S.S.S.S.S.S.S.S.S.S.S.S.",
"S.S.S.S.S.S.S.S.S.S.S.S.S.S.S.S.S.S.S.S.S.j.t.1.^.&X!.M.>X6X7X'.:.B ~.:XF.U.p.s 5.w.5.N S.S.S.S.S.S.S.S.S.S.S.S.S.S.S.S.S.S.S.S.",
"S.S.S.S.S.S.S.S.S.S.S.S.S.S.S.S.S.S.S.S.S.B.t.5.e.6.f.!._.W.<XXX3.g 3._.<X,XP.h e.r.<.N S.S.S.S.S.S.S.S.S.S.S.S.S.S.S.S.S.S.S.S.",
"S.S.S.S.S.S.S.S.S.S.S.S.S.S.S.S.S.S.S.S.S.B.q.6.5.5.P.oXb.^.4X5X~.i B m.n.P i h e.w.4.f S.S.S.S.S.S.S.S.S.S.S.S.S.S.S.S.S.S.S.S.",
"S.S.S.S.S.S.S.S.S.S.S.S.S.S.S.S.S.S.S.S.S.j.e.w.w.6.i.a.n.%X'.U.y.3.C.Q.V g p B t.e.4.f S.S.S.S.S.S.S.S.S.S.S.S.S.S.S.S.S.S.S.S.",
"S.S.S.S.S.S.S.S.S.S.S.S.S.S.S.S.S.S.S.S.S.v.r.5.e.j.E.}.oXb.s.I.oX:X>XN.D p h 5.q.t.5.M S.S.S.S.S.S.S.S.S.S.S.S.S.S.S.S.S.S.S.S.",
"S.S.S.S.S.S.S.S.S.S.S.S.S.S.S.S.S.S.S.S.S.l.r.0.6.^.5X7X6X*X2X2X=X}.W.g.f.a j t.0.q.6.B S.S.S.S.S.S.S.S.S.S.S.S.S.S.S.S.S.S.S.S.",
"S.S.S.S.S.S.S.S.S.S.S.S.S.S.S.S.S.S.S.S.S.l.t.r.6.g.W.5X6X#XR.a.p.s.s.j.j.s j 5.5.r.5.C S.S.S.S.S.S.S.S.S.S.S.S.S.S.S.S.S.S.S.S.",
"S.S.S.S.S.S.S.S.S.S.S.S.S.S.S.S.S.S.S.S.S.B.t.t.e.5.q.'.2XF.M.~.&X;XC.f.4.>.4.5.5.w.5.V S.S.S.S.S.S.S.S.S.S.S.S.S.S.S.S.S.S.S.S.",
"S.S.S.S.S.S.S.S.S.S.S.S.S.S.S.S.S.S.S.S.S.B.t.t.e.w.<.Y.6X1X3X,X%X!.i.5.j 5.0.w.w.w.,.B S.S.S.S.S.S.S.S.S.S.S.S.S.S.S.S.S.S.S.S.",
"S.S.S.S.S.S.S.S.S.S.S.S.S.S.S.S.S.S.S.S.S.B.t.q.e.5.2.W.7X7X_.g.y.M.T.d.0.r.0.0.5.5.,.N S.S.S.S.S.S.S.S.S.S.S.S.S.S.S.S.S.S.S.S.",
"S.S.S.S.S.S.S.S.S.S.S.S.S.S.S.S.S.S.S.S.S.j.t.t.5.N.+X1X<X%Xb.5.Y.=XXXf.5.d.h.C.Y.A.4.N S.S.S.S.S.S.S.S.S.S.S.S.S.S.S.S.S.S.S.S.",
"S.S.S.S.S.S.S.S.S.S.S.S.S.S.S.S.S.S.S.S.S.B.e.w.5.C.*X:Xn.q.t.5.t.g.1.q.Z.[.{.OXOX[.6.s S.S.S.S.S.S.S.S.S.S.S.S.S.S.S.S.S.S.S.S.",
"S.S.S.S.S.S.S.S.S.S.S.S.S.S.S.S.S.S.S.S.S.j.e.e.5.6.M.XXXXg.i.n.N.5.w.t.{.|.OX|.|.Q.6.N S.S.S.S.S.S.S.S.S.S.S.S.S.S.S.S.S.S.S.S.",
"S.S.S.S.S.S.S.S.S.S.S.S.S.S.S.S.S.S.S.S.S.l.e.6.r.t.7.M. X'.*X2X}.6.w.t.{.{.Q.Z.h.t.6.C S.S.S.S.S.S.S.S.S.S.S.S.S.S.S.S.S.S.S.S.",
"S.S.S.S.S.S.S.S.S.S.S.S.S.S.S.S.S.S.S.S.S.B.t.q.t.5.6.6.g.&XXXT.g.6.t.q.j.i.2.>.;.S S L S.S.S.S.S.S.S.S.S.S.S.S.S.S.S.S.S.S.S.S.",
"S.S.S.S.S.S.S.S.S.S.S.S.S.S.S.S.S.S.S.S.S.B.h.t.6.w.w.e.t.d.1.5.5.5.w.,.:.S S S S S >.6.S.S.S.S.S.S.S.S.S.S.S.S.S.S.S.S.S.S.S.S.",
"S.S.S.S.S.S.S.S.S.S.S.S.S.S.S.S.S.S.S.S.S.B.B.r.w.w.w.5.t.w.5.4.>.S S A S >.>.5.r.5.w.e.3.S.S.S.S.S.S.S.S.S.S.S.S.S.S.S.S.S.S.S.",
"S.S.S.S.S.S.S.S.S.S.S.S.S.S.S.S.S.S.S.S.S.V.t.5.5.t.t.5.5.>.S A A A :.5.5.t.t.w.q.5.w.2.U S.S.S.S.S.S.S.S.S.S.S.S.S.S.S.S.S.S.S.",
"S.S.S.S.S.S.S.S.S.S.S.S.S.S.S.S.S.S.S.S.S.V.e.4.>.>.:.;.S >.>.,.1.5.w.w.e.t.6.6.U I 2.U S.S.S.S.S.S.S.S.S.S.S.S.S.S.S.S.S.S.S.S.",
"S.S.S.S.S.S.S.S.S.S.S.S.S.S.S.S.S.S.S.S.S.d.:.A j A :.4.5.w.t.t.r.0.w.5.2.1.3.S.S.S.S.S.S.S.S.S.S.S.S.S.S.S.S.S.S.S.S.S.S.S.S.S.",
"S.S.S.S.S.S.S.S.S.S.S.S.S.S.S.S.S.S.S.S.S.4.:.>.5.5.5.e.6.5.6.6.r.6.2.U S.S.S.S.S.S.S.S.S.S.S.S.S.S.S.S.S.S.S.S.S.S.S.S.S.S.S.S.",
"S.S.S.S.S.S.S.S.S.S.S.S.S.S.S.S.S.S.S.S.2.6.w.t.e.w.5.w.5.6.2.2.3.S.S.S.S.S.S.S.S.S.S.S.S.S.S.S.S.S.S.S.S.S.S.S.S.S.S.S.S.S.S.S.",
"S.S.S.S.S.S.S.S.S.S.S.S.S.S.S.S.S.S.S.S.5.0.5.t.e.q.6.2.2.S.S.S.S.S.S.S.S.S.S.S.S.S.S.S.S.S.S.S.S.S.S.S.S.S.S.S.S.S.S.S.S.S.S.S.",
"S.S.S.S.S.S.S.S.S.S.S.S.S.S.S.S.S.S.S.S.1.6.6.2.2.S.S.S.S.S.S.S.S.S.S.S.S.S.S.S.S.S.S.S.S.S.S.S.S.S.S.S.S.S.S.S.S.S.S.S.S.S.S.S.",
"S.S.S.S.S.S.S.S.S.S.S.S.S.S.S.S.S.S.S.S.S.S.S.S.S.S.S.S.S.S.S.S.S.S.S.S.S.S.S.S.S.S.S.S.S.S.S.S.S.S.S.S.S.S.S.S.S.S.S.S.S.S.S.S.",
"S.S.S.S.S.S.S.S.S.S.S.S.S.S.S.S.S.S.S.S.S.S.S.S.S.S.S.S.S.S.S.S.S.S.S.S.S.S.S.S.S.S.S.S.S.S.S.S.S.S.S.S.S.S.S.S.S.S.S.S.S.S.S.S."
};
