/* XPM */
static char *left_mm[] = {
/* columns rows colors chars-per-pixel */
"64 64 240 2 ",
"   c #080403",
".  c #150503",
"X  c #1A0202",
"o  c #1A1612",
"O  c #230403",
"+  c #2B0302",
"@  c #280D0A",
"#  c #2E0F0E",
"$  c #330403",
"%  c #3C0204",
"&  c #380907",
"*  c #2A1A19",
"=  c #3D1313",
"-  c #341818",
";  c #28231F",
":  c #2B2929",
">  c #362723",
",  c #363130",
"<  c #3A3434",
"1  c #440505",
"2  c #4C0202",
"3  c #470A0C",
"4  c #570908",
"5  c #47140F",
"6  c #510F11",
"7  c #491715",
"8  c #591414",
"9  c #680B0B",
"0  c #780E0F",
"q  c #7C120E",
"w  c #6C0F10",
"e  c #740D13",
"r  c #671518",
"t  c #761516",
"y  c #741C1B",
"u  c #7B1C1B",
"i  c #582018",
"p  c #71211E",
"a  c #551F22",
"s  c #701B25",
"d  c #482627",
"f  c #542427",
"g  c #4B3B33",
"h  c #523331",
"j  c #642626",
"k  c #762624",
"l  c #7B3229",
"z  c #672C34",
"x  c #6B3636",
"c  c #773B38",
"v  c #52463D",
"b  c #6C473C",
"n  c #7B3C42",
"m  c #474B48",
"M  c #5B4846",
"N  c #51524F",
"B  c #5D5356",
"V  c #7A4B48",
"C  c #6D5950",
"Z  c #64595A",
"A  c #5F615F",
"S  c #766B5C",
"D  c #706D66",
"F  c #746C69",
"G  c #757773",
"H  c #870B0C",
"J  c #8C0D0C",
"K  c #9C0A07",
"L  c #960C0C",
"P  c #990A08",
"I  c #99130D",
"U  c #900E12",
"Y  c #861717",
"T  c #941314",
"R  c #9B1717",
"E  c #92151A",
"W  c #931A1C",
"Q  c #AB0A07",
"!  c #A50C0B",
"~  c #B60A08",
"^  c #A9120C",
"/  c #BD120D",
"(  c #B8150F",
")  c #A80E12",
"_  c #BA0E12",
"`  c #AB1012",
"'  c #AD1815",
"]  c #A61918",
"[  c #B51313",
"{  c #BA1717",
"}  c #B31C1A",
"|  c #BB1A1A",
" . c #8B241E",
".. c #A6211A",
"X. c #B2231F",
"o. c #931A27",
"O. c #A91C23",
"+. c #BA1A21",
"@. c #8A2925",
"#. c #982825",
"$. c #8B332F",
"%. c #98342B",
"&. c #993738",
"*. c #A02E2C",
"=. c #B92626",
"-. c #B12935",
";. c #A83A38",
":. c #B93738",
">. c #C70906",
",. c #D70805",
"<. c #DD0B05",
"1. c #D40B0A",
"2. c #DB0C0B",
"3. c #C5120C",
"4. c #D2140D",
"5. c #DA130D",
"6. c #C90D13",
"7. c #D50C12",
"8. c #DB0E11",
"9. c #C31312",
"0. c #CD1312",
"q. c #C81719",
"w. c #D31412",
"e. c #DD1413",
"r. c #D21A16",
"t. c #D91A18",
"y. c #ED0604",
"u. c #E40A05",
"i. c #EC0A05",
"p. c #E8040A",
"a. c #E40B0A",
"s. c #EB0B0A",
"d. c #F40503",
"f. c #FB0403",
"g. c #F40A03",
"h. c #FA0A05",
"j. c #F40508",
"k. c #FB0309",
"l. c #F30A0A",
"z. c #FB0C09",
"x. c #E3120B",
"c. c #EA140E",
"v. c #F61007",
"b. c #F3120C",
"n. c #E50D14",
"m. c #ED0E10",
"M. c #E41213",
"N. c #E91A17",
"B. c #F11312",
"V. c #C9231E",
"C. c #D7241E",
"Z. c #D01A21",
"A. c #C62727",
"S. c #CD3335",
"D. c #E32A27",
"F. c #F43331",
"G. c #8F4A3B",
"H. c #BC433D",
"J. c #CE463F",
"K. c #8B3C49",
"L. c #CD3841",
"P. c #ED3F40",
"I. c #814842",
"U. c #815A55",
"Y. c #985652",
"T. c #A9504E",
"R. c #B6514D",
"E. c #9C6359",
"W. c #AE6256",
"Q. c #856A67",
"!. c #947069",
"~. c #897D7C",
"^. c #957874",
"/. c #A7776B",
"(. c #B2706C",
"). c #CC4849",
"_. c #D34642",
"`. c #C44E52",
"'. c #EA4844",
"]. c #F64947",
"[. c #E45D5A",
"{. c #F65857",
"}. c #C7655B",
"|. c #F96C5E",
" X c #F75A60",
".X c #DE6B6A",
"XX c #CC7372",
"oX c #C67A7C",
"OX c #FF6A68",
"+X c #FE7269",
"@X c #978477",
"#X c #A68879",
"$X c #B28876",
"%X c #C98876",
"&X c magenta",
"*X c #9A8881",
"=X c #989896",
"-X c #B1938E",
";X c #9EA09D",
":X c #A2A39E",
">X c #BAA492",
",X c #A8A9A8",
"<X c #B9ABA8",
"1X c #BAAFAF",
"2X c #C09A89",
"3X c #D1968F",
"4X c #E38985",
"5X c #EA918A",
"6X c #EA9492",
"7X c #C5A595",
"8X c #DFAA96",
"9X c #DAB29A",
"0X c #E3A38D",
"qX c #E5AA98",
"wX c #F2A89B",
"eX c #EAB89B",
"rX c #F1B89F",
"tX c #C9AAA9",
"yX c #DAADAA",
"uX c #DCB7A3",
"iX c #EAADAB",
"pX c #E6BAA6",
"aX c #EEBCA5",
"sX c #F1BBA7",
"dX c #D4C8BE",
"fX c #EEC2AD",
"gX c #C9C7C5",
"hX c #D8C8C6",
"jX c #D9D4D7",
"kX c #EFD3C6",
"lX c #F3D3CC",
"zX c #EADBD6",
"xX c #DBE4DE",
"cX c #E7E7E3",
"vX c #EAEBEB",
"bX c #F6E8EA",
"nX c #F2F1EF",
"mX c #F8F8F5",
"MX c #F5FCFB",
"NX c #FCFCFD",
/* pixels */
"&X&X&X&X&X&X&X&X&X&X&X&X&X&X&X&X&X&X&X&X&X&X&X&X&X&X&X&X&X&X&X&X&X&X&X&X&X&X&X&X&X&X&X&X&X&X&X&X&X&X&X&X&X&X&X&X&X&X&X&X&X&X&X&X",
"&X&X&X&X&X&X&X&X&X&X&X&X&X&X&X&X&X&X&X&X&X&X&X&X&X&X&X&X&X&X&X&X&X&X&X&X&X&X&X&X&X&X&X&X&X&X&X&X&X&X&X&X&X&X&X&X&X&X&X&X&X&X&X&X",
"&X&X&X&X&X&X&X&X&X&X&X&X&X&X&X&X&X&X&X&X&X&X&X&X&X&X&X&X&X&X&X&X&X&X&X&X&X&X&X&X&X&X&X&X&X&X&X&X&X&X&X&X&X&X&X&X&X&X&X&X&X&X&X&X",
"&X&X&X&X&X&X&X&X&X&X&X&X&X&X&X&X&X&X&X&X&X&X&X&X&X&X&X&X&X&X&X&X&X&X&X&X&X&X&X&X&X&X&X&X&X&X&X&X&X&X&X&X&X&X&X&X&X&X&X&X&X&X&X&X",
"&X&X&X&X&X&X&X&X&X&X&X&X&X&X&X&X&X&X&X&X&X&X&X&X&X&X&X&X&X&X&X&X&X&X&X&X&X&X&X&X&X&X&X&X&X&X&X&X&X&X&X&X&X&X&X&X&X&X&X&X&X&X&X&X",
"&X&X&X&X&X&X&X&X&X&X&X&X&X&X&X&X&X&X&X&X&X&X&X&X&X&X&X&X&X&X&X&X&X&X&X&X&X&X&X&X&X&X&X&X&X&X&X&X&X&X&X&X&X&X&X&X&X&X&X&X&X&X&X&X",
"&X&X&X&X&X&X&X&X&X&X&X&X&X&X&X&X&X&X&X&X&X&X&X&X&X&XO + $ 1 2 2 2 2 2 1 &X&X&X&X&X&X&X&X&X&X&X&X&X&X&X&X&X&X&X&X&X&X&X&X&X&X&X&X",
"&X&X&X&X&X&X&X&X&X&X&X&X&X&X&X&X&X&X&X&X&X&X&X. . + 1 w #.R ] ] } O.R Y w 2 $ &X&X&X&X&X&X&X&X&X&X&X&X&X&X&X&X&X&X&X&X&X&X&X&X&X",
"&X&X&X&X&X&X&X&X&X&X&X&X&X&X&X&X&X&X&X&X&X&XX O $ r E | r.5.n.n.n.n.e.r.{ L q 4 $ &X&X&X&X&X&X&X&X&X&X&X&X&X&X&X&X&X&X&X&X&X&X&X",
"&X&X&X&X&X&X&X&X&X&X&X&X&X&X&X&X&X&X&X&X&X$ r t u U ^ 5.i.g.j.d.d.k.l.a.8.q.] #.r 3 &X&X&X&X&X&X&X&X&X&X&X&X&X&X&X&X&X&X&X&X&X&X",
"&X&X&X&X&X&X&X&X&X&X&X&X&X&X&X&X&X&X&X&X& r %.:.=.^ >.a.h.g.d.g.j.k.j.m.F.P._.L.o.t 1 &X&X&X&X&X&X&X&X&X&X&X&X&X&X&X&X&X&X&X&X&X",
"&X&X&X&X&X&X&X&X&X&X&X&X&X&X&X&X&X&X&X+ f l #.#.X.A.e.v.h.h.g.f.d.d.j.m.].OX+X XS.O.w 1 &X&X&X&X&X&X&X&X&X&X&X&X&X&X&X&X&X&X&X&X",
"&X&X&X&X&X&X&X&X&X&X&X&X&X&X&X&X&X&X- 7 x c b $.%.} t.b.h.g.h.k.d.k.d.p.D.{.+X+X XL.O.t 4 &X&X&X&X&X&X&X&X&X&X&X&X&X&X&X&X&X&X&X",
"&X&X&X&X&X&X&X&X&X&X&X&X&X&X&X&X&X&Xa z h <XzXzXyX0 } N.v.v.g.k.d.f.d.y.5.'.|.+XOX].q.} Y &X&X&X&X&X&X&X&X&X&X&X&X&X&X&X&X&X&X&X",
"&X&X&X&X&X&X&X&X&X&X&X&X&X&X&X&X&XO 7 n !.hXmXNXbX3XG.0.B.v.z.f.f.f.f.k.i.t.D.].OXP.n.7.] 4 &X&X&X&X&X&X&X&X&X&X&X&X&X&X&X&X&X&X",
"&X&X&X&X&X&X&X&X&X&X&X&X&X&X&X&X. = 7 a M B gXNXNXcXY.! B.z.f.f.f.f.f.f.j.i.<.N.F.N.s.a./ q &X&X&X&X&X&X&X&X&X&X&X&X&X&X&X&X&X&X",
"&X&X&X&X&X&X&X&X&X&X&X&X&X&X&X&XO a 7 Q.1XB A vXNXbXU.L N.z.f.f.f.f.f.f.k.d.d.y.i.i.i.y.2.] 2 &X&X&X&X&X&X&X&X&X&X&X&X&X&X&X&X&X",
"&X&X&X&X&X&X&X&X&X&X&X&X&X&X&X. % k 8 h A : m cXNXvXV T n.k.h.f.f.f.f.f.f.f.d.d.l.l.d.h.a.9.Y &X&X&X&X&X&X&X&X&X&X&X&X&X&X&X&X&X",
"&X&X&X&X&X&X&X&X&X&X&X&X&X&X&XO r &.8 .     m xXNXzXn U n.j.f.f.f.f.f.h.f.f.f.f.d.d.f.f.l.5...&X&X&X&X&X&X&X&X&X&X&X&X&X&X&X&X&X",
"&X&X&X&X&X&X&X&X&X&X&X&X&X&X&X+ o.-.y +     G vXNXzXI.P n.j.j.k.f.d.d.f.f.f.f.f.d.f.f.f.f.x.| &X&X&X&X&X&X&X&X&X&X&X&X&X&X&X&X&X",
"&X&X&X&X&X&X&X&X&X&X&X&X&X&X&X$ E +.R 4 d *XxXNXbX3X$._ u.y.k.f.d.k.d.f.f.f.f.f.f.f.f.f.f.s.| &X&X&X&X&X&X&X&X&X&X&X&X&X&X&X&X&X",
"&X&X&X&X&X&X&X&X&X&X&X&X&X&X&X$ E V.9.I T.yXhXhXtX$.) 8.p.d.d.f.f.f.f.f.d.k.f.f.f.f.h.f.f.x.| &X&X&X&X&X&X&X&X&X&X&X&X&X&X&X&X&X",
"&X&X&X&X&X&X&X&X&X&X&X&X&X&X&X$ U r.5.r.X. .k k Y ) 1.p.y.d.d.f.f.f.f.d.d.f.f.f.f.h.f.f.f.s.{ &X&X&X&X&X&X&X&X&X&X&X&X&X&X&X&X&X",
"&X&X&X&X&X&X&X&X&X&X&X&X&X&X&X$ T 8.b.i.5.( ' ' [ w.m.y.y.f.k.d.f.f.f.f.d.f.f.f.f.f.f.f.f.s.{ &X&X&X&X&X&X&X&X&X&X&X&X&X&X&X&X&X",
"&X&X&X&X&X&X&X&X&X&X&X&X&X&X&X+ R 8.j.h.g.c.e.t.r.,.p.g.g.f.f.d.d.j.s.s.j.j.f.f.f.f.f.f.f.s.{ &X&X&X&X&X&X&X&X&X&X&X&X&X&X&X&X&X",
"&X&X&X&X&X&X&X&X&X&X&X&X&X&X&X+ Y r.2.s.x.M.M.t.4.>.<.v.h.f.d.u.2.1.4.4.a.y.d.h.f.f.f.f.f.a.} &X&X&X&X&X&X&X&X&X&X&X&X&X&X&X&X&X",
"&X&X&X&X&X&X&X&X&X&X&X&X&X&X&X+ p ../ 0.0.0.q.>.~ >.u.v.v.f.g.<./ I L ! 9.x.i.g.d.f.f.f.j.1.R &X&X&X&X&X&X&X&X&X&X&X&X&X&X&X&X&X",
"&X&X&X&X&X&X&X&X&X&X&X&X&X&X&X. & 9 J P K K Q ~ ,.c.b.v.h.h.c.3...}.XX}.} >.u.d.y.y.d.d.p.>.E &X&X&X&X&X&X&X&X&X&X&X&X&X&X&X&X&X",
"&X&X&X&X&X&X&X&X&X&X&X&X&X&X&X&XO % e J K ! Q 7.c.i.h.h.h.h.c.Q @.qXsXwX#.~ 2.d.d.k.p.p.1.^ t &X&X&X&X&X&X&X&X&X&X&X&X&X&X&X&X&X",
"&X&X&X&X&X&X&X&X&X&X&X&X&X&X&X&X. $ s o.` _ q.p.l.g.f.h.z.z.N.Q  .8XpXqX%.^ 2.p.d.j.y.,.3.T &X&X&X&X&X&X&X&X&X&X&X&X&X&X&X&X&X&X",
"&X&X&X&X&X&X&X&X&X&X&X&X&X&X&X&X&X= K.H.).S.6.p.y.d.d.d.z.z.N.( @.%XaXeXT.] 6.s.k.y.,.>.) t &X&X&X&X&X&X&X&X&X&X&X&X&X&X&X&X&X&X",
"&X&X&X&X&X&X&X&X&X&X&X&X&X&X&X&X&X* -XiXiXwXA.n.d.d.d.d.h.z.B.C.#.G.rXfX0X%.[ n.d.,.,.Q U 6 &X&X&X&X&X&X&X&X&X&X&X&X&X&X&X&X&X&X",
"&X&X&X&X&X&X&X&X&X&X&X&X&X&X&X&X&X&X~.^.7XlX.X7.p.f.f.d.d.j.s.r.*.G.eXrX8X@...4.u.,.~ I e &X&X&X&X&X&X&X&X&X&X&X&X&X&X&X&X&X&X&X",
"&X&X&X&X&X&X&X&X&X&X&X&X&X&X&X&X&X&X: * *XlX.X6.j.d.d.i.y.y.n.( %.%XeXfXqX$.^ 4.<.,.^ t &X&X&X&X&X&X&X&X&X&X&X&X&X&X&X&X&X&X&X&X",
"&X&X&X&X&X&X&X&X&X&X&X&X&X&X&X&X&X&X&X  M pX5XA.p.j.y.u.,.,._ J l qXaXpX3X@.I 3.3.( I 6 &X&X&X&X&X&X&X&X&X&X&X&X&X&X&X&X&X&X&X&X",
"&X&X&X&X&X&X&X&X&X&X&X&X&X&X&X&X&X&X&X&X, *XiXJ.t.s.y.,.>._ U y E.9XfX9Xb q R ( ^ I 9 &X&X&X&X&X&X&X&X&X&X&X&X&X&X&X&X&X&X&X&X&X",
"&X&X&X&X&X&X&X&X&X&X&X&X&X&X&X&X&X&X&X&X&X&X2X5XS.w.6.3.! H 4 c yXkXkX7X5 t T W q 4 &X&X&X&X&X&X&X&X&X&X&X&X&X&X&X&X&X&X&X&X&X&X",
"&X&X&X&X&X&X&X&X&X&X&X&X&X&X&X&X&X&X&X&X&X&X&X/.#.] ' R Y k x -XtX>XdX<X5 r u w &X&X&X&X&X&X&X&X&X&X&X&X&X&X&X&X&X&X&X&X&X&X&X&X",
"&X&X&X&X&X&X&X&X&X&X&X&X&X&X&X&X&X&X&X&X&X&X&X&X&Xp y 4 x tXzXbXjX*XD D @ + % &X&X&X&X&X&X&X&X&X&X&X&X&X&X&X&X&X&X&X&X&X&X&X&X&X",
"&X&X&X&X&X&X&X&X&X&X&X&X&X&X&X&X&X&X&X&X&X&X&X&X&X&X& C -XbXNXNXMXvX,XN o v &X&X&X&X&X&X&X&X&X&X&X&X&X&X&X&X&X&X&X&X&X&X&X&X&X&X",
"&X&X&X&X&X&X&X&X&X&X&X&X&X&X&X&X&X&X&X&X&X&X&X&X&X&X; 1XMXMXMXMXMXMXMX=X; @X&X&X&X&X&X&X&X&X&X&X&X&X&X&X&X&X&X&X&X&X&X&X&X&X&X&X",
"&X&X&X&X&X&X&X&X&X&X&X&X&X&X&X&X&X&X&X&X&X&X&X&X&X&X: ,XgXvXMXMXMXMXMX;X; @XG &X&X&X&X&X&X&X&X&X&X&X&X&X&X&X&X&X&X&X&X&X&X&X&X&X",
"&X&X&X&X&X&X&X&X&X&X&X&X&X&X&X&X&X&X&X&X&X&X&X&X&X&X; G N jXMXMXMXNXNX,X> >X#X&X&X&X&X&X&X&X&X&X&X&X&X&X&X&X&X&X&X&X&X&X&X&X&X&X",
"&X&X&X&X&X&X&X&X&X&X&X&X&X&X&X&X&X&X&X&X&X&X&X&X&X&X: , :XvXMXMXNXNXcX=Xv 7XeX#X&X&X&X&X&X&X&X&X&X&X&X&X&X&X&X&X&X&X&X&X&X&X&X&X",
"&X&X&X&X&X&X&X&X&X&X&X&X&X&X&X&X&X&X&X&X&X&X&X&X&XC S v gXbXnXNXNXmX=X< @XfXeXeX#X&X&X&X&X&X&X&X&X&X&X&X&X&X&X&X&X&X&X&X&X&X&X&X",
"&X&X&X&X&X&X&X&X&X&X&X&X&X&X&X&X&X&X&X&X&X&X&X&X> @X>Xb Z gX1XjXNXcXG o S uXeXeXeX$XU.&X&X&X&X&X&X&X&X&X&X&X&X&X&X&X&X&X&X&X&X&X",
"&X&X&X&X&X&X&X&X&X&X&X&X&X&X&X&X&X&X&X&X&X&X&X: * $X8X>Xb v , =XcX:X: &Xg @X9XeXeXaXE.5 &X&X&X&X&X&X&X&X&X&X&X&X&X&X&X&X&X&X&X&X",
"&X&X&X&X&X&X&X&X&X&X&X&X&X&X&X&X&X@.t y r j f # @ $XqXfX^.. o m F A &X&X&Xv @X9XeXeXW.r 8 &X&X&X&X&X&X&X&X&X&X&X&X&X&X&X&X&X&X&X",
"&X&X&X&X&X&X&X&X&X&X&X&X&X&X&Xj *.L._.=.E e r j 6 G.E.E.U.* &X&X&X&X&X&X&X* g /.3XW. .E E Y &X&X&X&X&X&X&X&X&X&X&X&X&X&X&X&X&X&X",
"&X&X&X&X&X&X&X&X&X&X&X&X&X&X&Xy :.{.].D.6.[ J 0 u w w 8 = - &X&X&X&X&X&X&X< * 5 p W ] Q ^ X.$.&X&X&X&X&X&X&X&X&X&X&X&X&X&X&X&X&X",
"&X&X&X&X&X&X&X&X&X&X&X&X&X&X&X$.=.Z.N.2.1.0._ P J U q r a * &X&X&X&X&X&X&X< - % t R ^ Q >.r.R.T.&X&X&X&X&X&X&X&X&X&X&X&X&X&X&X&X",
"&X&X&X&X&X&X&X&X&X&X&X&X&X&X&X(.:._ 7.<.u.<.5.>.Q P H 9 3 - &X&X&X&X&X&X&X- # $ 4 J ! 9.x.x._.3X&X&X&X&X&X&X&X&X&X&X&X&X&X&X&X&X",
"&X&X&X&X&X&X&X&X&X&X&X&X&X&X&X!.W.:.A.2.a.s.a.2.>.~ I w & &X&X&X&X&X&X&X7 1 4 9 0 K 9.M.b.c.J.8X&X&X&X&X&X&X&X&X&X&X&X&X&X&X&X&X",
"&X&X&X&X&X&X&X&X&X&X&X&X&X&X&X&Xx (.`.+.6.2.n.a.,.>.^ Y % &X&X&X&X&X&Xa r #.`.[.X.>.1.u.x.4.H.(.&X&X&X&X&X&X&X&X&X&X&X&X&X&X&X&X",
"&X&X&X&X&X&X&X&X&X&X&X&X&X&X&X&X&Xh E.}.).+.9.0.1.>.Q Y 3 &X&X&X&X&X&X3 W +.D.F.C.<.u.u.4.A.R.f &X&X&X&X&X&X&X&X&X&X&X&X&X&X&X&X",
"&X&X&X&X&X&X&X&X&X&X&X&X&X&X&X&X&X&X&XV (.XX`.=.{ ( ` Y 1 &X&X&X&X&X&X5 #.q.M.u.u.u.a.<.V.`.c &X&X&X&X&X&X&X&X&X&X&X&X&X&X&X&X&X",
"&X&X&X&X&X&X&X&X&X&X&X&X&X&X&X&X&X&X&X&X> i n XX;.;.#.k 3 &X&X&X&X&X&X5 @.+.q.0.0.q.q.=.R.G.&X&X&X&X&X&X&X&X&X&X&X&X&X&X&X&X&X&X",
"&X&X&X&X&X&X&X&X&X&X&X&X&X&X&X&X&X&X&X&X&X&X, h x (.l 8 &X&X&X&X&X&X&X- c oX4X4X5X6X6XoXV &X&X&X&X&X&X&X&X&X&X&X&X&X&X&X&X&X&X&X",
"&X&X&X&X&X&X&X&X&X&X&X&X&X&X&X&X&X&X&X&X&X&X&X&X* d = &X&X&X&X&X&X&X&X&Xg Q.^.^.^.#X7X*X&X&X&X&X&X&X&X&X&X&X&X&X&X&X&X&X&X&X&X&X",
"&X&X&X&X&X&X&X&X&X&X&X&X&X&X&X&X&X&X&X&X&X&X&X&X&X&X&X&X&X&X&X&X&X&X&X&X&X&X; * &X&X&X&X&X&X&X&X&X&X&X&X&X&X&X&X&X&X&X&X&X&X&X&X",
"&X&X&X&X&X&X&X&X&X&X&X&X&X&X&X&X&X&X&X&X&X&X&X&X&X&X&X&X&X&X&X&X&X&X&X&X&X&X&X&X&X&X&X&X&X&X&X&X&X&X&X&X&X&X&X&X&X&X&X&X&X&X&X&X",
"&X&X&X&X&X&X&X&X&X&X&X&X&X&X&X&X&X&X&X&X&X&X&X&X&X&X&X&X&X&X&X&X&X&X&X&X&X&X&X&X&X&X&X&X&X&X&X&X&X&X&X&X&X&X&X&X&X&X&X&X&X&X&X&X",
"&X&X&X&X&X&X&X&X&X&X&X&X&X&X&X&X&X&X&X&X&X&X&X&X&X&X&X&X&X&X&X&X&X&X&X&X&X&X&X&X&X&X&X&X&X&X&X&X&X&X&X&X&X&X&X&X&X&X&X&X&X&X&X&X",
"&X&X&X&X&X&X&X&X&X&X&X&X&X&X&X&X&X&X&X&X&X&X&X&X&X&X&X&X&X&X&X&X&X&X&X&X&X&X&X&X&X&X&X&X&X&X&X&X&X&X&X&X&X&X&X&X&X&X&X&X&X&X&X&X"
};
