/* XPM */
static char *Milk_Item[] = {
/* columns rows colors chars-per-pixel */
"64 64 196 2 ",
"   c None",
".  c #2C245D",
"X  c #2F2858",
"o  c #352E5B",
"O  c #2C2366",
"+  c #2B246A",
"@  c #2F296D",
"#  c #2B2669",
"$  c #352C63",
"%  c #302E6A",
"&  c #3A3162",
"*  c #34356E",
"=  c #3A3A6A",
"-  c #3A316C",
";  c #2E2B71",
":  c #302D75",
">  c #2F3274",
",  c #2F377E",
"<  c #333475",
"1  c #353872",
"2  c #3C3B74",
"3  c #32347C",
"4  c #363B7B",
"5  c #393D7D",
"6  c #403B6E",
"7  c #3F4176",
"8  c #3B447F",
"9  c #404477",
"0  c #444A7C",
"q  c #414279",
"w  c #3B3782",
"e  c #373B81",
"r  c #3C3E8B",
"t  c #363780",
"y  c #3C4385",
"u  c #3D428B",
"i  c #3A498E",
"p  c #3F4595",
"a  c #3F4F93",
"s  c #3F5495",
"d  c #3F569A",
"f  c #3F5899",
"g  c #42448D",
"h  c #434E8C",
"j  c #44558E",
"k  c #4C5A8E",
"l  c #4A528A",
"z  c #515C8D",
"x  c #404696",
"c  c #424A96",
"v  c #414698",
"b  c #444C98",
"n  c #425494",
"m  c #455A96",
"M  c #4C5C95",
"N  c #42549A",
"B  c #4A549A",
"V  c #445C9D",
"C  c #4C5F9C",
"Z  c #4B5597",
"A  c #525C94",
"S  c #515D99",
"D  c #4A618D",
"F  c #55608B",
"G  c #4E619E",
"H  c #4B6098",
"J  c #556493",
"K  c #51619D",
"L  c #4D5BA1",
"P  c #525EA4",
"I  c #4761A1",
"U  c #4B62A2",
"Y  c #4F69AA",
"T  c #526BA6",
"R  c #596EA2",
"E  c #5967A8",
"W  c #536DAC",
"Q  c #5B6AAB",
"!  c #5460A4",
"~  c #5E73AE",
"^  c #5870A9",
"/  c #5F6FB0",
"(  c #5E72B0",
")  c #5E76B0",
"_  c #606EAD",
"`  c #6173AE",
"'  c #6171AE",
"]  c #6075AE",
"[  c #6275AE",
"{  c #657CAE",
"}  c #687DAB",
"|  c #6172B1",
" . c #6472B1",
".. c #6275B1",
"X. c #6579B2",
"o. c #6678B2",
"O. c #637CB2",
"+. c #687BB2",
"@. c #6882AF",
"#. c #6682B4",
"$. c #6A83B4",
"%. c #6E88B3",
"&. c #6987B9",
"*. c #6E89B9",
"=. c #728EB6",
"-. c #7186BA",
";. c #7186BC",
":. c #7083BA",
">. c #738DBA",
",. c #7390B6",
"<. c #7994BA",
"1. c #7A8EC3",
"2. c #7A8EC5",
"3. c #7A91C1",
"4. c #7D93C3",
"5. c #7C92C1",
"6. c #7F95C3",
"7. c #7E95C2",
"8. c #7F95C4",
"9. c #7D92C6",
"0. c #889DB8",
"q. c #8DA5BB",
"w. c #8FA8BD",
"e. c #90A9BD",
"r. c #96B1BE",
"t. c #99B2BE",
"y. c #AABDBF",
"u. c #A4B8BC",
"i. c #849DC3",
"p. c #8BA4C4",
"a. c #8CA4C9",
"s. c #8FA9CA",
"d. c #92ABC2",
"f. c #90A6CA",
"g. c #94ADCB",
"h. c #99ACC7",
"j. c #97B1C1",
"k. c #9AB3C3",
"l. c #9DB5CC",
"z. c #9FB8CE",
"x. c #9DB5D1",
"c. c #9FB8D0",
"v. c #A6BBC4",
"b. c #AABDC0",
"n. c #A2B7CE",
"m. c #A3B8CE",
"M. c #AABDCD",
"N. c #A2B5C7",
"B. c #A2B7D5",
"V. c #A4BAD1",
"C. c #AABED1",
"Z. c #ADC2C4",
"A. c #B4C3CD",
"S. c #B8C5CB",
"D. c #B2C2D2",
"F. c #BBC9D4",
"G. c #C2CECC",
"H. c #C6D3CA",
"J. c #CED8CD",
"K. c #D7D9CB",
"L. c #DADDCC",
"P. c #C2CFD7",
"I. c #C4D1D5",
"U. c #C8D3D5",
"Y. c #CDD8D5",
"T. c #C4D1D9",
"R. c #CDD9DA",
"E. c #D2DCD4",
"W. c #D9DED7",
"Q. c #DFE3CD",
"!. c #DEE3D1",
"~. c #E2E7CE",
"^. c #E5E9CD",
"/. c #E1E5D3",
"(. c #E4E9D2",
"). c #E8EED3",
"_. c #E1E7DE",
"`. c #E6E8DA",
"'. c #ECEDDF",
"]. c #EBF0D3",
"[. c #EEF1DE",
"{. c #F1F3DE",
"}. c #DEE4E1",
"|. c #E1E7E0",
" X c #E3EAE3",
".X c #ECEEE1",
"XX c #EAEFE9",
"oX c #EEF0E4",
"OX c #F3F3E2",
"+X c #FCFBE2",
"@X c #F5F6EC",
"#X c #F6F8EE",
"$X c #F6F7F0",
"%X c #FAFBF5",
"&X c #FEFEFC",
"*X c #F6F8F0",
/* pixels */
"                                      O # + + + # + + + + + + + + + + + + + + + + + + + # =                                     ",
"                                      O O O O O O O O O O O O O O O O O O O O O O O O O O                                       ",
"                                      : : : : : 4 1 4 4 4 4 4 4 4 4 4 4 4 4 4 3 : : : : : 2                                     ",
"                                $ O @ x x x x c  .' ' | ' ' ' | | | | ' ' ' ' ' b x x x v 3 O .                                 ",
"                                $ + ; p p p p p | ] ] ~ ~ ~ ~ ~ ~ ~ ~ ~ ~ ~ ] ( b p p x x 3 # O                                 ",
"                              6 5 t u _  . .' ' -.>.-.-.-.-.;.;.;.;.;.;.-.+...( P L !  . .Z w 3 2                               ",
"                          o O # r x Z 3.9.4.4.3.7.8.7.4.7.7.7.7.7.7.7.7.8.$.~ ~ ~ Q { 8.4.Q x x : O $                           ",
"                          & O @ u x Z 2.2.2.1.1.3.9.9.4.7.4.4.4.4.4.7.7.8.:.Q ' / Q X.1.1.Q x x : O $                           ",
"                          & O @ u x c B B B Z B Z B P +.X.X.X.X.X.X.X.X.+.E b b B B B B B b x x : O $                           ",
"                          $ O @ u x v p p p v v x v B ..~ ~ ~ ' ( ( ( ( ~ P x x x v x p p v v x ; O $                           ",
"                            . O r r p r r p x v x x b Q Q Q Q Q Q Q Q Q E L x x v v x r r u u g % . X                           ",
"                                - # # + # t x x p x x x x p p p p x p p p x x p p v r + O + # O                                 ",
"                                $ O # O # w x p x x x x x p p p x x x x x x x x x p r + # O # .                                 ",
"                                  2 u M S g 3 3 3 3 3 3 3 3 3 3 3 3 3 3 3 3 3 3 3 3 5 S S h 5                                   ",
"                                    C O.$.k * * * * * * * * * * * * * * * * * 1 1 * 8 $.#.T k                                   ",
"                                  J G $.%.a.B.B.B.B.B.B.B.B.B.B.B.B.B.B.B.B.B.B.B.x.g.%.$.T H                                   ",
"                              k M R #.f.g.x.B.c.z.z.z.c.z.z.z.z.c.x.x.x.z.z.z.z.z.x.x.g.s.>.~ J M                               ",
"                              n N ^ ,.z.z.B.C.T.T.T.T.T.T.P.T.T.T.P.P.T.I.I.I.I.T.D.n.z.l.i.O.V N                               ",
"                              n m ~ 0.D.M.A.U.@XOX@XOXOX{.{.{.{.{.{.{.{.{.{.{.{.[.E.A.M.M.h.@.H n J                             ",
"                          F m V ) i.F.XX.XXX@X%X%X%X%X+X+X+X+X+X+X+X+X+X+X+X+X+X+X{.).Q./.U.p.#.I m z                           ",
"                          A N L O.i.A.oX[.[.@X&X&X&X%X+X+X+X+X+X+X+X+X+X+X+X+X+X+X{.].^.^.G.p.$.U N M                           ",
"                          M V ) i.g.A.oX#X#X#X#X#X#X@XOXOXOXOXOXOXOXOXOXOXOXOX{.[.].).^.(.G.d.i.O.C m                           ",
"                        k N V &.x.V.A.oX%X&X%X.X.X.X'.'.'.'.'.'.'.'.'..X.X.X'.`.`.'.`.^.^.G.k.x.>.T N j                         ",
"                        M N V $.g.M.S.oX%X&X%X'..X'.'.'.'.'.'.'.'.'.'.'.'.'.'.`.`.`.`.(.~.G.k.x.>.Y N s                         ",
"                        M N V &.g.T.XX[.%X&X%X'.'.'.'..X'.'.'.'.'.'.'.'.'.'.'.'.'.'.'.'.^.!.I.z.>.W N s                         ",
"                        M d I &.g.U.OXoX%X&X%X'.'.'.'..X'.'.'.'.'.'.'.'.'.'.'.'.'.'.'.'.^.^.J.l.>.W d s                         ",
"                        M d I &.g.U.OXoX%X&X%X.X.X'.'.'.'.'.'.'..X'.'.'.'.'.'.'.'.'.'.'.(.^.J.l.=.W f n                         ",
"                        D N C *.g.T.OXOX%X&X%X.X.X'.'.'.'.'.'.'.'.'.'.'.'.'.'.'.'.'.'.'.^.^.J.z.>.W N n                         ",
"                        C N V *.l.U.oXoX%X&X%X.X'.'.'.'.'.'.'.'.'.'.'.'.'.'.'.'.'.'.'.'.(.^.J.N.,.T d n                         ",
"                        R ] $.p.F.}.#X#X$X$X@X'.'.'.'.'.'.'.'.'.'.'.'.'.'.'.'.'.'.'.'.'.!.Q.K.G.q.%.] T                         ",
"                    n s O.a.x.C. X*X&X%XoX.X'.'.'.'.'.'.'.'.'.'.'.'.'.'.'.'.'.'.'.'.'.'.L.K.L./.b.d.d.#.n s j                   ",
"                    n s O.a.n.M._.#X&X%XoX.X'.'.'.'.'.'.'.'.'.'.'.'.'.'.'.'.'.'.'.'.'.'.L.K.L./.y.r.d.#.n s n                   ",
"                    N d O.f.n.M._.#X&X%X.X'..X.X.X.X'.'.'.'.'.'.'.'.'.'.'.'.'.'.'.'.'.'.L.K.L./.y.j.e.O.n s n                   ",
"                    N N O.a.m.M._.#X&X%X.X'..X.X'..X'.'.'.'.'.'.'.'.'.'.'.'.'.'.'.'.'.'.L.K.L./.y.j.w.O.m N n                   ",
"                    s N O.a.m.M._.#X&X&X.X.X.X.X'.'.'.'.'.'.'.'.'.'.'.'.'.'.'.'.'.'.'.'.L.K.L./.b.r.w.O.n a h                   ",
"                    s N O.a.m.M._.#X&X&X.X'..X.X'.'.'.'.'.'.'.'.'.'.'.'.'.'.'.'.'.'.'.'.L.K.L./.b.r.w.O.y 3 1                   ",
"                    s N O.a.m.M._.#X&X&XoX.X'.'.'.'.'.'.'.'.'.'.'.'.'.'.'.'.'.'.'.'.'.'.L.K.L./.b.r.w.$.5 < *                   ",
"                    s N O.a.m.M._.#X&X%XoX'.'..X'.'.'.'.'.'.'.'.'.'.'.'.'.'.'.'.'.'.'.'.L.K.L./.b.r.e.$.8 < 1                   ",
"                    n N O.a.m.M._.#X&X%XoX'.'.'..X'.'.'.'.'.'.'.'.'.'.'.'.'.'.'.'.'.'.'.L.K.L./.y.r.e.$.5 < 1                   ",
"                    n N O.a.m.M._.#X&X%XoX'.'.'..X'.'.'.'.'.'.'.'.'.'.'.'.'.'.'.'.'.'.'.L.K.L./.b.r.e.O.5 < 1                   ",
"                    n N O.a.m.M._.#X&X%XoX'..X'..X'.'.'.'.'.'.'.'.'.'.'.'.'.'.'.'.'.'.'.L.K.L./.y.r.e.O.5 < 1                   ",
"                    n N O.a.n.M._.#X&X%XoX'..X.X'.'.'.'.'.'.'.'.'.'.'.'.'.'.'.'.'.'.'.'.L.K.L./.y.r.e.{ 5 < 1                   ",
"                    n N O.a.n.C._.#X&X&X.X'.'.'.'.'.'.'.'.'.'.'.'.'.'.'.'.'.'.'.'.'.'.'.L.K.L./.b.r.e.{ 5 < 1                   ",
"                    n N O.a.n.M._.#X&X&X.X'.'.'.'.'.'.'.'.'.'.'.'.'.'.'.'.'.'.'.'.'.'.'.L.K.L./.b.r.e.{ 5 < 1                   ",
"                    n N O.a.n.C.|.#X&X&X.X'.'.'.'.'.'.'.'.'.'.'.'.'.'.'.'.'.'.'.'.'.'.'.L.K.L./.b.r.e.{ 5 < 1                   ",
"                    n N O.a.n.C.|.#X&X&XoX'.'.'.'.'.'.'.'.'.'.'.'.'.'.'.'.'.'.'.'.'.'.'.L.K.L./.b.r.e.{ 5 < 1                   ",
"                    n N O.a.n.M._.#X&X%XoX'.'.'.'.'.'.'.'.'.'.'.'.'.'.'.'.'.'.'.'.'.'.'.L.K.L./.y.r.e.{ 5 < 1                   ",
"                    n N O.a.n.C.|.#X&X%XoX'.'.'.'.'.'.'.'.'.'.'.'.'.'.'.'.'.'.'.'.'..X'.L.K.L./.y.r.e.{ 5 < 1                   ",
"                    n N O.a.n.C. X#X&X%XoX'.'.'.'.'.'.'.'.'.'.'.'.'.'.'.'.'.'..X'..X.X'.L.K.L./.y.r.e.{ 5 < 1                   ",
"                    y i O.a.n.C.|.#X&X%XoX.X.X'.'.'.'.'.'.'.'.'.'.'.'.'.'.'..X.X'.`.`./.K.K.L./.b.r.e.{ 5 < 1                   ",
"                    3 , O.a.n.C._.#X&X&XoX.X.X.X'.'.'.'.'.'.'.'.'.'.'.'.'.'.'.'.'./.K.K.K.K.L./.b.t.e.{ 5 < 1                   ",
"                    3 3 ..a.B.C._.#X&X%XoX.X.X.X'.'.'.'.'.'.'.'.'.'.'.'.'.'.'..X.X/.K.K.K.K.L./.b.r.e.{ 5 3 1                   ",
"                    3 3 ..a.B.C._.#X&X&XoX.X'.'.'..X'.'.'.'.'..X'.'.'.'..X.X'..X.X/.K.K.K.K.L./.b.t.e.O.e 3 1                   ",
"                    3 3 ] a.B.C._.@X%X#X#X#X@X'..X.X.X.X'.'.'..X.X.X.X.X.X.X'././.L.K.K.Q.!.Q./.y.k.e.O.5 3 1                   ",
"                    3 3 ] a.B.V.W..XoXoX%X&X%X'..X'.'.'.'..X.X.X'.'.'.'.'.'.`.K.K.K.K.K.~.^.~.E.v.t.e.O.5 < 1                   ",
"                    3 3 ] p.x.B.v.R.oX[.%X&X%X'.'.'.'.'.'.'.'.'.'.'.'.'.'.'.`.K.K.K.K.K.~.^.E.u.k.r.d.O.5 3 1                   ",
"                    3 3 ] ;.<.B.m.D.U..X@X@XOX(.(.(.(.(.(.(.(.(.(.(.(.(.(.(.(.Q.Q.Q.Q.Q.~.J.A.k.k.q.<.O.4 3 1                   ",
"                    9 9 S C R a.z.z.v.R.Y.Y.Y.H.H.H.H.H.H.H.H.H.H.H.H.H.H.H.H.H.H.H.H.H.H.Z.t.k.p.} K K 0 7                     ",
"                        5 , y -.g.l.k.k.k.t.t.t.t.r.t.t.t.t.t.r.t.k.k.k.t.t.t.t.t.t.t.t.t.j.k.k.=.n 3 >                         ",
"                        7 3 u -.g.l.l.k.k.k.k.j.k.j.j.j.j.j.j.j.k.k.j.k.k.j.k.k.k.k.k.k.k.j.j.l.=.Z 3 <                         ",
"                        q 3 y $.-.>.>.=.=.,.=.=.=.=.=.=.=.=.=.=.=.=.=.=.=.=.=.=.=.,.=.=.=.=.=.=.$.Z 3 <                         ",
"                          2 0 G M K K C G G G C G G G G G G G G G G G G G G G G G G G G K K G C K l 2 =                         ",
"                              > 3 3 3 3 3 3 3 3 3 3 3 3 3 3 3 3 3 3 3 3 3 3 3 3 3 3 3 3 3 3 3 3 3                               ",
"                              < 3 3 3 3 3 3 3 3 3 3 3 3 3 3 3 3 3 3 3 3 3 3 3 3 3 3 3 3 3 3 3 3 3                               "
};
