/* XPM */
static char *milk[] = {
/* columns rows colors chars-per-pixel */
"32 32 107 2 ",
"   c #2B2469",
".  c #322B65",
"X  c #322C6B",
"o  c #353276",
"O  c #35337B",
"+  c #373C7F",
"@  c #393D7D",
"#  c #3A417F",
"$  c #363782",
"%  c #353982",
"&  c #3A3D83",
"*  c #3F4184",
"=  c #3D418D",
"-  c #3F4D8D",
";  c #3F4595",
":  c #3F5093",
">  c #484F8F",
",  c #414594",
"<  c #444A90",
"1  c #464E9B",
"2  c #445797",
"3  c #495292",
"4  c #435897",
"5  c #4A5A94",
"6  c #44559A",
"7  c #4A539D",
"8  c #435899",
"9  c #485C99",
"0  c #515F99",
"q  c #50669F",
"w  c #4C58A1",
"e  c #515BA3",
"r  c #4F65A2",
"t  c #5662A6",
"y  c #546AA3",
"u  c #5A6CA2",
"i  c #5B6CAB",
"p  c #5F75A6",
"a  c #5C74AC",
"s  c #6075A7",
"d  c #6974A2",
"f  c #6175A8",
"g  c #6279AC",
"h  c #6B7FAD",
"j  c #6473B1",
"k  c #647AB2",
"l  c #6A7EB6",
"z  c #6D81AF",
"x  c #6B81B3",
"c  c #7186B6",
"v  c #758CB2",
"b  c #7287BB",
"n  c #748CBB",
"m  c #788DBF",
"M  c #7D94BD",
"N  c #7A90C0",
"B  c #839BBC",
"V  c #98B2BF",
"C  c #849CC1",
"Z  c #92ADC2",
"A  c #91ACC8",
"S  c #97B1C0",
"D  c #9AB3C1",
"F  c #9CB3CC",
"G  c #A6BBC1",
"H  c #A5B9CE",
"J  c #AABDCF",
"K  c #A1B7D0",
"L  c #AABDD0",
"P  c #AFC2CA",
"I  c #B2C2CB",
"U  c #B1C3D5",
"Y  c #B7C9D6",
"T  c #B8C9D7",
"R  c #C0CCC9",
"E  c #C5D3C9",
"W  c #CCD6CB",
"Q  c #CFD8CC",
"!  c #D4DBCC",
"~  c #DADCCC",
"^  c #C1CDD7",
"/  c #C7D4D5",
"(  c #CCD5D8",
")  c #CED8D9",
"_  c #D6DFD4",
"`  c #D4DCDB",
"'  c #DCE3DE",
"]  c #E0E6CE",
"[  c #E4E9CF",
"{  c #E1E3D2",
"}  c #E7E8D3",
"|  c #E8ECD0",
" . c #E5E7D9",
".. c #E7EBDA",
"X. c #ECEDDE",
"o. c #F1F3DE",
"O. c #E6EBE6",
"+. c #EDEFE3",
"@. c #EEF0E4",
"#. c #F5F6E3",
"$. c #F8F7E1",
"%. c #F3F4EA",
"&. c #F7F8E8",
"*. c #F5F6F0",
"=. c #FAFAF5",
"-. c #FCFCF8",
";. c None",
/* pixels */
";.;.;.;.;.;.;.;.;.X                         X ;.;.;.;.;.;.;.;.;.",
";.;.;.;.;.;.;.;.;.O $ & > 3 > > 3 > 3 > & $ O . ;.;.;.;.;.;.;.;.",
";.;.;.;.;.;.;.;.o < e t l l l l l l k j 7 e 3 o ;.;.;.;.;.;.;.;.",
";.;.;.;.;.;.;.X = i N b m m m B N N b i i l j , o ;.;.;.;.;.;.;.",
";.;.;.;.;.;.;.X , 1 7 7 w i k k k k i 1 1 1 1 ; X ;.;.;.;.;.;.;.",
";.;.;.;.;.;.;.;.o O O , ; 1 w w w w w , , % O O X ;.;.;.;.;.;.;.",
";.;.;.;.;.;.;.;.X @ = % $ $ % % $ % % & % * & X ;.;.;.;.;.;.;.;.",
";.;.;.;.;.;.;.;.;.a h d d d d d d d j d d l g ;.;.;.;.;.;.;.;.;.",
";.;.;.;.;.;.;.;.q M F U T T T Y Y Y Y Y U F B p 5 ;.;.;.;.;.;.;.",
";.;.;.;.;.;.;.9 g I ) O.%.#.@.o.o.o.o.o...W I x 9 ;.;.;.;.;.;.;.",
";.;.;.;.;.;.;.r C ) %.*.=.&.$.o.$.$.$.#.o.[ Q C y 5 ;.;.;.;.;.;.",
";.;.;.;.;.;.4 a F ` -.%.+.X.X.+.X.X.X.X...| ! D k 4 ;.;.;.;.;.;.",
";.;.;.;.;.;.4 a L O.-.%.X.+.X.X.X.X.X.X.X...[ P k 4 ;.;.;.;.;.;.",
";.;.;.;.;.;.4 a U @.-.%.X.X.X.X.X.X.X.X.X.X.[ I k 4 ;.;.;.;.;.;.",
";.;.;.;.;.;.y c ^ @.=.%.X.X.X.X.X.X.X.X.X.X.[ I v y ;.;.;.;.;.;.",
";.;.;.;.;.2 n H O.=.+.+.X.X.X.X.X.X.+.X.X.X.~ _ G v 4 ;.;.;.;.;.",
";.;.;.;.;.4 n J O.-.@.X.@.X.X.X.X.X.X.+.+...~ ~ G v 4 ;.;.;.;.;.",
";.;.;.;.;.4 n J +.-.+.X.X.X.X.X.X.X.X.X.X...~ ~ G v < ;.;.;.;.;.",
";.;.;.;.;.8 n J O.=.@.X.X.X.#.X.X.+.X.X.X...~ ~ G v # ;.;.;.;.;.",
";.;.;.;.;.8 n J O.-.@.X.X.X.X.X.X.X.X.X.X...~ ~ G v # ;.;.;.;.;.",
";.;.;.;.;.8 n L O.-.@.X.X.X.X.X.X.X.X.X.X.X.~ ~ G v @ ;.;.;.;.;.",
";.;.;.;.;.8 n L O.-.+.X.X.X.X.X.X.X.X.X.X...~ ~ G v @ ;.;.;.;.;.",
";.;.;.;.;.8 n L O.-.+.X.X.X.X.X.X.X.X.X.+...~ ~ G v # ;.;.;.;.;.",
";.;.;.;.;.4 n L O.-.+.X.X.X.X.X.+.X.X.X.X.X.~ ~ G v # ;.;.;.;.;.",
";.;.;.;.;.: n L O.=.@.X.X.X.X.X.X.X.X.X.X. .~ ~ G v # ;.;.;.;.;.",
";.;.;.;.;.& b L O.=.@.X.@.X.X.X.X.X.X.X. .~ ~ ! G v # ;.;.;.;.;.",
";.;.;.;.;.+ c L O.=.%.o.X.X.X.X.X.X.X.X.' ! ~ ~ G v # ;.;.;.;.;.",
";.;.;.;.;.+ b K / @.=.@.X.X.X.X.X.X.} ] ! ~ ] E G v @ ;.;.;.;.;.",
";.;.;.;.;.@ u M H / ' ' ! ! ! Q ! ! Q Q W W E G B u # ;.;.;.;.;.",
";.;.;.;.;.;.@ u A F S S S S S V V S V S D D V Z s @ ;.;.;.;.;.;.",
";.;.;.;.;.;.@ 5 p p p p p p p p s s f s p p s s 0 O ;.;.;.;.;.;.",
";.;.;.;.;.;.;.@ % % O % % % % O % % % O % O + + @ ;.;.;.;.;.;.;."
};
