/* XPM */
static char *milk_small[] = {
/* columns rows colors chars-per-pixel */
"32 32 115 2 ",
"   c #FF00FF",
".  c #2C2469",
"X  c #322B65",
"o  c #342E68",
"O  c #332F7A",
"+  c #343376",
"@  c #33357C",
"#  c #34387A",
"$  c #393C7A",
"%  c #363681",
"&  c #373A84",
"*  c #393B86",
"=  c #3B3D89",
"-  c #3C4283",
";  c #3F4593",
":  c #3D4D91",
">  c #3F5596",
",  c #414286",
"<  c #414696",
"1  c #424A97",
"2  c #484F94",
"3  c #404798",
"4  c #444C99",
"5  c #405496",
"6  c #4B5197",
"7  c #445997",
"8  c #4C5C92",
"9  c #415498",
"0  c #49549E",
"q  c #455A99",
"w  c #4E5B9A",
"e  c #515C9A",
"r  c #4F669F",
"t  c #516199",
"y  c #525DA4",
"u  c #4F64A3",
"i  c #5363A3",
"p  c #5469A3",
"a  c #5A6CA5",
"s  c #5C6BAB",
"d  c #5C72A7",
"f  c #5C73AA",
"g  c #5D78AF",
"h  c #5F75B0",
"j  c #5E79B1",
"k  c #6075AF",
"l  c #6276B1",
"z  c #647BB2",
"x  c #697EB5",
"c  c #7683AC",
"v  c #6C83B2",
"b  c #6F8AB1",
"n  c #6C80B8",
"m  c #7186B3",
"M  c #768EB5",
"N  c #7387BC",
"B  c #768CBB",
"V  c #7590B7",
"C  c #7890B7",
"Z  c #7691B9",
"A  c #7A92BD",
"S  c #7C93C1",
"D  c #8097B8",
"F  c #9DB5BF",
"G  c #A0B7BF",
"H  c #839CC1",
"J  c #88A2C3",
"K  c #97B1C0",
"L  c #99B3C2",
"P  c #97B2CB",
"I  c #9DB5CD",
"U  c #A1B7C2",
"Y  c #A6BBCF",
"T  c #A8BCCE",
"R  c #A1B6D1",
"E  c #A7BBD1",
"W  c #AFC3CC",
"Q  c #B2C4CC",
"!  c #BDC9CE",
"~  c #AEC1D3",
"^  c #B4C5D4",
"/  c #C0CCCB",
"(  c #C3D2CA",
")  c #CFD9CD",
"_  c #D3DBCC",
"`  c #D8DACC",
"'  c #C0CDD6",
"]  c #CAD6D6",
"[  c #C6D1D9",
"{  c #CDD6D8",
"}  c #D6DFD2",
"|  c #DDDFD0",
" . c #D5DEDA",
".. c #DFE4CE",
"X. c #DEE4D0",
"o. c #DDE4DD",
"O. c #E0E4CF",
"+. c #E5E9CD",
"@. c #E3E5D4",
"#. c #E5E7D9",
"$. c #E7E9DB",
"%. c #ECEDDF",
"&. c #EDF0DC",
"*. c #F1F4DB",
"=. c #ECEEE1",
"-. c #EEF1E5",
";. c #EEF1E9",
":. c #F4F5E3",
">. c #F8F7E1",
",. c #F7F8E3",
"<. c #F2F3E9",
"1. c #F7F7F1",
"2. c #F9FAF5",
"3. c #FEFEFC",
"4. c None",
/* pixels */
"4.4.4.4.4.4.4.4.4.X                         o 4.4.4.4.4.4.4.4.4.",
"4.4.4.4.4.4.4.4.X % = = e e 6 y y w w w , = * X 4.4.4.4.4.4.4.4.",
"4.4.4.4.4.4.4.4.O 2 y y x x x x x x l l 6 y 6 + 4.4.4.4.4.4.4.4.",
"4.4.4.4.4.4.4.. < l H S H H S S S S S s s N x < X 4.4.4.4.4.4.4.",
"4.4.4.4.4.4.4.. < 1 1 6 1 s k k l l s < < 4 1 < o 4.4.4.4.4.4.4.",
"4.4.4.4.4.4.4.4.+ O @ < < 0 0 0 0 0 6 , < % O + 4.4.4.4.4.4.4.4.",
"4.4.4.4.4.4.4.4.o - , $ * * = * = , * $ = , , o 4.4.4.4.4.4.4.4.",
"4.4.4.4.4.4.4.4.4.k m c c x c c x x x D x x k 4.4.4.4.4.4.4.4.4.",
"4.4.4.4.4.4.4.8 p J I ^ ^ ^ ^ ^ ^ ^ ^ ^ ~ I J p 8 4.4.4.4.4.4.4.",
"4.4.4.4.4.4.4.q z '  .;.2.,.,.,.,.,.*.>.&.) ! v w 4.4.4.4.4.4.4.",
"4.4.4.4.4.4.8 u H  .<.1.2.,.>.>.,.>.>.>.&.+.) D u 8 4.4.4.4.4.4.",
"4.4.4.4.4.4.9 g I o.3.<.%.%.%.%.%.%.%.%.%.+.) I j 9 4.4.4.4.4.4.",
"4.4.4.4.4.4.7 j ^ -.3.<.%.%.%.=.%.%.%.%.%.%.+.W j > 4.4.4.4.4.4.",
"4.4.4.4.4.4.7 g ^ -.3.<.%.%.%.%.%.%.%.%.%.%.+.Q z 5 4.4.4.4.4.4.",
"4.4.4.4.4.4.p M [ <.2.-.%.%.%.%.%.%.%.%.%.%.+.! b r 4.4.4.4.4.4.",
"4.4.4.4.4.5 S Y -.3.-.%.%.%.%.%.%.%.%.%.%.%.` X.F Z 9 4.4.4.4.4.",
"4.4.4.4.4.> S Y -.3.-.%.%.%.%.%.%.%.%.%.%.%.` ..F V 7 4.4.4.4.4.",
"4.4.4.4.4.> A W -.3.%.%.=.%.%.%.=.%.%.%.%.$.` ..F M - 4.4.4.4.4.",
"4.4.4.4.4.9 S Y -.3.%.%.%.%.%.%.%.%.%.%.%.%.` ..F C # 4.4.4.4.4.",
"4.4.4.4.4.9 S Y ;.3.-.%.%.%.%.=.%.=.%.%.%.%.` ..F C # 4.4.4.4.4.",
"4.4.4.4.4.9 S Y -.3.%.%.%.%.%.%.%.%.%.%.%.%.` ..L M # 4.4.4.4.4.",
"4.4.4.4.4.9 A Y ;.3.=.%.%.%.%.%.%.%.%.%.%.%.` ..G M # 4.4.4.4.4.",
"4.4.4.4.4.9 S Y -.3.=.%.%.%.%.%.%.%.=.%.%.%.` O.G M # 4.4.4.4.4.",
"4.4.4.4.4.9 S E -.3.-.%.%.=.%.%.%.%.%.%.%.%.` O.G M # 4.4.4.4.4.",
"4.4.4.4.4.: S E -.3.=.=.%.%.%.%.%.%.%.=.%.#.` ..G M # 4.4.4.4.4.",
"4.4.4.4.4.% A E -.3.=.=.%.%.%.%.%.%.%.=.#.` ` ..G M # 4.4.4.4.4.",
"4.4.4.4.4.@ A E -.2.;.=.=.%.%.%.=.%.=.#.X.` X.@.G M @ 4.4.4.4.4.",
"4.4.4.4.4.@ S I ] -.3.;.%.%.%.%.%.%.%.| ` ` +.( F M # 4.4.4.4.4.",
"4.4.4.4.4.$ a H I ] o.X.X.) ) _ ) _ _ _ _ _ ( L A d $ 4.4.4.4.4.",
"4.4.4.4.4.4.# a P P L L K L L K K K F K K K K L a + 4.4.4.4.4.4.",
"4.4.4.4.4.4.$ t d d f d a f a d f f a f d f k d t + 4.4.4.4.4.4.",
"4.4.4.4.4.4.4.# @ @ @ @ % @ @ @ @ @ @ @ @ # + # $ 4.4.4.4.4.4.4."
};
