/* XPM */
static char *a899a87572554a5eb39b607d3090b757cDVKMN3dYuCzH8e1[] = {
/* columns rows colors chars-per-pixel */
"64 64 247 2 ",
"   c #000000",
".  c #0C0102",
"X  c #05030A",
"o  c #0C010B",
"O  c #080908",
"+  c #150102",
"@  c #1B0001",
"#  c #13010B",
"$  c #1D010B",
"%  c #150A07",
"&  c #0B0010",
"*  c #010012",
"=  c #180018",
"-  c #181615",
";  c #230103",
":  c #2C0002",
">  c #23000A",
",  c #29020C",
"<  c #330101",
"1  c #3B0101",
"2  c #36030B",
"3  c #260015",
"4  c #360216",
"5  c #2A171A",
"6  c #2F1613",
"7  c #1D0020",
"8  c #1E1821",
"9  c #280126",
"0  c #3A012B",
"q  c #350034",
"w  c #3C0035",
"e  c #3C003B",
"r  c #340039",
"t  c #2E0035",
"y  c #31282A",
"u  c #24231D",
"i  c #430200",
"p  c #4C0101",
"a  c #46020B",
"s  c #530102",
"d  c #59030A",
"f  c #4A0419",
"g  c #560716",
"h  c #481817",
"j  c #561518",
"k  c #670204",
"l  c #770607",
"z  c #6A191A",
"x  c #7A1917",
"c  c #630918",
"v  c #6D241D",
"b  c #470029",
"n  c #520527",
"m  c #430034",
"M  c #43003B",
"N  c #4B003B",
"B  c #4F0036",
"V  c #570037",
"C  c #531921",
"Z  c #6C1F27",
"A  c #781826",
"S  c #4D372C",
"D  c #652526",
"F  c #554335",
"G  c #3D0044",
"H  c #430043",
"J  c #4D004A",
"K  c #490044",
"L  c #530045",
"P  c #570055",
"I  c #6B0057",
"U  c #670067",
"Y  c #740069",
"T  c #740078",
"R  c #6C0071",
"E  c #5B0064",
"W  c #3C4244",
"Q  c #43464B",
"!  c #575755",
"~  c #53554E",
"^  c #6B6169",
"/  c #8C0807",
"(  c #9D0503",
")  c #930C0A",
"_  c #9B0B0B",
"`  c #980805",
"'  c #87120B",
"]  c #98100B",
"[  c #890C12",
"{  c #881516",
"}  c #941416",
"|  c #960B16",
" . c #A40404",
".. c #AB0304",
"X. c #A40A09",
"o. c #A50808",
"O. c #B30103",
"+. c #B90003",
"@. c #B60A08",
"#. c #BB1A18",
"$. c #AE0E0E",
"%. c #91231E",
"&. c #B1231D",
"*. c #911B26",
"=. c #BA1B23",
"-. c #AD1521",
";. c #91292E",
":. c #A82625",
">. c #B9242A",
",. c #AF3136",
"<. c #D90A06",
"1. c #CA120C",
"2. c #D8130E",
"3. c #DA0D14",
"4. c #C91719",
"5. c #D71819",
"6. c #C40D10",
"7. c #E30D0A",
"8. c #EA0708",
"9. c #F4030A",
"0. c #F70209",
"q. c #E2120B",
"w. c #E51618",
"e. c #F41913",
"r. c #F00C12",
"t. c #C8231D",
"y. c #D5261F",
"u. c #F92119",
"i. c #C81823",
"p. c #D71A22",
"a. c #E61A24",
"s. c #C62527",
"d. c #D82124",
"f. c #C72B34",
"g. c #DF362F",
"h. c #E82229",
"j. c #F13233",
"k. c #FA4137",
"l. c #8E2254",
"z. c #F73D46",
"x. c #9B7B7D",
"c. c #DC464A",
"v. c #D85757",
"b. c #D94C52",
"n. c #E94847",
"m. c #F9474A",
"M. c #FC4952",
"N. c #E55253",
"B. c #F45152",
"V. c #7F7C82",
"C. c #FF00FF",
"Z. c #FF00FF",
"A. c #FF00FF",
"S. c #FF00FF",
"D. c #FF00FF",
"F. c #FF00FF",
"G. c #FF00FF",
"H. c #FF00FF",
"J. c #FF00FF",
"K. c #FF00FF",
"L. c #847684",
"P. c #FF00FF",
"I. c #FF00FF",
"U. c #FF00FF",
"Y. c #FF00FF",
"T. c #FF00FF",
"R. c #FF00FF",
"E. c #FF00FF",
"W. c #FF00FF",
"Q. c #FF00FF",
"!. c #FF00FF",
"~. c #FF00FF",
"^. c #FF00FF",
"/. c #FF00FF",
"(. c #FF00FF",
"). c #FF00FF",
"_. c #FF00FF",
"`. c #FF00FF",
"'. c #FF00FF",
"]. c #FF00FF",
"[. c #FF00FF",
"{. c #FF00FF",
"}. c #FF00FF",
"|. c #FF00FF",
" X c #FF00FF",
".X c #FF00FF",
"XX c #FF00FF",
"oX c #FF00FF",
"OX c #FF00FF",
"+X c #FF00FF",
"@X c #FF00FF",
"#X c #FF00FF",
"$X c #FF00FF",
"%X c #FF00FF",
"&X c #FF00FF",
"*X c #FF00FF",
"=X c #FF00FF",
"-X c #FF00FF",
";X c #FF00FF",
":X c #FF00FF",
">X c #FF00FF",
",X c #FF00FF",
"<X c #FF00FF",
"1X c #FF00FF",
"2X c #FF00FF",
"3X c #7E8382",
"4X c #94948A",
"5X c #999499",
"6X c #8C888A",
"7X c #A5909B",
"8X c #AB8EAD",
"9X c #A5A5A7",
"0X c #B8AAB4",
"qX c #BAB5BB",
"wX c #BBBBBC",
"eX c #B6B6B5",
"rX c #AEB0A9",
"tX c #9F9F9F",
"yX c #FF8E8E",
"uX c #C3BCBA",
"iX c #C4B2A9",
"pX c #FFB3A9",
"aX c #FFB0AE",
"sX c #FFA89E",
"dX c #BDC1BE",
"fX c #BEC6BA",
"gX c #C5C2BC",
"hX c #BEB9C1",
"jX c #D19ECD",
"kX c #C3BCC4",
"lX c #CEB6C4",
"zX c #BDC2C2",
"xX c #C4C3C4",
"cX c #C9C7C7",
"vX c #CEC9D3",
"bX c #D8C7D4",
"nX c #D5D6D5",
"mX c #D1C9CB",
"MX c #F9D8CA",
"NX c #F6E4D9",
"BX c #FCFBEC",
"VX c #FEEBF9",
"CX c #FCFDF4",
"ZX c #F6F5F9",
"AX c #FCFCFD",
"SX c #F8F7F7",
"DX c #F0EBE7",
/* pixels */
";X;X;X;X;X;X;X;X;X;X;X;X;X;X;X;X;X;X;X;X;X;X;X;X;X;X;X;X;X;X;X;X;X;X;X;X;X;X;X;X;X;X;X;X;X;X;X;X;X;X;X;X;X;X;X;X;X;X;X;X;X;X;X;X",
";X;X;X;X;X;X;X;X;X;X;X;X;X;X;X;X;X;X;X;X;X;X;X;X;X;X;X;X;X;X;X;X;X;X;X;X;X;X;X;X;X;X;X;X;X;X;X;X;X;X;X;X;X;X;X;X;X;X;X;X;X;X;X;X",
";X;X;X;X;X;X;X;X;X;X;X;X;X;X;X;X;X;X;X;X;X;X;X;X;X;X;X;X;X;X;X;X;X;X;X;X;X;X;X;X;X;X;X;X;X;X;X;X;X;X;X;X;X;X;X;X;X;X;X;X;X;X;X;X",
";X;X;X;X;X;X;X;X;X;X;X;X;X;X;X;X;X;X;X;X;X;X;X;X;X;X;X;X;X;X;X;X;X;X;X;X;X;X;X;X;X;X;X;X;X;X;X;X;X;X;X;X;X;X;X;X;X;X;X;X;X;X;X;X",
";X;X;X;X;X;X;X;X;X;X;X;X;X;X;X;X;X;X;X;X;X;X;X;X;X;X;X;X;X;X;X;X;X;X;X;X;X;X;X;X;X;X;X;X;X;X;X;X;X;X;X;X;X;X;X;X;X;X;X;X;X;X;X;X",
";X;X;X;X;X;X;X;X;X;X;X;X;X;X;X;X;X;X;X;X;X;X;X;X;X;X;X;X;X;X;X;X;X;X;X;X;X;X;X;X;X;X;X;X;X;X;X;X;X;X;X;X;X;X;X;X;X;X;X;X;X;X;X;X",
";X;X;X;X;X;X;X;X;X;X;X;X;X;X;X;X;X;X;X;X;X;X;X;X;X;X;X;X;X;X;X;X;X;X;X;X;X;X;X;X;X;X;X;X;X;X;X;X;X;X;X;X;X;X;X;X;X;X;X;X;X;X;X;X",
";X;X;X;X;X;X;X;X;X;X;X;X;X;X;X;X;X;X;X;X;X;X;X;X;X;X*X*X*X-X*X*X;X;X*X*X*X*X*X*X;X;X;X;X;X;X;X;X;X;X;X;X;X;X;X;X;X;X;X;X;X;X;X;X",
";X;X;X;X;X;X;X;X;X;X;X;X;X;X;X*X*X;X;X;X*X*X;X;X-X:X:X>XXX|.XXoXoXoX.X|.,X=X.X.X*X;X;X;X;X;X*X*X;X;X;X;X;X;X;X;X;X;X;X;X;X;X;X;X",
";X;X;X;X;X;X;X;X;X;X;X;X;X;X;X*X*X;X;X;X*X*X-X-X XQ.!.E.)._._.).E.E.)./././.R.!.|.*X;X;X;X;X*X*X;X;X;X;X;X;X;X;X;X;X;X;X;X;X;X;X",
";X;X;X;X;X;X;X;X;X;X;X;X;X;X;X;X;X;X;X;X;X*X=X@X`.R J M w w q q w q q r w e M P !..X*X;X;X;X&X&X*X;X;X;X;X;X;X;X;X;X;X;X;X;X;X;X",
";X;X;X;X;X;X;X;X;X;X;X;X;X;X;X;X;X;X;X;X;X&X|.Q.S.P 9 3 $ + # o o o # # . + $ 0 _.+XXX*X;X*X&X&X*X;X;X;X;X;X;X;X;X;X;X;X;X;X;X;X",
";X;X;X;X;X;X;X;X;X;X;X;X*X*X;X;X:X*X=X,XXXXX|.!.D.K 4 ; : : @ + + + + @ ; @ ; b H.^.+XXX&X&X&X&X;X;X;X;X;X;X;X;X;X;X;X;X;X;X;X;X",
";X;X;X;X;X;X;X;X;X;X;X;X*X*X;X;X:X,XW./.E.E.).H.C.n f g p a 1 < < < 1 1 i 1 1 f A._._.).E.Q.Q.@X&X;X;X;X;X;X;X;X;X;X;X;X;X;X;X;X",
";X;X;X;X;X;X;X;X;X;X;X;X*X*X*X*X>X!.U G H M M m f ;.,.,.,.{ x %.x x { { { x z c b m m m L L Y R.|.;X;X;X;X;X;X;X;X;X;X;X;X;X;X;X",
";X;X;X;X;X;X;X;X;X;X;X;X*X&X&X@XQ.Y.G = $ > > : i ;.,.>.>._ ` ) ) ) ) ) ) } ' k 1 , ; ; @ 3 N A.!.|.*X;X;X;X;X;X;X;X;X;X;X;X;X;X",
";X;X;X;X;X;X;X;X;X;X;X;X*X=X#XR.D.C.0 ; < 1 i p k %.s.s.t. . . .( ( X.X.` ] ] l s a < : 2 4 b C.F.`.,X;X*X*X&X-X;X;X;X;X;X;X;X;X",
";X;X;X;X;X;X;X;X;X;X;X*X*X#XQ.l.L b a g z l [ / ' ,.g.j.g.@.@.1.@... . . .X._ / k c g g j g 4 4 J T @X;X*X*X-X-X;X;X;X;X;X;X;X;X",
";X;X;X;X;X;X;X;X;X;X;X*X&X XE.Y b g ;.,.=.4.4.i.=.c.B.M.n.t.t.d.@.O... . . .X._ } { { { x z C 4 9 P OX&X*X;X;X;X;X;X;X;X;X;X;X;X",
";X;X;X;X;X;X;X;X;X;X;X;X*X+X(.I f d ,.4.5.w.3.5.=.c.N.N.n.#.4.5.1.O.O.@.......o._ _ ` / } x z 2 3 H R.|.-X;X;X;X;X;X;X;X;X;X;X;X",
";X;X;X;X;X;X;X;X;X;X;X;X>XOXH.L 2 s :.1.7.e.q.1.=.b.v.b.b.&.s.4.6.+.+.+.O.O.........O...X.' z 1 $ e R.$X&X;X;X;X;X;X;X;X;X;X;X;X",
";X;X;X;X;X;X;X;X;X;X;X;X>X^.J.B 2 s &.1.7.e.u.g.c.yXaXsXyXb.M.m.h.3.5.p.5.4.4.4.O.O.+.O.o.) x i $ w /.|..X&X;X;X;X;X;X;X;X;X;X;X",
";X;X;X;X;X;X;X;X-X-X;X;X>X^.D.B 1 s #.1.<.u.k.B.v.aXMXMXsXN.M.M.j.a.a.h.h.d.d.d.O.O.+.O.o._ { p > e /.@X|..X&X-X;X;X;X;X;X;X;X;X",
";X;X;X;X;X;X;X;X-X-X&X.X+X_.Z.n p k #.1.<.u.j.m.v.aXNXMXpXv.m.M.j.w.w.a.w.5.5.5.O.O.O.O.o._ [ s : 0 S.'.!.^.|.&X;X;X;X;X;X;X;X;X",
";X;X;X;X;X;X;X;X&X=X+XE.H.C.V d l ( 1.2.q.e.j.k.b.yXpXpXyXN.z.z.h.w.w.w.w.w.w.3.+.O.O... ._ ) l p f B A.A.H.+X&X;X;X;X;X;X;X;X;X",
";X;X;X;X;X;X;X;X:X X!.G.I V A ,.#.1.2.w.r.7.7.2.#.b.v.v.v.s.i.p.5.2.2.2.w.w.w.3.+.O... .( ` ` ' x Z b m N Y ^..X*X;X;X;X;X;X;X;X",
";X;X;X;X;X;X;X;X*X#XR.U m f *.-.4.2.r.r.r.r.8.7.5.z.B.N.c.i.i.4.4.4.5.5.5.w.w.3.O.....o. .` ` ) ' x n 4 3 L E..X*X;X;X;X;X;X;X;X",
";X;X;X;X;X;X;X;X&X~.[.P 4 i } #.2.7.8.0.0.0.9.r.r.j.m.B.c.f.f.f.>.f.s.s.d.5.5.5.O.....o. .` ` ` / l g > $ m _. X*X;X;X;X;X;X;X;X",
";X;X;X;X;X;X;X*X&XQ.S.L 4 i } t.2.7.9.9.0.0.0.9.r.r.h.g.f.| } { x x [ } -.#.6.6.......o. . .( ` ) { j @ $ m _.XX*X;X;X;X;X;X;X;X",
";X;X;X;X;X;X;X*X.XQ.D.N 2 1 } s.2.7.8.9.0.0.9.9.9.8.1.s.} k s i 1 1 p k ' `  . .o.o.o.o.o. . ._ ) { h + + w (.XX*X;X;X;X;X;X;X;X",
";X;X;X;X;X;X;X*X.X^.A.N , < *.>.1.7.8.9.9.9.9.8.8.7.1.&.{ p : @ @ @ : i x { ] X.o.o.o.o.o.o.o._ [ x h + + M /.$X*X;X;X;X;X;X;X;X",
";X;X;X;X;X;X;X*X&X^.A.m > : A ,.#.1.3.8.9.9.8.8.q.5.s.,.v : .       + : v x { [ _ X.o.o. ._ _ ) x Z h + + M /.$X*X;X;X;X;X;X;X;X",
";X;X;X;X;X;X;X;X;XOXS.m > @ h d l / 4.3.r.9.8.7.p.` k 1 S iXrXfXtX6X6Xx.C 1 a c } _ o.o._ ) ' s a 4 , + + M W.%X-X;X;X;X;X;X;X;X",
";X;X;X;X;X;X;X;X;X@XS.N $ + @ : i k -.p.3.7.q.2.s.l i ; F BXAXCXDXcXcXlX6 ; : a { | X.X.| [ x i : @ + $ # e W.=X;X;X;X;X;X;X;X;X",
";X;X;X;X;X;X;X;X*XOXS.N $ . + @ 1 d *.>.4.4.4.#.:.k < @ S BXCXSXnXeXqX0X6 + ; a A { | | [ { x i ; .   . . w /.=X-X;X;X;X;X;X;X;X",
";X;X;X;X;X;X;X;X*X+XJ.K = . u 6 h j ;.;.:.:.:.:.;.s : . S SXDXAXnXeXeX0X5 + $ 4 Z A A A A Z D 2 6 5 - O o w R..X;X;X;X;X;X;X;X;X",
";X;X;X;X;X;X;X;X:X#XH.J 9 . 0XCXDXMXh < i i i i i < @ . y uXzXzXwXwXwXwX5 . % $ ; : : < 2 : 6 rXiXuX^ o # e E..X;X;X;X;X;X;X;X;X",
";X;X;X;X;X;X;X;X*X X(.P e = lXAXCXNX- . + + + @ ; @ .   y kXzXrXwXwXwXwX-   . O . + + + . % - uXuXmXL.7 9 J ^.&X;X;X;X;X;X;X;X;X",
";X;X;X;X;X;X;X;X;X$X'.T P e jXVXAXDX%   . . . . + +     y vXvXvXzXzXzXdX-               X   8 kXkXbXK.q K Y ^.:X;X;X;X;X;X;X;X;X",
";X;X;X;X;X;X;X;X;X%X{.T.D.P.e jX0XtX! ~ ! ! ~ ~ ! ~ ~ Q ^ L.6X6X3X3X3X3X! W Q Q Q Q Q Q W Q ! V.L.U.H C.F.(.+X:X;X;X;X;X;X;X;X;X",
";X;X;X;X;X;X;X;X;X-X%XOXQ.(.C.w # u AXCXCXCXBXBXAXAXAXAXvX&             wXxXkXkXvXvXvXvXzXxXrXO . q D.'.Q.OXXX*X;X;X;X;X;X;X;X;X",
";X;X;X;X;X;X;X;X;X;X*X&X|.!.F.M =   SXSXCXCXBXBXCXAXAXAXnXO   X O O O O eXwXqXqXhXhXhXqXwXzXrX  . w (.@X$X&X&X*X;X;X;X;X;X;X;X;X",
";X;X;X;X;X;X;X;X;X;X*X&X$XQ.F.K = X nXAXCXCXCXCXCXAXAXAXcXX O X X X X X eXwXqXqXkXkXkXhXeXdXrX  . w (.@X=X*X;X;X;X;X;X;X;X;X;X;X",
";X;X;X;X;X;X;X;X;X;X;X-X=XQ.S.J 9 & VXSXCXCXCXAXAXAXAXAXDX5XtX9X9X9X9X9XwXxXxXkXwXwXwXwXeXwX9X  . w (.#X-X;X;X;X;X;X;X;X;X;X;X;X",
";X;X;X;X;X;X;X;X;X;X;X;X-X@XS.P 9 = VXVXAXAXAXAXZXAXAXAXAXAXAXAXAXAXAXAXzXwXcXwXdXwXzXxXwXkXeXo # K /.,X*X;X;X;X;X;X;X;X;X;X;X;X",
";X;X;X;X;X;X;X;X;X;X;X;X-X}.R.U G 7 VXVXCXCXAXAXAXZXAXZXZXAXAXAXAXAXAXAXxXqXdXwXwXzXxXeXqXcX0X= 9 P ].=X-X;X*X*X;X;X;X;X;X;X;X;X",
";X;X;X;X;X;X;X;X;X;X;X;X;X<X).T H t VXVXBXCXAXZXZXZXZXAXZXZXZXZXZXZXZXZXeXrXdXdXeXeXeXeXqXkX8X9 e U Q.&X-X*XoX*X;X;X;X;X;X;X;X;X",
";X;X;X;X;X;X;X;X;X;X;X;X;X%X!.(.D.K.9 + .   * * X 9XmXeXxXxXxXxXxXxXxXxXhXxXdX4X-     X X = 7 K.F.`.,X:X-X*XoXoX;X;X;X;X;X;X;X;X",
";X;X;X;X;X;X;X;X;X;X;X;X;X;X&XOXW.D.w # o o & & o 5XkXqXuXuXwXwXwXqXeXeXeXuXcX6X. . X X & = r P.W.|.-X;X;X;X;X;X;X;X;X;X;X;X;X;X",
";X;X;X;X;X;X;X;X;X;X;X;X;X;X;X*X,XR.U M e w w r t 8XbXuXuXgXcXcXcXgXgXgXcXkXbX7X0 0 q q H J Y (.|.;X;X;X;X;X;X;X;X;X;X;X;X;X;X;X",
";X;X;X;X;X;X;X;X;X;X;X;X;X;X;X;X:XXX^.E.)././.(.Y.2X8X5X5X5X5X4X4X4X4X4X4X7X8XI.A.H.H.(.R.!.!.+X&X;X;X;X;X;X;X;X;X;X;X;X;X;X;X;X",
";X;X;X;X;X;X;X;X;X;X;X;X;X;X;X;X;X;X*X&X=X=X|.@X{.Y.t X X X . . # .     . # q P.H.^.OX|..X&X>X>X*X;X;X;X;X;X;X;X;X;X;X;X;X;X;X;X",
";X;X;X;X;X;X;X;X;X;X;X;X;X;X;X;X*X*X;X;X;X-X-X%X{.Y.r & o o o # # o     # = e F.!.|.&X;X;X;X-X>X;X;X;X;X;X;X;X;X;X;X;X;X;X;X;X;X",
";X;X;X;X;X;X;X;X;X;X;X;X;X;X;X;X*X*X;X;X;X;X;X-X%X1XE r G e M M H H e e K J R (.{.&X;X;X;X;X;X-X;X;X;X;X;X;X;X;X;X;X;X;X;X;X;X;X",
";X;X;X;X;X;X;X;X;X;X;X;X;X;X;X;X;X;X;X;X-X-X;X;X-X%XQ.'././.`.'.'.'.'.'.'.].!.OX-X;X;X;X;X;X;X;X;X;X;X;X;X;X;X;X;X;X;X;X;X;X;X;X",
";X;X;X;X;X;X;X;X;X;X;X;X;X;X;X;X;X;X;X;X*X-X;X;X-X:X&X:X.X=X=X>X=X=X>X>X=X=X>X>X;X;X;X;X;X;X;X;X;X;X;X;X;X;X;X;X;X;X;X;X;X;X;X;X",
";X;X;X;X;X;X;X;X;X;X;X;X;X;X;X;X;X;X;X;X;X;X;X;X;X;X;X;X*X*X*X*X*X*X*X*X:X:X:X:X;X;X;X;X;X;X;X;X;X;X;X;X;X;X;X;X;X;X;X;X;X;X;X;X",
";X;X;X;X;X;X;X;X;X;X;X;X;X;X;X;X;X;X;X;X;X;X;X;X;X;X;X;X;X;X;X;X;X;X;X;X;X;X;X;X;X;X;X;X;X;X;X;X;X;X;X;X;X;X;X;X;X;X;X;X;X;X;X;X",
";X;X;X;X;X;X;X;X;X;X;X;X;X;X;X;X;X;X;X;X;X;X;X;X;X;X;X;X;X;X;X;X;X;X;X;X;X;X;X;X;X;X;X;X;X;X;X;X;X;X;X;X;X;X;X;X;X;X;X;X;X;X;X;X",
";X;X;X;X;X;X;X;X;X;X;X;X;X;X;X;X;X;X;X;X;X;X;X;X;X;X;X;X;X;X;X;X;X;X;X;X;X;X;X;X;X;X;X;X;X;X;X;X;X;X;X;X;X;X;X;X;X;X;X;X;X;X;X;X",
";X;X;X;X;X;X;X;X;X;X;X;X;X;X;X;X;X;X;X;X;X;X;X;X;X;X;X;X;X;X;X;X;X;X;X;X;X;X;X;X;X;X;X;X;X;X;X;X;X;X;X;X;X;X;X;X;X;X;X;X;X;X;X;X",
";X;X;X;X;X;X;X;X;X;X;X;X;X;X;X;X;X;X;X;X;X;X;X;X;X;X;X;X;X;X;X;X;X;X;X;X;X;X;X;X;X;X;X;X;X;X;X;X;X;X;X;X;X;X;X;X;X;X;X;X;X;X;X;X",
";X;X;X;X;X;X;X;X;X;X;X;X;X;X;X;X;X;X;X;X;X;X;X;X;X;X;X;X;X;X;X;X;X;X;X;X;X;X;X;X;X;X;X;X;X;X;X;X;X;X;X;X;X;X;X;X;X;X;X;X;X;X;X;X",
";X;X;X;X;X;X;X;X;X;X;X;X;X;X;X;X;X;X;X;X;X;X;X;X;X;X;X;X;X;X;X;X;X;X;X;X;X;X;X;X;X;X;X;X;X;X;X;X;X;X;X;X;X;X;X;X;X;X;X;X;X;X;X;X"
};
