/* XPM */
static char *right_mm[] = {
/* columns rows colors chars-per-pixel */
"64 64 234 2 ",
"   c #0D0507",
".  c #1B0704",
"X  c #161219",
"o  c #280706",
"O  c #390606",
"+  c #36100E",
"@  c #281212",
"#  c #381414",
"$  c #292627",
"%  c #392B25",
"&  c #373130",
"*  c #4B0404",
"=  c #460909",
"-  c #4C0D0C",
";  c #570809",
":  c #4D0F10",
">  c #5C0F12",
",  c #551314",
"<  c #591917",
"1  c #630C0C",
"2  c #680C0A",
"3  c #740808",
"4  c #69140E",
"5  c #76110C",
"6  c #6D0D10",
"7  c #6E1616",
"8  c #7D1414",
"9  c #771818",
"0  c #7A261E",
"q  c #561C24",
"w  c #661C22",
"e  c #4A2426",
"r  c #582626",
"t  c #443225",
"y  c #4B3231",
"u  c #573736",
"i  c #672629",
"p  c #792625",
"a  c #73302B",
"s  c #683837",
"d  c #783C37",
"f  c #59433C",
"g  c #614533",
"h  c #563B42",
"j  c #534E4F",
"k  c #5C5557",
"l  c #664746",
"z  c #735449",
"x  c #6D5350",
"c  c #706456",
"v  c #656466",
"b  c #786C6B",
"n  c #860A09",
"m  c #8B0C0D",
"M  c #990A0A",
"N  c #88130C",
"B  c #99130E",
"V  c #850B12",
"C  c #8B1313",
"Z  c #861A18",
"A  c #9D1512",
"S  c #971918",
"D  c #A80909",
"F  c #BA0B03",
"G  c #B30A08",
"H  c #AD140E",
"J  c #BC140F",
"K  c #A90F13",
"L  c #BB0D12",
"P  c #A21315",
"I  c #A71719",
"U  c #AC171A",
"Y  c #AB191C",
"T  c #B31413",
"R  c #B81717",
"E  c #98261C",
"W  c #AD281E",
"Q  c #891C27",
"!  c #941B25",
"~  c #A31C22",
"^  c #AC1B21",
"/  c #BC1C29",
"(  c #852829",
")  c #972322",
"_  c #98352A",
"`  c #882D31",
"'  c #913231",
"]  c #993737",
"[  c #A92729",
"{  c #B72928",
"}  c #AB3534",
"|  c #C40C06",
" . c #C70C08",
".. c #C90C09",
"X. c #D60807",
"o. c #DA0B05",
"O. c #DC0D0B",
"+. c #C71209",
"@. c #CC130C",
"#. c #DC120A",
"$. c #D9140B",
"%. c #CC0E12",
"&. c #D70D13",
"*. c #C41415",
"=. c #CB1313",
"-. c #C51A14",
";. c #C3141A",
":. c #CC151A",
">. c #C91918",
",. c #D61716",
"<. c #E30605",
"1. c #ED0605",
"2. c #E40A03",
"3. c #EC0B04",
"4. c #ED0709",
"5. c #E30D0C",
"6. c #EB0B0A",
"7. c #F50503",
"8. c #FA0402",
"9. c #F40A04",
"0. c #FB0A03",
"q. c #F4050A",
"w. c #FA040A",
"e. c #F40A0B",
"r. c #F90A0B",
"t. c #E61006",
"y. c #E3120C",
"u. c #EA1109",
"i. c #F41408",
"p. c #E30D13",
"a. c #EA0E12",
"s. c #E31413",
"d. c #E61617",
"f. c #F21C16",
"g. c #E8251E",
"h. c #CE1E23",
"j. c #D81B23",
"k. c #C62A2A",
"l. c #DB2624",
"z. c #C33031",
"x. c #C63535",
"c. c #D33538",
"v. c #E92A27",
"b. c #E83632",
"n. c #884437",
"m. c #9C433C",
"M. c #DF433D",
"N. c #EF4135",
"B. c #D63542",
"V. c #8D5353",
"C. c #985854",
"Z. c #A85042",
"A. c #A45C5C",
"S. c #B85C5A",
"D. c #947057",
"F. c #B7715B",
"G. c #8B6B62",
"H. c #98756B",
"J. c #877A79",
"K. c #9E7E77",
"L. c #A16F6B",
"P. c #A8716E",
"I. c #A37A7A",
"U. c #B57B79",
"Y. c #C94B4B",
"T. c #CB5C56",
"R. c #D35958",
"E. c #F44140",
"W. c #F7544B",
"Q. c #F85955",
"!. c #C5685A",
"~. c #F1625C",
"^. c #F85A62",
"/. c #CA726C",
"(. c #C67A75",
"). c #F46D6D",
"_. c #FD726B",
"`. c #FE7771",
"'. c #86827F",
"]. c #968378",
"[. c #A8887D",
"{. c #AF9077",
"}. c #CC8C79",
"|. c #DD827B",
" X c #CB917B",
".X c magenta",
"XX c #938985",
"oX c #8F948F",
"OX c #9B9895",
"+X c #A98584",
"@X c #B48A87",
"#X c #A5968A",
"$X c #AD8B90",
"%X c #AB979A",
"&X c #BC9A98",
"*X c #BCA08A",
"=X c #A5A39B",
"-X c #999CA1",
";X c #B1A9A6",
":X c #AEB5B6",
">X c #B8BBB7",
",X c #DA8789",
"<X c #DA9688",
"1X c #D19598",
"2X c #E0828A",
"3X c #D7AF97",
"4X c #DAAC9A",
"5X c #E4B49A",
"6X c #D7A2A2",
"7X c #CCB3A8",
"8X c #C2BABE",
"9X c #EBA2A4",
"0X c #E8B9AA",
"qX c #F4BBA7",
"wX c #EAC4AC",
"eX c #F5C4AA",
"rX c #F8C8A9",
"tX c #EBCAB5",
"yX c #F3CCB6",
"uX c #CDCDCF",
"iX c #DDCAC9",
"pX c #D4D6D6",
"aX c #E4C8C9",
"sX c #E5D4C9",
"dX c #F4D2D2",
"fX c #EEE4DE",
"gX c #D9D6E0",
"hX c #EAE8E8",
"jX c #F3ECF1",
"kX c #F3F4F5",
"lX c #FAF4F5",
"zX c #FBFCF5",
"xX c #FBF6FA",
"cX c #FCFCFB",
/* pixels */
".X.X.X.X.X.X.X.X.X.X.X.X.X.X.X.X.X.X.X.X.X.X.X.X.X.X.X.X.X.X.X.X.X.X.X.X.X.X.X.X.X.X.X.X.X.X.X.X.X.X.X.X.X.X.X.X.X.X.X.X.X.X.X.X",
".X.X.X.X.X.X.X.X.X.X.X.X.X.X.X.X.X.X.X.X.X.X.X.X.X.X.X.X.X.X.X.X.X.X.X.X.X.X.X.X.X.X.X.X.X.X.X.X.X.X.X.X.X.X.X.X.X.X.X.X.X.X.X.X",
".X.X.X.X.X.X.X.X.X.X.X.X.X.X.X.X.X.X.X.X.X.X.X.X.X.X.X.X.X.X.X.X.X.X.X.X.X.X.X.X.X.X.X.X.X.X.X.X.X.X.X.X.X.X.X.X.X.X.X.X.X.X.X.X",
".X.X.X.X.X.X.X.X.X.X.X.X.X.X.X.X.X.X.X.X.X.X.X.X.X.X.X.X.X.X.X.X.X.X.X.X.X.X.X.X.X.X.X.X.X.X.X.X.X.X.X.X.X.X.X.X.X.X.X.X.X.X.X.X",
".X.X.X.X.X.X.X.X.X.X.X.X.X.X.X.X.X.X.X.X.X.X.X.X.X.X.X.X.X.X.X.X.X.X.X.X.X.X.X.X.X.X.X.X.X.X.X.X.X.X.X.X.X.X.X.X.X.X.X.X.X.X.X.X",
".X.X.X.X.X.X.X.X.X.X.X.X.X.X.X.X.X.X.X.X.X.X.X.X.X.X.X.X.X.X.X.X.X.X.X.X.X.X.X.X.X.X.X.X.X.X.X.X.X.X.X.X.X.X.X.X.X.X.X.X.X.X.X.X",
".X.X.X.X.X.X.X.X.X.X.X.X.X.X.X.X.X.X.X.X.X.X.X.X.X.X.X.X.X.X.X.X.X.X.X.X.X.X.X.X.X.X.X.X.X.X.X.X.X.X.X.X.X.X.X.X.X.X.X.X.X.X.X.X",
".X.X.X.X.X.X.X.X.X.X.X.X.X.X.X.X.X.X.X.X.X.X.X.X.X.X.X.X.X.X.X.X.X.X.X.X.X.X.X.X.X.X.X.X.X.X.X.X.X.X.X.X.X.X.X.X.X.X.X.X.X.X.X.X",
".X.X.X.X.X.X.X.X.X.X.X.X.X.X.X.X.X.X.X.X.X.X.X.X.X.X.X.X.X.X.X.X.X.X.X.X.X.X.X.X.X.X.X.X.X.X.X.X.X.X.X.X.X.X.X.X.X.X.X.X.X.X.X.X",
".X.X.X.X.X.X.X.X.X.X.X.X.X.X.X.X.X.X.X.X.X.X.X.X.X.X.X.X.X* ; ; * * * .X.X.X.X.X.X.X.X.X.X.X.X.X.X.X.X.X.X.X.X.X.X.X.X.X.X.X.X.X",
".X.X.X.X.X.X.X.X.X.X.X.X.X.X.X.X.X.X.X.X.X.X.X.X.XO * 2 Z P U I U Y ~ ) ( - o . .X.X.X.X.X.X.X.X.X.X.X.X.X.X.X.X.X.X.X.X.X.X.X.X",
".X.X.X.X.X.X.X.X.X.X.X.X.X.X.X.X.X.X.X.X.X.X.X.X4 Z S R ,.u.5.p.s.a.d.,.R S > = O o .X.X.X.X.X.X.X.X.X.X.X.X.X.X.X.X.X.X.X.X.X.X",
".X.X.X.X.X.X.X.X.X.X.X.X.X.X.X.X.X.X.X.X.X.XO 5 ~ x.c.l.d.r.9.3.w.w.9.t.$.D n ! S > # .X.X.X.X.X.X.X.X.X.X.X.X.X.X.X.X.X.X.X.X.X",
".X.X.X.X.X.X.X.X.X.X.X.X.X.X.X.X.X.X.X.X.X.X6 ~ B.Q.^.Q.f.9.r.9.w.w.8.9.o.| T { { Q , o .X.X.X.X.X.X.X.X.X.X.X.X.X.X.X.X.X.X.X.X",
".X.X.X.X.X.X.X.X.X.X.X.X.X.X.X.X.X.X.X.X.X8 ~ x.^.`.`.W.f.9.0.0.7.8.7.7.3.=.I m 8 9 i - .X.X.X.X.X.X.X.X.X.X.X.X.X.X.X.X.X.X.X.X",
".X.X.X.X.X.X.X.X.X.X.X.X.X.X.X.X.X.X.X.XV U z.Q._.`._.v.t.0.8.9.9.7.7.8.O.P ` @X@XH.a i r .X.X.X.X.X.X.X.X.X.X.X.X.X.X.X.X.X.X.X",
".X.X.X.X.X.X.X.X.X.X.X.X.X.X.X.X.X.X.X.XU =.b._._.^.b.y.3.0.0.9.9.r.q.4.%.] I.lXxXfX$Xs r .X.X.X.X.X.X.X.X.X.X.X.X.X.X.X.X.X.X.X",
".X.X.X.X.X.X.X.X.X.X.X.X.X.X.X.X.X.X.Xm =.O.g.W.E.g.a.4.9.8.8.0.r.w.e.d.K U.jXcXhX%XJ.u e # .X.X.X.X.X.X.X.X.X.X.X.X.X.X.X.X.X.X",
".X.X.X.X.X.X.X.X.X.X.X.X.X.X.X.X.X.X.XT O.2.2.d.p.q.w.8.8.8.8.0.8.8.r.d.C I.xXcX8X& v u # e .X.X.X.X.X.X.X.X.X.X.X.X.X.X.X.X.X.X",
".X.X.X.X.X.X.X.X.X.X.X.X.X.X.X.X.X.Xm %.q.9.3.e.7.w.w.8.8.8.8.8.8.8.r.d.C H.lXcX%X$ J.y # i O .X.X.X.X.X.X.X.X.X.X.X.X.X.X.X.X.X",
".X.X.X.X.X.X.X.X.X.X.X.X.X.X.X.X.X.XY a.7.8.7.7.7.7.8.8.7.8.7.8.8.8.7.p.N H.kXcX-X    . : ` 7 .X.X.X.X.X.X.X.X.X.X.X.X.X.X.X.X.X",
".X.X.X.X.X.X.X.X.X.X.X.X.X.X.X.X.X.X;.4.0.8.8.8.7.9.7.8.8.7.8.8.8.8.1.p.m L.xXcXuX&   @ 1 [ ! .X.X.X.X.X.X.X.X.X.X.X.X.X.X.X.X.X",
".X.X.X.X.X.X.X.X.X.X.X.X.X.X.X.X.X.X-.3.0.8.8.8.7.8.8.8.w.w.w.8.8.7.q.5.P V.iXcXkX:XXXC.S / [ .X.X.X.X.X.X.X.X.X.X.X.X.X.X.X.X.X",
".X.X.X.X.X.X.X.X.X.X.X.X.X.X.X.X.X.X-.9.8.8.w.9.7.8.8.8.7.w.7.0.8.w.7.<.:.Z V.iXiXsX1X[ R h.U .X.X.X.X.X.X.X.X.X.X.X.X.X.X.X.X.X",
".X.X.X.X.X.X.X.X.X.X.X.X.X.X.X.X.XN -.9.8.8.8.7.8.8.8.8.8.8.8.7.7.7.7.1.<.:.V ( p p S -.,.s.R .X.X.X.X.X.X.X.X.X.X.X.X.X.X.X.X.X",
".X.X.X.X.X.X.X.X.X.X.X.X.X.X.X.X.XV :.9.8.8.w.8.8.8.8.8.w.7.7.7.7.7.7.7.1.&.L L R R @.u.t.u.T .X.X.X.X.X.X.X.X.X.X.X.X.X.X.X.X.X",
".X.X.X.X.X.X.X.X.X.X.X.X.X.X.X.X.XV :.9.0.8.w.w.8.8.8.7.6.2.3.9.8.7.8.7.3.O.&.,.d.#.u.9.9.#.H .X.X.X.X.X.X.X.X.X.X.X.X.X.X.X.X.X",
".X.X.X.X.X.X.X.X.X.X.X.X.X.X.X.X.X6 R 2.7.w.w.q.7.7.1.O.+.+.| o.q.w.8.r.3.X.F @.d.a.u.q.y.>.S .X.X.X.X.X.X.X.X.X.X.X.X.X.X.X.X.X",
".X.X.X.X.X.X.X.X.X.X.X.X.X.X.X.X.X.XI o.t.9.w.q.7.9.#.J A C A J #.r.0.i.i.#.| F +.-.=...R S 9 .X.X.X.X.X.X.X.X.X.X.X.X.X.X.X.X.X",
".X.X.X.X.X.X.X.X.X.X.X.X.X.X.X.X.X.XB +.2.9.q.7.7.1.@.A !. X|.W  .u.i.0.9.i.#.@.G M n n 3 ; O .X.X.X.X.X.X.X.X.X.X.X.X.X.X.X.X.X",
".X.X.X.X.X.X.X.X.X.X.X.X.X.X.X.X.X.X3 G o.1.7.7.1.p.L C <XeXqX} F u.0.0.0.0.u.s.%.D M m 8 - . .X.X.X.X.X.X.X.X.X.X.X.X.X.X.X.X.X",
".X.X.X.X.X.X.X.X.X.X.X.X.X.X.X.X.X.X1 B | o.1.7.1.p.U ' 5XeX5X_ F i.0.0.0.7.1.1.&.R [ ) ( < .X.X.X.X.X.X.X.X.X.X.X.X.X.X.X.X.X.X",
".X.X.X.X.X.X.X.X.X.X.X.X.X.X.X.X.X.X.X5 D | o.3.6.&.N }.eXrXF.E ,.i.r.0.7.7.3.<.j.).2X1XU.s .X.X.X.X.X.X.X.X.X.X.X.X.X.X.X.X.X.X",
".X.X.X.X.X.X.X.X.X.X.X.X.X.X.X.X.X.X.X; V F X.2.p.=.8  XrXrXZ.E h.u.9.q.w.7.1.X.B.yXdX6X&X.X.X.X.X.X.X.X.X.X.X.X.X.X.X.X.X.X.X.X",
".X.X.X.X.X.X.X.X.X.X.X.X.X.X.X.X.X.X.X.X6 K | o.#.R 5  XrXrXF.E -.o.3.4.4.1.1.o.k.0XaXl h .X.X.X.X.X.X.X.X.X.X.X.X.X.X.X.X.X.X.X",
".X.X.X.X.X.X.X.X.X.X.X.X.X.X.X.X.X.X.X.X= 8 J +.+.H 8  XrXrXqXm.M  .o.2.2.3.3.6.k.9X+Xe .X.X.X.X.X.X.X.X.X.X.X.X.X.X.X.X.X.X.X.X",
".X.X.X.X.X.X.X.X.X.X.X.X.X.X.X.X.X.X.X.X.X> Z H *.T C n.3XtXtXn.V T ..o.3.6.u.=.Y.6Xu .X.X.X.X.X.X.X.X.X.X.X.X.X.X.X.X.X.X.X.X.X",
".X.X.X.X.X.X.X.X.X.X.X.X.X.X.X.X.X.X.X.X.X.X* 5 A Y ! > {.tXsX7Xd 3 K ..X.$.,.z.|.@X.X.X.X.X.X.X.X.X.X.X.X.X.X.X.X.X.X.X.X.X.X.X",
".X.X.X.X.X.X.X.X.X.X.X.X.X.X.X.X.X.X.X.X.X.X.X.X6 Q Q < *XsX=X>Xc w V A H T W !.P..X.X.X.X.X.X.X.X.X.X.X.X.X.X.X.X.X.X.X.X.X.X.X",
".X.X.X.X.X.X.X.X.X.X.X.X.X.X.X.X.X.X.X.X.X.X.X.X.X: - + x ].;XpXfXaX{.a 1 4 7 i .X.X.X.X.X.X.X.X.X.X.X.X.X.X.X.X.X.X.X.X.X.X.X.X",
".X.X.X.X.X.X.X.X.X.X.X.X.X.X.X.X.X.X.X.X.X.X.X.X.X# y @ j ;XjXcXxXcXfX#Xf o o .X.X.X.X.X.X.X.X.X.X.X.X.X.X.X.X.X.X.X.X.X.X.X.X.X",
".X.X.X.X.X.X.X.X.X.X.X.X.X.X.X.X.X.X.X.X.X.X.X.X.X.XOX% b lXcXzXcXxXhXhXoXX .X.X.X.X.X.X.X.X.X.X.X.X.X.X.X.X.X.X.X.X.X.X.X.X.X.X",
".X.X.X.X.X.X.X.X.X.X.X.X.X.X.X.X.X.X.X.X.X.X.X.X.Xg #X% XXjXcXzXzXcXpX:XoXX .X.X.X.X.X.X.X.X.X.X.X.X.X.X.X.X.X.X.X.X.X.X.X.X.X.X",
".X.X.X.X.X.X.X.X.X.X.X.X.X.X.X.X.X.X.X.X.X.X.X.X.X{.*X% oXzXcXzXzXxX8Xv k X .X.X.X.X.X.X.X.X.X.X.X.X.X.X.X.X.X.X.X.X.X.X.X.X.X.X",
".X.X.X.X.X.X.X.X.X.X.X.X.X.X.X.X.X.X.X.X.X.X.X.XH.4X5Xz '.hXzXzXcXxXhXXX& & .X.X.X.X.X.X.X.X.X.X.X.X.X.X.X.X.X.X.X.X.X.X.X.X.X.X",
".X.X.X.X.X.X.X.X.X.X.X.X.X.X.X.X.X.X.X.X.X.X.X+X3XeXrX*Xf '.hXzXkXgXpX'.x J.$ .X.X.X.X.X.X.X.X.X.X.X.X.X.X.X.X.X.X.X.X.X.X.X.X.X",
".X.X.X.X.X.X.X.X.X.X.X.X.X.X.X.X.X.X.X.X.X.X[.0XeXeX5X{.% j 8XpX:X-XoXc ].7Xb .X.X.X.X.X.X.X.X.X.X.X.X.X.X.X.X.X.X.X.X.X.X.X.X.X",
".X.X.X.X.X.X.X.X.X.X.X.X.X.X.X.X.X.X.X.X, a 4XeXrX5XD..X.X.Xv -Xj $ & [.wXyX].o .X.X.X.X.X.X.X.X.X.X.X.X.X.X.X.X.X.X.X.X.X.X.X.X",
".X.X.X.X.X.X.X.X.X.X.X.X.X.X.X.X.X.X.X> 9 0 <XqXwX{..X.X.X.X.X.X.X. t 3X5X0XU.: w w > p m.] ` .X.X.X.X.X.X.X.X.X.X.X.X.X.X.X.X.X",
".X.X.X.X.X.X.X.X.X.X.X.X.X.X.X.X.X.XZ S A E _ Z.C.f .X.X.X.X.X.X.X.Xr g n.n.` Z V P ^ x.~.).R.' .X.X.X.X.X.X.X.X.X.X.X.X.X.X.X.X",
".X.X.X.X.X.X.X.X.X.X.X.X.X.X.X.X.X( { *.G H I 8 < + .X.X.X.X.X.X.X.Xq i 0 Z S B D :.,.l.Q.M.x.m..X.X.X.X.X.X.X.X.X.X.X.X.X.X.X.X",
".X.X.X.X.X.X.X.X.X.X.X.X.X.X.X.X.X(.{ j.+.F I 9 - o .X.X.X.X.X.X.X.X: , 2 N M D %.O.y.5.,.-.{ S..X.X.X.X.X.X.X.X.X.X.X.X.X.X.X.X",
".X.X.X.X.X.X.X.X.X.X.X.X.X.X.X.X.X<X{ d.s.@.M 3 * O .X.X.X.X.X.X.X.X.XO 6 M G ..$.o.u.s.&.R } U..X.X.X.X.X.X.X.X.X.X.X.X.X.X.X.X",
".X.X.X.X.X.X.X.X.X.X.X.X.X.X.X.X.X1X{ ,.2.o.| H } Z.( < .X.X.X.X.X.X.X- Z L %.<.t.t.#.=.k./.A..X.X.X.X.X.X.X.X.X.X.X.X.X.X.X.X.X",
".X.X.X.X.X.X.X.X.X.X.X.X.X.X.X.X.XV.S.;.#.3.2.#.N.W.x.) , .X.X.X.X.X.X- C  .X.o.$.=.k.T./.L..X.X.X.X.X.X.X.X.X.X.X.X.X.X.X.X.X.X",
".X.X.X.X.X.X.X.X.X.X.X.X.X.X.X.X.Xe A.Y.-.5.6.4.u.,.l.[ ; .X.X.X.X.X.X; A L =.>.W R.F.C.G..X.X.X.X.X.X.X.X.X.X.X.X.X.X.X.X.X.X.X",
".X.X.X.X.X.X.X.X.X.X.X.X.X.X.X.X.X.Xs A.Y.R :.%.:.%.R [ > .X.X.X.X.X.X4 S Y ^ T.(.z s .X.X.X.X.X.X.X.X.X.X.X.X.X.X.X.X.X.X.X.X.X",
".X.X.X.X.X.X.X.X.X.X.X.X.X.X.X.X.X.X.Xf H.,X2X,X`.2X(.C.e .X.X.X.X.X.X.Xa S.A.s l @ .X.X.X.X.X.X.X.X.X.X.X.X.X.X.X.X.X.X.X.X.X.X",
".X.X.X.X.X.X.X.X.X.X.X.X.X.X.X.X.X.X.X.Xk %X$X+XXX+XK.f .X.X.X.X.X.X.X.X.Xz f .X.X.X.X.X.X.X.X.X.X.X.X.X.X.X.X.X.X.X.X.X.X.X.X.X",
".X.X.X.X.X.X.X.X.X.X.X.X.X.X.X.X.X.X.X.X.X.X.X.X.X.X.X.X.X.X.X.X.X.X.X.X.X.X.X.X.X.X.X.X.X.X.X.X.X.X.X.X.X.X.X.X.X.X.X.X.X.X.X.X",
".X.X.X.X.X.X.X.X.X.X.X.X.X.X.X.X.X.X.X.X.X.X.X.X.X.X.X.X.X.X.X.X.X.X.X.X.X.X.X.X.X.X.X.X.X.X.X.X.X.X.X.X.X.X.X.X.X.X.X.X.X.X.X.X",
".X.X.X.X.X.X.X.X.X.X.X.X.X.X.X.X.X.X.X.X.X.X.X.X.X.X.X.X.X.X.X.X.X.X.X.X.X.X.X.X.X.X.X.X.X.X.X.X.X.X.X.X.X.X.X.X.X.X.X.X.X.X.X.X",
".X.X.X.X.X.X.X.X.X.X.X.X.X.X.X.X.X.X.X.X.X.X.X.X.X.X.X.X.X.X.X.X.X.X.X.X.X.X.X.X.X.X.X.X.X.X.X.X.X.X.X.X.X.X.X.X.X.X.X.X.X.X.X.X",
".X.X.X.X.X.X.X.X.X.X.X.X.X.X.X.X.X.X.X.X.X.X.X.X.X.X.X.X.X.X.X.X.X.X.X.X.X.X.X.X.X.X.X.X.X.X.X.X.X.X.X.X.X.X.X.X.X.X.X.X.X.X.X.X"
};
