/* XPM */
static char *left1_milka[] = {
/* columns rows colors chars-per-pixel */
"64 64 237 2 ",
"   c #100007",
".  c #17071B",
"X  c #1B031D",
"o  c #280518",
"O  c #381219",
"+  c #1C0322",
"@  c #1D0827",
"#  c #280927",
"$  c #24032C",
"%  c #2B042E",
"&  c #35092A",
"*  c #2C1329",
"=  c #361129",
"-  c #240535",
";  c #2B0334",
":  c #2D0A34",
">  c #2D043A",
",  c #2A0A3B",
"<  c #330434",
"1  c #360838",
"2  c #340C3C",
"3  c #2D1634",
"4  c #361738",
"5  c #33233D",
"6  c #460D28",
"7  c #49102E",
"8  c #470C3B",
"9  c #47163A",
"0  c #4C283C",
"q  c #6C3732",
"w  c #74383A",
"e  c #735328",
"r  c #2D0642",
"t  c #330543",
"y  c #340D44",
"u  c #3A0B45",
"i  c #33044B",
"p  c #3A0749",
"a  c #3C0B4B",
"s  c #3B1645",
"d  c #3D144C",
"f  c #3A0452",
"g  c #3A0654",
"h  c #3A1153",
"j  c #3E2645",
"k  c #440748",
"l  c #451748",
"z  c #431B4B",
"x  c #521847",
"c  c #410B54",
"v  c #450959",
"b  c #440B5C",
"n  c #431454",
"m  c #431B53",
"M  c #4B145C",
"N  c #481858",
"B  c #5A1D55",
"V  c #46284A",
"C  c #582F4F",
"Z  c #483649",
"A  c #4B2658",
"S  c #542858",
"D  c #563757",
"F  c #71354A",
"G  c #4A0D6A",
"H  c #4B1668",
"J  c #511868",
"K  c #4E1771",
"L  c #561778",
"P  c #4C2664",
"I  c #572868",
"U  c #583766",
"Y  c #5B2774",
"T  c #5C3375",
"R  c #653769",
"E  c #663275",
"W  c #623A73",
"Q  c #663779",
"!  c #7C4244",
"~  c #71414A",
"^  c #65485A",
"/  c #794356",
"(  c #735550",
")  c #5A4165",
"_  c #6A4969",
"`  c #695469",
"'  c #674678",
"]  c #754977",
"[  c #6F5A73",
"{  c #765778",
"}  c #7C647B",
"|  c #834A36",
" . c #8D4E3B",
".. c #9B7533",
"X. c #83464B",
"o. c #8F4D4C",
"O. c #8A5B43",
"+. c #9D7547",
"@. c #8C4E74",
"#. c #895A78",
"$. c #8A6369",
"%. c #98677A",
"&. c #A76F76",
"*. c #A98825",
"=. c #CEB234",
"-. c #DCC62C",
";. c #B8A24C",
":. c #AB8276",
">. c #BFAD61",
",. c #F4E65C",
"<. c #5C1A87",
"1. c #651C89",
"2. c #631C95",
"3. c #5E2484",
"4. c #67298A",
"5. c #6C3B84",
"6. c #6B3389",
"7. c #733989",
"8. c #692A93",
"9. c #6F2D93",
"0. c #763797",
"q. c #792CA0",
"w. c #7D36A4",
"e. c #7B3BA4",
"r. c #774887",
"t. c #785687",
"y. c #784694",
"u. c #7B5495",
"i. c #7E688B",
"p. c #853EAA",
"a. c #934B80",
"s. c #8B5887",
"d. c #855A99",
"f. c #85658A",
"g. c #986D84",
"h. c #887888",
"j. c #8A6A98",
"k. c #956A99",
"l. c #8B7596",
"z. c #957A99",
"x. c #A97694",
"c. c #8546AD",
"v. c #8C54AC",
"b. c #8C65A5",
"n. c #996AA2",
"m. c #9A7AA5",
"M. c #9E78B4",
"N. c #A16DAB",
"B. c #A176AC",
"V. c #A479B7",
"C. c magenta",
"Z. c #A675C3",
"A. c #B37CD4",
"S. c #958793",
"D. c #998899",
"F. c #A58696",
"G. c #AC8A96",
"H. c #A99697",
"J. c #9981AA",
"K. c #A489A9",
"L. c #A594AB",
"P. c #BF9AA0",
"I. c #A686B7",
"U. c #B68CB9",
"Y. c #AD94B8",
"T. c #B498B6",
"R. c #B2A3B0",
"E. c #B8AAB8",
"W. c #BBB3B9",
"Q. c #C1899F",
"!. c #CE96B5",
"~. c #C9A4B7",
"^. c #D3A9B7",
"/. c #F1B9BD",
"(. c #F8E9A9",
"). c #AE85C7",
"_. c #B085C2",
"`. c #B38AC3",
"'. c #B896C8",
"]. c #BC8FD7",
"[. c #BAA7C4",
"{. c #C497CD",
"}. c #C598D8",
"|. c #C3ACCC",
" X c #D9AAC5",
".X c #C8B7C9",
"XX c #CAA9D5",
"oX c #D5A7DA",
"OX c #CCB6D3",
"+X c #CCBBD3",
"@X c #D4B7DA",
"#X c #E9A8C1",
"$X c #E8B9C8",
"%X c #F1B5CF",
"&X c #CEAAE4",
"*X c #D5ABEA",
"=X c #DAB7E6",
"-X c #DAACF4",
";X c #D3C6CA",
":X c #CEC5D2",
">X c #D3C3D6",
",X c #D5C9D7",
"<X c #D5C4DB",
"1X c #DCD5DB",
"2X c #F4C7CC",
"3X c #FBCBCD",
"4X c #E9C6D3",
"5X c #F9C9D6",
"6X c #E3D9DB",
"7X c #F6D6D8",
"8X c #E8E1DC",
"9X c #F0E1DF",
"0X c #DBC7E4",
"qX c #DDD2E2",
"wX c #E2CCE5",
"eX c #E6C7E9",
"rX c #EFC4EF",
"tX c #E5D7E9",
"yX c #E6DBE9",
"uX c #F9D8E5",
"iX c #EBDDF1",
"pX c #F4DAF7",
"aX c #EAE3EB",
"sX c #E9E7EA",
"dX c #F4E9EA",
"fX c #EFF0EB",
"gX c #F8F2ED",
"hX c #EEE6F1",
"jX c #F6E9F6",
"kX c #F4ECF5",
"lX c #F9EEF9",
"zX c #F5F3F4",
"xX c #FAF5F6",
"cX c #FCFEF5",
"vX c #F6F3F9",
"bX c #FBF3FB",
"nX c #FDFDFB",
/* pixels */
"C.C.C.C.C.C.C.C.C.C.C.C.C.C.C.C.C.C.C.C.C.C.C.C.C.C.C.C.C.C.C.C.C.C.C.C.C.C.C.C.C.C.C.C.C.C.C.C.C.C.C.C.C.C.C.C.C.C.C.C.C.C.C.C.",
"C.C.C.C.C.C.C.C.C.C.C.C.C.C.C.C.C.C.C.C.C.C.C.C.C.C.C.C.C.C.C.C.C.C.C.C.C.C.C.C.C.C.C.C.C.C.C.C.C.C.C.C.C.C.C.C.C.C.C.C.C.C.C.C.",
"C.C.C.C.C.C.C.C.C.C.C.C.C.C.C.C.C.C.C.C.C.C.C.C.C.C.C.C.C.C.C.C.C.C.C.C.C.C.C.C.C.C.C.C.C.C.C.C.C.C.C.C.C.C.C.C.C.C.C.C.C.C.C.C.",
"C.C.C.C.C.C.C.C.C.C.C.C.C.C.C.C.C.C.C.C.C.C.C.C.C.C.C.C.C.C.C.C.C.C.C.C.C.C.C.C.C.C.C.C.C.C.C.C.C.C.C.C.C.C.C.C.C.C.C.C.C.C.C.C.",
"C.C.C.C.C.C.C.C.C.C.C.C.C.C.C.C.C.C.C.C.C.C.C.C.C.4 - : - . . @ @ * 5 C.C.C.C.C.C.C.C.C.C.C.C.C.a M M l C.C.C.C.C.C.C.C.C.C.C.C.",
"C.C.C.C.C.C.C.C.C.C.C.C.C.C.C.C.C.C.C.C.C.C.C.C.4 , i.L.E.E.E.E.W.W.} . . C.C.C.C.C.C.C.C.C.C.r 4.0.0.Y C.C.C.C.C.C.C.C.C.C.C.C.",
"C.C.C.C.C.C.C.C.C.C.C.C.C.C.C.g H s C.C.C.C.C.C.) U i.Y.zXnXnXnXcXcXL.Z Z D C.C.C.C.C.C.C.C.r h 6.c.c.L t C.C.C.C.C.C.C.C.C.C.C.",
"C.C.C.C.C.C.C.C.C.C.C.C.C.C.C.b 4.I - @ @ - r r l.iXvXvXcXnXcXcXcXcXfX8XsX:XV $ $ $ - r r r h 6.y.0.4.K f C.C.C.C.C.C.C.C.C.C.C.",
"C.C.C.C.C.C.C.C.C.C.C.C.C.C.C.b 0.4.b W t.U P T L.bXcXcXcXnXcXnXcXcXcXcXnXlXh.} { } t.P H G <.6.6.9.1.K f C.C.C.C.C.C.C.C.C.C.C.",
"C.C.C.C.C.C.C.C.C.C.C.C.C.C.C.b 0.w.6.`.pXl.b.J.+XcXcXcXcXnXnXnXcXcXnXnXnXnXvXzXxXbXpXu.<.2.<.2.1.L K H C.C.C.C.C.C.C.C.C.C.C.C.",
"C.C.C.C.C.C.C.C.C.C.C.C.C.C.C.b 4.8.<.r.b.'.Y.l.+XnXnXzXaXyXsXzXnXcXnXnXnXnXnXzXsX0X[.Q K <.2.2.2.L c p C.C.C.C.C.C.C.C.C.C.C.C.",
"C.C.C.C.C.C.C.C.C.C.C.C.C.C.C.C.K <.4.L P =X0XJ.|.yXyX:XJ.l.D.1XnXnXnXcXcXnXnXsX:Xm.r.Y <.<.2.2.1.G p C.C.C.C.C.C.C.C.C.C.C.C.C.",
"C.C.C.C.C.C.C.C.C.C.C.C.C.C.C.C.i 7.&Xy.I 0XvXhX[.[ ' t.[.<XyXzXnXnXnXcXnXnXnXnXvXXXI.].Z.<.2.2.G f C.C.C.C.C.C.C.C.C.C.C.C.C.C.",
"C.C.C.C.C.C.C.C.C.C.C.C.C.C.C.C.> U V.u.i.yXnXnX>Xm.n.m.0XvXnXnXnXnXnXnXnXcXcXnXnX<X).I.u.H G <.v C.C.C.C.C.C.C.C.C.C.C.C.C.C.C.",
"C.C.C.C.C.C.C.C.C.C.C.C.C.C.C.C.C.y r i.0XvXcXcXvXlX:X+XkXnXnXnXnXcXnXnXcXcXcXnXbXtX[.A h g g i C.C.C.C.C.C.C.C.C.C.C.C.C.C.C.C.",
"C.C.C.C.C.C.C.C.C.C.C.C.C.C.C.C.C.y , z.lXnXnXcXnXvXsXsXcXcXnXnXnXnXnXcXcXcXcXnXnXvXyXY.i.b i r C.C.C.C.C.C.C.C.C.C.C.C.C.C.C.C.",
"C.C.C.C.C.C.C.C.C.C.C.C.C.C.C.C.C.y - J.nXnXnXnXcXcXcXcXcXcXnXnXnXnXnXnXcXcXcXnXnXnXlX0X_.M > C.C.C.C.C.C.C.C.C.C.C.C.C.C.C.C.C.",
"C.C.C.C.C.C.C.C.C.C.C.C.C.C.C.C.C.r - D.vX1X,X:X6XcXcXcXcXcXnXnXcX1X:X:X8XcXcXnXnXnXlXXXM.M > C.C.C.C.C.C.C.C.C.C.C.C.C.C.C.C.C.",
"C.C.C.C.C.C.C.C.C.C.C.C.C.C.C.C.C., $ S.vX` j 3 S.gXcXcXcXnXnXnXsXD 5 4 L.cXcXnXnXnXlXXXM.b ; C.C.C.C.C.C.C.C.C.C.C.C.C.C.C.C.C.",
"C.C.C.C.C.C.C.C.C.C.C.C.C.C.C.C.C.: @ S.sXZ @ . i.xXnXnXcXcXnXnXsXj : * J.nXnXnXnXnXkXXXM.n C.C.C.C.C.C.C.C.C.C.C.C.C.C.C.C.C.C.",
"C.C.C.C.C.C.C.C.C.C.C.C.C.C.C.C.C.C.@ S.vX[.L.L.;XnXnXcXnXcXnXnXsXj 3 : S.dXgXcXnXnXvXXXm.m C.C.C.C.C.C.C.C.C.C.C.C.C.C.C.C.C.C.",
"C.C.C.C.C.C.C.C.C.C.C.C.C.C.C.C.C.C.@ S.vXvXnXvXxXcXzXfXfXzXnXnXsXj * 4 G.7XgXcXcXnXkXOXB.C.C.C.C.C.C.C.C.C.C.C.C.C.C.C.C.C.C.C.",
"C.C.C.C.C.C.C.C.C.C.C.C.C.C.C.C.C.C.@ S.nXnXqXD.F.S.S.S.S..XcXcXgX;XW.R.$X8XgXcXnXhX<X` D C.C.C.C.C.C.C.C.C.C.C.C.C.C.C.C.C.C.C.",
"C.C.C.C.C.C.C.C.C.C.C.C.C.C.C.C.C.C.@ D.nX8X[.H.F.S.:.F.D.E.;XfXcXcXdX9X9X9XgXnXnXyXOXj + C.C.C.C.C.C.C.C.C.C.C.C.C.C.C.C.C.C.C.",
"C.C.C.C.C.C.C.C.C.C.C.C.C.C.C.C.C.C.. D.bXH.F.5X5X2X2X7XuX.Xh.1XnXnXcXcXgXcXcXnXnXiX@XV C.C.C.C.C.C.C.C.C.C.C.C.C.C.C.C.C.C.C.C.",
"C.C.C.C.C.C.C.C.C.C.C.C.C.C.C.C.C.C.C.[ F.T.~.3X2X3X2X7X7X4X^.W.W.zXnXnXcXnXnXiXOXK.j.D C.C.C.C.C.C.C.C.C.C.C.C.C.C.C.C.C.C.C.C.",
"C.C.C.C.C.C.C.C.C.C.C.C.C.C.C.C.C.C.C.j l U.$X2X3X5X5XuX5X7XuXD.} hXnXnXvXvXiX[.t.P y C.C.C.C.C.C.C.C.C.C.C.C.C.C.C.C.C.C.C.C.C.",
"C.C.C.C.C.C.C.C.C.C.C.C.C.C.C.C.C.C.C.C.4 U s.5X5X7XuXrXoXrXpXF.h.kXnXnXtX'.' V y h N z C.C.C.C.C.C.C.C.C.C.C.C.C.C.C.C.C.C.C.C.",
"C.C.C.C.C.C.C.C.C.C.C.C.C.C.C.C.C.C.C.C.C., S %.&.:.&.g.k.n.n._ D z.K.K.m.d.' T W r.d.m C.C.C.C.C.C.C.C.C.C.C.C.C.C.C.C.C.C.C.C.",
"C.C.C.C.C.C.C.C.C.C.C.C.C.C.C.C.C.C.C.C.C.s z o e >.*.+./ x < % ; - - > i W ].XXXX=X@XP C.C.C.C.C.C.C.C.C.C.C.C.C.C.C.C.C.C.C.C.",
"C.C.C.C.C.C.C.C.C.C.C.C.C.C.C.C.C.C.C.C.C.s Z ( >.,.-.=.O.R R T T T T T t.m.@X0XwXeX<XA - C.C.C.C.C.C.C.C.C.C.C.C.C.C.C.C.C.C.C.",
"C.C.C.C.2 2 C.C.C.C.C.C.C.C.C.C.C.C.C.C.C.3 ^ (.(.,.-.=.O.s.).I.I.M.I.M.<XbXnXnXnXiX[.d - C.C.C.C.C.C.C.C.C.C.C.C.C.C.C.C.C.C.C.",
"C.C.C.2 T R 1 C.C.. . X X + # # & < < & : : 0 ( ;.=.....O.#.Y.@X0X0X0X>XaXnXnXnXnXvX<Xk.' C.C.C.C.C.C.C.C.C.C.C.C.C.C.C.C.C.C.C.",
"C.C.C.u ] ] 4 : # X . X X o o o 6 7 6 6 = * O O e *.| q ~ ] m..X,XzXnXnXaXyXbXnXnXcXbX@XM.d C.C.C.C.C.C.C.C.C.C.C.C.C.C.C.C.C.C.",
"C.C.p c 7.s.S l o [ [ [ [ [ [ w F o.o. .[ [ [ [ O O O & 7 c M l Z qXnXbX[.J.hXnXcXcXbXoXV.d C.C.C.C.C.C.C.C.C.C.C.C.C.C.C.C.C.C.",
"C.C.2 p J P s l [ [ [ [ [ [ [ [ F X.X.[ [ [ [ [ [ ` [ [ [ [ [ [ V z.K.J.t.' wXnXcXcXbX@XV.d C.C.C.C.C.C.C.C.C.C.s N A C.C.C.C.C.",
"C.C.C.> - - $ 4 D [ [ [ [ [ [ [ B B B [ [ [ [ [ [ [ [ [ [ [ [ [ [ 2 y r y V qXnXnXlXjXoXN.n y C.C.C.C.C.C.C.C.- H 7.J , C.C.C.C.",
"C.C.C.C.C.C.C.C.& # # # & 1 x I E 5.6.x % ; # [ [ [ [ [ [ [ [ [ [ p I Q J..XzXnXbX<XK.E Y p 2 & C.C.C.C.C.C.C.t H e.Y H a C.C.C.",
"C.C.C.C.C.C.C.C.C.C.# & : 1 d A u.b.u.W S 3 s [ D & = & % [ [ [ 2 M 6.u.+XnXcXvXaX~.%.B 8 8 7 = 9 C.C.C.C.C.c b 3.e.9.4.g ; C.C.",
"C.C.C.C.C.C.C.C.C.C.C.C.C.C.$ V 0XpX=XeXeXU j.jXS.: : < % $ X X % N 6.t..XnXnXqXL.%.X.X.X.X.w w = ; C.C.C.t v 9.e.e.e.0.c ; C.C.",
"C.C.C.C.C.C.C.C.C.C.C.C.C.C.C.j i.l.i.l.z.A ' T.#.# [ [ : 4 _ } { s I t.Y.<X@XY.r.R e  .| |  .| 7 ; C.C.C.i G 0.c.p.p.4.v ; C.C.",
"C.C.C.C.C.C.C.C.C.C.C.C.C.C.C.C.. . + $ % < > & * [ [ [ & ] 4XuXeXC m W W W ' U y 4 F w w w  . .8 ; C.C.C.r g 0.p.p.q.1.c C.C.C.",
"C.C.C.C.C.C.C.C.C.C.C.C.C.C.C.C.C.C.C.C.% < [ [ [ [ [ [ & @.$X3X/.$.C s h A J.'.L.] k x x w  .! 4 $ C.C.C.C.N K 4.p.9.L c C.C.C.",
"C.C.C.C.C.C.C.C.C.C.C.C.C.C.C.C.C.C.C.C.C.; [ [ [ [ [ [ 9 %.2X3X/.x./ 2 V U ,XnXnXT.S n x F F F & X C.C.C.C.C.i H q.L v p C.C.C.",
"C.C.C.C.C.C.C.C.C.C.C.C.C.C.C.C.C.C.C.C.C.$ [ [ [ [   Z ^.$X5X3X/.&.@.R T.6XvXnXnXlXeXb.E x 8 8 4 C.C.C.C.C.C.> i v p y C.C.C.C.",
"C.C.C.C.C.C.C.C.C.C.C.C.C.C.C.C.C.C.C.u l 2 [ [ [ 5 ^ %. X%X5X5X/.&.%.g.@XnXnXhXOX@X@XT.d.g M E l C.C.C.C.C.C.{ I > C.C.C.C.C.C.",
"C.C.C.C.C.C.C.C.C.C.C.C.C.C.C.C.C.C.; N W s 4 ` 0 * @X%XG.^.5X7X$X$.P.gXcXcXnX:XW Y _ wXOXA y.{.A + X X # $ m =XK.C.C.C.C.C.C.C.",
"C.C.C.C.C.C.C.C.C.C.C.C.C.C.C.C.C.C., { T.V 4 Z ` $.$X5X#X XT.%X2X$.H.cXxXnXvX+X5.4.r.wX+Xm y.&XB.k.k.l.z.B.n.k.t.C.C.C.C.C.C.C.",
"C.C.C.C.C.C.C.C.C.C.C.C.C.C.C.C.C.C.: D.jXU : & #.$X3X3X%X^.x././.( H.nXnXnXxX+X] 7.t.yX.Xd 5.].}.oX&X*X=XeX{.S C.C.C.C.C.C.C.C.",
"C.C.C.C.C.C.C.C.C.C.C.C.C.C.C.C.C.C.$ D.lXY.k.x.!.2X2X/.%.Q.2X$X~.( H.cXnXcXcXjXyXtXiXaX[.4 : y z l l z m A B s C.C.C.C.C.C.C.C.",
"C.C.C.C.C.C.C.C.C.C.C.C.C.C.C.C.C.C.- z.pXOXI.N.{. X%X#X&.Q.5X%X^.$.H.1XhXnXcXnXnXnXlX[.z.4 X + + $ C.C.C.C.C.C.C.C.C.C.C.C.C.C.",
"C.C.C.C.C.C.C.C.C.C.C.C.C.C.C.C.C.3 # f.=X=X'.r.d.s.%X%X!.#X%X#X/.!.x.] [.nXcXnXnXnXyXZ 3 C.C.C.C.C.C.C.C.C.C.C.C.C.C.C.C.C.C.C.",
"C.C.C.C.C.C.C.C.C.C.C.C.C.C.C.C.C.V f.).*X*X&XA.Z.N.s.@.@.a.@.a.a.a.B x T.nXcXcXnXvX0Xs 3 C.C.C.C.C.C.C.C.C.C.C.C.C.C.C.C.C.C.C.",
"C.C.C.C.C.C.C.C.C.C.C.C.C.C.C.C.- U -X-X*X*X*X&X{.Z.l < 1 f k p 8 8 t 1 m.aXzXzXlXwXOXA s R C.C.C.C.C.C.C.C.C.C.C.C.C.C.C.C.C.C.",
"C.C.C.C.C.C.C.C.C.C.C.C.C.C.C.u K 5.Z.].-XrX`.I M S C.C.C.C.C.C.C.C.C.C.V ] @XeX0X=X*X`.d.z C.C.C.C.C.C.C.C.C.C.C.C.C.C.C.C.C.C.",
"C.C.C.C.C.C.C.C.C.C.C.C.C.C.C.g 3.e.v.A.-X-XB.2 C.C.C.C.C.C.C.C.C.C.C.C.C.D U.{.`.{.=X=XU.m C.C.C.C.C.C.C.C.C.C.C.C.C.C.C.C.C.C.",
"C.C.C.C.C.C.C.C.C.C.C.C.C.C.C.g G 3.c.c.v.P z C.C.C.C.C.C.C.C.C.C.C.C.C.C.C.z n p d.pXpXXXS C.C.C.C.C.C.C.C.C.C.C.C.C.C.C.C.C.C.",
"C.C.C.C.C.C.C.C.C.C.C.C.C.C.C.C.G H 3.4.Y a C.C.C.C.C.C.C.C.C.C.C.C.C.C.C.C.C.I s.k.n.V.d.M C.C.C.C.C.C.C.C.C.C.C.C.C.C.C.C.C.C.",
"C.C.C.C.C.C.C.C.C.C.C.C.C.C.C.C.C.i f i i C.C.C.C.C.C.C.C.C.C.C.C.C.C.C.C.C.C.C.C.C.M M M p C.C.C.C.C.C.C.C.C.C.C.C.C.C.C.C.C.C.",
"C.C.C.C.C.C.C.C.C.C.C.C.C.C.C.C.C.C.C.C.C.C.C.C.C.C.C.C.C.C.C.C.C.C.C.C.C.C.C.C.C.C.C.n c C.C.C.C.C.C.C.C.C.C.C.C.C.C.C.C.C.C.C.",
"C.C.C.C.C.C.C.C.C.C.C.C.C.C.C.C.C.C.C.C.C.C.C.C.C.C.C.C.C.C.C.C.C.C.C.C.C.C.C.C.C.C.C.C.C.C.C.C.C.C.C.C.C.C.C.C.C.C.C.C.C.C.C.C.",
"C.C.C.C.C.C.C.C.C.C.C.C.C.C.C.C.C.C.C.C.C.C.C.C.C.C.C.C.C.C.C.C.C.C.C.C.C.C.C.C.C.C.C.C.C.C.C.C.C.C.C.C.C.C.C.C.C.C.C.C.C.C.C.C.",
"C.C.C.C.C.C.C.C.C.C.C.C.C.C.C.C.C.C.C.C.C.C.C.C.C.C.C.C.C.C.C.C.C.C.C.C.C.C.C.C.C.C.C.C.C.C.C.C.C.C.C.C.C.C.C.C.C.C.C.C.C.C.C.C.",
"C.C.C.C.C.C.C.C.C.C.C.C.C.C.C.C.C.C.C.C.C.C.C.C.C.C.C.C.C.C.C.C.C.C.C.C.C.C.C.C.C.C.C.C.C.C.C.C.C.C.C.C.C.C.C.C.C.C.C.C.C.C.C.C."
};
