/* XPM */
static char *left_milka[] = {
/* columns rows colors chars-per-pixel */
"64 64 249 2 ",
"   c #1B041A",
".  c #190819",
"X  c #25051D",
"o  c #3A201D",
"O  c #1B0324",
"+  c #170824",
"@  c #1E032B",
"#  c #191124",
"$  c #270826",
"%  c #23042B",
"&  c #2C042C",
"*  c #2D0A2C",
"=  c #320727",
"-  c #281228",
";  c #250333",
":  c #2B0534",
">  c #250836",
",  c #2D0B34",
"<  c #2D033B",
"1  c #2E0A3A",
"2  c #370837",
"3  c #33033C",
"4  c #320A3B",
"5  c #2C1435",
"6  c #371937",
"7  c #382739",
"8  c #420939",
"9  c #44173B",
"0  c #501B32",
"q  c #592E2D",
"w  c #4D2E31",
"e  c #452939",
"r  c #5A2939",
"t  c #58343C",
"y  c #6E3639",
"u  c #654820",
"i  c #784435",
"p  c #2F0745",
"a  c #320344",
"s  c #340B42",
"d  c #360A47",
"f  c #36034A",
"g  c #3A054C",
"h  c #3A0B4C",
"j  c #371547",
"k  c #3A1443",
"l  c #3B0754",
"z  c #3B0B51",
"x  c #3C1655",
"c  c #3B2345",
"v  c #3A3142",
"b  c #400947",
"n  c #441747",
"m  c #430B54",
"M  c #45065B",
"N  c #421354",
"B  c #481859",
"V  c #541E5E",
"C  c #462747",
"Z  c #522A4C",
"A  c #473549",
"S  c #55374A",
"D  c #4A2656",
"F  c #572A5B",
"G  c #4D3154",
"H  c #563D54",
"J  c #583758",
"K  c #662C4B",
"L  c #663747",
"P  c #6F3552",
"I  c #480C65",
"U  c #4B1565",
"Y  c #531A69",
"T  c #500B74",
"R  c #571976",
"E  c #5B1C7C",
"W  c #601A7B",
"Q  c #552669",
"!  c #582C6F",
"~  c #583369",
"^  c #5B2778",
"/  c #672B66",
"(  c #663868",
")  c #763765",
"_  c #632B79",
"`  c #643879",
"'  c #763874",
"]  c #4C4450",
"[  c #5B4356",
"{  c #754946",
"}  c #644859",
"|  c #714F51",
" . c #675154",
".. c #5D4666",
"X. c #674967",
"o. c #675769",
"O. c #674677",
"+. c #724F77",
"@. c #6C5277",
"#. c #755A79",
"$. c #7B697C",
"%. c #884738",
"&. c #92712F",
"*. c #864748",
"=. c #805346",
"-. c #824859",
";. c #88684F",
":. c #8A5673",
">. c #8C6976",
",. c #B38D37",
"<. c #AD8C49",
"1. c #D8BD50",
"2. c #DDD07A",
"3. c #FBE76A",
"4. c #5D1987",
"5. c #5E1890",
"6. c #602188",
"7. c #692989",
"8. c #6B3487",
"9. c #72348C",
"0. c #6C2996",
"q. c #742C97",
"w. c #763796",
"e. c #7A3B9C",
"r. c #712CA1",
"t. c #7838A1",
"y. c #6D4A82",
"u. c #76498B",
"i. c #785683",
"p. c #7B4B94",
"a. c #7F5C9B",
"s. c #7B608D",
"d. c #81379D",
"f. c #823DA9",
"g. c #825C8B",
"h. c #834C93",
"j. c #865B95",
"k. c #876586",
"l. c #857584",
"z. c #886897",
"x. c #936E99",
"c. c #947698",
"v. c #A9778D",
"b. c #AD7399",
"n. c #A87D99",
"m. c #8744AA",
"M. c #8A4FAD",
"N. c #925BA7",
"B. c #8E68A6",
"V. c #976DAC",
"C. c #9A77A9",
"Z. c #9B6CB4",
"A. c #9B76B3",
"S. c #AC7DAA",
"D. c #A46BBB",
"F. c #A47BB7",
"G. c magenta",
"H. c #AE72C9",
"J. c #99858C",
"K. c #96889B",
"L. c #9F949B",
"P. c #A8869C",
"I. c #AC979D",
"U. c #9A85A5",
"Y. c #9F9EA3",
"T. c #A58BA5",
"R. c #BA88A3",
"E. c #AA97A4",
"W. c #A88BB7",
"Q. c #B38ABA",
"!. c #AD98B5",
"~. c #B598BB",
"^. c #ADA4A9",
"/. c #B5ADB3",
"(. c #B8A4BC",
"). c #C78D9A",
"_. c #D9979A",
"`. c #DAA09C",
"'. c #D789A1",
"]. c #D892A6",
"[. c #C59AB3",
"{. c #D397B0",
"}. c #E39CA5",
"|. c #CAA4A5",
" X c #C9AAB7",
".X c #CFAAB7",
"XX c #E3ABAB",
"oX c #E6A9B6",
"OX c #ECDD9D",
"+X c #AC8EC5",
"@X c #B78BC6",
"#X c #B898C7",
"$X c #B78CD3",
"%X c #BBA6C7",
"&X c #BEB2C2",
"*X c #C29ACA",
"=X c #C49AD5",
"-X c #C5A9C8",
";X c #D2A5CB",
":X c #C8B7C7",
">X c #DCB6C7",
",X c #C6A7D7",
"<X c #CCB8D5",
"1X c #D3B7DC",
"2X c #EAB6C8",
"3X c #E6BAD9",
"4X c #F5BDD5",
"5X c #CD93EA",
"6X c #D6ACEC",
"7X c #DBB9EA",
"8X c #D6ADF7",
"9X c #E3B9F8",
"0X c #F0BDFF",
"qX c #CFC4D1",
"wX c #D6CBD7",
"eX c #D4C5DC",
"rX c #D9D5DA",
"tX c #E2C5CB",
"yX c #F7C5CD",
"uX c #EBC7D7",
"iX c #F9CBD7",
"pX c #E4DBDA",
"aX c #FAD6DB",
"sX c #E6E2DC",
"dX c #DCC7E6",
"fX c #DDD3E2",
"gX c #E4C9E9",
"hX c #F4C9EA",
"jX c #E4DBE3",
"kX c #E5D3EC",
"lX c #E6D8E8",
"zX c #EADDED",
"xX c #FAD7E7",
"cX c #E8CAF1",
"vX c #ECD5F3",
"bX c #F2D9F6",
"nX c #EBE7E7",
"mX c #ECE4EB",
"MX c #F1EAEB",
"NX c #F2F3EF",
"BX c #ECE9F1",
"VX c #F6E8F7",
"CX c #F4ECF4",
"ZX c #FAECFC",
"AX c #F5F3F4",
"SX c #F9F5F5",
"DX c #FCFDF5",
"FX c #FDF4FD",
"GX c #FDFDFB",
/* pixels */
"G.G.G.G.G.G.G.G.G.G.G.G.G.G.G.G.G.G.G.G.G.G.G.G.G.G.G.G.G.G.G.G.G.G.G.G.G.G.G.G.G.G.G.G.G.G.G.G.G.G.G.G.G.G.G.G.G.G.G.G.G.G.G.G.",
"G.G.G.G.G.G.G.G.G.G.G.G.G.G.G.G.G.G.G.G.G.G.G.G.G.G.G.G.G.G.G.G.G.G.G.G.G.G.G.G.G.G.G.G.G.G.G.G.G.G.G.G.G.G.G.G.G.G.G.G.G.G.G.G.",
"G.G.G.G.G.G.G.G.G.G.G.G.G.G.G.G.G.G.G.G.G.G.G.G.G.G.G.G.G.G.G.G.G.G.G.G.G.G.G.G.G.G.G.G.G.G.G.G.G.G.G.G.G.G.G.G.G.G.G.G.G.G.G.G.",
"G.G.G.G.G.G.G.G.G.G.G.G.G.G.G.G.G.G.G.G.G.G.G.> : 1 G.G.G.G.G.G.G.G.G.G.G.G.G.G.G.G.G.G.G.G.G.G.G.G.G.G.G.G.G.G.G.G.G.G.G.G.G.G.",
"G.G.G.G.G.G.G.G.G.G.G.G.G.G.G.G.G.G.G.G.G.G.G.l U ! j O   G.G.G.G.G.G.G.G.G.G.G.G.G.G.G.G.G.G.G.G.G.G.G.G.G.G.G.G.G.G.G.G.G.G.G.",
"G.G.G.G.G.G.G.G.G.G.G.G.G.G.G.G.G.G.G.G.G.G.G.l _ z.~ C 7 C v A A ] G.G.G.G.G.G.G.G.G.G.G.G.G.Q U B V G.G.G.G.G.G.G.G.G.G.G.G.G.",
"G.G.G.G.G.G.G.G.G.G.G.G.G.G.G.G.G.G.G.G.G.G.G.; O.kXjXrXsXpXjXjXmXs.. .   G.G.G.G.G.G.G.G.4 d _ e.e.7.m G.G.G.G.G.G.G.G.G.G.G.G.",
"G.G.G.G.G.G.G.G.G.G.G.G.G.< N B s G.G.G.G.G.c @.K.CXGXGXDXGXGXGXGX/.o.o.o.A 6 , 1 1 4 2 4 x Q 0.f.q.7.M G.G.G.G.G.G.G.G.G.G.G.G.",
"G.G.G.G.G.G.G.G.G.G.G.G.G.a R 7.h @ @ @ ; ; c rXAXGXGXGXGXGXGXGXDXSXNXNXwXe + % > ; < < < U m.M.f.0.T I G.G.G.G.G.G.G.G.G.G.G.G.",
"G.G.G.G.G.G.G.G.G.G.G.G.G.f E 0.R ! x.i.U 8.s.jXGXDXGXGXGXGXGXDXDXGXDXDXNX!.K.L.U.U.O.Q ^ 6.0.0.r.0.4.l G.G.G.G.G.G.G.G.G.G.G.G.",
"G.G.G.G.G.G.G.G.G.G.G.G.G.p E q.7.N.cX#X! H.%XVXDXDXDXDXGXDXDXDXDXGXDXDXFXGXGXGXGXVXC.8.q.0.5.5.5.6.Y l G.G.G.G.G.G.G.G.G.G.G.G.",
"G.G.G.G.G.G.G.G.G.G.G.G.G.p R 0.E ^ ` z.!.A.W.BXGXFXmXfXfXjXAXGXDXGXGXGXGXGXBXwXeX7Xp.E 7.5.5.5.4.I l G.G.G.G.G.G.G.G.G.G.G.G.G.",
"G.G.G.G.G.G.G.G.G.G.G.G.G.G.I E 9.6.z C.VX%XW.eXfXeX!.c.U./.CXGXGXGXGXGXDXGXrX!.A.B.t.0.R 4.4.T U g G.G.G.G.G.G.G.G.G.G.G.G.G.G.",
"G.G.G.G.G.G.G.G.G.G.G.G.G.G.d m H.H.x U.ZXAXfXs.` ! B.%XlXBXGXGXGXDXDXDXGXGXSXVXW.p.H.H.T T T l G.G.G.G.G.G.G.G.G.G.G.G.G.G.G.G.",
"G.G.G.G.G.G.G.G.G.G.G.G.G.G.G.k p.Z.y.%XFXFXBX!.A.A.%XvXFXGXGXGXGXGXDXGXGXGXGXFX%XB.B.p.I I I f G.G.G.G.G.G.G.G.G.G.G.G.G.G.G.G.",
"G.G.G.G.G.G.G.G.G.G.G.G.G.G.G.G.> ` !.wXFXDXDXFXVX<XzXGXDXDXGXGXGXGXDXGXGXGXDXSXdX#X! l f l f G.G.G.G.G.G.G.G.G.G.G.G.G.G.G.G.G.",
"G.G.G.G.G.G.G.G.G.G.G.G.G.G.G.G.; O.dXBXGXGXDXDXAXnXAXGXDXDXGXGXGXGXDXDXDXDXDXDXVXvX*Xz.h a G.G.G.G.G.G.G.G.G.G.G.G.G.G.G.G.G.G.",
"G.G.G.G.G.G.G.G.G.G.G.G.G.G.G.G.@ @.CXGXGXGXDXNXDXGXGXDXDXDXGXGXGXGXGXGXDXDXDXDXGXFXbX@Xp > G.G.G.G.G.G.G.G.G.G.G.G.G.G.G.G.G.G.",
"G.G.G.G.G.G.G.G.G.G.G.G.G.G.G.G.@ X.VXBXfXrXrXNXDXGXGXGXGXGXGXAXrXwXrXNXDXDXDXDXSXFXbXW.p @ G.G.G.G.G.G.G.G.G.G.G.G.G.G.G.G.G.G.",
"G.G.G.G.G.G.G.G.G.G.G.G.G.G.G.G.@ @.VX/.v v ] rXGXGXGXGXGXGXGX:Xv c A qXGXDXDXDXGXGXkXF.1 + G.G.G.G.G.G.G.G.G.G.G.G.G.G.G.G.G.G.",
"G.G.G.G.G.G.G.G.G.G.G.G.G.G.G.G.; @.CXY.# + 7 rXGXGXGXGXGXGXGX&X7 @ c qXGXSXGXGXSXFXvXF.1 G.G.G.G.G.G.G.G.G.G.G.G.G.G.G.G.G.G.G.",
"G.G.G.G.G.G.G.G.G.G.G.G.G.G.G.G.> i.ZXrXK.K.Y.nXGXGXGXGXGXGXGX:Xs > c &XMXGXGXGXGXGXvXF.s G.G.G.G.G.G.G.G.G.G.G.G.G.G.G.G.G.G.G.",
"G.G.G.G.G.G.G.G.G.G.G.G.G.G.G.G., i.ZXGXGXGXAXGXGXGXGXDXDXDXGX/.5 @ c -XpXSXGXGXGXZXhX@Xj G.G.G.G.G.G.G.G.G.G.G.G.G.G.G.G.G.G.G.",
"G.G.G.G.G.G.G.G.G.G.G.G.G.G.G.G.> i.ZXGXAX/.Y.^.^.^.^.^.rXGXDXsX^.E.I.tXpXDXDXGXmX1XB.' ( G.G.G.G.G.G.G.G.G.G.G.G.G.G.G.G.G.G.G.",
"G.G.G.G.G.G.G.G.G.G.G.G.G.G.G.G.G.#.ZXmXrXP.>.>.J.J.J.J.:XnXAXDXDXNXpXpXsXSXDXDXkX#XQ h G.G.G.G.G.G.G.G.G.G.G.G.G.G.G.G.G.G.G.G.",
"G.G.G.G.G.G.G.G.G.G.G.G.G.G.G.G.G.@.ZX X>.>XuXpXxXaXaXmXT.L.CXGXDXDXDXSXDXDXSXFXcX,XQ p G.G.G.G.G.G.G.G.G.G.G.G.G.G.G.G.G.G.G.G.",
"G.G.G.G.G.G.G.G.G.G.G.G.G.G.G.G.G.X.T.P.n.3XiXaXaXaXxXxX:X XqXrXSXDXGXGXDXSXMXgX#XV.~ j G.G.G.G.G.G.G.G.G.G.G.G.G.G.G.G.G.G.G.G.",
"G.G.G.G.G.G.G.G.G.G.G.G.G.G.G.G.G.G.X #.3XhXaXiXaXiXxXxXxXuXl.L.AXGXGXFXSXFX<XZ.8.h +.G.G.G.G.G.G.G.G.G.G.G.G.G.G.G.G.G.G.G.G.G.",
"G.G.G.G.G.G.G.G.G.G.G.G.G.G.G.G.G.G.7 } c.uXMXaXaXxX4X;XhXcXc.T.bXbXvX7X%Xs.y.~ N a n 9 G.G.G.G.G.G.G.G.G.G.G.G.G.G.G.G.G.G.G.G.",
"G.G.G.G.G.G.G.G.G.G.G.G.G.G.G.G.G.G.G.S 6 R. X|.|..Xb.k.*X=Xi.i.#X%X=XA.z.B x x N B s 1 G.G.G.G.G.G.G.G.G.G.G.G.G.G.G.G.G.G.G.G.",
"G.G.G.G.G.G.G.G.G.G.G.G.G.G.G.G.G.G.G.G.X.e o | ;.;.{ } n x s s B N x ! u.$X#X%X=X$X! < G.G.G.G.G.G.G.G.G.G.G.G.G.G.G.G.G.G.G.G.",
"G.G.G.G.G.G.G.G.G.G.G.G.G.G.G.G.G.G.G.G.o.e u 2.3.1.<.;.Z h h z l x x ! s.8XdXcXcX6X^ 3 & G.G.G.G.G.G.G.G.G.G.G.G.G.G.G.G.G.G.G.",
"G.G., 6 G.G.G.G.G.G.G.G.G.G.G.G.G.G.G.G.7 /.OXOX3.1.<.=.z.B.+XH.D.Z.A.eXmXZXFXZXvX,X! < & G.G.G.G.G.G.G.G.G.G.G.G.G.G.G.G.G.G.G.",
"G.2 k k 5 G.G.G.G.G.G.G.G.G.G.G.$ , 6 4 - J.OX1.1.,.&.{ C.+X,X,X#X+X#XmXGXGXDXGXzX1Xz.Q > G.G.G.G.G.G.G.G.G.G.G.G.G.G.G.G.G.G.G.",
"G., F F   6 G.7 % & = = = X X = = = = < @ 7 { ,.&.u u | c.#XbXZXFXZXCXAXFXDXDXGXFXZX7XF.4 % G.G.G.G.G.G.G.G.G.G.G.G.G.G.G.G.G.G.",
"G.: P ( C 6 9 Z H C S S t r r q q q y L H ] t q u o 0 Z ` O.#.L.FXGXZX#X!.NXDXGXGXFXcXQ.d > G.G.G.G.G.G.G.G.G.j s G.G.G.G.G.G.G.",
"G.& F ( Z n 6 H H H | | | -.-.-.*.=.=.:.>.[ 7 . X X X = 3 3 & X.fXmXdXi.i.mXDXDXGXFXgXF.d : G.G.G.G.G.G.G.G.G.p h Q i.G.G.G.G.G.",
"G.$ 4 : & C X.X.H  . . .( ) ' ' ) P i { } w H H t S H J H H H C A c D > A nXDXDXGXZXcXF.h 3 G.G.G.G.G.G.G.G.G.p _ ^ h 1 G.G.G.G.",
"G.G.G.& - 6 Z Z C e v c D ` 7.0.^ Z e e w H H H H H H H H H H e 2 h D ..s.nXDXSXjX1X*Xh.h 3 : G.G.G.G.G.G.G.G.4 ` 7.l a 1 G.G.G.",
"G.G.G.G.G.G.* * : % $ > x ^ 6.^ ^ B $ X X = H H H H H H H H H H b _ z.rXDXDXDXDX XC.' B 3 3 3 2 G.G.G.G.G.G.% 4 ` 8.^ I f G.G.G.",
"G.G.G.G.G.G.G.G.G.G.G.G.N N V.-X%Xz.% o.!.X.= 2 * * = X & H [ k F _ g.zXGXGXsX/.J.>.-.K r b 8 3 : G.G.G.G.< z Q 8.w.9.R f G.G.G.",
"G.G.G.G.G.G.G.G.G.G.G.G.G.5 !.bXVX!.> l.VXg.n = & H $ X X X $ n F ^ a.fXZXGXeXc.$.i *.*.*.K 8 2 & G.G.G.G.p ! w.w.e.e.R f G.G.G.",
"G.G.G.G.G.G.G.G.G.G.G.G.G.G.A S G C O C #.D , H H H H   #.P.P.:.2 U p.F.+XW.z.G L %.%.%.%.%.P 0 & G.G.G.G.a 6.e.t.t.t.R f G.G.G.",
"G.G.G.G.G.G.G.G.G.G.G.G.G.G.G.G.  $ 5 - O   H H H H H X I.aXoXv.9 V 8.9.u.a.O.j C K y y %.%.*.0 & G.G.G.G.p ^ r.t.m.f.^ f G.G.G.",
"G.G.G.G.G.G.G.G.G.G.G.G.G.G.G.G.G.[ >.[ . H H H H H H   I.iXoX].S.' b h D <XdX~.+.2 2 0 *.*.*.n & G.G.G.G.< I E f.m.7.Y f G.G.G.",
"G.G.G.G.G.G.G.G.G.G.G.G.G.G.G.G.G.G.@.[ H H H H H [ } } .XyXXX}.}.:.B O.$.rXFXkXQ.k.i.( P P P 0 = G.G.G.G.n N U d.q.R I N G.G.G.",
"G.G.G.G.G.G.G.G.G.G.G.G.G.G.G.G.G.G.% 6 H H H H H X P.xXxXyX`._.].:.y.7XAXFXFXFXFXFX7Xc.8 2 8 8 G.G.G.G.G.s.D g Y Y M m G.G.G.G.",
"G.G.G.G.G.G.G.G.G.G.G.G.G.G.G.G.G.s C n , H H H S l.R.[.uXaX`._.'.R.[.vXGXFXwXU.T.!.fX#X4 F N.F G.G.G.G.- G i.k.V M f s G.G.G.G.",
"G.G.G.G.G.G.G.G.G.G.G.G.G.G.G.G.> j ~ D < G H - } yX[.:.>XaXXX`.).tXFXFXDXGX(.x ^ O.dXdXj ` 9X` , , - @ % , T.gXD : < G.G.G.G.G.",
"G.G.G.G.G.G.G.G.G.G.G.G.G.G.G.G.> ~ %Xz.1 k D v.|.yX2XoXiXaXXX|.>. XFXDXDXGX%XQ 9.p.fXwXj y.9X=X@XQ.Q.~.~.#XC.O.G.G.G.G.G.G.G.G.",
"G.G.G.G.G.G.G.G.G.G.G.G.G.G.G.G.> X.CX!.D k K oXiXyXoX.X2XyXoX).:. XFXGXGXGX<Xy.p.z.fXqX5 ~ W.+X@X@X=X=X=X-Xi.% G.G.G.G.G.G.G.G.",
"G.G.G.G.G.G.G.G.G.G.G.G.G.G.G.G.% X.ZXkX%XQ.n.2XyX4Xb.| {.yXXX'.>.:XGXGXGXGXFXCXZXAXFX<X- + - > 4 4 k s s j C G.G.G.G.G.G.G.G.G.",
"G.G.G.G.G.G.G.G.G.G.G.G.G.G.G.G.@ O.vXvX7X*Xn.{.2X4X).:.'.oX}.'.J.[.<XAXGXGXGXGXDXSX-XK.A 7 G.G.G.G.G.G.G.G.G.G.G.G.G.G.G.G.G.G.",
"G.G.G.G.G.G.G.G.G.G.G.G.G.G.G.G.@ ~ 7X9X9XQ.g.j.S.4XoX'.'.'.'.].{.b.+.rXGXGXGXGXGXzXX.5 o.#.G.G.G.G.G.G.G.G.G.G.G.G.G.G.G.G.G.G.",
"G.G.G.G.G.G.G.G.G.G.G.G.G.G.G.G.+ ~ 8X8X9X7X@X_ _ ' ' ) P / ) ) ' / ~ eXGXGXGXFXvX1X~ 1 #.G.G.G.G.G.G.G.G.G.G.G.G.G.G.G.G.G.G.G.",
"G.G.G.G.G.G.G.G.G.G.G.G.G.G.G.G.p ` 6X8X9X7X@XB b 2 2 g 8 8 8 8 b b Z -XzXCXFXVXgX,X` n @.G.G.G.G.G.G.G.G.G.G.G.G.G.G.G.G.G.G.G.",
"G.G.G.G.G.G.G.G.G.G.G.G.G.G.G.m _ D.8X8X5X' n G.G.G.G.G.G.G.G.G.G.G.G.J ..qXvXkX9X6X=XN.j 5 G.G.G.G.G.G.G.G.G.G.G.G.G.G.G.G.G.G.",
"G.G.G.G.G.G.G.G.G.G.G.G.G.G.G.M d.D.5X$XH.D G.G.G.G.G.G.G.G.G.G.G.G.G.G.6 W.%X#X,X7X9X@X4 @ G.G.G.G.G.G.G.G.G.G.G.G.G.G.G.G.G.G.",
"G.G.G.G.G.G.G.G.G.G.G.G.G.G.G.M q.d.w.Q 5 G.G.G.G.G.G.G.G.G.G.G.G.G.G.G.G.5 j j C.0X0X*Xh ; G.G.G.G.G.G.G.G.G.G.G.G.G.G.G.G.G.G.",
"G.G.G.G.G.G.G.G.G.G.G.G.G.G.G.m W W Y N G.G.G.G.G.G.G.G.G.G.G.G.G.G.G.G.G.G.G z.Z.D.H.N.z > G.G.G.G.G.G.G.G.G.G.G.G.G.G.G.G.G.G.",
"G.G.G.G.G.G.G.G.G.G.G.G.G.G.G.G.h g g G.G.G.G.G.G.G.G.G.G.G.G.G.G.G.G.G.G.G.Q.6XN.R 7.E g ; G.G.G.G.G.G.G.G.G.G.G.G.G.G.G.G.G.G.",
"G.G.G.G.G.G.G.G.G.G.G.G.G.G.G.G.G.G.G.G.G.G.G.G.G.G.G.G.G.G.G.G.G.G.G.G.G.G.G.u.Q U Y M a > G.G.G.G.G.G.G.G.G.G.G.G.G.G.G.G.G.G.",
"G.G.G.G.G.G.G.G.G.G.G.G.G.G.G.G.G.G.G.G.G.G.G.G.G.G.G.G.G.G.G.G.G.G.G.G.G.G.G.G.G.p a 3 : G.G.G.G.G.G.G.G.G.G.G.G.G.G.G.G.G.G.G.",
"G.G.G.G.G.G.G.G.G.G.G.G.G.G.G.G.G.G.G.G.G.G.G.G.G.G.G.G.G.G.G.G.G.G.G.G.G.G.G.G.G.G.G.G.G.G.G.G.G.G.G.G.G.G.G.G.G.G.G.G.G.G.G.G."
};
