/* XPM */
static char *right3_milka[] = {
/* columns rows colors chars-per-pixel */
"64 64 238 2 ",
"   c #0B0619",
".  c #1B0616",
"X  c #1D031C",
"o  c #280A1B",
"O  c #321114",
"+  c #3F211B",
"@  c #1C0525",
"#  c #1E0E29",
"$  c #220324",
"%  c #230C23",
"&  c #2B0C22",
"*  c #24032B",
"=  c #2A042B",
"-  c #27092A",
";  c #2C0B2D",
":  c #340A27",
">  c #2D132B",
",  c #28162A",
"<  c #3A1529",
"1  c #270736",
"2  c #2A0534",
"3  c #2C0B33",
"4  c #2B043B",
"5  c #340C34",
"6  c #33043C",
"7  c #380B3B",
"8  c #2B1531",
"9  c #371639",
"0  c #372435",
"q  c #43161B",
"w  c #4B142B",
"e  c #491929",
"r  c #481E37",
"t  c #442839",
"y  c #582738",
"u  c #51363E",
"i  c #683233",
"p  c #6A3739",
"a  c #6F502C",
"s  c #7C4336",
"d  c #2D0443",
"f  c #330442",
"g  c #340B42",
"h  c #34054E",
"j  c #390848",
"k  c #3B0B4C",
"l  c #3B1648",
"z  c #3C0552",
"x  c #3B0857",
"c  c #3E1456",
"v  c #3D2447",
"b  c #3D0E62",
"n  c #441A47",
"m  c #511E4E",
"M  c #410758",
"N  c #420C5B",
"B  c #441C53",
"V  c #47175A",
"C  c #611F53",
"Z  c #482745",
"A  c #55234A",
"S  c #473848",
"D  c #573748",
"F  c #4A2756",
"G  c #532958",
"H  c #4D3259",
"J  c #563856",
"K  c #5C3C5C",
"L  c #68314D",
"P  c #653A5C",
"I  c #763C56",
"U  c #460D63",
"Y  c #480768",
"T  c #4B1A64",
"R  c #4C1268",
"E  c #53186A",
"W  c #500F72",
"Q  c #531173",
"!  c #581877",
"~  c #4C2464",
"^  c #552867",
"/  c #5A3A67",
"(  c #592578",
")  c #5D3674",
"_  c #633861",
"`  c #62277A",
"'  c #653A79",
"]  c #5C464E",
"[  c #664749",
"{  c #794646",
"}  c #664A5A",
"|  c #764654",
" . c #645652",
".. c #69555A",
"X. c #7A5555",
"o. c #5C4666",
"O. c #68486B",
"+. c #68566A",
"@. c #72506F",
"#. c #664473",
"$. c #6C4B78",
"%. c #764D77",
"&. c #7D6368",
"*. c #7D6878",
"=. c #834B37",
"-. c #865C35",
";. c #96702C",
":. c #884D4B",
">. c #885256",
",. c #835B7F",
"<. c #86617A",
"1. c #8E6F79",
"2. c #A3707D",
"3. c #C19828",
"4. c #EBC52D",
"5. c #FEE537",
"6. c #E6BB42",
"7. c #ECD868",
"8. c #5D1A83",
"9. c #621D88",
"0. c #6A1899",
"q. c #5D2F93",
"w. c #672886",
"e. c #6C3487",
"r. c #743B8A",
"t. c #6F2B92",
"y. c #6E2499",
"u. c #72289B",
"i. c #753597",
"p. c #7827A7",
"a. c #7B36A3",
"s. c #744983",
"d. c #724F8E",
"f. c #795687",
"g. c #7C4694",
"h. c #7C638B",
"j. c #7E7483",
"k. c #802EAB",
"l. c #8B5C8B",
"z. c #834C97",
"x. c #845894",
"c. c #86678A",
"v. c #887689",
"b. c #957481",
"n. c #856297",
"m. c #906E95",
"M. c #96759B",
"N. c #B07482",
"B. c #8C52AB",
"V. c #8C64A2",
"C. c #9569A9",
"Z. c #9476A5",
"A. c #9A7AA8",
"S. c #9E7CB5",
"D. c #A677AE",
"F. c #A477B6",
"G. c magenta",
"H. c #AE76C7",
"J. c #948A95",
"K. c #958799",
"L. c #B38993",
"P. c #A4939D",
"I. c #B9AB84",
"U. c #9D87A5",
"Y. c #9D97A4",
"T. c #A28AAA",
"R. c #A79BA9",
"E. c #B697A6",
"W. c #A888B6",
"Q. c #B68AB2",
"!. c #AE96B7",
"~. c #B698BB",
"^. c #B5A9AF",
"/. c #B7A8B9",
"(. c #BAB2BA",
"). c #DB9BA5",
"_. c #C196B1",
"`. c #C8AAB9",
"'. c #D5A4B4",
"]. c #C4B2BC",
"[. c #ECAEB5",
"{. c #E6B2BE",
"}. c #B58CCB",
"|. c #B798C5",
" X c #BBA7C4",
".X c #C595CA",
"XX c #D1AFC8",
"oX c #C7B9C8",
"OX c #C7A7D6",
"+X c #D5ABDE",
"@X c #CCB6D5",
"#X c #D5B9DB",
"$X c #E6B6C4",
"%X c #F6BEC2",
"&X c #E4B7D4",
"*X c #CCA6E2",
"=X c #D7A9E5",
"-X c #D7B8E5",
";X c #E3BEEC",
":X c #CAC3CA",
">X c #D5C9CD",
",X c #D8CBD8",
"<X c #D8D2D8",
"1X c #EFC3C9",
"2X c #FAC5C9",
"3X c #FBCACD",
"4X c #E7C9D8",
"5X c #F8C9D5",
"6X c #E8D9DC",
"7X c #F6D4D9",
"8X c #FBD3DB",
"9X c #DDC5E7",
"0X c #DDCCE3",
"qX c #DFD4E2",
"wX c #E2CAE8",
"eX c #E3D6E5",
"rX c #E4DCE6",
"tX c #E4D3EB",
"yX c #EADDE9",
"uX c #F9D7E3",
"iX c #E6CDF1",
"pX c #EDD9F3",
"aX c #F1DAF4",
"sX c #E7E2E7",
"dX c #ECE3EC",
"fX c #ECEAEC",
"gX c #F6EBED",
"hX c #F9F5EF",
"jX c #EEE3F2",
"kX c #F3E4F5",
"lX c #F3ECF3",
"zX c #F9EEFA",
"xX c #F5F1F5",
"cX c #FAF3F4",
"vX c #F7FAF7",
"bX c #FDFEF6",
"nX c #FAF5FA",
"mX c #FDFDFB",
/* pixels */
"G.G.G.G.G.G.G.G.G.G.G.G.G.G.G.G.G.G.G.G.G.G.G.G.G.G.G.G.G.G.G.G.G.G.G.G.G.G.G.G.G.G.G.G.G.G.G.G.G.G.G.G.G.G.G.G.G.G.G.G.G.G.G.G.",
"G.G.G.G.G.G.G.G.G.G.G.G.G.G.G.G.G.G.G.G.G.G.G.G.G.G.G.G.G.G.G.G.G.G.G.G.G.G.G.G.G.G.G.G.G.G.G.G.G.G.G.G.G.G.G.G.G.G.G.G.G.G.G.G.",
"G.G.G.G.G.G.G.G.G.G.G.G.G.G.G.G.G.G.G.G.G.G.G.G.G.G.G.G.G.G.G.G.G.G.G.G.G.G.G.G.G.G.G.G.G.G.G.G.G.G.G.G.G.G.G.G.G.G.G.G.G.G.G.G.",
"G.G.G.G.G.G.G.G.G.G.G.G.G.G.G.G.G.G.G.G.G.G.G.G.G.G.G.G.G.G.G.G.G.G.G.G.G.G.G.G.G.G.G.G.G.G.G.G.G.G.G.G.G.G.G.G.G.G.G.G.G.G.G.G.",
"G.G.G.G.G.G.G.G.G.G.G.G.G.G.G.G.G.G.G.G.G.G.G.G.G.G.3 3 1 9 g g G.G.G.G.G.G.G.G.G.G.G.G.G.G.G.G.G.G.G.G.G.G.G.G.G.G.G.G.G.G.G.G.",
"G.G.G.G.G.G.G.G.G.G.G.G.G.G.G.G.G.G.G.G.G.G.G.G.8 9 9 8 8 , g g g 7 g G.G.G.G.G.h j j G.G.G.G.G.G.G.G.G.G.G.G.G.G.G.G.G.G.G.G.G.",
"G.G.G.G.G.G.G.G.G.G.G.G.G.G.G.G.G.G.G.G.G.G.@ $ v.:X:X:XoX X<X,Xf.~ j 7 G.G.G.N w.t.w.M G.G.G.G.G.G.G.G.G.G.G.G.G.G.G.G.G.G.G.G.",
"G.G.G.G.G.G.G.G.V ` ` ` N 4 G.G.G.G.G.G.* +.j.j.>XmXmXmXmXmXmXvX XT.Z.F 1 1 g R p.k.u.W G.G.G.G.G.G.G.G.G.G.G.G.G.G.G.G.G.G.G.G.",
"G.G.G.G.G.G.G.G.U z.B.i.W z j g l H H H H R.mXvXvXbXbXbXbXbXbXmXmXmXjX#.l B ^ ` i.y.0.Y G.G.G.G.G.G.G.G.G.G.G.G.G.G.G.G.G.G.G.G.",
"G.G.G.G.G.G.G.G.Y a.p.9.t.w.e.w.C.eXsXsXrXlXmXbXbXbXbXmXbXmXmXmXmXmXkXh.g.+X9X|.! u.0.Y G.G.G.G.G.G.G.G.G.G.G.G.G.G.G.G.G.G.G.G.",
"G.G.G.G.G.G.G.G.U g.i.8.8.q.e.e.S.nXmXmXmXmXbXbXbXbXmX6XoXcXmXmXmXmXaXB.i.D.Z.h.w.a.y.Y G.G.G.G.G.G.G.G.G.G.G.G.G.G.G.G.G.G.G.G.",
"G.G.G.G.G.G.G.G.N e.w.8.W ! t.w.V.#XyXxXmXmXmXmXbXbXmX<XR.#X9X9XcXmXkXz.w.z.V b i.u.8.x G.G.G.G.G.G.G.G.G.G.G.G.G.G.G.G.G.G.G.G.",
"G.G.G.G.G.G.G.G.G.g x Q Q Q Q W Q ^ !.dXmXmXmXmXmXmXbXbXtXx.#.d.tXnXaXf.m.aXd.b t.! G.G.G.G.G.G.G.G.G.G.G.G.G.G.G.G.G.G.G.G.G.G.",
"G.G.G.G.G.G.G.G.G.G.z M Q ! 8.B.H.W.9XnXmXmXmXmXbXmXbXbXkX!.W.W.A.Z.A.OXwXnXh.h c G.G.G.G.G.G.G.G.G.G.G.G.G.G.G.G.G.G.G.G.G.G.G.",
"G.G.G.G.G.G.G.G.G.G.G.z R W W B.}.@XkXmXmXmXmXmXmXmXmXmXnXtXtX0XZ.n.W.yXmXmXU./ g G.G.G.G.G.G.G.G.G.G.G.G.G.G.G.G.G.G.G.G.G.G.G.",
"G.G.G.G.G.G.G.G.G.G.G.G.j z x N $.@XdXbXbXmXmXmXmXmXmXvXmXmXmXlX XXXnXmXmXmX<XU.3 G.G.G.G.G.G.G.G.G.G.G.G.G.G.G.G.G.G.G.G.G.G.G.",
"G.G.G.G.G.G.G.G.G.G.G.G.G.d h d. XkXxXbXbXmXmXmXmXbXmXmXmXbXbXmXsXfXvXmXvXvXvX/., G.G.G.G.G.G.G.G.G.G.G.G.G.G.G.G.G.G.G.G.G.G.G.",
"G.G.G.G.G.G.G.G.G.G.G.G.G.G.d S.iXmXmXbXbXmXmXbXmXmXmXmXbXbXbXbXmXvXvXmX<XJ.<X(.% G.G.G.G.G.G.G.G.G.G.G.G.G.G.G.G.G.G.G.G.G.G.G.",
"G.G.G.G.G.G.G.G.G.G.G.G.G.G.d S.qXmXmXbXbXbXmXmXmXmXmXmXbXmXmXbXmXmXvXmXY.  Y. X# G.G.G.G.G.G.G.G.G.G.G.G.G.G.G.G.G.G.G.G.G.G.G.",
"G.G.G.G.G.G.G.G.G.G.G.G.G.G.1 U.0XmXbXbXmXbXmXbXmXmXmXvXbXmXmXmXmXmXmXvXY.  Y./.# G.G.G.G.G.G.G.G.G.G.G.G.G.G.G.G.G.G.G.G.G.G.G.",
"G.G.G.G.G.G.G.G.G.G.G.G.G.G.1 Z.0XmXmXbXbXmXmXbX(.J.J.:XmXbXbXmXmXmXmXmXY.  Y.(.o G.G.G.G.G.G.G.G.G.G.G.G.G.G.G.G.G.G.G.G.G.G.G.",
"G.G.G.G.G.G.G.G.G.G.G.G.G.G.1 Z.wXmXmXbXbXmXnXgX+.@ * m.mXmXmXmXmXvXmXmX/.S (.(.% G.G.G.G.G.G.G.G.G.G.G.G.G.G.G.G.G.G.G.G.G.G.G.",
"G.G.G.G.G.G.G.G.G.G.G.G.G.G.* Z.wXnXmXmXbXbXcX6X+.* 1 m.nXmXbXmXmXmXmXmXvXdXmX(., G.G.G.G.G.G.G.G.G.G.G.G.G.G.G.G.G.G.G.G.G.G.G.",
"G.G.G.G.G.G.G.G.G.G.G.G.G.G.G.#.U.eXxXbXbXbXhX4XE.M.K.@XmXmXsX].].].oX].,XmXmX(., G.G.G.G.G.G.G.G.G.G.G.G.G.G.G.G.G.G.G.G.G.G.G.",
"G.G.G.G.G.G.G.G.G.G.G.G.G.G.G.@ / @XjXmXbXmXhX4X6XhXbXmXcXdX`.b.b.b.2.1._.hXhX/.> G.G.G.G.G.G.G.G.G.G.G.G.G.G.G.G.G.G.G.G.G.G.G.",
"G.G.G.G.G.G.G.G.G.G.G.G.G.G.G.G./ OXpXnXmXmXvXhXhXhXbXbXrXP.E.$X{.{.$X$X5XuX^.M.9 G.G.G.G.G.G.G.G.G.G.G.G.G.G.G.G.G.G.G.G.G.G.G.",
"G.G.G.G.G.G.G.G.G.G.G.G.G.G.G.G.F ) W.tXmXmXmXmXbXnXnX>XP.XX&X5X3X5X5X5X8XuX<.G G.G.G.G.G.G.G.G.G.G.G.G.G.G.G.G.G.G.G.G.G.G.G.G.",
"G.G.G.G.G.G.G.G.G.G.G.G.G.G.G.G.G.g s.W.|.9XsXvXmXmXmX(.c.uX5X'.%X5X3X3X$XE.K = G.G.G.G.G.G.G.G.G.G.G.G.G.G.G.G.G.G.G.G.G.G.G.G.",
"G.G.G.G.G.G.G.G.G.G.G.G.G.G.G.G.G.G.g c ^ C. XjXlXlXlX/.n.;X'.l.&X5X3X3XL.7 7 G.G.G.G.G.G.G.G.G.G.G.G.G.G.G.G.G.G.G.G.G.G.G.G.G.",
"G.G.G.G.G.G.G.G.G.G.G.G.G.G.G.G.G.G.d h x T ) #.O.O.#.^ T z.z.r.l.l.<...r j j G.G.G.G.G.G.G.G.G.G.G.G.G.G.G.G.G.@ 1 G.G.G.G.G.G.",
"G.G.G.G.G.G.G.G.G.G.G.G.G.G.G.G.G.G.~ ) ' c h d 4 d d h h R E E _ L -.X.t j 6 G.G.G.G.G.G.G.G.G.G.G.G.G.G.G.G.. # 1 G.G.G.G.G.G.",
"G.G.G.G.G.G.G.G.G.G.G.G.G.G.G.G.G.@ h.*X-Xs.c c c B V T V T B n { ;.6.7.I.Z 5 G.G.G.G.G.G.G.G.G.: 5 5 ; @ G.G.- ; 5 G.G.G.G.G.G.",
"G.G.G.G.G.G.G.G.G.G.G.G.G.G.G.G.G.1 h.-XzX<X@X@X~.W.W.!.}.OXQ.<.>.;.4.5.7.>X@.1 G.G.G.o o o : : : P O.] % . o K @.%.A G.G.G.G.G.",
"G.G.G.G.G.G.G.G.G.G.G.G.G.G.G.G.H #.}.eXmXmXmXmXfXeXeXeXtXiXwX/.>.-.3.4.7.I.K 3 J r : y y y L i i &.<...u , X S K P n 9 G.G.G.G.",
"G.G.G.G.G.G.G.G.G.G.G.G.G.G.G.G.#.OXwXlXnXbXvXmXmXmXmXmXkX/. X!.&.[ a ;.;.O & & ; : w I I :.>.:.X.[ [ [ ] J - % = 2 6 G.G.G.G.G.",
"G.G.G.G.G.G.G.G.G.G.G.G.G.G.G.G.o.OXpXmXbXmXmXnXmXmXvXmX,X0 , 8 > & . O + D ] a [ | I C C L I y O o o o & > G.G.G.G.G.G.G.G.G.G.",
"G.G.G.G.G.G.G.G.G.G.G.G.G.G.G.G.~ Z.0XmXbXbXfXK.<XfXJ.v.*.u  . . . . . ... . .[ X.L m ( ! E A < . G.G.G.G.G.G.G.G.G.G.G.G.G.G.G.",
"G.G.G.G.G.G.G.G.G.G.G.G.G.G.G.1 c ) @XmXbXmXfXv.U.P.0 % o  . . . . . . . . .D u D K ' q.z.x.j * G.G.G.G.G.G.G.G.G.G.G.G.G.G.G.G.",
"G.G.G.G.G.G.G.G.G.G.G.G.G.G.G.j N ^ |.lXmXmXmXfX..# J o. . . . . . . . . . .9 : 3 n.}.d.|.OXv G.G.G.G.G.G.G.G.G.G.G.G.G.G.G.G.G.",
"G.G.G.G.G.G.G.G.G.G.G.G.G.G.5 M U k 0 *.xXmXvXvX:XJ.H m  . . . . .. X X $ 5 B ' W.}.*X0XK.o.G.G.G.G.G.G.G.G.G.G.G.G.G.G.G.G.G.G.",
"G.G.G.g T V f G.G.G.G.G.G.3 f M N n < X.>XzXmXmXmXtX' ^ E 7  .$ * $ $ $ * 2 $.C.C.V.Z.R.o.G.G.G.G.G.G.G.G.G.G.G.G.G.G.G.G.G.G.G.",
"G.G.k M 9.t.z G.G.G.G.G.G.7 7 7 6 w i >.L.:XlXvXnX9Xx.i.' l 3 5 5 3  . . .* V.C.g 2 * @ G.G.G.G.G.G.G.G.G.G.G.G.G.G.G.G.G.G.G.G.",
"G.G.N 9.p.y.z G.G.G.G.G.G.A @.>.L p p I $./ +.qX/.h.s.8.E f.T.|.M.$.$ 0  .u G F 2 9 G.G.G.G.G.G.G.G.G.G.G.G.G.G.G.G.G.G.G.G.G.G.",
"G.f U y.p.u.Q l G.G.G.G.5 A :.:.=.=.=.i t F o.v./ l U k F  XtX8X&Xv.X ]  . .S 9 * G.G.G.G.G.G.G.G.G.G.G.G.G.G.G.G.G.G.G.G.G.G.G.",
"G.f Y y.p.p.u.T $ G.G.G.2 y =.=.=.s i y Z Z.!.o.v F g 4 Z 1X7X[.5XL.u J  ...+.S - G.G.G.G.G.G.G.G.G.G.G.G.G.G.G.G.G.G.G.G.G.G.G.",
"G.f U 0.p.p.a.T 1 G.G.G.& r s =.s i q t U.qXvXsXqXoXo.0 r L.[.%X2X%X`.D 0  ...} } n G.G.G.G.G.G.G.G.G.G.G.G.G.G.G.G.G.G.G.G.G.G.",
"G.G.h 8.y.p.a.E 2 ; G.G.G.t e e q q *.R.0XxXmXvXmXfX(.v.| N.).%X3X7XuX~.+., 0 0 l 5 G.G.G.G.G.G.G.G.G.G.G.G.G.G.G.G.G.G.G.G.G.G.",
"G.G.d x 9.u.t.E 6 > G.G.G.9 = : 9 G  XmXqX,XqXvXmXbXbX1XL.L.).3X8X7X4XuXE.< , # $ $ G.G.G.G.G.G.G.G.G.G.G.G.G.G.G.G.G.G.G.G.G.G.",
"G.G.G.4 ( w.E n 6 ; G.G.G.l 9 g e.OXpX0Xs.~ #.sXbXmXbXcX7XL.'.8XuX{.N.'.{.XXm.#.3 G.G.G.G.G.G.G.G.G.G.G.G.G.G.G.G.G.G.G.G.G.G.G.",
"G.G.G.G.B ` .Xh.* $ G.G.G.@.~.~ #.+XpX:X~ h ^ rXbXmXmXbXsX1.E.8X8X5X[.[.$X7X*.F o.G.G.G.G.G.G.G.G.G.G.G.G.G.G.G.G.G.G.G.G.G.G.G.",
"G.G.G.G.G.F ~.M.#.#.O./ K l.W.F H S.<XqXh.$.h.fXmXmXmXbXfXP.E.XX5X5X%X[.2XuX+., G.G.G.G.G.G.G.G.G.G.G.G.G.G.G.G.G.G.G.G.G.G.G.G.",
"G.G.G.G.G.G.2 f.=X=X+X+X-XZ.2 * 3 1 U.dXlXzXmXmXmXbXmXmXmXbX>X<.&X2X%X2X1X4XO.$ G.G.G.G.G.G.G.G.G.G.G.G.G.G.G.G.G.G.G.G.G.G.G.G.",
"G.G.G.G.G.G.G.Z F G G G ^ F 7 9 5 * v $.OXjXmXmXmXmXmXmXmXmX:X+.&X'.2.$X_.J g 3 G.G.G.G.G.G.G.G.G.G.G.G.G.G.G.G.G.G.G.G.G.G.G.G.",
"G.G.G.G.G.G.G.G.G.G.G.G.G.G.G.G.G.Z - l h.OXpXtXpXjXvXmXvXmX Xo.T.m.I M.,.5 = G.G.G.G.G.G.G.G.G.G.G.G.G.G.G.G.G.G.G.G.G.G.G.G.G.",
"G.G.G.G.G.G.G.G.G.G.G.G.G.G.G.G.G.+.Z g F V.}.}.OX9XkXvXmXmXY.# - 3 ; ; = ; G.G.G.G.G.G.G.G.G.G.G.G.G.G.G.G.G.G.G.G.G.G.G.G.G.G.",
"G.G.G.G.G.G.G.G.G.G.G.G.G.G.G.G.G.4 ~ i.}.s.k c F.;XiXzXmXmXR.. G.G.G.G.G.G.G.G.G.G.G.G.G.G.G.G.G.G.G.G.G.G.G.G.G.G.G.G.G.G.G.G.",
"G.G.G.G.G.G.G.G.G.G.G.G.G.G.G.G.G.4 ( B.H.C.f.N ' C.*X-XqXnX<X1.S G.G.G.G.G.G.G.G.G.G.G.G.G.G.G.G.G.G.G.G.G.G.G.G.G.G.G.G.G.G.G.",
"G.G.G.G.G.G.G.G.G.G.G.G.G.G.G.G.G.4 ( a.p.H.Q.V d V .X*X@XxXvXrXv ; 9 G.G.G.G.G.G.G.G.G.G.G.G.G.G.G.G.G.G.G.G.G.G.G.G.G.G.G.G.G.",
"G.G.G.G.G.G.G.G.G.G.G.G.G.G.G.G.G.G.j R w.Q M 7 4 l }.=X-XzXnXpX#.V 6 G.G.G.G.G.G.G.G.G.G.G.G.G.G.G.G.G.G.G.G.G.G.G.G.G.G.G.G.G.",
"G.G.G.G.G.G.G.G.G.G.G.G.G.G.G.G.G.G.G.k R z 6 G.G.G.r.H.=X9X#X|.g.! z G.G.G.G.G.G.G.G.G.G.G.G.G.G.G.G.G.G.G.G.G.G.G.G.G.G.G.G.G.",
"G.G.G.G.G.G.G.G.G.G.G.G.G.G.G.G.G.G.G.G.G.G.G.G.G.G.2 ' V.C.z.9.9.! k G.G.G.G.G.G.G.G.G.G.G.G.G.G.G.G.G.G.G.G.G.G.G.G.G.G.G.G.G.",
"G.G.G.G.G.G.G.G.G.G.G.G.G.G.G.G.G.G.G.G.G.G.G.G.G.G.G.G.k M Y x M M j G.G.G.G.G.G.G.G.G.G.G.G.G.G.G.G.G.G.G.G.G.G.G.G.G.G.G.G.G.",
"G.G.G.G.G.G.G.G.G.G.G.G.G.G.G.G.G.G.G.G.G.G.G.G.G.G.G.G.G.f f f r G.G.G.G.G.G.G.G.G.G.G.G.G.G.G.G.G.G.G.G.G.G.G.G.G.G.G.G.G.G.G.",
"G.G.G.G.G.G.G.G.G.G.G.G.G.G.G.G.G.G.G.G.G.G.G.G.G.G.G.G.G.G.G.G.G.G.G.G.G.G.G.G.G.G.G.G.G.G.G.G.G.G.G.G.G.G.G.G.G.G.G.G.G.G.G.G."
};
