/* XPM */
static char *back3_milka[] = {
/* columns rows colors chars-per-pixel */
"64 64 214 2 ",
"   c #270A2A",
".  c #3A162A",
"X  c #260D31",
"o  c #2E0D33",
"O  c #350631",
"+  c #330A35",
"@  c #34053E",
"#  c #360A3D",
"$  c #390C3D",
"%  c #361235",
"&  c #36103E",
"*  c #62361A",
"=  c #42182A",
"-  c #46173A",
";  c #59343B",
":  c #633728",
">  c #633737",
",  c #350541",
"<  c #3A0644",
"1  c #350A42",
"2  c #3B0B45",
"3  c #39074A",
"4  c #3D0B4B",
"5  c #3C1343",
"6  c #3D1C42",
"7  c #3E0750",
"8  c #3E0B52",
"9  c #400E47",
"0  c #410D4D",
"q  c #421645",
"w  c #491947",
"e  c #42134C",
"r  c #441C4C",
"t  c #420D54",
"y  c #470C56",
"u  c #451352",
"i  c #481454",
"p  c #4D1C56",
"a  c #4C155A",
"s  c #4C1B5B",
"d  c #51185A",
"f  c #511E5D",
"g  c #48224C",
"h  c #532344",
"j  c #582D44",
"k  c #5E304E",
"l  c #4C2453",
"z  c #4D2759",
"x  c #542A59",
"c  c #522A5C",
"v  c #513556",
"b  c #58375C",
"n  c #623158",
"m  c #4C1D61",
"M  c #531564",
"N  c #531C64",
"B  c #561C6A",
"V  c #591D6B",
"C  c #542364",
"Z  c #582D65",
"A  c #5B236D",
"S  c #5C2B6A",
"D  c #5A3666",
"F  c #583C64",
"G  c #5D326A",
"H  c #5C2471",
"J  c #5E3171",
"K  c #642F6F",
"L  c #61336D",
"P  c #673B6E",
"I  c #622B73",
"U  c #632679",
"Y  c #642B7B",
"T  c #6A2C7E",
"R  c #643675",
"E  c #66327E",
"W  c #6B337E",
"Q  c #6B3E7B",
"!  c #713F76",
"~  c #6F5152",
"^  c #584562",
"/  c #69436C",
"(  c #68526A",
")  c #6D4A76",
"_  c #6D427B",
"`  c #6A4778",
"'  c #734779",
"]  c #73507B",
"[  c #79637D",
"{  c #672C80",
"}  c #6A2D82",
"|  c #6B3284",
" . c #693882",
".. c #6E348A",
"X. c #723B85",
"o. c #743589",
"O. c #74358C",
"+. c #743A8A",
"@. c #753492",
"#. c #793591",
"$. c #773D90",
"%. c #6E4083",
"&. c #734384",
"*. c #734389",
"=. c #7A488C",
"-. c #7A5487",
";. c #7A528C",
":. c #7E4494",
">. c #7E4A98",
",. c #7D5293",
"<. c #7E6280",
"1. c #8A5C8C",
"2. c #804694",
"3. c #824C95",
"4. c #834D99",
"5. c #855395",
"6. c #835B94",
"7. c #895A96",
"8. c #885399",
"9. c #8C5D9A",
"0. c #905C9C",
"q. c #876197",
"w. c #8B6999",
"e. c #91649D",
"r. c #926C9B",
"t. c #8C7A94",
"y. c #907098",
"u. c #8B59A1",
"i. c #935DA7",
"p. c #8D62A1",
"a. c #946AA3",
"s. c #9969A3",
"d. c #9561A9",
"f. c #9A65AA",
"g. c #9869A9",
"h. c #9C76AA",
"j. c #9C67B6",
"k. c #A27BAA",
"l. c #A87AB7",
"z. c #A477BA",
"x. c magenta",
"c. c #89808F",
"v. c #9F8E9E",
"b. c #A486AA",
"n. c #A093A2",
"m. c #A684B1",
"M. c #A887B2",
"N. c #B283BB",
"B. c #B28ABC",
"V. c #AE93B8",
"C. c #B496BC",
"Z. c #B9A5BC",
"A. c #B384C5",
"S. c #B98BC5",
"D. c #B98CCB",
"F. c #B993C3",
"G. c #BB98C7",
"H. c #BD8FD2",
"J. c #BDA5C3",
"K. c #BDA5C5",
"L. c #C095CB",
"P. c #C19DCB",
"I. c #C296D3",
"U. c #C59BD4",
"Y. c #C89ED8",
"T. c #C3A3CD",
"R. c #C6AACD",
"E. c #C7B7C8",
"W. c #C5A2D1",
"Q. c #CCA9D6",
"!. c #CDBBD2",
"~. c #D2B5D3",
"^. c #D3B5DB",
"/. c #D6BDD9",
"(. c #D4BADC",
"). c #DEAFEC",
"_. c #D5B7E5",
"`. c #DCBCE3",
"'. c #DCB4F0",
"]. c #D0C7CF",
"[. c #CFC0D6",
"{. c #D6C6D7",
"}. c #DAC4DB",
"|. c #DBCBDC",
" X c #DAD3D7",
".X c #E1D5DC",
"XX c #DCC9E1",
"oX c #DFD1E3",
"OX c #E2CAE5",
"+X c #E6D4E6",
"@X c #E4DCE3",
"#X c #E9D4EC",
"$X c #E7DBE9",
"%X c #EBDCEB",
"&X c #F1DCEF",
"*X c #ECD4F0",
"=X c #EEDBF1",
"-X c #F0DFF2",
";X c #EDE3EB",
":X c #EDE7EA",
">X c #F1E4EF",
",X c #F2EBEE",
"<X c #F8F6ED",
"1X c #FBFDEE",
"2X c #EEE1F1",
"3X c #F2E5F2",
"4X c #F5EBF4",
"5X c #FAE9F6",
"6X c #F5F1F1",
"7X c #F7F6F5",
"8X c #FAF5F4",
"9X c #FDFEF4",
"0X c #FCF5F9",
"qX c #FDFDFA",
/* pixels */
"x.x.x.x.x.x.x.x.x.x.x.x.x.x.x.x.x.x.x.x.x.x.x.x.x.x.x.x.x.x.x.x.x.x.x.x.x.x.x.x.x.x.x.x.x.x.x.x.x.x.x.x.x.x.x.x.x.x.x.x.x.x.x.x.",
"x.x.x.x.x.x.x.x.x.x.x.x.x.x.x.x.x.x.x.x.x.x.x.x.x.x.x.x.x.x.x.x.x.x.x.x.x.x.x.x.x.x.x.x.x.x.x.x.x.x.x.x.x.x.x.x.x.x.x.x.x.x.x.x.",
"x.x.x.x.x.x.x.x.x.x.x.x.x.x.x.x.x.x.x.x.x.x.x.x.x.x.x.x.x.x.x.x.x.x.x.x.x.x.x.x.x.x.x.x.x.x.x.x.x.x.x.x.x.x.x.x.x.x.x.x.x.x.x.x.",
"x.x.x.x.x.x.x.x.x.x.x.x.x.x.x.x.x.x.x.x.x.x.x.x.x.x.x.x.x.x.x.x.x.x.x.x.x.x.x.x.x.x.x.x.x.x.x.x.x.x.x.x.x.x.x.x.x.x.x.x.x.x.x.x.",
"x.x.x.x.x.x.x.x.x.x.x.x.x.x.x.x.x.x.x.x.x.x.x.x.x.x.x.x.x.x.x.x.x.x.+ % x.x.x.x.x.x.x.x.x.x.x.x.x.x.x.x.x.x.x.x.x.x.x.x.x.x.x.x.",
"x.x.x.x.x.x.x.x.x.x.x.x.x.x.x.x.x.x.x.x.x.x.x.x.x.x.x.x.x.x.x.x.x.% w q x.x.x.x.x.x.x.x.x.x.x.x.x.x.x.x.x.x.x.x.x.x.x.x.x.x.x.x.",
"x.x.x.x.x.x.x.x.x.x.x.x.x.x.x.x.x.x.x.x.x.x.x.x.x.x.x.x.x.x.x.x.x.6 ( v % x.x.x.x.x.x.x.x.x.x.x.x.x.x.x.x.x.x.x.x.x.x.x.x.x.x.x.",
"x.x.x.x.x.x.x.x.x.x.x.x.x.x.x.x.x.x.x.x.x.x.x.x.x.x.x.x.x.x.x.x.x.- ~ j . x.x.x.x.x.x.x.x.x.x.x.x.x.x.x.x.x.x.x.x.x.x.x.x.x.x.x.",
"x.x.x.x.x.x.x.x.x.x.x.x.x.x.x.x.x.x.x.x.x.x.x.x.x.x.x.x.x.x.x.x.x.= : : . x.x.x.x.x.x.x.x.x.x.x.x.x.x.x.x.x.x.x.x.x.x.x.x.x.x.x.",
"x.x.x.x.x.x.x.x.x.x.x.x.x.x.x.x.x.x.x.x.x.x.x.x.x.x.x.x.x.x.x.x.x.= : : - x.x.x.x.x.x.x.x.x.x.x.x.x.x.x.x.x.x.x.x.x.x.x.x.x.x.x.",
"x.x.x.x.x.x.x.x.x.x.x.x.x.x.x.x.x.x.x.x.x.x.x.x.x.x.x.x.x.x.x.x.x.. * : - # x.x.x.x.x.x.x.x.x.x.x.x.x.x.x.x.x.x.x.x.x.x.x.x.x.x.",
"x.x.x.x.x.x.x.x.x.x.x.x.x.x.x.x.x.x.x.x.x.x.x.x.x.x.x.x.x.x.x.x.. = * : - r x.x.x.x.x.x.x.x.x.x.x.x.x.x.x.x.x.x.x.x.x.x.x.x.x.x.",
"x.x.x.x.x.x.x.x.x.x.x.x.x.x.x.x.x.x.x.x.x.x.x.x.x.x.x.x.x.x.x.x.g = : : q x x.x.x.x.x.x.x.x.x.x.x.x.x.x.x.x.x.x.x.x.x.x.x.x.x.x.",
"x.x.x.x.x.x.x.x.x.x.x.x.x.x.x.x.x.x.x.x.x.x.x.x.x.x.x.x.x.x.x.x.n - > ; w P x.x.x.x.x.x.x.x.x.x.x.x.x.x.x.x.x.x.x.x.x.x.x.x.x.x.",
"x.x.x.x.x.x.x.x.x.x.x.x.x.x.x.x.x.x.x.x.x.x.x.x.x.x.x.x.x.x.x.x.x.q k j q ! q x.x.x.x.x.x.x.x.x.x.x.x.x.x.x.x.x.x.x.x.x.x.x.x.x.",
"x.x.x.x.x.x.x.x.x.x.x.x.x.x.x.x.x.x.x.x.x.x.x.x.x.x.x.x.x.x.x.x.x.6 - h - / - x.x.x.x.x.x.x.x.x.x.x.x.x.x.x.x.x.x.x.x.x.x.x.x.x.",
"x.x.x.x.x.x.x.x.x.x.x.x.x.x.x.x.x.x.x.x.x.x.x.x.x.v   o o + $ r $ # q h w ' q x.x.x.x.+ x.x.x.x.x.x.x.x.x.x.x.x.x.x.x.x.x.x.x.x.",
"x.x.x.x.x.x.x.x.x.x.x.x.x.x.1 r c x.x.x.x.x.  v v v [ [ [ <.<.[ <.<.- h w _ q x.x.5 C f # x.x.x.x.x.x.x.x.x.x.x.x.x.x.x.x.x.x.x.",
"x.x.x.x.x.x.x.x.x.x.x.x.x.x.4 H N r x.x.x.x.X l b.@X8X9X9X0X8X7X9XE.g w 9 d 9 x.# 4 X.+.4 x.x.x.x.x.x.x.x.x.x.x.x.x.x.x.x.x.x.x.",
"x.x.x.x.x.x.x.x.x.x.x.x.x.x.u Y U C r e 4 2 5 ^ @X8X9X9XqX9X9X1X1X,XE.k @ 9 4 2 r X.+.U 2 x.x.x.x.x.x.x.x.x.x.x.x.x.x.x.x.x.x.x.",
"x.x.x.x.x.x.x.x.x.x.x.x.x.x.e Y { H m A B C w.Z.8X9X9X9X9X9X9X9X9X9X6Xn.t.y.C f Y X.| H 2 x.x.x.x.x.x.x.x.x.x.x.x.x.x.x.x.x.x.x.",
"x.x.x.x.x.x.x.x.x.x.x.x.x.x.u A H J T { T J !.qX9X9X9X9X9X9X9X9X9X1XqXqX,XR.X.X.X.Y U C x.x.x.x.x.x.x.x.x.x.x.x.x.x.x.x.x.x.x.x.",
"x.x.x.x.x.x.x.x.x.x.x.x.x.x.x.4 B { { { { J !.qX9X9X9X9X9X9X9X9X9X1X9XqXE.D T } } Y i 1 x.x.x.x.x.x.x.x.x.x.x.x.x.x.x.x.x.x.x.x.",
"x.x.x.x.x.x.x.x.x.x.x.x.x.x.x.x.y V { { *.g.oXqX9X9X9X9X9X9X9X1X9X9XqXqX@XM.o.} U M 2 x.x.x.x.x.x.x.x.x.x.x.x.x.x.x.x.x.x.x.x.x.",
"x.x.x.x.x.x.x.x.x.x.x.x.x.x.x.x.x.i A Y 4.W.2XqXqXqX9X9X9X9X9X9X9X9XqXqXqX%Xq. .B 4 x.x.x.x.x.x.x.x.x.x.x.x.x.x.x.x.x.x.x.x.x.x.",
"x.x.x.x.x.x.x.x.x.x.x.x.x.x.x.x.x.x.t A 8.^.3XqXqX9X9X9X9X9X9X9X9XqX9X9X9X3XP.*.< # x.x.x.x.x.x.x.x.x.x.x.x.x.x.x.x.x.x.x.x.x.x.",
"x.x.x.x.x.x.x.x.x.x.x.x.x.x.x.x.x.x.4 :.F.2X8X9X9X9X9X9X9X9X9X9X9X9X9X9X9X3XT.&., x.x.x.x.x.x.x.x.x.x.x.x.x.x.x.x.x.x.x.x.x.x.x.",
"x.x.x.x.x.x.x.x.x.x.x.x.x.x.x.x.x.x.2 d.^.0X9X9X9X9X9X9X9X9X9X9X9X9XqX9X9X3XT.=.1 x.x.x.x.x.x.x.x.x.x.x.x.x.x.x.x.x.x.x.x.x.x.x.",
"x.x.x.x.x.x.x.x.x.x.x.x.x.x.x.x.x.x.4 d._.7X9X9X9X9X9X9X9X9X9X9X9X9X9X9X9X,XW.=.3 2 x.x.x.x.x.x.x.x.x.x.x.x.x.x.x.x.x.x.x.x.x.x.",
"x.x.x.x.x.x.x.x.x.x.x.x.x.x.x.x.x.x.u d._.7X1X9X1X1X9X9X9X9X9X9X9X9X9X9X9X>XT.*.7 u x.x.x.x.x.x.x.x.x.x.x.x.x.x.x.x.x.x.x.x.x.x.",
"x.x.x.x.x.x.x.x.x.x.x.x.x.x.x.x.x.x.s d.(.0X1X1X1X1X9X9X9X9X9X9X9X9X9X9XqX3XT.Q i 5.Z x.x.x.x.x.x.x.x.x.x.x.x.x.x.x.x.x.x.x.x.x.",
"x.x.x.x.x.x.x.x.x.x.x.x.x.x.x.x.g -.Z i.W.5X8X9X9X9X9X9X9X9X1X9X9X9X8X9XqX%XC.) D A.K x.x.x.x.x.x.x.x.x.x.x.x.x.x.x.x.x.x.x.x.x.",
"x.x.x.x.x.x.x.x.x.x.x.x.x.x.x.1 5.Q.I.+.` K.:XqX9X9X9X9X9X9X9X9X9X9X1X9X;XG.D v.~.S.C x.x.x.x.x.x.x.x.x.x.x.x.x.x.x.x.x.x.x.x.x.",
"x.x.x.x.x.x.x.x.x.x.x.x.x.x.x.3 d.).).i.E ;.K.:XqXqXqX9XqX9XqX9X9X9X9X$XJ.;.=.E.8X/.Z x.x.x.x.x.x.x.x.x.x.x.x.x.x.x.x.x.x.x.x.x.",
"x.x.x.x.x.x.x.x.x.x.x.x.x.x.x.< d.'.`.A.>.8 ,.C.}.XX|.|.{.|.|.|.|.|.|.G.6.m A.#X9X:Xb x.x.x.x.x.x.x.x.x.x.x.x.x.x.x.x.x.x.x.x.x.",
"x.x.x.x.x.x.x.x.x.x.x.x.x.x.x.< d.'.-XXXz.8 y s C _ %.%.%.X.*.*.*.&.*.A t C Q.%X9X:XF x.x.x.x.x.x.x.x.x.x.x.x.x.x.x.x.x.x.x.x.x.",
"x.x.x.x.x.x.x.x.x.x.x.x.x.x.x.< 5.Q.8X>X(.y.h.a.+...} T { { | } } | | 8.g.C.%X8X,X~.L x.x.x.x.x.x.x.x.x.x.x.x.x.x.x.x.x.x.x.x.x.",
"x.x.x.x.x.x.x.x.x.x.x.x.x.x.x.x.' m.&X0X4XXX4XOXm.4.$.2.2.:.2.:.2.3.7.G.+X0XqX4X}.r.K x.x.x.x.x.x.x.x.x.x.x.x.x.x.x.x.x.x.x.x.x.",
"x.x.x.x.x.x.x.x.x.x.x.x.x.x.x.x.6 Z P.>XqXqX9X<X>XW.I.Y.Y.Y.I.I.I.Q.*X5X6XqXqX|.k.p x.x.x.x.x.x.x.x.x.x.x.x.x.x.x.x.x.x.x.x.x.x.",
"x.x.x.x.x.x.x.x.x.x.x.x.x.x.x.x.x.l ' [.qX8X9X1X<X%X;X&X2X=X;X=XS.u.b.:X9X6X#Xk.L x.x.x.x.x.x.x.x.x.x.x.x.x.x.x.x.x.x.x.x.x.x.x.",
"x.x.x.x.x.x.x.x.x.x.x.x.x.x.x.x.x.x.t h..X<X,X6X9X9XqXqXqX9X6XXXa.E *.R..X%XV.Q 2 x.x.x.x.x.x.x.x.x.x.x.x.x.x.x.x.x.x.x.x.x.x.x.",
"x.x.x.x.x.x.x.x.x.x.x.x.x.x.x.x.x.x.4 u ] %X}.}.4X4X7XqX9X9X{.-...O.@.$.r.^.c 2 x.x.x.x.x.x.x.x.x.x.x.x.x.x.x.x.x.x.x.x.x.x.x.x.",
"x.x.x.x.x.x.x.x.x.x.x.x.x.x.x.x.x.x.x.< S F.d.9.a.w.J.qX9X9X{.*.@.#.#.@.>.e.u $ x.x.x.x.x.x.x.x.x.x.x.x.x.x.x.x.x.x.x.x.x.x.x.x.",
"x.x.x.x.x.x.x.x.x.x.x.x.x.x.x.x.x.x.x.@ G U.4.o.@.O.6.J.,X9X}.*.@.@.O.@.4.e.u 2 x.x.x.x.x.x.x.x.x.x.x.x.x.x.x.x.x.x.x.x.x.x.x.x.",
"x.x.x.x.x.x.x.x.x.x.x.x.x.x.x.x.x.x.x., ` =Xs.@.#.#.| -.;XqXoX6.:.@.@...p.!.g & x.x.x.x.x.x.x.i x.x.x.x.x.x.x.x.x.x.x.x.x.x.x.x.",
"x.x.x.x.x.x.x.x.x.x.x.x.x.x.x.x.x.x.x.@ ) -Xr.o.@.@...;.$X9X6X$Xh.| ..} 7.!.x $ x.x.x.x.x.x.s I s x.x.x.x.x.x.x.x.x.x.x.x.x.x.x.",
"x.x.x.x.x.x.x.x.x.x.x.x.x.x.x.x.x.x.x.1 ] 2XJ.e.....6.V.:X9X9X9XR.M.M.b.Z.].x p x.x.x.x.x.1 a  .I d x.x.x.x.x.x.x.x.x.x.x.x.x.x.",
"x.x.x.x.x.x.x.x.x.x.x.x.x.x.x.x.x.x.x.# ) 4X7X!.,.5.Z.qXqXqX9X9XqX7X9X9X6X!.z l x.x.x.x.x.4 N { | V # x.x.x.x.x.x.x.x.x.x.x.x.x.",
"x.x.x.x.x.x.x.x.x.x.x.x.x.x.x.x.x.x.x.@ ) 3X8X<X:X3X6X9XqX0XqXqX9X1X8XqX$Xm.s z x.x.x.x.7 B E { | N 1 x.x.x.x.x.x.x.x.x.x.x.x.x.",
"x.x.x.x.x.x.x.x.x.x.x.x.x.x.x.x.x.x.x.@ L Q.,X1X1X9X9X6X|.%XoXc.].qX8XoX_.l.p x x.x.x.x.7 A E  .| M # x.x.x.x.x.x.x.x.x.x.x.x.x.",
"x.x.x.x.x.x.x.x.x.x.x.x.x.x.x.x.x.x.x.1 L F.#X6X9X9X9X;Xm.K.R.^ v. X6XR.H.l.s n x.x.x.x.2 N T { H i + x.x.x.x.x.x.x.x.x.x.x.x.x.",
"x.x.x.x.x.x.x.x.x.x.x.x.x.x.x.x.x.x.x.x.I F.#X>XqXqX9X].z Q C.#X[ ( +XT.D.z.m l x.x.x.x.x.t V U i $ x.x.x.x.x.x.x.x.x.x.x.x.x.x.",
"x.x.x.x.x.x.x.x.x.x.x.x.x.x.x.x.x.x.x.x.I L./.@XqX8X9X,XJ.-._ G.K.b.-.B.I.z.a $ x.x.x.x.x.C A M 0 x.x.x.x.x.x.x.x.x.x.x.x.x.x.x.",
"x.x.x.x.x.x.x.x.x.x.x.x.x.x.x.x.x.x.x.x.L L.OX;XqX9X:X+X#Xh.R 5.B.b._ 6.u.3.i < x.x.x.x.x.9.X.9 x.x.x.x.x.x.x.x.x.x.x.x.x.x.x.x.",
"x.x.x.x.x.x.x.x.x.x.x.x.x.x.x.x.x.x.x.x.R F.%X9X7X4X/.G.G.D.f.a i X.A.S i s f z g p i 6 c U.0.$ x.x.x.x.x.x.x.x.x.x.x.x.x.x.x.x.",
"x.x.x.x.x.x.x.x.x.x.x.x.x.x.x.x.x.x.x.x.G D [.qX7XJ.9.S G L H t 7.h.R f.l.S.U.^.~.B.A.D.N.P p x.x.x.x.x.x.x.x.x.x.x.x.x.x.x.x.x.",
"x.x.x.x.x.x.x.x.x.x.x.x.x.x.x.x.x.x.x.x.x.& M.`.^.k.Y , x.x.8 4 s.D.8.3.5.7.e.y.r.5.9.9.1.r x.x.x.x.x.x.x.x.x.x.x.x.x.x.x.x.x.x.",
"x.x.x.x.x.x.x.x.x.x.x.x.x.x.x.x.x.x.x.x.x.5 Q 3.2.2.W x.x.x.x.2 +.j.z.U t 0 4 + O 2 x.x.x.x.x.x.x.x.x.x.x.x.x.x.x.x.x.x.x.x.x.x.",
"x.x.x.x.x.x.x.x.x.x.x.x.x.x.x.x.x.x.x.x.x.x.0 y y y x.x.x.x.x.# N | O.#.I 9 x.x.x.x.x.x.x.x.x.x.x.x.x.x.x.x.x.x.x.x.x.x.x.x.x.x.",
"x.x.x.x.x.x.x.x.x.x.x.x.x.x.x.x.x.x.x.x.x.x.x.x.x.x.x.x.x.x.x.x.e a M a i x.x.x.x.x.x.x.x.x.x.x.x.x.x.x.x.x.x.x.x.x.x.x.x.x.x.x.",
"x.x.x.x.x.x.x.x.x.x.x.x.x.x.x.x.x.x.x.x.x.x.x.x.x.x.x.x.x.x.x.x.x.x.x.x.x.x.x.x.x.x.x.x.x.x.x.x.x.x.x.x.x.x.x.x.x.x.x.x.x.x.x.x.",
"x.x.x.x.x.x.x.x.x.x.x.x.x.x.x.x.x.x.x.x.x.x.x.x.x.x.x.x.x.x.x.x.x.x.x.x.x.x.x.x.x.x.x.x.x.x.x.x.x.x.x.x.x.x.x.x.x.x.x.x.x.x.x.x.",
"x.x.x.x.x.x.x.x.x.x.x.x.x.x.x.x.x.x.x.x.x.x.x.x.x.x.x.x.x.x.x.x.x.x.x.x.x.x.x.x.x.x.x.x.x.x.x.x.x.x.x.x.x.x.x.x.x.x.x.x.x.x.x.x.",
"x.x.x.x.x.x.x.x.x.x.x.x.x.x.x.x.x.x.x.x.x.x.x.x.x.x.x.x.x.x.x.x.x.x.x.x.x.x.x.x.x.x.x.x.x.x.x.x.x.x.x.x.x.x.x.x.x.x.x.x.x.x.x.x."
};
