/* XPM */
static char *front3_milka[] = {
/* columns rows colors chars-per-pixel */
"64 64 227 2 ",
"   c black",
".  c #12050E",
"X  c #180818",
"o  c #141118",
"O  c #1C121D",
"+  c #230C1D",
"@  c #2C0A18",
"#  c #2F1010",
"$  c #35201D",
"%  c #1D0825",
"&  c #1E1626",
"*  c #220C25",
"=  c #280529",
"-  c #240D2C",
";  c #2A0D2B",
":  c #320327",
">  c #231424",
",  c #291926",
"<  c #26122C",
"1  c #2B142C",
"2  c #2D1C2C",
"3  c #34122B",
"4  c #351C2E",
"5  c #290933",
"6  c #360B38",
"7  c #2D1332",
"8  c #2B1934",
"9  c #391536",
"0  c #311C35",
"q  c #32133B",
"w  c #341B3B",
"e  c #3A1E3B",
"r  c #2A222A",
"t  c #3B2628",
"y  c #342533",
"u  c #3C253D",
"i  c #3A283A",
"p  c #420D1E",
"a  c #430D2C",
"s  c #46192A",
"d  c #461537",
"f  c #4A202E",
"g  c #45243A",
"h  c #532536",
"j  c #632E3F",
"k  c #68343E",
"l  c #6D4526",
"z  c #724D39",
"x  c #2F0A40",
"c  c #390D43",
"v  c #381744",
"b  c #3B1A43",
"n  c #3E144C",
"m  c #3C1855",
"M  c #3C2344",
"N  c #3E284A",
"B  c #3C3243",
"V  c #441543",
"C  c #4A1645",
"Z  c #441D4C",
"A  c #481848",
"S  c #491E55",
"D  c #422444",
"F  c #43234D",
"G  c #4B254B",
"H  c #452B4C",
"J  c #582A4A",
"K  c #4C344A",
"L  c #5C374A",
"P  c #4A2657",
"I  c #4B2B55",
"U  c #5B2B52",
"Y  c #53275B",
"T  c #4A3254",
"R  c #4F375B",
"E  c #513455",
"W  c #5B335E",
"Q  c #563959",
"!  c #6B3648",
"~  c #643858",
"^  c #4B2669",
"/  c #572765",
"(  c #5C2D6C",
")  c #5B3966",
"_  c #5C3B64",
"`  c #5B346A",
"'  c #4E2C76",
"]  c #592973",
"[  c #5C3877",
"{  c #643669",
"}  c #67326C",
"|  c #643B6D",
" . c #633A74",
".. c #6A3B72",
"X. c #673578",
"o. c #6B3B7B",
"O. c #733E7D",
"+. c #58454A",
"@. c #5C455E",
"#. c #5E515A",
"$. c #6E4555",
"%. c #6D4A5A",
"&. c #5D4866",
"*. c #654768",
"=. c #6A436A",
"-. c #75476B",
";. c #655369",
":. c #795B6A",
">. c #684574",
",. c #6C4C74",
"<. c #6E4A7A",
"1. c #74497A",
"2. c #6B5276",
"3. c #785677",
"4. c DimGray",
"5. c #696773",
"6. c #7B6377",
"7. c #9F784F",
"8. c #855572",
"9. c #8D6C73",
"0. c #967570",
"q. c #A37F6F",
"w. c #AF8452",
"e. c #B28C6A",
"r. c #6C3A83",
"t. c #743F85",
"y. c #764886",
"u. c #7B5689",
"i. c #6E4C90",
"p. c #7A6684",
"a. c #804C8A",
"s. c #845889",
"d. c #926A89",
"f. c #866696",
"g. c #946896",
"h. c #887D93",
"j. c #967B97",
"k. c #A77C97",
"l. c #986FA2",
"z. c #A67BA9",
"x. c #A37CB0",
"c. c #FF00FF",
"v. c #8B8B8D",
"b. c #9A878E",
"n. c #98899A",
"m. c #9B9B9C",
"M. c #AD8793",
"N. c #9E86A6",
"B. c #A98DAC",
"V. c #B587A4",
"C. c #A696A6",
"Z. c #B799A5",
"A. c #AD86B6",
"S. c #B38CB9",
"D. c #AC94B4",
"F. c #B798BD",
"G. c #B5ABB7",
"H. c #C19185",
"J. c #D6B395",
"K. c #C592BA",
"L. c #C7A9B9",
"P. c #C8BABC",
"I. c #F2C997",
"U. c #CFC6BF",
"Y. c #FCD7A2",
"T. c #B594C3",
"R. c #B9A3C7",
"E. c #C49DCA",
"W. c #CCACCA",
"Q. c #C8ACCC",
"!. c #CABAC5",
"~. c #D5B8C8",
"^. c #CDACD2",
"/. c #D2ABDD",
"(. c #CCB5D6",
"). c #DAB9DA",
"_. c #EAB6D8",
"`. c #E9B8DB",
"'. c #DAB9E6",
"]. c #BEC5C4",
"[. c #CBC5C8",
"{. c #D5C6C8",
"}. c #D6C7D7",
"|. c #D8D2D6",
" X c #F4CCC9",
".X c #E8C6D8",
"XX c #F3CEDA",
"oX c #E7D9DA",
"OX c #F4DADD",
"+X c #DBE1DD",
"@X c #E5E0DD",
"#X c #DBC8E4",
"$X c #E8C7E6",
"%X c #F5CDE9",
"&X c #EBD8E7",
"*X c #F7D8E8",
"=X c #E5CCF3",
"-X c #EECFF9",
";X c #F3CFFF",
":X c #ECD5F5",
">X c #F3DDF4",
",X c #F9D5F8",
"<X c #FBDEFC",
"1X c #DDE1E4",
"2X c #E7E3E7",
"3X c #EAEBEB",
"4X c #FCE6EB",
"5X c #F3EDEC",
"6X c #EEF8EC",
"7X c #F2F2ED",
"8X c #F8F7EB",
"9X c #EEECF5",
"0X c #F5E3F3",
"qX c #F2EDF3",
"wX c #FAEDF5",
"eX c #F5E6FA",
"rX c #FDE4FD",
"tX c #F6EDFB",
"yX c #FDECFE",
"uX c #F4F5F3",
"iX c #FDF4F4",
"pX c #F4FCF3",
"aX c #FCFCF6",
"sX c #F7F4FC",
"dX c #FDF4FD",
"fX c #F7FCFA",
"gX c #FEFCFD",
/* pixels */
"c.c.c.c.c.c.c.c.c.c.c.c.c.c.c.c.c.c.c.c.c.c.c.c.c.c.c.c.c.c.c.c.c.c.c.c.c.c.c.c.c.c.c.c.c.c.c.c.c.c.c.c.c.c.c.c.c.c.c.c.c.c.c.c.",
"c.c.c.c.c.c.c.c.c.c.c.c.c.c.c.c.c.c.c.c.c.c.c.c.c.c.c.c.c.c.c.c.c.c.c.c.c.c.c.c.c.c.c.c.c.c.c.c.c.c.c.c.c.c.c.c.c.c.c.c.c.c.c.c.",
"c.c.c.c.c.c.c.c.c.c.c.c.c.c.c.c.c.c.c.c.c.c.c.c.c.c.c.c.c.c.c.c.c.c.c.c.c.c.c.c.c.c.c.c.c.c.c.c.c.c.c.c.c.c.c.c.c.c.c.c.c.c.c.c.",
"c.c.c.c.c.c.c.c.c.c.c.c.c.c.c.c.c.c.c.c.c.c.c.c.c.c.c.c.c.c.c.c.c.c.c.c.c.c.c.c.c.c.c.c.c.c.c.c.c.c.c.c.c.c.c.c.c.c.c.c.c.c.c.c.",
"c.c.c.c.c.c.c.c.c.c.c.c.c.c.c.c.c.c.c.R c.c.c.c.c.c.c.c.c.c.c.c.c.c.c.c.c.c.c.c.c.c.c.c.c.c.c.y 2 c.c.c.c.c.c.c.c.c.c.c.c.c.c.c.",
"c.c.c.c.c.c.c.c.c.c.c.c.c.c.c.c.c.c.R 0 > c.c.c.c.c.c.c.c.1 % 7 & r , X     c.c.c.c.c.c.c.c.1 0 0 c.c.c.c.c.c.c.c.c.c.c.c.c.c.c.",
"c.c.c.c.c.c.c.c.c.c.c.c.c.c.c.c.c.c.T R >.@.c.c.c.c.> > y n.}.}.}.{.}.|.}.m.. c.c.c.c.c.O + *.T < c.c.c.c.c.c.c.c.c.c.c.c.c.c.c.",
"c.c.c.c.c.c.c.c.c.c.c.c.c.c.c.c.c.2 T ` y.N T y r y r B C.yXgXgXgXsXgXiXwXG.#.c.c.c., 3 D E 3.{ 8 c.c.c.c.c.c.c.c.c.c.c.c.c.c.c.",
"c.c.c.c.c.c.c.c.c.c.c.c.c.c.c.c.c.> w ^ } g.Y : 1 - - C.dXdXgXgXfXgXiXuXgX7XgX%.X * w q Z f.| P - c.c.c.c.c.c.c.c.c.c.c.c.c.c.c.",
"c.c.c.c.c.c.c.c.c.c.c.c.c.c.c.c.c.> - / r.X.X.E.$X=X}.9XgXpX3XaXgXuXgX|.8XgXaX|.}.(.,.y.y.o.1.P 7 c.c.c.c.c.c.c.c.c.c.c.c.c.c.c.",
"c.c.c.c.c.c.c.c.c.c.c.c.c.c.c.c.c.c.c.V S } X.g.A./.0XdXgXaX+X].1XfXiX2X[.gXgXdXtXT.u.y.r.r.P P 1 c.c.c.c.c.c.c.c.c.c.c.c.c.c.c.",
"c.c.c.c.c.c.c.c.c.c.c.c.c.c.c.c.c.c.c.3 d / o./ [ u.~.gXaXaXpX].[.3XgX|.G.uXfXgX#X2.[ ] ] / m q 0 c.c.c.c.c.c.c.c.c.c.c.c.c.c.c.",
"c.c.c.c.c.c.c.c.c.c.c.c.c.c.c.c.c.c.c.X 9 6 ( y.) #XgXgXpX6XgXgX3Xv.gXm.[.fXgX9XdX>XF  .^ x v 0 c.c.c.c.c.c.c.c.c.c.c.c.c.c.c.c.",
"c.c.c.c.c.c.c.c.c.c.c.c.c.c.c.c.c.c.c.c., 3 b S N.yXqXgXaXaXaXdX3XC.n.|.gXdXfXgXfXtXD.) v v - c.c.c.c.c.c.c.c.c.c.c.c.c.c.c.c.c.",
"c.c.c.c.c.c.c.c.c.c.c.c.c.c.c.c.c.c.c.c.c.c.Z w (.gXaXaXgXaXiXiXaXiX&XiXgXgXgXpXfXgXyX&.* i c.c.c.c.c.c.c.c.c.c.c.c.c.c.c.c.c.c.",
"c.c.c.c.c.c.c.c.c.c.c.c.c.c.c.c.c.c.c.c.c.c.D T eXsXfXpXaXaXdXaXpXaXaXiXgXgXuXgXgX5XdX:.+ y c.c.c.c.c.c.c.c.c.c.c.c.c.c.c.c.c.c.",
"c.c.c.c.c.c.c.c.c.c.c.c.c.c.c.c.c.c.c.c.c.c.u E eXdXgXfXgXgXgXgXaXaX8XaX9XsXgXpXaX7XgX:.+ c.c.c.c.c.c.c.c.c.c.c.c.c.c.c.c.c.c.c.",
"c.c.c.c.c.c.c.c.c.c.c.c.c.c.c.c.c.c.c.c.c.c.e Q 0XgX6X6.v.C.gXfXpXgX4XiXfX1Xe.4.m.dXdX6.> c.c.c.c.c.c.c.c.c.c.c.c.c.c.c.c.c.c.c.",
"c.c.c.c.c.c.c.c.c.c.c.c.c.c.c.c.c.c.c.c.c.c.D Q =XdXsXr X @.9XgXgX7XiXwXfX2XO o 4.gX0X3.. c.c.c.c.c.c.c.c.c.c.c.c.c.c.c.c.c.c.c.",
"c.c.c.c.c.c.c.c.c.c.c.c.c.c.c.c.c.c.c.c.c.c.< ,.=XsXsXB X &.gXfXgXdXgXdXsX&XO O 5.fX#X*.c.c.c.c.c.c.c.c.c.c.c.c.c.c.c.c.c.c.c.c.",
"c.c.c.c.c.c.c.c.c.c.c.c.c.c.c.c.c.c.c.c.c.c.0 &.R.dXeX;.u :.gX@X@XoX@XoXiXwX+.y h.yXR.&.c.c.c.c.c.c.c.c.c.c.c.c.c.c.c.c.c.c.c.c.",
"c.c.c.c.c.c.c.c.c.c.c.c.c.c.c.c.c.c.c.c.c.c.8 I q ^.dXyXdXyXU.U.{.{.P.U.U.[.iXyXgX(.- R c.c.c.c.c.c.c.c.c.c.c.c.c.c.c.c.c.c.c.c.",
"c.c.c.c.c.c.c.c.c.c.c.c.c.c.c.c.c.c.c.c.c.c.& &.w *.>XiXrX~.{.oXXX4X4X*X&X~.~.yX>XD.v &.c.c.c.c.c.c.c.c.c.c.c.c.c.c.c.c.c.c.c.c.",
"c.c.c.c.c.c.c.c.c.c.c.c.c.c.c.c.c.c.c.c.c.c.B T D 3 2.<X)._.4XOX*XXXOX4X>XyX^.).D.% N @.c.c.c.c.c.c.c.c.c.c.c.c.c.c.c.c.c.c.c.c.",
"c.c.c.c.c.c.c.c.c.c.c.c.c.c.c.- D 1 , c.c.c.c.0 F f.1 *.g.,X%XL.*X*X*XXXW.rX'.| G j.N % c.c.c.c.c.c.c.c.c.c.c.c.c.c.c.c.c.c.c.c.",
"c.c.c.c.c.c.c.c.c.c.c.c.c.c.T D =.g , c.c.c.c.v f.'.3.Z A x.<XL.XX XXXY._./.y.c j.rXQ w c.c.c.c.c.c.c.c.c.c.c.c.c.c.c.c.c.c.c.c.",
"c.c.c.c.c.c.c.c.c.c.c.c.c.c.H / >.Y i c.c.c.c.q S.'.-XA.Z c _ %.z l l l %.G n l.:X>XB.w c.c.c.c.c.c.c.c.c.c.c.c.c.c.c.c.c.c.c.c.",
"c.c.c.c.c.c.c.c.c.c.c.c.c.K b ( (  ._ < c.c.q y.'.=XyX<XS. .6 @ z e.w.7.# 3 z.;XdX0X$X3.c.c.c.c.c.c.c.c.c.c.c.c.c.c.c.c.c.c.c.c.",
"c.c.c.c.c.c.c.c.c.c.c.c.c.1 P ^ X.t.[ v c.< 5 &.:XdXdXdX%X^.j.! J.Y.I.Y.q.9.%X>XwXdX<X;.c.c.c.c.c.c.c.c.c.c.c.c.c.c.c.c.c.c.c.c.",
"c.c.c.c.c.c.c.c.c.c.c.c.c.3 S X.] r.X.v c.8 5 >.rXsXgXgX$X'.*X+.e.e.7.I.e.b.b.|.gXgXdX=.c.c.c.c.c.c.c.c.c.c.c.c.c.c.c.c.c.c.c.c.",
"c.c.c.c.c.c.c.c.c.c.c.c.c.y Z X.] o.} v c.M w %.eXgXaXgX}.C.yXL d h # H.0.0.t P.gXsXeX2.c.c.c.c.c.c.c.c.c.c.c.c.c.c.c.c.c.c.c.c.",
"c.c.c.c.c.c.c.c.c.c.c.c.c.c.m m X.( S = c.< = *.0XdXpXpX&Xj.W.J U 9.p $.9.+.!.3XgXsXyX=.D c.c.c.c.c.c.c.c.c.c.c.c.c.c.c.c.c.c.c.",
"c.c.c.c.c.c.c.c.c.c.c.c.c.c.c.u q 1.R N c.c.S V F.gXpX6XdX}.Z C C ~ a d.V.b.uXaXpXdX/.Y b c.c.c.c.c.c.c.c.c.c.c.c.c.c.c.c.c.c.c.",
"c.c.c.c.c.c.c.c.c.c.c.c.c.c.c.O - *.f.M c.c.} x d.&XpXfXsXdXs.a U ~ : } k.5XdXfXdX:Xs.} V c.c.c.c.c.c.c.c.c.c.c.c.c.c.c.c.c.c.c.",
"c.c.c.c.c.c.c.c.c.c.c.c.c.c.c.c.u - R.D.- >.S n ) j.gXsXyX^.../ U h C W g.eXyXdXsXD.( y.n c.c.c.c.c.c.c.c.c.c.c.c.c.c.c.c.c.c.c.",
"c.c.c.c.c.c.c.c.c.c.c.c.c.c.c.c.c.> K F.p._ P P ` ) h.dX(.` t.r...~ C ..=.s.yX'.n.*.o.y.6 c.c.c.c.c.c.c.c.c.c.c.c.c.c.c.c.c.c.c.",
"c.c.c.c.c.c.c.c.c.c.c.c.c.c.c.c.c.c.c.% G.-X>.c x.-Xp.p.,.o.t./ | 1.5 } u.O.l.-.6.dX{ =.D c.c.c.c.c.c.c.c.c.c.c.c.c.c.c.c.c.c.c.",
"c.c.c.c.c.c.c.c.c.c.c.c.c.c.c.c.c.c.c.X y H n 1.;XrXrXn.A ..} A ~ 1.c X./ V a.S.%XyXW.~ g c.c.c.c.c.c.c.c.c.c.c.c.c.c.c.c.c.c.c.",
"c.c.c.c.c.c.c.c.c.c.c.c.c.c.c.c.c.c.c.c., 2 q { <.B.yX>Xk.O.1.V ~ -.a 6 } K._.`.:XrXyXd.c.c.c.c.c.c.c.c.c.c.c.c.c.c.c.c.c.c.c.c.",
"c.c.c.c.c.c.c.c.c.c.c.c.c.c.c.c.c.c.c.c.c., w F ) 6.dXOX~.XX$XU U -.: g._.`.,X`.!.dXyXp.c.c.c.c.c.c.c.c.c.c.c.c.c.c.c.c.c.c.c.c.",
"c.c.c.c.c.c.c.c.c.c.c.c.c.c.c.c.c.c.c.c.c.r + q <.Q.dX5X!.~.%XU J 8.: K.,X`.XXL.&XdXQ.B c.c.c.c.c.c.c.c.c.c.c.c.c.c.c.c.c.c.c.c.",
"c.c.c.c.c.c.c.c.c.c.c.c.c.c.c.c.c.c.c.c.c.c.K b _ :XiXiX.XL.%X~ U 3.: V.%X%XL.~.dXgXD.< c.c.c.c.c.c.c.c.c.c.c.c.c.c.c.c.c.c.c.c.",
"c.c.c.c.c.c.c.c.c.c.c.c.c.c.c.c.c.c.c.c.c.c.c.M % N.fXfXdX).F.Y U -.: M..XL.Z.5XgX9X5.c.c.c.c.c.c.c.c.c.c.c.c.c.c.c.c.c.c.c.c.c.",
"c.c.c.c.c.c.c.c.c.c.c.c.c.c.c.c.c.c.c.c.c.c.c.c.w M F.tXyX;Xs.6 U ! a k.Z.Z.oXgXfX].& c.c.c.c.c.c.c.c.c.c.c.c.c.c.c.c.c.c.c.c.c.",
"c.c.c.c.c.c.c.c.c.c.c.c.c.c.c.c.c.c.c.c.c.c.c.c.< 8 p.=X'./.y.: h ! ! p 8.4XgXdXeX6.c.c.c.c.c.c.c.c.c.c.c.c.c.c.c.c.c.c.c.c.c.c.",
"c.c.c.c.c.c.c.c.c.c.c.c.c.c.c.c.c.c.c.c.c.c.c.c.o < &.u.u.y.{ 6 h k ! p d.dXyXyX#Xy c.c.c.c.c.c.c.c.c.c.c.c.c.c.c.c.c.c.c.c.c.c.",
"c.c.c.c.c.c.c.c.c.c.c.c.c.c.c.c.c.c.c.c.c.c.c.c.c.c.T / ( O.6 s h k ! d -.=XyXtXT.c.c.c.c.c.c.c.c.c.c.c.c.c.c.c.c.c.c.c.c.c.c.c.",
"c.c.c.c.c.c.c.c.c.c.c.c.c.c.c.c.c.c.c.c.c.c.c.c.c.c.c.V A S d 3 h ~ j d { f.u.f.<.c.c.c.c.c.c.c.c.c.c.c.c.c.c.c.c.c.c.c.c.c.c.c.",
"c.c.c.c.c.c.c.c.c.c.c.c.c.c.c.c.c.c.c.c.c.c.c.c.c.c.c.c.4 u ; 4 ~ 8.j s R r.i.' c.c.c.c.c.c.c.c.c.c.c.c.c.c.c.c.c.c.c.c.c.c.c.c.",
"c.c.c.c.c.c.c.c.c.c.c.c.c.c.c.c.c.c.c.c.c.c.c.c.c.c.c.c.. O 3 < =.k.f s F m ^ m c.c.c.c.c.c.c.c.c.c.c.c.c.c.c.c.c.c.c.c.c.c.c.c.",
"c.c.c.c.c.c.c.c.c.c.c.c.c.c.c.c.c.c.c.c.c.c.c.c.c.c.c.c.c.i E 8 =.z.J s 0 K T c.c.c.c.c.c.c.c.c.c.c.c.c.c.c.c.c.c.c.c.c.c.c.c.c.",
"c.c.c.c.c.c.c.c.c.c.c.c.c.c.c.c.c.c.c.c.c.c.c.c.c.c.c.c.c.c.c.u 1.z.~ s t c.c.c.c.c.c.c.c.c.c.c.c.c.c.c.c.c.c.c.c.c.c.c.c.c.c.c.",
"c.c.c.c.c.c.c.c.c.c.c.c.c.c.c.c.c.c.c.c.c.c.c.c.c.c.c.c.c.c.c.< ,.S.L s $ c.c.c.c.c.c.c.c.c.c.c.c.c.c.c.c.c.c.c.c.c.c.c.c.c.c.c.",
"c.c.c.c.c.c.c.c.c.c.c.c.c.c.c.c.c.c.c.c.c.c.c.c.c.c.c.c.c.c.c.c.Q s.$.h t c.c.c.c.c.c.c.c.c.c.c.c.c.c.c.c.c.c.c.c.c.c.c.c.c.c.c.",
"c.c.c.c.c.c.c.c.c.c.c.c.c.c.c.c.c.c.c.c.c.c.c.c.c.c.c.c.c.c.c.c.g 3 Q 4 i c.c.c.c.c.c.c.c.c.c.c.c.c.c.c.c.c.c.c.c.c.c.c.c.c.c.c.",
"c.c.c.c.c.c.c.c.c.c.c.c.c.c.c.c.c.c.c.c.c.c.c.c.c.c.c.c.c.c.c.c.c.g g.G c.c.c.c.c.c.c.c.c.c.c.c.c.c.c.c.c.c.c.c.c.c.c.c.c.c.c.c.",
"c.c.c.c.c.c.c.c.c.c.c.c.c.c.c.c.c.c.c.c.c.c.c.c.c.c.c.c.c.c.c.c.c.K A.F c.c.c.c.c.c.c.c.c.c.c.c.c.c.c.c.c.c.c.c.c.c.c.c.c.c.c.c.",
"c.c.c.c.c.c.c.c.c.c.c.c.c.c.c.c.c.c.c.c.c.c.c.c.c.c.c.c.c.c.c.c.c.H A.^ c.c.c.c.c.c.c.c.c.c.c.c.c.c.c.c.c.c.c.c.c.c.c.c.c.c.c.c.",
"c.c.c.c.c.c.c.c.c.c.c.c.c.c.c.c.c.c.c.c.c.c.c.c.c.c.c.c.c.c.c.c.c.F T.I c.c.c.c.c.c.c.c.c.c.c.c.c.c.c.c.c.c.c.c.c.c.c.c.c.c.c.c.",
"c.c.c.c.c.c.c.c.c.c.c.c.c.c.c.c.c.c.c.c.c.c.c.c.c.c.c.c.c.c.c.c.c.N S.T c.c.c.c.c.c.c.c.c.c.c.c.c.c.c.c.c.c.c.c.c.c.c.c.c.c.c.c.",
"c.c.c.c.c.c.c.c.c.c.c.c.c.c.c.c.c.c.c.c.c.c.c.c.c.c.c.c.c.c.c.c.c.c.;.i c.c.c.c.c.c.c.c.c.c.c.c.c.c.c.c.c.c.c.c.c.c.c.c.c.c.c.c.",
"c.c.c.c.c.c.c.c.c.c.c.c.c.c.c.c.c.c.c.c.c.c.c.c.c.c.c.c.c.c.c.c.c.c.c.c.c.c.c.c.c.c.c.c.c.c.c.c.c.c.c.c.c.c.c.c.c.c.c.c.c.c.c.c.",
"c.c.c.c.c.c.c.c.c.c.c.c.c.c.c.c.c.c.c.c.c.c.c.c.c.c.c.c.c.c.c.c.c.c.c.c.c.c.c.c.c.c.c.c.c.c.c.c.c.c.c.c.c.c.c.c.c.c.c.c.c.c.c.c.",
"c.c.c.c.c.c.c.c.c.c.c.c.c.c.c.c.c.c.c.c.c.c.c.c.c.c.c.c.c.c.c.c.c.c.c.c.c.c.c.c.c.c.c.c.c.c.c.c.c.c.c.c.c.c.c.c.c.c.c.c.c.c.c.c."
};
