/* XPM */
static char *front2_milka[] = {
/* columns rows colors chars-per-pixel */
"64 64 223 2 ",
"   c #08000D",
".  c #12070B",
"X  c #0E0016",
"o  c #1A081A",
"O  c #1F131C",
"+  c #290400",
"@  c #231619",
"#  c #1E0925",
"$  c #1D1423",
"%  c #290C27",
"&  c #25042B",
"*  c #250C2B",
"=  c #36082A",
"-  c #241423",
";  c #271927",
":  c #2C152A",
">  c #2E182D",
",  c #31152D",
"<  c #3C1429",
"1  c #331C2D",
"2  c #290837",
"3  c #360C37",
"4  c #2B1433",
"5  c #2B1834",
"6  c #331434",
"7  c #3C1236",
"8  c #351C3C",
"9  c #381839",
"0  c #2D2439",
"q  c #302834",
"w  c #372639",
"e  c #42191F",
"r  c #532A1A",
"t  c #451327",
"y  c #431339",
"u  c #431B3D",
"i  c #551D3A",
"p  c #51272E",
"a  c #472F3F",
"s  c #57283B",
"d  c #693836",
"f  c #7E5738",
"g  c #360A43",
"h  c #2F1643",
"j  c #351C44",
"k  c #3C1B43",
"l  c #381847",
"z  c #3D144C",
"x  c #3C1D52",
"c  c #392646",
"v  c #471647",
"b  c #4E1950",
"n  c #491C55",
"m  c #48264A",
"M  c #572846",
"N  c #53244C",
"B  c #47354A",
"V  c #583549",
"C  c #482654",
"Z  c #4B2B53",
"A  c #4C245B",
"S  c #552451",
"D  c #572C57",
"F  c #4C3454",
"G  c #523354",
"H  c #543A53",
"J  c #583859",
"K  c #632F4E",
"L  c #6B3542",
"P  c #693948",
"I  c #713A45",
"U  c #653A58",
"Y  c #4D2862",
"T  c #532B64",
"R  c #55256A",
"E  c #592C6B",
"W  c #593A64",
"Q  c #5A3469",
"!  c #5D2A73",
"~  c #5C3371",
"^  c #632C67",
"/  c #65346B",
"(  c #663869",
")  c #612B79",
"_  c #643475",
"`  c #643A73",
"'  c #6A3D74",
"]  c #6A3C7A",
"[  c #713A77",
"{  c #58435C",
"}  c #684458",
"|  c #764C50",
" . c #784852",
".. c #5D4766",
"X. c #5D4A6C",
"o. c #6B426A",
"O. c #654A6B",
"+. c #74476C",
"@. c #65566A",
"#. c #694777",
"$. c #734974",
"%. c #6D5473",
"&. c #765778",
"*. c #716172",
"=. c #936658",
"-. c #885A72",
";. c #966A6A",
":. c #84687C",
">. c #B48C68",
",. c #C39B6A",
"<. c #6B3882",
"1. c #733B88",
"2. c #754885",
"3. c #7C5A89",
"4. c #7F718B",
"5. c #835187",
"6. c #814D96",
"7. c #865A93",
"8. c #856488",
"9. c #8B788A",
"0. c #9E778A",
"q. c #896796",
"w. c #936B9F",
"e. c #88729B",
"r. c #997695",
"t. c #A27F91",
"y. c #9473AB",
"u. c #997AA9",
"i. c #A77BA4",
"p. c #A579B4",
"a. c #FF00FF",
"s. c #9C8899",
"d. c #9A9798",
"f. c #A3869A",
"g. c #BDAB9D",
"h. c #9884A4",
"j. c #A889A8",
"k. c #B18AAC",
"l. c #A897A7",
"z. c #B99BAC",
"x. c #A88BB7",
"c. c #AD8BB6",
"v. c #B88AB8",
"b. c #AC95B3",
"n. c #BC96B7",
"m. c #A7A3A6",
"M. c #B5A3AB",
"N. c #B8A5B8",
"B. c #BDB7BB",
"V. c #DDB38B",
"C. c #C498AA",
"Z. c #C19EBC",
"A. c #D5A8AF",
"S. c #CAB5B7",
"D. c #D4B7B9",
"F. c #E5B9B5",
"G. c #F4C999",
"H. c #FFE5AA",
"J. c #AF81C1",
"K. c #B999C3",
"L. c #BDA3C2",
"P. c #BCADC2",
"I. c #BEA5CC",
"U. c #BCB5C7",
"Y. c #C89BCC",
"T. c #C8ACC5",
"R. c #C3ABCB",
"E. c #D4AACC",
"W. c #C8B7C8",
"Q. c #D7BACA",
"!. c #CBA6D7",
"~. c #D0A9D8",
"^. c #CCB2D8",
"/. c #D3BDD3",
"(. c #D3B3DA",
"). c #EBBBCC",
"_. c #DAB8E5",
"`. c #E7BCE5",
"'. c #C8C6CA",
"]. c #D8C7CA",
"[. c #CBC6D3",
"{. c #D5C8D7",
"}. c #D3D1D2",
"|. c #DAD9DF",
" X c #E3D0C9",
".X c #E5C9D8",
"XX c #F3CED7",
"oX c #EDD4D5",
"OX c #E8DAD8",
"+X c #F9D8DA",
"@X c #EEE1CE",
"#X c #F7E3D8",
"$X c #DBCBE5",
"%X c #DDD7E2",
"&X c #E2C3E5",
"*X c #EACEE2",
"=X c #F2CDE4",
"-X c #E8D8E8",
";X c #F9D7E8",
":X c #EACDF7",
">X c #F1C9FB",
",X c #EAD9F4",
"<X c #F5DAF8",
"1X c #FDDAFC",
"2X c #EAE5E8",
"3X c #F9EBEA",
"4X c #F3F6EB",
"5X c #FBFCEF",
"6X c #F5E7F2",
"7X c #FDECF6",
"8X c #F6E3FE",
"9X c #FCE3FE",
"0X c #F7EAFF",
"qX c #FDEDFE",
"wX c #EDF0F2",
"eX c #F4F4F2",
"rX c #FDF6F4",
"tX c #F6FBF3",
"yX c #FDFCF4",
"uX c #F6F4FA",
"iX c #FEF4FD",
"pX c #F5FCF8",
"aX c #FEFCFD",
/* pixels */
"a.a.a.a.a.a.a.a.a.a.a.a.a.a.a.a.a.a.a.a.a.a.a.a.a.a.a.a.a.a.a.a.a.a.a.a.a.a.a.a.a.a.a.a.a.a.a.a.a.a.a.a.a.a.a.a.a.a.a.a.a.a.a.a.",
"a.a.a.a.a.a.a.a.a.a.a.a.a.a.a.a.a.a.a.a.a.a.a.a.a.a.a.a.a.a.a.a.a.a.a.a.a.a.a.a.a.a.a.a.a.a.a.a.a.a.a.a.a.a.a.a.a.a.a.a.a.a.a.a.",
"a.a.a.a.a.a.a.a.a.a.a.a.a.a.a.a.a.a.a.a.a.a.a.a.a.a.a.a.a.a.a.a.a.a.a.a.a.a.a.a.a.a.a.a.a.a.a.a.a.a.a.a.a.a.a.a.a.a.a.a.a.a.a.a.",
"a.a.a.a.a.a.a.a.a.a.a.a.a.a.a.a.a.a.a.a.a.a.a.a.a.a.a.a.a.a.a.a.a.a.a.a.a.a.a.a.a.a.a.a.a.a.a.a.a.a.a.a.a.a.a.a.a.a.a.a.a.a.a.a.",
"a.a.a.a.a.a.a.a.a.a.a.a.a.a.a.a.a.a.B ; a.a.a.a.a.a.a.a.a.a.a.a.a.a.a.a.a.a.a.a.a.a.a.a.a.a.a.a.a.a.a.a.a.a.a.a.a.a.a.a.a.a.a.a.",
"a.a.a.a.a.a.a.a.a.a.a.a.a.a.a.a.a.* w * @ a.a.a.a.a.a.a.O ; % : O O   $ O O a.a.a.a.a.a.a.a.O a.a.a.a.a.a.a.a.a.a.a.a.a.a.a.a.a.",
"a.a.a.a.a.a.a.a.a.a.a.a.a.a.a.a.a.2 &.H ; q @ a.a.a.a.q M.[./.Q.S.'.{.^.U.O O a.a.a.a.a.a.m O.: a.a.a.a.a.a.a.a.a.a.a.a.a.a.a.a.",
"a.a.a.a.a.a.a.a.a.a.a.a.a.a.a.a.4 C 2.J { *.@.; a.a.q m.aXaXiXiXaXpXaXpXU.@.@.O a.a.: 6 c G 7., a.a.a.a.a.a.a.a.a.a.a.a.a.a.a.a.",
"a.a.a.a.a.a.a.a.a.a.a.a.a.a.a.a.8 l Q #.7.3 * & 5 o U.aXrXrX0XaXrXiXaXaXaXaXs.. o , 7 3 2.2.] 6 a.a.a.a.a.a.a.a.a.a.a.a.a.a.a.a.",
"a.a.a.a.a.a.a.a.a.a.a.a.a.a.a.a.: c ~ _ ] 7.~.~.^.W.6X4XyXwXaXuXaXaX%XuXuXaX}.N.{.8.2.2.2._ ] , a.a.a.a.a.a.a.a.a.a.a.a.a.a.a.a.",
"a.a.a.a.a.a.a.a.a.a.a.a.a.a.a.a.> 8 D ~ R 3.J._.$XaXyXyXyX'.[.wXaXaX2XU.aXaXaXiX*Xw.7.6.[ ) E > a.a.a.a.a.a.a.a.a.a.a.a.a.a.a.a.",
"a.a.a.a.a.a.a.a.a.a.a.a.a.a.a.a.a.B & C <.! ! R { OXyX5X4XyXd.'.aX4X2Xd.aXrXrXeX{ W _ ! <.) 2 a.a.a.a.a.a.a.a.a.a.a.a.a.a.a.a.a.",
"a.a.a.a.a.a.a.a.a.a.a.a.a.a.a.a.a.a.F 2 x 2.! 3.*XrXyXyXtXwXpX|.d.aXd.m.aXaXaXeXaX&.Y 1.Y v a.a.a.a.a.a.a.a.a.a.a.a.a.a.a.a.a.a.",
"a.a.a.a.a.a.a.a.a.a.a.a.a.a.a.a.a.a.a.* l A A b.iXrX5XyXaXaXeX2Xd.m.N.iXaXaXyXaXuXP.$.R g a.a.a.a.a.a.a.a.a.a.a.a.a.a.a.a.a.a.a.",
"a.a.a.a.a.a.a.a.a.a.a.a.a.a.a.a.a.a.a.@ 8 * G qXaXpXpXaXaXpXaXrX2XB.iXaXuXaXaXeXaXqXx.2 3 a.a.a.a.a.a.a.a.a.a.a.a.a.a.a.a.a.a.a.",
"a.a.a.a.a.a.a.a.a.a.a.a.a.a.a.a.a.a.a.o , : s.iXaXaXpXaXaXaXyXyXyXaXiXuXaXuXaXpXiXaXN.& a.a.a.a.a.a.a.a.a.a.a.a.a.a.a.a.a.a.a.a.",
"a.a.a.a.a.a.a.a.a.a.a.a.a.a.a.a.a.a.a.a.a.: l.rXeXpXaXaXpXaXaXtXaXaXaXaXuXaXpXpX4XaXZ.% a.a.a.a.a.a.a.a.a.a.a.a.a.a.a.a.a.a.a.a.",
"a.a.a.a.a.a.a.a.a.a.a.a.a.a.a.a.a.a.a.a.a.% f.rXaXwX%X%X-XaXeXpXpXaXtXrXiX,X%X}.aXyXW.% a.a.a.a.a.a.a.a.a.a.a.a.a.a.a.a.a.a.a.a.",
"a.a.a.a.a.a.a.a.a.a.a.a.a.a.a.a.a.a.a.a.a., M.aXaX'.$ $ *.aXuXaXpXpXyXyXiXB $ j -XaXN., a.a.a.a.a.a.a.a.a.a.a.a.a.a.a.a.a.a.a.a.",
"a.a.a.a.a.a.a.a.a.a.a.a.a.a.a.a.a.a.a.a.a.: j.-XaX}.q $ 4.aXiXuXpX5X4XaXiXB 5 c 0X8Xn.: a.a.a.a.a.a.a.a.a.a.a.a.a.a.a.a.a.a.a.a.",
"a.a.a.a.a.a.a.a.a.a.a.a.a.a.> > a.a.a.a.a.5 h.9XqX{.o o &.iXqXrXaXrXyXyXiXw X 0 0X8XT.% a.a.a.a.a.a.a.a.a.a.a.a.a.a.a.a.a.a.a.a.",
"a.a.a.a.a.a.a.a.a.a.a.a.; 9 Z G a.a.a.a.a.- F 9.qX8XP.b.{.9XW.Q.'.].}. X3XS.R.P.0Xh...a.a.a.a.a.a.a.a.a.a.a.a.a.a.a.a.a.a.a.a.a.",
"a.a.a.a.a.a.a.a.a.a.a.; 1 9 o.Q Z a.a.a.a.; * Z &XiX<XaX].M.oX XoX+X X@Xg.#XaX7X0X%.* a.a.a.a.a.a.a.a.a.a.a.a.a.a.a.a.a.a.a.a.a.",
"a.a.a.a.a.a.a.a.a.a.a.1 6 N ] ' C m q a.a.a.8 9 8.1XrXW..X+X+X+X+X#X@X#X#XD.].7X&.c H a.a.a.a.a.a.a.a.a.a.a.a.a.a.a.a.a.a.a.a.a.",
"a.a.a.a.a.a.a.a.a.a.a.> k A ) <.1.A ; a.a.$ 4 C D ( ^.R.;X;XXX+XXX=X+XoX;XXXz.r.6 9 a.a.a.a.a.a.a.a.a.a.a.a.a.a.a.a.a.a.a.a.a.a.",
"a.a.a.a.a.a.a.a.a.a.a.5 j T ! 1.<.Y c a.a.c 4 Y.w.2 x q.>X;XC.+X;X3XoXC.1X`.D & k.r.J a.a.a.a.a.a.a.a.a.a.a.a.a.a.a.a.a.a.a.a.a.",
"a.a.a.a.a.a.a.a.a.a.a.a.8 ` ! ! 1.A 0 a.a.@.C Y.!.J.l x q.`.).XXA.F.D.E.Y.E g u.:XT., a.a.a.a.a.a.a.a.a.a.a.a.a.a.a.a.a.a.a.a.a.",
"a.a.a.a.a.a.a.a.a.a.a.a.j Q E ! ) z a.a.a.O r._.<XiXe.h g M t d d r r e y g p.:X<X.X:.1 a.a.a.a.a.a.a.a.a.a.a.a.a.a.a.a.a.a.a.a.",
"a.a.a.a.a.a.a.a.a.a.a.a.a.& Y E v 9 a.a.a.@ f.qXiXqX0Xb.%.< e =.,.,.>.f < r.,XuXaX6XN.: a.a.a.a.a.a.a.a.a.a.a.a.a.a.a.a.a.a.a.a.",
"a.a.a.a.a.a.a.a.a.a.a.a.a.O.& T q.o a.a.a.% s.qXrXaXaX%XT.k.| F.G.G.H.>.| =X-XaXaXiXN.* a.a.a.a.a.a.a.a.a.a.a.a.a.a.a.a.a.a.a.a.",
"a.a.a.a.a.a.a.a.a.a.a.a.a.a.a.Z u.Z 5 C Z h h.qXaXtXrX[.N.qXP | =.f V.>.;.:.l.aXeXaXR.h a.a.a.a.a.a.a.a.a.a.a.a.a.a.a.a.a.a.a.a.",
"a.a.a.a.a.a.a.a.a.a.a.a.a.a.a.> 8.`.c # & h c.iXrXyXaX-X9.Y.M p | + >.;.-.} 9.aXeXaXI.2 a.a.a.a.a.a.a.a.a.a.a.a.a.a.a.a.a.a.a.a.",
"a.a.a.a.a.a.a.a.a.a.a.a.a.a.a.a.* r.c.$.] x 8.qXrX5XaXiXR.M M M } < p -.P E.rXrXpXpX^.2 a.a.a.a.a.a.a.a.a.a.a.a.a.a.a.a.a.a.a.a.",
"a.a.a.a.a.a.a.a.a.a.a.a.a.a.a.a.a.# &.1X~.z l /.rXrXaX7XiX&.& K U % 0.z.0.<X7XaXpX,X#.x a.a.a.a.a.a.a.a.a.a.a.a.a.a.a.a.a.a.a.a.",
"a.a.a.a.a.a.a.a.a.a.a.a.a.a.a.a.a.a.1 C n z T F N.iXiXqXx.( / / M y N -.1XqXiXuX0Xx.~ Y a.a.a.a.a.a.a.a.a.a.a.a.a.a.a.a.a.a.a.a.",
"a.a.a.a.a.a.a.a.a.a.a.a.a.a.a.a.a.a.a.{ C l Y u.3.R.0X^.W #.5.^ M 7 ^ +._.qXqXiXU.#.E T a.a.a.a.a.a.a.a.a.a.a.a.a.a.a.a.a.a.a.a.",
"a.a.a.a.a.a.a.a.a.a.a.a.a.a.a.a.a.a.a.a.a.4 y.qXx.#.I.3.#.' / $.( y ^ [ 2.>X8Xb.&...] a.a.a.a.a.a.a.a.a.a.a.a.a.a.a.a.a.a.a.a.a.",
"a.a.a.a.a.a.a.a.a.a.a.a.a.a.a.a.a.a.a.a.a.* u.e.<X,Xc x ( [ v K -.y S 2.2.q.@.F qXK.o.a.a.a.a.a.a.a.a.a.a.a.a.a.a.a.a.a.a.a.a.a.",
"a.a.a.a.a.a.a.a.a.a.a.a.a.a.a.a.a.a.a.a.a.B Z W L.qXR.H D ( v U +.= / / g _ x.I.qX9X@.a.a.a.a.a.a.a.a.a.a.a.a.a.a.a.a.a.a.a.a.a.",
"a.a.a.a.a.a.a.a.a.a.a.a.a.a.a.a.a.a.a.a.a.H w %.{.iX.X/..XE.N S ( u 3 S 5.&X&X,XqXiX[.a.a.a.a.a.a.a.a.a.a.a.a.a.a.a.a.a.a.a.a.a.",
"a.a.a.a.a.a.a.a.a.a.a.a.a.a.a.a.a.a.a.a.a.; 4 R.qX7X3XD.).(.7 N $.= 7.E.;X=Xl.;XaX,X*.a.a.a.a.a.a.a.a.a.a.a.a.a.a.a.a.a.a.a.a.a.",
"a.a.a.a.a.a.a.a.a.a.a.a.a.a.a.a.a.a.a.a.a.a.* @.qXiX7X3Xz.=XN N +.= Z.1XQ.Q.D.3XiX,Xa.a.a.a.a.a.a.a.a.a.a.a.a.a.a.a.a.a.a.a.a.a.",
"a.a.a.a.a.a.a.a.a.a.a.a.a.a.a.a.a.a.a.a.a.a.$ 8 @.8XqX<X`.v.u M U = 7.Z.S.@X5XrX0Xl.a.a.a.a.a.a.a.a.a.a.a.a.a.a.a.a.a.a.a.a.a.a.",
"a.a.a.a.a.a.a.a.a.a.a.a.a.a.a.a.a.a.a.a.a.a.  ..x h._._.>Xi.< s I t i.z.S.yX#XaX0X{ a.a.a.a.a.a.a.a.a.a.a.a.a.a.a.a.a.a.a.a.a.a.",
"a.a.a.a.a.a.a.a.a.a.a.a.a.a.a.a.a.a.a.a.a.a.a.B B c u.y.p./ < i I L = $.iXrXrXaX$XX.a.a.a.a.a.a.a.a.a.a.a.a.a.a.a.a.a.a.a.a.a.a.",
"a.a.a.a.a.a.a.a.a.a.a.a.a.a.a.a.a.a.a.a.a.a.a.$   8 g z g v t L I I = &.qX2XiXiXh.a.a.a.a.a.a.a.a.a.a.a.a.a.a.a.a.a.a.a.a.a.a.a.",
"a.a.a.a.a.a.a.a.a.a.a.a.a.a.a.a.a.a.a.a.a.a.a.a.@ { H v b v y i I L y +.9XiXqX8X4.a.a.a.a.a.a.a.a.a.a.a.a.a.a.a.a.a.a.a.a.a.a.a.",
"a.a.a.a.a.a.a.a.a.a.a.a.a.a.a.a.a.a.a.a.a.a.a.a.a.a.1 9 D b b M  .L y ^ j.k.u.e.j a.a.a.a.a.a.a.a.a.a.a.a.a.a.a.a.a.a.a.a.a.a.a.",
"a.a.a.a.a.a.a.a.a.a.a.a.a.a.a.a.a.a.a.a.a.a.a.a.a.a.. @ :.:.3 V | L v v [ _ / W a.a.a.a.a.a.a.a.a.a.a.a.a.a.a.a.a.a.a.a.a.a.a.a.",
"a.a.a.a.a.a.a.a.a.a.a.a.a.a.a.a.a.a.a.a.a.a.a.a.a.a.a.a.a.a 4 $.f.P b b ^ [ D j a.a.a.a.a.a.a.a.a.a.a.a.a.a.a.a.a.a.a.a.a.a.a.a.",
"a.a.a.a.a.a.a.a.a.a.a.a.a.a.a.a.a.a.a.a.a.a.a.a.a.a.a.a.a.a.6 &.0.V b g v n 8 a.a.a.a.a.a.a.a.a.a.a.a.a.a.a.a.a.a.a.a.a.a.a.a.a.",
"a.a.a.a.a.a.a.a.a.a.a.a.a.a.a.a.a.a.a.a.a.a.a.a.a.a.a.a.a.a.4 &.t.V 7 C a.a.a.a.a.a.a.a.a.a.a.a.a.a.a.a.a.a.a.a.a.a.a.a.a.a.a.a.",
"a.a.a.a.a.a.a.a.a.a.a.a.a.a.a.a.a.a.a.a.a.a.a.a.a.a.a.a.a.a.% &.t.U 6 a.a.a.a.a.a.a.a.a.a.a.a.a.a.a.a.a.a.a.a.a.a.a.a.a.a.a.a.a.",
"a.a.a.a.a.a.a.a.a.a.a.a.a.a.a.a.a.a.a.a.a.a.a.a.a.a.a.a.a.a.a.O.t.J 6 a.a.a.a.a.a.a.a.a.a.a.a.a.a.a.a.a.a.a.a.a.a.a.a.a.a.a.a.a.",
"a.a.a.a.a.a.a.a.a.a.a.a.a.a.a.a.a.a.a.a.a.a.a.a.a.a.a.a.a.a.a.a.9 U C a.a.a.a.a.a.a.a.a.a.a.a.a.a.a.a.a.a.a.a.a.a.a.a.a.a.a.a.a.",
"a.a.a.a.a.a.a.a.a.a.a.a.a.a.a.a.a.a.a.a.a.a.a.a.a.a.a.a.a.a.a.a.u &.a.a.a.a.a.a.a.a.a.a.a.a.a.a.a.a.a.a.a.a.a.a.a.a.a.a.a.a.a.a.",
"a.a.a.a.a.a.a.a.a.a.a.a.a.a.a.a.a.a.a.a.a.a.a.a.a.a.a.a.a.a.a.a.u k.a.a.a.a.a.a.a.a.a.a.a.a.a.a.a.a.a.a.a.a.a.a.a.a.a.a.a.a.a.a.",
"a.a.a.a.a.a.a.a.a.a.a.a.a.a.a.a.a.a.a.a.a.a.a.a.a.a.a.a.a.a.a.a.a.v.a.a.a.a.a.a.a.a.a.a.a.a.a.a.a.a.a.a.a.a.a.a.a.a.a.a.a.a.a.a.",
"a.a.a.a.a.a.a.a.a.a.a.a.a.a.a.a.a.a.a.a.a.a.a.a.a.a.a.a.a.a.a.a.a.K.a.a.a.a.a.a.a.a.a.a.a.a.a.a.a.a.a.a.a.a.a.a.a.a.a.a.a.a.a.a.",
"a.a.a.a.a.a.a.a.a.a.a.a.a.a.a.a.a.a.a.a.a.a.a.a.a.a.a.a.a.a.a.a.a.c.a.a.a.a.a.a.a.a.a.a.a.a.a.a.a.a.a.a.a.a.a.a.a.a.a.a.a.a.a.a.",
"a.a.a.a.a.a.a.a.a.a.a.a.a.a.a.a.a.a.a.a.a.a.a.a.a.a.a.a.a.a.a.a.a.a.a.a.a.a.a.a.a.a.a.a.a.a.a.a.a.a.a.a.a.a.a.a.a.a.a.a.a.a.a.a.",
"a.a.a.a.a.a.a.a.a.a.a.a.a.a.a.a.a.a.a.a.a.a.a.a.a.a.a.a.a.a.a.a.a.a.a.a.a.a.a.a.a.a.a.a.a.a.a.a.a.a.a.a.a.a.a.a.a.a.a.a.a.a.a.a.",
"a.a.a.a.a.a.a.a.a.a.a.a.a.a.a.a.a.a.a.a.a.a.a.a.a.a.a.a.a.a.a.a.a.a.a.a.a.a.a.a.a.a.a.a.a.a.a.a.a.a.a.a.a.a.a.a.a.a.a.a.a.a.a.a.",
"a.a.a.a.a.a.a.a.a.a.a.a.a.a.a.a.a.a.a.a.a.a.a.a.a.a.a.a.a.a.a.a.a.a.a.a.a.a.a.a.a.a.a.a.a.a.a.a.a.a.a.a.a.a.a.a.a.a.a.a.a.a.a.a."
};
