/* XPM */
static char *front1_milka[] = {
/* columns rows colors chars-per-pixel */
"64 64 230 2 ",
"   c #17061B",
".  c #1B121A",
"X  c #22091F",
"o  c #22151D",
"O  c #1D0626",
"+  c #1D0D24",
"@  c #1C1428",
"#  c #1F0630",
"$  c #290626",
"%  c #240D23",
"&  c #230B2B",
"*  c #2A0E2E",
"=  c #340929",
"-  c #231224",
";  c #241429",
":  c #2B142D",
">  c #291B29",
",  c #33172B",
"<  c #2A0637",
"1  c #2B0C33",
"2  c #320C34",
"3  c #380A36",
"4  c #3C0F39",
"5  c #2D1233",
"6  c #2B1737",
"7  c #351534",
"8  c #3D1436",
"9  c #331C35",
"0  c #32163C",
"q  c #39163A",
"w  c #341B3B",
"e  c #391A3D",
"r  c #2B2328",
"t  c #33252D",
"y  c #35263D",
"u  c #372838",
"i  c #3C303C",
"p  c #490E32",
"a  c #45183B",
"s  c #45243C",
"d  c #56283D",
"f  c #632E3E",
"g  c #6C363D",
"h  c #330E42",
"j  c #3A0B43",
"k  c #331344",
"l  c #3C1344",
"z  c #3C1B44",
"x  c #3A1949",
"c  c #3D1C52",
"v  c #3B2345",
"b  c #431A44",
"n  c #471849",
"m  c #461A54",
"M  c #43234D",
"N  c #462C4C",
"B  c #482948",
"V  c #572A47",
"C  c #493448",
"Z  c #58364C",
"A  c #4A2454",
"S  c #4A2A52",
"D  c #4A2857",
"F  c #532655",
"G  c #542A53",
"H  c #5B2D55",
"J  c #5A2C5C",
"K  c #4A3556",
"L  c #54345D",
"P  c #593759",
"I  c #622A4A",
"U  c #67364A",
"Y  c #743C42",
"T  c #662C5C",
"R  c #663958",
"E  c #4C2863",
"W  c #562D62",
"Q  c #5D2E6B",
"!  c #563464",
"~  c #5B3365",
"^  c #5B3D63",
"/  c #5B326C",
"(  c #5A3C6B",
")  c #572C75",
"_  c #5A3174",
"`  c #5B3777",
"'  c #612D6D",
"]  c #623564",
"[  c #673A65",
"{  c #633369",
"}  c #643C6D",
"|  c #622F74",
" . c #663777",
".. c #643A74",
"X. c #574857",
"o. c #694257",
"O. c #5D4467",
"+. c #5E5663",
"@. c #694265",
"#. c #65436A",
"$. c #68486A",
"%. c #724D6D",
"&. c #655667",
"*. c #654274",
"=. c #6A4375",
"-. c #6A437B",
";. c #6D497E",
":. c #714575",
">. c #734978",
",. c #6C5378",
"<. c #735777",
"1. c #7C5C7C",
"2. c #766B73",
"3. c #79627A",
"4. c #834F72",
"5. c #8B6578",
"6. c #916D79",
"7. c #703C84",
"8. c #6B4180",
"9. c #6E4B85",
"0. c #774A84",
"q. c #795985",
"w. c #744C95",
"e. c #7C6584",
"r. c #815887",
"t. c #835993",
"y. c #846788",
"u. c #936E8E",
"i. c #887589",
"p. c #9D788E",
"a. c #866891",
"s. c #977998",
"d. c #A67E93",
"f. c #8E66A2",
"g. c #987BA5",
"h. c #A37AA6",
"j. c #FF00FF",
"k. c #898187",
"l. c #8F918E",
"z. c #96839D",
"x. c #939398",
"c. c #AA8599",
"v. c #B78B9E",
"b. c #9C86A5",
"n. c #9C9BA1",
"m. c #A58AA8",
"M. c #A48CA9",
"N. c #A991A9",
"B. c #BC9AAD",
"V. c #A887B4",
"C. c #B38BB7",
"Z. c #A995B4",
"A. c #B297B8",
"S. c #BBA5BE",
"D. c #BAB8B8",
"F. c #C298AB",
"G. c #CA9CB6",
"H. c #C8AEB9",
"J. c #D4A8BA",
"K. c #C7B6BB",
"L. c #C7C3BD",
"P. c #B89EC3",
"I. c #BB98D0",
"U. c #BAA5C6",
"Y. c #BEB3C4",
"T. c #C39BCD",
"R. c #C8A8C7",
"E. c #DFAECC",
"W. c #CAB9C8",
"Q. c #D9B9C7",
"!. c #C9ABD3",
"~. c #DBADD4",
"^. c #CDB7D5",
"/. c #D5BAD8",
"(. c #E3B5CA",
"). c #EFBED7",
"_. c #D5ACE4",
"`. c #DBB8E7",
"'. c #E2BEE4",
"]. c #C3C1C7",
"[. c #D3C8CC",
"{. c #CCC8D2",
"}. c #D2C3D5",
"|. c #DBCCD7",
" X c #D3D6DB",
".X c #DBD4DC",
"XX c #DBDADC",
"oX c #E3C3CB",
"OX c #E7C7D8",
"+X c #F7CBDA",
"@X c #ECD9DB",
"#X c #F9D7DB",
"$X c #F3E0D9",
"%X c #DBC4E4",
"&X c #DCC9E6",
"*X c #DDD6E5",
"=X c #DFCBF0",
"-X c #E7C8E6",
";X c #F8CBE6",
":X c #E7D7E7",
">X c #FCD3E3",
",X c #FCD7E7",
"<X c #F5DEEE",
"1X c #FFDDEC",
"2X c #EACEFF",
"3X c #ECD6F5",
"4X c #FBD6F8",
"5X c #E7E5E5",
"6X c #FAE3EC",
"7X c #F3EBED",
"8X c #ECF1EB",
"9X c #F2F3EC",
"0X c #F4FCEC",
"qX c #FBF9EF",
"wX c #ECE5F6",
"eX c #F3E3F4",
"rX c #F6ECF4",
"tX c #F3E2FC",
"yX c #FCE4FE",
"uX c #F9EAF8",
"iX c #FDECFE",
"pX c #EFFAF7",
"aX c #F4F2F5",
"sX c #FCF4F4",
"dX c #F5FBF4",
"fX c #FCFDF4",
"gX c #F5F5F9",
"hX c #FEF4FE",
"jX c #F5FDFB",
"kX c #FEFCFD",
/* pixels */
"j.j.j.j.j.j.j.j.j.j.j.j.j.j.j.j.j.j.j.j.j.j.j.j.j.j.j.j.j.j.j.j.j.j.j.j.j.j.j.j.j.j.j.j.j.j.j.j.j.j.j.j.j.j.j.j.j.j.j.j.j.j.j.j.",
"j.j.j.j.j.j.j.j.j.j.j.j.j.j.j.j.j.j.j.j.j.j.j.j.j.j.j.j.j.j.j.j.j.j.j.j.j.j.j.j.j.j.j.j.j.j.j.j.j.j.j.j.j.j.j.j.j.j.j.j.j.j.j.j.",
"j.j.j.j.j.j.j.j.j.j.j.j.j.j.j.j.j.j.j.j.j.j.j.j.j.j.j.j.j.j.j.j.j.j.j.j.j.j.j.j.j.j.j.j.j.j.j.j.j.j.j.j.j.j.j.j.j.j.j.j.j.j.j.j.",
"j.j.j.j.j.j.j.j.j.j.j.j.j.j.j.j.j.j.j.j.j.j.j.j.j.j.j.j.j.j.j.j.j.j.j.j.j.j.j.j.j.j.j.j.j.j.j.j.j.j.j.j.j.j.j.j.j.j.j.j.j.j.j.j.",
"j.j.j.j.j.j.j.j.j.j.j.j.j.j.j.j.j.X.&.j.j.j.j.j.j.j.j.j.j.j.j.j.j.j.j.j.j.j.j.j.j.j.j.j.j.j.j.j.j.j.j.j.j.j.j.j.j.j.j.j.j.j.j.j.",
"j.j.j.j.j.j.j.j.j.j.j.j.j.j.j.j.5 % B e.j.j.j.j.j.j.j.t . . y 9 > r . y y y y j.j.j.j.j.j.j.9 & 5 j.j.j.j.j.j.j.j.j.j.j.j.j.j.j.",
"j.j.j.j.j.j.j.j.j.j.j.j.j.j.j.j.x =.O.P - j.j.j.r 2.r &.-X.X}.*XXXXXXXOXH.i v &.j.j.j.j.j.j.! -.k j.j.j.j.j.j.j.j.j.j.j.j.j.j.j.",
"j.j.j.j.j.j.j.j.j.j.j.j.j.j.j.j.h 0.! e > - j.- i i C {.hXhXkXkXkXgXkXhXW.X.B &.+ j.j.j.5 e -.7.c j.j.j.j.j.j.j.j.j.j.j.j.j.j.j.",
"j.j.j.j.j.j.j.j.j.j.j.j.j.j.j.j.x ' Q t.M   & + O +.iXhXhXhXfXdXkXaXkXgXhXhXU.  ; + ; & M r. ._ k j.j.j.j.j.j.j.j.j.j.j.j.j.j.j.",
"j.j.j.j.j.j.j.j.j.j.j.j.j.j.j.j.j.' { ;.=.V.b.Z.b.^.uXkXjXkXfX0XjXjXXXaXkXeX:Xb.b.i.L $.=...7.| h j.j.j.j.j.j.j.j.j.j.j.j.j.j.j.",
"j.j.j.j.j.j.j.j.j.j.j.j.j.j.j.j.j.] W W 0.I.2XhXgXkXgXfXaXD.8XkXgXfX5X{.hXkXkXhXkXA.,.q.-. .| | k j.j.j.j.j.j.j.j.j.j.j.j.j.j.j.",
"j.j.j.j.j.j.j.j.j.j.j.j.j.j.j.j.j.j.A ../ E ` K b.kXjXfXfX8Xl.XXkXjXdXn.kXaXhXhX2.N O.! .. .m < O j.j.j.j.j.j.j.j.j.j.j.j.j.j.j.",
"j.j.j.j.j.j.j.j.j.j.j.j.j.j.j.j.j.j.5 D _  ./ b.{.kXdX9XdXdX5XXXD.kXW.x.jXjXqXfXW.s.D } ( D x 6 j.j.j.j.j.j.j.j.j.j.j.j.j.j.j.j.",
"j.j.j.j.j.j.j.j.j.j.j.j.j.j.j.j.j.j.j.j.~ } ( /.kX8XfX0X0XkXgX.Xk.:Xn. XjXdXfX9XkXW.D ;.E h e j.j.j.j.j.j.j.j.j.j.j.j.j.j.j.j.j.",
"j.j.j.j.j.j.j.j.j.j.j.j.j.j.j.j.j.j.j.j.j.1 N.hXrXfX0X0XfXdXkX:XW.i. XkXpXdX0XfXsXeX!.W k 1 j.j.j.j.j.j.j.j.j.j.j.j.j.j.j.j.j.j.",
"j.j.j.j.j.j.j.j.j.j.j.j.j.j.j.j.j.j.j.j.j.B -XiXkXfXdXdXfXfXgXkXsXrXkXfXkXdX0XfXfXiXyXL 0 j.j.j.j.j.j.j.j.j.j.j.j.j.j.j.j.j.j.j.",
"j.j.j.j.j.j.j.j.j.j.j.j.j.j.j.j.j.j.j.j.j.1.iXgXjXjXaXhXfXfXdXfXfXfXfXfXfXfX0XfXqXfXhXC 9 j.j.j.j.j.j.j.j.j.j.j.j.j.j.j.j.j.j.j.",
"j.j.j.j.j.j.j.j.j.j.j.j.j.j.j.j.j.j.j.j.j.<.rXkXpXjXkXhXhXqXdXdXkXkXfXfXfXdXkXjXfX7XkXC u j.j.j.j.j.j.j.j.j.j.j.j.j.j.j.j.j.j.j.",
"j.j.j.j.j.j.j.j.j.j.j.j.j.j.j.j.j.j.j.j.j.1.uXsXkXY.m.N.:XfXfXdXjXkXkXdXkXD.x.x.5XkXiXX.; j.j.j.j.j.j.j.j.j.j.j.j.j.j.j.j.j.j.j.",
"j.j.j.j.j.j.j.j.j.j.j.j.j.j.j.j.j.j.j.j.j.1.hXhXkXX.  % /.hXkXpXpXkXkXgXkXX.  @ }.hXyXX.- j.j.j.j.j.j.j.j.j.j.j.j.j.j.j.j.j.j.j.",
"j.j.j.j.j.j.j.j.j.j.j.j.j.j.j.j.j.j.j.j.j.,.|.uXhX&., : W.hXaXjXjXjXkXgXkX+.> @ &XhX^.L - j.j.j.j.j.j.j.j.j.j.j.j.j.j.j.j.j.j.j.",
"j.j.j.j.j.j.j.j.j.j.j.j.j.j.j.j.j.j.j.j.j.q.OXiXsXX.    W.kXgXkXkX8XgXkXuXX.  + &XtX^.X.% j.j.j.j.j.j.j.j.j.j.j.j.j.j.j.j.j.j.j.",
"j.j.j.j.j.j.j.j.j.j.j.j.j.j.j.j.j.j.j.j.j.^ ! W.hX|.[.|.5X.XD.K.K.L.K.[.eX:X/.W.yXU.S C j.j.j.j.j.j.j.j.j.j.j.j.j.j.j.j.j.j.j.j.",
"j.j.j.j.j.j.j.j.j.j.j.j.j.j.j.j.j.j.j.j.j.j.2 m.eXhXkX8XL.[.,X@X$X@X@X@XH.@XiXhXiXb.& j.j.j.j.j.j.j.j.j.j.j.j.j.j.j.j.j.j.j.j.j.",
"j.j.j.j.j.j.j.j.j.j.j.j.j.j.j.j.j.j.j.j.j.j.j.m R.iXuXW.@X6X6X>X$X$X#X>X6XQ.-XiXz.K 9 , j.j.j.j.j.j.j.j.j.j.j.j.j.j.j.j.j.j.j.j.",
"j.j.j.j.j.j.j.j.j.j.y y y y j.j.j.j.j.j.j.9 < A x P./.}.6X:X#X+X#X#X#X#X,X;XR.!.9 9 B - j.j.j.j.j.j.j.j.j.j.j.j.j.j.j.j.j.j.j.j.",
"j.j.j.j.j.j.j.j.j.j.y _ E 8.y j.j.j.j.j.j.X =.I.h l ] R.4X(.F.,X#X>XOXv.4X;Xy.5 $.-Xi.  j.j.j.j.j.j.j.j.j.j.j.j.j.j.j.j.j.j.j.j.",
"j.j.j.j.j.j.j.j.j.j.; ; _ _ ; y j.j.j.j.- % V._.h.Q n ] ~.).(.>X;X1X+X).;X%.0 ,.3XyXm.5 j.j.j.j.j.j.j.j.j.j.j.j.j.j.j.j.j.j.j.j.",
"j.j.j.j.j.j.j.j.j.j.j.y ) )  .8.y j.j.j.t <.~.~.yX'.Q 3 m ] T V I H d I V 7 ( =XhXuX3Xb.6 j.j.j.j.j.j.j.j.j.j.j.j.j.j.j.j.j.j.j.",
"j.j.j.j.j.j.j.j.j.j.j.y ) ) 7. .; j.j.j.% 3.3X3XyXhX!.a.n < 3 n n = v.c.$ #.U.%XhXhXkXM.+ j.j.j.j.j.j.j.j.j.j.j.j.j.j.j.j.j.j.j.",
"j.j.j.j.j.j.j.j.j.j.j.; w.) ` -.D k j.j.7 e.yXkXfXfXeX%Xg.0.h r.r.a o.6.y.U.g.wXkX7XuXn.& j.j.j.j.j.j.j.j.j.j.j.j.j.j.j.j.j.j.j.",
"j.j.j.j.j.j.j.j.j.j.j.j.c ) ~ A x * j.j.* a.iXhXfXfX5X^.yX`.j =.[ = 6.c.N.=XU.*XhXsXhXS.# j.j.j.j.j.j.j.j.j.j.j.j.j.j.j.j.j.j.j.",
"j.j.j.j.j.j.j.j.j.j.j.j.k b >.} 7 u ; j.k e.iXhXfXqXhXs.`.4Xj Q G 8 a %.%X3XkXgXsXhXuXu.; j.j.j.j.j.j.j.j.j.j.j.j.j.j.j.j.j.j.j.",
"j.j.j.j.j.j.j.j.j.j.j.j.j.* q.g.* <.1 1 # a.hX6X5XkXhXS.f.h.j F G $ ~ q.2XhXwXkXkXeXN.S v j.j.j.j.j.j.j.j.j.j.j.j.j.j.j.j.j.j.j.",
"j.j.j.j.j.j.j.j.j.j.j.j.j.j.$ g.e.1 ,.) v D A.hXfXaXhXiXr.n F V H 2 ] :.P.iXhXwX}.Z.S ! v j.j.j.j.j.j.j.j.j.j.j.j.j.j.j.j.j.j.j.",
"j.j.j.j.j.j.j.j.j.j.j.j.j.j.: ^ %XV.& ! A 0 y.^.hXhXiXiX'.] @.@.H 4 [ :./ `.tXM.s.O.*.9.k j.j.j.j.j.j.j.j.j.j.j.j.j.j.j.j.j.j.j.",
"j.j.j.j.j.j.j.j.j.j.j.j.j.j.j.y ( V.`.V.n b q X.tXiXhX-Xt.[ :.%.] 4 :.>.F :.>.b ^.!.( 9.x j.j.j.j.j.j.j.j.j.j.j.j.j.j.j.j.j.j.j.",
"j.j.j.j.j.j.j.j.j.j.j.j.j.j.j.j.0 N `.T.b V T.,.e.*X4Xg.[  .P %.%.b p 3 F F g.OXiX-X( ..x j.j.j.j.j.j.j.j.j.j.j.j.j.j.j.j.j.j.j.",
"j.j.j.j.j.j.j.j.j.j.j.j.j.j.j.j.j.w 5 q = m.2XyXZ.$.m.=.:.' 1 @.%.8 R c.).E.;X).yXkX^.( M j.j.j.j.j.j.j.j.j.j.j.j.j.j.j.j.j.j.j.",
"j.j.j.j.j.j.j.j.j.j.j.j.j.j.j.j.j.j.j.% a $.} V.hXZ.1 S { J x @.%.= J.1XJ.(.+XR.:XgXhXs.5 j.j.j.j.j.j.j.j.j.j.j.j.j.j.j.j.j.j.j.",
"j.j.j.j.j.j.j.j.j.j.j.j.j.j.j.j.j.j.j.o C S L q.iXiXR.s.G T l #.%., p.J.J.+X+XH.$XfXhXz.; j.j.j.j.j.j.j.j.j.j.j.j.j.j.j.j.j.j.j.",
"j.j.j.j.j.j.j.j.j.j.j.j.j.j.j.j.j.j.j.o ,.0 ,.U.iXhX-X-X4X~.4 R [ = F.sX#X1XoXK.0XqX].u j.j.j.j.j.j.j.j.j.j.j.j.j.j.j.j.j.j.j.j.",
"j.j.j.j.j.j.j.j.j.j.j.j.j.j.j.j.j.j.j.j.K 6 q.tXhXiX<XK.,XE.= [ o.= F.1X(.oX[.:XkXkXk.. j.j.j.j.j.j.j.j.j.j.j.j.j.j.j.j.j.j.j.j.",
"j.j.j.j.j.j.j.j.j.j.j.j.j.j.j.j.j.j.j.j.j.6 5 Z.hXhXkXOX(.G.8 H U = p.R.+XB.K.kXgXgX2.. j.j.j.j.j.j.j.j.j.j.j.j.j.j.j.j.j.j.j.j.",
"j.j.j.j.j.j.j.j.j.j.j.j.j.j.j.j.j.j.j.j.j.j.O X.uXhXrXhX(.v.p V U d G.).u.N.hXiXhXY.> j.j.j.j.j.j.j.j.j.j.j.j.j.j.j.j.j.j.j.j.j.",
"j.j.j.j.j.j.j.j.j.j.j.j.j.j.j.j.j.j.j.j.j.j.6 v U.kXhXkX<X%.3 V f U 4.4.r.4XhXwXiXb.> j.j.j.j.j.j.j.j.j.j.j.j.j.j.j.j.j.j.j.j.j.",
"j.j.j.j.j.j.j.j.j.j.j.j.j.j.j.j.j.j.j.j.j.j.j.5 e.hXkXgX3Xb = I g Y p p OXhXtXjX3Xv > j.j.j.j.j.j.j.j.j.j.j.j.j.j.j.j.j.j.j.j.j.",
"j.j.j.j.j.j.j.j.j.j.j.j.j.j.j.j.j.j.j.j.j.j.j.9 <.3X3X3X-Xx 4 I g Y p T C.C.U.P.V.6 j.j.j.j.j.j.j.j.j.j.j.j.j.j.j.j.j.j.j.j.j.j.",
"j.j.j.j.j.j.j.j.j.j.j.j.j.j.j.j.j.j.j.j.j.j.j.j.D w.t.f.q.n 4 I Y I n n >. .` -.*.& j.j.j.j.j.j.j.j.j.j.j.j.j.j.j.j.j.j.j.j.j.j.",
"j.j.j.j.j.j.j.j.j.j.j.j.j.j.j.j.j.j.j.j.j.j.j.j.x (  .9.~ b 4 %.5.d n n r.0.t.9.( 6 j.j.j.j.j.j.j.j.j.j.j.j.j.j.j.j.j.j.j.j.j.j.",
"j.j.j.j.j.j.j.j.j.j.j.j.j.j.j.j.j.j.j.j.j.j.j.j.j.e v ..S q 1 y.d.d n a J F L M z j.j.j.j.j.j.j.j.j.j.j.j.j.j.j.j.j.j.j.j.j.j.j.",
"j.j.j.j.j.j.j.j.j.j.j.j.j.j.j.j.j.j.j.j.j.j.j.j.j.- % - % 7 1 y.d.V a < = $ % j.j.j.j.j.j.j.j.j.j.j.j.j.j.j.j.j.j.j.j.j.j.j.j.j.",
"j.j.j.j.j.j.j.j.j.j.j.j.j.j.j.j.j.j.j.j.j.j.j.j.j.j.j.j.j.j.; y.p.Z s 7 s j.j.j.j.j.j.j.j.j.j.j.j.j.j.j.j.j.j.j.j.j.j.j.j.j.j.j.",
"j.j.j.j.j.j.j.j.j.j.j.j.j.j.j.j.j.j.j.j.j.j.j.j.j.j.j.j.j.j.6 i.c.V 8 C j.j.j.j.j.j.j.j.j.j.j.j.j.j.j.j.j.j.j.j.j.j.j.j.j.j.j.j.",
"j.j.j.j.j.j.j.j.j.j.j.j.j.j.j.j.j.j.j.j.j.j.j.j.j.j.j.j.j.j.j.e.z.Z , j.j.j.j.j.j.j.j.j.j.j.j.j.j.j.j.j.j.j.j.j.j.j.j.j.j.j.j.j.",
"j.j.j.j.j.j.j.j.j.j.j.j.j.j.j.j.j.j.j.j.j.j.j.j.j.j.j.j.j.j.j.9 s R B j.j.j.j.j.j.j.j.j.j.j.j.j.j.j.j.j.j.j.j.j.j.j.j.j.j.j.j.j.",
"j.j.j.j.j.j.j.j.j.j.j.j.j.j.j.j.j.j.j.j.j.j.j.j.j.j.j.j.j.j.j.; s 4.b j.j.j.j.j.j.j.j.j.j.j.j.j.j.j.j.j.j.j.j.j.j.j.j.j.j.j.j.j.",
"j.j.j.j.j.j.j.j.j.j.j.j.j.j.j.j.j.j.j.j.j.j.j.j.j.j.j.j.j.j.j.e H N.L j.j.j.j.j.j.j.j.j.j.j.j.j.j.j.j.j.j.j.j.j.j.j.j.j.j.j.j.j.",
"j.j.j.j.j.j.j.j.j.j.j.j.j.j.j.j.j.j.j.j.j.j.j.j.j.j.j.j.j.j.j.N S C.( j.j.j.j.j.j.j.j.j.j.j.j.j.j.j.j.j.j.j.j.j.j.j.j.j.j.j.j.j.",
"j.j.j.j.j.j.j.j.j.j.j.j.j.j.j.j.j.j.j.j.j.j.j.j.j.j.j.j.j.j.j.N M C.j.j.j.j.j.j.j.j.j.j.j.j.j.j.j.j.j.j.j.j.j.j.j.j.j.j.j.j.j.j.",
"j.j.j.j.j.j.j.j.j.j.j.j.j.j.j.j.j.j.j.j.j.j.j.j.j.j.j.j.j.j.j.j.S V.j.j.j.j.j.j.j.j.j.j.j.j.j.j.j.j.j.j.j.j.j.j.j.j.j.j.j.j.j.j.",
"j.j.j.j.j.j.j.j.j.j.j.j.j.j.j.j.j.j.j.j.j.j.j.j.j.j.j.j.j.j.j.j.j.j.j.j.j.j.j.j.j.j.j.j.j.j.j.j.j.j.j.j.j.j.j.j.j.j.j.j.j.j.j.j.",
"j.j.j.j.j.j.j.j.j.j.j.j.j.j.j.j.j.j.j.j.j.j.j.j.j.j.j.j.j.j.j.j.j.j.j.j.j.j.j.j.j.j.j.j.j.j.j.j.j.j.j.j.j.j.j.j.j.j.j.j.j.j.j.j.",
"j.j.j.j.j.j.j.j.j.j.j.j.j.j.j.j.j.j.j.j.j.j.j.j.j.j.j.j.j.j.j.j.j.j.j.j.j.j.j.j.j.j.j.j.j.j.j.j.j.j.j.j.j.j.j.j.j.j.j.j.j.j.j.j."
};
