/* XPM */
static char *back_hero[] = {
/* columns rows colors chars-per-pixel */
"64 64 208 2 ",
"   c #FF00FF",
".  c #2A1D1A",
"X  c #26191C",
"o  c #341D1B",
"O  c #391D1A",
"+  c #2F211B",
"@  c #342317",
"#  c #33241D",
"$  c #3F2114",
"%  c #34230C",
"&  c #251825",
"*  c #2D1B24",
"=  c #261729",
"-  c #2D172B",
";  c #27182B",
":  c #2B1B2B",
">  c #261522",
",  c #321D24",
"<  c #321D2B",
"1  c #2E1B33",
"2  c #321D34",
"3  c #331A3B",
"4  c #2E2021",
"5  c #2E2129",
"6  c #332224",
"7  c #3C2525",
"8  c #3D2B25",
"9  c #34222C",
"0  c #3B232B",
"q  c #3B2B2C",
"w  c #352D2A",
"e  c #2F2234",
"r  c #342235",
"t  c #3C2332",
"y  c #3C2D34",
"u  c #36243B",
"i  c #3A2A3C",
"p  c #38243D",
"a  c #45351A",
"s  c #442C26",
"d  c #41262B",
"f  c #432B2E",
"g  c #433125",
"h  c #4B3425",
"j  c #45332B",
"k  c #4A352C",
"l  c #4C3C2D",
"z  c #523D2F",
"x  c #432C32",
"c  c #452C3B",
"v  c #4E3532",
"b  c #4E3D32",
"n  c #4A3739",
"m  c #563C38",
"M  c #58491C",
"N  c #4F4027",
"B  c #52432B",
"V  c #524424",
"C  c #4F4131",
"Z  c #534533",
"A  c #584937",
"S  c #53443E",
"D  c #564936",
"F  c #69563B",
"G  c #644B3D",
"H  c #7A683B",
"J  c #3A2845",
"K  c #412E45",
"L  c #443345",
"P  c #483749",
"I  c #593E46",
"U  c #4B3850",
"Y  c #5A4144",
"T  c #59484D",
"R  c #5B5044",
"E  c #554455",
"W  c #5C4B51",
"Q  c #55455D",
"!  c #624F4D",
"~  c #64554D",
"^  c #685346",
"/  c #70574D",
"(  c #664F56",
")  c #685858",
"_  c #7A5E52",
"`  c #755B58",
"'  c #7B6D4B",
"]  c #786649",
"[  c #7B7046",
"{  c #7E714A",
"}  c #7A6155",
"|  c #746856",
" . c #796B53",
".. c #75645B",
"X. c #7A6A5C",
"o. c #695964",
"O. c #745F64",
"+. c #705F6B",
"@. c #6F5D72",
"#. c #705E74",
"$. c #7B6E7D",
"%. c #867848",
"&. c #836B55",
"*. c #896C52",
"=. c #8D755A",
"-. c #94795E",
";. c #9B7F5F",
":. c #886E67",
">. c #877668",
",. c #9B7F6E",
"<. c #9A7F76",
"1. c #917F70",
"2. c #948749",
"3. c #9A8C5F",
"4. c #978369",
"5. c #9C8573",
"6. c #9A8A76",
"7. c #AA936A",
"8. c #A38A75",
"9. c #AD947B",
"0. c #A9977A",
"q. c #B29674",
"w. c #B59B76",
"e. c #B09868",
"r. c #BAAE63",
"t. c #B6A677",
"y. c #B4A875",
"u. c #B6A979",
"i. c #BCAC7B",
"p. c #B9A777",
"a. c #BEB27C",
"s. c #C1AC7C",
"d. c #C4B379",
"f. c #CDC27C",
"g. c #DED37F",
"h. c #F6EF7E",
"j. c #FAEF7E",
"k. c #F7F07C",
"l. c #FAF07D",
"z. c #F9F276",
"x. c #857485",
"c. c #8A7A8A",
"v. c #857488",
"b. c #A48C80",
"n. c #A79C81",
"m. c #B39A88",
"M. c #B89F92",
"N. c #BDA484",
"B. c #BCAE83",
"V. c #B6A88A",
"C. c #BEB38C",
"Z. c #C4AA86",
"A. c #C9B286",
"S. c #C8B789",
"D. c #D4BC87",
"F. c #C3AF95",
"G. c #CDBE97",
"H. c #D1BB92",
"J. c #D3BC9A",
"K. c #CDC28A",
"L. c #D6CC8D",
"P. c #DAC789",
"I. c #D7CC92",
"U. c #D8CE94",
"Y. c #D5C69C",
"T. c #D9C796",
"R. c #D8D094",
"E. c #E2CB94",
"W. c #E6CB9B",
"Q. c #E6DE94",
"!. c #E2D69D",
"~. c #E6DC99",
"^. c #F3DE98",
"/. c #F6EE83",
"(. c #FAEF83",
"). c #F1E58D",
"_. c #F6ED8B",
"`. c #F9EE8A",
"'. c #F6F185",
"]. c #F9F082",
"[. c #F7F08C",
"{. c #FAF08A",
"}. c #E9E097",
"|. c #F3E596",
" X c #F6EC94",
".X c #FAED95",
"XX c #F6EC9B",
"oX c #FAEC9C",
"OX c #F4E39C",
"+X c #F6F194",
"@X c #F9F195",
"#X c #FAF19A",
"$X c #F6F199",
"%X c #DBCDA6",
"&X c #DCD0AA",
"*X c #DDCFB1",
"=X c #E9D8A8",
"-X c #E8D7B2",
";X c #EEE0AE",
":X c #F3E5A1",
">X c #F5EAA3",
",X c #FAECA4",
"<X c #F4EAAC",
"1X c #F7E5AA",
"2X c #EDE0B6",
"3X c #FCEBB5",
"4X c #FBECBA",
"5X c #F7E4B4",
/* pixels */
"                                                                                                                                ",
"                                                                                                                                ",
"                                                                                                                                ",
"                                                                                                                                ",
"                                                                                                                                ",
"                                                                                                                                ",
"                                                                                                                                ",
"                                                                                                                                ",
"                                                                                                                                ",
"                                                                                                                                ",
"                                                                                                                                ",
"                                                                                                                                ",
"                                                                                                                                ",
"                                                                                                                                ",
"                                          > : : &                         ; = ; ; =                                             ",
"                                        * * 4 6 4 X                     5 * 9 9 : * 5                                           ",
"                                      T S C N V B C b                   S b b b b b S )                                         ",
"                                    w ..V.A.a.d.a.C.X.q               D 0.B.a.i.a.B.n.R y                                       ",
"                                  X .  .=X,XXX#XXX<X>.q ;           4 Z G.<X,X#XXX<X%Xl *                                       ",
"                                  X . ' ~.@X`.{.@X>X-.q 1 J J p p r * Z K.>X X[.[.$XU.Z * r                                     ",
"                                  X . ' }.@X{.{.`.XX%.g * - : 9 < , o V K.XX@X[.'.+XR.Z : r                                     ",
"                                  & + ' }.@X{.{.{. X2.a @ # # @ @ @ % M f. X[.'.'.+XR.Z < u                                     ",
"                                  & # { Q.@X`.{.(.`.r.%.[ ' ' %.{ [ H 2.g._.{.].].+XR.D 6 i                                     ",
"                                  * # { Q..X`.(.(.(.).|.:X>X:XOX:X:XOX)._.(./.].].@XU.A 6 i                                     ",
"                                  : # { Q. X_.(.(.(.`..X X.X#X#X.X.X.X`.(.(.(.]./.@XU.A 6 i                                     ",
"                                  : # [ Q. X_.(.(.].(.`.`.`.{.`.`.{.{.(.].(.(././.@XU.Z < i                                     ",
"                                  : # [ Q.@X`.(.(.(.j.(.(.(.(.(.(.l.j.j.j.j.(.(./..XU.Z 9 i                                     ",
"                                  2 6 [ }.[.(.(.(.(.(.(.(.j.j.(.j.l.l.l.j.j.(.(./. XU.Z 9 i                                     ",
"                                i 2 6 ' Q.[.(.(.(.(.(.(.(.l.(.(.l.l.j.j.j.j.(.(./..XI.b : r J                                   ",
"                              : 2 2 6 ' Q.[.(.].(.(.(.(.{.].].(.(.].(.(.j.(.(.h./.@XI.z < 1 1 :                                 ",
"                              : 2 1 ,  .Q.[.h.l.(.(.(.(.(.].l.(.(.(.(.(.(.(.(.h.h._.L.B * 2 u e                                 ",
"                              P U 2 ,  .Q.[.h.l.(.(.(.(.(.].l.].(.(.`.(.(.].].l.k.[.L.l * K Q E                                 ",
"                                #.r , ' Q.[.].].(.(.{.{.].l.l.(.(.`.`.(.l.l.l.k.h.+XL.B * E v.c.                                ",
"                              $.@.r o ' Q.[././.`.{.].].l.l.l.(.(.(.(.(.l.z.l.k./.@XL.N , E x.x.                                ",
"                              i L 2 , ' ~. X`.`.`._.].].l.l.l.(.(.(.(.(.].l.].{.[.XXI.B , i U L                                 ",
"                              : 2 2 6  .~. X_.`.`.`.{.].].l.(.(.j.j.(.`.(.(././._.#XU.B * 1 1 :                                 ",
"                              & ; : , ] !.@X`.(.`.{.{.{._.(.(.(.(.l.(.`.{.(././.[..XU.B * 2 1 >                                 ",
"                                  - * | !.oX X.X.X.X XXXXX X X X_._. X X X X X X X>XU.B , r                                     ",
"                                  : 9 ~ 0.u.i.i.s.i.i.B.B.u.u.t.y.y.u.u.p.p.i.i.B.B.0.S t                                       ",
"                                    o.( j a h k k b k k j j g g g g j j g h j k k k b ) +.                                      ",
"                                    x.o.8 8 0 t t t 9 9 < < , < , , < < < < < 0 q 8 j O.c.                                      ",
"                                  P T ..6.6.X.O.I t 2 3 3 2 1 < < 2 2 2 2 < Y :.1.0.6.) W                                       ",
"                                  : q | &X=Xw.5./ f t 3 3 2 9 9 9 2 2 2 9 7 } F.G.2X*X~ 9                                       ",
"                                  : 6 | -X;Xt.7.-.} I t 2 c n k n x < t Y G -.S.T.4X-X~ r u                                     ",
"                                  & * ..-X-Xw.q.Z.J.=.z k :.4.4.5./ v m ,.m.N.A.T.5X*X! <                                       ",
"                                    & ~ 6.5.&.*.q.W.d.e.7.s.S.S.H.N.9.9.N.Z.q.*.-.8.5.! y                                       ",
"                                        7 , O h ;.=XOXoX,X,X3X3X4X4X3X5XE.H.-.$ O o 7 W                                         ",
"                                        : < , s -.E.^..X|.P.T.Y.Y.!.<X:XP.A.=.o < 2 <                                           ",
"                                          P < s ] w.D.^.E.H F ^ F 3.=X;Xs.q._ , 2 L                                             ",
"                                            , 7 _ w.H.-XJ.h 7 0 s &.%X-XN.9.` > -                                               ",
"                                            * f ` <.8.m.b.m x t x } m.M.<.:.( t                                                 ",
"                                                n 0 0 0 x         T x d d 0 c                                                   ",
"                                                    < <               < < <                                                     ",
"                                                                                                                                ",
"                                                                                                                                ",
"                                                                                                                                ",
"                                                                                                                                ",
"                                                                                                                                ",
"                                                                                                                                ",
"                                                                                                                                ",
"                                                                                                                                ",
"                                                                                                                                ",
"                                                                                                                                ",
"                                                                                                                                "
};
