/* XPM */
static char *back_hero_walk1[] = {
/* columns rows colors chars-per-pixel */
"64 64 212 2 ",
"   c None",
".  c #1E1616",
"X  c #1B0E1A",
"o  c #21151F",
"O  c #251B1A",
"+  c #2D1C1B",
"@  c #321D1A",
"#  c #301717",
"$  c #2E2319",
"%  c #322216",
"&  c #35241D",
"*  c #3B2618",
"=  c #1F1223",
"-  c #231524",
";  c #2C1B24",
":  c #24152B",
">  c #2B162C",
",  c #2C1C2C",
"<  c #251A24",
"1  c #321D25",
"2  c #321D2C",
"3  c #261530",
"4  c #2C1631",
"5  c #2D1C32",
"6  c #331D34",
"7  c #361E3B",
"8  c #381E3B",
"9  c #2D2227",
"0  c #342324",
"q  c #34222A",
"w  c #39242B",
"e  c #3A2B2A",
"r  c #382A26",
"t  c #2E2133",
"y  c #2F2139",
"u  c #342133",
"i  c #3B2334",
"p  c #362931",
"a  c #3B2B34",
"s  c #352139",
"d  c #3B253A",
"f  c #3B293C",
"g  c #36283E",
"h  c #3E323C",
"j  c #3E3529",
"k  c #42281D",
"l  c #452D2A",
"z  c #442D27",
"x  c #433124",
"c  c #4B3625",
"v  c #473B27",
"b  c #4C3B26",
"n  c #44332B",
"m  c #4A352B",
"M  c #4C3B2B",
"N  c #52372D",
"B  c #503E2B",
"V  c #432C35",
"C  c #432B39",
"Z  c #452B38",
"A  c #4C3B36",
"S  c #46323C",
"D  c #4A373A",
"F  c #483534",
"G  c #503F31",
"H  c #4E402C",
"J  c #51422D",
"K  c #5E4C2C",
"L  c #4F4336",
"P  c #524332",
"I  c #584939",
"U  c #654E39",
"Y  c #6F5834",
"T  c #3E2C45",
"R  c #402E40",
"E  c #493445",
"W  c #42324B",
"Q  c #4A374A",
"!  c #4C3948",
"~  c #513B42",
"^  c #4B3D55",
"/  c #5A4442",
"(  c #5A4A44",
")  c #5A4A4A",
"_  c #59424B",
"`  c #5F5242",
"'  c #4E4153",
"]  c #554453",
"[  c #60494C",
"{  c #6C564A",
"}  c #624B50",
"|  c #655656",
" . c #675259",
".. c #685854",
"X. c #725C55",
"o. c #7C6E45",
"O. c #7F7042",
"+. c #7F714B",
"@. c #7C6859",
"#. c #795F64",
"$. c #6E5F7C",
"%. c #6E5965",
"&. c #7D6962",
"*. c #786579",
"=. c #85773E",
"-. c #80714B",
";. c #846B56",
":. c #8D7F56",
">. c #887D5B",
",. c #836B65",
"<. c #826F6F",
"1. c #8F736B",
"2. c #887866",
"3. c #8E7C72",
"4. c #8D797E",
"5. c #907873",
"6. c #9C8D4D",
"7. c #8E8157",
"8. c #8F825D",
"9. c #94865C",
"0. c #A38B5D",
"q. c #928562",
"w. c #978B65",
"e. c #9C8374",
"r. c #9A8478",
"t. c #A28C7D",
"y. c #A18673",
"u. c #A9917D",
"i. c #A89A7F",
"p. c #B39B71",
"a. c #BFB369",
"s. c #BBAE77",
"d. c #B5A77A",
"f. c #B7A97A",
"g. c #BBAE7A",
"h. c #B8A370",
"j. c #BEB27C",
"k. c #C1B47E",
"l. c #CCB37A",
"z. c #CCB379",
"x. c #DACC7C",
"c. c #F6EE7C",
"v. c #F9EF7D",
"b. c #F9EE77",
"n. c #F7F07D",
"m. c #FAF07C",
"M. c #85768A",
"N. c #857A90",
"B. c #9C8784",
"V. c #A18982",
"C. c #AA9188",
"Z. c #B29B84",
"A. c #BBAE82",
"S. c #B8A687",
"D. c #BFB082",
"F. c #B6A394",
"G. c #BEA5A5",
"H. c #C9AD87",
"J. c #C3B484",
"K. c #C6B487",
"L. c #D2BE8A",
"P. c #C3AC95",
"I. c #C2A998",
"U. c #C9B496",
"Y. c #D4BD9D",
"T. c #D2B59B",
"R. c #CEBAA6",
"E. c #D3BCA5",
"W. c #C5ADB4",
"Q. c #D5C28B",
"!. c #D9C698",
"~. c #EFD68D",
"^. c #E8D695",
"/. c #ECD393",
"(. c #EDE38A",
"). c #F7EE83",
"_. c #FAEF83",
"`. c #F1E68A",
"'. c #F7EE8B",
"]. c #F9EE8B",
"[. c #F7F083",
"{. c #FAF082",
"}. c #F9F08A",
"|. c #F7F08C",
" X c #F1E695",
".X c #F6EC94",
"XX c #F8EF95",
"oX c #F2E79A",
"OX c #F6EC9B",
"+X c #F9EE9B",
"@X c #FAE19C",
"#X c #F9F092",
"$X c #F9F199",
"%X c #F7F094",
"&X c #D9C8A5",
"*X c #D8C6B1",
"=X c #D8C3BA",
"-X c #E8D8A9",
";X c #E5CFB6",
":X c #E6CBA3",
">X c #FBE5A4",
",X c #F4EBA5",
"<X c #F9EFA3",
"1X c #F7ECAA",
"2X c #F7E6AC",
"3X c #F9F0A3",
"4X c #FBEDB5",
"5X c #F7E3BC",
"6X c #F7E8B9",
"7X c #E0CCCB",
"8X c #F4DFCE",
"9X c #FBE9C6",
/* pixels */
"                                                                                                                                ",
"                                                                                                                                ",
"                                                                                                                                ",
"                                                                                                                                ",
"                                                                                                                                ",
"                                                                                                                                ",
"                                                                                                                                ",
"                                                                                                                                ",
"                                                                                                                                ",
"                                                                                                                                ",
"                                                                                                                                ",
"                                                                                                                                ",
"                                                                                                                                ",
"                                                                                                                                ",
"                                          X - , , 9                         - : , - =                                           ",
"                                        e + + + + + r                     q q 1 ; ; < h                                         ",
"                                      ..L v b b J P I                   ( L P H M M n ) |                                       ",
"                                    r I w.A.g.k.J.K.i.` e             r 2.S.g.s.s.A.S.@.j                                       ",
"                                  . . v A.1XOX+X+X1XU.I q ]         w % q.-X<X+X<X,X6X>.$ O                                     ",
"                                  o O v s.+X}.}.}..XK.I q E ! Q W T u & w.^.}.}.|.+X,X>.& ;                                     ",
"                                  < ; H j.$X}.}.}. XK.I 1 2 2 , 5 5 2 & w.^.|.{.}.%X,X>.0 9                                     ",
"                                  < 9 J j.$X}._.]..Xk.K % @ & 0 w 0 & * 9.^.}.{.}.%X,X8.r q                                     ",
"                                  , q P k.$X}.{._._.x.6.O.o.o.o.+.-.O.=.a.(.}.{.}.%X<Xq.r p                                     ",
"                                  , q P k.$X}.{.v.v.).`. X XoXoXoXoX X`.'.).v.{.}.#X<Xq.e p                                     ",
"                                  , q P k.$X].{.m.b.v._.].].].#X}.'.].}.}._.v.v.}.#X<Xq.e a                                     ",
"                                  , q P j.$X}._.v.v.{._._.{.}.}.}.{.{.v._.{.v.v.}.#X3Xq.e a                                     ",
"                                  u q P j.$X]._._._._._._._._._.v.m.v.v._._.v.v.).#X<X8.r u                                     ",
"                                  f q B j.XX)._._._._._._._._.v.v.v.v.v._._.v.v.).].+X8.0 u                                     ",
"                                ' f 2 M j.XX)._._._._._._._.v.v.v.m.v.v._._.v.v._.].+X7.0 , g                                   ",
"                              , t 5 ; M g.XX).c._._._._._._._._.{.m._._._.{.m.v._.].+X:.0 , 5 t                                 ",
"                              , , , ; M s.XX).c.m.{._.].]._._._._._._._.{.m.m.v._.].OX:.0 , y s                                 ",
"                              ' ] d ; M g.XXc.n.m.m.{._._.}.{.{.m.{.{.n.n.m.v.v.).'.OX:.0 6 ^ '                                 ",
"                                M.E 1 M j.XX).v.m.v.v.m.{._._._.{.m.m.m.m.m.v.v.v.'.OX:.0 f *.N.                                ",
"                              M.M.Q 1 B k.+X_.v._._.m.m.m.v._._._.{.m.m.{._._.v.c.}.+X7.& f $.M.                                ",
"                              Q ^ f 1 B k.+X).v._._.m.m.m._._.]._.{.{.{._._._.m.c.[.+X7.& 5 W W                                 ",
"                              , 5 6 q B k.+X}.)._._.m.m.v._._._._._._._.].]._.{.[.'.<X7.& , 5 :                                 ",
"                                u u q G A.,X.X'.}.}.{.{.)._.].].].].}.}.}.].].'.}.XX,X:.& , 5 :                                 ",
"                                  u ; A S.4X<X+X+X.XXXXX.X X X X X X.X.X+X+XOXOXOX<X2X2.& , R                                   ",
"                                    t D 3.S.A.A.A.A.f.f.d.d.d.f.f.s.s.g.g.j.D.g.g.A.S.X.1 2                                     ",
"                                        F m m m m n n n n n x x x x c m m M M b c M m w 2 6                                     ",
"                                        w q q w q q 2 2 , 2 2 1 1 1 q w w w 0 z n F F i 6 6                                     ",
"                                        d 2 2 2 q , 6 6 6 6 5 2 6 6 6 7 8 8 l ,.V.G.W.*.d u                                     ",
"                                        S i V Z V a f s 6 6 2 2 2 6 8 8 d C N t.I.=X7X4.V                                       ",
"                                    E ]  .X.,.5.3.<.%.E 6 C ~ / [ _ V i _ #.;.S.P.r.&...                                        ",
"                                    ; a &.e.P.;X*XF.B.} F ,.t.u.Z.y.U c @.u.S.U.P.{ e                                           ",
"                                  - ; F t.Y.-X5XY.;.X.@.t.U.&X!.!.L.h.p.k.K.H.y.1./                                             ",
"                                  o ; A F.9X5X5XP.M m r.8X9X9X4X2X>X>X>X@X/.T.N *                                               ",
"                                  - ; S B.R.E.R.C.D D <.=X*X&X!.Q.Q./.~.~./.T.l @                                               ",
"                                  - , 2 ~ ) / ( / i i !  . ...{ U Y 0.l.l./.E.l +                                               ",
"                                  : 3 4 > ; ; q 2 u s u 7 s u 1 # k ;.p.H.:XE.n +                                               ",
"                                    : 3 : > , , 2 u 6 u s s 6 6 1 V X.1.e.C.V.F 0                                               ",
"                                                                    C 1 2 1 q                                                   ",
"                                                                      > 4 >                                                     ",
"                                                                                                                                ",
"                                                                                                                                ",
"                                                                                                                                ",
"                                                                                                                                ",
"                                                                                                                                ",
"                                                                                                                                ",
"                                                                                                                                ",
"                                                                                                                                ",
"                                                                                                                                ",
"                                                                                                                                ",
"                                                                                                                                "
};
