/* XPM */
static char *back_hero_walk2[] = {
/* columns rows colors chars-per-pixel */
"64 64 207 2 ",
"   c #FF00FF",
".  c #22161A",
"X  c #2C161E",
"o  c #2A1A1D",
"O  c #241617",
"+  c #361E1A",
"@  c #2E2119",
"#  c #35231C",
"$  c #3C2B12",
"%  c #1D0E26",
"&  c #1C0E28",
"*  c #231424",
"=  c #2B1622",
"-  c #271A24",
";  c #2C1B24",
":  c #24142B",
">  c #28172E",
",  c #271A2F",
"<  c #2C1B2C",
"1  c #321E26",
"2  c #321D2D",
"3  c #381E28",
"4  c #241631",
"5  c #2B1B34",
"6  c #2E1B39",
"7  c #291735",
"8  c #331D34",
"9  c #341D3B",
"0  c #3A1D34",
"q  c #352323",
"w  c #34222C",
"e  c #39242C",
"r  c #3B2A2D",
"t  c #382C21",
"y  c #352432",
"u  c #3B2532",
"i  c #3D2A33",
"p  c #342239",
"a  c #3A243C",
"s  c #3D293C",
"d  c #402917",
"f  c #432B2B",
"g  c #453326",
"h  c #4A3324",
"j  c #443329",
"k  c #49352A",
"l  c #4E3D2C",
"z  c #583F2B",
"x  c #442A31",
"c  c #422B3B",
"v  c #492F37",
"b  c #463234",
"n  c #4B3D33",
"m  c #46313C",
"M  c #4C3939",
"N  c #4A3136",
"B  c #533F33",
"V  c #513D3E",
"C  c #503731",
"Z  c #52412D",
"A  c #574827",
"S  c #4F423B",
"D  c #544332",
"F  c #59443D",
"G  c #61482A",
"H  c #604836",
"J  c #65503D",
"K  c #3D2A43",
"L  c #3D2945",
"P  c #432D42",
"I  c #473449",
"U  c #533C48",
"Y  c #493854",
"T  c #534346",
"R  c #5B4343",
"E  c #56434D",
"W  c #5B4D42",
"Q  c #4D4058",
"!  c #5A4457",
"~  c #60494B",
"^  c #65534B",
"/  c #695646",
"(  c #664C54",
")  c #6B5855",
"_  c #755C56",
"`  c #7E6F4A",
"'  c #79694C",
"]  c #7E704D",
"[  c #7A6557",
"{  c #5D4F63",
"}  c #6A5265",
"|  c #6D5A74",
" . c #7B5F72",
".. c #6E6063",
"X. c #7B6569",
"o. c #80654D",
"O. c #81724C",
"+. c #8C7C4E",
"@. c #847644",
"#. c #837353",
"$. c #84735B",
"%. c #87785C",
"&. c #866D69",
"*. c #8E7666",
"=. c #94796D",
"-. c #947D7C",
";. c #886C79",
":. c #91844B",
">. c #9F8B6C",
",. c #9B8C78",
"<. c #978374",
"1. c #A0866A",
"2. c #A89066",
"3. c #A18A7C",
"4. c #A49378",
"5. c #B19A7E",
"6. c #B19872",
"7. c #B6A375",
"8. c #B7A976",
"9. c #B9AD75",
"0. c #B9A27A",
"q. c #B5A978",
"w. c #BAAC7B",
"e. c #B5A778",
"r. c #BDB076",
"t. c #BEB17B",
"y. c #B8AB66",
"u. c #C1B47E",
"i. c #CAB17F",
"p. c #C2A876",
"a. c #F7EF7E",
"s. c #F9EF7D",
"d. c #F9EF76",
"f. c #F9F177",
"g. c #F7F07D",
"h. c #F9F07D",
"j. c #756280",
"k. c #827488",
"l. c #A38D81",
"z. c #A7898F",
"x. c #AA9587",
"c. c #B49F8F",
"v. c #BC9E9C",
"b. c #B5A481",
"n. c #BAAA83",
"m. c #BCA789",
"M. c #BBAE8B",
"N. c #B9A681",
"B. c #BEB18B",
"V. c #BEA794",
"C. c #C2AE86",
"Z. c #C5AC89",
"A. c #CBBB83",
"S. c #C6B78A",
"D. c #C4AB9C",
"F. c #CAB697",
"G. c #D2B895",
"H. c #D7BD8A",
"J. c #C0A8A5",
"K. c #CFB9A6",
"L. c #DDC489",
"P. c #DACF80",
"I. c #DFCB93",
"U. c #DBC698",
"Y. c #D7C598",
"T. c #EAD18E",
"R. c #EEDC89",
"E. c #F0DB89",
"W. c #EAD896",
"Q. c #EEE38E",
"!. c #F7EE86",
"~. c #F9EE84",
"^. c #F2E78D",
"/. c #F6ED8E",
"(. c #F9EE8A",
"). c #F9F182",
"_. c #FAF18C",
"`. c #F7F082",
"'. c #EEE39C",
"]. c #EEE293",
"[. c #F5EC92",
"{. c #F8EE95",
"}. c #F0E49A",
"|. c #F5EA9C",
" X c #F8EE9C",
".X c #F4E497",
"XX c #FAF391",
"oX c #FAF09D",
"OX c #D5C9A4",
"+X c #DBC8AB",
"@X c #D5C5A5",
"#X c #DECABA",
"$X c #E3CCA5",
"%X c #ECD5A3",
"&X c #E7D1A0",
"*X c #FBECA5",
"=X c #F5EBAC",
"-X c #FCECAD",
";X c #F2E8A1",
":X c #FBF0A3",
">X c #FDF3A8",
",X c #FDF1AC",
"<X c #F7E5B5",
"1X c #F6E2BE",
"2X c #FCECB9",
"3X c #F8ECB1",
"4X c #F9E5C1",
/* pixels */
"                                                                                                                                ",
"                                                                                                                                ",
"                                                                                                                                ",
"                                                                                                                                ",
"                                                                                                                                ",
"                                                                                                                                ",
"                                                                                                                                ",
"                                                                                                                                ",
"                                                                                                                                ",
"                                                                                                                                ",
"                                                                                                                                ",
"                                                                                                                                ",
"                                                                                                                                ",
"                                                                                                                                ",
"                                        - - w y p 5                         % : : .                                             ",
"                                      E o ; ; w 2 <                     ; - w 2 ; o r                                           ",
"                                    ..) n D Z l l B F                   S n D l Z Z W )                                         ",
"                                  w M [ B.C.u.u.u.w.' t               S 4.M.w.r.t.M.,.W q                                       ",
"                                  . @ $.2X*XoXoX X'.#.@ q           - n F.3X XoX X=XB.D O                                       ",
"                                  - q #.,XXX)._./.}.#.# 2 s s K a 8 - D S.:X_._.(. Xt.D o *                                     ",
"                                  < e #.>XXX).)._.].+.# = 2 2 2 8 < 1 Z A.|._._.(.[.t.D o *                                     ",
"                                  y r $.>X_.g.)._.Q.+.$ # q q q q q # A A. X(.(.(.[.t.D o *                                     ",
"                                  y r %.>X_.g.).).^.y.@.` ` ] ] #.] ] :.P./.~.~.~.[.u.D - *                                     ",
"                                  y r %.>X_.).g.a.(.^.].}.}.|.|.;X;X'.Q.(.).d.h.~.[.t.D = *                                     ",
"                                  y e %.>X_.).g.a.)._.(._._.XXXXXX(.(._.).g.d.d.g./.t.D ; *                                     ",
"                                  u e %.>X_.).g.g.).).).).).).).).).).).g.g.d.d.~./.t.D = :                                     ",
"                                  y q $.>X_.).g.g.g.).).).).~.~.).).g.~.~.~.~.~.~.[.t.D ; >                                     ",
"                                { s q #.:X_.~.s.g.s.g.).).~.~.~.~.).g.~.~.(.(.~.~.[.r.D ; >                                     ",
"                                Y y q O.:X_.~.s.g.g.g.).).~.~.~.~.~.g.~.(.(.(.~.~.[.r.D ; 5                                     ",
"                              5 p < q O.:X_.~.).).g.g.g.g.).~.~.~.).g.).~.(.~.s.s./.9.D ; 5 5 ,                                 ",
"                              5 5 < q O.oX_.~.~.).g.g.g.g.).).(.).).h.g.~.(.~.d.h./.9.D = > 5 ,                                 ",
"                              Q Y y # O.oX(.~.~.~.s.g.g.g.).(.(.~.~.g.g.~.~.~.f.h./.r.D = 5 K                                   ",
"                              k.j.K q O.oX_.~.(.~.~.s.s.~.).~.~.).s.g.g.).~.g.f.h./.r.Z = L |                                   ",
"                              k.j.L e #.oX_.).(.(.~.s.~.~.~.g.g.g.g.g.g.g.g.g.h.g.(.r.Z X L |                                   ",
"                              I Y 9 w #.oX_.).(.(.~.~.~.~.~.~.~.~.~.).~.`.~.).~.~.[.9.Z ; 9 L 5                                 ",
"                              & 7 6 w $.:X_.~.~.(.).).~.~.~.~.~.~.!.!.!.!.~.(.(.(.[.r.D - 7 7 :                                 ",
"                              : 6 8 u $.-X{./././._.).~.~.~.~.!.!.!.!.!.!.(.(.(.[.|.w.D < 5 7                                   ",
"                                I a u $.2X*X|.|.|.[.[././.[.[.[.[.[.[.[.[.{.{.|.|.=XM.D - >                                     ",
"                                  a u ) V.m.N.N.w.9.9.9.9.8.e.e.q.q.8.9.9.w.w.w.w.b.<.M *                                       ",
"                                  9 a c N k k j k k k g g g j f j j j j k k k k k j b                                           ",
"                                  9 a c v f f f e 3 2 2 2 2 2 < 2 2 2 w w w e w w 1 w                                           ",
"                                  p a } J.D.3.&.v 2 9 9 9 8 8 8 8 8 9 9 p 9 u 2 2 8 a                                           ",
"                                    i X.#X+Xm.>.F x 0 8 9 u i u u y 9 a P P c x x u I }                                         ",
"                                    T ^ $.>.C.0.1.=.R 3 x ) [ [ ^ b u U  .;.&.*.&.) ( ! P                                       ",
"                                      M + J F.$XU.G.o.h H 5.S.C.4./ C ( z.v.D.G.Z.*.) m <                                       ",
"                                        m ~ *.6.H.L.p.2.7.I.W.W.U.n.5.=._ [ Z.%X&XY.l.V < *                                     ",
"                                          E + G i.T..X*X*X-X-X-X-X<X1Xx.h d b.<X2X4XD.R 2 *                                     ",
"                                          c X z Z.T.E.R.W.I.Y.OXY.OXOX,.j t ,.@X+X@Xx.V ; *                                     ",
"                                            = B G.%XL.A.0.' / / / / ^ T w w T ^ ^ ^ T e < *                                     ",
"                                            ; R K.1X$XD.l.M 3 w w < 2 5 5 7 > - ; = ; < >                                       ",
"                                            y U <.c.x.-.X.I 2 < < < , 4 4 4 : * * * * % %                                       ",
"                                                i r r u i                                                                       ",
"                                                  y w w                                                                         ",
"                                                                                                                                ",
"                                                                                                                                ",
"                                                                                                                                ",
"                                                                                                                                ",
"                                                                                                                                ",
"                                                                                                                                ",
"                                                                                                                                ",
"                                                                                                                                ",
"                                                                                                                                ",
"                                                                                                                                ",
"                                                                                                                                "
};
