/* XPM */
static char *back_milka[] = {
/* columns rows colors chars-per-pixel */
"64 64 220 2 ",
"   c #1A0314",
".  c #170619",
"X  c #1B0B1D",
"o  c #2D100E",
"O  c #29111E",
"+  c #341218",
"@  c #1C0528",
"#  c #1C1022",
"$  c #220B29",
"%  c #25092A",
"&  c #300D2E",
"*  c #261526",
"=  c #25112A",
"-  c #2A142B",
";  c #2B1B2C",
":  c #371B25",
">  c #321A2B",
",  c #290C32",
"<  c #280739",
"1  c #350635",
"2  c #330B3F",
"3  c #2D1435",
"4  c #2B1C35",
"5  c #2C133B",
"6  c #2C1C39",
"7  c #331535",
"8  c #331A35",
"9  c #33143B",
"0  c #351C3A",
"q  c #3B183D",
"w  c #1F2024",
"e  c #28232A",
"r  c #2E2435",
"t  c #392936",
"y  c #36253B",
"u  c #3E223D",
"i  c #3A3135",
"p  c #461938",
"a  c #412F2F",
"s  c #4C2335",
"d  c #423233",
"f  c #5A313A",
"g  c #58353A",
"h  c #2F0642",
"j  c #320949",
"k  c #331343",
"l  c #381445",
"z  c #351B42",
"x  c #3C1B43",
"c  c #3B134B",
"v  c #3D1D4B",
"b  c #3C1551",
"n  c #3D2242",
"m  c #3C2B46",
"M  c #3E244A",
"N  c #3D2754",
"B  c #461747",
"V  c #451847",
"C  c #441C4B",
"Z  c #45175B",
"A  c #432C44",
"S  c #44234C",
"D  c #492448",
"F  c #442B49",
"G  c #5C2F43",
"H  c #413343",
"J  c #4A3748",
"K  c #553749",
"L  c #452355",
"P  c #4D2355",
"I  c #492C54",
"U  c #4D2B5C",
"Y  c #572A57",
"T  c #532B5B",
"R  c #4E3459",
"E  c #54375C",
"W  c #612E57",
"Q  c #683551",
"!  c #571E6F",
"~  c #4D2562",
"^  c #542664",
"/  c #59276A",
"(  c #5A2B6C",
")  c #4E3263",
"_  c #553563",
"`  c #5A3462",
"'  c #553468",
"]  c #5C3B6C",
"[  c #5C2D71",
"{  c #5E3674",
"}  c #622D69",
"|  c #623965",
" . c #64366E",
".. c #642978",
"X. c #643574",
"o. c #633C75",
"O. c #683679",
"+. c #6A3C7D",
"@. c #703F77",
"#. c #58415A",
"$. c #5C4664",
"%. c #5E4171",
"&. c #644568",
"*. c #6A4C6A",
"=. c #6A506C",
"-. c #6A5A69",
";. c #71586E",
":. c #6B4777",
">. c #724C7F",
",. c #6F5676",
"<. c #6D517C",
"1. c #755675",
"2. c #73517C",
"3. c #785C7E",
"4. c #716571",
"5. c #6C3681",
"6. c #6D3886",
"7. c #753B89",
"8. c #773C90",
"9. c #6D4F81",
"0. c #764588",
"q. c #764689",
"w. c #6D5080",
"e. c #745688",
"r. c #7B588A",
"t. c #7D4B92",
"y. c #7A638D",
"u. c #7D6191",
"i. c #855A8F",
"p. c #875792",
"a. c #835D92",
"s. c #82688B",
"d. c #8B6597",
"f. c #887A96",
"g. c #8D739D",
"h. c #96789B",
"j. c #9C63A8",
"k. c #9976A5",
"l. c #9A79B3",
"z. c #A376BB",
"x. c magenta",
"c. c #AF7DC6",
"v. c #A18AA9",
"b. c #A897AD",
"n. c #AA84B7",
"m. c #B389BA",
"M. c #AD97B9",
"N. c #B49AB6",
"B. c #B795BA",
"V. c #B59CBD",
"C. c #BBA4B9",
"Z. c #BFACBA",
"A. c #BCB2BD",
"S. c #BA95C2",
"D. c #B799C2",
"F. c #BD92CE",
"G. c #B99ACA",
"H. c #BDA5CA",
"J. c #C39BC8",
"K. c #C48EDC",
"L. c #C2A7C8",
"P. c #C4B1CD",
"I. c #CCBBCE",
"U. c #D1B8CE",
"Y. c #C4A7D0",
"T. c #C7A9D7",
"R. c #CCAEDA",
"E. c #D2AFDC",
"W. c #CEBAD6",
"Q. c #D6B6D8",
"!. c #D4BBDC",
"~. c #D29DEF",
"^. c #CEA8E1",
"/. c #D5A5E6",
"(. c #D3B6E3",
"). c #DCB8E7",
"_. c #DCBDEB",
"`. c #E2BBF0",
"'. c #F3BFFF",
"]. c #D6C5D8",
"[. c #DCD3D6",
"{. c #E3C2DF",
"}. c #E1D1DB",
"|. c #DDC6E1",
" X c #D9C5E5",
".X c #D8C9E0",
"XX c #DED6E1",
"oX c #E5C7E5",
"OX c #E4D3EA",
"+X c #E9D7EA",
"@X c #E5C7F4",
"#X c #F4C8FC",
"$X c #ECD6F7",
"%X c #F6D8F8",
"&X c #F5DAFC",
"*X c #FEDDFF",
"=X c #EAE3E9",
"-X c #F4ECE6",
";X c #F9EAED",
":X c #F6F9E5",
">X c #FBFCE7",
",X c #F3F5EC",
"<X c #F5FBEC",
"1X c #FEFBED",
"2X c #EEE5F2",
"3X c #F3E2F4",
"4X c #F4EAF6",
"5X c #FAEDF4",
"6X c #F3E3FC",
"7X c #FDE4FE",
"8X c #F7E9F8",
"9X c #FDEBFE",
"0X c #ECF2F2",
"qX c #F6F4F5",
"wX c #FCF5F5",
"eX c #F4FDF4",
"rX c #FCFDF4",
"tX c #FEF3FE",
"yX c #F6FAFB",
"uX c #FDFCFD",
/* pixels */
"x.x.x.x.x.x.x.x.x.x.x.x.x.x.x.x.x.x.x.x.x.x.x.x.x.x.x.x.x.x.x.x.x.x.x.x.x.x.x.x.x.x.x.x.x.x.x.x.x.x.x.x.x.x.x.x.x.x.x.x.x.x.x.x.",
"x.x.x.x.x.x.x.x.x.x.x.x.x.x.x.x.x.x.x.x.x.x.x.x.x.x.x.x.x.x.x.x.x.x.x.x.x.x.x.x.x.x.x.x.x.x.x.x.x.x.x.x.x.x.x.x.x.x.x.x.x.x.x.x.",
"x.x.x.x.x.x.x.x.x.x.x.x.x.x.x.x.x.x.x.x.x.x.x.x.x.x.x.x.x.x.x.x.x.x.x.x.x.x.x.x.x.x.x.x.x.x.x.x.x.x.x.x.x.x.x.x.x.x.x.x.x.x.x.x.",
"x.x.x.x.x.x.x.x.x.x.x.x.x.x.x.x.x.x.x.x.x.x.x.x.x.x.x.x.x.x.x.x.x.x.x.x.x.x.x.x.x.x.x.x.x.x.x.x.x.x.x.x.x.x.x.x.x.x.x.x.x.x.x.x.",
"x.x.x.x.x.x.x.x.x.x.x.x.x.x.x.x.x.x.x.x.x.x.x.x.x.x.x.x.x.x.x.x.x.x.x.x.x.x.x.x.x.x.x.x.x.x.x.x.x.x.x.x.x.x.x.x.x.x.x.x.x.x.x.x.",
"x.x.x.x.x.x.x.x.x.x.x.x.x.x.x.x.x.x.x.x.x.x.x.x.x.x.x.x.x.x.x.x.x.x.x.x.x.x.x.x.x.x.x.x.x.x.x.x.x.x.x.x.x.x.x.x.x.x.x.x.x.x.x.x.",
"x.x.x.x.x.x.x.x.x.x.x.x.x.x.x.x.x.x.x.x.x.x.x.x.x.x.x.x.x.x.x.x.x.x.x.x.  i e x.x.x.x.x.x.x.x.x.x.x.x.x.x.x.x.x.x.x.x.x.x.x.x.x.",
"x.x.x.x.x.x.x.x.x.x.x.x.x.x.x.x.x.x.x.x.x.x.x.x.x.x.x.x.x.x.x.x.x.x.x.H A ; . x.x.x.x.x.x.x.x.x.x.x.x.x.x.x.x.x.x.x.x.x.x.x.x.x.",
"x.x.x.x.x.x.x.x.x.x.x.x.x.x.x.x.x.x.x.x.x.x.x.x.x.x.x.x.x.x.x.x.x.x.u *.#.: O x.x.x.x.x.x.x.x.x.x.x.x.x.x.x.x.x.x.x.x.x.x.x.x.x.",
"x.x.x.x.x.x.x.x.x.x.x.x.x.x.x.x.x.x.x.x.x.x.x.x.x.x.x.x.x.x.x.x.x.x.O K K : x.x.x.x.x.x.x.x.x.x.x.x.x.x.x.x.x.x.x.x.x.x.x.x.x.x.",
"x.x.x.x.x.x.x.x.x.x.x.x.x.x.x.x.x.x.x.x.x.x.x.x.x.x.x.x.x.x.x.x.x.x.o g g : x.x.x.x.x.x.x.x.x.x.x.x.x.x.x.x.x.x.x.x.x.x.x.x.x.x.",
"x.x.x.x.x.x.x.x.x.x.x.x.x.x.x.x.x.x.x.x.x.x.x.x.x.x.x.x.x.x.x.x.x.x.o g G o a x.x.x.x.x.x.x.x.x.x.x.x.x.x.x.x.x.x.x.x.x.x.x.x.x.",
"x.x.x.x.x.x.x.x.x.x.x.x.x.x.x.x.x.x.x.x.x.x.x.x.x.x.x.x.x.x.x.x.x.x.+ f f : a x.x.x.x.x.x.x.x.x.x.x.x.x.x.x.x.x.x.x.x.x.x.x.x.x.",
"x.x.x.x.x.x.x.x.x.x.x.x.x.x.x.x.x.x.x.x.x.x.x.x.x.x.x.x.x.x.x.x.x.x.: G G s -.i x.x.x.x.x.x.x.x.x.x.x.x.x.x.x.x.x.x.x.x.x.x.x.x.",
"x.x.x.x.x.x.x.x.x.x.x.x.x.x.x.x.x.x.x.x.x.x.x.x.x.x.x.x.x.x.x.x.x.x.D Q Q s ;.O x.x.x.x.x.x.x.x.x.x.x.x.x.x.x.x.x.x.x.x.x.x.x.x.",
"x.x.x.x.x.x.x.x.x.x.x.x.x.x.x.x.x.x.x.x.x.x.x.x.x.x.x.x.x.x.x.x.x.x.| p } B *.; x.x.x.x.x.x.x.x.x.x.x.x.x.x.x.x.x.x.x.x.x.x.x.x.",
"x.x.x.x.x.x.x.x.x.x.x.x.x.x.x.x.x.x.x.x.x.x.x.x.x.x.x.x.x.x.x.x.x.x.x.1 P C =.; x.x.x.x.x.x.x.x.x.x.x.x.x.x.x.x.x.x.x.x.x.x.x.x.",
"x.x.x.x.x.x.x.x.x.x.x.x.x.x.x.x.x.x.0 0 x.x.x.x.x.x.x.0 % A i d t K 0 Y q F e.$ H y 0 - - x.x.x.x.x.x.x.x.x.x.x.x.x.x.x.x.x.x.x.",
"x.x.x.x.x.x.x.x.x.x.x.x.x.x.x.x.x.X M $.% x.x.x.x.r #.H.9X8X-X-X-X;X5X8 q D L I s.v ' 2.3 X x.x.x.x.x.x.x.x.x.x.x.x.x.x.x.x.x.x.",
"x.x.x.x.x.x.x.x.x.x.x.x.x.x.x.x.x.$ n _ ] L v 0 u * y.9XuXwXrXrX1X1XuX}.E % < b Z [ :.Z 0 * x.x.x.x.x.x.x.x.x.x.x.x.x.x.x.x.x.x.",
"x.x.x.x.x.x.x.x.x.x.x.x.x.x.x.x.x.X 0 o.o.~ ~ Z P h.}.wXuXrX<X1X:X1X<XuXA.v.g.Z ! 6.7.( 0 # x.x.x.x.x.x.x.x.x.x.x.x.x.x.x.x.x.x.",
"x.x.x.x.x.x.x.x.x.x.x.x.x.x.x.x.x.* 0 R { 5...5.Y oXtXuX<XeXrX,XrXrX:XrXuXtXm./ 8.../ L 6 * x.x.x.x.x.x.x.x.x.x.x.x.x.x.x.x.x.x.",
"x.x.x.x.x.x.x.x.x.x.x.x.x.x.x.x.x.x.x., ) +.+.O.| oXwXrXuXrXyXuXyXeXeXeXyXI.l / ..O.c x x.x.x.x.x.x.x.x.x.x.x.x.x.x.x.x.x.x.x.x.",
"x.x.x.x.x.x.x.x.x.x.x.x.x.x.x.x.x.x.x.x.5 U O.7.m.*XwXuXeXyXuXuXuXuXeXeXuXwXE.^ O.B 9 x.x.x.x.x.x.x.x.x.x.x.x.x.x.x.x.x.x.x.x.x.",
"x.x.x.x.x.x.x.x.x.x.x.x.x.x.x.x.x.x.x.x.x.z ) o.P.9XuXrXeXuXuXuXuXyXrXeXeXuX%Xk.P 9 x.x.x.x.x.x.x.x.x.x.x.x.x.x.x.x.x.x.x.x.x.x.",
"x.x.x.x.x.x.x.x.x.x.x.x.x.x.x.x.x.x.x.x.x.; U g.oXwXeXrXyXuXuXuXuXuXrXeXeXtX&XJ.v . x.x.x.x.x.x.x.x.x.x.x.x.x.x.x.x.x.x.x.x.x.x.",
"x.x.x.x.x.x.x.x.x.x.x.x.x.x.x.x.x.x.x.x.m m R H.tXuXeX1XrXuXrXrXrX1X:X<XuXuX&Xm.z x.x.x.x.x.x.x.x.x.x.x.x.x.x.x.x.x.x.x.x.x.x.x.",
"x.x.x.x.x.x.x.x.x.x.x.x.x.x.x.x.x.x.x.x.4 m $.M.8XuXrXrXwXrXrX1X:X1X>X:X,XtX7XY.M m w x.x.x.x.x.x.x.x.x.x.x.x.x.x.x.x.x.x.x.x.x.",
"x.x.x.x.x.x.x.x.x.x.x.x.x.x.x.x.x.x.x.x.y S _ D.3XuXuXrXrXuX1X1X1X>X>XrXyXtX&XD.L 3 r e x.x.x.x.x.x.x.x.x.x.x.x.x.x.x.x.x.x.x.x.",
"x.x.x.x.x.x.x.x.x.x.x.x.x.x.x.x.x.x.x.x.p :.L R.tXuXwXuXuXuXrX1XrX1X1XrX,XtX7XR.< d.$.# x.x.x.x.x.x.x.x.x.x.x.x.x.x.x.x.x.x.x.x.",
"x.x.x.x.x.x.x.x.x.x.x.x.x.x.x.x.x.x.x.x.1.m.O.a.OXtXtXuXtXuXuXuXuXuXuXrXyXuXP.r.i.S.E = x.x.x.x.x.x.x.x.x.x.x.x.x.x.x.x.x.x.x.x.",
"x.x.x.x.x.x.x.x.x.x.x.x.x.x.x.x.x.x.x.x.S.#Xn.l v.OXtXuXtXuXrXuXtXuXuXuXtX].3.V 7X*X$.x.x.x.x.x.x.x.x.x.x.x.x.x.x.x.x.x.x.x.x.x.",
"x.x.x.x.x.x.x.x.x.x.x.x.x.x.x.x.x.x.x.x.n.`.T.g.m g.@X9X7XtX4XtXtX9X9XtX$Xk.L H.6XtX-.x.x.x.x.x.x.x.x.x.x.x.x.x.x.x.x.x.x.x.x.x.",
"x.x.x.x.x.x.x.x.x.x.x.x.x.x.x.x.x.x.x.x.D.7X$XC.4 r M &.2.:.3.=.*.1.y.e.' j E {.8XtX-.x.x.x.x.x.x.x.x.x.x.x.x.x.x.x.x.x.x.x.x.x.",
"x.x.x.x.x.x.x.x.x.x.x.x.x.x.x.x.x.x.x.x.S.%X9X].4.y.,.` { ( O.( T _ ) ) 9.s.N.7X9X6X$.x.x.x.x.x.x.x.x.x.x.x.x.x.x.x.x.x.x.x.x.x.",
"x.x.x.x.x.x.x.x.x.x.x.x.x.x.x.x.x.x.x.x.x.Q.tX9X[.uX+Xh.>.r.t.p.a.r.w.u.Y.9XtX9X7Xb.x.x.x.x.x.x.x.x.x.x.x.x.x.x.x.x.x.x.x.x.x.x.",
"x.x.x.x.x.x.x.x.x.x.x.x.x.x.x.x.x.x.x.x.x.x.].wXuXuXwX+XW.(.!. XR.L.G.&X7X8XtX8XL.J x.x.x.x.x.x.x.x.x.x.x.x.x.x.x.x.x.x.x.x.x.x.",
"x.x.x.x.x.x.x.x.x.x.x.x.x.x.x.x.x.x.x.x.x.x.-.tXtXyXuX4X4XtXtX6X7X&X:.$.W.tX=XZ.u ,.x.x.x.x.x.x.x.x.x.x.x.x.x.x.x.x.x.x.x.x.x.x.",
"x.x.x.x.x.x.x.x.x.x.x.x.x.x.x.x.x.x.x.x.x.x.x.s.7XOX3XuXuXuX0XuX!.d.o.o.<.H..XJ 8 x.x.x.x.x.x.x.x.x.x.x.x.x.x.x.x.x.x.x.x.x.x.x.",
"x.x.x.x.x.x.x.x.x.x.x.x.x.x.x.x.x.x.x.x.x.x.x.5 E.k.v.N.N.uXuXuXV.T 0.5.{ e.g.$ x.x.x.x.x.x.x.x.x.x.x.x.x.x.x.x.x.x.x.x.x.x.x.x.",
"x.x.x.x.x.x.x.x.x.x.x.x.x.x.x.x.x.x.x.x.x.x.x.S F.0.} } E !.6XtXS.( 8.8.7.0.e.< x.x.x.x.x.x.x.x.x.x.x.x.x.x.x.x.x.x.x.x.x.x.x.x.",
"x.x.x.x.x.x.x.x.x.x.x.x.x.x.x.x.x.x.x.x.x.x.x.z #Xj.7.0.:.T !.9XG.>.X.5.O.z.^.< x.x.x.x.x.x.x.x.x.x.x.x.x.x.x.x.x.x.x.x.x.x.x.x.",
"x.x.x.x.x.x.x.x.x.x.x.x.x.x.x.x.x.x.x.x.x.x.x.A *Xp./ 0.+.E oXwXtXW.| ` P k.(.@ x.x.x.x.x.x.x.x.x.x.x.x.x.x.x.x.x.x.x.x.x.x.x.x.",
"x.x.x.x.x.x.x.x.x.x.x.x.x.x.x.x.x.x.x.x.x.x.x.r &X@Xa.U o.V.2X9XuX4XC.Z.N.oXQ.$ x.x.x.x.x.x.Y | x.x.x.x.x.x.x.x.x.x.x.x.x.x.x.x.",
"x.x.x.x.x.x.x.x.x.x.x.x.x.x.x.x.x.x.x.x.x.x.x.r $XtX].f.b.uXwXuXuXyXrXrXwX9Xb.3 x.x.x.x.x.S } } _ x.x.x.x.x.x.x.x.x.x.x.x.x.x.x.",
"x.x.x.x.x.x.x.x.x.x.x.x.x.x.x.x.x.x.x.x.x.x.x.y 3XtXyXuXeXqX;XqX0X=X,X1X5X%Xy.@ x.x.x.x.V (  .:.R 3 x.x.x.x.x.x.x.x.x.x.x.x.x.x.",
"x.x.x.x.x.x.x.x.x.x.x.x.x.x.x.x.x.x.x.x.x.x.x.8 C.7XyXrXeXuXP.$XM.y tXtX].R.v.< x.x.x.x.9 X.' { U 9 x.x.x.x.x.x.x.x.x.x.x.x.x.x.",
"x.x.x.x.x.x.x.x.x.x.x.x.x.x.x.x.x.x.x.x.x.x.x.D N.9XrX:XuXuXR %.).Y.y +X XF.l.h x.x.x.x.L c o.L x x.x.x.x.x.x.x.x.x.x.x.x.x.x.x.",
"x.x.x.x.x.x.x.x.x.x.x.x.x.x.x.x.x.x.x.x.x.x.x.v B.|.4XuXrXuXP.<.r._.N.1.D.).z.h 7 x.x.x.e.v P l x.x.x.x.x.x.x.x.x.x.x.x.x.x.x.x.",
"x.x.x.x.x.x.x.x.x.x.x.x.x.x.x.x.x.x.x.x.x.x.x.0 D.|.4XuXyXXX9XD.U 1.N.1.>.t.0.< &   J H E n.V 7 x.x.x.x.x.x.x.x.x.x.x.x.x.x.x.x.",
"x.x.x.x.x.x.x.x.x.x.x.x.x.x.x.x.x.x.x.x.x.x.x.u C.7XuXqX=Xb.h.S.d.& 7 J.:.b ~ { &.*.F I _ R.R x.x.x.x.x.x.x.x.x.x.x.x.x.x.x.x.x.",
"x.x.x.x.x.x.x.x.x.x.x.x.x.x.x.x.x.x.x.x.x.x.x.> - I.9XuX+X8 q V 1 Y ).c a.F.^.#X*XQ.H.@X(.6 x.x.x.x.x.x.x.x.x.x.x.x.x.x.x.x.x.x.",
"x.x.x.x.x.x.x.x.x.x.x.x.x.x.x.x.x.x.x.x.x.x.x.x.> U.tX%XV.7 x.x.W Y J./.0.j c x D - v v N x.x.x.x.x.x.x.x.x.x.x.x.x.x.x.x.x.x.x.",
"x.x.x.x.x.x.x.x.x.x.x.x.x.x.x.x.x.x.x.x.x.x.x.x.- U.7X7XB.9 x.x.x.V /.'.c.O.v x.x.x.x.x.x.x.x.x.x.x.x.x.x.x.x.x.x.x.x.x.x.x.x.x.",
"x.x.x.x.x.x.x.x.x.x.x.x.x.x.x.x.x.x.x.x.x.x.x.x.x.h.#X#Xn., x.x.x.q ~.~.K.d.u x.x.x.x.x.x.x.x.x.x.x.x.x.x.x.x.x.x.x.x.x.x.x.x.x.",
"x.x.x.x.x.x.x.x.x.x.x.x.x.x.x.x.x.x.x.x.x.x.x.x.x.S i.p.P , x.x.x.9 j 0.O.2 x.x.x.x.x.x.x.x.x.x.x.x.x.x.x.x.x.x.x.x.x.x.x.x.x.x.",
"x.x.x.x.x.x.x.x.x.x.x.x.x.x.x.x.x.x.x.x.x.x.x.x.x.8 C L q x.x.x.x.x.k c h x.x.x.x.x.x.x.x.x.x.x.x.x.x.x.x.x.x.x.x.x.x.x.x.x.x.x.",
"x.x.x.x.x.x.x.x.x.x.x.x.x.x.x.x.x.x.x.x.x.x.x.x.x.x.x.x.x.x.x.x.x.x.x.x.x.x.x.x.x.x.x.x.x.x.x.x.x.x.x.x.x.x.x.x.x.x.x.x.x.x.x.x.",
"x.x.x.x.x.x.x.x.x.x.x.x.x.x.x.x.x.x.x.x.x.x.x.x.x.x.x.x.x.x.x.x.x.x.x.x.x.x.x.x.x.x.x.x.x.x.x.x.x.x.x.x.x.x.x.x.x.x.x.x.x.x.x.x.",
"x.x.x.x.x.x.x.x.x.x.x.x.x.x.x.x.x.x.x.x.x.x.x.x.x.x.x.x.x.x.x.x.x.x.x.x.x.x.x.x.x.x.x.x.x.x.x.x.x.x.x.x.x.x.x.x.x.x.x.x.x.x.x.x.",
"x.x.x.x.x.x.x.x.x.x.x.x.x.x.x.x.x.x.x.x.x.x.x.x.x.x.x.x.x.x.x.x.x.x.x.x.x.x.x.x.x.x.x.x.x.x.x.x.x.x.x.x.x.x.x.x.x.x.x.x.x.x.x.x.",
"x.x.x.x.x.x.x.x.x.x.x.x.x.x.x.x.x.x.x.x.x.x.x.x.x.x.x.x.x.x.x.x.x.x.x.x.x.x.x.x.x.x.x.x.x.x.x.x.x.x.x.x.x.x.x.x.x.x.x.x.x.x.x.x.",
"x.x.x.x.x.x.x.x.x.x.x.x.x.x.x.x.x.x.x.x.x.x.x.x.x.x.x.x.x.x.x.x.x.x.x.x.x.x.x.x.x.x.x.x.x.x.x.x.x.x.x.x.x.x.x.x.x.x.x.x.x.x.x.x.",
"x.x.x.x.x.x.x.x.x.x.x.x.x.x.x.x.x.x.x.x.x.x.x.x.x.x.x.x.x.x.x.x.x.x.x.x.x.x.x.x.x.x.x.x.x.x.x.x.x.x.x.x.x.x.x.x.x.x.x.x.x.x.x.x."
};
