/* XPM */
static char *back_hero_wait[] = {
/* columns rows colors chars-per-pixel */
"64 64 218 2 ",
"   c #FF00FF",
".  c #160D1D",
"X  c #2D1C1B",
"o  c #2E1918",
"O  c #301E1B",
"+  c #3C2C0F",
"@  c #342319",
"#  c #382717",
"$  c #1A0D21",
"%  c #1E1224",
"&  c #211423",
"*  c #2A1525",
"=  c #261B24",
"-  c #2D1C24",
";  c #2C1C2B",
":  c #25142D",
">  c #301D25",
",  c #331E2A",
"<  c #2E1B30",
"1  c #281631",
"2  c #331D32",
"3  c #3C1E31",
"4  c #2E2125",
"5  c #2D212A",
"6  c #332324",
"7  c #3D2C23",
"8  c #34232C",
"9  c #3B252B",
"0  c #3B2B2D",
"q  c #3B2626",
"w  c #2E2135",
"e  c #332332",
"r  c #3B2433",
"t  c #3B2B32",
"y  c #352339",
"u  c #3D2D3C",
"i  c #3E323C",
"p  c #3F3132",
"a  c #483217",
"s  c #40262C",
"d  c #452B2F",
"f  c #443324",
"g  c #493425",
"h  c #44352C",
"j  c #47392B",
"k  c #4B3B2B",
"l  c #4A3827",
"z  c #533E24",
"x  c #432738",
"c  c #443333",
"v  c #4C3B34",
"b  c #42333D",
"n  c #4D3C3A",
"m  c #453638",
"M  c #513D35",
"N  c #50401F",
"B  c #66511F",
"V  c #4D402D",
"C  c #4E403A",
"Z  c #4D4033",
"A  c #53443B",
"S  c #59443B",
"D  c #57472E",
"F  c #624739",
"G  c #64513F",
"H  c #695A3B",
"J  c #725A3C",
"K  c #675626",
"L  c #6F6034",
"P  c #3C2D41",
"I  c #412F47",
"U  c #423343",
"Y  c #473847",
"T  c #4D3D51",
"R  c #563F49",
"E  c #4F4445",
"W  c #544445",
"Q  c #59494A",
"!  c #574757",
"~  c #5D515D",
"^  c #5D5245",
"/  c #654A48",
"(  c #6B5D45",
")  c #6A514B",
"_  c #685848",
"`  c #6A5859",
"'  c #6A5759",
"]  c #735956",
"[  c #755843",
"{  c #6F6047",
"}  c #716249",
"|  c #756742",
" . c #726254",
".. c #786758",
"X. c #7C705A",
"o. c #5C4E60",
"O. c #695B69",
"+. c #675765",
"@. c #6F626C",
"#. c #75676A",
"$. c #7A6C7B",
"%. c #766773",
"&. c #887644",
"*. c #80635E",
"=. c #83765E",
"-. c #88795D",
";. c #836C62",
":. c #877567",
">. c #947A65",
",. c #83777E",
"<. c #8E824E",
"1. c #8F805C",
"2. c #978A58",
"3. c #9D9155",
"4. c #A68D5D",
"5. c #B19B5F",
"6. c #958663",
"7. c #978963",
"8. c #9A8B61",
"9. c #9C8979",
"0. c #9F9479",
"q. c #A48C6D",
"w. c #A4966D",
"e. c #A6986D",
"r. c #A69868",
"t. c #A58C77",
"y. c #AC9374",
"u. c #AB9D73",
"i. c #AB9D7A",
"p. c #A59478",
"a. c #B49777",
"s. c #B89F77",
"d. c #B39B6C",
"f. c #BFB47B",
"g. c #B8A271",
"h. c #C3AA7D",
"j. c #C2B37D",
"k. c #CBBD7C",
"l. c #C4B977",
"z. c #C5B56D",
"x. c #CFC171",
"c. c #D0C378",
"v. c #F9EF7D",
"b. c #F6EF7F",
"n. c #F7F277",
"m. c #F6F17A",
"M. c #FAF07E",
"N. c #857883",
"B. c #877988",
"V. c #8B7B93",
"C. c #A48F82",
"Z. c #AC9483",
"A. c #AB998B",
"S. c #B89D82",
"D. c #B8A88B",
"F. c #BDB18C",
"G. c #BFB484",
"H. c #BEB190",
"J. c #B7A891",
"K. c #9B8CA3",
"L. c #C7AD8F",
"P. c #C3B683",
"I. c #CAB282",
"U. c #C2B58B",
"Y. c #C7B788",
"T. c #C0AF99",
"R. c #C3B592",
"E. c #C5B891",
"W. c #C9BA95",
"Q. c #D5BE94",
"!. c #D2BDA1",
"~. c #DBC38C",
"^. c #D8C885",
"/. c #DBD18F",
"(. c #CEC097",
"). c #D9C79A",
"_. c #DED593",
"`. c #E0CE83",
"'. c #E9DA8A",
"]. c #E5CF9C",
"[. c #E1D693",
"{. c #EBD596",
"}. c #E1D59A",
"|. c #E4DA98",
" X c #ECDA98",
".X c #F3DC98",
"XX c #EEE38D",
"oX c #F6EF84",
"OX c #FAEE84",
"+X c #F6ED8B",
"@X c #F9EE8A",
"#X c #F0E58F",
"$X c #FAF083",
"%X c #FAF18B",
"&X c #EFE395",
"*X c #EFE59C",
"=X c #F0E695",
"-X c #F6ED93",
";X c #F8ED92",
":X c #F2E69C",
">X c #F5EA9D",
",X c #FAED9A",
"<X c #F9E599",
"1X c #FBF193",
"2X c #FBF19A",
"3X c #DDD3A6",
"4X c #E9D9A7",
"5X c #E9DBB0",
"6X c #EEE2A3",
"7X c #F1E6A1",
"8X c #F6ECA2",
"9X c #F9EEA4",
"0X c #F4EAAB",
"qX c #FAE6A8",
"wX c #FBF0A8",
"eX c #EDE1B3",
"rX c #F9EDB2",
"tX c #FAEBBC",
/* pixels */
"                                                                                                                                ",
"                                                                                                                                ",
"                                                                                                                                ",
"                                                                                                                                ",
"                                                                                                                                ",
"                                                                                                                                ",
"                                                                                                                                ",
"                                                                                                                                ",
"                                                                                                                                ",
"                                                                                                                                ",
"                                                                                                                                ",
"                                                                                                                                ",
"                                                                                                                                ",
"                                                                                                                                ",
"                                  = ; w y e 5 5                               & % & % .                                         ",
"                                b 4 4 4 4 6 4 8 ;                           = 4 5 5 5 = ;                                       ",
"                                Q C j k V Z n c 8 t                       W C A A Z k v A `                                     ",
"                            5 m ..D.F.G.G.R.J. .7 0 t e e ; ; ; ; ; 5 9 n ;.T.R.U.Y.Y.U.p.S t                                   ",
"                            = 0 =.5X0X8XwXrXeX1.+ # @ O X X X X X X @ # l 6.tXrXwX9XwXrXE.j - ;                                 ",
"                            ; 0 -.6X-X1X1X,X*Xl.3.3.2.7.7.6.6.6.7.7.7.8.r.k.9X,X1X;X1X9XE.v ; ;                                 ",
"                            ; 0 =.6X-X+XoX%X+X1X-X,X:X>X7X7X7X:X:X>X>X:X>X,X;X@X%X@X+X8XU.j 8 e                                 ",
"                            = c =.4X,X1X%X$XoX$XoX+X1X-X-X-X-X-X@X%X1X1X1X%X%X$XoX%X1X8XE.v 4 5                                 ",
"                            = p :.5X8X;X%X$XoXoXoX%X+X+X@X@X@XoXoX$X$X$XOX$XM.M.$X%X-X0XH.v 8 8                                 ",
"                            i R #.D.P.'.%XoX$XoXoX%XoX$XoXoX$X$X$X$X$X$Xv.m.M.M.%X=X^.E.9.W U i                                 ",
"                            %.$.#.G L c.1XoX$X$X$X$X$XOX$X$X$X$X$X$X$X$Xv.v.v.$X@X X<.G Q %.$.                                  ",
"                            N.B.+.7 N k.1X%XOXOX$XM.$X$XM.M.M.M.$X$X$XOX$Xv.v.oX;X|.| 7 m $.B.                                  ",
"                            b Y U q k P.1XoXv.v.M.M.M.M.OXOXOXOXOXOXoXOXOXv.v.oX-X}.} 6 e Y U P                                 ",
"                            = ; 2 8 k P.,X@XOXOXOXOXOXOXoXoXoXoX@X@XoXoXOXv.v.OX-X}.} 6 ; ; ; 5                                 ",
"                            ; e e > l P.,X@XOXOXOXOXOXOXoX@X@X@X@X@X@XoXOXv.m.b.+X|.( 6 ; e 5                                   ",
"                            +.%.! > g j.,X$XM.M.$X$X$X$XoXoXoXoXoXoXoXoXOXv.m.m.+X_.( - u @.#.                                  ",
"                              B.+.6 g j.2X$XM.M.$X$X$X$XOXoXoXoXOXOXOXoXOXv.n.m.oX_.( 6 b $.,.                                  ",
"                            ~ O.E > f j.2X%X$X$X$XoXoXOX@XoXoXOXOXv.v.oXOXv.n.m.oX_.( - u O.O.                                  ",
"                            ; y 2 - f f.,X@XOXM.M.M.$XoXoXoXoXOXv.v.v.v.$XM.m.m.+X[.( - < y w                                   ",
"                            $ : 1 - g j.,X@XoX$XM.M.$XoX@X@XoXOXOXOXv.v.$X$XoXoX+X[.H 6 : 1 %                                   ",
"                              I I - g P.9X-X+X@X%X@X@X@X@XoXoXOXOXoX@X%X%X;X;X;X-X|.{ 6 ; w                                     ",
"                                T - h F.0X*X:X:X>X7X:X:X=X=X#XXX&X=X=X=X:X:X7X7X6X3X( 4 &                                       ",
"                                  = h :.i.u.u.u.u.u.u.u.e.e.w.w.w.w.e.e.u.i.i.i.i.0.^ 4                                         ",
"                                      h j l k k k l l l f f f f f f f f f h v j h h                                             ",
"                                      8 8 8 8 8 8 , , - - - ; ; ; ; - > , , r r e e                                             ",
"                                      ! o.T y e e , , - * 2 < < ; ; = - > , 2 y P                                               ",
"                                        V.O.u t n v n m 9 2 2 2 ; 0 c v M v 9 r U                                               ",
"                                        K.%.0 { E.(.W.A./ 2 2 2 8 ` A.E.W.D.D # n                                               ",
"                                        +.` ..r.0X6X).D.) r x x 9 ] J.4X:X[.<.X._ E                                             ",
"                                      u e  .)./.9X^.&.J F ] ] ..) S G k.#X-X|.3XX.6                                             ",
"                                        - ] 4X8X>Xx.B a [ t.S.L.y.F a z.+X-X>XeXX.X                                             ",
"                                        0 _ p.k.<X'.5.4.a.a.h.~.~.d.4.`.-XXXl.i. .                                              ",
"                                          A + &. X,XqXqX4Xs.h.].qXqXqX<X<X^.K a v                                               ",
"                                          0 o J ].{.{.{.Q.q.y.L.~.{.<X.X{.I.z X 0                                               ",
"                                            o _ Q.~.j.I.>.F S / J g..X~.I.y.k O                                                 ",
"                                            * ) !.Q.s.S.*.x 3 s g q.4X).L.t.h X                                                 ",
"                                            * Q C.p.>.:.' x x r d ;.Z.Z.9.;.n 8                                                 ",
"                                              W 0 q s 9 R         m 9 6 q c O.                                                  ",
"                                                8 > , 8               * -                                                       ",
"                                                                                                                                ",
"                                                                                                                                ",
"                                                                                                                                ",
"                                                                                                                                ",
"                                                                                                                                ",
"                                                                                                                                ",
"                                                                                                                                ",
"                                                                                                                                ",
"                                                                                                                                ",
"                                                                                                                                ",
"                                                                                                                                "
};
