/* XPM */
static char *back2_milka[] = {
/* columns rows colors chars-per-pixel */
"64 64 215 2 ",
"   c #310E2E",
".  c #2F0634",
"X  c #2F043A",
"o  c #2F093B",
"O  c #330B33",
"+  c #3C0E32",
"@  c #35063C",
"#  c #340B3C",
"$  c #3A093D",
"%  c #3D143A",
"&  c #5B351F",
"*  c #64371D",
"=  c #481B25",
"-  c #471738",
";  c #4A1B39",
":  c #4B2324",
">  c #532224",
",  c #52222B",
"<  c #4C2437",
"1  c #68382A",
"2  c #360642",
"3  c #390644",
"4  c #360A41",
"5  c #3A0B43",
"6  c #3D064B",
"7  c #360A4B",
"8  c #3C094A",
"9  c #3A1444",
"0  c #3F134A",
"q  c #3A0D51",
"w  c #400A4A",
"e  c #410C4B",
"r  c #4A1B47",
"t  c #43144C",
"y  c #480D56",
"u  c #441253",
"i  c #4A1455",
"p  c #461C55",
"a  c #4B1B55",
"s  c #4B155B",
"d  c #4D1D5C",
"f  c #511C5E",
"g  c #4F244D",
"h  c #552549",
"j  c #4D2553",
"k  c #4F2758",
"l  c #542955",
"z  c #53255C",
"x  c #562A5C",
"c  c #523154",
"v  c #663741",
"b  c #4E1760",
"n  c #4E1A62",
"m  c #531B65",
"M  c #561969",
"N  c #541B6C",
"B  c #562461",
"V  c #582166",
"C  c #592B62",
"Z  c #552169",
"A  c #5B236E",
"S  c #5B2A6C",
"D  c #593164",
"F  c #5A3765",
"G  c #5D2472",
"H  c #5E2D72",
"J  c #62326C",
"K  c #643C6E",
"L  c #622675",
"P  c #622B73",
"I  c #63277A",
"U  c #652B7B",
"Y  c #682C7E",
"T  c #653574",
"R  c #673A73",
"E  c #693B75",
"W  c #683678",
"Q  c #6B3679",
"!  c #6C3B7C",
"~  c #634341",
"^  c #63476B",
"/  c #6C556F",
"(  c #745068",
")  c #71467C",
"_  c #6B5070",
"`  c #735678",
"'  c #74557C",
"]  c #672C81",
"[  c #6A2D82",
"{  c #6B2A86",
"}  c #6D3285",
"|  c #6F3C82",
" . c #6F3189",
".. c #713585",
"X. c #73358B",
"o. c #733A88",
"O. c #733C8A",
"+. c #793D8F",
"@. c #753591",
"#. c #753B92",
"$. c #774785",
"%. c #754189",
"&. c #7A448E",
"*. c #7A4D8A",
"=. c #7B5382",
"-. c #7D5A85",
";. c #7B4491",
":. c #7C4992",
">. c #7E5093",
",. c #7E6682",
"<. c #814F8C",
"1. c #83508F",
"2. c #82598B",
"3. c #835593",
"4. c #895A95",
"5. c #865898",
"6. c #8B5B9C",
"7. c #8C6598",
"8. c #8A7391",
"9. c #96789D",
"0. c #8E5CA4",
"q. c #905FA3",
"w. c #8D60A1",
"e. c #9364A5",
"r. c #956DA2",
"t. c #9668AB",
"y. c #9C6DAB",
"u. c #9574A5",
"i. c #9A74A5",
"p. c #9B7EA4",
"a. c #9D72AB",
"s. c #A373AD",
"d. c #A27DAE",
"f. c #A268BA",
"g. c #A578B5",
"h. c magenta",
"j. c #AE7CCA",
"k. c #B47EC9",
"l. c #968497",
"z. c #A183AB",
"x. c #AB86B6",
"c. c #AC8CB4",
"v. c #AD84BB",
"b. c #AC8CBA",
"n. c #B182BF",
"m. c #B28CBC",
"M. c #AD98B5",
"N. c #B293BE",
"B. c #B59CBB",
"V. c #B9ABBB",
"C. c #BFB1BF",
"Z. c #AF83C0",
"A. c #B48CC3",
"S. c #B887CA",
"D. c #B995C2",
"F. c #BC9BC2",
"G. c #BD95CB",
"H. c #BC8AD0",
"J. c #BD91D0",
"K. c #BDA3C5",
"L. c #BCABC1",
"P. c #C29BCF",
"I. c #C28ED5",
"U. c #C293D2",
"Y. c #C39CD3",
"T. c #CB9DDC",
"R. c #C3A7CA",
"E. c #C8B3CB",
"W. c #C6A4D2",
"Q. c #C9A4D5",
"!. c #CAACD2",
"~. c #CEA3DE",
"^. c #CCB3D3",
"/. c #CFB5D6",
"(. c #D2B5D7",
"). c #D1BDD4",
"_. c #D1B6DC",
"`. c #CF9CE1",
"'. c #CEA2E0",
"]. c #D7A7E5",
"[. c #D2AAE1",
"{. c #D7B7E2",
"}. c #DABAE2",
"|. c #E2BCED",
" X c #D7C6D9",
".X c #DCCBDC",
"XX c #DDD3DA",
"oX c #DDC4E4",
"OX c #DDCCE4",
"+X c #DFD1E2",
"@X c #E1CEE3",
"#X c #E0C6EA",
"$X c #E2D3E5",
"%X c #E5DBE4",
"&X c #E7D7EA",
"*X c #E6DAEB",
"=X c #E9D8EA",
"-X c #EBDBEB",
";X c #EAD3F0",
":X c #EEE3EB",
">X c #EDE9EC",
",X c #F1E4EE",
"<X c #F2EBED",
"1X c #F4F3EE",
"2X c #F7FAEF",
"3X c #FCFEEF",
"4X c #EEE5F1",
"5X c #F2E5F3",
"6X c #F4EDF3",
"7X c #F8EDF8",
"8X c #F5F2F3",
"9X c #F9F4F6",
"0X c #FDFEF4",
"qX c #FBF5F9",
"wX c #FDFBF9",
/* pixels */
"h.h.h.h.h.h.h.h.h.h.h.h.h.h.h.h.h.h.h.h.h.h.h.h.h.h.h.h.h.h.h.h.h.h.h.h.h.h.h.h.h.h.h.h.h.h.h.h.h.h.h.h.h.h.h.h.h.h.h.h.h.h.h.h.",
"h.h.h.h.h.h.h.h.h.h.h.h.h.h.h.h.h.h.h.h.h.h.h.h.h.h.h.h.h.h.h.h.h.h.h.h.h.h.h.h.h.h.h.h.h.h.h.h.h.h.h.h.h.h.h.h.h.h.h.h.h.h.h.h.",
"h.h.h.h.h.h.h.h.h.h.h.h.h.h.h.h.h.h.h.h.h.h.h.h.h.h.h.h.h.h.h.h.h.h.h.h.h.h.h.h.h.h.h.h.h.h.h.h.h.h.h.h.h.h.h.h.h.h.h.h.h.h.h.h.",
"h.h.h.h.h.h.h.h.h.h.h.h.h.h.h.h.h.h.h.h.h.h.h.h.h.h.h.h.h.h.h.h.h.O # O h.h.h.h.h.h.h.h.h.h.h.h.h.h.h.h.h.h.h.h.h.h.h.h.h.h.h.h.",
"h.h.h.h.h.h.h.h.h.h.h.h.h.h.h.h.h.h.h.h.h.h.h.h.h.h.h.h.h.h.h.h.h.0 j r # h.h.h.h.h.h.h.h.h.h.h.h.h.h.h.h.h.h.h.h.h.h.h.h.h.h.h.",
"h.h.h.h.h.h.h.h.h.h.h.h.h.h.h.h.h.h.h.h.h.h.h.h.h.h.h.h.h.h.h.h.h.c ( h # h.h.h.h.h.h.h.h.h.h.h.h.h.h.h.h.h.h.h.h.h.h.h.h.h.h.h.",
"h.h.h.h.h.h.h.h.h.h.h.h.h.h.h.h.h.h.h.h.h.h.h.h.h.h.h.h.h.h.h.h.h.< ~ <   h.h.h.h.h.h.h.h.h.h.h.h.h.h.h.h.h.h.h.h.h.h.h.h.h.h.h.",
"h.h.h.h.h.h.h.h.h.h.h.h.h.h.h.h.h.h.h.h.h.h.h.h.h.h.h.h.h.h.h.h.h.= & :   h.h.h.h.h.h.h.h.h.h.h.h.h.h.h.h.h.h.h.h.h.h.h.h.h.h.h.",
"h.h.h.h.h.h.h.h.h.h.h.h.h.h.h.h.h.h.h.h.h.h.h.h.h.h.h.h.h.h.h.h.% = & : + h.h.h.h.h.h.h.h.h.h.h.h.h.h.h.h.h.h.h.h.h.h.h.h.h.h.h.",
"h.h.h.h.h.h.h.h.h.h.h.h.h.h.h.h.h.h.h.h.h.h.h.h.h.h.h.h.h.h.h.h.% = * > + h.h.h.h.h.h.h.h.h.h.h.h.h.h.h.h.h.h.h.h.h.h.h.h.h.h.h.",
"h.h.h.h.h.h.h.h.h.h.h.h.h.h.h.h.h.h.h.h.h.h.h.h.h.h.h.h.h.h.h.h.+ , * > % h.h.h.h.h.h.h.h.h.h.h.h.h.h.h.h.h.h.h.h.h.h.h.h.h.h.h.",
"h.h.h.h.h.h.h.h.h.h.h.h.h.h.h.h.h.h.h.h.h.h.h.h.h.h.h.h.h.h.h.h.- , 1 , g h.h.h.h.h.h.h.h.h.h.h.h.h.h.h.h.h.h.h.h.h.h.h.h.h.h.h.",
"h.h.h.h.h.h.h.h.h.h.h.h.h.h.h.h.h.h.h.h.h.h.h.h.h.h.h.h.h.h.h.h.h.r v < l h.h.h.h.h.h.h.h.h.h.h.h.h.h.h.h.h.h.h.h.h.h.h.h.h.h.h.",
"h.h.h.h.h.h.h.h.h.h.h.h.h.h.h.h.h.h.h.h.h.h.h.h.h.h.h.h.h.h.h.h.h.t h < g h.h.h.h.h.h.h.h.h.h.h.h.h.h.h.h.h.h.h.h.h.h.h.h.h.h.h.",
"h.h.h.h.h.h.h.h.h.h.h.h.h.h.h.h.h.h.h.h.h.h.h.h.h.p . # O # $ F R.c ; ; l x h.h.h.h.h.h.h.h.h.h.h.h.h.h.h.h.h.h.h.h.h.h.h.h.h.h.",
"h.h.h.h.h.h.h.h.h.h.h.h.h.h.5 t p h.h.h.h.h.h.. . ,._ ` ` ' ' 8.%X^ - - j C 5 h.h.d a 4 h.h.h.h.h.h.h.h.h.h.h.h.h.h.h.h.h.h.h.h.",
"h.h.h.h.h.h.h.h.h.h.h.h.h.h.4 m A t h.h.h.h.5 T D.*X1X1X8X8X8X8X>X/ g - 0 i w 5 t L L 5 h.h.h.h.h.h.h.h.h.h.h.h.h.h.h.h.h.h.h.h.",
"h.h.h.h.h.h.h.h.h.h.h.h.h.h.2 n L H u # # # 4 ' -XwXwX0X0X0X3X0X2XXXl.  o 6 w y $.| A 4 h.h.h.h.h.h.h.h.h.h.h.h.h.h.h.h.h.h.h.h.",
"h.h.h.h.h.h.h.h.h.h.h.h.h.h.@ b U U A M m d -.C.wX0XwX0X0X0X0X0X3X3X Xl.9.J M ] +...G 2 h.h.h.h.h.h.h.h.h.h.h.h.h.h.h.h.h.h.h.h.",
"h.h.h.h.h.h.h.h.h.h.h.h.h.h.h.a A P U Y ] H K.wX0X0X0X0X0X0X0X0X0X0X0XqX@X>. .#.Y U M # h.h.h.h.h.h.h.h.h.h.h.h.h.h.h.h.h.h.h.h.",
"h.h.h.h.h.h.h.h.h.h.h.h.h.h.h.h.u A U [ ] T L.wX0X0X0X0X0X0X0X0X0X0X0X>X` S ] ] L b t h.h.h.h.h.h.h.h.h.h.h.h.h.h.h.h.h.h.h.h.h.",
"h.h.h.h.h.h.h.h.h.h.h.h.h.h.h.h.h.u A { X.a..XwX0X0X0XwX0X0X0X0X3X0X0X8XE.*.U I s t h.h.h.h.h.h.h.h.h.h.h.h.h.h.h.h.h.h.h.h.h.h.",
"h.h.h.h.h.h.h.h.h.h.h.h.h.h.h.h.h.h.d N O.Q.5XwX0X0X0X0X0X0X0X0X0X0X0X0XqXx.;.N t h.h.h.h.h.h.h.h.h.h.h.h.h.h.h.h.h.h.h.h.h.h.h.",
"h.h.h.h.h.h.h.h.h.h.h.h.h.h.h.h.h.h.t m >.{.6X0X0X0X0X0X0X0X0X0X0X0X3X3X9X}.t.6 h.h.h.h.h.h.h.h.h.h.h.h.h.h.h.h.h.h.h.h.h.h.h.h.",
"h.h.h.h.h.h.h.h.h.h.h.h.h.h.h.h.h.h.t W G.5XwX0XwXwX0X0X0X0X0X0X0X0X0X0XwX_.e.3 h.h.h.h.h.h.h.h.h.h.h.h.h.h.h.h.h.h.h.h.h.h.h.h.",
"h.h.h.h.h.h.h.h.h.h.h.h.h.h.h.h.h.h.9 W !.6X0X0X0X0X0X0X3X0X0X0X0X0X0X0X9X_.q.$ h.h.h.h.h.h.h.h.h.h.h.h.h.h.h.h.h.h.h.h.h.h.h.h.",
"h.h.h.h.h.h.h.h.h.h.h.h.h.h.h.h.h.h.X W !.6X0X0X0X0X0X0X0X0X0X0X0X0X0X0X9X_.0.2 # h.h.h.h.h.h.h.h.h.h.h.h.h.h.h.h.h.h.h.h.h.h.h.",
"h.h.h.h.h.h.h.h.h.h.h.h.h.h.h.h.h.h.0 W !.7X0X0X0X0X0X0X0X0X0X0X0X0X0X0X9X{.0.7 d h.h.h.h.h.h.h.h.h.h.h.h.h.h.h.h.h.h.h.h.h.h.h.",
"h.h.h.h.h.h.h.h.h.h.h.h.h.h.h.h.h.K R W Q.7XwX0X0X3X0X0X0X0X0X0X0X0X0X0XwX{.w.q t.Q h.h.h.h.h.h.h.h.h.h.h.h.h.h.h.h.h.h.h.h.h.h.",
"h.h.h.h.h.h.h.h.h.h.h.h.h.h.h.h.p 7.a.*.r.@X8XwX0X0X0X0X0X0X0X0X0X0X0XwX4Xx.7.>.S.W h.h.h.h.h.h.h.h.h.h.h.h.h.h.h.h.h.h.h.h.h.h.",
"h.h.h.h.h.h.h.h.h.h.h.h.h.h.h.h.A Y.|.s.d x.OXqX0X0X0X0X0X0X0X0X0X0XwX5X!.W 7.4X!.K h.h.h.h.h.h.h.h.h.h.h.h.h.h.h.h.h.h.h.h.h.h.",
"h.h.h.h.h.h.h.h.h.h.h.h.h.h.h.h.H Y.|.Y.5.G r.OXqXwXwXwXwXwXwXwX0X9X*XK.W e./.wX,X_ h.h.h.h.h.h.h.h.h.h.h.h.h.h.h.h.h.h.h.h.h.h.",
"h.h.h.h.h.h.h.h.h.h.h.h.h.h.h.h.H Q.;X}.Z.s H 4.u.c.b.b.b.b.b.A.b.b.r.%.u x.*XwX7X` h.h.h.h.h.h.h.h.h.h.h.h.h.h.h.h.h.h.h.h.h.h.",
"h.h.h.h.h.h.h.h.h.h.h.h.h.h.h.h.T Y.5X6X^.K z z Z [ } ] U Y } } } } G n D E.8X9X$X=.h.h.h.h.h.h.h.h.h.h.h.h.h.h.h.h.h.h.h.h.h.h.",
"h.h.h.h.h.h.h.h.h.h.h.h.h.h.h.h.h.n.*X0X5X^.OXE.r.#.} ..} } { X.X.} 6.D.XX8X0X:XN.2.h.h.h.h.h.h.h.h.h.h.h.h.h.h.h.h.h.h.h.h.h.h.",
"h.h.h.h.h.h.h.h.h.h.h.h.h.h.h.h.h.W F.*XqX8XwX<XoXA.k.k.j.j.j.S.S._.+X>X0X0X-XF.^ h.h.h.h.h.h.h.h.h.h.h.h.h.h.h.h.h.h.h.h.h.h.h.",
"h.h.h.h.h.h.h.h.h.h.h.h.h.h.h.h.h.h.' B.wX0XwXwX9X@XoX#XoXoXoX[.Z.G.XXwXwX-XF.) h.h.h.h.h.h.h.h.h.h.h.h.h.h.h.h.h.h.h.h.h.h.h.h.",
"h.h.h.h.h.h.h.h.h.h.h.h.h.h.h.h.h.h.. ' ,X0X0X9X0X0XwXwX0X9X7X}.&.| z.6X7X!.4.$ h.h.h.h.h.h.h.h.h.h.h.h.h.h.h.h.h.h.h.h.h.h.h.h.",
"h.h.h.h.h.h.h.h.h.h.h.h.h.h.h.h.h.h.h.p -.-XXX$XqX9X0X2X0X0XM.>.O.O.:.u..X2.f h.h.h.h.h.h.h.h.h.h.h.h.h.h.h.h.h.h.h.h.h.h.h.h.h.",
"h.h.h.h.h.h.h.h.h.h.h.h.h.h.h.h.h.h.h.3 a D.g.e.s.u.E.wX0X0Xz.} @.@.X.+.s.S 3 h.h.h.h.h.h.h.h.h.h.h.h.h.h.h.h.h.h.h.h.h.h.h.h.h.",
"h.h.h.h.h.h.h.h.h.h.h.h.h.h.h.h.h.h.h.h.d n.5.X.X.| r. X1XwXd.X.@.@.@.+.e.N 3 h.h.h.h.h.h.h.h.h.h.h.h.h.h.h.h.h.h.h.h.h.h.h.h.h.",
"h.h.h.h.h.h.h.h.h.h.h.h.h.h.h.h.h.h.h.h.z  Xt.X.@.@.X.7.:X0Xz.O.@.@.@.;._.E @ h.h.h.h.h.h.d V 0 h.h.h.h.h.h.h.h.h.h.h.h.h.h.h.h.",
"h.h.h.h.h.h.h.h.h.h.h.h.h.h.h.h.h.h.h.h.z .Xr.} X.#. .4.4XwX%XK.+.}  .+.(.^ h.h.h.h.h.h.# N [ d r h.h.h.h.h.h.h.h.h.h.h.h.h.h.h.",
"h.h.h.h.h.h.h.h.h.h.h.h.h.h.h.h.h.h.h.h.k .XV.5.X.X.5.N.8X0X0X%Xp.i.u.p..X^ h.h.h.h.h.4 7 m } U u h.h.h.h.h.h.h.h.h.h.h.h.h.h.h.",
"h.h.h.h.h.h.h.h.h.h.h.h.h.h.h.h.h.h.h.h.z %XwXE.=.*.B.9X9X0X0X2X9X9X9X8X-XE h.h.h.h.h.8 m G ] U i h.h.h.h.h.h.h.h.h.h.h.h.h.h.h.",
"h.h.h.h.h.h.h.h.h.h.h.h.h.h.h.h.h.h.h.h.x +X0X8X%X-X6X0X0X0X2X0XwXwXwXqX^.D h.h.h.h.h.8 G } [ Y i h.h.h.h.h.h.h.h.h.h.h.h.h.h.h.",
"h.h.h.h.h.h.h.h.h.h.h.h.h.h.h.h.h.h.h.h.z R.>X0X0X0X0X6X X<XV.l.1X0X>XoXW.S h.h.h.h.h.8 N [ [ L i h.h.h.h.h.h.h.h.h.h.h.h.h.h.h.",
"h.h.h.h.h.h.h.h.h.h.h.h.h.h.h.h.h.h.h.h.a A.*X0X0X0X0X-Xp.!.9./ V.>X*XY.J.S h.h.h.h.h.# i L P u h.h.h.h.h.h.h.h.h.h.h.h.h.h.h.h.",
"h.h.h.h.h.h.h.h.h.h.h.h.h.h.h.h.h.h.h.h.0 g.;XwXwX3X0X XF 3.^. X^ L. XU.H.S $ h.h.h.h.h.t M f h.h.h.h.h.h.h.h.h.h.h.h.h.h.h.h.h.",
"h.h.h.h.h.h.h.h.h.h.h.h.h.h.h.h.h.h.h.h.h.i.{.*X9X0X0X8X(.) *.N.).' =.J.U.S 5 h.h.h.h.h.) C 5 h.h.h.h.h.h.h.h.h.h.h.h.h.h.h.h.h.",
"h.h.h.h.h.h.h.h.h.h.h.h.h.h.h.h.h.h.h.h.h.R r.!.&X6X*X$XoXa.O.| 8.u.7.&.&.i $ o # # 9 g N.=.O h.h.h.h.h.h.h.h.h.h.h.h.h.h.h.h.h.",
"h.h.h.h.h.h.h.h.h.h.h.h.h.h.h.h.h.h.h.h.h.@ ! H.~.~.G.v.n.g.&.S D g.y.A S E 2.9.9.i.m.D.4.x h.h.h.h.h.h.h.h.h.h.h.h.h.h.h.h.h.h.",
"h.h.h.h.h.h.h.h.h.h.h.h.h.h.h.h.h.h.h.h.h.h.3.I.H.H.o.i i i 5.T.H.T ) G.P.!.(.(.m.s.y.s.x h.h.h.h.h.h.h.h.h.h.h.h.h.h.h.h.h.h.h.",
"h.h.h.h.h.h.h.h.h.h.h.h.h.h.h.h.h.h.h.h.h.h.B 6.`.`.S.*.@ 6 3.].'.G.u.! T C g t u e w e h.h.h.h.h.h.h.h.h.h.h.h.h.h.h.h.h.h.h.h.",
"h.h.h.h.h.h.h.h.h.h.h.h.h.h.h.h.h.h.h.h.h.h.3 U f.f.f.%.4 4 3.[.[.|.S.W w O h.h.h.h.h.h.h.h.h.h.h.h.h.h.h.h.h.h.h.h.h.h.h.h.h.h.",
"h.h.h.h.h.h.h.h.h.h.h.h.h.h.h.h.h.h.h.h.h.h.h.h.] { ] b 4 4 1.].[.[.U.y.t h.h.h.h.h.h.h.h.h.h.h.h.h.h.h.h.h.h.h.h.h.h.h.h.h.h.h.",
"h.h.h.h.h.h.h.h.h.h.h.h.h.h.h.h.h.h.h.h.h.h.h.h.y y y h.h.8 T 0.0.0.<.T j h.h.h.h.h.h.h.h.h.h.h.h.h.h.h.h.h.h.h.h.h.h.h.h.h.h.h.",
"h.h.h.h.h.h.h.h.h.h.h.h.h.h.h.h.h.h.h.h.h.h.h.h.h.h.h.h.h.8 m ] ] [ m 5 h.h.h.h.h.h.h.h.h.h.h.h.h.h.h.h.h.h.h.h.h.h.h.h.h.h.h.h.",
"h.h.h.h.h.h.h.h.h.h.h.h.h.h.h.h.h.h.h.h.h.h.h.h.h.h.h.h.h.t s N M M M h.h.h.h.h.h.h.h.h.h.h.h.h.h.h.h.h.h.h.h.h.h.h.h.h.h.h.h.h.",
"h.h.h.h.h.h.h.h.h.h.h.h.h.h.h.h.h.h.h.h.h.h.h.h.h.h.h.h.h.h.3 6 w e h.h.h.h.h.h.h.h.h.h.h.h.h.h.h.h.h.h.h.h.h.h.h.h.h.h.h.h.h.h.",
"h.h.h.h.h.h.h.h.h.h.h.h.h.h.h.h.h.h.h.h.h.h.h.h.h.h.h.h.h.h.h.h.h.h.h.h.h.h.h.h.h.h.h.h.h.h.h.h.h.h.h.h.h.h.h.h.h.h.h.h.h.h.h.h.",
"h.h.h.h.h.h.h.h.h.h.h.h.h.h.h.h.h.h.h.h.h.h.h.h.h.h.h.h.h.h.h.h.h.h.h.h.h.h.h.h.h.h.h.h.h.h.h.h.h.h.h.h.h.h.h.h.h.h.h.h.h.h.h.h.",
"h.h.h.h.h.h.h.h.h.h.h.h.h.h.h.h.h.h.h.h.h.h.h.h.h.h.h.h.h.h.h.h.h.h.h.h.h.h.h.h.h.h.h.h.h.h.h.h.h.h.h.h.h.h.h.h.h.h.h.h.h.h.h.h.",
"h.h.h.h.h.h.h.h.h.h.h.h.h.h.h.h.h.h.h.h.h.h.h.h.h.h.h.h.h.h.h.h.h.h.h.h.h.h.h.h.h.h.h.h.h.h.h.h.h.h.h.h.h.h.h.h.h.h.h.h.h.h.h.h."
};
