/* XPM */
static char *back1_milka[] = {
/* columns rows colors chars-per-pixel */
"64 64 213 2 ",
"   c #33072F",
".  c #2E0B35",
"X  c #2F0B39",
"o  c #300637",
"O  c #330A34",
"+  c #35063D",
"@  c #350A3C",
"#  c #380C3C",
"$  c #37163D",
"%  c #66391C",
"&  c #4E1C2B",
"*  c #461A39",
"=  c #47212A",
"-  c #4D2128",
";  c #5F3824",
":  c #48213B",
">  c #532334",
",  c #693E24",
"<  c #603C3F",
"1  c #3A0645",
"2  c #360B42",
"3  c #3B0B45",
"4  c #380649",
"5  c #3D0D4B",
"6  c #3C1244",
"7  c #3F1A44",
"8  c #3E124A",
"9  c #3F0F50",
"0  c #410949",
"q  c #410C4D",
"w  c #471846",
"e  c #43144C",
"r  c #441D4D",
"t  c #4B1B4D",
"y  c #430C52",
"u  c #450C5A",
"i  c #451252",
"p  c #4A1554",
"a  c #461C52",
"s  c #4C1C54",
"d  c #4C125C",
"f  c #4B1B5D",
"g  c #50165F",
"h  c #432146",
"j  c #4F2447",
"k  c #42214C",
"l  c #532444",
"z  c #4D2856",
"x  c #4A2259",
"c  c #532B5A",
"v  c #552859",
"b  c #5A3757",
"n  c #613951",
"m  c #4E1862",
"M  c #531C65",
"N  c #561B6B",
"B  c #581E6A",
"V  c #582269",
"C  c #5B236B",
"Z  c #5B2B6C",
"A  c #5E3567",
"S  c #552170",
"D  c #5C2373",
"F  c #612C6E",
"G  c #633B66",
"H  c #64346D",
"J  c #622775",
"K  c #632C75",
"L  c #63267B",
"P  c #642B7C",
"I  c #692C7E",
"U  c #633572",
"Y  c #643C72",
"T  c #67347C",
"R  c #6A3B7A",
"E  c #6C4946",
"W  c #664466",
"Q  c #6E516A",
"!  c #6B4277",
"~  c #72447C",
"^  c #754A7B",
"/  c #735A77",
"(  c #7B5C7E",
")  c #76617A",
"_  c #652C81",
"`  c #6B2C86",
"'  c #6E2E89",
"]  c #6C3484",
"[  c #6D3886",
"{  c #703387",
"}  c #743D85",
"|  c #72358C",
" . c #753B8C",
".. c #7A398E",
"X. c #773692",
"o. c #783494",
"O. c #743A92",
"+. c #793B92",
"@. c #763899",
"#. c #6F4482",
"$. c #754B81",
"%. c #73428B",
"&. c #764889",
"*. c #7D4B8F",
"=. c #7B5787",
"-. c #7D4893",
";. c #80508C",
":. c #835D8C",
">. c #824996",
",. c #825495",
"<. c #845C94",
"1. c #89569D",
"2. c #8C5B9C",
"3. c #8B708D",
"4. c #886595",
"5. c #8C669B",
"6. c #8E6C99",
"7. c #93739B",
"8. c #8D57A2",
"9. c #935CAB",
"0. c #8F62A2",
"q. c #9464A3",
"w. c #9669A9",
"e. c #9B6EAB",
"r. c #9372A0",
"t. c #9B73A6",
"y. c #9D72AB",
"u. c #9D7AAB",
"i. c #9F6EB1",
"p. c #A06DAD",
"a. c #A174AE",
"s. c #A46EB6",
"d. c #A779B2",
"f. c #A47AB3",
"g. c magenta",
"h. c #B079C2",
"j. c #9A879E",
"k. c #9C81A4",
"l. c #A28AA5",
"z. c #A385A9",
"x. c #A58CAB",
"c. c #AA93AC",
"v. c #A685B2",
"b. c #AA84B4",
"n. c #AC8BB6",
"m. c #AC8BBA",
"M. c #B086BC",
"N. c #B38CBE",
"B. c #AC92B3",
"V. c #AF9BB3",
"C. c #B19DB5",
"Z. c #B393BA",
"A. c #B59CBD",
"S. c #B1A4AE",
"D. c #B6A5BA",
"F. c #B88DC4",
"G. c #B694C4",
"H. c #B898C6",
"J. c #BC92CB",
"K. c #BBA2C3",
"L. c #C28DCF",
"P. c #C29FCB",
"I. c #C295D5",
"U. c #C3A2CA",
"Y. c #C5ADCA",
"T. c #C3B1C1",
"R. c #C9B4CD",
"E. c #CDBCCF",
"W. c #C9A6D7",
"Q. c #D3A9DC",
"!. c #CBB3D3",
"~. c #D1BED6",
"^. c #D3B2DD",
"/. c #D5BCDD",
"(. c #D5B3E3",
"). c #DCBDE4",
"_. c #DBB4EA",
"`. c #CDC1CC",
"'. c #CFC4D1",
"]. c #D2C2D4",
"[. c #D7CCD7",
"{. c #D4C0DC",
"}. c #DAC3DE",
"|. c #DACCDC",
" X c #DDD5D9",
".X c #DCC8E3",
"XX c #DFD0E0",
"oX c #E2D2E4",
"OX c #E5DDE5",
"+X c #E6D4EB",
"@X c #EBD7EC",
"#X c #E7DDE9",
"$X c #EADCEB",
"%X c #E8CAF3",
"&X c #EAD4F2",
"*X c #EDDEF1",
"=X c #F0DEF0",
"-X c #EAE6E7",
";X c #EDE4EC",
":X c #F1E6EE",
">X c #F2EBEE",
",X c #F4F3EE",
"<X c #FBFFEF",
"1X c #EFE1F2",
"2X c #F2E5F3",
"3X c #F5ECF4",
"4X c #F9EDF7",
"5X c #F6F2F2",
"6X c #F9F7F4",
"7X c #F7FCF2",
"8X c #FCFEF4",
"9X c #FBF3F9",
"0X c #FEFDF9",
/* pixels */
"g.g.g.g.g.g.g.g.g.g.g.g.g.g.g.g.g.g.g.g.g.g.g.g.g.g.g.g.g.g.g.g.g.g.g.g.g.g.g.g.g.g.g.g.g.g.g.g.g.g.g.g.g.g.g.g.g.g.g.g.g.g.g.g.",
"g.g.g.g.g.g.g.g.g.g.g.g.g.g.g.g.g.g.g.g.g.g.g.g.g.g.g.g.g.g.g.g.g.g.g.g.g.g.g.g.g.g.g.g.g.g.g.g.g.g.g.g.g.g.g.g.g.g.g.g.g.g.g.g.",
"g.g.g.g.g.g.g.g.g.g.g.g.g.g.g.g.g.g.g.g.g.g.g.g.g.g.g.g.g.g.g.g.g.g.j l 7 w g.g.g.g.g.g.g.g.g.g.g.g.g.g.g.g.g.g.g.g.g.g.g.g.g.g.",
"g.g.g.g.g.g.g.g.g.g.g.g.g.g.g.g.g.g.g.g.g.g.g.g.g.g.g.g.g.g.g.g.g.g.W Q h 7 g.g.g.g.g.g.g.g.g.g.g.g.g.g.g.g.g.g.g.g.g.g.g.g.g.g.",
"g.g.g.g.g.g.g.g.g.g.g.g.g.g.g.g.g.g.g.g.g.g.g.g.g.g.g.g.g.g.g.g.g.g.n E * $ g.g.g.g.g.g.g.g.g.g.g.g.g.g.g.g.g.g.g.g.g.g.g.g.g.g.",
"g.g.g.g.g.g.g.g.g.g.g.g.g.g.g.g.g.g.g.g.g.g.g.g.g.g.g.g.g.g.g.g.g.g.> , = h g.g.g.g.g.g.g.g.g.g.g.g.g.g.g.g.g.g.g.g.g.g.g.g.g.g.",
"g.g.g.g.g.g.g.g.g.g.g.g.g.g.g.g.g.g.g.g.g.g.g.g.g.g.g.g.g.g.g.g.g.g.> , - : g.g.g.g.g.g.g.g.g.g.g.g.g.g.g.g.g.g.g.g.g.g.g.g.g.g.",
"g.g.g.g.g.g.g.g.g.g.g.g.g.g.g.g.g.g.g.g.g.g.g.g.g.g.g.g.g.g.g.g.g.O - % - . g.g.g.g.g.g.g.g.g.g.g.g.g.g.g.g.g.g.g.g.g.g.g.g.g.g.",
"g.g.g.g.g.g.g.g.g.g.g.g.g.g.g.g.g.g.g.g.g.g.g.g.g.g.g.g.g.g.g.g.g.* & % - # $ g.g.g.g.g.g.g.g.g.g.g.g.g.g.g.g.g.g.g.g.g.g.g.g.g.",
"g.g.g.g.g.g.g.g.g.g.g.g.g.g.g.g.g.g.g.g.g.g.g.g.g.g.g.g.g.g.g.g.g.l & ; & r b g.g.g.g.g.g.g.g.g.g.g.g.g.g.g.g.g.g.g.g.g.g.g.g.g.",
"g.g.g.g.g.g.g.g.g.g.g.g.g.g.g.g.g.g.g.g.g.g.g.g.g.g.g.g.g.g.g.g.g.b 7 < > c G g.g.g.g.g.g.g.g.g.g.g.g.g.g.g.g.g.g.g.g.g.g.g.g.g.",
"g.g.g.g.g.g.g.g.g.g.g.g.g.g.g.g.g.g.g.g.g.g.g.g.g.g.g.g.g.g.g.g.g.g.7 b : c G g.g.g.g.g.g.g.g.g.g.g.g.g.g.g.g.g.g.g.g.g.g.g.g.g.",
"g.g.g.g.g.g.g.g.g.g.g.g.g.g.g.g.g.g.g.g.g.g.g.g.g.g.g.g.g.g.g.g.g.g.t j l v G   g.g.g.g.g.g.g.g.g.g.g.g.g.g.g.g.g.g.g.g.g.g.g.g.",
"g.g.g.g.g.g.g.g.g.g.g.g.g.g.g.3 3 g.g.g.g.g.g.g.g.# # 2 3 # O 6 z R.7.t * v G   g.g.g.8 8 g.g.g.g.g.g.g.g.g.g.g.g.g.g.g.g.g.g.g.",
"g.g.g.g.g.g.g.g.g.g.g.g.g.g.g.0 d p g.g.g.g.g.g.( H.x.x.x.x.l.l.c.-Xj.w > z H . g.g.h Z M 3 g.g.g.g.g.g.g.g.g.g.g.g.g.g.g.g.g.g.",
"g.g.g.g.g.g.g.g.g.g.g.g.g.g.g.y L V e g.g.g.g.o Y C.3X0X8X0X0X0X8X8XS.G w 8 p 2 g.g.c  .D 3 g.g.g.g.g.g.g.g.g.g.g.g.g.g.g.g.g.g.",
"g.g.g.g.g.g.g.g.g.g.g.g.g.g.g.y _ I V 5 6 5 6 2 3.4X<X<X8X8X8X8X8X7X7XE.h 6 9 5 0 F .._ N 3 g.g.g.g.g.g.g.g.g.g.g.g.g.g.g.g.g.g.",
"g.g.g.g.g.g.g.g.g.g.g.g.g.g.g.q L P K S S S Z z. X8X<X8X8X8X8X8X7X8X7X-XD.D.5.S I ] ] P M g.g.g.g.g.g.g.g.g.g.g.g.g.g.g.g.g.g.g.",
"g.g.g.g.g.g.g.g.g.g.g.g.g.g.g.5 M D K D P P R |.0X8X8X8X0X8X8X8X8X0X<X<X0XoXr.D ..{ J V g g.g.g.g.g.g.g.g.g.g.g.g.g.g.g.g.g.g.g.",
"g.g.g.g.g.g.g.g.g.g.g.g.g.g.g.g.3 f P _ _ P #.|.0X8X8X8X8X8X8X8X8X8X8X8X0XV.Y _ ` P B q g.g.g.g.g.g.g.g.g.g.g.g.g.g.g.g.g.g.g.g.",
"g.g.g.g.g.g.g.g.g.g.g.g.g.g.g.g.g.5 f I ` >.M.@X8X8X8X8X8X8X8X8X8X8X8X8X0X:Xn._ K B y g.g.g.g.g.g.g.g.g.g.g.g.g.g.g.g.g.g.g.g.g.",
"g.g.g.g.g.g.g.g.g.g.g.g.g.g.g.g.g.g.e V J 8.Q.:X8X8X8X8X8X8X8X8X8X8X8X8X0X0X].=.B y # g.g.g.g.g.g.g.g.g.g.g.g.g.g.g.g.g.g.g.g.g.",
"g.g.g.g.g.g.g.g.g.g.g.g.g.g.g.g.g.g.g.0 P w.{.>X8X8X8X8X8X8X8X8X8X8X0X8X8X8X#XG.x o g.g.g.g.g.g.g.g.g.g.g.g.g.g.g.g.g.g.g.g.g.g.",
"g.g.g.g.g.g.g.g.g.g.g.g.g.g.g.g.g.g.g.y w.W.4X8X8X8X8X8X8X8X8X8X8X8X8X0X8X8X#XJ.x @ g.g.g.g.g.g.g.g.g.g.g.g.g.g.g.g.g.g.g.g.g.g.",
"g.g.g.g.g.g.g.g.g.g.g.g.g.g.g.g.g.g.g.8 i._.0X0X8X8X8X8X8X8X8X8X8X8X8X8X0X0X$XH.m 2 g.g.g.g.g.g.g.g.g.g.g.g.g.g.g.g.g.g.g.g.g.g.",
"g.g.g.g.g.g.g.g.g.g.g.g.g.g.g.g.g.g.g.9 i./.0X7X0X8X8X8X8X8X8X8X8X0X8X8X8X8X*XF.m 4 # g.g.g.g.g.g.g.g.g.g.g.g.g.g.g.g.g.g.g.g.g.",
"g.g.g.g.g.g.g.g.g.g.g.g.g.g.g.g.g.g.g.e e..X0X0X8X8X8X8X8X8X8X8X8X8X8X8X7X0X*XG.m 9 s g.g.g.g.g.g.g.g.g.g.g.g.g.g.g.g.g.g.g.g.g.",
"g.g.g.g.g.g.g.g.g.g.g.g.g.g.g.g.g.g.g.a e.).0X7X8X8X8X8X8X8X8X8X8X8X<X<X8X0X*XG.m K 2.7 g.g.g.g.g.g.g.g.g.g.g.g.g.g.g.g.g.g.g.g.",
"g.g.g.g.g.g.g.g.g.g.g.g.g.g.g.g.g.! 6.#.*.m.#X5X8X8X8X8X8X8X8X8X8X8X<X8X0X3XY.4.$.r.e.8 g.g.g.g.g.g.g.g.g.g.g.g.g.g.g.g.g.g.g.g.",
"g.g.g.g.g.g.g.g.g.g.g.g.g.g.g.g.g.a._.W.U R H.+X6X<X<X8X8X8X8X8X8X<X<X6X6X{.4.x ~.oXt.8 g.g.g.g.g.g.g.g.g.g.g.g.g.g.g.g.g.g.g.g.",
"g.g.g.g.g.g.g.g.g.g.g.g.g.g.g.g.g.y._._.y.%.Z m.XX0X0X0X8X8X0X8X8X8X0X3X.Xr.[ v.;X5XD.e g.g.g.g.g.g.g.g.g.g.g.g.g.g.g.g.g.g.g.g.",
"g.g.g.g.g.g.g.g.g.g.g.g.g.g.g.g.# u.%X%XK.1.4 R 6.B.K.K.K.A.A.H.K.K.K.m.5.Z Y /.5X0XR.r g.g.g.g.g.g.g.g.g.g.g.g.g.g.g.g.g.g.g.g.",
"g.g.g.g.g.g.g.g.g.g.g.g.g.g.g.g.2 u.&X4XoXu.9 8 9 d I ] P T T _ ] [ { P p 8 =.:X6X9XR.a g.g.g.g.g.g.g.g.g.g.g.g.g.g.g.g.g.g.g.g.",
"g.g.g.g.g.g.g.g.g.g.g.g.g.g.g.g.g.q./.9X3X}.B.R.n.2...| ` ` ' ] ] | | O.w.H.XX7X0XXXu.e g.g.g.g.g.g.g.g.g.g.g.g.g.g.g.g.g.g.g.g.",
"g.g.g.g.g.g.g.g.g.g.g.g.g.g.g.g.g.~ t..X3X3XXX9X+XW.e.9.9.9.9.9.9.w.s.Z./.;X0X7X+Xn.Y g.g.g.g.g.g.g.g.g.g.g.g.g.g.g.g.g.g.g.g.g.",
"g.g.g.g.g.g.g.g.g.g.g.g.g.g.g.g.g.g.c v.+X6X7X0X6X3X/.^.^.(.(.(.(.W._.2X7X8X6X*XF.^ # g.g.g.g.g.g.g.g.g.g.g.g.g.g.g.g.g.g.g.g.g.",
"g.g.g.g.g.g.g.g.g.g.g.g.g.g.g.g.g.g.7 c E.0X0X7X8X8X3X3X3X9X3X9X&X5.*.7.:X0X;XH.H s g.g.g.g.g.g.g.g.g.g.g.g.g.g.g.g.g.g.g.g.g.g.",
"g.g.g.g.g.g.g.g.g.g.g.g.g.g.g.g.g.g.g.8 :.T.9X;X-X8X0X8X8X0X0X[.m.-.| &.m.|./.=.i g.g.g.g.g.g.g.g.g.g.g.g.g.g.g.g.g.g.g.g.g.g.g.",
"g.g.g.g.g.g.g.g.g.g.g.g.g.g.g.g.g.g.g.r e =.@XU.P..X|.>X8X7X0XK.] o.| X.] v.z.1 g.g.g.g.g.g.g.g.g.g.g.g.g.g.g.g.g.g.g.g.g.g.g.g.",
"g.g.g.g.g.g.g.g.g.g.g.g.g.g.g.g.g.g.g.g.a R J.1. .%.&.Y.3X8X0XD.{ o.X.X.X.>.~ 1 g.g.g.g.g.g.g.g.g.g.g.g.g.g.g.g.g.g.g.g.g.g.g.g.",
"g.g.g.g.g.g.g.g.g.g.g.g.g.g.g.g.g.g.g.g.7 ^ (.,.] | +.*.k.3X0XA.] o.o.O.| y.6.+ g.g.g.g.g.g.g.x V 3 g.g.g.g.g.g.g.g.g.g.g.g.g.g.",
"g.g.g.g.g.g.g.g.g.g.g.g.g.g.g.g.g.g.g.g.O ( =X<.] X.X.{ 4.3X8X'.u.+.o.o.] A.C.X g.g.g.g.g.g.4 M K M e g.g.g.g.g.g.g.g.g.g.g.g.g.",
"g.g.g.g.g.g.g.g.g.g.g.g.g.g.g.g.g.g.g.g.O ) :X5.O.@.X.[ 5.3X<X8X$X=.%.%.R C.C.O g.g.g.g.g.1 y S P _ d g.g.g.g.g.g.g.g.g.g.g.g.g.",
"g.g.g.g.g.g.g.g.g.g.g.g.g.g.g.g.g.g.g.g.. =.3X|.v.| { b.|.7X8X8X6X[./.].E.OXD.@ g.g.g.g.g.5 D P I _ d g.g.g.g.g.g.g.g.g.g.g.g.g.",
"g.g.g.g.g.g.g.g.g.g.g.g.g.g.g.g.g.g.g.g.. ) 6X0X[.B.B.oX0X8X7X0X8X8X0X8X8X;Xz.@ g.g.g.g.g.y P P P I p g.g.g.g.g.g.g.g.g.g.g.g.g.",
"g.g.g.g.g.g.g.g.g.g.g.g.g.g.g.g.g.g.g.g.o ( 1X0X0X0X0X8X6X5X7X,X;X7X8X8X3X}.5.+ g.g.g.g.g.i D P K V g.g.g.g.g.g.g.g.g.g.g.g.g.g.",
"g.g.g.g.g.g.g.g.g.g.g.g.g.g.g.g.g.g.g.g.X ! !.>X8X8X8X8X>X~.=XD.W  X7X>X!.I.q.@ g.g.g.g.g.3 u D Z 6 g.g.g.g.g.g.g.g.g.g.g.g.g.g.",
"g.g.g.g.g.g.g.g.g.g.g.g.g.g.g.g.g.g.g.g.+ #.W.2X8X8X7X0XXX=.m.D.j.j.D.3XP.I.0.@ g.g.g.g.g.e Z V e g.g.g.g.g.g.g.g.g.g.g.g.g.g.g.",
"g.g.g.g.g.g.g.g.g.g.g.g.g.g.g.g.g.g.g.g.+ R I.@X6X8X<X8X].W $.H.XXQ / k.F.I.2.# g.g.g.g.g.g.p.H g.g.g.g.g.g.g.g.g.g.g.g.g.g.g.g.",
"g.g.g.g.g.g.g.g.g.g.g.g.g.g.g.g.g.g.g.g.+ U J.^.-X6X8X8X5X+X=.! G.|.l.Y 1.q.%.3 g.g.g.g.^ :.L.~ g.g.g.g.g.g.g.g.g.g.g.g.g.g.g.g.",
"g.g.g.g.g.g.g.g.g.g.g.g.g.g.g.g.g.g.g.g.g.Y Q.+X3X0X0XOX}.).N.*.K $.d.L.B e i i 8 k 4.F.Q.N.v g.g.g.g.g.g.g.g.g.g.g.g.g.g.g.g.g.",
"g.g.g.g.g.g.g.g.g.g.g.g.g.g.g.g.g.g.g.g.g.A n.$X0X8X9XY.y.s.d.*.u Z U #.d.d.d.N.U.Z.a.^ ^ ^ g.g.g.g.g.g.g.g.g.g.g.g.g.g.g.g.g.g.",
"g.g.g.g.g.g.g.g.g.g.g.g.g.g.g.g.g.g.g.g.g.2 r `.8X0X6X6.4 6 6 5 m s.s.~ q.e.t.b.Z.7.t # g.g.g.g.g.g.g.g.g.g.g.g.g.g.g.g.g.g.g.g.",
"g.g.g.g.g.g.g.g.g.g.g.g.g.g.g.g.g.g.g.g.g.2 a E.0X6X+X=.2 o g.@ i s.L.h.B y 5 2 $ $ g.g.g.g.g.g.g.g.g.g.g.g.g.g.g.g.g.g.g.g.g.g.",
"g.g.g.g.g.g.g.g.g.g.g.g.g.g.g.g.g.g.g.g.g.g.r R.0X9X.X*.+ g.g.g.2 U  .O.P M 7 g.g.g.g.g.g.g.g.g.g.g.g.g.g.g.g.g.g.g.g.g.g.g.g.g.",
"g.g.g.g.g.g.g.g.g.g.g.g.g.g.g.g.g.g.g.g.g.g.0 b.+X4X).;.o g.g.g.g.3 y y y e g.g.g.g.g.g.g.g.g.g.g.g.g.g.g.g.g.g.g.g.g.g.g.g.g.g.",
"g.g.g.g.g.g.g.g.g.g.g.g.g.g.g.g.g.g.g.g.g.g.+ } e.N.2.V + g.g.g.g.g.2 3 g.g.g.g.g.g.g.g.g.g.g.g.g.g.g.g.g.g.g.g.g.g.g.g.g.g.g.g.",
"g.g.g.g.g.g.g.g.g.g.g.g.g.g.g.g.g.g.g.g.g.g.# g J } N y + g.g.g.g.g.g.g.g.g.g.g.g.g.g.g.g.g.g.g.g.g.g.g.g.g.g.g.g.g.g.g.g.g.g.g.",
"g.g.g.g.g.g.g.g.g.g.g.g.g.g.g.g.g.g.g.g.g.g.g.6 q 0 5 g.g.g.g.g.g.g.g.g.g.g.g.g.g.g.g.g.g.g.g.g.g.g.g.g.g.g.g.g.g.g.g.g.g.g.g.g.",
"g.g.g.g.g.g.g.g.g.g.g.g.g.g.g.g.g.g.g.g.g.g.g.g.g.g.g.g.g.g.g.g.g.g.g.g.g.g.g.g.g.g.g.g.g.g.g.g.g.g.g.g.g.g.g.g.g.g.g.g.g.g.g.g.",
"g.g.g.g.g.g.g.g.g.g.g.g.g.g.g.g.g.g.g.g.g.g.g.g.g.g.g.g.g.g.g.g.g.g.g.g.g.g.g.g.g.g.g.g.g.g.g.g.g.g.g.g.g.g.g.g.g.g.g.g.g.g.g.g.",
"g.g.g.g.g.g.g.g.g.g.g.g.g.g.g.g.g.g.g.g.g.g.g.g.g.g.g.g.g.g.g.g.g.g.g.g.g.g.g.g.g.g.g.g.g.g.g.g.g.g.g.g.g.g.g.g.g.g.g.g.g.g.g.g.",
"g.g.g.g.g.g.g.g.g.g.g.g.g.g.g.g.g.g.g.g.g.g.g.g.g.g.g.g.g.g.g.g.g.g.g.g.g.g.g.g.g.g.g.g.g.g.g.g.g.g.g.g.g.g.g.g.g.g.g.g.g.g.g.g.",
"g.g.g.g.g.g.g.g.g.g.g.g.g.g.g.g.g.g.g.g.g.g.g.g.g.g.g.g.g.g.g.g.g.g.g.g.g.g.g.g.g.g.g.g.g.g.g.g.g.g.g.g.g.g.g.g.g.g.g.g.g.g.g.g."
};
