/* XPM */
static char *front_milka[] = {
/* columns rows colors chars-per-pixel */
"64 64 227 2 ",
"   c #18061A",
".  c #1C0C1F",
"X  c #3A140E",
"o  c #1B0C25",
"O  c #1C1420",
"+  c #260C2C",
"@  c #2D0C2D",
"#  c #370928",
"$  c #231326",
"%  c #27162B",
"&  c #35152C",
"*  c #280B34",
"=  c #33083A",
"-  c #2B1531",
";  c #2D1B35",
":  c #2E183A",
">  c #371836",
",  c #32153A",
"<  c #3C1B3B",
"1  c #2E212B",
"2  c #2D2332",
"3  c #3C223A",
"4  c #36283A",
"5  c #411016",
"6  c #421628",
"7  c #431532",
"8  c #481938",
"9  c #511C38",
"0  c #44243B",
"q  c #5D2A34",
"w  c #64322F",
"e  c #6C3B3A",
"r  c #6F4337",
"t  c #765236",
"y  c #360B44",
"u  c #2D1141",
"i  c #371444",
"p  c #361B42",
"a  c #3B1D43",
"s  c #3B1D4B",
"d  c #3A1753",
"f  c #3E2745",
"g  c #3E3346",
"h  c #400E4B",
"j  c #471848",
"k  c #521E49",
"l  c #491E54",
"z  c #481A58",
"x  c #531E5C",
"c  c #422B43",
"v  c #43234C",
"b  c #482848",
"n  c #532A4A",
"m  c #463647",
"M  c #48374A",
"N  c #5B364B",
"B  c #452453",
"V  c #4B2355",
"C  c #4C2955",
"Z  c #4D245C",
"A  c #4A2958",
"S  c #552957",
"D  c #4B3455",
"F  c #54345C",
"G  c #5A3659",
"H  c #553B5B",
"J  c #673A49",
"K  c #602F5C",
"L  c #68395D",
"P  c #4E1D67",
"I  c #4C2867",
"U  c #522362",
"Y  c #562B67",
"T  c #562D64",
"R  c #5C2E6B",
"E  c #4F306C",
"W  c #583767",
"Q  c #5D3D64",
"!  c #5D336C",
"~  c #5A2772",
"^  c #5E2B72",
"/  c #5F3873",
"(  c #612666",
")  c #64376A",
"_  c #622E74",
"`  c #653776",
"'  c #633B7B",
"]  c #6B3C7C",
"[  c #4B4050",
"{  c #564457",
"}  c #714046",
"|  c #61495F",
" . c #79475A",
".. c #5C4368",
"X. c #595661",
"o. c #684B68",
"O. c #744765",
"+. c #7C4C6C",
"@. c #65556B",
"#. c #71566C",
"$. c #684377",
"%. c #784977",
"&. c #785777",
"*. c #72677C",
"=. c #865C2A",
"-. c #805850",
";. c #966B4F",
":. c #835774",
">. c #885675",
",. c #95696F",
"<. c #8E647D",
"1. c #A6875B",
"2. c #B88A68",
"3. c #CCAA49",
"4. c #C19676",
"5. c #D3AE6C",
"6. c #FFDF74",
"7. c #6C3686",
"8. c #6D3B84",
"9. c #723C83",
"0. c #713A8B",
"q. c #713B91",
"w. c #6B4884",
"e. c #6E498C",
"r. c #744689",
"t. c #7A5887",
"y. c #7D5891",
"u. c #776980",
"i. c #814D8F",
"p. c #825A85",
"a. c #865698",
"s. c #85678B",
"d. c #976C8D",
"f. c #85798B",
"g. c #886994",
"h. c #946B98",
"j. c #8D7496",
"k. c #A37788",
"l. c #A67B99",
"z. c #9863A9",
"x. c #9879A4",
"c. c #A26CA0",
"v. c #A578AC",
"b. c #FF00FF",
"n. c #AE7BC6",
"m. c #8E8495",
"M. c #938698",
"N. c #AF839A",
"B. c #9A8BA2",
"V. c #A484A7",
"C. c #BA89A7",
"Z. c #A299A8",
"A. c #AA85B6",
"S. c #B189BC",
"D. c #AC95B3",
"F. c #B895B7",
"G. c #B8A3B7",
"H. c #B9B7B9",
"J. c #C190A8",
"K. c #C493B1",
"L. c #C5A8AE",
"P. c #CAB6BC",
"I. c #D3B9BB",
"U. c #FEE292",
"Y. c #AB89C4",
"T. c #B78BCA",
"R. c #B998C0",
"E. c #BDA8C3",
"W. c #BFB6C7",
"Q. c #CD9CCB",
"!. c #C4A6C6",
"~. c #D4ABC8",
"^. c #C9B7C8",
"/. c #D5BACA",
"(. c #C5A7D4",
"). c #D5ABD8",
"_. c #CCB8D4",
"`. c #D7BCD8",
"'. c #E2B6C7",
"]. c #E6B6D3",
"[. c #E6BCD2",
"{. c #CFB8E6",
"}. c #D7B9EB",
"|. c #E6BBF0",
" X c #CEC4C9",
".X c #D7C5C9",
"XX c #D7C8D6",
"oX c #DCCCDC",
"OX c #DAD6D9",
"+X c #E9D1CF",
"@X c #E8C8DC",
"#X c #F3CCD8",
"$X c #E7D3DC",
"%X c #F6D7DB",
"&X c #F2DBDD",
"*X c #DCC3E8",
"=X c #DED0E6",
"-X c #DFC9F0",
";X c #E3C3EC",
":X c #E9CBE9",
">X c #F7CAE8",
",X c #E7D8E8",
"<X c #FDDAE2",
"1X c #F9D6EA",
"2X c #FFDAED",
"3X c #EAC8F7",
"4X c #F9CFFB",
"5X c #EADBF6",
"6X c #FBD6F4",
"7X c #F3DBF3",
"8X c #F4DDFC",
"9X c #FDDBFC",
"0X c #E9E5E8",
"qX c #FBE5EC",
"wX c #F4F5EC",
"eX c #FAF7EE",
"rX c #EDE7F2",
"tX c #F4ECF3",
"yX c #FEE4FC",
"uX c #F7E8F8",
"iX c #FFEBFE",
"pX c #F6F5F4",
"aX c #FCF4F4",
"sX c #FCFCF5",
"dX c #F5F4FA",
"fX c #FEF4FE",
"gX c #FEFCFD",
/* pixels */
"b.b.b.b.b.b.b.b.b.b.b.b.b.b.b.b.b.b.b.b.b.b.b.b.b.b.b.b.b.b.b.b.b.b.b.b.b.b.b.b.b.b.b.b.b.b.b.b.b.b.b.b.b.b.b.b.b.b.b.b.b.b.b.b.",
"b.b.b.b.b.b.b.b.b.b.b.b.b.b.b.b.b.b.b.b.b.b.b.b.b.b.b.b.b.b.b.b.b.b.b.b.b.b.b.b.b.b.b.b.b.b.b.b.b.b.b.b.b.b.b.b.b.b.b.b.b.b.b.b.",
"b.b.b.b.b.b.b.b.b.b.b.b.b.b.b.b.b.b.b.b.b.b.b.b.b.b.b.b.b.b.b.b.b.b.b.b.b.b.b.b.b.b.b.b.b.b.b.b.b.b.b.b.b.b.b.b.b.b.b.b.b.b.b.b.",
"b.b.b.b.b.b.b.b.b.b.b.b.b.b.b.b.b.b.b.b.b.b.b.b.b.b.b.b.b.b.b.b.b.b.b.b.b.b.b.b.b.b.b.b.b.b.b.b.b.b.b.b.b.b.b.b.b.b.b.b.b.b.b.b.",
"b.b.b.b.b.b.b.b.b.b.b.b.b.b.b.b.b.b.b.b.b.b.b.b.b.b.b.b.b.b.b.b.b.b.b.b.b.b.b.b.b.b.b.b.b.b.{ b.b.b.b.b.b.b.b.b.b.b.b.b.b.b.b.b.",
"b.b.b.b.b.b.b.b.b.b.b.b.b.b.b.b.b.b.; % b.b.b.b.b.b.b.b.m m m m m m m m M b.b.b.b.b.b.b.{ - - 3 b.b.b.b.b.b.b.b.b.b.b.b.b.b.b.b.",
"b.b.b.b.b.b.b.b.b.b.b.b.b.b.b.b.b.b.p w.s p b.b.b.b.4 O M.$XoXXXOXXXoX:XM.o O b.b.b.b.H : t.F , b.b.b.b.b.b.b.b.b.b.b.b.b.b.b.b.",
"b.b.b.b.b.b.b.b.b.b.b.b.b.b.b.b.b.m u w.w./ H { [ [ g m.tXgXfXgXsXgXgXgXW.*.2 m | D ) Q R i.Y a b.b.b.b.b.b.b.b.b.b.b.b.b.b.b.b.",
"b.b.b.b.b.b.b.b.b.b.b.b.b.b.b.b.b.g u $.e.e.a < f O f.gXgXgXgXfXgXwXdXgXfXgX{ $ @ < y R a.R P j b.b.b.b.b.b.b.b.b.b.b.b.b.b.b.b.",
"b.b.b.b.b.b.b.b.b.b.b.b.b.b.b.b.b.g < ` ` ] Y.3XuXuXdXdXgX0XtXgXgXdXOX0XgXgX0XiX`.t.a.9._ ] Z : b.b.b.b.b.b.b.b.b.b.b.b.b.b.b.b.",
"b.b.b.b.b.b.b.b.b.b.b.b.b.b.b.b.b.b.f v ) R r.y.x.E.gXdXgXpXH.oXgXgX0XH.gXwXfX^.p.] 9.7.^ y Q { b.b.b.b.b.b.b.b.b.b.b.b.b.b.b.b.",
"b.b.b.b.b.b.b.b.b.b.b.b.b.b.b.b.b.b.#.> = ) ' I t._.pXsXsXgXOXOX5XfX XH.wXsXgXXXp._ _ ~ Y * @.b.b.b.b.b.b.b.b.b.b.b.b.b.b.b.b.b.",
"b.b.b.b.b.b.b.b.b.b.b.b.b.b.b.b.b.b.b.{ @ j 8.! _.gXsXeXgXpXgXrXB.5XZ.OXsXsXpXfX:XF ' U * : b.b.b.b.b.b.b.b.b.b.b.b.b.b.b.b.b.b.",
"b.b.b.b.b.b.b.b.b.b.b.b.b.b.b.b.b.b.b.b.b.o.* t.fXfXgXgXgXgXgXrXOXZ.0XgXgXsXsXgXtXG.B : f b.b.b.b.b.b.b.b.b.b.b.b.b.b.b.b.b.b.b.",
"b.b.b.b.b.b.b.b.b.b.b.b.b.b.b.b.b.b.b.b.b.2 + !.fXgXsXsXgXgXsXgXgXgXdXsXgXaXaXsXgXuXD : b.b.b.b.b.b.b.b.b.b.b.b.b.b.b.b.b.b.b.b.",
"b.b.b.b.b.b.b.b.b.b.b.b.b.b.b.b.b.b.b.b.b.o B :XfXeXgXgXsXsXsXgXpXsXsXsXgXgXgXsXgXfXW b.b.b.b.b.b.b.b.b.b.b.b.b.b.b.b.b.b.b.b.b.",
"b.b.b.b.b.b.b.b.b.b.b.b.b.b.b.b.b.b.b.b.b.% B ;XfXgXpX0X0XsXsXsXsXeXsXsXgXrX0XpXaXgX..b.b.b.b.b.b.b.b.b.b.b.b.b.b.b.b.b.b.b.b.b.",
"b.b.b.b.b.b.b.b.b.b.b.b.b.b.b.b.b.b.b.b.b.. v ;XfXfXu.% X.gXgXgXsXeXgXgX=Xg % m.gXfX..b.b.b.b.b.b.b.b.b.b.b.b.b.b.b.b.b.b.b.b.b.",
"b.b.b.b.b.b.b.b.b.b.b.b.b.b.b.b.b.b.b.b.b.1 a ).iXfX@.o m dXdXgXpXsXsXgX,X-   m.fXoXF b.b.b.b.b.b.b.b.b.b.b.b.b.b.b.b.b.b.b.b.b.",
"b.b.b.b.b.b.b.b.b.b.b.b.b.b.b.b.b.b.b.b.b.b.b ).8XfXo.  4 dXgXaXgXpXfXgX=X@ o f.iX^.b.b.b.b.b.b.b.b.b.b.b.b.b.b.b.b.b.b.b.b.b.b.",
"b.b.b.b.b.b.b.b.b.b.b.b.b.b.b.b.b.b.b.b.b.b.> G D.iXXXP..X0X.X.X.XP. X.XqX^.!.uX`.H b.b.b.b.b.b.b.b.b.b.b.b.b.b.b.b.b.b.b.b.b.b.",
"b.b.b.b.b.b.b.b.b.b.b.b.b.b.b.b.b.b.b.b.b.b.> @ o.uXfXfX&XI.+X%X&X&X&X.XP.qXfXfXE.+ b.b.b.b.b.b.b.b.b.b.b.b.b.b.b.b.b.b.b.b.b.b.",
"b.b.b.b.b.b.b.b.b.b.b.b.b.b.b.b.b.b.b.b.b.b.b.< $ s.iX1XI.%XqX%X%X%X&XqX+XL.1XD.p b.b.b.b.b.b.b.b.b.b.b.b.b.b.b.b.b.b.b.b.b.b.b.",
"b.b.b.b.b.b.b.b.b.b.b.b.b.b.b.b.b.b.b.b.b.b.b.H ..s y.S.>X2X~.>X#X2X@X[.yX~.h.F ..b.b.b.b.b.b.b.b.b.b.b.b.b.b.b.b.b.b.b.b.b.b.b.",
"b.b.b.b.b.b.b.b.b.b.b.b.b.b.b.b.b.b.b.b.b.b.#.Q W.w.d z K.4X~.>X2X2X2X@X>X%.* g.{.b.b.b.b.b.b.b.b.b.b.b.b.b.b.b.b.b.b.b.b.b.b.b.",
"b.b.b.b.b.b.b.b.b.b.b.b.b.b.b.> b b.b.b.b.b.A $.-X}.Y.d h h.c.d.,.-.,.d.$.y y.3X8Xt.b.b.b.b.b.b.b.b.b.b.b.b.b.b.b.b.b.b.b.b.b.b.",
"b.b.b.b.b.b.b.b.b.b.b.b.b.b.F A $.= b.b.b.O f (.*XuXyXx.T # = q ;.=.t X = a.}.yX8X^.b.b.b.b.b.b.b.b.b.b.b.b.b.b.b.b.b.b.b.b.b.b.",
"b.b.b.b.b.b.b.b.b.b.b.b.b.B T R 8.P < % b.M f |.5XfXfX6X~.>.q 2.6.6.U.t %.3XiXfXfX,Xb.b.b.b.b.b.b.b.b.b.b.b.b.b.b.b.b.b.b.b.b.b.",
"b.b.b.b.b.b.b.b.b.b.b.b.b., T ^ q.7.B c b.b.v ;XgXdXfX,X).#X-.4.5.3.U.1.V.(.uXfXfXaXc b.b.b.b.b.b.b.b.b.b.b.b.b.b.b.b.b.b.b.b.b.",
"b.b.b.b.b.b.b.b.b.b.b.b.b.i R ^ q.7.Z a b.b.i 3XgXwXgXrXXXfX&.# 5 5 5.;.<.v oXgXfXuXn b.b.b.b.b.b.b.b.b.b.b.b.b.b.b.b.b.b.b.b.b.",
"b.b.b.b.b.b.b.b.b.b.b.b.b.p / 9.P 0.U b b.b.d ;XgXsXdX0X*.fX:.k >.6 r -.N G.rXgXgXyXS b.b.b.b.b.b.b.b.b.b.b.b.b.b.b.b.b.b.b.b.b.",
"b.b.b.b.b.b.b.b.b.b.b.b.b.b b l _ U Z G b.b.i x.fXsXfXgXR.j.( k &.# k.,.d.yXfXdXiX_.l b.b.b.b.b.b.b.b.b.b.b.b.b.b.b.b.b.b.b.b.b.",
"b.b.b.b.b.b.b.b.b.b.b.b.b.b.b.v ! ) @ b.b.O y %.iXaXdXgXuX..= k N 7 K v.9XfXgXgX5X$.I M b.b.b.b.b.b.b.b.b.b.b.b.b.b.b.b.b.b.b.b.",
"b.b.b.b.b.b.b.b.b.b.b.b.b.b.b.b.v V.< b.b.% d ! g.7XgXfXyXA.h k J # U z.9XiXfXrXB.E 7.B b.b.b.b.b.b.b.b.b.b.b.b.b.b.b.b.b.b.b.b.",
"b.b.b.b.b.b.b.b.b.b.b.b.b.b.b.b.b s.V.& b.* E 8.C G.iXfXS.( ] ) b 9 9.0.v.fXXXj.y./ E z b.b.b.b.b.b.b.b.b.b.b.b.b.b.b.b.b.b.b.b.",
"b.b.b.b.b.b.b.b.b.b.b.b.b.b.b.b.b.m F.h.i Z z $.x.o.D.R._ ] _ %.O.# 9.0.i.S.M Z.5XW ! l b.b.b.b.b.b.b.b.b.b.b.b.b.b.b.b.b.b.b.b.",
"b.b.b.b.b.b.b.b.b.b.b.b.b.b.b.b.b.4 * t.9XY.d w.;X9Xp.l ] 9.x k O.9 S l h j._.fX8X&.T l b.b.b.b.b.b.b.b.b.b.b.b.b.b.b.b.b.b.b.b.",
"b.b.b.b.b.b.b.b.b.b.b.b.b.b.b.b.b.b.b.j t./ d }.fXfX4Xt.x ( h S +.8 j >.F.~.@XfXfXF.v V b.b.b.b.b.b.b.b.b.b.b.b.b.b.b.b.b.b.b.b.",
"b.b.b.b.b.b.b.b.b.b.b.b.b.b.b.b.b.b.b.b.a f E A.V.yXiX!.Q.4X:.j :.# J.|.'.#XXX:XfXiX) m b.b.b.b.b.b.b.b.b.b.b.b.b.b.b.b.b.b.b.b.",
"b.b.b.b.b.b.b.b.b.b.b.b.b.b.b.b.b.b.b.b.b.b.u $.G 9XgXG.~.6X+.k +.6 K.>X'.#X.X.XfX:XV b.b.b.b.b.b.b.b.b.b.b.b.b.b.b.b.b.b.b.b.b.",
"b.b.b.b.b.b.b.b.b.b.b.b.b.b.b.b.b.b.b.b.b.b.f I l.yXgXP.'.[.L k L # J.6X<X%XI.$XiXl l b.b.b.b.b.b.b.b.b.b.b.b.b.b.b.b.b.b.b.b.b.",
"b.b.b.b.b.b.b.b.b.b.b.b.b.b.b.b.b.b.b.b.b.b.M b :XfXfX0X/.2X:.9 -.5 C.].].].G.:XB.l b.b.b.b.b.b.b.b.b.b.b.b.b.b.b.b.b.b.b.b.b.b.",
"b.b.b.b.b.b.b.b.b.b.b.b.b.b.b.b.b.b.b.b.b.b.b.; #.yXgXpX^.'.] 8 J 5 J.].).>.4XV.l b.b.b.b.b.b.b.b.b.b.b.b.b.b.b.b.b.b.b.b.b.b.b.",
"b.b.b.b.b.b.b.b.b.b.b.b.b.b.b.b.b.b.b.b.b.b.b.b.; =XgXgX1XF.S 8 J w  .) i.n.|.h.l b.b.b.b.b.b.b.b.b.b.b.b.b.b.b.b.b.b.b.b.b.b.b.",
"b.b.b.b.b.b.b.b.b.b.b.b.b.b.b.b.b.b.b.b.b.b.b.b.f D.dXfXfX6Xo.7 e e 6 k 7.0.r.x l b.b.b.b.b.b.b.b.b.b.b.b.b.b.b.b.b.b.b.b.b.b.b.",
"b.b.b.b.b.b.b.b.b.b.b.b.b.b.b.b.b.b.b.b.b.b.b.b.2 4 XXgXiXfX#.& e w 9 k z / E l b.b.b.b.b.b.b.b.b.b.b.b.b.b.b.b.b.b.b.b.b.b.b.b.",
"b.b.b.b.b.b.b.b.b.b.b.b.b.b.b.b.b.b.b.b.b.b.b.b.b.O G.gXfXiX&.7 } e 7 j S l l B b.b.b.b.b.b.b.b.b.b.b.b.b.b.b.b.b.b.b.b.b.b.b.b.",
"b.b.b.b.b.b.b.b.b.b.b.b.b.b.b.b.b.b.b.b.b.b.b.b.b.; f.3X3X|.] k ,.J & S b.b.b.b.b.b.b.b.b.b.b.b.b.b.b.b.b.b.b.b.b.b.b.b.b.b.b.b.",
"b.b.b.b.b.b.b.b.b.b.b.b.b.b.b.b.b.b.b.b.b.b.b.b.b.- W $.r.] z ) l.J & n b.b.b.b.b.b.b.b.b.b.b.b.b.b.b.b.b.b.b.b.b.b.b.b.b.b.b.b.",
"b.b.b.b.b.b.b.b.b.b.b.b.b.b.b.b.b.b.b.b.b.b.b.b.b.; F Y r.^ x ` l.J 8 > b.b.b.b.b.b.b.b.b.b.b.b.b.b.b.b.b.b.b.b.b.b.b.b.b.b.b.b.",
"b.b.b.b.b.b.b.b.b.b.b.b.b.b.b.b.b.b.b.b.b.b.b.b.b.b.a B ' T y K k.J 0 $ b.b.b.b.b.b.b.b.b.b.b.b.b.b.b.b.b.b.b.b.b.b.b.b.b.b.b.b.",
"b.b.b.b.b.b.b.b.b.b.b.b.b.b.b.b.b.b.b.b.b.b.b.b.b.b.b.; , , + ) N.N 0 & b.b.b.b.b.b.b.b.b.b.b.b.b.b.b.b.b.b.b.b.b.b.b.b.b.b.b.b.",
"b.b.b.b.b.b.b.b.b.b.b.b.b.b.b.b.b.b.b.b.b.b.b.b.b.b.b.b.b.b.3 { O.N 7 % b.b.b.b.b.b.b.b.b.b.b.b.b.b.b.b.b.b.b.b.b.b.b.b.b.b.b.b.",
"b.b.b.b.b.b.b.b.b.b.b.b.b.b.b.b.b.b.b.b.b.b.b.b.b.b.b.b.b.b.b.M & L < 3 b.b.b.b.b.b.b.b.b.b.b.b.b.b.b.b.b.b.b.b.b.b.b.b.b.b.b.b.",
"b.b.b.b.b.b.b.b.b.b.b.b.b.b.b.b.b.b.b.b.b.b.b.b.b.b.b.b.b.b.b.% C l.b n b.b.b.b.b.b.b.b.b.b.b.b.b.b.b.b.b.b.b.b.b.b.b.b.b.b.b.b.",
"b.b.b.b.b.b.b.b.b.b.b.b.b.b.b.b.b.b.b.b.b.b.b.b.b.b.b.b.b.b.b.o B T.Z c b.b.b.b.b.b.b.b.b.b.b.b.b.b.b.b.b.b.b.b.b.b.b.b.b.b.b.b.",
"b.b.b.b.b.b.b.b.b.b.b.b.b.b.b.b.b.b.b.b.b.b.b.b.b.b.b.b.b.b.b.% Z T.C b b.b.b.b.b.b.b.b.b.b.b.b.b.b.b.b.b.b.b.b.b.b.b.b.b.b.b.b.",
"b.b.b.b.b.b.b.b.b.b.b.b.b.b.b.b.b.b.b.b.b.b.b.b.b.b.b.b.b.b.b.o d Y.f m b.b.b.b.b.b.b.b.b.b.b.b.b.b.b.b.b.b.b.b.b.b.b.b.b.b.b.b.",
"b.b.b.b.b.b.b.b.b.b.b.b.b.b.b.b.b.b.b.b.b.b.b.b.b.b.b.b.b.b.b.b.f x.D $ b.b.b.b.b.b.b.b.b.b.b.b.b.b.b.b.b.b.b.b.b.b.b.b.b.b.b.b.",
"b.b.b.b.b.b.b.b.b.b.b.b.b.b.b.b.b.b.b.b.b.b.b.b.b.b.b.b.b.b.b.b.b.2 b.b.b.b.b.b.b.b.b.b.b.b.b.b.b.b.b.b.b.b.b.b.b.b.b.b.b.b.b.b.",
"b.b.b.b.b.b.b.b.b.b.b.b.b.b.b.b.b.b.b.b.b.b.b.b.b.b.b.b.b.b.b.b.b.b.b.b.b.b.b.b.b.b.b.b.b.b.b.b.b.b.b.b.b.b.b.b.b.b.b.b.b.b.b.b.",
"b.b.b.b.b.b.b.b.b.b.b.b.b.b.b.b.b.b.b.b.b.b.b.b.b.b.b.b.b.b.b.b.b.b.b.b.b.b.b.b.b.b.b.b.b.b.b.b.b.b.b.b.b.b.b.b.b.b.b.b.b.b.b.b.",
"b.b.b.b.b.b.b.b.b.b.b.b.b.b.b.b.b.b.b.b.b.b.b.b.b.b.b.b.b.b.b.b.b.b.b.b.b.b.b.b.b.b.b.b.b.b.b.b.b.b.b.b.b.b.b.b.b.b.b.b.b.b.b.b.",
"b.b.b.b.b.b.b.b.b.b.b.b.b.b.b.b.b.b.b.b.b.b.b.b.b.b.b.b.b.b.b.b.b.b.b.b.b.b.b.b.b.b.b.b.b.b.b.b.b.b.b.b.b.b.b.b.b.b.b.b.b.b.b.b."
};
