/* XPM */
static char *front_hero_walk2[] = {
/* columns rows colors chars-per-pixel */
"64 64 223 2 ",
"   c #FF00FF",
".  c #28141E",
"X  c #2A1D1D",
"o  c #2A1819",
"O  c #321D1C",
"+  c #351E12",
"@  c #341E0B",
"#  c #3A2A07",
"$  c #33221B",
"%  c #3C251C",
"&  c #362414",
"*  c #251525",
"=  c #291524",
"-  c #2E1B23",
";  c #24152C",
":  c #2D1C2C",
">  c #27172C",
",  c #321E24",
"<  c #331E2C",
"1  c #391F21",
"2  c #2C1B33",
"3  c #2D1C3B",
"4  c #2C1734",
"5  c #331D34",
"6  c #331D3B",
"7  c #3A1F3F",
"8  c #2F2024",
"9  c #2E2329",
"0  c #352325",
"q  c #3A2526",
"w  c #34222C",
"e  c #3A252B",
"r  c #39292B",
"t  c #392A27",
"y  c #342232",
"u  c #3A2434",
"i  c #35213A",
"p  c #39243A",
"a  c #3B2D3C",
"s  c #372938",
"d  c #3E3131",
"f  c #3D313E",
"g  c #2D2137",
"h  c #432D18",
"j  c #4B390B",
"k  c #442D28",
"l  c #4C3623",
"z  c #4D3D2B",
"x  c #48352A",
"c  c #513B2F",
"v  c #452E34",
"b  c #4B3435",
"n  c #4D3C35",
"m  c #4F3A3B",
"M  c #473339",
"N  c #523D34",
"B  c #523D3C",
"V  c #503732",
"C  c #524319",
"Z  c #5F4D20",
"A  c #544232",
"S  c #53413B",
"D  c #5A443D",
"F  c #5D4836",
"G  c #574D30",
"H  c #685535",
"J  c #6E5537",
"K  c #766932",
"L  c #351D43",
"P  c #372241",
"I  c #3A2945",
"U  c #392540",
"Y  c #422E4D",
"T  c #45354B",
"R  c #483644",
"E  c #503E48",
"W  c #493753",
"Q  c #513C59",
"!  c #5A4444",
"~  c #584748",
"^  c #4E4151",
"/  c #59495C",
"(  c #665644",
")  c #6B5955",
"_  c #715A56",
"`  c #644D41",
"'  c #726245",
"]  c #72644A",
"[  c #7B6746",
"{  c #75635B",
"}  c #796658",
"|  c #7F7156",
" . c #6E624C",
".. c #5B4B62",
"X. c #574662",
"o. c #6C5A78",
"O. c #776160",
"+. c #87763D",
"@. c #897947",
"#. c #937E4F",
"$. c #846A58",
"%. c #897959",
"&. c #947B5C",
"*. c #897666",
"=. c #927D65",
"-. c #907F68",
";. c #887673",
":. c #938545",
">. c #93824B",
",. c #8E8059",
"<. c #8B8055",
"1. c #968556",
"2. c #AB9D55",
"3. c #BEB157",
"4. c #8F8164",
"5. c #948266",
"6. c #9E906D",
"7. c #978874",
"8. c #A89369",
"9. c #A38D74",
"0. c #B69D78",
"q. c #AA9C7E",
"w. c #BAA97D",
"e. c #B6A278",
"r. c #B6B071",
"t. c #AAA165",
"y. c #C1A47E",
"u. c #D6AD7E",
"i. c #D9AE7E",
"p. c #D0AE73",
"a. c #CBB778",
"s. c #D3B376",
"d. c #D4BB75",
"f. c #D6B27A",
"g. c #D9B37B",
"h. c #D5BB7A",
"j. c #DABC79",
"k. c #D7BD6E",
"l. c #CDC37D",
"z. c #D6C477",
"x. c #E9D97A",
"c. c #F1DE7E",
"v. c #EFE377",
"b. c #F6E97A",
"n. c #FBF07A",
"m. c #7E6F88",
"M. c #897B93",
"N. c #877A8C",
"B. c #BA9A87",
"V. c #BBAD83",
"C. c #B8A98A",
"Z. c #BEB085",
"A. c #BCA89C",
"S. c #C5AA8A",
"D. c #D5AC83",
"F. c #D5AC85",
"G. c #C6B787",
"H. c #D4BA83",
"J. c #D6B588",
"K. c #C5B29D",
"L. c #CDBB9B",
"P. c #CAB495",
"I. c #D8BD96",
"U. c #CEBEA9",
"Y. c #DCCB8D",
"T. c #D6C686",
"R. c #DED286",
"E. c #DACE95",
"W. c #D7CB96",
"Q. c #DCD294",
"!. c #DBD198",
"~. c #E4CD83",
"^. c #E2CB8B",
"/. c #E6D184",
"(. c #EAD184",
"). c #ECD38A",
"_. c #EDDC8B",
"`. c #E7DC84",
"'. c #F0DE82",
"]. c #E2CA98",
"[. c #E6DD95",
"{. c #E9DB9C",
"}. c #E5D699",
"|. c #F2DB97",
" X c #EEE28A",
".X c #F6EB83",
"XX c #FAED86",
"oX c #F3E58B",
"OX c #F5ED8B",
"+X c #FBED8C",
"@X c #F7F187",
"#X c #F9F184",
"$X c #F7F18B",
"%X c #FBF18B",
"&X c #EEE293",
"*X c #EEE39A",
"=X c #F4E492",
"-X c #FAE691",
";X c #F6ED93",
":X c #FBEC92",
">X c #F3E39E",
",X c #F7EC9B",
"<X c #FAEC9B",
"1X c #F9E49D",
"2X c #F7F190",
"3X c #FAF194",
"4X c #FAF19B",
"5X c #F6F19B",
"6X c #D9C7A4",
"7X c #DDCCB3",
"8X c #DDD2A2",
"9X c #E0C5A0",
"0X c #E4D4A5",
"qX c #E7D9A7",
"wX c #E8D5AA",
"eX c #EDD7B3",
"rX c #F4E9A2",
"tX c #FBEDA4",
"yX c #F3E4AC",
"uX c #F9E8A7",
"iX c #F3F0A1",
"pX c #F5E6B9",
"aX c #EEEAA3",
/* pixels */
"                                                                                                                                ",
"                                                                                                                                ",
"                                                                                                                                ",
"                                                                                                                                ",
"                                                                                                                                ",
"                                                                                                                                ",
"                                                                                                                                ",
"                                                                                                                                ",
"                                                                                                                                ",
"                                                                                                                                ",
"                                                                                                                                ",
"                                                                                                                                ",
"                                                                                                                                ",
"                                                                                                                                ",
"                                                                                                                                ",
"                                            : y                                                                                 ",
"                                        8 X X X - : y                     8 , - , O $ S                                         ",
"                                      ~ { ] ] ' ] } ) ~                 ) } } ] ' '  .{ S                                       ",
"                                    : ~ U.0XQ.Q.!.8XC.( w ^         R v 7.7X0X}.E.!.L.*.$ X                                     ",
"                                    : ! wXpXtX<XtXuXP.( 9 / M.M.M.N.^ v 7.pXtX<X<XuXwX=.O .                                     ",
"                                  i : ! I.}.~.~._.rXG.F X T ..../ / f d 7.yX,XoXx.^.I.$.O .                                     ",
"                                  s < B S.H.d.d.~.,XG.H $ < p u u r e x 6.yX,X/.d.p.y.$.1 =                                     ",
"                                  a y m S.H.s.z./.1XT.@.F b M m V c F ( e.>X,X/.h.a.y.$., =                                     ",
"                                  f y B S.J.H.^.).,X,XrXwXP.B.B.B.0.9XyXrX<X:X).h.a.w.} < >                                     ",
"                                  R y B P.].^.).|.-X-X|.|.].F.F.J.J.].|.=X-X-X_.~.Y.P.$., ;                                     ",
"                                  T u ! 0XuX1X<X-X:X'.z.h.J.D.D.u.f.g.j.(.+X+X-X:XtXqX=., *                                     ",
"                                  W u D 0XtX<X:X+X+Xc.k.p.u.D.D.i.i.f.s.~.-X+X+X:X,X{.=.O =                                     ",
"                                  Q u D }.<X:X+X+XXXc.k.s.u.D.i.i.g.f.s.~.-X+X+X+X:X[.%.O *                                     ",
"                                o.X.u A }.4X+X$X%XXXc.z.s.f.g.g.g.g.s.d./.-X+X+X+X+X[.,.$ =                                     ",
"                              g I P - A Q.4X2X;X+X+XoX'.(.).).).).).(./. X+X+X+X+XOX[.,.$ : 2 *                                 ",
"                              ; 3 4 - z Q.5X;X,X,X:X:X:X-X-X:X:X:X-X:XOX+X+X:X-X;X;X[.,.$ > 2 ;                                 ",
"                              i I i - z !.iX[.l.T.=X:X3X%X%X:X:X:X+XOX.X@XOXR.z.z.&X{.4., 4 2 ;                                 ",
"                                o.^ < z !.aXr.Z K l.<X%X$X%X:X:X:X$X@X@XOX`.:.Z H R.{.4.0 4                                     ",
"                                m...w z W.rXt.# C a.:X%X$X%X+X:X+X+X$X$XOX`.K # j Y.qX-.w 6                                     ",
"                                X.W < z E.rXl.@.1.R.3X$X$X%X+X+X+XXX@X@XOX`.2.+.>.}.qX-.e p Y                                   ",
"                              ; 3 3 < z E.,X=X&X&X,X%X@X@X%X+X+XXX#X#X#X@XOX X&X&X<X{.,.q i P 4                                 ",
"                                3 3 - z E.,X;X4X<X,X4X3X%X+X+X+X+X+XOX@X$X2X4X4X<X<X{.4.q 6 6 3                                 ",
"                                W Y - z W.rX,X,XtXtXtXtX<X,X,X,X,X,X,X,X4X4X<XtXtXtXqX5.0 5                                     ",
"                                  T w n q.Z.Z.V.G.Z.V.V.V.w.w.w.w.w.V.V.V.w.Z.G.G.Z.C.{ < 2                                     ",
"                                      ~ n S B m B B N m n x l l l x b b n N N N N N m u y 2                                     ",
"                                        w y i i p u u y < O + @ + O < 5 i u e q q e < < 5 2                                     ",
"                                        y i 6 L L 6 6 6 u D [ [ [ _ R P L 7 u ! _ O._ E : :                                     ",
"                                        w < 5 5 5 5 5 5 q @.h.z.T.S.` < < < 1 *.K.7XU.;.8                                       ",
"                                        r 0 q 0 < < , $ h :.x.x.x.a.J h % % h &.L.6XK.*.X                                       ",
"                                      E } *.%.$.} ` ( [ @.3.v.b.v.z.2.>.>.1.#.0.8.H A n                                         ",
"                                    : M K.pXeXwXP.9.e.Y._.v.n.n.b.v. XoXoX=X}.S.=.k o                                           ",
"                                  s y M K.pX].0.&.J 8.Y.:XOX+X+XXXXX.X.X.X+X^.&.D v                                             ",
"                                  a y v A.eXP.$.F h %.W.*X*X*X*X&XoXOX.X+X-XT.J % M                                             ",
"                                  a w w _ ;.{ S k 0 ! | <.%.%.%.#.:.z.-X_.T.e.F 0                                               ",
"                                  I 2 : < w w < y 5 y r t t t 0 & # 8.yX].e.5.S ,                                               ",
"                                  U 2 2 : : < 5 5 i 6 2 : 2 : < , $ 7.6XL.9.*.! w                                               ",
"                                                                ^ ~ ~ ) ) ~ ! E                                                 ",
"                                                                    e . . = =                                                   ",
"                                                                        * =                                                     ",
"                                                                                                                                ",
"                                                                                                                                ",
"                                                                                                                                ",
"                                                                                                                                ",
"                                                                                                                                ",
"                                                                                                                                ",
"                                                                                                                                ",
"                                                                                                                                ",
"                                                                                                                                ",
"                                                                                                                                "
};
