/* XPM */
static char *front_hero_walk1[] = {
/* columns rows colors chars-per-pixel */
"64 64 220 2 ",
"   c #FF00FF",
".  c #291A1B",
"X  c #301D1E",
"o  c #3D3008",
"O  c #2E241E",
"+  c #36211D",
"@  c #39221D",
"#  c #392016",
"$  c #1F1321",
"%  c #231627",
"&  c #2D1D25",
"*  c #25162B",
"=  c #2D1C2C",
"-  c #28182B",
";  c #341E24",
":  c #391E24",
">  c #331E2C",
",  c #371C2E",
"<  c #2C1C33",
"1  c #2D1937",
"2  c #331D34",
"3  c #361E3B",
"4  c #381E34",
"5  c #2F2122",
"6  c #2E202A",
"7  c #332424",
"8  c #392423",
"9  c #3B2926",
"0  c #34232B",
"q  c #3A242C",
"w  c #3D292A",
"e  c #37292D",
"r  c #2F2036",
"t  c #342334",
"y  c #3A2434",
"u  c #3C2C33",
"i  c #34223B",
"p  c #3A243B",
"a  c #382938",
"s  c #3E3235",
"d  c #3D3227",
"f  c #433218",
"g  c #443314",
"h  c #422C23",
"j  c #41282B",
"k  c #4A362A",
"l  c #503E2F",
"z  c #422833",
"x  c #493638",
"c  c #523D39",
"v  c #584919",
"b  c #51422D",
"n  c #5B432B",
"m  c #4E4134",
"M  c #544335",
"N  c #5B4633",
"B  c #534339",
"V  c #5A463C",
"C  c #5B483A",
"Z  c #4D412A",
"A  c #624C27",
"S  c #655239",
"D  c #644F3C",
"F  c #796A3A",
"G  c #7F753A",
"H  c #371E45",
"J  c #392244",
"K  c #3E2C43",
"L  c #352741",
"P  c #423344",
"I  c #4C3B42",
"U  c #49334E",
"Y  c #4B3854",
"T  c #533E4F",
"R  c #5E4C42",
"E  c #5B4D48",
"W  c #564648",
"Q  c #5D5249",
"!  c #594857",
"~  c #4F4146",
"^  c #635442",
"/  c #63554A",
"(  c #6B5847",
")  c #745F45",
"_  c #6B5A52",
"`  c #655756",
"'  c #604C47",
"]  c #7B674A",
"[  c #6F625D",
"{  c #796455",
"}  c #5F5265",
"|  c #574B61",
" . c #605564",
".. c #67566B",
"X. c #7F7061",
"o. c #756879",
"O. c #867438",
"+. c #816E45",
"@. c #867546",
"#. c #86695C",
"$. c #8F7753",
"%. c #887764",
"&. c #947B69",
"*. c #958659",
"=. c #928346",
"-. c #A39351",
";. c #8F846E",
":. c #948564",
">. c #9B8A62",
",. c #95876B",
"<. c #9A8776",
"1. c #A38A6C",
"2. c #A18D61",
"3. c #A59469",
"4. c #A69763",
"5. c #A58B76",
"6. c #AC9674",
"7. c #B69E79",
"8. c #B5A66B",
"9. c #BFB26C",
"0. c #BAA878",
"q. c #BAB070",
"w. c #C4B35F",
"e. c #C6B56E",
"r. c #CBAE78",
"t. c #CAB577",
"y. c #D4B27C",
"u. c #D5BD7A",
"i. c #D5BA77",
"p. c #DFD16F",
"a. c #DBC27D",
"s. c #DFC87F",
"d. c #D3C268",
"f. c #E6CE7D",
"g. c #E7D876",
"h. c #E7DB6E",
"j. c #EFE26D",
"k. c #EEE072",
"l. c #F7E779",
"z. c #87788B",
"x. c #867A92",
"c. c #9E8881",
"v. c #AB9793",
"b. c #AB9B81",
"n. c #BAA686",
"m. c #B9AA91",
"M. c #CDAE86",
"N. c #D6AE84",
"B. c #D6AF8A",
"V. c #CCB284",
"C. c #C5BA84",
"Z. c #C4BA8A",
"A. c #C8B887",
"S. c #D5B284",
"D. c #D4B28A",
"F. c #D9B887",
"G. c #D1AF91",
"H. c #C8B893",
"J. c #D4BA94",
"K. c #D1BDA8",
"L. c #D3C485",
"P. c #DCCC83",
"I. c #D6C98B",
"U. c #DCC886",
"Y. c #DCD284",
"T. c #CDC19C",
"R. c #D6CB94",
"E. c #D9CD94",
"W. c #DBCD9A",
"Q. c #D7C598",
"!. c #DED19F",
"~. c #CFC288",
"^. c #E3CB83",
"/. c #E5CA87",
"(. c #EDDB8B",
"). c #E8D687",
"_. c #F1DB8B",
"`. c #F0DE87",
"'. c #E3CD9A",
"]. c #EACF9C",
"[. c #ECD294",
"{. c #ECDC9C",
"}. c #E4D992",
"|. c #F1DC93",
" X c #F1DA99",
".X c #EEE28E",
"XX c #FAEE84",
"oX c #F9E68B",
"OX c #F7EC8C",
"+X c #FAED8C",
"@X c #F6E888",
"#X c #FAF185",
"$X c #FBF18B",
"%X c #EBE293",
"&X c #F5E595",
"*X c #F6EC94",
"=X c #FAED93",
"-X c #F4E49B",
";X c #F5ED9B",
":X c #FAED9B",
">X c #F9E79B",
",X c #FAF193",
"<X c #FAF19A",
"1X c #F7F19B",
"2X c #D7C8A7",
"3X c #DDD1A4",
"4X c #E5D3AA",
"5X c #ECD4A6",
"6X c #E1D3B1",
"7X c #F6EDA3",
"8X c #FBECA3",
"9X c #FCEDAC",
"0X c #F5E5A9",
"qX c #FCF2A4",
"wX c #FBF2AD",
"eX c #FAEDB4",
"rX c #F8E8B8",
"tX c #FAF0B3",
"yX c #FBF0B9",
"uX c #F6E8C5",
/* pixels */
"                                                                                                                                ",
"                                                                                                                                ",
"                                                                                                                                ",
"                                                                                                                                ",
"                                                                                                                                ",
"                                                                                                                                ",
"                                                                                                                                ",
"                                                                                                                                ",
"                                                                                                                                ",
"                                                                                                                                ",
"                                                                                                                                ",
"                                                                                                                                ",
"                                                                                                                                ",
"                                                                                                                                ",
"                                                                                                                                ",
"                                        u & & & 5 O                     . & & = = = - P                                         ",
"                                      Q _ / ^ ^ ^ ^ Q Q                 / / ^ ^ R R E ` E                                       ",
"                                    5 B n.3X3X!.3X3Xm./ e }         s m m.6X!.W.R.Q.2X;.d O                                     ",
"                                  - & B H.yX9X9X9XeXT.^ e ..x.x.x.o.x m H.yXwX9X9XeXrX<.9 .                                     ",
"                                  * = c n.5X[.|.&X9XT.^ 7 ~  . .} | a m Z.wX8X|.[.[.5X&.j &                                     ",
"                                  % = x 5.V.r.i.).7XH.^ 7 0 e 0 t t 5 Z C.7X>XP.u.t.D.#.z =                                     ",
"                                  % > x 1.r.r.u.).9XQ.] l h 9 w q 9 k S ~.8X>XP.u.t.V.#., <                                     ",
"                                  % 0 k 1.r.r.a.(.>X{.'.J.6.<.5.<.5.H.'.-X:X:X^.a.t.V.#.y 2                                     ",
"                                  % ; l 6.F.u.f.`.=X&X X].J.D.G.M.D.'. X&X=X=X(.).U.E.#., 2                                     ",
"                                  % & l 0.{._.oXoX+X_.U.F.F.D.B.B.D.F.s.).oXOXoX=X>X0X&.q 2                                     ",
"                                  * & b C.8X+X+X+X+X_.i.y.S.N.B.B.N.y.t.f.oX+X+X+X:X9X:.w t                                     ",
"                                  < & b C.:XXXXXXX+X_.u.y.y.N.N.B.B.S.y.^.oXXX$X$X,XqX>.w t                                     ",
"                                  i > b t.<X#XXXXX+X_.u.y.y.y.y.S.S.S.i.).oX+X#X$X,XqX>.w a !                                   ",
"                                L < & b C.<X$X#X#X+XoX^.s.^.^././././.^.(.+X$X+XOX,XqX>.9 > P t                                 ",
"                              % - - & M Z.qX1X,X,X=X=X+X+X+X+X=X=X=X=X=X=X,X=X<X=X<XwX:.9 > 2 -                                 ",
"                              = t < & M Z.wX%XY.Y..X=XOX$X+X$X$X+X$X$X$X,X=X%XP.Y.;XwX,.q 2 i <                                 ",
"                                 .P 0 M H.tXq.G G 9.*XOXXXXX#X#X#X#X#X$X,X:Xu.O.=.}.tX,.q i Y                                   ",
"                                z.T y B H.eX*.o o -.&X+X#X#XXX$X#X#X#X$X,X:X8.g v L.eX:.8 p ..                                  ",
"                                ..U a V Z.tX8.F F e.=X+XXXXX+XOX+X#X#X$X=X:XL.@.=.}.eX*.8 y ! Y                                 ",
"                              t K p y M C.7X%XY.P.(.OX$XXX@XOXOXOX$X#X$X$X=X&XY.).;X9X*.8 = J 1                                 ",
"                              < i i y M C.1X<X*X=X=X$X#XXXOXOXOXOX$X$X$X$X,X=X=X,X*X9X:.8 = < %                                 ",
"                                Y K a M Z.wX7X;X;X*X,X,X=X,X*X*X=X=X,X=X:X:X;X;X;X7XyX,.7 0 K                                   ",
"                                  p t c b.W.R.R.R.I.I.I.I.I.I.I.I.I.I.I.R.R.E.E.E.W.2X&.7 6                                     ",
"                                  i 2 y c C N N C V V V V V R V V V C C R R R R R E E E                                         ",
"                                  < 2 t > + + + ; 0 > 4 q ; 8 + @ ; ; > y 4 y p p p = u                                         ",
"                                  - 2 t I W V c y t 3 4 q c D S S R z 4 3 3 3 J H J 3                                           ",
"                                  $ - I v.K.K.m.' > 4 > @ $.9.e.t.6.V ; , 2 4 3 3 3 2                                           ",
"                                    . I v.2XW.Q.] h j h g -.p.h.g.e.A X : : : : w u e ~                                         ",
"                                      ~ B D >.0.*.+.+.+.O.w.h.j.k.d.O.A n n N ( ) ) _ [ `                                       ",
"                                        q @ ] 8.L.|.-X-X|.oXXXl.l.k.g./.V.7.n.4X5XrXuX<.s a                                     ",
"                                          z V ) 8..X=X=X=X=X+X+XXXl.@X_.8.$.$.H.W.0XuX<.u t                                     ",
"                                            y h >.-X=X=X=X:X8X8X:X=X=X-X2.A n 1.n.4XuX;.u t                                     ",
"                                            a w #.A.}.:X&Xe.4.3.3.4.4.3.( k h ( { &.c.` t t                                     ",
"                                            t q ( >.C.0X{.F f @ h f f h e 2 > : 8 w u t 2 r                                     ",
"                                            a u _ ,.n.4X2XD X X X X ; = 1 1 - = = = = - < <                                     ",
"                                              ! ! _ { %.%.E I x t t t t         2 t t r <                                       ",
"                                              o.P t 0 7 7 !                                                                     ",
"                                                  < < -                                                                         ",
"                                                                                                                                ",
"                                                                                                                                ",
"                                                                                                                                ",
"                                                                                                                                ",
"                                                                                                                                ",
"                                                                                                                                ",
"                                                                                                                                ",
"                                                                                                                                ",
"                                                                                                                                ",
"                                                                                                                                ",
"                                                                                                                                "
};
