/* XPM */
static char *front_hero_wait[] = {
/* columns rows colors chars-per-pixel */
"64 64 232 2 ",
"   c #FF00FF",
".  c #1F1115",
"X  c #2E1A0A",
"o  c #301C04",
"O  c #2D1B14",
"+  c #2D1B1D",
"@  c #25191B",
"#  c #331E1D",
"$  c #33211C",
"%  c #39251A",
"&  c #382A05",
"*  c #1E1124",
"=  c #2C1B23",
"-  c #23152B",
";  c #2B1C2B",
":  c #261627",
">  c #321E25",
",  c #321E2A",
"<  c #381F2B",
"1  c #2C1C35",
"2  c #251831",
"3  c #321C33",
"4  c #321C3A",
"5  c #250D21",
"6  c #3A2323",
"7  c #32222C",
"8  c #3A252C",
"9  c #392726",
"0  c #2E2039",
"q  c #332331",
"w  c #392432",
"e  c #3E2A34",
"r  c #34223D",
"t  c #3A253B",
"y  c #372B36",
"u  c #2B2123",
"i  c #442C1A",
"p  c #473618",
"a  c #533B18",
"s  c #443708",
"d  c #442D28",
"f  c #433124",
"g  c #4C322C",
"h  c #453A2C",
"j  c #4B3B2C",
"k  c #473526",
"l  c #51392A",
"z  c #422B37",
"x  c #453435",
"c  c #4E3434",
"v  c #4C3B34",
"b  c #43323C",
"n  c #4C343B",
"m  c #4C3D3A",
"M  c #523C3C",
"N  c #533C37",
"B  c #58481D",
"V  c #59432C",
"C  c #5E4E32",
"Z  c #53413B",
"A  c #5E4E3C",
"S  c #5F503D",
"D  c #5F5028",
"F  c #654E2E",
"G  c #66542D",
"H  c #625235",
"J  c #6D5B34",
"K  c #62543D",
"L  c #6C593C",
"P  c #654E32",
"I  c #7C6E3A",
"U  c #3A2B42",
"Y  c #422E42",
"T  c #463342",
"R  c #4B3A46",
"E  c #4B3749",
"W  c #523B43",
"Q  c #573F4F",
"!  c #503E56",
"~  c #5D4D44",
"^  c #58474A",
"/  c #4F405F",
"(  c #584657",
")  c #4F4241",
"_  c #635341",
"`  c #65554C",
"'  c #614A55",
"]  c #695553",
"[  c #6E564E",
"{  c #79684D",
"}  c #7C655B",
"|  c #584766",
" . c #67546A",
".. c #6E576A",
"X. c #776878",
"o. c #6E6072",
"O. c #847939",
"+. c #826D45",
"@. c #8A7C4B",
"#. c #8C775C",
"$. c #937A5A",
"%. c #8B754E",
"&. c #8B7A63",
"*. c #8D7C6B",
"=. c #8C7368",
"-. c #917968",
";. c #8D7E73",
":. c #84737C",
">. c #907F73",
",. c #826E6C",
"<. c #988656",
"1. c #968954",
"2. c #A38D5B",
"3. c #A68E56",
"4. c #A89457",
"5. c #B49C5B",
"6. c #ACA35C",
"7. c #998676",
"8. c #90856E",
"9. c #A38B66",
"0. c #AD936B",
"q. c #AC9566",
"w. c #A69577",
"e. c #B19B7D",
"r. c #A18A78",
"t. c #B5A568",
"y. c #B9A977",
"u. c #BBB07D",
"i. c #D5BF5E",
"p. c #D3BD66",
"a. c #C9AD7B",
"s. c #D5AE7C",
"d. c #CCB37B",
"f. c #C5B677",
"g. c #D4BB75",
"h. c #D3B27B",
"j. c #D3BB7C",
"k. c #DAB97A",
"l. c #CAB56C",
"z. c #DDC65A",
"x. c #D3C26A",
"c. c #DAC76A",
"v. c #DBC575",
"b. c #DAC27B",
"n. c #D7C579",
"m. c #C9C16E",
"M. c #E2CA67",
"N. c #E5D564",
"B. c #EAD769",
"V. c #E2CA7B",
"C. c #E6D978",
"Z. c #F0DF7D",
"A. c #EFE16F",
"S. c #F5EC7B",
"D. c #FBEB7D",
"F. c #F3E974",
"G. c #F3EA78",
"H. c #827282",
"J. c #877788",
"K. c #8D7E91",
"L. c #AD9888",
"P. c #B39D86",
"I. c #BCAD84",
"U. c #BCAC8C",
"Y. c #D2AE81",
"T. c #C8B686",
"R. c #D5BA84",
"E. c #D8B785",
"W. c #C1AF90",
"Q. c #CBBC9C",
"!. c #C7B696",
"~. c #CCB18A",
"^. c #C9BAA4",
"/. c #D3C882",
"(. c #DACD8B",
"). c #DBC988",
"_. c #D9D18D",
"`. c #D5CB94",
"'. c #D9CE93",
"]. c #D9CD9B",
"[. c #D3C39B",
"{. c #DBD293",
"}. c #CDC296",
"|. c #E1C486",
" X c #E2CD83",
".X c #E1C589",
"XX c #E6CB8A",
"oX c #E7D888",
"OX c #F1DE8F",
"+X c #E2CC92",
"@X c #EDDC92",
"#X c #E6D899",
"$X c #F5DE95",
"%X c #EEE586",
"&X c #F6EE85",
"*X c #F9EF85",
"=X c #F4E38B",
"-X c #F6EE8B",
";X c #FAEE8C",
":X c #F4E589",
">X c #F9F085",
",X c #F6F18A",
"<X c #F9F18B",
"1X c #F6F084",
"2X c #EEE496",
"3X c #EDE39B",
"4X c #F4E692",
"5X c #F5ED94",
"6X c #FAEE93",
"7X c #F5E39C",
"8X c #FBE59C",
"9X c #F6ED9B",
"0X c #FAED9A",
"qX c #FAE693",
"wX c #F7F193",
"eX c #FBF092",
"rX c #FAF099",
"tX c #D8CCA2",
"yX c #EAD5AB",
"uX c #F5DDA8",
"iX c #EFDBB6",
"pX c #EFE3A7",
"aX c #F4E4A5",
"sX c #F6E9A4",
"dX c #F9EBA4",
"fX c #F1E4AC",
"gX c #F9E5AC",
"hX c #F6EBA9",
"jX c #FAF1A3",
"kX c #F4E6B5",
"lX c #F6E8B5",
"zX c #EFE4B0",
/* pixels */
"                                                                                                                                ",
"                                                                                                                                ",
"                                                                                                                                ",
"                                                                                                                                ",
"                                                                                                                                ",
"                                                                                                                                ",
"                                                                                                                                ",
"                                                                                                                                ",
"                                                                                                                                ",
"                                                                                                                                ",
"                                                                                                                                ",
"                                                                                                                                ",
"                                                                                                                                ",
"                                                                                                                                ",
"                                                                                                                                ",
"                                    7 7 q , , ; ; :                           7 ; 7 ; ; ;                                       ",
"                                  ^ m m v v v x 8 : 1                       m m m Z m m m )                                     ",
"                              y m ;.!.Q.!.!.Q.P.] = ; 2 - 2 2 - * - - : = e ;.^.Q.!.}.[.Q.8.h u                                 ",
"                              ; x 7.iXkXgXgXkX[.{ O + ; ; ; ; ; ; : : = + f w.kXlXhXsXhXkXw.f =                                 ",
"                              ; x 7.yXuX$X8XsX'.@.p j v m m m v v j h h j C y.sXdX7X7XsXlXw.d ;                                 ",
"                              ; x =.E.|.XXXXqX2X/.y.u.I.U.W.W.W.U.I.I.I.u.f.oX5X4X X).#XlXw.d 7                                 ",
"                              ; e } ~.h.k.V.=X5X5X9XsXaXgXgXgXgXgXgXaXaX9X5X;XeX=Xg.j.+XiXr.x 7                                 ",
"                              : w } e.a.g.v.%X-X;X0XOX X)..X.X.X.X|.|. X%X>X>XeX4Xg.d.~.!.=.z ,                                 ",
"                              q b ] #.0.j.v.%X-X-X0XOXb.h.h.h.h.h.h.h.g.oX*X*X;X=Xb.a.9.=.] T t                                 ",
"                              X.X.( k $.+XoX:X<X6X0X@Xj.d.s.Y.Y.s.s.s.g.OX-X;X;X6XOXR.[ g ' X.                                  ",
"                              J.H.( $ #.aX0X<X<XeX0XOX).R.E.E.E.E.k.k.b.OX=X;X;X;X6X).P > ( J.                                  ",
"                              ( ( Y > &.fX9XeX<X<XeX6XqX8X8X8X8X8XqXqX;X6X-X<X<X;X;X/.H # Y | /                                 ",
"                              ; ; ; = *.fXjXjXrXrXeX6X6X6X6X6X6X6X-X-X<X;X<XeX5X5X5X/.H + ; r 0                                 ",
"                              y U r 7 *.zXaXf.y.(.9X6X<X<X<X<X<X,X,X,X<X,X%Xm.6.t.3X`.A + q U U                                 ",
"                              X.X.( w ;.kX{.J B 2.sX5X<X>X>X,X,X,X,X,X<XwXoXO.s B `.tX` = R o.                                  ",
"                              K.K. .e 8.lX'.D p 1.dX5X<X&X>X<X-X,X,X,X,X;XoXI & p `.tX` , ^ H.                                  ",
"                               . .! w >.kX#X2.1.y.9X;X<X>X>X>X&X&X-X,X1X-X%Xt.@.1.#X].` , T ( (                                 ",
"                              0 t t 8 *.zXhXaX@X4XeX-X1X&X*X*X>X&X&X>X<X<X-X4X2X3X9X'._ , 3 4 1                                 ",
"                              1 U t 8 &.fXdX9XqX5X,X-X,X-X&X>X*X*X&X-X<X-X6X5X5XwX5X_.K < 4 4 1                                 ",
"                                ! E 8 &.kXsX9X9X5XwX5X5X9X5X5X;X-X6X5XrX0X0X9X9X9XjX`._ , r                                     ",
"                                  T 8 ,.Q.].'.{._._.{.'.'.`.(.).(.(.(._._.'.].'.`.].U.~ ;                                       ",
"                                      ^ ~ A K K K K _ _ S C C F F F H H H H _ _ _ A ~ ^                                         ",
"                                      e + + = > > = = = + O X o o X O # $ $ > , 7 = 7                                           ",
"                                        R T w 3 3 3 ; = # V J G G V # > , , 3 4 4 E R                                           ",
"                                        K.J.W 8 w w < # i 2.j.g.d.<.l 6 8 w t t Y H.                                            ",
"                                        H.:.~ c c c g p a 5.v.c.v.5.F l j g N M W ,.                                            ",
"                                        b Z #.0.0.q.q.3.4.p.M.M.M.x.l.t.t.t.q.0.-.Z x                                           ",
"                                        = f 2.g.g.x.x.p.i.z.z.z.z.B.Z.C.C.C.x.b.9.f 6                                           ",
"                                        @ i 3.x.c.B.N.N.N.B.B.B.B.A.S.F.F.A.c.g.2.i +                                           ",
"                                        . % 1.v.C.S.F.F.D.D.D.D.D.S.S.S.D.F.c.b.0.d =                                           ",
"                                        = f +.t.n.&X>X>X*X;X;X;X;X-X-X;X-X%Xp.t.$.d                                             ",
"                                          ] k B 4.4X-X;X;X6X5X5X5XrXwX5X0X@X@.a f                                               ",
"                                            % p <.oX4X5X0XoX(.(.(.(.2X0X7X+X+.% #                                               ",
"                                            , 6 { y.oXdX#X@.L L J I R.7X).y.L $ >                                               ",
"                                            3 e } y.#XlXyXA 6 > $ l I.uXQ.P._ 6 7                                               ",
"                                              E } 7.e.U.L.^ b z z c *.P.L.7.] x                                                 ",
"                                              ..' M N M M ..o. . .Q n n n W '                                                   ",
"                                                R , > , 7           ; 5 : ;                                                     ",
"                                                                                                                                ",
"                                                                                                                                ",
"                                                                                                                                ",
"                                                                                                                                ",
"                                                                                                                                ",
"                                                                                                                                ",
"                                                                                                                                ",
"                                                                                                                                ",
"                                                                                                                                ",
"                                                                                                                                ",
"                                                                                                                                "
};
