/* XPM */
static char *front_hero[] = {
/* columns rows colors chars-per-pixel */
"64 64 226 2 ",
"   c None",
".  c #321E0B",
"X  c #2B1B1C",
"o  c #251A1C",
"O  c #321E14",
"+  c #2F211D",
"@  c #32221D",
"#  c #39291D",
"$  c #3D2C08",
"%  c #1F1225",
"&  c #271A21",
"*  c #2B1B24",
"=  c #2B1C2C",
"-  c #271B2B",
";  c #321D24",
":  c #341D2C",
">  c #2B1C32",
",  c #321D34",
"<  c #371E37",
"1  c #2D2127",
"2  c #2E212A",
"3  c #352523",
"4  c #3C2B25",
"5  c #34222B",
"6  c #3B242C",
"7  c #3C2B2C",
"8  c #3D2625",
"9  c #2E2234",
"0  c #332333",
"q  c #3B2432",
"w  c #3B2B34",
"e  c #34243A",
"r  c #3A243B",
"t  c #37293B",
"y  c #3E3130",
"u  c #3E312D",
"i  c #473518",
"p  c #422C15",
"a  c #442A23",
"s  c #422C2D",
"d  c #4C3825",
"f  c #4C3E2B",
"g  c #483528",
"h  c #442A39",
"j  c #4F3E31",
"k  c #42333B",
"l  c #483435",
"z  c #523B33",
"x  c #553B39",
"c  c #59481C",
"v  c #4F402B",
"b  c #55432B",
"n  c #5E462C",
"m  c #4E413A",
"M  c #4D4135",
"N  c #544233",
"B  c #5A4B34",
"V  c #5C4A3C",
"C  c #564539",
"Z  c #614F2D",
"A  c #604F3D",
"S  c #69563B",
"D  c #66512D",
"F  c #7C6C32",
"G  c #79653A",
"H  c #7E7136",
"J  c #3D2C43",
"K  c #332241",
"L  c #3F3145",
"P  c #493B46",
"I  c #523F46",
"U  c #4C3D55",
"Y  c #422E48",
"T  c #5C4C42",
"R  c #574746",
"E  c #5B4B5B",
"W  c #594A55",
"Q  c #4F4246",
"!  c #624E48",
"~  c #635442",
"^  c #65544A",
"/  c #745B46",
"(  c #624C54",
")  c #635454",
"_  c #6B5958",
"`  c #7E6745",
"'  c #7A655C",
"]  c #554561",
"[  c #5C4E63",
"{  c #6A5C65",
"}  c #635762",
"|  c #695978",
" . c #786568",
".. c #796B77",
"X. c #806E3A",
"o. c #826B47",
"O. c #867341",
"+. c #897845",
"@. c #887656",
"#. c #846C62",
"$. c #897867",
"%. c #907C6B",
"&. c #948347",
"*. c #92865B",
"=. c #948858",
"-. c #A79958",
";. c #8E806D",
":. c #938562",
">. c #978768",
",. c #8F8172",
"<. c #908370",
"1. c #AA9866",
"2. c #B19D6A",
"3. c #A58A77",
"4. c #A9957B",
"5. c #B09B77",
"6. c #BAA86B",
"7. c #BFB265",
"8. c #B8A678",
"9. c #C4B75F",
"0. c #C9AD7C",
"q. c #C7B87B",
"w. c #D1B474",
"e. c #D5BB72",
"r. c #D3B27D",
"t. c #D9B37F",
"y. c #D5AF7B",
"u. c #DCC37C",
"i. c #DDD17E",
"p. c #D2C26C",
"a. c #E5CF7D",
"s. c #EADB7D",
"d. c #F1D87F",
"f. c #F3E67C",
"g. c #F9EC7D",
"h. c #7D6E84",
"j. c #8A7C89",
"k. c #8E808F",
"l. c #A99783",
"z. c #AE948A",
"x. c #B9A689",
"c. c #BEB384",
"v. c #BEB188",
"b. c #B7A793",
"n. c #BCB390",
"m. c #D5AD84",
"M. c #D7AF88",
"N. c #C3B585",
"B. c #C6B885",
"V. c #CDBD83",
"C. c #C4B38B",
"Z. c #C8B98A",
"A. c #D5B383",
"S. c #D4BC86",
"D. c #D3BB8C",
"F. c #D8B586",
"G. c #D2AF93",
"H. c #CAB898",
"J. c #D2B393",
"K. c #D5B995",
"L. c #CDB8A3",
"P. c #DBC482",
"I. c #D6CA8F",
"U. c #DCCA8D",
"Y. c #D9C586",
"T. c #D4C592",
"R. c #D6C993",
"E. c #DBCC95",
"W. c #D7CA9A",
"Q. c #D8C699",
"!. c #DED199",
"~. c #DED184",
"^. c #E4CA84",
"/. c #E5CA86",
"(. c #E3D283",
"). c #E5D986",
"_. c #ECDB82",
"`. c #E4D58A",
"'. c #EDDA8D",
"]. c #ECD68A",
"[. c #F3DB84",
"{. c #E4C999",
"}. c #EAD593",
"|. c #ECDA91",
" X c #ECD69A",
".X c #E4D598",
"XX c #F2DB96",
"oX c #F3E284",
"OX c #FAED86",
"+X c #F4E38B",
"@X c #FBE78C",
"#X c #F6EC8D",
"$X c #FBED8C",
"%X c #FBF085",
"&X c #FAF18C",
"*X c #F7F18D",
"=X c #EDE190",
"-X c #F4E393",
";X c #F7ED93",
":X c #FAEC93",
">X c #F4E39B",
",X c #F6EC9B",
"<X c #FAEC9B",
"1X c #F9E390",
"2X c #FBF193",
"3X c #F9F19C",
"4X c #ECE18A",
"5X c #D3C3A2",
"6X c #DBCDA5",
"7X c #DACCA9",
"8X c #DED2AB",
"9X c #E2CEA7",
"0X c #E9D8A5",
"qX c #E9D8B9",
"wX c #F3DEA5",
"eX c #F5E5A4",
"rX c #F6EDA3",
"tX c #FBECA4",
"yX c #F6EBAA",
"uX c #FBEDAD",
"iX c #F3E3A9",
"pX c #FAF1A4",
"aX c #FAF1AB",
"sX c #FBEEB4",
"dX c #F6E8B6",
"fX c #EFE1B3",
/* pixels */
"                                                                                                                                ",
"                                                                                                                                ",
"                                                                                                                                ",
"                                                                                                                                ",
"                                                                                                                                ",
"                                                                                                                                ",
"                                                                                                                                ",
"                                                                                                                                ",
"                                                                                                                                ",
"                                                                                                                                ",
"                                                                                                                                ",
"                                                                                                                                ",
"                                                                                                                                ",
"                                                                                                                                ",
"                                                                                                                                ",
"                                        e * X X + @                     & * 5 2 * * *                                           ",
"                                      W _ ! A S A ~ T                   ^ ^ ~ ~ V V T )                                         ",
"                                    o N x.6XE.E.!.6Xb.T 0           w m b.8X9X!.E.Q.5X;.u *                                     ",
"                                    X N H.sXtX<XtXuXH.T 0 [         w M C.sXaXtXtXuXdX>.4 *                                     ",
"                                    * z x. X}.'.-XtXB.B 5 U [ W W W w N Z.uXtXXXXX X0X%.4 *                                     ",
"                                  = 5 z 4.D.S.P.'.tXB.B ; , r w w w 3 b B.tXXXP.S.S.K.#.7 ,                                     ",
"                                  = 5 z 3.D.S.P.}.<XY.o.N 6 6 s s s g S V.tX>XP.A.S.K.#.q ,                                     ",
"                                  = 5 z 3.D.Y.P.'.<XXXU.J.l.3.l.4.4.K.{.>X<X-Xu.r.S.K.#.q <                                     ",
"                                  > 5 z 5.E./.(.[.@X+X].{.J.G.G.J.K.{. X-X:X-X(.~.U.9X$.q ,                                     ",
"                                  > 5 C C.eX>X1X@X$X[.u.A.A.M.M.M.F.F.u._.OX:X1X<XeXdX>.7 ,                                     ",
"                                  , 5 C Z.uX<X:X$X$Xd.e.y.m.M.M.M.m.r.w.a.@X$X:X:XtXsX>.7 ,                                     ",
"                                  r 5 N Z.tX1X$X$X$X[.e.r.m.A.m.M.M.A.w.a.@X$X;X;X<XaX:.4 0                                     ",
"                                  J 5 N N.<X#X$XOX$X_.e.r.r.r.y.t.t.r.w.a.OX$X$X$X;XpX=.4 e ]                                   ",
"                                L e ; v q.3X$XOXOX$XoXa.^./.^.^./.^.^.^._.OX$X#X#X;XpX=.# 2 L t                                 ",
"                              - = > ; f q.,X;X$X$X$X$X#X-X1X:X:X:X:X@X1XOX$X$X2X;X;XrX=.# 2 9 >                                 ",
"                              0 e , * f c.rX).i.).#X$X2X2X&X&X&X$X$X$X2X$X$X4Xi.(.,XaX*.# = e 9                                 ",
"                                [ Y : f v.eX-.H -.=X2X2X*X&X*X&X*X%X%X&X&X;X7.F +..XsX:.3 e ]                                   ",
"                                h.U 5 j v.iXO.$ F |.2X&X$X&X&X*X%X%X%X%X&X;X-.p c I.sX*.3 J |                                   ",
"                                [ J 5 j N.yX1.X.-.-X2X&X$X$X$XOX%X%X%X%X$X;Xq.O.&..XuX*.# t ] U                                 ",
"                              9 e e 0 N c.rX=X`.'.:X&X%X*X*X$X%X%X%X$X$X$X2X-X~.`.,XaX*.4 , K >                                 ",
"                              - > > 0 m c.pX;X;X<X:X&X*X*X$X$X$X$X#X:X<X:X2X2X2X2X3XaX:.8 = > %                                 ",
"                                P J 0 m n.uXrXpXpXtX<X,X,X,X,X<X,XrXrXyXtXtX<X<X<XrXsX>.7 = J                                   ",
"                                  J t Q l.W.R.W.Q.W.I.I.T.T.T.T.T.T.T.Q.W.R.T.W.E.W.7X%.k 0                                     ",
"                                    E } R B B V T V V V C N N b b b N V V V V V V V T ) {                                       ",
"                                    j...y @ @ 5 q 6 q 0 : ; O . . O @ ; : 6 6 6 6 3 X W j.                                      ",
"                                    } { T V T R h r r < , I ^ S S A s < < r h ( ^ ! T )  .                                      ",
"                                    2 R b.7X5XH.^ 6 < : 6 >.Z.V.V.8.C : : ; x L.8X8X7X$.k 0                                     ",
"                                    * R H.fX!.C.S a a # i 1.)._.(.6.D a a a n Q.0XdXdX,.w =                                     ",
"                                    1 C H.fX8.1.@.o.o.G F 9.f.f.s.p.&.G ` o.O.6.6..XdX<.w >                                     ",
"                                    o m b.9X8.1.0..X}.`.s.f.g.g.g.f.oX|.}.}.S.2.2.Q.qX,.w =                                     ",
"                                      m ' #./ / 1. X+XoXf.g.OX$XOXg.g.oXoX'.S.` / ' #._ I                                       ",
"                                        ; * ; a >.wX<X$X%XOX$X<X<X:X$XOXOX1XY.d 8 ; X k                                         ",
"                                          , : 8 $.Q.|.:X+X7.-.1.1.6.~.;X#X-XN.g 5 0 0                                           ",
"                                            q 6 ' x.T.iXE.G i d d Z 8.tX>XU.5.4 ;                                               ",
"                                            0 w  .b.H.qX5X~ 8 w 7 z 4.fX0XH.4.6 =                                               ",
"                                              Q (  .#.%. .) E E W ) ' %.$.#._ I                                                 ",
"                                                k 5 5 5 5 { j.    ..P 3 @ 3 3                                                   ",
"                                                  = & *               1 & 1                                                     ",
"                                                                                                                                ",
"                                                                                                                                ",
"                                                                                                                                ",
"                                                                                                                                ",
"                                                                                                                                ",
"                                                                                                                                ",
"                                                                                                                                ",
"                                                                                                                                ",
"                                                                                                                                ",
"                                                                                                                                ",
"                                                                                                                                "
};
