/* XPM */
static char *left_hero_wait[] = {
/* columns rows colors chars-per-pixel */
"64 64 210 2 ",
"   c #FF00FF",
".  c #2D1C13",
"X  c #2C1B1D",
"o  c #24181B",
"O  c #331D1D",
"+  c #331818",
"@  c #292018",
"#  c #352116",
"$  c #35241E",
"%  c #3A231B",
"&  c #3B2813",
"*  c #1F1222",
"=  c #221225",
"-  c #291626",
";  c #2B1A23",
":  c #25152B",
">  c #291629",
",  c #251B29",
"<  c #2C1B2B",
"1  c #241926",
"2  c #321C2C",
"3  c #341F26",
"4  c #261A33",
"5  c #2D1A33",
"6  c #311D35",
"7  c #2E202F",
"8  c #332324",
"9  c #3A2426",
"0  c #34252B",
"q  c #3A252B",
"w  c #3D2A2B",
"e  c #3B2927",
"r  c #2D2132",
"t  c #2F203B",
"y  c #342234",
"u  c #3A2433",
"i  c #3C2B3D",
"p  c #3A2436",
"a  c #3D3138",
"s  c #442C0A",
"d  c #422B1D",
"f  c #423318",
"g  c #422A2F",
"h  c #473A2B",
"j  c #4B3B2B",
"k  c #4A3728",
"l  c #503F2E",
"z  c #412E33",
"x  c #4A3D32",
"c  c #4E3339",
"v  c #453438",
"b  c #513F35",
"n  c #614F1D",
"m  c #4F4020",
"M  c #50402E",
"N  c #5B472A",
"B  c #4F4036",
"V  c #534232",
"C  c #53433B",
"Z  c #5B453D",
"A  c #6F5A22",
"S  c #614C3A",
"D  c #635634",
"F  c #62533D",
"G  c #68563B",
"H  c #6A593C",
"J  c #685835",
"K  c #7C682E",
"L  c #756836",
"P  c #432F46",
"I  c #463545",
"U  c #493847",
"Y  c #543C43",
"T  c #513643",
"R  c #574644",
"E  c #5A4545",
"W  c #574A45",
"Q  c #5A4A43",
"!  c #5C4849",
"~  c #5F5347",
"^  c #564B54",
"/  c #614C4D",
"(  c #654C44",
")  c #645542",
"_  c #6D5C43",
"`  c #6D5C4D",
"'  c #705C43",
"]  c #614F59",
"[  c #665552",
"{  c #6B5953",
"}  c #765C58",
"|  c #7C6A46",
" . c #7C6B4C",
".. c #776246",
"X. c #736254",
"o. c #7E6C54",
"O. c #79675B",
"+. c #665564",
"@. c #6F6267",
"#. c #726465",
"$. c #7C6C62",
"%. c #70646A",
"&. c #7F7173",
"*. c #766773",
"=. c #826F35",
"-. c #88793D",
";. c #8A7C4D",
":. c #8A6D51",
">. c #8A7757",
",. c #8A7765",
"<. c #957C74",
"1. c #968549",
"2. c #9A8A58",
"3. c #AB9D54",
"4. c #BBA55F",
"5. c #9B8778",
"6. c #AC956A",
"7. c #B39C68",
"8. c #A9957B",
"9. c #B79D74",
"0. c #A68B77",
"q. c #BAA36A",
"w. c #B9A167",
"e. c #B5A472",
"r. c #BAAD7B",
"t. c #B1A279",
"y. c #BBB17D",
"u. c #CBAA69",
"i. c #D6BC6C",
"p. c #CAAA74",
"a. c #C4A875",
"s. c #CDB374",
"d. c #CCBA78",
"f. c #CCB77B",
"g. c #D3BC7D",
"h. c #D7B677",
"j. c #CBB368",
"k. c #CEC17E",
"l. c #D8C77B",
"z. c #E0CE7C",
"x. c #F4DD7D",
"c. c #E8D476",
"v. c #F7EC74",
"b. c #F9EE77",
"n. c #F6ED7D",
"m. c #FAED7C",
"M. c #F9E77B",
"N. c #F7F07C",
"B. c #F9F07D",
"V. c #897E83",
"C. c #A99A86",
"Z. c #BFAC86",
"A. c #B4A68F",
"S. c #BEB186",
"D. c #BDAB94",
"F. c #C2B281",
"G. c #C8B589",
"H. c #D7BB83",
"J. c #CEBF94",
"K. c #CABA9D",
"L. c #C4B597",
"P. c #D1BD96",
"I. c #CFC284",
"U. c #D3C48D",
"Y. c #D7C781",
"T. c #DFD38A",
"R. c #D2C396",
"E. c #DDD397",
"W. c #E5DB8C",
"Q. c #EAD989",
"!. c #F1DD86",
"~. c #F4DD8C",
"^. c #E2D694",
"/. c #E4D993",
"(. c #E2D799",
"). c #EADA9A",
"_. c #F4DB98",
"`. c #F6ED84",
"'. c #F9ED83",
"]. c #F4E68C",
"[. c #F6ED8B",
"{. c #F9EE8C",
"}. c #F6F183",
"|. c #F9F184",
" X c #F6F18A",
".X c #FAF18A",
"XX c #EEE390",
"oX c #F4EC93",
"OX c #FAEE92",
"+X c #F5E79E",
"@X c #F6EC9A",
"#X c #FAED99",
"$X c #F9E79A",
"%X c #F9F093",
"&X c #F9F099",
"*X c #D5C5A7",
"=X c #ECDEA3",
"-X c #E5D5A9",
";X c #F1D9A7",
":X c #ECDBB1",
">X c #E4D1B2",
",X c #F0DCB7",
"<X c #EFE2A2",
"1X c #F2E3A1",
"2X c #FAEBA4",
"3X c #F3E4AB",
"4X c #FBEBAE",
"5X c #F7E9A3",
"6X c #F8E7B8",
"7X c #FDECC1",
/* pixels */
"                                                                                                                                ",
"                                                                                                                                ",
"                                                                                                                                ",
"                                                                                                                                ",
"                                                                                                                                ",
"                                                                                                                                ",
"                                                                                                                                ",
"                                                                                                                                ",
"                                                                                                                                ",
"                                                                                                                                ",
"                                                                                                                                ",
"                                                                                                                                ",
"                                                                                                                                ",
"                                                                                                                                ",
"                                                                                                                                ",
"                                                                8 X 8 8 8 8                                                     ",
"                                                              W C h j M V C W                                                   ",
"                                                  1 = : : > ; C C.K.J.J.*X*XC.x @                                               ",
"                                                  ; < < ; X . V R.4X4X4X6X7XD.V $                                               ",
"                                                / R C V M j m L Y.#X#X~._._.G.' Z W                                             ",
"                                              v $.K.R.U.U.I.k.l.].OX!.i.h.g.H.P.K.{ a r                                         ",
"                                              q O.6X2X@X%X%XOX{.[.'.!.u.p.p.H.;X,X{ y 4                                         ",
"                                              9 o.3X#X.X|.|.|.|.'.'.x.u.u.p.h.).:X{ y 4                                         ",
"                                            y 9 o.<XOX.X`.`.|.'.m.M.x.i.h.h.s.9.8.! i t                                         ",
"                                            y 9  .1X[.{.`.{.`.'.m.m.m.x.~._.p.N d ! +.                                          ",
"                                            i 8 | 1XOX{.{.{.`.}.m.b.m.'.{.#Xa.k O ] *.                                          ",
"                                            P O | 1X%X%X%X[.`.}.B.b.m.B.'.oXr.h ; I I 0                                         ",
"                                          y p O ..<X#X@X#XoX X}.B.B.m.}.}.oXy.h ; 7 < o                                         ",
"                                        = > 2 e | +X+X^.T./.oX X}.}.'.`.}.oXy.h ; r < *                                         ",
"                                        = < E >.7.5Xd.=.n 1.@X%X`.`..X`. XoXr.j 8 I                                             ",
"                                        = ; ( 6.d.$Xs.A s -.@X{.|.|.`.|..X&Xy.l 0 U                                             ",
"                                        > 3 ..f.z.].l.1.K 3.oX.X}.m.'.|..X&XF.l q P                                             ",
"                                        > 9 >.5XOX'.`.{.OXOX{.`.B.B.m.'.|.#XF.V q y 5 =                                         ",
"                                        - q >.+XOX|.n.n.'.`.{..X}.B.}.`..X&XS.M 0 y r <                                         ",
"                                        - e >.(.XXOX`.`.`.`.{.{.|.`.{.oX@X5XS.x 0 i                                             ",
"                                          9 X.Z.U.(.^./.W.W.W.W.W.W./.).=X:XA.B 0                                               ",
"                                            / ( S ) F F D D D J J J G H H _ X.#.%.                                              ",
"                                            T q 9 q 0 0 9 9 8 9 $ # % % & & b &.V.                                              ",
"                                              Y c 2 p 6 6 6 5 6 2 + c Z S _ X.#.@.                                              ",
"                                              <.} q u y 6 < 2 2 + + } 0.Z.*XD./ v                                               ",
"                                                } 9 u 0 9 $ $ % & s :.9.U.6XK.R 0                                               ",
"                                                / q u E 8.t.e.e.q.w.7.w.Y.4XK.Z 0                                               ",
"                                                Y p z ` -X2XoX[.].!.j.4.l.3XL.C 0                                               ",
"                                                  y w _ (.{.}.B.m.M.c.l.d.r.5.W a                                               ",
"                                                  2 w _ E.{.N.v.v.v.'.!.2.f j [                                                 ",
"                                                  < q ) (.%X|.m.m.m.'.Q.>.. $                                                   ",
"                                                  1 8 ) E.#X.X`.'.'.]./.,.. o                                                   ",
"                                                  , 0 ~ L.^.oX{.{.oXT.G.$.8                                                     ",
"                                                    ^ W F ;.^.2X2X=X1.N Q                                                       ",
"                                                      U $ G P.-X:X>X_ # w                                                       ",
"                                                        z Q ,.<.5.5.[ v                                                         ",
"                                                          Y w g g q                                                             ",
"                                                                                                                                ",
"                                                                                                                                ",
"                                                                                                                                ",
"                                                                                                                                ",
"                                                                                                                                ",
"                                                                                                                                ",
"                                                                                                                                ",
"                                                                                                                                ",
"                                                                                                                                ",
"                                                                                                                                ",
"                                                                                                                                ",
"                                                                                                                                "
};
