/* XPM */
static char *left_hero[] = {
/* columns rows colors chars-per-pixel */
"64 64 199 2 ",
"   c #FF00FF",
".  c #241305",
"X  c #2D1E14",
"o  c #2D1B1D",
"O  c #261412",
"+  c #301E17",
"@  c #2F201D",
"#  c #332416",
"$  c #33221C",
"%  c #3A261D",
"&  c #3C291C",
"*  c #3A2614",
"=  c #38260D",
"-  c #1F1222",
";  c #221626",
":  c #2C1D24",
">  c #25192A",
",  c #2C1D2B",
"<  c #291622",
"1  c #321F26",
"2  c #311D2D",
"3  c #2A1B30",
"4  c #331E34",
"5  c #2D222A",
"6  c #2D2125",
"7  c #342323",
"8  c #3A2521",
"9  c #352B22",
"0  c #3B2A21",
"q  c #35232C",
"w  c #39252B",
"e  c #342A2A",
"r  c #3A2A2B",
"t  c #3E3125",
"y  c #312332",
"u  c #3A2434",
"i  c #3D2934",
"p  c #36213C",
"a  c #39223B",
"s  c #41300B",
"d  c #493719",
"f  c #413524",
"g  c #44352B",
"h  c #4E3C2D",
"j  c #483823",
"k  c #523E2D",
"l  c #412E35",
"z  c #412E38",
"x  c #443235",
"c  c #44333C",
"v  c #49373C",
"b  c #4A3733",
"n  c #523B3E",
"m  c #58481C",
"M  c #53422D",
"N  c #5A462C",
"B  c #55443B",
"V  c #5C4B3C",
"C  c #594734",
"Z  c #634E2B",
"A  c #6A582E",
"S  c #634C38",
"D  c #675339",
"F  c #715E3B",
"G  c #776133",
"H  c #371F44",
"J  c #392043",
"K  c #3D3143",
"L  c #472F45",
"P  c #4A3545",
"I  c #4D3E43",
"U  c #46374A",
"Y  c #543942",
"T  c #564743",
"R  c #624B44",
"E  c #625144",
"W  c #65524A",
"Q  c #6E595B",
"!  c #78664A",
"~  c #786868",
"^  c #6C6071",
"/  c #746576",
"(  c #83743D",
")  c #856E42",
"_  c #827047",
"`  c #8C7C69",
"'  c #8A7E66",
"]  c #907263",
"[  c #877879",
"{  c #927F78",
"}  c #95854A",
"|  c #8E835A",
" . c #93865F",
".. c #9C8D5B",
"X. c #998955",
"o. c #A18C43",
"O. c #A1935B",
"+. c #AF965E",
"@. c #B5A35C",
"#. c #8E8062",
"$. c #938465",
"%. c #978A66",
"&. c #9B8C63",
"*. c #98886C",
"=. c #968273",
"-. c #9D8C74",
";. c #A28763",
":. c #A08F68",
">. c #A1916A",
",. c #B99F69",
"<. c #A28F75",
"1. c #A39276",
"2. c #A5987A",
"3. c #B09B75",
"4. c #BAA96B",
"5. c #BAA379",
"6. c #B4A37E",
"7. c #C3A365",
"8. c #C5AC6B",
"9. c #CEB46B",
"0. c #D0B66A",
"q. c #CDBE73",
"w. c #D7BA72",
"e. c #D3B47B",
"r. c #D8C26E",
"t. c #CFC279",
"y. c #DBC37A",
"u. c #E5CD7D",
"i. c #E8D479",
"p. c #F7EE7B",
"a. c #F9EE7D",
"s. c #F8EF77",
"d. c #F9F176",
"f. c #FAF17D",
"g. c #F7F27E",
"h. c #9D9082",
"j. c #A38F80",
"k. c #AB9A81",
"l. c #A79682",
"z. c #B1A686",
"x. c #BEA989",
"c. c #BBAD96",
"v. c #CABA84",
"b. c #CABE8C",
"n. c #C7B993",
"m. c #CABE9A",
"M. c #D5BF96",
"N. c #D7B989",
"B. c #CBBBA6",
"V. c #D3C680",
"C. c #DAC787",
"Z. c #D9C69C",
"A. c #D7C797",
"S. c #E3CE8B",
"D. c #E3D486",
"F. c #EDD984",
"G. c #E3DA8D",
"H. c #EDD88C",
"J. c #F3DC8B",
"K. c #F4DE88",
"L. c #EAD998",
"P. c #F3D69D",
"I. c #EFE28A",
"U. c #F3E186",
"Y. c #F7EE86",
"T. c #FAED84",
"R. c #F3E289",
"E. c #FAE28E",
"W. c #F6EC8C",
"Q. c #FAEB8B",
"!. c #F6F184",
"~. c #FBF184",
"^. c #FAF08A",
"/. c #EDE59B",
"(. c #F3E495",
"). c #F5EB93",
"_. c #FBEC92",
"`. c #F2E69B",
"'. c #F9E799",
"]. c #F5E99B",
"[. c #FAEA9C",
"{. c #F7F092",
"}. c #FAF294",
"|. c #FBF19B",
" X c #DAC8A1",
".X c #E0CCA3",
"XX c #E7D8A7",
"oX c #EEE4A3",
"OX c #F3E5A4",
"+X c #F9E5A3",
"@X c #F6EBA4",
"#X c #F8ECA3",
"$X c #F7E4AB",
"%X c #FBF1AF",
"&X c #ECE0BB",
"*X c #F4EAB6",
"=X c #F4E4B6",
"-X c #FCF1B8",
";X c #F7EEC1",
/* pixels */
"                                                                                                                                ",
"                                                                                                                                ",
"                                                                                                                                ",
"                                                                                                                                ",
"                                                                                                                                ",
"                                                                                                                                ",
"                                                                                                                                ",
"                                                                                                                                ",
"                                                                                                                                ",
"                                                                                                                                ",
"                                                                                                                                ",
"                                                                                                                                ",
"                                                                                                                                ",
"                                                                                                                                ",
"                                                                                                                                ",
"                                                          : : 1 o : o                                                           ",
"                                                          B h M k h h B                                                         ",
"                                                      O # 1.Z.Z.A.Z.M.<.0 o                                                     ",
"                                                      O * 3.OX].[.+X$X3.& + x                                                   ",
"                                                    Y b N 4.(.W.U.J.P.5.S S Q ~                                                 ",
"                                                  7 R ] ;.S._.U.r.9.e.N.M. X=.c                                                 ",
"                                                v % D ;.,.H._.R.9.7.8.C.+X$X<.7 q                                               ",
"                                              I W D ) +.8.K._.K.9.7.7.y.'.+X>.8 q                                               ",
"                                            , x ` Z.S.H.F.Q.Q.R.y.w.w.u._.'.&.$ :                                               ",
"                                            : g $.OX'._.Q.T.T.Q.U.K.E.E._.'...$ 1                                               ",
"                                            : g  .OXW.Q.~.a.a.T.T.T.Q.Q.W.].&.# :                                               ",
"                                            , f ..].Y.!.f.s.p.a.p.p.T.Q._.`.%.$ ,                                               ",
"                                            q f ..).!.!.g.f.p.a.f.d.a.T.W.`.%.o ,                                               ",
"                                          U q j ..).!.!.!.~.T.T.f.d.f.Y.W.`.%.$ ,                                               ",
"                                        > y : j O.`.{.}.}.^.Q.T.a.s.p.Y.W.`.%.$ , 3 ;                                           ",
"                                        ; : o d O.].).G.G.).}.^.a.p.a.Y.W.`.&.$ 2 > -                                           ",
"                                        > 7 E _ 4.].t.} ( q.W.T.f.a.T.Q.W.].&.$ w c y                                           ",
"                                        5 t n.%X].].4.m s @.W.T.a.a.T.T.W.].>.& v [                                             ",
"                                        5 f b.[.W._.t.} ( q.W.T.T.T.T.T._.#X:.% c / ^                                           ",
"                                        5 f v.|.^.Y.I.D.D.I.Q.T.a.~.a.T._.#X>.& i U K                                           ",
"                                        : t b.|.^.Y.Q.).).W.Y.T.T.T.~.^.).@X>.0 q y >                                           ",
"                                        6 g m.%X|.}.}.{.{.}.}._.|.}.}.).#X*X2.r , >                                             ",
"                                          x B.=XOX`.`././.`././.oXoXoXoXXX&Xh.e 5                                               ",
"                                          I { j.-.-.*.$. .| | #.$.' #.#.` { ~ c                                                 ",
"                                            q r w w q q 7 $ $ 7 7 $ X X X X I                                                   ",
"                                            < q u a J p p 2 4 4 2 1 7 $ # $ T                                                   ",
"                                              P L J J H p 4 4 4 4 n { k.z.z.` b                                                 ",
"                                                P a p a u w w q 8 S x. X*X;X2.9 e                                               ",
"                                                c u i T V N N C Z G X.4.oX-Xl.9 e                                               ",
"                                                x w B l.A.C.V.V.V.@.o.@.L.=X2.9 e                                               ",
"                                                z w V n.@XW.Y.T.Q.i.0.8.3.k.~ r                                                 ",
"                                                  e V m.%X}.~.f.T.Q.(.v.D g x                                                   ",
"                                                  r T c.XXL._.Q.Q.F.C.6.B o :                                                   ",
"                                                    T E D ..L.(.y.} A M g                                                       ",
"                                                      o # ! .XXX5.F = .                                                         ",
"                                                        r R j.l.=.W 0                                                           ",
"                                                          l x x x l                                                             ",
"                                                                                                                                ",
"                                                                                                                                ",
"                                                                                                                                ",
"                                                                                                                                ",
"                                                                                                                                ",
"                                                                                                                                ",
"                                                                                                                                ",
"                                                                                                                                ",
"                                                                                                                                ",
"                                                                                                                                ",
"                                                                                                                                ",
"                                                                                                                                "
};
