/* XPM */
static char *left_hero_walk1[] = {
/* columns rows colors chars-per-pixel */
"64 64 204 2 ",
"   c #FF00FF",
".  c #2A1A0E",
"X  c #2B1B13",
"o  c #2F1E1D",
"O  c #24151A",
"+  c #301D1E",
"@  c #32221D",
"#  c #39221F",
"$  c #231824",
"%  c #2C1B24",
"&  c #261A2A",
"*  c #2C1C2B",
"=  c #29162F",
"-  c #321E25",
";  c #331E2A",
":  c #3A1F29",
">  c #2E1632",
",  c #2E1A32",
"<  c #311D36",
"1  c #361F39",
"2  c #2E212D",
"3  c #352423",
"4  c #3B2626",
"5  c #3C2B23",
"6  c #34232B",
"7  c #3A252A",
"8  c #3C2B2B",
"9  c #37282A",
"0  c #342334",
"q  c #362932",
"w  c #3B2B32",
"e  c #35223A",
"r  c #3B2B3B",
"t  c #38243A",
"y  c #4E3D0F",
"u  c #432C1E",
"i  c #432C2A",
"p  c #422A24",
"a  c #453424",
"s  c #44322C",
"d  c #4E3929",
"f  c #493924",
"g  c #543D28",
"h  c #412D31",
"j  c #412E3A",
"k  c #453434",
"l  c #4B3A33",
"z  c #4B3538",
"x  c #4B3B3C",
"c  c #463438",
"v  c #513B35",
"b  c #5A4A1A",
"n  c #58472B",
"m  c #52423C",
"M  c #554834",
"N  c #674E3A",
"B  c #69572B",
"V  c #766532",
"C  c #3A2941",
"Z  c #412B46",
"A  c #493645",
"S  c #503C45",
"D  c #583F5B",
"F  c #4F4046",
"G  c #564445",
"H  c #5D5047",
"J  c #574B5C",
"K  c #6C5B4D",
"L  c #625347",
"P  c #745E4C",
"I  c #6C5A53",
"U  c #6B555A",
"Y  c #715F57",
"T  c #6F604D",
"R  c #726345",
"E  c #74644A",
"W  c #7C654C",
"Q  c #7C6A4B",
"!  c #7F704D",
"~  c #7A6A55",
"^  c #7E6C5A",
"/  c #746255",
"(  c #674E64",
")  c #68586A",
"_  c #6E6063",
"`  c #6E6072",
"'  c #7D687E",
"]  c #886C4E",
"[  c #84704A",
"{  c #937A4E",
"}  c #8E795D",
"|  c #917B5C",
" . c #826B61",
".. c #857363",
"X. c #8A756B",
"o. c #907B6F",
"O. c #8A7977",
"+. c #947F79",
"@. c #8F8057",
"#. c #938353",
"$. c #9B8B58",
"%. c #A99A5E",
"&. c #B2A55D",
"*. c #B8AB5F",
"=. c #8F8165",
"-. c #958662",
";. c #93826A",
":. c #9D8D6B",
">. c #988A65",
",. c #9F906C",
"<. c #8D8071",
"1. c #9E8B79",
"2. c #978A74",
"3. c #9E9274",
"4. c #A3926C",
"5. c #A99468",
"6. c #A18E73",
"7. c #A38E78",
"8. c #B29D77",
"9. c #BAA46B",
"0. c #BAA579",
"q. c #BEB075",
"w. c #C7AB68",
"e. c #C0B26E",
"r. c #CEB36D",
"t. c #D1B56B",
"y. c #D7BC6C",
"u. c #C6B37B",
"i. c #C8B876",
"p. c #D2B976",
"a. c #DBC272",
"s. c #D9C17C",
"d. c #DED27F",
"f. c #EAD47B",
"g. c #E4C977",
"h. c #FAED7E",
"j. c #F7F17F",
"k. c #F9F27E",
"l. c #7F7083",
"z. c #887C8E",
"x. c #9B8697",
"c. c #A39582",
"v. c #BDAE83",
"b. c #B5A58B",
"n. c #CBB88C",
"m. c #D0B980",
"M. c #C9BD94",
"N. c #CAB79C",
"B. c #CBBBA7",
"V. c #CCC18F",
"C. c #DBC68B",
"Z. c #D9C886",
"A. c #D4C392",
"S. c #DBCE95",
"D. c #DBCB9C",
"F. c #D6C79A",
"G. c #DED19D",
"H. c #DCD095",
"J. c #EFD98D",
"K. c #E5D78A",
"L. c #F3DC82",
"P. c #F3DF89",
"I. c #EADB93",
"U. c #E6D59B",
"Y. c #E9D796",
"T. c #FAE585",
"R. c #F6EE84",
"E. c #FAED83",
"W. c #F3E48B",
"Q. c #FBE589",
"!. c #F6ED8B",
"~. c #F9ED8A",
"^. c #F9F083",
"/. c #F9F18B",
"(. c #F6F188",
"). c #EFE396",
"_. c #F2E596",
"`. c #FBE793",
"'. c #F7ED93",
"]. c #FAED93",
"[. c #F3E59B",
"{. c #F9E69A",
"}. c #F5E99C",
"|. c #F9EE9B",
" X c #FAF196",
".X c #FBF19E",
"XX c #D5C4A3",
"oX c #DCCBA9",
"OX c #E3CFA2",
"+X c #E5CDAE",
"@X c #E3D4A4",
"#X c #E3D3AB",
"$X c #EFDFA3",
"%X c #EEE1A3",
"&X c #F5E3A2",
"*X c #F5EAA4",
"=X c #FBE9A4",
"-X c #F3E4A9",
";X c #FBE7AB",
":X c #F5E9AC",
">X c #FAECAA",
",X c #F9E5A7",
"<X c #FBF1A0",
"1X c #F8E6B5",
/* pixels */
"                                                                                                                                ",
"                                                                                                                                ",
"                                                                                                                                ",
"                                                                                                                                ",
"                                                                                                                                ",
"                                                                                                                                ",
"                                                                                                                                ",
"                                                                                                                                ",
"                                                                                                                                ",
"                                                                                                                                ",
"                                                                                                                                ",
"                                                                                                                                ",
"                                                                                                                                ",
"                                                              0 q                                                               ",
"                                                          * % 3 3 @ o 8                                                         ",
"                                                        c I K R R R P Y G                                                       ",
"                                                      O 8 N.@XU.Y.U.@X7.i -                                                     ",
"                                                      % p n.=X`.`.|.,X8.u # k                                                   ",
"                                                    A z N C.`.Q.L.J.J.0.W P /                                                   ",
"                                                  6 z  .5.J.].L.y.r.p.Z.OX+X1.w                                                 ",
"                                                m 5 d | 9.W.~.L.t.w.w.s.,X1X1.9 q                                               ",
"                                              G K W [ 5.p.T.T.L.t.w.w.a.{.;X6.7 w                                               ",
"                                            2 l ;.OXU.I.P.T.E.T.g.a.a.f.`.=X6.3 9                                               ",
"                                            0 l :.-X|.'.~.E.h.T.T.Q.T.~.].&X:.3 6                                               ",
"                                            0 l 4.*X].R.E.h.h.E.T.T.E.E.].&X:.@ 6                                               ",
"                                            0 x 4.}.!.^.k.h.E.E.E.h.h.E.'.}.-.@ 6                                               ",
"                                            0 l ,.*XR.j.k.^.^.E.E.E.h.E.!.[.-.@ 6                                               ",
"                                          A 6 l 4.}.(.(././.R.R.E.E.h.E.~._.-.@ 9 r                                             ",
"                                        2 ; ; d 4.}. X X|.].!.E.R.R.E.E.~._.-.@ * & $                                           ",
"                                        % % 7 n %.|.K.i.u.I.].E.^.^.E.E.~._.-.@ * & $                                           ",
"                                        % 8 +.0.Z.|.e.V B i.|.~.^.^.E.E.~._.>.@ r J J                                           ",
"                                        $ s XX>X|.|.&.b y e.|.~.^.^.E.E.~.|.>.@ A l.z.                                          ",
"                                        % 5 A.|.'.].d.*.&.K.'.~.^.^.E.E.~.}.,.5 j ) `                                           ",
"                                        * a A.|.^.R.R.W.!.].!.R.R.j.R.R.!.[.:.@ 9 r t                                           ",
"                                        * k F..X/.^.!.!.].]./.R.^.^././.].*X3.3 6 0 *                                           ",
"                                        * k oX>X|.'..X.X<X.X.X]. X X|.|.>X1X2.3 q 0                                             ",
"                                        0 x B.#XG.G.@XG.G.G.S.H.S.S.S.F.D.XX<.% q                                               ",
"                                          F ....~ ^ ~ ~ ~ E Q E E R R R R T L x                                                 ",
"                                            3 3 9 9 6 6 6 6 6 - - o X X . X l                                                   ",
"                                              w r t e e e < 1 < 6 w m M M M H _                                                 ",
"                                                C e e e < < 0 0 9 K b.M.V.M.o.w                                                 ",
"                                                C < 0 q w 8 5 5 a ! A.*X*X:Xc.9 q                                               ",
"                                                0 % 5 / =.@.@.#.#.$.i.K.[.-X1.9 q                                               ",
"                                                j + f v.%X).)._.[.i.9.m.C.A.;.3                                                 ",
"                                              c U ..$.Z.]././.].{.u.{ ] W P L 8                                                 ",
"                                            * h X.#X%X|. X].'.}.-X4.g p : - 3                                                   ",
"                                            * k } U.&X|._.i.q.v.b./ 4 % > > &                                                   ",
"                                            * s Q u.C.$XD.n u i h ; ; < > =                                                     ",
"                                            6 s W 8.n.oXN.v 7 t 1 < > > < =                                                     ",
"                                              G I ^ ..o.X.U ( D Z t < e Z                                                       ",
"                                                S 7 3 4 z O.x.' Z e , 0                                                         ",
"                                                                                                                                ",
"                                                                                                                                ",
"                                                                                                                                ",
"                                                                                                                                ",
"                                                                                                                                ",
"                                                                                                                                ",
"                                                                                                                                ",
"                                                                                                                                ",
"                                                                                                                                ",
"                                                                                                                                ",
"                                                                                                                                ",
"                                                                                                                                ",
"                                                                                                                                "
};
