/* XPM */
static char *left2_milka[] = {
/* columns rows colors chars-per-pixel */
"64 64 241 2 ",
"   c #1A0518",
".  c #1B011D",
"X  c #250518",
"o  c #1C0123",
"O  c #1C0428",
"+  c #1E0431",
"@  c #240326",
"#  c #2A0425",
"$  c #230D22",
"%  c #24022B",
"&  c #2B032B",
"*  c #260A2A",
"=  c #2C0B2E",
"-  c #33082D",
";  c #28152B",
":  c #2B0434",
">  c #290936",
",  c #2C0935",
"<  c #2A033A",
"1  c #330535",
"2  c #33053C",
"3  c #350B3B",
"4  c #380938",
"5  c #311630",
"6  c #34143C",
"7  c #361839",
"8  c #35243B",
"9  c #451E18",
"0  c #50381E",
"q  c #6C3D14",
"w  c #43122A",
"e  c #410B38",
"r  c #471B3A",
"t  c #512A2C",
"y  c #4B283B",
"u  c #582A3A",
"i  c #5D353A",
"p  c #642B39",
"a  c #66313F",
"s  c #7A453C",
"d  c #704E39",
"f  c #2D0442",
"g  c #340443",
"h  c #370647",
"j  c #360B44",
"k  c #3B044C",
"l  c #3B0A4C",
"z  c #3A1447",
"x  c #3D114A",
"c  c #3C0A54",
"v  c #3E1653",
"b  c #4A124C",
"n  c #461A48",
"m  c #420C53",
"M  c #450A5A",
"N  c #481757",
"B  c #452646",
"V  c #51344A",
"C  c #4B2758",
"Z  c #572858",
"A  c #5B3257",
"S  c #593952",
"D  c #54345C",
"F  c #53395C",
"G  c #743A46",
"H  c #6D3155",
"J  c #480963",
"K  c #4B1262",
"L  c #4B1767",
"P  c #541868",
"I  c #530C73",
"U  c #501271",
"Y  c #581977",
"T  c #582968",
"R  c #4F326B",
"E  c #5A3966",
"W  c #5A2576",
"Q  c #5E3573",
"!  c #653467",
"~  c #6E366F",
"^  c #653878",
"/  c #524258",
"(  c #7A4A46",
")  c #71494D",
"_  c #7C5547",
"`  c #594464",
"'  c #5F5063",
"]  c #624769",
"[  c #75506E",
"{  c #674877",
"}  c #7C4673",
"|  c #75577A",
" . c #7A6976",
".. c #98681F",
"X. c #8A493C",
"o. c #854745",
"O. c #946E54",
"+. c #885070",
"@. c #97587B",
"#. c #876776",
"$. c #89727D",
"%. c #B57A67",
"&. c #A9852D",
"*. c #D8A637",
"=. c #F1C439",
"-. c #B59C4A",
";. c #CDAB51",
":. c #E8CB4E",
">. c #F6E35E",
",. c #5D1986",
"<. c #641D8C",
"1. c #5D2480",
"2. c #672788",
"3. c #6B3686",
"4. c #72398D",
"5. c #6A2595",
"6. c #712C95",
"7. c #773797",
"8. c #712DA0",
"9. c #7B3AA3",
"0. c #6D4886",
"q. c #754986",
"w. c #775684",
"e. c #7B4599",
"r. c #7F5396",
"t. c #7D6C87",
"y. c #7F7284",
"u. c #813BA5",
"i. c #894D8F",
"p. c #8E5889",
"a. c #845995",
"s. c #85688B",
"d. c #877889",
"f. c #91728C",
"g. c #876697",
"h. c #94779C",
"j. c #B5778B",
"k. c #A26D93",
"l. c #A77899",
"z. c #B87893",
"x. c #8950A7",
"c. c #8559A5",
"v. c #8C61A7",
"b. c #9269A8",
"n. c #9976A9",
"m. c #9868B3",
"M. c #9D78B1",
"N. c #A27AAB",
"B. c #A776B2",
"V. c magenta",
"C. c #AF78CD",
"Z. c #9A849A",
"A. c #9D999B",
"S. c #A58A9C",
"D. c #B18F99",
"F. c #9B83AA",
"G. c #A58CAB",
"H. c #B989A8",
"J. c #A598A7",
"K. c #B899A8",
"L. c #A986B9",
"P. c #B98ABB",
"I. c #AB96B6",
"U. c #B798BB",
"Y. c #AFA2AB",
"T. c #B6ABB4",
"R. c #B9B1B7",
"E. c #C38395",
"W. c #D18B91",
"Q. c #C18CA7",
"!. c #C398AB",
"~. c #D094B8",
"^. c #E697A9",
"/. c #C5A5B7",
"(. c #D8A7B8",
"). c #C4BCBE",
"_. c #E9ABAD",
"`. c #EDAEB9",
"'. c #E0D2A3",
"]. c #B089C7",
"[. c #B489C6",
"{. c #B798C6",
"}. c #BE98D7",
"|. c #BAA3C8",
" X c #BFB1CB",
".X c #C39AD2",
"XX c #C4ABCA",
"oX c #C8B6C8",
"OX c #C9A8D5",
"+X c #D5AED1",
"@X c #CBB8D4",
"#X c #D4BAD8",
"$X c #E3B5C5",
"%X c #E9B2CA",
"&X c #E8BCD4",
"*X c #C59EE2",
"=X c #CEA4EA",
"-X c #D4A7EA",
";X c #D6B7E8",
":X c #D8ABF5",
">X c #DDB9F8",
",X c #E1BBFA",
"<X c #C9C1CB",
"1X c #D5C7CC",
"2X c #D5C7D9",
"3X c #DAD4D8",
"4X c #E7CCCB",
"5X c #F9C7CA",
"6X c #FBCBCC",
"7X c #E9C8D7",
"8X c #F6C7D6",
"9X c #FACAD3",
"0X c #E5D7DB",
"qX c #F9D3D8",
"wX c #E5E0DF",
"eX c #DBC1E3",
"rX c #DAC6E5",
"tX c #DED1E3",
"yX c #E2C9E9",
"uX c #E3DBE3",
"iX c #E7D7EB",
"pX c #FCD4E2",
"aX c #E7C7F3",
"sX c #ECD3F3",
"dX c #EEDCF3",
"fX c #F4DDF9",
"gX c #EBE7E8",
"hX c #ECE2ED",
"jX c #F3ECE8",
"kX c #F8F5EE",
"lX c #EDE4F1",
"zX c #F2E4F4",
"xX c #F4EBF4",
"cX c #F4E3FA",
"vX c #F7EBFA",
"bX c #FBECFC",
"nX c #F6F5F5",
"mX c #FAF3F5",
"MX c #FDFEF6",
"NX c #FCF5FB",
"BX c #FDFDFB",
/* pixels */
"V.V.V.V.V.V.V.V.V.V.V.V.V.V.V.V.V.V.V.V.V.V.V.V.V.V.V.V.V.V.V.V.V.V.V.V.V.V.V.V.V.V.V.V.V.V.V.V.V.V.V.V.V.V.V.V.V.V.V.V.V.V.V.V.",
"V.V.V.V.V.V.V.V.V.V.V.V.V.V.V.V.V.V.V.V.V.V.V.V.V.V.V.V.V.V.V.V.V.V.V.V.V.V.V.V.V.V.V.V.V.V.V.V.V.V.V.V.V.V.V.V.V.V.V.V.V.V.V.V.",
"V.V.V.V.V.V.V.V.V.V.V.V.V.V.V.V.V.V.V.V.V.V.V.V.V.V.V.V.V.V.V.V.V.V.V.V.V.V.V.V.V.V.V.V.V.V.V.V.V.V.V.V.V.V.V.V.V.V.V.V.V.V.V.V.",
"V.V.V.V.V.V.V.V.V.V.V.V.V.V.V.V.V.V.V.V.V.V.V.V.V.V.V.V.V.V.V.V.V.V.V.V.V.V.V.V.V.V.V.V.V.V.V.V.V.V.V.V.V.V.V.V.V.V.V.V.V.V.V.V.",
"V.V.V.V.V.V.V.V.V.V.V.V.V.V.V.V.V.V.V.V.V.V.V.V.$   O 8 $   $ $ ; ; V.V.V.V.V.V.V.V.V.V.V.V.V.V.m M k V.V.V.V.V.V.V.V.V.V.V.V.V.",
"V.V.V.V.V.V.V.V.V.V.V.V.V.V.V.: f c V.V.V.V.V.V.f g.tX XR.R.R.R.R.Z.; o o V.V.V.V.V.V.V.V.V.z 1.2.2.U h V.V.V.V.V.V.V.V.V.V.V.V.",
"V.V.V.V.V.V.V.V.V.V.V.V.V.V.V.h J J M C V.V.z 6 F G.BXBXBXBXBXBXBX3X' / ` B = V.V.V.V.V.V.v L 4.9.5.U h V.V.V.V.V.V.V.V.V.V.V.V.",
"V.V.V.V.V.V.V.V.V.V.V.V.V.V.< K 5.,.M < % < j R 2XxXBXBXBXBXBXBXBXMXjXlXlX[ o O O O + > f L e.x.9.,.U k V.V.V.V.V.V.V.V.V.V.V.V.",
"V.V.V.V.V.V.V.V.V.V.V.V.V.V.: K 6.5.6.r.{ N Q t.hXMXMXMXBXBXBXBXMXMXMXBXBXY.t.t.y.s.Q L L W 7.8.8.,.P g V.V.V.V.V.V.V.V.V.V.V.V.",
"V.V.V.V.V.V.V.V.V.V.V.V.V.V.V.U 5.8.m.aX|.{ m.{.cXMXMXBXBXBXBXMXMXMXMXMXBXBXnXBXBXvXM.3.4.5.5.5.5.<.L 2 V.V.V.V.V.V.V.V.V.V.V.V.",
"V.V.V.V.V.V.V.V.V.V.V.V.V.V.V.K 5.2.1.{ h. Xb.M.zXNXNXtX3X3XlXBXMXMXBXBXBXBXnX3XrX;Xr.W 1.5.<.,.,.1.W V.V.V.V.V.V.V.V.V.V.V.V.V.",
"V.V.V.V.V.V.V.V.V.V.V.V.V.V.V.m Y 6.6.c g.vXI.F.OX2X@XF.g.d.<XBXBXBXBXMXBXBXxX XL.m.e.3.,.,.,.I J Y V.V.V.V.V.V.V.V.V.V.V.V.V.V.",
"V.V.V.V.V.V.V.V.V.V.V.V.V.V.V.V.j v.C.L g.NXnXrXw.^ { {.rXtXnXBXBXBXBXBXMXBXBXvX|.0.}.C.I I I J k V.V.V.V.V.V.V.V.V.V.V.V.V.V.V.",
"V.V.V.V.V.V.V.V.V.V.V.V.V.V.V.V.V.! i.w.I.BXBXxX XI.L.rXxXBXBXBXBXBXMXBXBXBXBXBX<Xn.c.e.c J J c V.V.V.V.V.V.V.V.V.V.V.V.V.V.V.V.",
"V.V.V.V.V.V.V.V.V.V.V.V.V.V.V.V.V.* C {.2XnXMXBXBXiX@XxXBXBXMXBXBXMXMXMXMXMXMXBXiXOX0.v f c k V.V.V.V.V.V.V.V.V.V.V.V.V.V.V.V.V.",
"V.V.V.V.V.V.V.V.V.V.V.V.V.V.V.V.V.O F tXxXBXMXMXBXBXxXnXMXMXMXMXMXMXBXBXBXMXMXMXnXcXrXM.c f V.V.V.V.V.V.V.V.V.V.V.V.V.V.V.V.V.V.",
"V.V.V.V.V.V.V.V.V.V.V.V.V.V.V.V.V.o / hXBXBXBXBXMXBXBXBXMXMXMXMXBXBXBXBXMXMXBXBXBXBXcXL.j < V.V.V.V.V.V.V.V.V.V.V.V.V.V.V.V.V.V.",
"V.V.V.V.V.V.V.V.V.V.V.V.V.V.V.V.V.o F iXgXY.Y.T.gXBXBXBXBXBXBXBX2XJ.J.<XnXMXBXBXBXBXzXL.j V.V.V.V.V.V.V.V.V.V.V.V.V.V.V.V.V.V.V.",
"V.V.V.V.V.V.V.V.V.V.V.V.V.V.V.V.V.O F hXR.;   8 3XBXBXBXBXMXBXBXd.O O  .MXMXMXBXBXBXxXL.f V.V.V.V.V.V.V.V.V.V.V.V.V.V.V.V.V.V.V.",
"V.V.V.V.V.V.V.V.V.V.V.V.V.V.V.V.V.% F dXR.8 8 / 0XBXMXMXMXBXBXBXZ.+ > s.mXkXMXBXBXMXvXL.x V.V.V.V.V.V.V.V.V.V.V.V.V.V.V.V.V.V.V.",
"V.V.V.V.V.V.V.V.V.V.V.V.V.V.V.V.V.V.E iXnX3X2X3XmXBXMXMXBXBXBXNXy.O O t.0XjXMXMXBXBXbXP.n V.V.V.V.V.V.V.V.V.V.V.V.V.V.V.V.V.V.V.",
"V.V.V.V.V.V.V.V.V.V.V.V.V.V.V.V.V.V.F uXnXBXgXuXgXwX0X3X3X1XgXMXA.B V d.0XjXMXMXNXdX#Xn.V.V.V.V.V.V.V.V.V.V.V.V.V.V.V.V.V.V.V.V.",
"V.V.V.V.V.V.V.V.V.V.V.V.V.V.V.V.V.V.` gXMXkXJ.d.$.$.$.#.#. .).MXjXwX<X3X4XjXMXMXuX|.Q m V.V.V.V.V.V.V.V.V.V.V.V.V.V.V.V.V.V.V.V.",
"V.V.V.V.V.V.V.V.V.V.V.V.V.V.V.V.V.V.` hX0XY.R.R.)./.!.K././.K.J.3XMXjXjXjXmXMXBXiX}.W g V.V.V.V.V.V.V.V.V.V.V.V.V.V.V.V.V.V.V.V.",
"V.V.V.V.V.V.V.V.V.V.V.V.V.V.V.V.V.V.] 2X/.#.`.qXpXqX9XqXqXpXK.d.<XnXmXMXBXBXNXbXyX}.T 2 V.V.V.V.V.V.V.V.V.V.V.V.V.V.V.V.V.V.V.V.",
"V.V.V.V.V.V.V.V.V.V.V.V.V.V.V.V.V.V.Z D +.!.4X5X6X6X5X5X9XqX(.!.D.R.mXBXBXBXlXOXm.T x V.V.V.V.V.V.V.V.V.V.V.V.V.V.V.V.V.V.V.V.V.",
"V.V.V.V.V.V.V.V.V.V.V.V.V.V.V.V.V.V.V.6 H H.&X9X9XqXqXqX8X8X%X(.l.G.fXcXcXtX|.r.^ g V.V.V.V.V.V.V.V.V.V.V.V.V.V.V.V.V.V.V.V.V.V.",
"V.V.V.V.V.V.V.V.V.V.V.V.V.V.V.V.V.V.V.V.A B H.oX`.4X4X7X&XP.[.~.l.n.;X;X:XL.0.v l 2 V.V.V.V.V.V.V.V.V.V.V.V.V.V.V.V.V.V.V.V.V.V.",
"V.V.V.V.V.V.V.V.V.V.V.V.V.V.V.V.V.V.V.V.V.# y t d d d o.[ ~ T N n N T R Q M.[.M.n.b.N V.V.V.V.V.V.V.V.V.V.V.V.V.V.V.V.V.V.V.V.V.",
"V.V.V.V.V.V.V.V.V.V.V.V.V.V.V.V.V.V.V.V.V.# X 0 ;.:.;.-.%.~ U k 2 f f h f n.;XrXaX-XT 1 V.V.V.V.V.V.V.V.V.V.V.V.V.V.V.V.V.V.V.V.",
"V.V.V.V.V.V.V.V.V.V.V.V.V.V.V.V.V.V.V.V.V.7 K.'.>.>.=.*.-.! 7.m.v.v.c.L.XXiXvXvXdXOXT 2 V.V.V.V.V.V.V.V.V.V.V.V.V.V.V.V.V.V.V.V.",
"V.V.V.V.; * V.V.V.V.V.V.V.V.V.V.V.V.V.V.V.7 Y.'.>.>.*.&.@.H g..X{.}.{.2XBXBXNXBXhXXXw.T V.V.V.V.V.V.V.V.V.V.V.V.V.V.V.V.V.V.V.V.",
"V.V.1 1 S * * - @ @ @ % & = - X X X X # = O i O.-.&...q o.g.OXfXcXvXvXNXNXBXMXMXBXvXrXn.> V.V.V.V.V.V.V.V.V.V.V.V.V.V.V.V.V.V.V.",
"V.V.2 g S S S # # 6 S r y u i i t t u i p t ) _ d q X 9 y T q.s.2XNXBXtXI.uXMXMXBXBXrXn.3 % V.V.V.V.V.V.V.V.V.V.V.V.V.V.V.V.V.V.",
"V.V.2 h S S S & - S S S S ) o.d s X.s X.X.X._ i X       X : 1 5 J.uXiXI.{ @XBXMXBXNXyXn.j : V.V.V.V.V.V.V.V.% 2 j z 4 V.V.V.V.V.",
"V.V., h 2 1 - n S S S S S S _ a i u G ( X.d a S V V S S S S S S B B B z ; R.BXMXNXNXaXB.j g V.V.V.V.V.V.V.V.: P 4.N 3 6 V.V.V.V.",
"V.V.V.: , 2 3 & # & & & % & V A ! ^ T n u t S S / S S S S S S S 5 j N ] y.3XBXBX0X+XL.i.k g : V.V.V.V.V.V.V.f W 9.Y m 4 V.V.V.V.",
"V.V.V.V.V.V.V.V.V.V.V.V.V.V.# T e.c.0.b 1 & S S S S S S S S S S x L 3.|.nXBXBXnX$XN.~ N g g : V.V.V.V.V.V.V.k 1.x.2.P h V.V.V.V.",
"V.V.V.V.V.V.V.V.V.V.V.V.V.V.% T c.*X-XP.p.k 4 4 - - - # #   S X N W 3.{.BXBXlXR.G.+.+.G H e 1 : V.V.V.V.V.m W 7.u.9.3.k V.V.V.V.",
"V.V.V.V.V.V.V.V.V.V.V.V.V.V.V.C 0.].OXOXm.M m 1 # - S - = y 5 7 Z W 1.].sXcXrXG.p.H o.o.o.p e 1 # V.V.V.2 M 7.e.9.u.2.l V.V.V.V.",
"V.V.V.V.V.V.V.V.V.V.V.V.V.V.V.V.> j 6 n N M g % S S S X B ).oX!.! l ^ x.M.n.v.R C 4 G o.X.s G w & V.V.V.j J 7.9.u.u.2.m V.V.V.V.",
"V.V.V.V.V.V.V.V.V.V.V.V.V.V.V.V.V.V.V.% f f : S S S S   B 7XqX$X@.! T ^ ^ ^ { g.0.C Z G X.X.o.w # V.V.V.2 J 2.6.u.7.2.l V.V.V.V.",
"V.V.V.V.V.V.V.V.V.V.V.V.V.V.V.V.V.V.V.V.V.. S S S S S X y 0XqX5X_.j.b 2 4 1 ] dX2XF.Z r G s s w # V.V.V.V.c J 1.u.2.P l V.V.V.V.",
"V.V.V.V.V.V.V.V.V.V.V.V.V.V.V.V.V.V.V.V.O S S S S S 5 f.K.qXqX5X`.E.+.~ S Z.oXNXNXhX@XS.u r r 4 V.V.V.V.V.l c M Y N b V.V.V.V.V.",
"V.V.V.V.V.V.V.V.V.V.V.V.V.V.V.V.V.V.V.O > S S S S y u H.8X9X6X6X_.W.j.p.#.3XBXBXvXhXlXoXV z : V.V.V.V.V.V.z v N x 1 V.V.V.V.V.V.",
"V.V.V.V.V.V.V.V.V.V.V.V.V.V.V.V.V.V.@ z z , S S X [ $Xk.k.&X9X6X_.W.j./.hXkXBXBXXX{ Q g.yXZ.% O @ % O O . y @Xf., V.V.V.V.V.V.V.",
"V.V.V.V.V.V.V.V.V.V.V.V.V.V.V.V.V.V.6 w.` * B S ) D.9XQ.Q.~.%X5X_.E.@.U.BXMXMXBXOXW W b.vXJ.* E { | { { ! | .X| V.V.V.V.V.V.V.V.",
"V.V.V.V.V.V.V.V.V.V.V.V.V.V.V.V.V.* E yXJ.O . y _.&X9X8X+Xp.Q.9X_.j.} I.NXMXBXNX XQ W b.fXG.z T.sXiXsXyXyXXXB 5 V.V.V.V.V.V.V.V.",
"V.V.V.V.V.V.V.V.V.V.V.V.V.V.V.V.V.> E iX2Xd.| #.`.5X`.W.H.+X&X5X_.z.} U.BXBXBXBXhX2X2XeXyXn.3 C F F F F D D 7 V.V.V.V.V.V.V.V.V.",
"V.V.V.V.V.V.V.V.V.V.V.V.V.V.V.V.V.2 E iXfX;X[.P.(.%X`.D.H.&X8X5X_.E.@.{.lXnXBXBXBXBXNXzX+Xg.> % @ o . o o V.V.V.V.V.V.V.V.V.V.V.",
"V.V.V.V.V.V.V.V.V.V.V.V.V.V.V.V.V.1 ! ;XaX:X=X}.b.z.^.%X%Xk.Q.`.^.^.Q.z.n.tXBXBXBXMXBX@XE x % V.V.V.V.V.V.V.V.V.V.V.V.V.V.V.V.V.",
"V.V.V.V.V.V.V.V.V.V.V.V.V.V.V.V.V.2 T =X>X:X:X=X[.a.+.p.p.~ ~ @.@.@.p.} D oXBXBXBXnXnX{.j < = V.V.V.V.V.V.V.V.V.V.V.V.V.V.V.V.V.",
"V.V.V.V.V.V.V.V.V.V.V.V.V.V.V.V.V.1 W =X>X:X:X:X.Xq.1 1 4 2 3 e e e m 4 - K.vXNXNXNXiXG.v h 2 V.V.V.V.V.V.V.V.V.V.V.V.V.V.V.V.V.",
"V.V.V.V.V.V.V.V.V.V.V.V.V.V.V.V.2 K i.-X,X>X>X*X^ j : V.V.V.V.V.V.V.V.V.- Z s.;XeX;X#XOX{.a.3 V.V.V.V.V.V.V.V.V.V.V.V.V.V.V.V.V.",
"V.V.V.V.V.V.V.V.V.V.V.V.V.V.V.V.g K x.-X:X:X-X[.b V.V.V.V.V.V.V.V.V.V.V.V.% W {.XXyXyX;XaXB.j V.V.V.V.V.V.V.V.V.V.V.V.V.V.V.V.V.",
"V.V.V.V.V.V.V.V.V.V.V.V.V.V.V.V.2 m J 7.i.4.T Z V.V.V.V.V.V.V.V.V.V.V.V.V.V.b n f.bXbXfXyXB.h V.V.V.V.V.V.V.V.V.V.V.V.V.V.V.V.V.",
"V.V.V.V.V.V.V.V.V.V.V.V.V.V.V.V.V.V.m P P N 2 V.V.V.V.V.V.V.V.V.V.V.V.V.V.V.V.* F h.G.N.M.q.j V.V.V.V.V.V.V.V.V.V.V.V.V.V.V.V.V.",
"V.V.V.V.V.V.V.V.V.V.V.V.V.V.V.V.V.V.V.V.h V.V.V.V.V.V.V.V.V.V.V.V.V.V.V.V.V.V.V.> < x N N b 3 V.V.V.V.V.V.V.V.V.V.V.V.V.V.V.V.V.",
"V.V.V.V.V.V.V.V.V.V.V.V.V.V.V.V.V.V.V.V.V.V.V.V.V.V.V.V.V.V.V.V.V.V.V.V.V.V.V.V.V.V.V.V.V.V.V.V.V.V.V.V.V.V.V.V.V.V.V.V.V.V.V.V.",
"V.V.V.V.V.V.V.V.V.V.V.V.V.V.V.V.V.V.V.V.V.V.V.V.V.V.V.V.V.V.V.V.V.V.V.V.V.V.V.V.V.V.V.V.V.V.V.V.V.V.V.V.V.V.V.V.V.V.V.V.V.V.V.V.",
"V.V.V.V.V.V.V.V.V.V.V.V.V.V.V.V.V.V.V.V.V.V.V.V.V.V.V.V.V.V.V.V.V.V.V.V.V.V.V.V.V.V.V.V.V.V.V.V.V.V.V.V.V.V.V.V.V.V.V.V.V.V.V.V.",
"V.V.V.V.V.V.V.V.V.V.V.V.V.V.V.V.V.V.V.V.V.V.V.V.V.V.V.V.V.V.V.V.V.V.V.V.V.V.V.V.V.V.V.V.V.V.V.V.V.V.V.V.V.V.V.V.V.V.V.V.V.V.V.V.",
"V.V.V.V.V.V.V.V.V.V.V.V.V.V.V.V.V.V.V.V.V.V.V.V.V.V.V.V.V.V.V.V.V.V.V.V.V.V.V.V.V.V.V.V.V.V.V.V.V.V.V.V.V.V.V.V.V.V.V.V.V.V.V.V.",
"V.V.V.V.V.V.V.V.V.V.V.V.V.V.V.V.V.V.V.V.V.V.V.V.V.V.V.V.V.V.V.V.V.V.V.V.V.V.V.V.V.V.V.V.V.V.V.V.V.V.V.V.V.V.V.V.V.V.V.V.V.V.V.V."
};
