/* XPM */
static char *left_hero_walk2[] = {
/* columns rows colors chars-per-pixel */
"64 64 195 2 ",
"   c None",
".  c #291C17",
"X  c #2C1C1B",
"o  c #2B161C",
"O  c #301A12",
"+  c #311F18",
"@  c #31210E",
"#  c #2E2112",
"$  c #2E2118",
"%  c #30211D",
"&  c #3D2F1C",
"*  c #36231A",
"=  c #3F3116",
"-  c #221422",
";  c #2C1C24",
":  c #23152B",
">  c #27192A",
",  c #2C1C2C",
"<  c #281726",
"1  c #311C22",
"2  c #311C2C",
"3  c #2D1C34",
"4  c #2E1B38",
"5  c #321D34",
"6  c #331C3C",
"7  c #2F2124",
"8  c #2E212A",
"9  c #342324",
"0  c #3D2C23",
"q  c #33232C",
"w  c #3A2B2B",
"e  c #38252A",
"r  c #3F3028",
"t  c #2E2033",
"y  c #362334",
"u  c #3B2432",
"i  c #392930",
"p  c #35223A",
"a  c #3B263D",
"s  c #3A293B",
"d  c #3D3135",
"f  c #423209",
"g  c #4A361A",
"h  c #432D2B",
"j  c #45332B",
"k  c #4B3728",
"l  c #523E2D",
"z  c #402935",
"x  c #4E3C34",
"c  c #4A353C",
"v  c #4C3A3B",
"b  c #453536",
"n  c #513D33",
"m  c #554617",
"M  c #56422B",
"N  c #4F4039",
"B  c #534433",
"V  c #52423A",
"C  c #584838",
"Z  c #604B36",
"A  c #695F3F",
"S  c #715D3B",
"D  c #685526",
"F  c #6C603F",
"G  c #78683C",
"H  c #341C41",
"J  c #381E40",
"K  c #3B2542",
"L  c #3D2B43",
"P  c #3F3142",
"I  c #422941",
"U  c #442E4A",
"Y  c #48314A",
"T  c #463546",
"R  c #553D45",
"E  c #483054",
"W  c #57474A",
"Q  c #5D4D5C",
"!  c #644E4A",
"~  c #6D5B4C",
"^  c #6A5A46",
"/  c #6A5552",
"(  c #645353",
")  c #6E6140",
"_  c #756643",
"`  c #766944",
"'  c #76694A",
"]  c #78624F",
"[  c #6D6157",
"{  c #7B6B54",
"}  c #786959",
"|  c #675668",
" . c #786275",
".. c #867839",
"X. c #8A7A44",
"o. c #877456",
"O. c #877262",
"+. c #8C7C6D",
"@. c #8F7761",
"#. c #806976",
"$. c #948742",
"%. c #8E815D",
"&. c #918354",
"*. c #92835C",
"=. c #A99B51",
"-. c #B3A75B",
";. c #938464",
":. c #988764",
">. c #94846C",
",. c #9A866D",
"<. c #9F8E6E",
"1. c #9D946B",
"2. c #938373",
"3. c #9C8A75",
"4. c #9F9378",
"5. c #A2956A",
"6. c #A9976A",
"7. c #A39372",
"8. c #AA9A7D",
"9. c #AEA36D",
"0. c #B9A169",
"q. c #B6A37B",
"w. c #C5AB67",
"e. c #C7B56A",
"r. c #D6BF6F",
"t. c #C0AE7F",
"y. c #CFB371",
"u. c #C9BA73",
"i. c #D3BA72",
"p. c #CDC16A",
"a. c #DCC375",
"s. c #E7DB7D",
"d. c #E2D77F",
"f. c #FBEF7E",
"g. c #F6ED7F",
"h. c #F9F17D",
"j. c #9B8483",
"k. c #B8AC93",
"l. c #C8B687",
"z. c #C1AE98",
"x. c #C8B795",
"c. c #CFC48D",
"v. c #DDCC8D",
"b. c #D5C08B",
"n. c #DFD684",
"m. c #DBD48D",
"M. c #CCC19B",
"N. c #DDCB91",
"B. c #D1C499",
"V. c #DACA9C",
"C. c #DBD199",
"Z. c #E3D58D",
"A. c #E2DB8C",
"S. c #EAD986",
"D. c #F1DD86",
"F. c #E4D495",
"G. c #E4DA93",
"H. c #E2D39B",
"J. c #ECD693",
"K. c #F5DE92",
"L. c #EDE48D",
"P. c #F4E484",
"I. c #F6EF84",
"U. c #F9EE84",
"Y. c #F4E38C",
"T. c #F8E489",
"R. c #F6ED8C",
"E. c #FAED8A",
"W. c #F6F184",
"Q. c #F9F183",
"!. c #F5F08A",
"~. c #FAF18B",
"^. c #EEE49B",
"/. c #F6E193",
"(. c #F5EC93",
"). c #FAED92",
"_. c #F2E69D",
"`. c #F5EA9B",
"'. c #FAEC9C",
"]. c #F9E79E",
"[. c #FAF293",
"{. c #F6F09A",
"}. c #FBF299",
"|. c #F6F092",
" X c #DDCAA2",
".X c #DDD2A7",
"XX c #E6D4A7",
"oX c #F2E5A4",
"OX c #F5EBA3",
"+X c #FBEAA3",
"@X c #F5ECAB",
"#X c #FBEAA8",
"$X c #F2E7AA",
"%X c #EEE6B3",
"&X c #F5E8B3",
/* pixels */
"                                                                                                                                ",
"                                                                                                                                ",
"                                                                                                                                ",
"                                                                                                                                ",
"                                                                                                                                ",
"                                                                                                                                ",
"                                                                                                                                ",
"                                                                                                                                ",
"                                                                                                                                ",
"                                                                                                                                ",
"                                                                                                                                ",
"                                                                                                                                ",
"                                                                                                                                ",
"                                                                                                                                ",
"                                                                                                                                ",
"                                                            ; 1 q 2 2 <                                                         ",
"                                                          V n l l l n v                                                         ",
"                                                      - ; O.B.v.v.N.V.z.v ;                                                     ",
"                                                      , 1 :.oX'.).'.#X Xl X i                                                   ",
"                                                    Y u k 6.].).P.D./.N.S B W                                                   ",
"                                                  s z R @.b.+X/.r.e.y.J.N.l.~ 9                                                 ",
"                                                c e h Z 6.F.].K.y.w.w.S.+XH.' % 8                                               ",
"                                              W / ~ S X.e.D.).K.y.0.w.S.'.G._ X >                                               ",
"                                            q c +.XXF.Z.Y.E.E.T.a.i.r.D.R.Z._ 1 >                                               ",
"                                            q v 3.&X`.'.E.f.f.U.T.T.T.E.R.Z._ ; :                                               ",
"                                            y b ,.#X).).~.h.h.f.E.E.U.E.E.Z.) X >                                               ",
"                                            q j :.`.E.E.E.Q.h.Q.U.U.U.U.R.m.F . ;                                               ",
"                                          Q q j :.`.~.!.!.Q.Q.I.E.Q.Q.Q.R.m.F . ;                                               ",
"                                          Q i j *.`.!.!.!.Q.Q.Q.E.I.Q.Q.(.m.A X , P                                             ",
"                                        3 q 9 & &.`.R.R.~.Q.I.~.E.E.U.W.R.m.^ ; 3 3 ,                                           ",
"                                        > ; % = &.`.L.A.A.R.~.~.E.E.U.h.E.n.F ; 4 3 >                                           ",
"                                        > 8 V ` 9.`.u.X.G e.R.~.E.E.h.h.W.n.F 1 6 U s                                           ",
"                                        , w 4.&XOX'.-.m f =.R.Q.Q.E.Q.Q.!.A._ 9 y  .                                            ",
"                                        , r 5.oX}.).p.$...e.R.I.Q.!.I.~.!.A.' 9 y |                                             ",
"                                        ; 0 5.`.[.E.P.s.d.Y.[.Q.Q.W.W.Q.!.A.' q p T P                                           ",
"                                        ; & 5.OX[.~.I.I.R.).).~.E.~.W.W.!.G.{ q 6 3 ,                                           ",
"                                        < 0 1.OX{.|.[.[.).}.}.[.[.[.[.[.{.F.{ q 5 t                                             ",
"                                        - w 4.%X$X^._.^.^._._.^._._.oXOX$X.X} q ,                                               ",
"                                          d [ >.>.;.;.;.;.%.%.*.*.;.;.>.2.2.( e                                                 ",
"                                            9 X X 1 9 % $ # # @ @ @ * + e w T                                                   ",
"                                              ; , 2 5 2 7 j V B B B C N e q d                                                   ",
"                                                p 5 5 2 w +.M.B.c.c.B.k.b ; 8                                                   ",
"                                                s 3 5 y w 8.&X@X{.(.OX.Xx 9 q                                                   ",
"                                                s 5 5 y w 7.@X`.I.!.'.V.V q q                                                   ",
"                                                L p 5 5 h <.oX`.~.g.).C.B e e                                                   ",
"                                              L K 6 a R ! o.9.w.s.E.E.G.o.~ v                                                   ",
"                                            : 4 p 6 Y #.j.] g D u.(.).'.H.x.~ 9 8                                               ",
"                                            : 4 6 H U  .j./ O k q.F._.'.#XXX{ e ,                                               ",
"                                            > 3 4 6 J I c u 1 * M G l._.v.t.~ e ,                                               ",
"                                            , 3 6 6 6 5 5 2 2 1 O g q.XXl.7./ ; >                                               ",
"                                            > p a 6 J J 6 K I u 9 l >.8.,.O.! 2                                                 ",
"                                                Y 5 6 6 H E         x j h 0                                                     ",
"                                                  5 3 4 6               o                                                       ",
"                                                                                                                                ",
"                                                                                                                                ",
"                                                                                                                                ",
"                                                                                                                                ",
"                                                                                                                                ",
"                                                                                                                                ",
"                                                                                                                                ",
"                                                                                                                                ",
"                                                                                                                                ",
"                                                                                                                                ",
"                                                                                                                                "
};
