/* XPM */
static char *left3_milka[] = {
/* columns rows colors chars-per-pixel */
"64 64 233 2 ",
"   c black",
".  c #160916",
"X  c #15011A",
"o  c #23011D",
"O  c #2A091D",
"+  c #39111E",
"@  c #1E0322",
"#  c #240324",
"$  c #270827",
"%  c #25042C",
"&  c #2B052B",
"*  c #370A29",
"=  c #2B172D",
"-  c #391627",
";  c #2A0634",
":  c #2C033B",
">  c #330635",
",  c #3A0937",
"<  c #33043D",
"1  c #320B3E",
"2  c #2B1731",
"3  c #371737",
"4  c #3C203B",
"5  c #491232",
"6  c #441837",
"7  c #522C39",
"8  c #6A383B",
"9  c #733B32",
"0  c #7B493C",
"q  c #2D0341",
"w  c #350542",
"e  c #370647",
"r  c #330A44",
"t  c #3A0A44",
"y  c #3C064B",
"u  c #3B0B4B",
"i  c #3B1547",
"p  c #3C0C52",
"a  c #3E0856",
"s  c #3C2549",
"d  c #430649",
"f  c #45174A",
"g  c #541545",
"h  c #430855",
"j  c #430D5A",
"k  c #441355",
"l  c #471956",
"z  c #45125A",
"x  c #4B1C5C",
"c  c #611E46",
"v  c #442549",
"b  c #49234D",
"n  c #552A4A",
"m  c #55314B",
"M  c #482456",
"N  c #562855",
"B  c #543359",
"V  c #6E344D",
"C  c #763749",
"Z  c #4A0E66",
"A  c #4B1766",
"S  c #4D1B63",
"D  c #521967",
"F  c #521B6B",
"G  c #551971",
"H  c #5A1A78",
"J  c #4D2363",
"K  c #4F2866",
"L  c #562966",
"P  c #5B3364",
"I  c #593468",
"U  c #5A2972",
"Y  c #5B3474",
"T  c #652D6A",
"R  c #66366A",
"E  c #6D2C7A",
"W  c #663877",
"Q  c #5A4555",
"!  c #774648",
"~  c #654958",
"^  c #7A475A",
"/  c #7A595C",
"(  c #5A4462",
")  c #68476A",
"_  c #74456A",
"`  c #65526B",
"'  c #745F66",
"]  c #7B5268",
"[  c #6A4677",
"{  c #764778",
"}  c #7A597A",
"|  c #7C6A77",
" . c #7C737C",
".. c #844939",
"X. c #8A5A38",
"o. c #8F6337",
"O. c #863D72",
"+. c #854644",
"@. c #8C4F5F",
"#. c #926D4B",
"$. c #A66D5D",
"%. c #845173",
"&. c #986A7A",
"*. c #B08530",
"=. c #D1AD3C",
"-. c #ECCE3F",
";. c #C8B47A",
":. c #DDC05A",
">. c #F4D662",
",. c #631E82",
"<. c #5D2386",
"1. c #662787",
"2. c #6A3787",
"3. c #73378A",
"4. c #6B2895",
"5. c #752E99",
"6. c #773897",
"7. c #7933A2",
"8. c #6C4985",
"9. c #74478C",
"0. c #785884",
"q. c #7A4696",
"w. c #7C5293",
"e. c #7C6384",
"r. c #7D7481",
"t. c #7A44AB",
"y. c #803F9F",
"u. c #813AA3",
"i. c #874E87",
"p. c #865996",
"a. c #93688F",
"s. c #8A7688",
"d. c #8B6898",
"f. c #957497",
"g. c #AC7190",
"h. c #8342A4",
"j. c #8543AB",
"k. c #8B56A5",
"l. c #8C4EB1",
"z. c #9466A9",
"x. c #9C77A8",
"c. c #9A69B5",
"v. c #9C71B2",
"b. c #AD75AD",
"n. c #A47AB5",
"m. c magenta",
"M. c #AE78C9",
"N. c #8F8591",
"B. c #998996",
"V. c #989798",
"C. c #A88598",
"Z. c #B38990",
"A. c #9D85A3",
"S. c #9D92A4",
"D. c #A588A7",
"F. c #AA9CA6",
"G. c #B899A7",
"H. c #AB89B8",
"J. c #B88CBE",
"K. c #AD97B3",
"L. c #B797BA",
"P. c #BBA7B9",
"I. c #D3808E",
"U. c #CE8893",
"Y. c #E9A39F",
"T. c #CD96AE",
"R. c #D1ACB8",
"E. c #EDACB1",
"W. c #E8A7B8",
"Q. c #FCEDB7",
"!. c #AE87C1",
"~. c #B58AC6",
"^. c #B998C5",
"/. c #BE87D3",
"(. c #BC94D7",
"). c #BEB1C3",
"_. c #C39BC8",
"`. c #C499D6",
"'. c #C59BDB",
"]. c #E499CB",
"[. c #C3AACC",
"{. c #D9A9C3",
"}. c #C8B3CA",
"|. c #D7B4C5",
" X c #C7A6D4",
".X c #CEB8D7",
"XX c #D4B8D5",
"oX c #E9A6C5",
"OX c #E7B9CA",
"+X c #F2BCD3",
"@X c #C79AE3",
"#X c #D39AE8",
"$X c #D3A5EE",
"%X c #D4AAEA",
"&X c #D9B9E7",
"*X c #DBBBF3",
"=X c #E3BBF9",
"-X c #CCC6CA",
";X c #D5CACE",
":X c #D5C1DA",
">X c #D7C7DA",
",X c #DCD7DA",
"<X c #F8C6CB",
"1X c #FACBCC",
"2X c #E6C3D4",
"3X c #F9C9D6",
"4X c #EADAD7",
"5X c #FAD2D8",
"6X c #E3E0DA",
"7X c #DCC3E4",
"8X c #DBC8E5",
"9X c #E1C9E7",
"0X c #F1CEE4",
"qX c #E7D8E7",
"wX c #E6D3ED",
"eX c #E9DAEB",
"rX c #FCD7E2",
"tX c #E8C7F3",
"yX c #EDDBF1",
"uX c #F5DDF8",
"iX c #ECE5EB",
"pX c #EEE9EE",
"aX c #F1E7EF",
"sX c #F3E4F5",
"dX c #F3EBF3",
"fX c #F7E8F9",
"gX c #FAEDFB",
"hX c #F5F2F5",
"jX c #FAF5F4",
"kX c #FCFEF5",
"lX c #F6F1F9",
"zX c #FBF4FC",
"xX c #FEFDFB",
/* pixels */
"m.m.m.m.m.m.m.m.m.m.m.m.m.m.m.m.m.m.m.m.m.m.m.m.m.m.m.m.m.m.m.m.m.m.m.m.m.m.m.m.m.m.m.m.m.m.m.m.m.m.m.m.m.m.m.m.m.m.m.m.m.m.m.m.",
"m.m.m.m.m.m.m.m.m.m.m.m.m.m.m.m.m.m.m.m.m.m.m.m.m.m.m.m.m.m.m.m.m.m.m.m.m.m.m.m.m.m.m.m.m.m.m.m.m.m.m.m.m.m.m.m.m.m.m.m.m.m.m.m.",
"m.m.m.m.m.m.m.m.m.m.m.m.m.m.m.m.m.m.m.m.m.m.m.m.m.m.m.m.m.m.m.m.m.m.m.m.m.m.m.m.m.m.m.m.m.m.m.m.m.m.m.m.m.m.m.m.m.m.m.m.m.m.m.m.",
"m.m.m.m.m.m.m.m.m.m.m.m.m.m.m.m.m.m.m.m.m.m.m.m.m.m.m.m.m.m.m.m.m.m.m.m.m.m.m.m.m.m.m.m.m.m.m.m.m.m.m.m.m.m.m.m.m.m.m.m.m.m.m.m.",
"m.m.m.m.m.m.m.m.m.m.m.m.m.m.m.m.m.m.m.m.m.m.m.m.m.m.X X X X X X X X X X m.m.m.m.m.m.m.m.m.m.m.m.m.< m.m.m.m.m.m.m.m.m.m.m.m.m.m.",
"m.m.m.m.m.m.m.m.m.m.m.m.m.m.m.m.m.m.m.m.m.m.m.m.m.m.; e.:XN. .r. . . .` = . m.m.m.m.m.m.m.m.m.m.U D r m.m.m.m.m.m.m.m.m.m.m.m.m.",
"m.m.m.m.m.m.m.m.m.m.m.m.m.m.m.m.m.1 p m.m.m.m.m.m.s s N.zXxXkXxXxXxXkXB.2 2 = $ m.m.m.m.m.m.m.h 3.2.r m.m.m.m.m.m.m.m.m.m.m.m.m.",
"m.m.m.m.m.m.m.m.m.m.m.m.m.m.m.m.m.p 1.K % @ @ % 1 [ -XqXxXkXkXxXxXxXkX6X-X:Xs.$ % @ @ % : q D 5.7.3.r m.m.m.m.m.m.m.m.m.m.m.m.m.",
"m.m.m.m.m.m.m.m.m.m.m.m.m.m.m.m.m.p 6.<.s Y I p K d.fXxXkXkXxXxXxXxXkXkXxXxX).( ( Q ( K h Z H u.u.3.r m.m.m.m.m.m.m.m.m.m.m.m.m.",
"m.m.m.m.m.m.m.m.m.m.m.m.m.m.m.m.m.p 7.t.c.8X(.2.c.`.lXkXkXkXxXxXxXkXkXkXkXxXhXhXhXhXfX^.y.5.u.u.j.6.u m.m.m.m.m.m.m.m.m.m.m.m.m.",
"m.m.m.m.m.m.m.m.m.m.m.m.m.m.m.m.m.p 4.7.t.c.!.n.c.H.zXxXzXiXqXqXhXkXkXxXkXkXxXxXdXqX.Xn.1.u.7.7.1.G m.m.m.m.m.m.m.m.m.m.m.m.m.m.",
"m.m.m.m.m.m.m.m.m.m.m.m.m.m.m.m.m.r H <.4.<.v.sXL.d.8XeX8XA.f.A.>XxXxXxXkXkXkXxXqX).p.6.4.4.,.4.Z y m.m.m.m.m.m.m.m.m.m.m.m.m.m.",
"m.m.m.m.m.m.m.m.m.m.m.m.m.m.m.m.m.m.q A 4.1.n.gXsX).) Y [ x.).wXjXxXxXxXkXxXxXxXjXyX!.M.`.H a a y m.m.m.m.m.m.m.m.m.m.m.m.m.m.m.",
"m.m.m.m.m.m.m.m.m.m.m.m.m.m.m.m.m.m.m.S <.t.^.zXxXeXA.f.f.[.eXxXxXxXxXxXkXxXxXxXkXdX~.c.k.j w m.m.m.m.m.m.m.m.m.m.m.m.m.m.m.m.m.",
"m.m.m.m.m.m.m.m.m.m.m.m.m.m.m.m.m.m.m.i Z v.:XxXkXxXxXeX.XdXkXkXkXkXxXxXxXxXxXxXkXpXH.9.h y e m.m.m.m.m.m.m.m.m.m.m.m.m.m.m.m.m.",
"m.m.m.m.m.m.m.m.m.m.m.m.m.m.m.m.m.m.m.r p [.lXkXkXxXxXlXpXjXkXkXkXkXkXxXxXxXxXkXkXjXyX.Xv.x r m.m.m.m.m.m.m.m.m.m.m.m.m.m.m.m.m.",
"m.m.m.m.m.m.m.m.m.m.m.m.m.m.m.m.m.m.m.1 f XXxXkXkXkXkXkXxXxXkXkXkXkXxXxXxXxXxXkXkXkXxXwX~.S w m.m.m.m.m.m.m.m.m.m.m.m.m.m.m.m.m.",
"m.m.m.m.m.m.m.m.m.m.m.m.m.m.m.m.m.m.m.r f .X;XV.;XkXkXkXkXkXxXxXxXpXF.S.K.iXxXkXkXxXxXwX~.A : m.m.m.m.m.m.m.m.m.m.m.m.m.m.m.m.m.",
"m.m.m.m.m.m.m.m.m.m.m.m.m.m.m.m.m.m.m.: s >XV.. N.kXxXxXxXxXxXxXxX;X= % s ;XxXxXkXkXxXwX~.S m.m.m.m.m.m.m.m.m.m.m.m.m.m.m.m.m.m.",
"m.m.m.m.m.m.m.m.m.m.m.m.m.m.m.m.m.m.m.m.x >XV.. B.xXxXxXxXxXxXxXxX-X2 r l }.jXkXkXxXxXyX~.x m.m.m.m.m.m.m.m.m.m.m.m.m.m.m.m.m.m.",
"m.m.m.m.m.m.m.m.m.m.m.m.m.m.m.m.m.m.m.m.l 7XV.. V.xXxXxXkXkXxXkXxX-X= % i G.iXjXxXxXxXuX`.L m.m.m.m.m.m.m.m.m.m.m.m.m.m.m.m.m.m.",
"m.m.m.m.m.m.m.m.m.m.m.m.m.m.m.m.m.m.m.m.l :X-Xs.P.-X-X-X-XR.,XkXxX6Xr.e.&.R.4XkXxXjXwX[.v.K m.m.m.m.m.m.m.m.m.m.m.m.m.m.m.m.m.m.",
"m.m.m.m.m.m.m.m.m.m.m.m.m.m.m.m.m.m.m.m.f :XhXdXP.s.s.s.| | F.iXzXhXhXpX4X4X4XjXzXsX Xp.y m.m.m.m.m.m.m.m.m.m.m.m.m.m.m.m.m.m.m.",
"m.m.m.m.m.m.m.m.m.m.m.m.m.m.m.m.m.m.m.m.b >X,XF.|.2X;XOX|.R.G.N.-XxXxXkXjXjXjXzXwX&X@Xk.y m.m.m.m.m.m.m.m.m.m.m.m.m.m.m.m.m.m.m.",
"m.m.m.m.m.m.m.m.m.m.m.m.m.m.m.m.m.m.m.m.m.K.P.F.OXrX5X1X1X<XR.Z.P.,XzXxXxXxXzXuX(.!.M.9.m.m.m.m.m.m.m.m.m.m.m.m.m.m.m.m.m.m.m.m.",
"m.m.m.m.m.m.m.m.m.m.m.m.m.m.m.m.m.m.m.m.m.4 } XX2X3X1X1X+X<X3X0XS.N.zXzXzXzXwX Xw.F a r m.m.m.m.m.m.m.m.m.m.m.m.m.m.m.m.m.m.m.m.",
"m.m.m.m.m.m.m.m.m.m.m.m.m.m.m.m.m.m.m.m.m.m.m ) T.3X1X3X3XoX+XuXL.B.fXfXuXL.d.L k w : 1 m.m.m.m.m.m.m.m.m.m.m.m.m.m.m.m.m.m.m.m.",
"m.m.m.m.m.m.m.m.m.m.m.m.m.m.m.m.m.m.m.m.m.m.m.O %.Z.Z.Z.Z.g.b._.d.[ ^._.~.9.U F F J J x m.m.m.m.m.m.m.m.m.m.m.m.m.m.m.m.m.m.m.m.",
"m.m.m.m.m.m.m.m.m.m.m.m.m.m.m.m.m.m.m.m.m.m.m.m.- - #.*.#./ V r : q r r p z q.'.`.`.'.p.< m.m.m.m.m.m.m.m.m.m.m.m.m.m.m.m.m.m.m.",
"m.m.m.m.m.m.m.m.m.m.m.m.m.m.m.m.m.m.m.m.m.m.m.m.Q #.>.-.=.#._ R L U U Y W 0.L.wXwXtX%Xz.r m.m.m.m.m.m.m.m.m.m.m.m.m.m.m.m.m.m.m.",
"m.m.m.m.m.$ o m.m.m.m.m.m.m.m.m.m.m.m.m.m.m.m.@ F.Q.>.-.=.o.&.J.~.~./.~.^.uXxXxXxXlX&Xd.t m.m.m.m.m.m.m.m.m.m.m.m.m.m.m.m.m.m.m.",
"m.m.m.m.2 M v @           % & & $ # @ @ o o # # / ;.:.=.*.X.&._.&X8X7X8X8XgXxXxXxXjXsX Xd.l m.m.m.m.m.m.m.m.m.m.m.m.m.m.m.m.m.m.",
"m.m.m.m.< I I & & & & 2 & & & & 5 * - O + + - - 7 #.#.o.0 V ] A.}.8XzXxXzXeXiXxXzXxXxXuX`.M m.m.m.m.m.m.m.m.m.m.m.m.m.m.m.m.m.m.",
"m.m.m.m.r U W L l > > ' ' ' ' ' C ! 9 0 ..0 0 ! 7 - + O O * : r v ` gXxXsXK.P.gXxXkXxXeX XD < m.m.m.m.m.m.m.m.% m.m.m.m.m.m.m.m.",
"m.m.m.m.: k x z u t ' ' ' ' ' ' ^ ^ 7 9 ....0 0 ] ` Q Q - ' m B b B | } } B d.lXxXkXxXtX!.D < m.m.m.m.m.m.m.f J t m.m.m.m.m.m.m.",
"m.m.m.m.; > w r w u ' ' 6 6 s b R R f n V 8 8 8 ~ ' ' ' ' ' ' ' ' ' > f v m s.lXaXqX9X^.3.h , m.m.m.m.m.m.m.z 3.A e m.m.m.m.m.m.",
"m.m.m.m.m.m.m.m.m., , $ $ O $ ; J 2.8.J 1 , > $ - ' ' ' ' ' ' ' ' ' u d.&XqXpXlX9X^.p.W h d < m.m.m.m.m.m.: Z 6.6.2.i m.m.m.m.m.",
"m.m.m.m.m.m.m.m.m.m.m.m.m.m.@ % 0. X XH.p.M I f.~ # & # O o ' ' ' ' K v.uXzXlXyX~.i.{ C c c 5 5 m.m.m.m.e A E h.h.6.j m.m.m.m.m.",
"m.m.m.m.m.m.m.m.m.m.m.m.m.m.m.% x.tXtXtX%X2.p.wXa.# ' O o O * ' ' K ( H.yXlXeX Xk.g +...+.+.V 5 & m.m.m.y 1.u.j.h.6.h m.m.m.m.m.",
"m.m.m.m.m.m.m.m.m.m.m.m.m.m.m.m.b B P P T z x B / ' ' ' * f.P.f.g 1 <.9.d.K.v.9.z 5 C ......+.@.5 m.m.> a 1.5.j.j.6.h m.m.m.m.m.",
"m.m.m.m.m.m.m.m.m.m.m.m.m.m.m.m.m.m.@ % > t < % ' ' ' ' 3 R.4XT.%.N M L L 9.w.8.I b m V 9 ....@.6 # m.> p H 5.j.j.6.u m.m.m.m.m.",
"m.m.m.m.m.m.m.m.m.m.m.m.m.m.m.m.m.m.m.m.m., > ' ' ' ' ' - R.1X+XW.Z.5 < y y 8.wX8XK.3 , g C +.+.6 % m.m.u a H l.6.G y m.m.m.m.m.",
"m.m.m.m.m.m.m.m.m.m.m.m.m.m.m.m.m.m.m.m.6 3 X ' ' ' ' } g.|.1X<XY.I.O.V R x.}.lXlX4XG.0.h c 7 5 m R m.m.i r p 1.G a m.m.m.m.m.m.",
"m.m.m.m.m.m.m.m.m.m.m.m.m.m.m.m.m.m.m.m.* X ' ' ' ' 6 C.rXrX5X1XY.I.g.a.f.eXxXxXdXuXuXH.L w * 3 ) } m.m.i M l i u ; m.m.m.m.m.m.",
"m.m.m.m.m.m.m.m.m.m.m.m.m.m.m.m.m.m.m.m.> ' ' ' ' 7 |.R.G.rXrX3XY.I.&.T.qXlXxXzXx.W 2.z.`.x Y .Xe.1 ; $ 3 L.K.; i m.m.m.m.m.m.m.",
"m.m.m.m.m.m.m.m.m.m.m.m.m.m.m.m.m.m.m.m.r N m X Q %.3XOX{.|.OX5XW.I.$.G.zXxXxXzXx.1.,.c.$XS [ tXH.[ [ [ [ x.d.; m.m.m.m.m.m.m.m.",
"m.m.m.m.m.m.m.m.m.m.m.m.m.m.m.m.m.m.m.m.d b.%.& a.1X1X1X+XC.G.3XW.U.@.F.zXkXkXzXA.U E c.#XF Y  X&X&X*X&X XB & m.m.m.m.m.m.m.m.m.",
"m.m.m.m.m.m.m.m.m.m.m.m.m.m.m.m.m.m.m.m.j b.n.P g.3X1XT.g.{.3X3XE.U.} F.xXkXkXxXeX7X&X&X XJ p L I P P P ) m.m.m.m.m.m.m.m.m.m.m.",
"m.m.m.m.m.m.m.m.m.m.m.m.m.m.m.m.m.m.m.m.z /.@Xk.b.W.+XT.g.].oX+XE.T.&.D.pXlXxXxXxXzXgX.X~.M : : : ; m.m.m.m.m.m.m.m.m.m.m.m.m.m.",
"m.m.m.m.m.m.m.m.m.m.m.m.m.m.m.m.m.m.m.m.z (.=X$Xz._ oXoX].b.b.W.W.W.W.T.K.iXxXxXxXfX7Xv.x m.m.m.m.m.m.m.m.m.m.m.m.m.m.m.m.m.m.m.",
"m.m.m.m.m.m.m.m.m.m.m.m.m.m.m.m.m.m.m.m.k p.(.*X@Xd._ %.%.T T E O.O.i.O.{ ,XxXxXsX8X&Xz.e m.m.m.m.m.m.m.m.m.m.m.m.m.m.m.m.m.m.m.",
"m.m.m.m.m.m.m.m.m.m.m.m.m.m.m.m.m.m.m.m.m.J k.@X$X~.l y y y , 5 d d d , N [.8XwX8X&X&Xv.r m.m.m.m.m.m.m.m.m.m.m.m.m.m.m.m.m.m.m.",
"m.m.m.m.m.m.m.m.m.m.m.m.m.m.m.m.m.m.m.m.m.y Z J n.=X#Xp.: m.m.m.m.m.m.m.m.v K 8.(.*XtXv.u m.m.m.m.m.m.m.m.m.m.m.m.m.m.m.m.m.m.m.",
"m.m.m.m.m.m.m.m.m.m.m.m.m.m.m.m.m.m.m.m.m.r Z G c.@XM.9.: m.m.m.m.m.m.m.m.: z 3.@X*XtXn.t m.m.m.m.m.m.m.m.m.m.m.m.m.m.m.m.m.m.m.",
"m.m.m.m.m.m.m.m.m.m.m.m.m.m.m.m.m.m.m.m.m.q F 7.u.7.D y m.m.m.m.m.m.m.m.m.; S l.@X*X*Xv.t m.m.m.m.m.m.m.m.m.m.m.m.m.m.m.m.m.m.m.",
"m.m.m.m.m.m.m.m.m.m.m.m.m.m.m.m.m.m.m.m.m.m.a Z H H j m.m.m.m.m.m.m.m.m.m.r a 1.6.i.w.U , m.m.m.m.m.m.m.m.m.m.m.m.m.m.m.m.m.m.m.",
"m.m.m.m.m.m.m.m.m.m.m.m.m.m.m.m.m.m.m.m.m.m.m.m.m.m.m.m.m.m.m.m.m.m.m.m.m.t j H H G D z m.m.m.m.m.m.m.m.m.m.m.m.m.m.m.m.m.m.m.m.",
"m.m.m.m.m.m.m.m.m.m.m.m.m.m.m.m.m.m.m.m.m.m.m.m.m.m.m.m.m.m.m.m.m.m.m.m.m.m.h h a y y m.m.m.m.m.m.m.m.m.m.m.m.m.m.m.m.m.m.m.m.m.",
"m.m.m.m.m.m.m.m.m.m.m.m.m.m.m.m.m.m.m.m.m.m.m.m.m.m.m.m.m.m.m.m.m.m.m.m.m.m.m.m.m.m.m.m.m.m.m.m.m.m.m.m.m.m.m.m.m.m.m.m.m.m.m.m.",
"m.m.m.m.m.m.m.m.m.m.m.m.m.m.m.m.m.m.m.m.m.m.m.m.m.m.m.m.m.m.m.m.m.m.m.m.m.m.m.m.m.m.m.m.m.m.m.m.m.m.m.m.m.m.m.m.m.m.m.m.m.m.m.m.",
"m.m.m.m.m.m.m.m.m.m.m.m.m.m.m.m.m.m.m.m.m.m.m.m.m.m.m.m.m.m.m.m.m.m.m.m.m.m.m.m.m.m.m.m.m.m.m.m.m.m.m.m.m.m.m.m.m.m.m.m.m.m.m.m.",
"m.m.m.m.m.m.m.m.m.m.m.m.m.m.m.m.m.m.m.m.m.m.m.m.m.m.m.m.m.m.m.m.m.m.m.m.m.m.m.m.m.m.m.m.m.m.m.m.m.m.m.m.m.m.m.m.m.m.m.m.m.m.m.m.",
"m.m.m.m.m.m.m.m.m.m.m.m.m.m.m.m.m.m.m.m.m.m.m.m.m.m.m.m.m.m.m.m.m.m.m.m.m.m.m.m.m.m.m.m.m.m.m.m.m.m.m.m.m.m.m.m.m.m.m.m.m.m.m.m.",
"m.m.m.m.m.m.m.m.m.m.m.m.m.m.m.m.m.m.m.m.m.m.m.m.m.m.m.m.m.m.m.m.m.m.m.m.m.m.m.m.m.m.m.m.m.m.m.m.m.m.m.m.m.m.m.m.m.m.m.m.m.m.m.m."
};
