/* XPM */
static char *_8128b6ecbce45dfdbbb5eaf11c89d2dzweF69hlIBqLq2Hd[] = {
/* columns rows colors chars-per-pixel */
"64 64 256 2 ",
"   c #000000",
".  c #0B0201",
"X  c #0D0901",
"o  c #070808",
"O  c #130201",
"+  c #1B0200",
"@  c #130A01",
"#  c #1B0B00",
"$  c #13010C",
"%  c #1A030B",
"&  c #171202",
"*  c #0A0314",
"=  c #140014",
"-  c #190017",
";  c #121515",
":  c #240201",
">  c #2B0100",
",  c #230B00",
"<  c #280408",
"1  c #330101",
"2  c #390502",
"3  c #291500",
"4  c #371900",
"5  c #250017",
"6  c #36011D",
"7  c #392802",
"8  c #3B3503",
"9  c #302B13",
"0  c #1B0725",
"q  c #FF00FF",
"w  c #FF00FF",
"e  c #FF00FF",
"r  c #FF00FF",
"t  c #32312C",
"y  c #470700",
"u  c #451903",
"i  c #521507",
"p  c #472804",
"a  c #572804",
"s  c #593508",
"d  c #503113",
"f  c #682A04",
"g  c #762902",
"h  c #653404",
"j  c #793B01",
"k  c #6F3918",
"l  c #FF00FF",
"z  c #FF00FF",
"x  c #453837",
"c  c #522E2A",
"v  c #6F2F20",
"b  c #574D08",
"n  c #714E0F",
"m  c #4F4A33",
"M  c #714F30",
"N  c #766D36",
"B  c #FF00FF",
"V  c #FF00FF",
"C  c #FF00FF",
"Z  c #FF00FF",
"A  c #FF00FF",
"S  c #FF00FF",
"D  c #FF00FF",
"F  c #3B4447",
"G  c #54544E",
"H  c #6F5250",
"J  c #63675C",
"K  c #716A51",
"L  c #FF00FF",
"P  c #5A666B",
"I  c #676463",
"U  c #716E6F",
"Y  c #59615C",
"T  c #323C48",
"R  c #863B07",
"E  c #8A4A10",
"W  c #916611",
"Q  c #AC6616",
"!  c #8E552D",
"~  c #A65C29",
"^  c #8F692E",
"/  c #B46E30",
"(  c #A3550D",
")  c #D15110",
"_  c #EE5114",
"`  c #D97B0A",
"'  c #D97918",
"]  c #D0720D",
"[  c #E57708",
"{  c #E97A17",
"}  c #F77A17",
"|  c #F2740F",
" . c #D35235",
".. c #F4532F",
"X. c #D87B25",
"o. c #D77A36",
"O. c #C76F2C",
"+. c #E87A26",
"@. c #FA7926",
"#. c #EB7631",
"$. c #862D73",
"%. c #8A534F",
"&. c #8F6F51",
"*. c #A67749",
"=. c #B17752",
"-. c #8C4E7A",
";. c #947165",
":. c #A87077",
">. c #AE5463",
",. c #E84841",
"<. c #CB7B4C",
"1. c #CD4C48",
"2. c #A48632",
"3. c #B1902E",
"4. c #AB851C",
"5. c #D78A0A",
"6. c #D98518",
"7. c #DD9D1A",
"8. c #CC8A0E",
"9. c #E6850A",
"0. c #E88519",
"q. c #F68318",
"w. c #E39A18",
"e. c #F78408",
"r. c #F0B41A",
"t. c #DA872A",
"y. c #D98937",
"u. c #D89539",
"i. c #CF8E2F",
"p. c #E88627",
"a. c #F58626",
"s. c #E89726",
"d. c #F69927",
"f. c #E68738",
"g. c #F28E36",
"h. c #F3AE2F",
"j. c #DEAA3D",
"k. c #FDD51E",
"l. c #FACA2B",
"z. c #FDD52C",
"x. c #F8D729",
"c. c #FDCC3C",
"v. c #FBC937",
"b. c #F4D435",
"n. c #FCD534",
"m. c #F5DA34",
"M. c #FBDA33",
"N. c #FDD33B",
"B. c #FDDA3C",
"V. c #F5D53B",
"C. c #EACF38",
"Z. c #FAE039",
"A. c #96874F",
"S. c #B18C4E",
"D. c #B59167",
"F. c #B9A96A",
"G. c #A19962",
"H. c #D58945",
"J. c #DC9346",
"K. c #D08D52",
"L. c #E68A45",
"P. c #EA924C",
"I. c #D5B650",
"U. c #F6B34E",
"Y. c #CF9267",
"T. c #D6B76A",
"R. c #D1AD72",
"E. c #E9B66B",
"W. c #ED996B",
"Q. c #ECCB47",
"!. c #FECB44",
"~. c #FBC948",
"^. c #EDD547",
"/. c #FCD344",
"(. c #FED34B",
"). c #F8D846",
"_. c #F5CC57",
"`. c #ECD655",
"'. c #F9D758",
"]. c #E8C854",
"[. c #FCE14E",
"{. c #D8C66E",
"}. c #E6C669",
"|. c #E9D867",
" X c #FAD768",
".X c #EBD677",
"XX c #F9DB75",
"oX c #F2CB6D",
"OX c #FBE567",
"+X c #F8E272",
"@X c #D7C64E",
"#X c #667384",
"$X c #FF00FF",
"%X c #FF00FF",
"&X c #FF00FF",
"*X c #FF00FF",
"=X c #FF00FF",
"-X c #FF00FF",
";X c #FF00FF",
":X c #FF00FF",
">X c #FF00FF",
",X c #FF00FF",
"<X c #FF00FF",
"1X c #FF00FF",
"2X c #FF00FF",
"3X c #FF00FF",
"4X c #FF00FF",
"5X c #FF00FF",
"6X c #FF00FF",
"7X c #FF00FF",
"8X c #FF00FF",
"9X c #FF00FF",
"0X c #FF00FF",
"qX c #FF00FF",
"wX c #FF00FF",
"eX c #FF00FF",
"rX c #FF00FF",
"tX c #FF00FF",
"yX c #FF00FF",
"uX c #FF00FF",
"iX c #FF00FF",
"pX c #FF00FF",
"aX c #FF00FF",
"sX c #FF00FF",
"dX c #FF00FF",
"fX c #FF00FF",
"gX c #FF00FF",
"hX c #FF00FF",
"jX c #FF00FF",
"kX c #FF00FF",
"lX c #FF00FF",
"zX c #FF00FF",
"xX c #FF00FF",
"cX c #FF00FF",
"vX c #FF00FF",
"bX c #FF00FF",
"nX c #FF00FF",
"mX c #FF00FF",
"MX c #FF00FF",
"NX c #FF00FF",
"BX c #FF00FF",
"VX c #918B8C",
"CX c #B5B487",
"ZX c #ACB1B6",
"AX c #D4B885",
"SX c #F1D68E",
"DX c #F7E59B",
"FX c #F8EA88",
"GX c #FDF3AE",
"HX c #E8D0A1",
"JX c #BBBAC8",
"KX c #FF00FF",
"LX c #FF00FF",
"PX c #FF00FF",
"IX c #F7F4D4",
"UX c #FEFEE8",
/* pixels */
"jXjXfXfXfXfXjXjXjXjXjXjXjXfXjXjXjXjXjXjXjXjXjXjXjXjXjXfXjXjXjXjXjXjXjXjXjXjXjXjXjXjXjXjXjXjXjXjXjXjXjXxXKXS $ = &XwXiXfXjXjXjXjX",
"jXjXjXfXfXjXjXjXjXjXjXjXjXjXjXjXdXaXzXtXaXaXzXaXfXjXjXjXjXjXjXjXjXjXjXjXjXjXjXjXjXjXjXjXjXjXjXfXjXdXgX5X<X-.% O S -X5XuXfXjXjXjX",
"jXjXjXjXjXjXjXjXfXjXjXjXjXjXdXdXpX5XqX9X9X9X9X5XtXhXjXjXjXjXjXjXjXjXjXjXjXjXjXjXjXjXjXjXjXdXjXjXjXgX6X=X4XH , 3 ,XPX=X5XgXjXjXjX",
"jXjXjXjXjXjXjXjXjXjXjXjXjXjXjXgX5X$XB e l B e A iXfXjXjXjXjXjXjXjXjXjXjXjXjXjXjXfXjXjXfXjXkXjXjXfXiX$Xw < ;.HXGX;.< e C iXjXjXjX",
"jXjXjXjXjXjXjXjXjXjXjXjXjXjXjXyX0XA 5 5 - = * A 7XjXjXjXjXjXjXjXjXjXjXjXjXjXjXjXjXjXjXjXfXfXjXfXhX5Xl + : A..X.XD.1 < C cXuXjXjX",
"jXjXjXjXjXjXjXjXjXjXjXjXjXkXpX9XmXS .     o o V 5XjXjXjXjXjXjXjXjXjXjXfXjXjXjXjXjXjXjXfXjXgX8X5X6XMXc & + 2.XXXXS.2 1 2 MXqXeX5X",
"jXjXjXjXjXjXjXjXjXjXjXjXjXiXA B r x G J t   o V 5XjXjXjXjXjXjXjXjXjXjXfXfXfXjXjXjXjXjXjXjX8XKXV V c A.I.I.I.i.t.X.O.K.%.z V V PX",
"jXjXjXjXjXjXjXjXfXjXjXjXjX5Xe   $ t K K t     V 5XjXjXjXfXjXjXjXjXjXjXfXfXuXuXtXaXaXlXyXlX9XPX    @ {.`.'.h.] 0.0.p.i.S.+ .   ZX",
"jXjXjXjXjXjXjXjXhXfXjXjXjX5Xe   X m m N t   $ V 5XjXjXjXjXjXjXjXjXjXfXdXzX8X9X0X0X9X0X0X:XmXPX. O + I.'.U.h.9.[ 9.9.p./ > $   ZX",
"jXjXjXjXjXjXjXhXfXjXjXjXjX6Xe @ . &.CXCXM . . V 7XfXjXjXjXjXjXjXjXjXjXgX5X0X$X&X%X&X&X%X&X$.;.A.A.2.j.h.d.0.[ e.e.[ g./ > . * JX",
"jXjXjXjXjXjXjXjXjXjXjXjXkXqXw # 3 D.DXHXK # @ V 6XkXjXjXjXjXjXjXjXjXfXyX9XB q - = = = - 5 + u DXSX Xi.6.0.[ | e.q.0.t./ > @   ZX",
"jXjXjXjXjXjXjXjXjXjXdXpX6XmX6 O : S.SXDX&.+ . V 5XjXjXjXjXhXiX7X7X7X7XqXKXq .       o   % O 4 SXoX'.6.0.q.q.q.q.p.P.J.K.1 % = JX",
"jXjXjXjXjXjXjXjXjXdX5XvX4X:.N n E i.I.}.! : + C 7XjXjXjXfX7XKX1X<X<X<X1X,Xx 9 t t 9 t X . , p E.j.h.0.a.{ q.9.' / E E ! -.2X<XLX",
"jXjXjXjXjXjXjXjXjXtX0Xl < 3 {.XX'.h.4.3.n : + V qXpXtXtXpX:X-.. $ - % O @ G J U U I U t O : u H.t.{ } } [ 0.p.y.~ 2 1 y vXrX0X9X",
"jXjXjXjXjXjXjXjXjXyX0Xl % # SX X~.h.8.u.n + O z KX=X*X0X*XmXL     . O O @ G J G I Y I x , > i H.+.} e.| a.p.f.J.! > > l qXtXtXuX",
"jXjXjXjXjXjXjXjXjXyX:Xl < 3 .X_.~.h.8.j.W p 8 M PXPXKXLXKXPXH 7 8 7 8 8 8 M U J G G G d u y g L.{ q.[ [ g.Q Q ^ %.D C ;XpXjXjXjX",
"jXdXjXjXhXjXjXjXjXyX0Xl < 4 }.'.(.c.N.B.V.OX+XF.O = = = 5 + A.FX|.+X|..X{.N G I ;   > k W.L.t.' { q.q.] P.g > > $.nXcX8XdXjXjXjX",
"jXjXfXjXjXfXhXdXaX5X:X6 > 4 @X^.(.V.M.M.x.Z.`.F.# O X   . O 2.OXC.^.^.`.}.N K U ; . > g o.' p.d.{ a.{ X.P.f > 6 $X9XzXjXjXjXjXjX",
"jXjXjXjXjXjXyXiXqX-X1X> > p  X)./.n.M.M.x.m.^.I.# # 3 & 4 7 4.^.).V.).'..Xb m G ; O > E P.p.0.` a.{ O.K.Y.z z l rX5XaXfXjXjXjXjX",
"jXjXjXjXjXkX5XwXl w D HXHXT._./.N.n.M.n.l.B.).]..XSX{.{.{.I.`.).B.n./._.T.3 & ;   . > k H.' p.0.{ f.f 1 1 1X3XqX5XlXhXjXjXfXjXjX",
"jXjXjXjXjXpX:X2Xq < s SX}.XX'.V.n.z.n.N.N./.(.'.`.`.`.'.OX'.).b.n.n./. XT.#     o @ : M K.o.p.{ a.o.2 > 5 <X6XgXdXhXjXjXjXfXfXjX",
"jXjXjXfXiX0XmXH + & b +XOXQ.Q.).z.z.n.N.N.N././.).).B.m.V.V.N.n.n.N.!. XR., X o   . O M Y.W.L.g.+.y.y > < 3XqX8XpXaXkXjXfXjXjXfX",
"jXjXjXiX%Xz D &.F.S.@X^.^.C.[.l.n.n.n.N./.N.v.N.B.M.M.x.z.z.n.B.l.l.7.I.D.+     t G m d u a g o.a.' ~ *.&.H C C vXeXyXjXjXjXdXjX",
"sXsXyX9XV     A.FX`.^.Z.B.n.B.n.n.n.n.N.B.n.n.M.x.x.x.x.z.z.z.z.z.l.8.i.*.+ X   G J K c O > i L.+.+.P.H.Y.d + < A *XlXjXjXjXjXjX",
"5XeX0XmXq   X N |.^.x.x.n.n.n.B.N.n.n.n.M.M.n.z.x.x.z.z.M.z.n.n.l.r.8.i.*.+ @   G Y J 9 @ + y Y.f.p.X.L.H.a , + &X0XyXjXjXfXjXjX",
"NX=X<X>XVXVXG.R.|.V.x.k.z.n.M.m.n.n.n.M.x.x.x.x.x.z.z.z.M.M.M.M.M.l.h.I.Y., O . m J J F t x c v R R X.X.H.h , $ &X0XlXjXfXfXjXjX",
"=XB q . IXUXIXGX'.b.k.k.z.z.z.n.z.M.M.M.x.x.M.M.x.M.n.n.M.M.m.M.M.z.(. XE.2 + + x I P P Y I H 1 1 y O.o.Y.h O $ %X0XaXjXjXjXjXjX",
"-Xe -   IXUXIXDX'.b.k.k.z.z.n.n.n.M.M.m.m.m.m.M.x.n.n.n.M.m.m.m.z.l.(._.E.2 > : m I P #XU I H > > 2 <.K.Y.d + q ;XeXaXfXjXjXfXfX",
"-Xe =   G.CXCX{.'.V.x.x.z.n.N.N.B.B.b.b.m.m.b.b.n.n.n.n.n.m.m.m.M.n.).Q.U.j h s c x F T t x d c a a k &.%.%.$.$XNXxXuXjXjXjXjXjX",
"=Xe = o X   O ^  XN.z.z.n.n.N.N.N.n.V.V.).[.).).N.n.z.z.n.M.M.M.b.N./.).'.i.H.Y.u O o o   O 4 D.Y.D.4 : : 4XvX9XxXzXkXfXjXjXjXjX",
"=Xe - o     O A. X/.n.n.n.b.b.n.l.N./.).`.`.).).N.n.z.z.z.n.n.N.N./.V.c.!.7.t.K.i O o o . O 4 R.S.S.3 + w =X5XaXgXkXjXjXjXjXjXjX",
"=XB =   3 7 3 2. X/.c.n.n.m.n.N./.'.OX|.}.I.I.I./.n.z.z.n.N.N.N.!./.v.!.h.7.' J.a + . o . . 4 &.*.*.c V Z 9XgXjXjXfXjXjXjXjXjXjX",
"=XB = & F.oX XQ.)././.N.M.M.N.).].FXGXGXG.# # s '.N.M.z.v./././.(.h.5.9.w.6.t.y.u + + .     @ . O < KXrXiXaXdXjXjXjXjXjXjXjXjXjX",
"*XB - + T. X_.).).).).b.x.x.b.^.|.GXIXUXVX. . 7  X/.N.c.!.~.!.c.(.h.9.[ 0.t.u.K.p O + .     o $ $ w rXyXhXjXjXjXjXjXjXjXjXjXjXjX",
"qXV l : AX.X X_.Q.).m.x.x.m.).'.|.DXIXUXVX$ # p oXU.U.~.U.U.~.(.!.h.9.[ p.o.i.S.7 . O . o   $ 5 w Z 5XdXjXjXjXfXjXjXjXjXjXjXjXjX",
"7X5XwXmXc 7 3 4.'.[.m.x.x.x.C.`.|.b & 9 ; o O 1 =.O.O.X.] ] w.v.v.h.9.{ o./ ~ ^ H G J t o   D PXvXeXtXjXjXjXjXjXjXjXjXjXjXjXjXjX",
"dXgXpX:Xz . # S..X`.C.b.x.M.).`.+X8 X @ O O + i 1. . . .) ) s.(./.h.0.p.o.! M M H I I t   * S 3X6XtXjXjXjXjXjXjXjXjXjXjXjXjXjXjX",
"jXjXjX5XB 6 > K DX.X'.[.B.n.V.^.+Xs & X O : > y 1.1.,. .) ) s.~.c.h.0.p.o.~ ! ! H H H 9 o 0 Z *XpXfXjXjXjXjXjXjXjXjXjXjXjXjXjXjX",
"hXjXfXgX7X9XnX,Xc s W 7.7.r.n.).Q.3.3.S.2.2.3.<. . .,.....| 0.h.h.d.{ { #.O.O./ =.=.=.v O = Z 0XtXjXjXjXjXjXjXjXjXjXjXjXjXjXjXjX",
"jXfXjXjXjXpX=X-.> > j 6.5.w.l.N./.'._. X'.'. XU. .......@.@.6.8.] 0.{ } a.a.p.o.L.<.Y.M O = Z 0XtXjXjXfXfXfXjXjXjXjXjXjXjXjXjXjX",
"jXjXjXjXjXpX=X-.> 1 f f.p.` !.v.c.c.!./.N.c.c.U.) _ .._ @.a.t.u.J.t.a.} } } [ +.L.K.Y.M O = Z 0XtXjXfXhXjXjXjXjXjXjXjXjXjXjXjXjX",
"jXjXjXdX8X0X<X-.M W Q t.+.0.h.h.h.h.h.r.r.r.r.d.@..._ | @.g.( j j ( +.| | } q.g.O./ =.v O - Z 0XtXjXfXfXjXjXjXjXjXjXjXjXjXjXjXjX",
"jXjXjXpXZ 5 + ;.DXXXU.t.{ 0.] ` 9.5.8.8.5.5.5.9.| @.} g.#.L.f 1 > h L.{ } } ` t.W M ^ d o 0 A 9XaXjXjXjXjXjXjXjXjXjXjXjXjXjXjXjX",
"jXjXjX5Xe   X A.DXXXoXi.f.g.p.' 0.5.5.5.5.5.5.5.0.q.' X.H.Y.k > : a f.{ @.q.{ t.W n N d . 0 A 9XaXjXjXjXjXjXjXjXjXjXjXjXjXjXjXjX",
"jXjXfX5XV   @ M F.S.S.^ W Q U.s.w.w.7.7.7.w.w.w.9.d.h.Q ~ ! n s n E p.{ } } { s./ ^ *.d O = Z 0XaXjXjXjXjXjXjXjXjXjXjXjXjXjXjXjX",
"jXjXfX6Xz   . # # # # , : u E.~.(././.(.~.c.N.N.c.(._.a > 1 S.SX}.J.a.} } } [ 0.y.o.K.n + - Z 0XtXjXjXjXjXjXjXjXjXjXjXjXfXjXjXjX",
"jXjXjX6XV   * *     X O O 4 oX'.c.c./.!.!.v.z.z.N._.T.4 , , 2. X XU.{ a.{ a.q.0.f.f.P.E : 5 Z 0XtXjXjXjXjXjXjXjXjXjXjXfXdXfXjXjX",
"jXjXfXNXZ q e 0 *   @ O 3 4 T.I.].Q.).)./.N.M.M.N.'.}.p , , ^ .XI.U.] a.[ } } | +.#.P.R + 5 A BXtXjXfXfXfXjXjXjXjXjXjXfXfXfXjXjX",
"jXjXjXtXxXvXKX>X= O p D.S.*.> 3 3 S. XC.).Z.C.[.c./._._.I..Xb # # h u.` | q.} } @.#.W.E + 5 Z 0XtXjXjXjXjXjXjXjXjXjXjXjXjXjXjXjX",
"jXjXjXjXdX5X=X>X% + a Y.K.=., + + G.FX`.^.[.^.Q.!.!.c.(.(.+Xn + : h u.' { } | } +.o.H.n > w $.9XtXjXjXjXjXjXjXjXjXjXjXjXjXjXjXjX",
"jXjXjXjXjXpXwX%X% : d D.D.=.< O + G.SX{.|.XXoX X~.c.h.!.v.~.n 2 y g y.p.a.} | } P.Y.S.M : w $X5XdXjXjXjXjXjXjXjXjXjXjXjXjXjXjXjX",
"jXjXjXjXjXyX0X%X5 O : p p p O O . 3 8 p s p a n u.s.s.s.w.h./ ~ / O.f.' { } } g.g y 4 ;.PXwX5XtXfXjXjXjXjXjXjXjXjXjXjXjXjXjXjXjX",
"jXjXjXjXjXlX0X%Xq O + + O O . X ; X   X O O , u i.6.6.6.` s.t.P.#.#.0.0.{ a.' X.i > O ,XwXiXtXdXjXjXjXjXjXjXjXjXjXjXjXjXjXjXjXjX",
"jXjXjXhXhXsXcX=Xq % 5 < 5 $ = = = = = = - % : 2 Y.J.J.u.y.J.H.L.P.f.0.0.6.f.u.W.u +   ,XeXhXjXjXjXjXjXjXjXjXjXjXjXjXjXjXjXjXjXjX",
"jXjXjXjXjXsX5XMXnXbXbX3XbXbXbXbXbXbXnXnXbX4X1X:.d s s h k k k f g E t.t.O.j h d 3 @   2X5XjXjXjXjXjXjXjXjXjXjXjXjXjXjXjXjXjXjXjX",
"jXjXjXjXjXhXpX5X9X9X9X9X9X0X0X0X0X0X9X0X0X*XvXPX+ O O + + + > > > h u.u./ 1 > O . .   2X5XjXjXjXjXjXjXjXjXjXjXjXjXjXjXjXjXjXjXjX",
"jXjXjXjXjXjXdXuXtXtXtXuXtXtXtXtXtXtXtXtXpXpXpX0Xq o   . . . O # + s u.i./ 1 > + + .   ,X5XjXjXjXjXjXjXjXjXjXjXjXjXjXjXjXjXjXjXjX",
"jXjXjXjXjXjXjXjXfXjXjXjXjXjXjXjXjXjXjXjXjXjXjXpX%XL L = = @ 8 b b W j.U.J.j h d + . @ ,X5XjXjXjXjXjXjXjXjXjXjXjXjXjXjXjXjXjXjXjX",
"jXjXjXjXjXjXjXjXjXjXjXjXjXjXjXjXjXjXjXjXjXjXjXhXxXwXLXV $ . A.FX+XQ./.~.U.u.H.Y.u +   >X6XjXjXjXjXjXjXjXjXjXjXjXjXjXjXjXjXjXjXjX",
"jXjXjXjXjXjXjXjXjXjXjXjXjXjXjXjXjXjXjXjXjXjXjXjXhXiX0XZ 5 + A.XXoX_.'. XU.J.H.Y.i 5 O 1X7XjXfXjXjXjXjXjXjXjXjXjXjXjXjXjXjXjXjXjX",
"jXjXjXjXjXjXjXjXjXjXjXjXjXjXjXjXjXjXjXjXjXjXjXjXfXuX5X;XB z &.AXY.R.T.T.Y.=.*.:.D C V vXiXjXfXjXjXjXjXjXjXjXjXjXjXjXjXjXjXjXjXjX",
"jXjXjXjXjXjXjXjXjXjXjXjXjXjXjXjXjXjXjXjXjXjXjXjXjXdXtX5XvXKXH O + + O + , > > 1 mXvX0X5XgXdXjXjXjXjXjXjXjXjXjXjXjXjXjXjXjXjXjXjX",
"jXjXjXjXjXjXjXjXjXjXjXjXjXjXjXjXjXjXjXjXjXjXjXjXjXjXhXaXyX0X-.X     X @ @ @ X 5 0XiXtXgXfXjXjXjXjXjXjXjXjXjXjXjXjXjXjXjXjXjXjXjX",
"jXjXjXjXjXjXjXjXjXjXjXjXjXjXjXjXjXjXjXjXjXjXfXfXjXjXjXjXjX5XL o ; o o       X q eXfXfXjXjXjXjXjXjXjXjXjXjXjXjXjXjXjXjXjXjXjXjXjX"
};
