/* XPM */
static char *right1_milka[] = {
/* columns rows colors chars-per-pixel */
"64 64 244 2 ",
"   c #0C0008",
".  c #19041A",
"X  c #310E0C",
"o  c #22051C",
"O  c #29091A",
"+  c #29111A",
"@  c #351217",
"#  c #1B0525",
"$  c #1D0237",
"%  c #220423",
"&  c #280A27",
"*  c #24032B",
"=  c #2B062B",
"-  c #250B2A",
";  c #34092A",
":  c #28142D",
">  c #31152B",
",  c #240334",
"<  c #2A0334",
"1  c #260C33",
"2  c #2D0B33",
"3  c #25023A",
"4  c #2C043B",
"5  c #2C0B3A",
"6  c #320C33",
"7  c #330538",
"8  c #330A3D",
"9  c #2B1337",
"0  c #351637",
"q  c #3A1F37",
"w  c #34153C",
"e  c #382437",
"r  c #45141F",
"t  c #451529",
"y  c #4D183B",
"u  c #4C2531",
"i  c #58273A",
"p  c #5D3534",
"a  c #652F35",
"s  c #6C3937",
"d  c #753C39",
"f  c #73481D",
"g  c #6B4232",
"h  c #7A4338",
"j  c #2E0644",
"k  c #2E0A42",
"l  c #330443",
"z  c #340B43",
"x  c #35054A",
"c  c #390C48",
"v  c #3A0C4C",
"b  c #391342",
"n  c #3D194A",
"m  c #3D0B53",
"M  c #3A0856",
"N  c #3F1552",
"B  c #3A2644",
"V  c #3F2458",
"C  c #3E0A66",
"Z  c #471948",
"A  c #431A4C",
"S  c #561F46",
"D  c #41035A",
"F  c #440C5C",
"G  c #461958",
"H  c #451B5C",
"J  c #442648",
"K  c #4C2B4B",
"L  c #572445",
"P  c #49354B",
"I  c #5C3947",
"U  c #442353",
"Y  c #4A245B",
"T  c #4A2858",
"R  c #522959",
"E  c #4D3753",
"W  c #57385C",
"Q  c #6F3B4F",
"!  c #65375A",
"~  c #460B63",
"^  c #481867",
"/  c #541B67",
"(  c #4C0F74",
")  c #520F75",
"_  c #58187A",
"`  c #492961",
"'  c #552668",
"]  c #593565",
"[  c #5C2677",
"{  c #5B3175",
"}  c #6A396E",
"|  c #63287D",
" . c #643577",
".. c #4D464D",
"X. c #594458",
"o. c #764548",
"O. c #795745",
"+. c #614454",
"@. c #704853",
"#. c #5D426A",
"$. c #5C4671",
"%. c #654268",
"&. c #774766",
"*. c #735469",
"=. c #6A4C73",
"-. c #6C467B",
";. c #70487A",
":. c #6B5472",
">. c #735978",
",. c #75647E",
"<. c #815C3F",
"1. c #9C7525",
"2. c #88514D",
"3. c #AA6B59",
"4. c #8B5975",
"5. c #9C6677",
"6. c #AE6D7F",
"7. c #BB9215",
"8. c #B78C2F",
"9. c #E4AD2B",
"0. c #F3C91F",
"q. c #F0CB34",
"w. c #A38145",
"e. c #FDE158",
"r. c #E7C86E",
"t. c #5D1984",
"y. c #611B83",
"u. c #592C83",
"i. c #672987",
"p. c #6A3787",
"a. c #6C398E",
"s. c #6A2995",
"d. c #732A98",
"f. c #78379A",
"g. c #7C2BA6",
"h. c #6D35A5",
"j. c #7C34A3",
"k. c #734B84",
"l. c #774D8A",
"z. c #775788",
"x. c #7B548A",
"c. c #754A92",
"v. c #7C6D82",
"b. c #83538B",
"n. c #844898",
"m. c #846489",
"M. c #87798B",
"N. c #96718F",
"B. c #876897",
"V. c #8E7598",
"C. c #987896",
"Z. c #A87983",
"A. c #B97985",
"S. c #935AB2",
"D. c #946AA6",
"F. c #906BAB",
"G. c #9877A8",
"H. c #A47BB6",
"J. c magenta",
"K. c #A17BC7",
"L. c #998F96",
"P. c #99899C",
"I. c #A68797",
"U. c #B08B94",
"Y. c #9C84A6",
"T. c #9C92A7",
"R. c #A489AA",
"E. c #AA97A9",
"W. c #AB93AE",
"Q. c #BA96AB",
"!. c #A687B6",
"~. c #AE96B2",
"^. c #B599B6",
"/. c #ACA3A8",
"(. c #B5A3A9",
"). c #B6AAB8",
"_. c #B8B3BC",
"`. c #CE939E",
"'. c #E1979E",
"]. c #C59AA5",
"[. c #D897A4",
"{. c #C79CB8",
"}. c #E49AAD",
"|. c #D0A8B4",
" X c #EDB1B7",
".X c #EBDB9E",
"XX c #B78EC9",
"oX c #B796C5",
"OX c #B89CC5",
"+X c #BD9AD6",
"@X c #BDA5CA",
"#X c #BFB3C1",
"$X c #C39BC9",
"%X c #C49CD8",
"&X c #C4AACA",
"*X c #C8B6CA",
"=X c #D7B9C4",
"-X c #C8A7D6",
";X c #D9ADD3",
":X c #CBB4D5",
">X c #D4BAD9",
",X c #EBBBC5",
"<X c #EBBAD0",
"1X c #CB98E2",
"2X c #D4AAEA",
"3X c #D1ABED",
"4X c #D9BAE7",
"5X c #DAB5F5",
"6X c #E3B8E9",
"7X c #E3BBF4",
"8X c #CAC4CA",
"9X c #D0C9CC",
"0X c #D6C7D9",
"qX c #DBCBDB",
"wX c #DCD6DC",
"eX c #EBC2CC",
"rX c #F8C6C9",
"tX c #F7CAD7",
"yX c #FBCBD3",
"uX c #E5D7DA",
"iX c #FBD3D9",
"pX c #DBC3E5",
"aX c #DDCCE1",
"sX c #DBD6E0",
"dX c #E6C8E8",
"fX c #E4D4E4",
"gX c #E4DBE6",
"hX c #E4D2EA",
"jX c #E9D8E9",
"kX c #EADBED",
"lX c #F2D5F1",
"zX c #EAE5EA",
"xX c #ECE2EC",
"cX c #F3E5E8",
"vX c #F2ECED",
"bX c #F7F4EF",
"nX c #EEE4F1",
"mX c #F4EBF4",
"MX c #F7E9F8",
"NX c #F4F1F5",
"BX c #F8F4F5",
"VX c #FDFDF6",
"CX c #FCF5FC",
"ZX c #FDFDFB",
/* pixels */
"J.J.J.J.J.J.J.J.J.J.J.J.J.J.J.J.J.J.J.J.J.J.J.J.J.J.J.J.J.J.J.J.J.J.J.J.J.J.J.J.J.J.J.J.J.J.J.J.J.J.J.J.J.J.J.J.J.J.J.J.J.J.J.J.",
"J.J.J.J.J.J.J.J.J.J.J.J.J.J.J.J.J.J.J.J.J.J.J.J.J.J.J.J.J.J.J.J.J.J.J.J.J.J.J.J.J.J.J.J.J.J.J.J.J.J.J.J.J.J.J.J.J.J.J.J.J.J.J.J.",
"J.J.J.J.J.J.J.J.J.J.J.J.J.J.J.J.J.J.J.J.J.J.J.J.J.J.J.J.J.J.J.J.4 z z l k l J.J.J.J.J.J.J.J.J.J.J.J.J.J.J.J.J.J.J.J.J.J.J.J.J.J.",
"J.J.J.J.J.J.J.J.J.J.J.J.J.J.N v m m J.J.J.J.J.J.J.J.J.J.J.J.B U U G U Y j j j J.J.J.J.J.J.J.J.J.J.J.J.J.J.J.J.J.J.J.J.J.J.J.J.J.",
"J.J.J.J.J.J.J.J.J.J.J.J.J.J.v i.f.i.M l 5 J.J.J.J.J.J.B 9 9 E.fXsXgXfXgXgX*XE 9 9 z J.J.J.J.J.j j J.J.J.J.J.J.J.J.J.J.J.J.J.J.J.",
"J.J.J.J.J.J.J.J.J.J.J.J.J., M y.j.j.i.[ ' J.J.J.  . # V.#X_.zXZXZXZXZXVXVXvX_.).Y.b , # . J.j p.| j J.J.J.J.J.J.J.J.J.J.J.J.J.J.",
"J.J.J.J.J.J.J.J.J.J.J.J.J.$ M t.d.g.n.f.p.F J E ......9XZXZXZXVXZXZXVXZXZXZXZXZXwX` T W P P ^ f.[ j J.J.J.J.J.J.J.J.J.J.J.J.J.J.",
"J.J.J.J.J.J.J.J.J.J.J.J.J.$ M t.t.y.f.f.d.[ G.mXzXvXbXVXZXVXVXVXVXZXVXZXZXZXVXZXhXz.!.hXnXoXa.c.[ l J.J.J.J.J.J.J.J.J.J.J.J.J.J.",
"J.J.J.J.J.J.J.J.J.J.J.J.J.J.k M ( _ t.y.t.( G.ZXZXZXZXVXVXVXVXVXZXZXZXZXZXZXVXZXhXz.l.B.:XH.^ f.| l J.J.J.J.J.J.J.J.J.J.J.J.J.J.",
"J.J.J.J.J.J.J.J.J.J.J.J.J.J.< j x F ) ) _ x.~.hX0XzXZXZXVXVXVXZXZXgX0XaXqXfXBXZXhXz.B.G.z.p.( j.i.J.J.J.J.J.J.J.J.J.J.J.J.J.J.J.",
"J.J.J.J.J.J.J.J.J.J.J.J.J.J.J.J.J.j ~ ( p.6X$XD.m.#XZXZXZXZXZXZXBX).M.V.m.C.hXnX0XB.@XkX` C [ f.| J.J.J.J.J.J.J.J.J.J.J.J.J.J.J.",
"J.J.J.J.J.J.J.J.J.J.J.J.J.J.J.J.J.J.x M ^ | ' { :XmXZXVXVXZXVXZXZXvXgXgX*X!.k.$.v.0XNXxX$.a.S.) F J.J.J.J.J.J.J.J.J.J.J.J.J.J.J.",
"J.J.J.J.J.J.J.J.J.J.J.J.J.J.J.J.J.J.J.N M ~ { V.kXZXZXVXVXVXVXZXZXZXZXZXxX:XB.z.Y.vXZXvXT.B.c.F J.J.J.J.J.J.J.J.J.J.J.J.J.J.J.J.",
"J.J.J.J.J.J.J.J.J.J.J.J.J.J.J.J.J.J.J.b x { !.NXZXVXVXVXVXZXVXZXZXZXZXZXZXNX>XkXCXBXZXZXCX!.D z J.J.J.J.J.J.J.J.J.J.J.J.J.J.J.J.",
"J.J.J.J.J.J.J.J.J.J.J.J.J.J.J.J.J.J.J.J.N OXqXCXZXVXVXZXZXZXZXZXZXZXZXZXZXZXCXVXVXVXVXZXZX~.v J.J.J.J.J.J.J.J.J.J.J.J.J.J.J.J.J.",
"J.J.J.J.J.J.J.J.J.J.J.J.J.J.J.J.J.J.J.J.V -XfXCXZXVXVXVXZXZXZXZXZXZXVXVXZXZXZXVXZXZXZXZXZX~.v J.J.J.J.J.J.J.J.J.J.J.J.J.J.J.J.J.",
"J.J.J.J.J.J.J.J.J.J.J.J.J.J.J.J.J.J.J.J.` -XqXCXZXVXVXVXwX_.#X0XVXZXVXZXZXZXZXZXNX8X#X8XNXW.z J.J.J.J.J.J.J.J.J.J.J.J.J.J.J.J.J.",
"J.J.J.J.J.J.J.J.J.J.J.J.J.J.J.J.J.J.J.J.Y +XqXCXZXZXZXZXL.# 1 :.mXZXZXZXZXZXZXZXsXB 1 B sXR.8 J.J.J.J.J.J.J.J.J.J.J.J.J.J.J.J.J.",
"J.J.J.J.J.J.J.J.J.J.J.J.J.J.J.J.J.J.J.J.U @XaXZXVXZXCXVXT.# j k.MXZXZXZXZXZXZXZXsXB 1 B wXR.8 J.J.J.J.J.J.J.J.J.J.J.J.J.J.J.J.J.",
"J.J.J.J.J.J.J.J.J.J.J.J.J.J.J.J.J.J.J.J.V +XaXZXZXVXVXbXL.: x -.nXVXZXZXZXZXZXZXzXv.$.,.gXW.8 J.J.J.J.J.J.J.J.J.J.J.J.J.J.J.J.J.",
"J.J.J.J.J.J.J.J.J.J.J.J.J.J.J.J.J.J.J.J.U oXpXCXZXZXbXuXL.& 7 =.mXVXVXBXVXVXBXVXZXCXZXCXZXW.l J.J.J.J.J.J.J.J.J.J.J.J.J.J.J.J.J.",
"J.J.J.J.J.J.J.J.J.J.J.J.J.J.J.J.J.J.J.J.W ] V.kXVXZXVXuX=XE.).8XVXZXvX/.Q.(.(.(.(./.9XZXZXW.c J.J.J.J.J.J.J.J.J.J.J.J.J.J.J.J.J.",
"J.J.J.J.J.J.J.J.J.J.J.J.J.J.J.J.J.J.J.J.J.j l.hXCXCXVXcXcXvXBXVXBXuX|.E.Q.U.].].Q.].^.#XBX~.n J.J.J.J.J.J.J.J.J.J.J.J.J.J.J.J.J.",
"J.J.J.J.J.J.J.J.J.J.J.J.J.J.J.J.J.J.J.J.J.4 k.-XjXNXVXZXCXVXZXVXvXI.C.uXtXrXyXyXtXlX{.V.qXW.J.J.J.J.J.J.J.J.J.J.J.J.J.J.J.J.J.J.",
"J.J.J.J.J.J.J.J.J.J.J.J.J.J.J.J.J.J.J.J.J.J.c Y R.qXCXZXZXZXZXuXI.|.<XiXyXiXyXyXyXtX<X{.W K J.J.J.J.J.J.J.J.J.J.J.J.J.J.J.J.J.J.",
"J.J.J.J.J.J.J.J.J.J.J.J.J.J.J.J.J.J.J.J.J.J.5 l  .b.Y.qXkXZXZXqXP.>XlX{.eXiXiXyXtXtX{.*.; J.J.J.J.J.J.J.J.J.J.J.J.J.J.J.J.J.J.J.",
"J.J.J.J.J.J.J.J.J.J.J.J.J.J.J.J.J.J.J.J.J.J.z m x l N H.:XhXlX:XD.-X;Xn.1XtX7X6X<X;Xm.& J.J.J.J.J.J.J.J.J.J.J.J.J.J.J.J.J.J.J.J.",
"J.J.J.J.J.J.J.J.J.J.J.J.J.J.J.J.J.J.J.J.J.% ] H./ x m H Y Y R ` G { a.a.n.n.n.;.Y Z W :.J.J.J.J.J.J.J.J.J.J.J.J.J.J.J.J.J.J.J.J.",
"J.J.J.J.J.J.J.J.J.J.J.J.J.J.J.J.J.J.J.J.J.* ;.-XF.D.G.k.U j 3 3 , k A +.2.3.3.5.{ k V :.J.J.J.J.J.J.J.J.J.J.J.J.J.J.J.J.J.J.J.J.",
"J.J.J.J.J.J.J.J.J.J.J.J.J.J.J.J.J.J.J.J.J., k.:X>XkXMX*Xz.V Y U n n K h 8.9.q.r.w.B 0 J.J.J.J.J.J.J.J.J.J.J.J.J.J.J.J.J.J.J.J.J.",
"J.J.J.J.J.J.J.J.J.J.J.J.J.J.J.J.J.J.J.J.J.c k.4XNXVXVXCX0X~.OXoXoXOXQ.2.8.0.0.e..X/.>.J.J.J.J.J.J.J.J.J.J.J.J.J.J.J.o o J.J.J.J.",
"J.J.J.J.J.J.J.J.J.J.J.J.J.J.J.J.J.J.J.J.Y B.oXkXZXVXVXCXnXuXgXkXkXpX*X2.1.7.9.q.r.O.y = & O o . . # % * 2 = - J.J.J.. q P - J.J.",
"J.J.J.J.J.J.J.J.J.J.J.J.J.J.J.J.J.J.J.J.Y +XhXZXZXZXBXgXxXZXZXNXhX@XR.o.s f 1.8.w.u > t t r @ X @ + & % * * % ; J.J.6 K %.: J.J.",
"J.J.J.J.J.J.J.v v 8 J.J.J.J.J.J.J.J.J.J.^ +XhXZXZXZXMXP.R.kXnX0XB.T 8 & X X X X @ I h <.h d d d d d p q q q q % q Z Z ] } b 6 J.",
"J.J.J.J.J.J.l | i.x J.J.J.J.J.J.J.J.J.l H -XhXZXVXZXMX>.U P E ] e q q q q q 0 e e q h 2.2.d S y i o.o.q e q q q 7 8 l b b 2 2 J.",
"J.J.J.J.J.l ~ s.s.D J.J.J.J.J.J.J.J.n c H H.:XCXVXZXBXT.W , 9 q q q q q q q q q e e g p a S / / R ! S q > > 6 0 2 < , = = J.J.J.",
"J.J.J.J.$ M t.d.s.~ l J.J.J.J.J.J.T 8 8 A } Y.NXZXCXZXCX~.b q q q q q q q q q q e q ; O n ' s.h.i./ 6 o . o o J.J.J.J.J.J.J.J.J.",
"J.J.J.J., ^ d.j.g.d.A J.J.J.J.J.J.w ; y Q Q 4.0XCXZXZXZX^.U q q q q q % * < < ; = * o 6 !.S.s.h.i./ J.J.J.J.J.J.J.J.J.J.J.J.J.J.",
"J.J.J.J.$ ~ d.g.j.d.F J.J.J.J.J.Z y u a h s &.C.aXmXZXZX^.^ H w q q # # 7 y 6 ; 0 ,.X.9 &X+XK.+XD.b J.J.J.J.J.J.J.J.J.J.J.J.J.J.",
"J.J.J.J., F d.d.g.d.F J.J.J.J.7 L 2.d h h d L ' G.&XfXhX!.^ ' U P J J K K q q q e _.M.: W.+XXX>XV.. J.J.J.J.J.J.J.J.J.J.J.J.J.J.",
"J.J.J.J., m _ d.d.d.F J.J.J.J.Z L d h h d d S 4 k ` c.c.h.a.F =.jX=X=XdX*.  e q q O . % 6 w 9 9 - . J.J.J.J.J.J.J.J.J.J.J.J.J.J.",
"J.J.J.J.J.5 F _ t./ J.J.J.J.Z Z L o.d s a u } C.Y.!.H.u.^ V ` 4.,X,XtXiX@.e e e q q - > ! E J.J.J.J.J.J.J.J.J.J.J.J.J.J.J.J.J.J.",
"J.J.J.J.J.- l ~ ~ j J.J.J.J.J.; i i a u u +.R.fXCXgX#Xz.V e @.5.`.rXiXyX,.e > e q q e w ] J.J.J.J.J.J.J.J.J.J.J.J.J.J.J.J.J.J.J.",
"J.J.J.J.J.J.z j v A J.J.J.J.J.J.; O % & W jXCXCXCXZXNXnX#X,.5.A.[.rXyXyXeXQ.+ X q q q R c 5 J.J.J.J.J.J.J.J.J.J.J.J.J.J.J.J.J.J.",
"J.J.J.J.J.J.J.1 -.&XR * 4 4 5 7 -.z.1 :.~.B.B.G.xXZXZXZXvX X`.A.'.rXrXyX|.U.I.+.> q I b ] G J.J.J.J.J.J.J.J.J.J.J.J.J.J.J.J.J.J.",
"J.J.J.J.J.J.J.J =.R.x.l.x.x.x.x.XX+X9 M.qXY C ` aXZXZXVXZXcXU.6.`.rX,X`.`.].iXU.+.+.e 0 Y.z.- J.J.J.J.J.J.J.J.J.J.J.J.J.J.J.J.J.",
"J.J.J.J.J.J.J.J.E w XX6X6X4X4X7X6X!.1 P.0XV M ` 0XZXZXZXZXNXN.4.`.rX|.o.].yXiXiX|.e . B sXE.: J.J.J.J.J.J.J.J.J.J.J.J.J.J.J.J.J.",
"J.J.J.J.J.J.J.J.J.J.] R R R R R R J # M.nX8X*X*XNXVXBXZXZXNXC.4.`. XrX|.eXiXyXrX X{.C.=.kXE.> J.J.J.J.J.J.J.J.J.J.J.J.J.J.J.J.J.",
"J.J.J.J.J.J.J.J.J.J.J.J.J.J.J.J.J.J.J.:.L.bXZXZXZXZXZXZXZXNXC.4.`. X,XiX|.|.rXrX<XQ.XX!.mXE.: J.J.J.J.J.J.J.J.J.J.J.J.J.J.J.J.J.",
"J.J.J.J.J.J.J.J.J.J.J.J.J.J.J.J.J.J.J.: e wXCXZXZXZXZXZXCXvXI.5.`.[.}.tX].Z. X<X;X&.D.5XMXR.6 J.J.J.J.J.J.J.J.J.J.J.J.J.J.J.J.J.",
"J.J.J.J.J.J.J.J.J.J.J.J.J.J.J.J.J.J.J.0 e #XnXCXZXVXZXZX8XM.Q.{.}.}.[.A.|.,X,X].N.{.%X5X4XB.7 J.J.J.J.J.J.J.J.J.J.J.J.J.J.J.J.J.",
"J.J.J.J.J.J.J.J.J.J.J.J.J.J.J.J.J.J.J.J V :XpXnXBXZXZXZX/.e W %.Q &.Q S Q &.&.N.$X5X5X3X3XXXD.G J.J.J.J.J.J.J.J.J.J.J.J.J.J.J.J.",
"J.J.J.J.J.J.J.J.J.J.J.J.J.J.J.J.J.J.J.] ] 2X4X4XnXMXNXgXP.# 9 9 7 < < = * # 2 m.%X%X%X3X3X2X1Xp.Z J.J.J.J.J.J.J.J.J.J.J.J.J.J.J.",
"J.J.J.J.J.J.J.J.J.J.J.J.J.J.J.J.J.J.J.k.+X5XdX4X>X4X-X#.J #.>.J.J.J.J.J.J.J.=.#.Z v x.3X3X1Xn.f.' J.J.J.J.J.J.J.J.J.J.J.J.J.J.J.",
"J.J.J.J.J.J.J.J.J.J.J.J.J.J.J.J.J.J.$ k.4XlXMXhXm.k.-.n J.J.J.J.J.J.J.J.J.J.J.J.J.* T k.D.S.f.i./ ; J.J.J.J.J.J.J.J.J.J.J.J.J.J.",
"J.J.J.J.J.J.J.J.J.J.J.J.J.J.J.J.J.J., k.%XpXhX0X] x j J.J.J.J.J.J.J.J.J.J.J.J.J.J.J.J.3 / i.| / D J.J.J.J.J.J.J.J.J.J.J.J.J.J.J.",
"J.J.J.J.J.J.J.J.J.J.J.J.J.J.J.J.J.J.4 H | n.k.{ H.c.l J.J.J.J.J.J.J.J.J.J.J.J.J.J.J.J.J.J.m m J.J.J.J.J.J.J.J.J.J.J.J.J.J.J.J.J.",
"J.J.J.J.J.J.J.J.J.J.J.J.J.J.J.J.J.J.J.l M M M v p. .J.J.J.J.J.J.J.J.J.J.J.J.J.J.J.J.J.J.J.J.J.J.J.J.J.J.J.J.J.J.J.J.J.J.J.J.J.J.",
"J.J.J.J.J.J.J.J.J.J.J.J.J.J.J.J.J.J.J.J.5 j 3 3 < J.J.J.J.J.J.J.J.J.J.J.J.J.J.J.J.J.J.J.J.J.J.J.J.J.J.J.J.J.J.J.J.J.J.J.J.J.J.J.",
"J.J.J.J.J.J.J.J.J.J.J.J.J.J.J.J.J.J.J.J.J.J.J.J.J.J.J.J.J.J.J.J.J.J.J.J.J.J.J.J.J.J.J.J.J.J.J.J.J.J.J.J.J.J.J.J.J.J.J.J.J.J.J.J.",
"J.J.J.J.J.J.J.J.J.J.J.J.J.J.J.J.J.J.J.J.J.J.J.J.J.J.J.J.J.J.J.J.J.J.J.J.J.J.J.J.J.J.J.J.J.J.J.J.J.J.J.J.J.J.J.J.J.J.J.J.J.J.J.J.",
"J.J.J.J.J.J.J.J.J.J.J.J.J.J.J.J.J.J.J.J.J.J.J.J.J.J.J.J.J.J.J.J.J.J.J.J.J.J.J.J.J.J.J.J.J.J.J.J.J.J.J.J.J.J.J.J.J.J.J.J.J.J.J.J.",
"J.J.J.J.J.J.J.J.J.J.J.J.J.J.J.J.J.J.J.J.J.J.J.J.J.J.J.J.J.J.J.J.J.J.J.J.J.J.J.J.J.J.J.J.J.J.J.J.J.J.J.J.J.J.J.J.J.J.J.J.J.J.J.J.",
"J.J.J.J.J.J.J.J.J.J.J.J.J.J.J.J.J.J.J.J.J.J.J.J.J.J.J.J.J.J.J.J.J.J.J.J.J.J.J.J.J.J.J.J.J.J.J.J.J.J.J.J.J.J.J.J.J.J.J.J.J.J.J.J."
};
