/* XPM */
static char *right_milka[] = {
/* columns rows colors chars-per-pixel */
"64 64 240 2 ",
"   c #1B041A",
".  c #240607",
"X  c #27051A",
"o  c #37181A",
"O  c #1A0422",
"+  c #1C022C",
"@  c #1C0632",
"#  c #250425",
"$  c #290626",
"%  c #25032B",
"&  c #250B2D",
"*  c #2B0C2B",
"=  c #320A2A",
"-  c #29152B",
";  c #361828",
":  c #250434",
">  c #2C0434",
",  c #230B32",
"<  c #2C0A35",
"1  c #250139",
"2  c #2C043B",
"3  c #2D093A",
"4  c #34093A",
"5  c #2E1536",
"6  c #2E163B",
"7  c #361837",
"8  c #39232E",
"9  c #362638",
"0  c #43192A",
"q  c #441E32",
"w  c #43253C",
"e  c #512730",
"r  c #5E3135",
"t  c #6A3435",
"y  c #7B5226",
"u  c #7A4433",
"i  c #2D0344",
"p  c #2F004A",
"a  c #320444",
"s  c #330D43",
"d  c #35044C",
"f  c #38084C",
"g  c #390B4C",
"h  c #2F1C41",
"j  c #371844",
"k  c #3B134C",
"l  c #3A0453",
"z  c #3D0D53",
"x  c #3A045B",
"c  c #3D1252",
"v  c #3E1656",
"b  c #3C2944",
"n  c #3F0463",
"m  c #421848",
"M  c #410A59",
"N  c #420C5B",
"B  c #451958",
"V  c #491B5C",
"C  c #501050",
"Z  c #462749",
"A  c #5C2748",
"S  c #4B3549",
"D  c #5A384A",
"F  c #4B2553",
"G  c #4B265B",
"H  c #54275C",
"J  c #4D3554",
"K  c #593B57",
"L  c #683647",
"P  c #6B3253",
"I  c #470A66",
"U  c #491465",
"Y  c #4C1B64",
"T  c #54176B",
"R  c #4F1173",
"E  c #531372",
"W  c #571A7A",
"Q  c #4D2662",
"!  c #532567",
"~  c #542A64",
"^  c #57266E",
"/  c #593566",
"(  c #5F3969",
")  c #592778",
"_  c #5C3775",
"`  c #68306C",
"'  c #653778",
"]  c #564854",
"[  c #55465A",
"{  c #5D4C5D",
"}  c #67484A",
"|  c #774747",
" . c #674256",
".. c #77505B",
"X. c #5E4766",
"o. c #5D5163",
"O. c #664667",
"+. c #68556A",
"@. c #6A4776",
"#. c #704D71",
"$. c #7A5978",
"%. c #74616C",
"&. c #786676",
"*. c #834735",
"=. c #936D2B",
"-. c #8A504E",
";. c #8D5852",
":. c #86664E",
">. c #815F74",
",. c #88667C",
"<. c #C19827",
"1. c #EAC53E",
"2. c #CFAB44",
"3. c #E8C963",
"4. c #F8E079",
"5. c #5A1882",
"6. c #631E8C",
"7. c #5F2A83",
"8. c #672987",
"9. c #6F2F8F",
"0. c #6A3C83",
"q. c #6A3588",
"w. c #73398A",
"e. c #6B2894",
"r. c #722B98",
"t. c #783B97",
"y. c #7C39A3",
"u. c #764787",
"i. c #73488B",
"p. c #775787",
"a. c #794596",
"s. c #7A6D83",
"d. c #823BAA",
"f. c #853CB3",
"g. c #925F87",
"h. c #82489D",
"j. c #855796",
"k. c #856789",
"l. c #827087",
"z. c #987A89",
"x. c #896796",
"c. c #946899",
"v. c #8C7795",
"b. c #96759B",
"n. c #A37296",
"m. c #8C59A5",
"M. c #9453A8",
"N. c #936EA7",
"B. c #956CA4",
"V. c #9B78AA",
"C. c #A272AD",
"Z. c #A47CB9",
"A. c #B377C2",
"S. c #FF50FF",
"D. c #988893",
"F. c #AD8F99",
"G. c #9B86A7",
"H. c #A486A9",
"J. c #A997AA",
"K. c #B798A6",
"L. c #A886B9",
"P. c #B387B3",
"I. c #B29AB9",
"U. c #AFA2B0",
"Y. c #BAA8BA",
"T. c #BCB5BB",
"R. c #D1B687",
"E. c #CB92AD",
"W. c #CCA5B5",
"Q. c #CCAFB8",
"!. c #D6A7B7",
"~. c #E2AFBC",
"^. c #F4DDA9",
"/. c #AF87C1",
"(. c #B388C4",
"). c #B695C5",
"_. c #B693C9",
"`. c #BC9CCA",
"'. c #BDA9C7",
"]. c #CE94CC",
"[. c #C39DC9",
"{. c #CA9ADB",
"}. c #C4A5C9",
"|. c #C7B7C9",
" X c #C6B5CD",
".X c #D5B9C9",
"XX c #C8A5D5",
"oX c #CEABDA",
"OX c #D4ABDB",
"+X c #CCB2D5",
"@X c #CDB5DA",
"#X c #D5B9DA",
"$X c #EBB5CE",
"%X c #E8B9C8",
"&X c #CC9CE4",
"*X c #D4A9E6",
"=X c #D8B6E5",
"-X c #DEB7F5",
";X c #E0BEE4",
":X c #E6BCF6",
">X c #CAC3CA",
",X c #CEC6D2",
"<X c #D4C7D6",
"1X c #DAD2DD",
"2X c #F4C5CC",
"3X c #F9C7CA",
"4X c #FDCBCC",
"5X c #E8C5D3",
"6X c #F6C8D4",
"7X c #FBCDD2",
"8X c #E8D5DA",
"9X c #F9D3DA",
"0X c #DFE4DD",
"qX c #DBC3E4",
"wX c #DDC9E5",
"eX c #DDD2E1",
"rX c #E3CDE8",
"tX c #E2D3E4",
"yX c #E4D3EB",
"uX c #E7D9E9",
"iX c #EADEE9",
"pX c #FBDAE4",
"aX c #F3CFF0",
"sX c #ECD4F1",
"dX c #EDDBF3",
"fX c #EBE2E6",
"gX c #EAE4EA",
"hX c #EDE9E9",
"jX c #F0EAEE",
"kX c #F9EEEC",
"lX c #F9F3EC",
"zX c #EFE6F1",
"xX c #F3ECF3",
"cX c #F6E9F7",
"vX c #FAEDFC",
"bX c #F5F3F6",
"nX c #FBF6F5",
"mX c #FCFEF6",
"MX c #FCF4FC",
"NX c #FEFDFB",
/* pixels */
"S.S.S.S.S.S.S.S.S.S.S.S.S.S.S.S.S.S.S.S.S.S.S.S.S.S.S.S.S.S.S.S.S.S.S.S.S.S.S.S.S.S.S.S.S.S.S.S.S.S.S.S.S.S.S.S.S.S.S.S.S.S.S.S.",
"S.S.S.S.S.S.S.S.S.S.S.S.S.S.S.S.S.S.S.S.S.S.S.S.S.S.S.S.S.S.S.S.S.S.S.S.S.S.S.S.S.S.S.S.S.S.S.S.S.S.S.S.S.S.S.S.S.S.S.S.S.S.S.S.",
"S.S.S.S.S.S.S.S.S.S.S.S.S.S.S.S.S.S.S.S.S.S.S.S.S.S.S.S.S.S.S.S.S.S.S.S.S.S.S.S.S.S.S.S.S.S.S.S.S.S.S.S.S.S.S.S.S.S.S.S.S.S.S.S.",
"S.S.S.S.S.S.S.S.S.S.S.S.S.S.S.S.S.S.S.S.S.S.S.S.S.S.S.S.S.S.S.S.S.S.S.S.S.S.S.S.S.S.S.S.S.S.S.S.S.S.S.S.S.S.S.S.S.S.S.S.S.S.S.S.",
"S.S.S.S.S.S.S.S.S.S.S.S.S.S.S.S.S.S.S.S.S.S.S.S.S.S.S.S.S.S.S.S.S.S.S.S.S.S.S.S.S.S.S.S.S.S.S.S.S.S.S.S.S.S.S.S.S.S.S.S.S.S.S.S.",
"S.S.S.S.S.S.S.S.S.S.S.S.S.S.S.S.S.S.S.S.S.S.S.S.S.S.S.S.S.S.S.S.S.S.S.S.S.S.S.S.S.S.S.S.S.S.S.S.S.S.S.S.S.S.S.S.S.S.S.S.S.S.S.S.",
"S.S.S.S.S.S.S.S.S.S.S.S.S.S.S.S.S.S.S.S.S.S.S.S.S.S.S.S.S.S.S.S.S.S.S.S.S.S.S.S.S.S.S.S.S.S.S.S.S.S.S.S.S.S.S.S.S.S.S.S.S.S.S.S.",
"S.S.S.S.S.S.S.S.S.S.S.S.S.S.S.S.S.S.S.S.S.S.S.S.S.S.S.S.S.S.# & < 3 < ( ( ( S.S.S.S.S.S.S.S.S.S.S.S.S.S.S.S.S.S.S.S.S.S.S.S.S.S.",
"S.S.S.S.S.S.S.S.S.S.S.S.S.S.S.S.S.S.S.S.S.S.S.S.S.S.S.S.7 O.k.l.l.l.l.I.|.( S.S.S.S.S.S.S.S.S.S.S.S.S.S.S.S.S.S.S.S.S.S.S.S.S.S.",
"S.S.S.S.S.S.S.S.S.S.S.S.S.S.S.Y U B 7 S.S.S.S.S.S.S.b K J z.bXNXNXNXNXNX1XO.S S.S.S.S.S.W W ^ S.S.S.S.S.S.S.S.S.S.S.S.S.S.S.S.S.",
"S.S.S.S.S.S.S.S.S.S.S.S.S.S.f 8.y.w.B > < 6 6 5 5 - +.iXfXhXNXNXmXNXNXNXMX1X[ & < S.S.B r.M.t.f S.S.S.S.S.S.S.S.S.S.S.S.S.S.S.S.",
"S.S.S.S.S.S.S.S.S.S.S.S.S.S.M R e.d.9.7.' I. X|.|.|.1XNXNXNXNXmXmXmXmXNXNXnX,XH.0.`..X).9.t.a.f S.S.S.S.S.S.S.S.S.S.S.S.S.S.S.S.",
"S.S.S.S.S.S.S.S.S.S.S.S.S.S.d I 5.9.y.t.a.L.tXNXNXNXNXNXNXNXNXmXNXNXNXNXNXmXNX=Xa.A.`.{.e.9.t.f S.S.S.S.S.S.S.S.S.S.S.S.S.S.S.S.",
"S.S.S.S.S.S.S.S.S.S.S.S.S.S.S.N R W e.r.7.Q L.dXeXxXmXmXmXNXmXNXxXtXyXtXuXmXNX#X8.h.h.a.5.8.q.f S.S.S.S.S.S.S.S.S.S.S.S.S.S.S.S.",
"S.S.S.S.S.S.S.S.S.S.S.S.S.S.S.S.U T E R R B a./.p.|.NXNXNXmXmXNX|.$.a.i.b.cXMX+X_ qXI.v R U s S.S.S.S.S.S.S.S.S.S.S.S.S.S.S.S.S.",
"S.S.S.S.S.S.S.S.S.S.S.S.S.S.S.S.S.N U R W /.V.x. XgXNXNXNXNXNXNXiX}.L.G.I.@XV.H.|.nXI.f x Q S.S.S.S.S.S.S.S.S.S.S.S.S.S.S.S.S.S.",
"S.S.S.S.S.S.S.S.S.S.S.S.S.S.S.S.S.S.N N Y C.V.G.vXNXNXNXNXNXNXNXNXbXuXyXyX'.V.Y.MXNX<Xx.z j S.S.S.S.S.S.S.S.S.S.S.S.S.S.S.S.S.S.",
"S.S.S.S.S.S.S.S.S.S.S.S.S.S.S.S.S.S.S.a f k $. XbXNXmXmXmXmXmXmXNXNXmXNXdXI.eXNXmXNXNXwXG > S.S.S.S.S.S.S.S.S.S.S.S.S.S.S.S.S.S.",
"S.S.S.S.S.S.S.S.S.S.S.S.S.S.S.S.S.S.S.i c Z.qXxXNXmXmXmXNXmXmXmXNXNXmXmXbXgXbXmXmXNXNXtXG 2 S.S.S.S.S.S.S.S.S.S.S.S.S.S.S.S.S.S.",
"S.S.S.S.S.S.S.S.S.S.S.S.S.S.S.S.S.S.S.2 k (.dXNXNXNXNXmXmXNXNXNXNXNXmXmXNXNXNXNXNXNXNXtX! a S.S.S.S.S.S.S.S.S.S.S.S.S.S.S.S.S.S.",
"S.S.S.S.S.S.S.S.S.S.S.S.S.S.S.S.S.S.S.@ s Z.sXNXNXNXNXmXNX0X'.xXNXmXmXmXmXNXNX0XT.Y.,XrX~ a S.S.S.S.S.S.S.S.S.S.S.S.S.S.S.S.S.S.",
"S.S.S.S.S.S.S.S.S.S.S.S.S.S.S.S.S.S.S.S.f L.sXNXNXNXNXmXjXD.b ,XNXmXmXNXNXmXNX'.6 , %.rX~ a S.S.S.S.S.S.S.S.S.S.S.S.S.S.S.S.S.S.",
"S.S.S.S.S.S.S.S.S.S.S.S.S.S.S.S.S.S.S.S.f L.yXNXNXNXNXjX+.h h <XNXmXNXNXNXNXmXT.-   %.rX~ S.S.S.S.S.S.S.S.S.S.S.S.S.S.S.S.S.S.S.",
"S.S.S.S.S.S.S.S.S.S.S.S.S.S.S.S.S.S.S.S.k A.sXNXmXNXnXuX[ @ 6 ,XNXNXNXNXNXNXbX0XU.J.'.tXH S.S.S.S.S.S.S.S.S.S.S.S.S.S.S.S.S.S.S.",
"S.S.S.S.S.S.S.S.S.S.S.S.S.S.S.S.S.S.S.S.v N.wXNXmXmXkX5X$.J [ 1XNXnXfXiXfXfXfX0XhXmXNXtXF S.S.S.S.S.S.S.S.S.S.S.S.S.S.S.S.S.S.S.",
"S.S.S.S.S.S.S.S.S.S.S.S.S.S.S.S.S.S.S.S.S.s G.NXNXmXkX8X9XiXxXmXmX8Xz.z.z.z.z.D.F.fXNXtXF S.S.S.S.S.S.S.S.S.S.S.S.S.S.S.S.S.S.S.",
"S.S.S.S.S.S.S.S.S.S.S.S.S.S.S.S.S.S.S.S.S.3 p.wXvXNXlXlXnXnXNXNX1XK.W.W.W.!.!.W.Q.U.>XtXF S.S.S.S.S.S.S.S.S.S.S.S.S.S.S.S.S.S.S.",
"S.S.S.S.S.S.S.S.S.S.S.S.S.S.S.S.S.S.S.S.S.S.~ p.+XzXNXNXNXNXbXT.K.W.6X7X4X7X7X7X6XW.F.x.F S.S.S.S.S.S.S.S.S.S.S.S.S.S.S.S.S.S.S.",
"S.S.S.S.S.S.S.S.S.S.S.S.S.S.S.S.S.S.S.S.S.S.3 v B.[.yXvXMXNXhX&.F.aX~.%X4X4X4X7X%X!.$.* S.S.S.S.S.S.S.S.S.S.S.S.S.S.S.S.S.S.S.S.",
"S.S.S.S.S.S.S.S.S.S.S.S.S.S.S.S.S.S.S.S.S.S.S.f z ^ x.+XuXvXiXk.C.$Xg.E.6X6X6X.Xn.m 4 S.S.S.S.S.S.S.S.S.S.S.S.S.S.S.S.S.S.S.S.S.",
"S.S.S.S.S.S.S.S.S.S.S.S.S.S.S.S.S.S.S.S.S.S.S.z d M V ( O.#.@.Q ,.M.h.j.c.g.O.K F 5 S.S.S.S.S.S.S.S.S.S.S.S.S.S.S.S.& S.S.S.S.S.",
"S.S.S.S.S.S.S.S.S.S.S.S.S.S.S.S.S.S.S.S.S.S.S.B ' ) Y : : 1 p l E e.8.` -.|  .Z + O S.S.S.S.S.S.S.S.S.S.S.S.S.S.S.3 > > S.S.S.S.",
"S.S.S.S.S.S.S.S.S.S.S.S.S.S.S.S.S.S.S.S.S.S.S.! `.oXG.v v v U U T T s *.<.2.^.F.Z - S.S.S.S.S.S.S.S.S.S.7 < = S.= 4 4 m S.S.S.S.",
"S.S.S.S.S.S.S.S.S.S.S.S.S.S.S.S.S.S.S.S.S.S.S.H ).zXxXeX'./.)._.(.P.K y <.1.4.^.Q.8 S.S.S.* = = X X X D ` w > X ; ..$.O.* S.S.S.",
"S.S.S.S.S.S.S.S.S.S.S.S.S.S.S.S.S.S.S.S.S.S.' H.wXMXmXNXxXzXdXyXrXoXC.;.=.<.3.R.%.5   . . e L L L L L ..%.O.o.P q 7 w Z S.S.S.S.",
"S.S.S.S.S.S.S.S.S.S.S.S.S.S.S.S.S.S.S.S.S.a h.OXMXmXmXNXNXNXNXNX#Xk.c...u y =.:.w 7 ; 8 o r | -.;.-.L D K K 9 7 7 * # # S.S.S.S.",
"S.S.S.S.S.S.S.S.S.S.S.S.S.S.S.S.S.S.S.S.S.i w.oXvXmXmXNXxXzXhXhXD.    X . . . o { } } ..L t A P P P 4 > % #       S.S.S.S.S.S.S.",
"S.S.S.S.S.S.S.S.S.S.S.S.S.S.S.S.S.S.S.S.S.i w.oXvXNXNXxXV.@.X.J ] { o.] ] { { { { } } | A ` ` e.8.E d = S.S.S.S.S.S.S.S.S.S.S.S.",
"S.S.S.S.S.S.S.S.S.S.S.S.S.S.S.S.S.S.S.S.S.i i.oXvXNXNXxXX.s Z 5 ] o.] ] ] ] ] {  .; o w T ) 8.e.8.R d S.S.S.S.S.S.S.S.S.S.S.S.S.",
"S.S.S.S.S.S.S.S.S.S.S.S.S.S.S.S.S.S.S.S.S.d _ L.yXbXNXbXs.J ( H { ] ] { { { { { ; S w m h.m.m.m.T a S.S.S.S.S.S.S.S.S.S.S.S.S.S.",
"S.S.S.S.S.S.S.S., 3 s < S.S.S.S.S.S.S.* 4 U I H (.rXvXMXcXI.~ c 6 { ] & # % $ X - Y.L.i.XX;X;X<X( S.S.S.S.S.S.S.S.S.S.S.S.S.S.S.",
"S.S.S.S.S.S.S.6 s Y q.c S.S.S.S.S.S.5 = 4 C C | P b..XvXMX+X_ ) B > ] > j (  .w - '.`.q.! F Z w S.S.S.S.S.S.S.S.S.S.S.S.S.S.S.S.",
"S.S.S.S.S.S.S.s I e.d.I S.S.S.S.S.* D L P A t -.P K @.L._.C.q.Q ~ @.k.c.l.r ] ] 9 +.G.L.V >   S.S.S.S.S.S.S.S.S.S.S.S.S.S.S.S.S.",
"S.S.S.S.S.S.S.a R r.f.5.c S.S.S.S.#  .;.-.*.*.*.e F _ i.) q.q.: O.}.5XpX<X} 9 S ] 8 [ J.B 2 S.S.S.S.S.S.S.S.S.S.S.S.S.S.S.S.S.S.",
"S.S.S.S.S.S.S.d R e.f.y.Y + S.S.S.$ t *.*.*.u e 4 N.@X+X@.F Q O s.vX9X6X6X!.D o o.+.w - i 3 S.S.S.S.S.S.S.S.S.S.S.S.S.S.S.S.S.S.",
"S.S.S.S.S.S.S.l R e.y.y.U : S.S.S.$ r t u t e 0 s.@XvXxX1Xv.@ O +..X4X3X3X%X.XG.9 { o.S 4 S.S.S.S.S.S.S.S.S.S.S.S.S.S.S.S.S.S.S.",
"S.S.S.S.S.S.S.d x 5.t.8.U @ S.S.S.X 0 e 0 0 A n.,XzXNXNXNX>X&.+.,.!.2X4X4X2XW.J.&.9 8 6 3 S.S.S.S.S.S.S.S.S.S.S.S.S.S.S.S.S.S.S.",
"S.S.S.S.S.S.S.S.i v ) 0.Q : S.S.S.S.$ X $ > $..XwXeXuXNXmXmXbXQ.K.!.2X3X3X%XF.E.5XD 5 2 p S.S.S.S.S.S.S.S.S.S.S.S.S.S.S.S.S.S.S.",
"S.S.S.S.S.S.S.S.: , k `.p.5 S.S.S.h h 6 s v V.=X' ) x.NXNXNXmXnX<XE.4X~.E.F.5XpX4X~.Z.w.N S.S.S.S.S.S.S.S.S.S.S.S.S.S.S.S.S.S.S.",
"S.S.S.S.S.S.S.S.S.S.J [ G.J.@ + @ @ v.,X`._ V.OXU x p.NXNXNXmXNX|.,.7X9X7X5XpX9X4X$X].t.M S.S.S.S.S.S.S.S.S.S.S.S.S.S.S.S.S.S.S.",
"S.S.S.S.S.S.S.S.S.S.S.  O.v.p.p.p.p. X Xs.v p.}.x.s.J.NXmXmXNXNX|.&.~.3X2X9X.X~.$XE.A.M.N S.S.S.S.S.S.S.S.S.S.S.S.S.S.S.S.S.S.S.",
"S.S.S.S.S.S.S.S.S.S.S.S.O b L.'.}.`.`.p.i 1 _ L.sXMXNXNXNXmXmXNX X,.~.!.E.$XE.E.E.M.A.{.V S.S.S.S.S.S.S.S.S.S.S.S.S.S.S.S.S.S.S.",
"S.S.S.S.S.S.S.S.S.S.S.S.S.& 5 6 j j m k c i i Q `.dXMXNXNXNXmXNX Xg.!.!.E.n.%X].` {.:X{.V S.S.S.S.S.S.S.S.S.S.S.S.S.S.S.S.S.S.S.",
"S.S.S.S.S.S.S.S.S.S.S.S.S.S.S.S.S.S.S.S.S.S.1 G `.=XyXNXNXNXbXqXV.H >.` ` B ' c.].-XL.' k S.S.S.S.S.S.S.S.S.S.S.S.S.S.S.S.S.S.S.",
"S.S.S.S.S.S.S.S.S.S.S.S.S.S.S.S.S.S.S.S.S.S.S.Q &X&X*XaXcXzX=Xx.! a 2 ~ i.u.' B.:XL./   S.S.S.S.S.S.S.S.S.S.S.S.S.S.S.S.S.S.S.S.",
"S.S.S.S.S.S.S.S.S.S.S.S.S.S.S.S.S.S.S.S.S.S.S.^ &X-X*X=X*XXXV.B 2 4 > c.-X&X&XOXXXQ + S.S.S.S.S.S.S.S.S.S.S.S.S.S.S.S.S.S.S.S.S.",
"S.S.S.S.S.S.S.S.S.S.S.S.S.S.S.S.S.S.S.S.S.S.S.^ *X-X=X*Xu.G F S.S.S.% B.:X*XaX`.G s S.S.S.S.S.S.S.S.S.S.S.S.S.S.S.S.S.S.S.S.S.S.",
"S.S.S.S.S.S.S.S.S.S.S.S.S.S.S.S.S.S.S.S.S.S.S.! oXdXdXrX~ 2 S.S.S.S.% ` M.a.j.a.) z S.S.S.S.S.S.S.S.S.S.S.S.S.S.S.S.S.S.S.S.S.S.",
"S.S.S.S.S.S.S.S.S.S.S.S.S.S.S.S.S.S.S.S.S.S.S.~ Z.oXqXoX/ f S.S.S.S.S.M I I W 8.8.c S.S.S.S.S.S.S.S.S.S.S.S.S.S.S.S.S.S.S.S.S.S.",
"S.S.S.S.S.S.S.S.S.S.S.S.S.S.S.S.S.S.S.S.S.S.S.S.v W 7.7.W I i S.S.S.S.S.l x M I N s S.S.S.S.S.S.S.S.S.S.S.S.S.S.S.S.S.S.S.S.S.S.",
"S.S.S.S.S.S.S.S.S.S.S.S.S.S.S.S.S.S.S.S.S.S.S.S.i d M I n l 2 S.S.S.S.S.S.S.S.S.S.S.S.S.S.S.S.S.S.S.S.S.S.S.S.S.S.S.S.S.S.S.S.S.",
"S.S.S.S.S.S.S.S.S.S.S.S.S.S.S.S.S.S.S.S.S.S.S.S.@ 3 2 d d 2 S.S.S.S.S.S.S.S.S.S.S.S.S.S.S.S.S.S.S.S.S.S.S.S.S.S.S.S.S.S.S.S.S.S.",
"S.S.S.S.S.S.S.S.S.S.S.S.S.S.S.S.S.S.S.S.S.S.S.S.S.S.S.S.S.S.S.S.S.S.S.S.S.S.S.S.S.S.S.S.S.S.S.S.S.S.S.S.S.S.S.S.S.S.S.S.S.S.S.S.",
"S.S.S.S.S.S.S.S.S.S.S.S.S.S.S.S.S.S.S.S.S.S.S.S.S.S.S.S.S.S.S.S.S.S.S.S.S.S.S.S.S.S.S.S.S.S.S.S.S.S.S.S.S.S.S.S.S.S.S.S.S.S.S.S."
};
