/* XPM */
static char *right2_milka[] = {
/* columns rows colors chars-per-pixel */
"64 64 242 2 ",
"   c black",
".  c #1A020F",
"X  c #19041A",
"o  c #2A0915",
"O  c #23031C",
"+  c #2B031B",
"@  c #310218",
"#  c #1C0423",
"$  c #1D0A25",
"%  c #1B0929",
"&  c #240422",
"*  c #260827",
"=  c #25042B",
"-  c #2C042C",
";  c #2A0A2C",
":  c #320829",
">  c #34162B",
",  c #240432",
"<  c #2B0535",
"1  c #270936",
"2  c #2C043B",
"3  c #2C093B",
"4  c #350A36",
"5  c #33053C",
"6  c #2D1438",
"7  c #371A36",
"8  c #33143D",
"9  c #332533",
"0  c #392439",
"q  c #4D2919",
"w  c #410D29",
"e  c #47192A",
"r  c #471A38",
"t  c #4E2F33",
"y  c #47273B",
"u  c #582737",
"i  c #692E36",
"p  c #653337",
"a  c #794E2E",
"s  c #6B443A",
"d  c #774334",
"f  c #2D0343",
"g  c #2E0841",
"h  c #340545",
"j  c #330B44",
"k  c #39054B",
"l  c #380849",
"z  c #3A1C44",
"x  c #381548",
"c  c #3B0452",
"v  c #390755",
"b  c #3E1555",
"n  c #3C2447",
"m  c #4E124F",
"M  c #481B4C",
"N  c #440B58",
"B  c #451354",
"V  c #471858",
"C  c #462948",
"Z  c #572647",
"A  c #49374A",
"S  c #5B3647",
"D  c #50374F",
"F  c #4B2757",
"G  c #53285B",
"H  c #483553",
"J  c #543857",
"K  c #753749",
"L  c #6A3451",
"P  c #74375A",
"I  c #460963",
"U  c #4A1766",
"Y  c #4F146F",
"T  c #55186C",
"R  c #541673",
"E  c #59187A",
"W  c #611E7D",
"Q  c #4D2467",
"!  c #57286A",
"~  c #593766",
"^  c #5A2577",
"/  c #593774",
"(  c #673866",
")  c #632B7C",
"_  c #653975",
"`  c #4F4459",
"'  c #524559",
"]  c #6D4747",
"[  c #774548",
"{  c #724B52",
"}  c #5D4962",
"|  c #644568",
" . c #794C6A",
".. c #65566B",
"X. c #7A546A",
"o. c #684678",
"O. c #6B427C",
"+. c #754A78",
"@. c #6B5575",
"#. c #745879",
"$. c #766679",
"%. c #823D3E",
"&. c #AC7215",
"*. c #844538",
"=. c #82563B",
"-. c #A7693B",
";. c #8D4F52",
":. c #98714F",
">. c #864A67",
",. c #845563",
"<. c #846B7A",
"1. c #97687E",
"2. c #8D727F",
"3. c #C17846",
"4. c #E5AC2A",
"5. c #F8D13D",
"6. c #E0A55A",
"7. c #DAB36E",
"8. c #FAD358",
"9. c #EECF77",
"0. c #5B1884",
"q. c #63188A",
"w. c #5A2483",
"e. c #662484",
"r. c #672A88",
"t. c #6C3487",
"y. c #6D2C91",
"u. c #713290",
"i. c #763497",
"p. c #6F4683",
"a. c #744A87",
"s. c #785689",
"d. c #7C4A98",
"f. c #785090",
"g. c #7A6785",
"h. c #7D40A1",
"j. c #823FA5",
"k. c #854F8E",
"l. c #835895",
"z. c #876689",
"x. c #8F708B",
"c. c #977684",
"v. c #8B6998",
"b. c #916A9B",
"n. c #957B98",
"m. c #A97090",
"M. c #8344A5",
"N. c #8549A5",
"B. c #8B5BA5",
"V. c #8D64A5",
"C. c #9568A7",
"Z. c #9A79A9",
"A. c #9C6BB2",
"S. c #AD77A3",
"D. c #A679B9",
"F. c magenta",
"G. c #AB76C5",
"H. c #998799",
"J. c #B59082",
"K. c #A9889B",
"L. c #9E85A7",
"P. c #9E96A4",
"I. c #A588AA",
"U. c #B387A1",
"Y. c #A29BA5",
"T. c #A798AB",
"R. c #B897A7",
"E. c #AA87B6",
"W. c #B58BB9",
"Q. c #AB97B4",
"!. c #B49ABB",
"~. c #B6ADB5",
"^. c #B8A7B8",
"/. c #CC8F95",
"(. c #C695AB",
"). c #D699A8",
"_. c #E19BA8",
"`. c #D1A8B5",
"'. c #C1B1BC",
"]. c #E7A6B9",
"[. c #E7B5B7",
"{. c #F4B7BA",
"}. c #E0C6AA",
"|. c #B588C9",
" X c #B38DC8",
".X c #B99AC7",
"XX c #BEA8C7",
"oX c #BDB3C2",
"OX c #C39EC2",
"+X c #C39CD8",
"@X c #D0AACE",
"#X c #C8B9C8",
"$X c #DBB9C8",
"%X c #C8A9D9",
"&X c #CAB3D6",
"*X c #D4B6D9",
"=X c #E3BBC5",
"-X c #F2B9C8",
";X c #E9BEDA",
":X c #D5A7EC",
">X c #CCB1E1",
",X c #D9B7E7",
"<X c #D9ADF2",
"1X c #DDB8F7",
"2X c #E6BCFD",
"3X c #CCC5CB",
"4X c #D6C4CD",
"5X c #D3CBD4",
"6X c #D6C7DA",
"7X c #DBD5DB",
"8X c #E8C2C9",
"9X c #FAC4C9",
"0X c #EBC6D5",
"qX c #F8CAD6",
"wX c #E1DBDE",
"eX c #F0D3D3",
"rX c #FDD3DD",
"tX c #EEE1DE",
"yX c #DCCAE5",
"uX c #DCC4E9",
"iX c #DFD6E2",
"pX c #E2CDEB",
"aX c #F6CCE0",
"sX c #E7D9E9",
"dX c #E6DBE9",
"fX c #FCD5E4",
"gX c #E9C8F4",
"hX c #EDDAF2",
"jX c #F4D9F7",
"kX c #E8E3E8",
"lX c #EDE9ED",
"zX c #F5EAEC",
"xX c #F8F5EE",
"cX c #EDE8F2",
"vX c #F3E4F4",
"bX c #F3ECF2",
"nX c #F9E9FA",
"mX c #F5F2F5",
"MX c #F8F4F5",
"NX c #FCFEF5",
"BX c #FCF4FB",
"VX c #FEFEFB",
/* pixels */
"F.F.F.F.F.F.F.F.F.F.F.F.F.F.F.F.F.F.F.F.F.F.F.F.F.F.F.F.F.F.F.F.F.F.F.F.F.F.F.F.F.F.F.F.F.F.F.F.F.F.F.F.F.F.F.F.F.F.F.F.F.F.F.F.",
"F.F.F.F.F.F.F.F.F.F.F.F.F.F.F.F.F.F.F.F.F.F.F.F.F.F.F.F.F.F.F.F.F.F.F.F.F.F.F.F.F.F.F.F.F.F.F.F.F.F.F.F.F.F.F.F.F.F.F.F.F.F.F.F.",
"F.F.F.F.F.F.F.F.F.F.F.F.F.F.F.F.F.F.F.F.F.F.F.F.F.F.F.F.F.F.    X X X X $   F.F.F.F.F.F.F.F.F.F.F.F.F.F.F.F.F.F.F.F.F.F.F.F.F.F.",
"F.F.F.F.F.F.F.F.F.F.F.F.F.F.G F.F.F.F.F.F.F.F.F.F.F.F.F.F.C ..' ` ` ` ` '     F.F.F.F.F.F.F.F.F.F.F.F.F.F.F.F.F.F.F.F.F.F.F.F.F.",
"F.F.F.F.F.F.F.F.F.F.F.F.F.v d.r.f 1 F.F.F.F.F.F.F.F.6 * X A 7XbXcXcXcXcXlX~.9 $ = F.F.F.F.F.5 h l h F.F.F.F.F.F.F.F.F.F.F.F.F.F.",
"F.F.F.F.F.F.F.F.F.F.F.F.l I r.r.^ R U v 2 < < , , , J T.Y.~.xXVXNXNXNXVXVXkX~.' = x f , = j N W Y c F.F.F.F.F.F.F.F.F.F.F.F.F.F.",
"F.F.F.F.F.F.F.F.F.F.F.F.v I 0.w.r.d.r.U o.@.#.#.#.#.T.VXVXVXNXNXMXNXNXVXVXVXMXT.| j U | | ! Y i.q.k F.F.F.F.F.F.F.F.F.F.F.F.F.F.",
"F.F.F.F.F.F.F.F.F.F.F.F.F.v R E E y.i.t.%XhXnXmXMXMXVXVXVXNXNXMXNXVXNXVXNXNXVXVX#X8 b.gXhXW.E i.) k F.F.F.F.F.F.F.F.F.F.F.F.F.F.",
"F.F.F.F.F.F.F.F.F.F.F.F.F.f Y 0.0.q.0.Y t.v.lXVXVXNXNXNXNXNXNXVXVXVXVXVXVXNXNXNX6X) _ s.A.M.0.h.^ h F.F.F.F.F.F.F.F.F.F.F.F.F.F.",
"F.F.F.F.F.F.F.F.F.F.F.F.F.F.I R 0.q.q.y.) p.*X6X5XmXNXNXNXVXNXVXmX5X3X5X3X5XxXVXpXk.f.f.r.y.i.u.U F.F.F.F.F.F.F.F.F.F.F.F.F.F.F.",
"F.F.F.F.F.F.F.F.F.F.F.F.F.F.2 b 0.0.q.G.G.G.C.s.z.dXVXNXNXVXVXVXkXg.@.@...H.BXmX6Xl.&XuX^ y.h.V F.F.F.F.F.F.F.F.F.F.F.F.F.F.F.F.",
"F.F.F.F.F.F.F.F.F.F.F.F.F.F.F.v v I v ^  X<Xb.Q.6XlXVXNXVXVXVXVXmX5X5X&XT.%XvXL.H.3XcXyXQ I ! ! F.F.F.F.F.F.F.F.F.F.F.F.F.F.F.F.",
"F.F.F.F.F.F.F.F.F.F.F.F.F.F.F.F.f f f v l. X!.pXVXNXNXVXVXVXVXVXVXVXVXmXdXyXXXP.^.mXVXdXs.Q g F.F.F.F.F.F.F.F.F.F.F.F.F.F.F.F.F.",
"F.F.F.F.F.F.F.F.F.F.F.F.F.F.F.F.F.F.f f U O.sXVXVXVXVXVXVXVXNXNXVXVXVXVXBX5X..6XVXBXNXlX6Xn., F.F.F.F.F.F.F.F.F.F.F.F.F.F.F.F.F.",
"F.F.F.F.F.F.F.F.F.F.F.F.F.F.F.F.F.F.F.v l.E.bXVXNXNXVXVXVXNXNXMXNXNXVXNXVXmXiXmXVXMXNXNXbXP.% F.F.F.F.F.F.F.F.F.F.F.F.F.F.F.F.F.",
"F.F.F.F.F.F.F.F.F.F.F.F.F.F.F.F.F.F.F.k A..XlXVXNXVXVXVXVXVXVXVXVXVXVXVXVXMXVXNXVXVXNXNXVXP.% F.F.F.F.F.F.F.F.F.F.F.F.F.F.F.F.F.",
"F.F.F.F.F.F.F.F.F.F.F.F.F.F.F.F.F.F.F.j V..XbXVXVXVXVXMXkXkXcXmXVXVXVXVXVXNXNXNXmXkXwXkXVXY.$ F.F.F.F.F.F.F.F.F.F.F.F.F.F.F.F.F.",
"F.F.F.F.F.F.F.F.F.F.F.F.F.F.F.F.F.F.F.j C.XXbXVXVXVXNXlX$.J H 3XVXVXVXVXVXVXVXVX5X` H ..kXY.% F.F.F.F.F.F.F.F.F.F.F.F.F.F.F.F.F.",
"F.F.F.F.F.F.F.F.F.F.F.F.F.F.F.F.F.F.F.j C.%XmXVXVXNXNXkXH , % oXVXVXNXVXVXNXNXVX3X6 X n iXY.$ F.F.F.F.F.F.F.F.F.F.F.F.F.F.F.F.F.",
"F.F.F.F.F.F.F.F.F.F.F.F.F.F.F.F.F.F.F.v A.%XbXVXNXNXNXdX~ f 1 oXVXNXNXNXVXVXNXVX3XH n ` wXP.$ F.F.F.F.F.F.F.F.F.F.F.F.F.F.F.F.F.",
"F.F.F.F.F.F.F.F.F.F.F.F.F.F.F.F.F.F.F.B D.%XbXVXNXNXxX0XD ; * ~.VXNXVXVXVXVXVXVXmX7X7X7XVXP.# F.F.F.F.F.F.F.F.F.F.F.F.F.F.F.F.F.",
"F.F.F.F.F.F.F.F.F.F.F.F.F.F.F.F.F.F.F.F.o.z.6XmXVXNXzX8Xc.$.$.5XVXVXdX~.~.#X#X#X3XoXkXVXVXP.X F.F.F.F.F.F.F.F.F.F.F.F.F.F.F.F.F.",
"F.F.F.F.F.F.F.F.F.F.F.F.F.F.F.F.F.F.F.F., n .XdXNXNXzX0X8XtXxXMXNXbX'.<.<.<.c.c.2.<.~.mXVXY.X F.F.F.F.F.F.F.F.F.F.F.F.F.F.F.F.F.",
"F.F.F.F.F.F.F.F.F.F.F.F.F.F.F.F.F.F.F.F.F.z  XiXNXNXNXbXxXNXNXVXzXP.R.8X8X$X8X8X=X$XY.H.vX~.F.F.F.F.F.F.F.F.F.F.F.F.F.F.F.F.F.F.",
"F.F.F.F.F.F.F.F.F.F.F.F.F.F.F.F.F.F.F.F.F.x o.E.7XmXVXVXVXVXVX5X^.U.$XfXfXrXfXfXfXrX$XR.I.#.F.F.F.F.F.F.F.F.F.F.F.F.F.F.F.F.F.F.",
"F.F.F.F.F.F.F.F.F.F.F.F.F.F.F.F.F.F.F.F.F.F., _ Z.&XdXcXBXVXVX^.z.0XaX8XqXrXfXrXqX0X;XOXF 2 F.F.F.F.F.F.F.F.F.F.F.F.F.F.F.F.F.F.",
"F.F.F.F.F.F.F.F.F.F.F.F.F.F.F.F.F.F.F.F.F.F.1 j V Q s.#XcXBXBX^.K.;X@XR.qXfXrXrX0X(.+.G ~ F.F.F.F.F.F.F.F.F.F.F.F.F.F.F.F.F.F.F.",
"F.F.F.F.F.F.F.F.F.F.F.F.F.F.F.F.F.F.F.F.F.F.% V ) v U @.$.<.$.} D +.>.v.S.S.S.z.,.| ~ J F.F.F.F.F.F.F.F.F.F.F.F.F.F.F.F.F.F.F.F.",
"F.F.F.F.F.F.F.F.F.F.F.F.F.F.F.F.F.F.F.F.F.F., p.D.) V x , , 2 2 < 5 N ( P K K e > O A F.F.F.F.F.F.F.F.F.F.F.F.F.F.F.F.F.F.F.F.F.",
"F.F.F.F.F.F.F.F.F.F.F.F.F.F.F.F.F.F.F.F.F.F.6 V.gX,X.XC.b c N N c N N P ;.3.6.7.J.9 F.F.F.F.F.F.F.F.F.F.F.F.F.F.F.F.F.F.F.F.F.F.",
"F.F.F.F.F.F.F.F.F.F.F.F.F.F.F.F.F.F.F.F.F.F.3 b.hXpXuX.Xa.t.u.t.t._ _ K -.4.5.8.9.{ t F.F.F.F.F.F.F.F.F.F.F.F.F.F.F.F.F.F.F.F.F.",
"F.F.F.F.F.F.F.F.F.F.F.F.F.F.F.F.F.F.F.F.F.F.n Z.dXlXMXvX*X%X*X*X,X,XS.;.-.&.4.5.8.}.] o F.F.F.F.F.F.F.F.F.F.F.F.F.F.F.F.F.; F.F.",
"F.F.F.F.F.F.F.F.F.F.F.F.F.F.F.F.F.F.F.F.F.n Z.yXmXNXNXMXnXmXmXBXBXpX&XU.=.&.4.8.7.a 0 - - : & + @ @ : @ O O O o > F.; z ~ n F.F.",
"F.F.F.F.F.F.F.F.F.F.F.F.F.F.F.F.F.F.F.F.F.z !.sXVXNXkX3XbXVXVXVXlXn.g.@.y q a :.:.p q e e r u u u u u e : O O * : 4 5 M o.n X F.",
"F.F.F.F.F.F.F.F.F.F.F.F.F.F.F.F.F.F.F.F.F.z Q.dXVXVX#X@.oX7X7XwX#XA X X X . . . D D s [ [ s [ [ [ ;.;.>.D D D D ; - 5 m _ z X F.",
"F.F.F.F.F.F.F.6 < 2 F.F.F.F.F.F.F.F.F.F.% x Q.dXBXVX&X} y 0 0 0 y D D D D D S A D D ] s s p e > : w K K D D D D D M 4 5 8 , F.F.",
"F.F.F.F.F.F.5 x ! N 5 F.F.F.F.F.F.F.F.b j x Z.pXVXVXiXL.7 % * X O D D D D D D D D D D s t Z M B m m Z Z 7 7 4 D r C 4 4 F.F.F.F.",
"F.F.F.F.F.4 l ! N.! h F.F.F.F.F.F.F.z G m T +.OXnXVXVXcX$.H J H A D D D D D D D D D D S C ! ) r.t.t.B 5 4 - - - - 4 F.F.F.F.F.F.",
"F.F.F.F.F.l U e.j.E c F.F.F.F.F.F.& = 4 L >.K S.gXmXVXVXcX!.G H D D D - - - & - * & & C W.V.Q ! ^ ^ b j F.F.F.F.F.F.F.F.F.F.F.F.",
"F.F.F.F.F.k T e.j.u.) l F.F.F.F.# r L u ;.;.%.>.b.&XlXnXE.f.^ b 4 : - - : D D D D x.v.b.%X+X.X.Xl.x 2 F.F.F.F.F.F.F.F.F.F.F.F.F.",
"F.F.F.F.F.v Y e.M.M.i.v h F.F.F.& S =.d *.*.*.L ! B..X*Xf.e.r.b 1 D } ( r H D D D ^.*X%XE. X6X5Xx.; F.F.F.F.F.F.F.F.F.F.F.F.F.F.",
"F.F.F.F.F.c R e.M.h.i.I h F.F.F.+ t i d *.*.%.r k Y w./ t.i.w.l C 4XfX4Xy . D D D O x.+XU x 8 7 > F.F.F.F.F.F.F.F.F.F.F.F.F.F.F.",
"F.F.F.F.F.k T y.M.i.E I h F.F.F.O u a a i i r P v.B.A.B.^ Y I s.R.4XeX4X0 o A ` D D H a.l z J > F.F.F.F.F.F.F.F.F.F.F.F.F.F.F.F.",
"F.F.F.F.F.5 N ) N.e.I k 5 F.F.F.> t p u u u D T.hXpXpX*X~ b B I.eX[.{.=X} y t A D D 9 ; < V F.F.F.F.F.F.F.F.F.F.F.F.F.F.F.F.F.F.",
"F.F.F.F.F.F.< T N.! h 2 F.F.F.F.$.y : 4 - 0 5XBXBXVXBXkX<.| | K.(.9X{.-XqXR.X t D D D D < 1 F.F.F.F.F.F.F.F.F.F.F.F.F.F.F.F.F.F.",
"F.F.F.F.F.F.F.z ! N 2 F.F.F.F.H C 1 = 3 #.I.I.Z.L.iXVXmX3X3X'./.J.{.{.{.qX8X2.y D D D ' 1 # F.F.F.F.F.F.F.F.F.F.F.F.F.F.F.F.F.F.",
"F.F.F.F.F.F.F.F.2 G J C ' | } H F J C 8 ^.hXa.! ~ 6XVXVXVXVXMXR.m.].{.].).=XqXX.t ` ` 0 * # F.F.F.F.F.F.F.F.F.F.F.F.F.F.F.F.F.F.",
"F.F.F.F.F.F.F.F.4 Z..XC 8 x x f..X,XE.x .XhXO.Q ~ 6XVXVXVXVXBXH. ._.9X-X,.c.aX0XR.o . X % * F.F.F.F.F.F.F.F.F.F.F.F.F.F.F.F.F.F.",
"F.F.F.F.F.F.F.F.F.F s.E. X X|.+X:Xf./ v V.XXXX.XoXlXVXVXVXVXVXH.X.].9X9X/.`.rXqX-Xc. .o.T.g.% F.F.F.F.F.F.F.F.F.F.F.F.F.F.F.F.F.",
"F.F.F.F.F.F.F.F.F.F.~ l.B.V.C.A.V.Q f v / p.uXmXVXMXMXVXVXVXVXH.X.).{.{.rXqX[.9X9XqXW.E.nXT.% F.F.F.F.F.F.F.F.F.F.F.F.F.F.F.F.F.",
"F.F.F.F.F.F.F.F.F.F.o.8 g g j j 1 8 8 x 1 z P.iXVXVXVXVXNXVXNXK. ././._.qX[.1.].-X-XW.U.vXY.% F.F.F.F.F.F.F.F.F.F.F.F.F.F.F.F.F.",
"F.F.F.F.F.F.F.F.F.F.F.F.F.F.F.F.F.F.F.F.1 g P.yXVXVXVXMXMXNXVXT.1.)._.).S.U.`.m.1.x.W.*XnXQ.% F.F.F.F.F.F.F.F.F.F.F.F.F.F.F.F.F.",
"F.F.F.F.F.F.F.F.F.F.F.F.F.F.F.F.F.F.F.F./ p.XXuXcXmXVXNXVXkX^.z. .m.m.B.k.k.S.C.C.C.+X@XXXg., F.F.F.F.F.F.F.F.F.F.F.F.F.F.F.F.F.",
"F.F.F.F.F.F.F.F.F.F.F.F.F.F.F.F.F.F.F.x Z.%X>X%X&XcXVXVXVX3X0 % : 4 m m T U T |.:X:X:XG.z ; , F.F.F.F.F.F.F.F.F.F.F.F.F.F.F.F.F.",
"F.F.F.F.F.F.F.F.F.F.F.F.F.F.F.F.F.F.Q f.XXcX,X>X>XuXpXpXn.#.F.F.F.F.k m A.G.G.+X<X<XB.! F F.F.F.F.F.F.F.F.F.F.F.F.F.F.F.F.F.F.F.",
"F.F.F.F.F.F.F.F.F.F.F.F.F.F.F.F.F.1 F .XvXmXpXuX,XD.V.v.z F.F.F.F.F.F.F.V. X2X2X1X<X_ 4 F.F.F.F.F.F.F.F.F.F.F.F.F.F.F.F.F.F.F.F.",
"F.F.F.F.F.F.F.F.F.F.F.F.F.F.F.F.F.< ! ,XjXjXuXgX,X! h 8 F.F.F.F.F.F.F.F.< _ ,X1X<X,Xa.7 H F.F.F.F.F.F.F.F.F.F.F.F.F.F.F.F.F.F.F.",
"F.F.F.F.F.F.F.F.F.F.F.F.F.F.F.F.F.m T k.C.C.o.O._ B F.F.F.F.F.F.F.F.F.F.F.F ( .XpXjX7X!.C F.F.F.F.F.F.F.F.F.F.F.F.F.F.F.F.F.F.F.",
"F.F.F.F.F.F.F.F.F.F.F.F.F.F.F.F.F.N I E u.t.h 5 5 F.F.F.F.F.F.F.F.F.F.F.F.F.1 E.,XBXdXW.~ k F.F.F.F.F.F.F.F.F.F.F.F.F.F.F.F.F.F.",
"F.F.F.F.F.F.F.F.F.F.F.F.F.F.F.F.F.N I e.r.T 2 F.F.F.F.F.F.F.F.F.F.F.F.F.F.F.8 E.,XnXOXp.d.) k F.F.F.F.F.F.F.F.F.F.F.F.F.F.F.F.F.",
"F.F.F.F.F.F.F.F.F.F.F.F.F.F.F.F.F.F.c I V l F.F.F.F.F.F.F.F.F.F.F.F.F.F.F.F.F._ p.b.k.y.y.T F.F.F.F.F.F.F.F.F.F.F.F.F.F.F.F.F.F.",
"F.F.F.F.F.F.F.F.F.F.F.F.F.F.F.F.F.F.F.F.F.F.F.F.F.F.F.F.F.F.F.F.F.F.F.F.F.F.F.F.l m I Y Y B F.F.F.F.F.F.F.F.F.F.F.F.F.F.F.F.F.F.",
"F.F.F.F.F.F.F.F.F.F.F.F.F.F.F.F.F.F.F.F.F.F.F.F.F.F.F.F.F.F.F.F.F.F.F.F.F.F.F.F.F.5 k F.F.F.F.F.F.F.F.F.F.F.F.F.F.F.F.F.F.F.F.F.",
"F.F.F.F.F.F.F.F.F.F.F.F.F.F.F.F.F.F.F.F.F.F.F.F.F.F.F.F.F.F.F.F.F.F.F.F.F.F.F.F.F.F.F.F.F.F.F.F.F.F.F.F.F.F.F.F.F.F.F.F.F.F.F.F."
};
