/* XPM */
static char *right_hero_walk2[] = {
/* columns rows colors chars-per-pixel */
"64 64 188 2 ",
"   c None",
".  c #1E0F1D",
"X  c #250E19",
"o  c #24191B",
"O  c #2E1E1D",
"+  c #27161E",
"@  c #392714",
"#  c #3B2B14",
"$  c #31211C",
"%  c #3B2B1A",
"&  c #372F1E",
"*  c #251625",
"=  c #2A1724",
"-  c #241924",
";  c #2C1C25",
":  c #24142C",
">  c #29162D",
",  c #261C2B",
"<  c #2C1B2C",
"1  c #321D24",
"2  c #341D2B",
"3  c #2B1635",
"4  c #2D1A34",
"5  c #2E1B3D",
"6  c #2C163B",
"7  c #321D34",
"8  c #321C3B",
"9  c #2E212A",
"0  c #332126",
"q  c #3A2724",
"w  c #3B2D22",
"e  c #33232A",
"r  c #3C2B2A",
"t  c #342A20",
"y  c #3C312E",
"u  c #342332",
"i  c #392434",
"p  c #3C2A33",
"a  c #36223A",
"s  c #372A3C",
"d  c #3B2A3D",
"f  c #3D3331",
"g  c #4D3C18",
"h  c #412E26",
"j  c #422D2C",
"k  c #4B3A26",
"l  c #43352A",
"z  c #4B392B",
"x  c #523F2E",
"c  c #462F33",
"v  c #4A3333",
"b  c #4B333E",
"n  c #48373A",
"m  c #523D3D",
"M  c #59491D",
"N  c #4C4133",
"B  c #554534",
"V  c #574834",
"C  c #594A34",
"Z  c #54453F",
"A  c #5C4B3B",
"S  c #605228",
"D  c #69553A",
"F  c #736429",
"G  c #7A6C38",
"H  c #2F1A40",
"J  c #321B42",
"K  c #3D2644",
"L  c #3C2A43",
"P  c #3F3345",
"I  c #432C44",
"U  c #43324A",
"Y  c #4B3647",
"T  c #5C4D45",
"R  c #574743",
"E  c #58415B",
"W  c #624D44",
"Q  c #63524B",
"!  c #6C574B",
"~  c #6A5A5E",
"^  c #755C5D",
"/  c #75674A",
"(  c #746352",
")  c #7D6B51",
"_  c #675A6F",
"`  c #695C70",
"'  c #7A666C",
"]  c #80703E",
"[  c #806C47",
"{  c #81675F",
"}  c #857166",
"|  c #927C66",
" . c #8E7C73",
".. c #97894D",
"X. c #9A8C4C",
"o. c #918353",
"O. c #93865C",
"+. c #968C5F",
"@. c #A2955E",
"#. c #ADA052",
"$. c #BFB35C",
"%. c #958C65",
"&. c #92856D",
"*. c #9F9069",
"=. c #9F8D74",
"-. c #908670",
";. c #A08F69",
":. c #A29464",
">. c #A4966B",
",. c #A79869",
"<. c #A6967A",
"1. c #AC9D7B",
"2. c #B19F73",
"3. c #AFA266",
"4. c #B9AC61",
"5. c #B2A67B",
"6. c #B7A97F",
"7. c #B7A371",
"8. c #C5AC64",
"9. c #CCAE6A",
"0. c #D4B96D",
"q. c #CBAD70",
"w. c #CDC16F",
"e. c #D9CC7B",
"r. c #DBD076",
"t. c #E1CC7D",
"y. c #E2CE74",
"u. c #EED97E",
"i. c #EAD97F",
"p. c #F0DF7D",
"a. c #EBE17C",
"s. c #F6EF7A",
"d. c #F7F076",
"f. c #F6F07B",
"g. c #FAF27D",
"h. c #8E7789",
"j. c #A29383",
"k. c #B6A783",
"l. c #CFBA8E",
"z. c #C8B78E",
"x. c #C4AA98",
"c. c #C7B795",
"v. c #CBC183",
"b. c #D2C38C",
"n. c #D8C685",
"m. c #D9C793",
"M. c #DDD297",
"N. c #E5CE88",
"B. c #E4D58D",
"V. c #EBDC8A",
"C. c #E8D988",
"Z. c #E5CD92",
"A. c #EBDD96",
"S. c #E8D696",
"D. c #EBE38C",
"F. c #ECE184",
"G. c #F5EE83",
"H. c #F6ED8B",
"J. c #FAED8C",
"K. c #F7E988",
"L. c #F7F183",
"P. c #F9F283",
"I. c #FBF18A",
"U. c #F7F289",
"Y. c #ECE69A",
"T. c #ECE793",
"R. c #F3E494",
"E. c #F6EC93",
"W. c #FAED95",
"Q. c #F6EB9B",
"!. c #F9ED9B",
"~. c #F8E597",
"^. c #FAF392",
"/. c #F9F199",
"(. c #D9C9A1",
"). c #E7D9A8",
"_. c #F1DFA8",
"`. c #EEDEBA",
"'. c #EEE1A7",
"]. c #EFE2A8",
"[. c #F2E6A6",
"{. c #F6EAA3",
"}. c #FBEDA3",
"|. c #F0E3A9",
" X c #F5EBA9",
".X c #F3E4B1",
"XX c #F6EAB5",
"oX c #F0E2C0",
/* pixels */
"                                                                                                                                ",
"                                                                                                                                ",
"                                                                                                                                ",
"                                                                                                                                ",
"                                                                                                                                ",
"                                                                                                                                ",
"                                                                                                                                ",
"                                                                                                                                ",
"                                                                                                                                ",
"                                                                                                                                ",
"                                                                                                                                ",
"                                                                                                                                ",
"                                                                                                                                ",
"                                                                                                                                ",
"                                                          - - * : : ,                                                           ",
"                                                        Z l l l y y f                                                           ",
"                                                    ; e ( 1.6.5.5.k.-.N o                                                       ",
"                                                    O $ ) ).{.!.Q. Xz.N o                                                       ",
"                                                  ~ w @ [ S.~.W.J.!.b.C O p                                                     ",
"                                                n T =.;.7.n.t.y.p.J.B.,.( R e                                                   ",
"                                              - e A `..XZ.q.9.0.u.K.~.S.k.A $ e                                                 ",
"                                              9 0 V .X}.N.9.9.0.u.K.J.R.n.+./ T y                                               ",
"                                              < e A |.!.t.8.8.0.u.K.J.^./.{.).-.t o                                             ",
"                                              < e V |.!.K.C.C.V.K.I.I.I.^.E.Y.%.& o                                             ",
"                                              < e V '.!.J.J.W.W.I.I.I.I.I.U.T.%.w -                                             ",
"                                              < 0 V '.W.I.P.I.I.I.I.I.P.P.L.D.+.w -                                             ",
"                                              u e V '.W.P.g.g.g.P.I.J.P.P.P.D.O.% =                                             ",
"                                              s e V '.W.P.g.g.g.P.I.I.P.g.P.D.o.% ;                                             ",
"                                            s a e V '.W.I.P.P.g.g.P.P.P.L.L.D.o.@ 2 4                                           ",
"                                          - , 4 e V ].W.I.I.P.P.P.P.P.H.K.K.D...# 0 < >                                         ",
"                                            P d e C |.!.I.I.P.P.P.L.a.$.#.w.V.4.] ! p <                                         ",
"                                            ` U i A ].!.P.P.L.G.P.I.r.F g X.D.i.e.k.m <                                         ",
"                                            _ U i A '.W.L.g.P.P.I.H.e.G M X.F.P.H.b.W < <                                       ",
"                                            U L i A _.W.P.P.g.P.G.H.H.V.B.D.L.g.J.m.W < ,                                       ",
"                                            4 a i A ].!.I.G.f.g.P.G.G.E.E.H.s.d.G.m.W < ,                                       ",
"                                            L L i A .X!.I.G.f.s.G.H.J.H.H.G.d.f.K.m.Q = *                                       ",
"                                              d u T oXXX XQ.!.E.Q.Q.}.{.}.!.H.E.{.(.Q +                                         ",
"                                                  Q j.<.>.:.@.@.:.:.>.>.,.,.@.:.*.&.T e                                         ",
"                                                    r r w % @ % % h j c j h h r r r                                             ",
"                                                    < e q k k k z m b i a 7 7 < < =                                             ",
"                                                    > 7 R %.>.>.>.<. .Y a 8 8 4 <                                               ",
"                                                    < u ( M.Y.T.R.[.c.Z u 8 5 4                                                 ",
"                                                    ; q / B.E.G.G.E.v.C e 8 J 5                                                 ",
"                                                    $ @ G B.E.H.H.!.v.C 2 8 J 5                                                 ",
"                                                  Q C S ..A.}.Q.n.3.+.A Y K J 8 8                                               ",
"                                                9 A c.b.B.~.!.[.2.g N ' h.E 8 8 4 >                                             ",
"                                                ; B )._.R.~.S.l.| q v ' h.E 8 8 8 3                                             ",
"                                                ; m c.l.n.A.7.D v 2 i I Y K 8 5 8 3                                             ",
"                                                = m x.x.z.(.=.v 2 7 8 8 8 8 H 5 6 :                                             ",
"                                                  b ^ { { } ^ b 7 7 4 4 8 8 H 5 3                                               ",
"                                                    X 1 1 1 p         : 4 5 5 4                                                 ",
"                                                    . * * *             : : :                                                   ",
"                                                                                                                                ",
"                                                                                                                                ",
"                                                                                                                                ",
"                                                                                                                                ",
"                                                                                                                                ",
"                                                                                                                                ",
"                                                                                                                                ",
"                                                                                                                                ",
"                                                                                                                                ",
"                                                                                                                                ",
"                                                                                                                                ",
"                                                                                                                                "
};
