/* XPM */
static char *right_hero_wait[] = {
/* columns rows colors chars-per-pixel */
"64 64 205 2 ",
"   c #FF00FF",
".  c #2C1F05",
"X  c #2B1C14",
"o  c #23151C",
"O  c #2D1C1A",
"+  c #311F1E",
"@  c #2E221D",
"#  c #35261B",
"$  c #3B251C",
"%  c #3B2A1D",
"&  c #372A1A",
"*  c #1C0E24",
"=  c #1F1129",
"-  c #251523",
";  c #2C1625",
":  c #261925",
">  c #2B1B23",
",  c #26162B",
"<  c #2B162A",
"1  c #231829",
"2  c #2C1B2A",
"3  c #321D25",
"4  c #331C2B",
"5  c #381D2E",
"6  c #2B1E32",
"7  c #351E31",
"8  c #391D34",
"9  c #2E2124",
"0  c #2E222F",
"q  c #332223",
"w  c #3A2523",
"e  c #3D2B24",
"r  c #3E2A2B",
"t  c #39232D",
"y  c #2F2232",
"u  c #352532",
"i  c #3A2234",
"p  c #372A30",
"a  c #3C2D35",
"s  c #3A2B3B",
"d  c #372339",
"f  c #3C3036",
"g  c #41291C",
"h  c #48361A",
"j  c #4C380C",
"k  c #462822",
"l  c #402A28",
"z  c #44352B",
"x  c #4E3B2C",
"c  c #483723",
"v  c #412E34",
"b  c #493635",
"n  c #4B3B34",
"m  c #483538",
"M  c #543C3D",
"N  c #5B4D3B",
"B  c #584938",
"V  c #5F553C",
"C  c #5A4A2B",
"Z  c #6B592A",
"A  c #655638",
"S  c #6E6533",
"D  c #7E723A",
"F  c #3B2D42",
"G  c #473848",
"H  c #513448",
"J  c #4D4046",
"K  c #544443",
"L  c #594A46",
"P  c #5D5045",
"I  c #4D4050",
"U  c #544554",
"Y  c #5A4B56",
"T  c #625544",
"R  c #695E45",
"E  c #62524A",
"W  c #6A5A5F",
"Q  c #755854",
"!  c #664B4C",
"~  c #7A6F40",
"^  c #766659",
"/  c #7A6856",
"(  c #7F7157",
")  c #665869",
"_  c #786767",
"`  c #7F7566",
"'  c #746574",
"]  c #806B35",
"[  c #8A7838",
"{  c #937F40",
"}  c #846C53",
"|  c #846759",
" . c #8B7357",
".. c #8C7C54",
"X. c #8D7D5A",
"o. c #917A5D",
"O. c #8D7D64",
"+. c #8B7C6B",
"@. c #897168",
"#. c #927D76",
"$. c #8C804F",
"%. c #8D8157",
"&. c #97865A",
"*. c #928849",
"=. c #A08E4C",
"-. c #A59156",
";. c #A3915C",
":. c #A8935D",
">. c #AFA55D",
",. c #B4AB5F",
"<. c #8F8169",
"1. c #9C8A65",
"2. c #93816D",
"3. c #988B69",
"4. c #9C8A76",
"5. c #978572",
"6. c #AA9665",
"7. c #A3946B",
"8. c #AB9D6A",
"9. c #A29463",
"0. c #A08E7C",
"q. c #A49574",
"w. c #A89B72",
"e. c #BBA668",
"r. c #BCA572",
"t. c #CDAE5A",
"y. c #C9B35B",
"u. c #D0B35F",
"i. c #CDAE66",
"p. c #D1AE68",
"a. c #C4B466",
"s. c #C0A776",
"d. c #C6B271",
"f. c #D3B271",
"g. c #D5B469",
"h. c #D9C16C",
"j. c #CAC179",
"k. c #D9C67A",
"l. c #E8D86F",
"z. c #E3CC75",
"x. c #E9D174",
"c. c #E9D97B",
"v. c #FAEE7B",
"b. c #F9EE77",
"n. c #F7F27E",
"m. c #F9F37D",
"M. c #FCF177",
"N. c #857885",
"B. c #B7A587",
"V. c #BCB181",
"C. c #C2AB8B",
"Z. c #D6BC85",
"A. c #C2B592",
"S. c #DBCD8C",
"D. c #DBC984",
"F. c #D9D18A",
"G. c #CFC39B",
"H. c #D7CC93",
"J. c #DCCB93",
"K. c #D9CB9A",
"L. c #D5C295",
"P. c #DBD192",
"I. c #E9DD8C",
"U. c #E8D688",
"Y. c #E2CE97",
"T. c #EBDC92",
"R. c #ECDB9B",
"E. c #E2C787",
"W. c #EBE28C",
"Q. c #EDE587",
"!. c #F3E282",
"~. c #F7EE85",
"^. c #F9EE84",
"/. c #F3E48D",
"(. c #F6EB8D",
"). c #FAED8B",
"_. c #F9E78B",
"`. c #F6F282",
"'. c #FAF184",
"]. c #FAF18B",
"[. c #F7F08C",
"{. c #EBE193",
"}. c #ECE298",
"|. c #F8E793",
" X c #F6EB95",
".X c #FAED94",
"XX c #F6EC9D",
"oX c #FAED9D",
"OX c #F2E697",
"+X c #FCF194",
"@X c #F7F09A",
"#X c #FAF19E",
"$X c #D9C5A4",
"%X c #E4CDA3",
"&X c #E7D9A8",
"*X c #F4DCAB",
"=X c #EFDCBC",
"-X c #EEE3AA",
";X c #F5E4A4",
":X c #F9EDA1",
">X c #F3E4AD",
",X c #F8E7AA",
"<X c #FCF2A5",
"1X c #F5E2BB",
"2X c #FAE8BD",
/* pixels */
"                                                                                                                                ",
"                                                                                                                                ",
"                                                                                                                                ",
"                                                                                                                                ",
"                                                                                                                                ",
"                                                                                                                                ",
"                                                                                                                                ",
"                                                                                                                                ",
"                                                                                                                                ",
"                                                                                                                                ",
"                                                                                                                                ",
"                                                                                                                                ",
"                                                                                                                                ",
"                                                                                                                                ",
"                                                                                                                                ",
"                                                        2 2 6 6 1                                                               ",
"                                                      G a a v f a f                                                             ",
"                                                    K _ +.2.O.<.+.` P p y                                                       ",
"                                                  > n 0.1X>X;X;X-XG.R X : - o o o                                               ",
"                                                  q x 7.,XoX.X.XoXF.S . X O O @ @                                               ",
"                                                T ( &.s.E.z.z.!..XW.,.*.&.&.1.3.2.L                                             ",
"                                              @ V G.Y.Z.f.g.u.x.).(.Q.W.W.I.T.&XG.N >                                           ",
"                                            : @ V &X*XZ.f.i.t.x.).].^.~.].].+X<XH.B 9                                           ",
"                                            0 9 P $X%XZ.i.i.t.x.^.'.'.'.'.].].#XH.B 9                                           ",
"                                              J E +.1.r.k.h.h.c.^.m.n.'.'.].].oXK.B 9 0                                         ",
"                                              N.W # h ;.|._.).^.'.m.m.'.`.'.'. XH.N 9 u                                         ",
"                                              ) U q h ;..X'.^.^.n.m.m.m.n.'.n.+XS.N q y                                         ",
"                                            y s s > c 9..X^.'.'.~.n.n.`.].].^.+XS.C + 2 , *                                     ",
"                                            1 6 6 2 z 7. X'.'.'.'.'.`.]. XOX|.oXS.Z % 3 , =                                     ",
"                                              U I 0 n 7.XX'.'.'.'.'.'..Xa.-.r.;XR.6.X.B 2 *                                     ",
"                                              N.' a n q.XX].'.'.'.n.'.(.[ j D R.;XY.L./ q -                                     ",
"                                              ' ) s n q.:X].'.'.'.'.'./.=.Z { T.|.U.J.} q -                                     ",
"                                            y F F s M q.:X^.'.].^.'.'.).U.k.c.).).|.;X .w -                                     ",
"                                            1 6 d u n 7.oX].'.].~.'.'.^.).).'.'.'..X,Xo.w >                                     ",
"                                              G G u x 7.XX].).(.[.].'.'.).).'.'.).T.L.} r >                                     ",
"                                                U p n 3.R.}.{.{.{.W.W.{.T.{.{.{.R.Z.B.Q t -                                     ",
"                                                  G Y ^ O.X.X.%.%.$...X.....X.....} | Q m                                       ",
"                                                    ' L % % % % & & & # w w w % g k k M                                         ",
"                                                    _ K $ w t 4 ; ; - - 2 , < 4 5 t l                                           ",
"                                                  s L ^ 4.2.@.! 3 ; ; > 2 2 7 7 8 H                                             ",
"                                                  2 b 5.=X$XC. .g $ $ w e r r i i H                                             ",
"                                                  4 b 4.2XJ.d.e.-.:.6.8.8.w./ r 5 d                                             ",
"                                                  2 b 4.1XD.a.z.!.!./././.OXw.e 3 <                                             ",
"                                                  , v #.$Xd.y.l.b.v.'.'.'.(.8.e 3                                               ",
"                                                      K c Z k.!.v.M.b.v.'.(.8.% ;                                               ",
"                                                      u O A S..X'.v.v.^.]. X8.& O                                               ",
"                                                        > T K.XX).^.'.)..XXXw.& o                                               ",
"                                                        2 E A.P.W.].].).I.S.3.e o                                               ",
"                                                          B R ~ j.@X@XOX>.D A                                                   ",
"                                                            # c V.-X;X>X..h &                                                   ",
"                                                              z <.B.B.B./ e                                                     ",
"                                                                q e r r v                                                       ",
"                                                                  > > >                                                         ",
"                                                                                                                                ",
"                                                                                                                                ",
"                                                                                                                                ",
"                                                                                                                                ",
"                                                                                                                                ",
"                                                                                                                                ",
"                                                                                                                                ",
"                                                                                                                                ",
"                                                                                                                                ",
"                                                                                                                                ",
"                                                                                                                                "
};
