/* XPM */
static char *right_hero[] = {
/* columns rows colors chars-per-pixel */
"64 64 198 2 ",
"   c #FF00FF",
".  c #2B1B14",
"X  c #26181C",
"o  c #2C1B1C",
"O  c #321F1F",
"+  c #382B08",
"@  c #2E221C",
"#  c #33221C",
"$  c #3B2E1F",
"%  c #392716",
"&  c #231623",
"*  c #2B1727",
"=  c #251A23",
"-  c #2B1C23",
";  c #261428",
":  c #2B1C2B",
">  c #29182B",
",  c #351D24",
"<  c #30172A",
"1  c #321C2C",
"2  c #2D1C32",
"3  c #351D34",
"4  c #381D30",
"5  c #331C39",
"6  c #321638",
"7  c #2F2325",
"8  c #2F202E",
"9  c #342223",
"0  c #392622",
"q  c #3C2B27",
"w  c #34232B",
"e  c #372A2B",
"r  c #3B2B2A",
"t  c #342232",
"y  c #3C2834",
"u  c #3E2D3A",
"i  c #3C2633",
"p  c #3D3138",
"a  c #483819",
"s  c #4D3B24",
"d  c #4C3D2A",
"f  c #44332A",
"g  c #543E2A",
"h  c #432B34",
"j  c #432C3A",
"k  c #443435",
"l  c #4F3638",
"z  c #4C3B36",
"x  c #543F30",
"c  c #4C402E",
"v  c #52422D",
"b  c #514322",
"n  c #534231",
"m  c #564A3C",
"M  c #5C4B3C",
"N  c #56473F",
"B  c #6B5F23",
"V  c #69583B",
"C  c #776A2D",
"Z  c #706039",
"A  c #3E2E43",
"S  c #493548",
"D  c #4E3D52",
"F  c #554444",
"G  c #5C4545",
"H  c #564847",
"J  c #5D4A43",
"K  c #5E4D4D",
"L  c #5E5049",
"P  c #5A4A57",
"I  c #65544D",
"U  c #675244",
"Y  c #6D5D55",
"T  c #66565B",
"R  c #645450",
"E  c #73654B",
"W  c #7C6741",
"Q  c #756453",
"!  c #7F6F5E",
"~  c #7A6856",
"^  c #7D7152",
"/  c #7D6B61",
"(  c #7A6B76",
")  c #86774A",
"_  c #816E56",
"`  c #8D7E56",
"'  c #8D7D59",
"]  c #806E62",
"[  c #8D786C",
"{  c #887968",
"}  c #917F63",
"|  c #917E6A",
" . c #897A7A",
".. c #968C48",
"X. c #8F815A",
"o. c #97895F",
"O. c #998A5A",
"+. c #90825D",
"@. c #A4955C",
"#. c #AB9C58",
"$. c #B4A75A",
"%. c #948462",
"&. c #998B64",
"*. c #95856A",
"=. c #9A8B6C",
"-. c #988666",
";. c #978774",
":. c #AB9860",
">. c #A7917E",
",. c #B8A969",
"<. c #BAAB71",
"1. c #CAAB6B",
"2. c #CAB567",
"3. c #D0B96C",
"4. c #CDAF71",
"5. c #CCBB7A",
"6. c #C8B774",
"7. c #DEBD73",
"8. c #DCC36B",
"9. c #D7C46C",
"0. c #CFC672",
"q. c #D1C17A",
"w. c #DBC37F",
"e. c #D8CD79",
"r. c #DCD17D",
"t. c #E6D37A",
"y. c #ECD87D",
"u. c #FAEF7A",
"i. c #F7F07D",
"p. c #F9F37D",
"a. c #AF9A89",
"s. c #BBAC8B",
"d. c #BEAF96",
"f. c #C2AF85",
"g. c #C8B781",
"h. c #C9BA83",
"j. c #C9BA97",
"k. c #C7BAA0",
"l. c #D4CB87",
"z. c #D4CB8D",
"x. c #D8CC8B",
"c. c #D8C289",
"v. c #DFD387",
"b. c #DFD38B",
"n. c #D7C791",
"m. c #D6CB93",
"M. c #DCCC94",
"N. c #D1C29C",
"B. c #D9CC9B",
"V. c #DAD096",
"C. c #E6D883",
"Z. c #E3D58D",
"A. c #EAD889",
"S. c #F7DF81",
"D. c #F7DD88",
"F. c #F8DD86",
"G. c #E3D594",
"H. c #E5D897",
"J. c #ECDD93",
"K. c #E5D69E",
"L. c #EDDE9B",
"P. c #E5DB9D",
"I. c #E8E086",
"U. c #F8E386",
"Y. c #F6ED85",
"T. c #FAEE85",
"R. c #F3E68B",
"E. c #FBE78D",
"W. c #F5EC8C",
"Q. c #FBED8B",
"!. c #F7F084",
"~. c #FAF283",
"^. c #F7F18B",
"/. c #FBF18B",
"(. c #EFE493",
"). c #EEE09B",
"_. c #F5EB93",
"`. c #FAEC93",
"'. c #F3E59B",
"]. c #F4EB9C",
"[. c #F9ED9B",
"{. c #F7E696",
"}. c #FAF291",
"|. c #FAF19E",
" X c #DCCFA7",
".X c #D4C5A1",
"XX c #DDD1A1",
"oX c #E5D6A5",
"OX c #EDDCA4",
"+X c #E6D6AA",
"@X c #ECDDAB",
"#X c #E2D2B0",
"$X c #EFE0A4",
"%X c #F3E3A5",
"&X c #F4EAA6",
"*X c #FAEDA2",
"=X c #F7E8AA",
"-X c #F4E9B0",
/* pixels */
"                                                                                                                                ",
"                                                                                                                                ",
"                                                                                                                                ",
"                                                                                                                                ",
"                                                                                                                                ",
"                                                                                                                                ",
"                                                                                                                                ",
"                                                                                                                                ",
"                                                                                                                                ",
"                                                                                                                                ",
"                                                                                                                                ",
"                                                                                                                                ",
"                                                                                                                                ",
"                                                                                                                                ",
"                                                            & = : : :                                                           ",
"                                                          p 7 @ w w 7 k                                                         ",
"                                                        P Y E E Q Q Y I H                                                       ",
"                                                      - f s.@X$XOX@X#X{ # 9                                                     ",
"                                                    e # a h.[.`.{.*X%X&.% 0 T                                                   ",
"                                                    I E ) q.A.y.U.E.{.<.Z V R F                                                 ",
"                                                = @ *.N.K.w.3.2.8.S.E.J.h.` d 9                                                 ",
"                                                = @ =.oX=Xc.4.1.7.F.Q.`.Z.@.b $ z                                               ",
"                                                = @ -.K.'.w.1.1.7.D.Q.Q.`.J.m.j.{ e                                             ",
"                                                = o -.G._.t.9.9.t.U.Q././.}.|.-X=.q =                                           ",
"                                                = . %.b.`.Q.Y.Q.Q.Q.Q.~.~.!.}.&X&.q :                                           ",
"                                                = . +.Z././.T./.Q./.~.p.u.p.!.].&.q :                                           ",
"                                                X . X.v./.~.~.~.~.T.~.p.u.p.!.].&.0 :                                           ",
"                                              w = . ` v./.~.~.~.~.~.!.~.p.p.!.'.o.0 w                                           ",
"                                              t - . ` v.!.~.~.p.p.p.!.!.~.~.W.'.O.0 y P                                         ",
"                                            = : = . ' v.!.~.p.p.p.p.!.^.W.W._.'.O.% w S                                         ",
"                                            : t : . ' v./.~.~.p.p.~.^.I.e.r.(.'.@.a 9 : ;                                       ",
"                                              S 1 o %.Z./.~.~.p.p.~.W.$.B C q.*X5.' J 1 ;                                       ",
"                                              D t O %.G./.~.~.~.p.!.R...+ a 2.[.A.h._ 9 :                                       ",
"                                              A t 9 -.G.}./.~.~.p.~.Y.0.@.#.C.Q.R.G.} 9 :                                       ",
"                                            > 2 t 9 *.H.}.!.~.~.p.p.!.W.W.W.T.T.T.L.-.9 :                                       ",
"                                              2 1 9 *.H.}./.~.~.p.i.Y.Y.Q.T.u.u.T.'.%.# -                                       ",
"                                                * w ;.oX*X[._.W.W.W.W._._.W.Q.Y.W.OX} # -                                       ",
"                                                2 u  .k.XXV.m.x.l.l.z.z.m.z.x.x.n.j.{ # o                                       ",
"                                                  ( T N n v v n d s d c d v v s g z G                                           ",
"                                                   .K q # 0 , < < 1 1 1 1 1 , , , ,                                             ",
"                                                  T Y ~ ~ U l 4 6 6 5 2 5 3 3 3 j j                                             ",
"                                                t w [ .XoXf.=.G < 3 3 t 3 3 3 3 S                                               ",
"                                                : - | +X=X6.:.W g x n M M F i 3 S                                               ",
"                                                : o | +X%X$.#.5.M.M.B.XX Xd.F 1 u                                               ",
"                                                  9 ] j.n.,.,.Z.[.[.[.*X-X.XJ - t                                               ",
"                                                    F M V n.L.'.`.Q./.[.&XB.M - 8                                               ",
"                                                      # d N.@X).Q.Q./.(.P.j.m X                                                 ",
"                                                      k L ! ' ,.C.R._.<.) ^ m                                                   ",
"                                                          0 f _ g.G.oX&.% $                                                     ",
"                                                          X r I [ >.a./ 9 -                                                     ",
"                                                              y h h k k                                                         ",
"                                                              & * * -                                                           ",
"                                                                                                                                ",
"                                                                                                                                ",
"                                                                                                                                ",
"                                                                                                                                ",
"                                                                                                                                ",
"                                                                                                                                ",
"                                                                                                                                ",
"                                                                                                                                ",
"                                                                                                                                ",
"                                                                                                                                ",
"                                                                                                                                ",
"                                                                                                                                "
};
