/* XPM */
static char *top_right_background[] = {
/* columns rows colors chars-per-pixel */
"64 64 159 2 ",
"   c #777C76",
".  c #797E78",
"X  c #7B9E57",
"o  c #7B9E5A",
"O  c #7CA056",
"+  c #7CA15B",
"@  c #79876E",
"#  c #7A8C6E",
"$  c #7D9367",
"%  c #779E63",
"&  c #7A9D64",
"*  c #769E6A",
"=  c #7B9C68",
"-  c #778276",
";  c #798276",
":  c #7A8B71",
">  c #7B827A",
",  c #7AA065",
"<  c #7CA26C",
"1  c #7EA676",
"2  c #7FA876",
"3  c #84A65B",
"4  c #88A55F",
"5  c #87A95B",
"6  c #89AA5C",
"7  c #94B45E",
"8  c #9CBA5F",
"9  c #A1BF5F",
"0  c #809E61",
"q  c #818F77",
"w  c #87997A",
"e  c #8E9F7D",
"r  c #86A264",
"t  c #86AC6A",
"y  c #97B661",
"u  c #98B760",
"i  c #97B861",
"p  c #9BBA62",
"a  c #99B468",
"s  c #9DB86E",
"d  c #81A777",
"f  c #82A974",
"g  c #96B370",
"h  c #9AB27D",
"j  c #A2BF62",
"k  c #A3BC68",
"l  c #A5C05F",
"z  c #A4C062",
"x  c #ABC463",
"c  c #AFC866",
"v  c #B2CA66",
"b  c #B0C66E",
"n  c #B4CC69",
"m  c #BACE6A",
"M  c #BFD26A",
"N  c #BFCF73",
"B  c #BFD073",
"V  c #C0D36B",
"C  c #C0CF73",
"Z  c #C0D074",
"A  c #C1D178",
"S  c #828880",
"D  c #879382",
"F  c #899284",
"G  c #8F9F80",
"H  c #8E958B",
"J  c #91978D",
"K  c #91998D",
"L  c #979F91",
"P  c #999F93",
"I  c #8FA181",
"U  c #80AA87",
"Y  c #99B383",
"T  c #99A093",
"R  c #9EA499",
"E  c #89B496",
"W  c #87B39D",
"Q  c #88B498",
"!  c #A2A99E",
"~  c #8EBAA6",
"^  c #8BB9AC",
"/  c #90BAAA",
"(  c #8FBDB3",
")  c #8CBEBD",
"_  c #91BDBE",
"`  c #A8AEA1",
"'  c #ABB1A4",
"]  c #B2B7AA",
"[  c #B5BBAE",
"{  c #B7BDB0",
"}  c #B8BBB0",
"|  c #BFCEA7",
" . c #BFC2B5",
".. c #C1CFAC",
"X. c #C2CFAA",
"o. c #C0D0A8",
"O. c #C0C2B5",
"+. c #C8CEB7",
"@. c #C4C7B9",
"#. c #C6C9BC",
"$. c #C9CCBE",
"%. c #8BBDC0",
"&. c #8BBEC1",
"*. c #8BBFC0",
"=. c #8BBEC2",
"-. c #8BBCC2",
";. c #8CBDC1",
":. c #8CBDC0",
">. c #8CBEC0",
",. c #8CBEC1",
"<. c #8DBFC0",
"1. c #8CBDC2",
"2. c #8DBEC2",
"3. c #8CBFC2",
"4. c #8CBEC2",
"5. c #8FBEC1",
"6. c #8BBDC1",
"7. c #90BCC0",
"8. c #8DC0C3",
"9. c #97C2C3",
"0. c #9BC5C4",
"q. c #ADCECB",
"w. c #ADCDC9",
"e. c #AFCECB",
"r. c #A5CBCB",
"t. c #B0CFCA",
"y. c #AFD0CF",
"u. c #B7D3CD",
"i. c #B9D3CE",
"p. c #B8D3CE",
"a. c #BBD5D0",
"s. c #C1CAC0",
"d. c #CECFC1",
"f. c #CFD2C5",
"g. c #CFD1C5",
"h. c #C2D4CB",
"j. c #C4D5CB",
"k. c #D1D2C5",
"l. c #D3D5C9",
"z. c #D8DBCE",
"x. c #C2D7D2",
"c. c #C3DBD6",
"v. c #C4DBD8",
"b. c #F0EFDF",
"n. c #EFF0DF",
"m. c #DDEBE2",
"M. c #EEEFE4",
"N. c #EFEFE2",
"B. c #F1EFE1",
"V. c #F1EFE2",
"C. c #F2EEE2",
"Z. c #F1EFE3",
"A. c #EDF2E3",
"S. c #EFF0E5",
"D. c #EDF0E4",
"F. c #EFF1E4",
"G. c #F2F0E2",
"H. c #F1F0E3",
"J. c #F3F1E8",
/* pixels */
"_ <.) *.*.*.<.<.<.<.<.<.*.*.<.<.<.) <.*.*.) ) ) ) <.<.) *.*.*.*.) ) <.<.<.<.<.<.*.*.*.*.*.*.<.<.<.<.<.<.<.<.<.<.<.<.<.*.*.*.*.*.",
"^ ^ ^ ^ ^ ^ ^ ) <.<.<.<.<.<.) ^ ^ ^ ^ ^ ^ ^ ^ ^ ^ ^ ^ ^ ^ ^ ^ ^ ^ ^ ) *.*.<.<.<.*.*.*.*.*.*.<.<.<.<.<.<.<.<.<.<.<.<.<.<.<.<.*.<.",
"= % % & , , * W <.<.<.*.<.) ( 1 & & & & & & & & & & , , , , , , & * ^ *.<.<.*.*.*.*.*.*.*.<.<.<.<.<.<.<.<.<.<.<.<.<.<.<.<.<.<.<.",
"o X + + + X o Q ) ) <.<.<.<.( < X X X X + X X X X X X X X X X X X & ^ *.) <.*.<.<.*.*.<.<.<.*.<.<.<.<.<.<.<.<.<.<.<.<.<.<.<.<.<.",
"o + + + X X o E ) ) ) ) ) ) ( < X X X X X X X + X X X X X X X X X & ~ ) ) ) ) ) ) ) *.<.<.<.*.*.*.<.<.<.8.<.<.<.<.<.<.<.<.<.<.<.",
"a p y y y y y t d d 2 d 2 2 2 y y y y y y y y y y y y y y y y y y y f 2 2 2 2 2 2 U ) <.<.<.*.*.*.<.<.<.<.<.<.<.*.*.*.<.<.<.<.<.",
"k j j j j j j 5 X X + + + O X p j j j j j j j j j j j j j j j j j k 3 X X X X X X < ) *.*.<.*.<.<.<.<.<.<.<.<.<.*.*.*.*.*.*.*.*.",
"k j j j j j p 5 + + + + + + X p j j j j j j j j j j j j j j j j j k 3 + X X + + o < ) ) *.*.<.<.<.<.<.<.*.<.*.*.*.*.*.*.*.*.*.*.",
"k j j j j j j 7 6 6 6 6 6 6 6 p j j j j j j j j j j j j j j j j j j 6 5 5 5 6 6 6 t Q W W / q.q.e.e.e.e.q.9.*.*.*.*.*.*.*.*.*.*.",
"k j j j j j j j k j k j j j j j j j j j j j j j j j j j j j j j j j j j j j j k j p X & , Y F.S.S.S.S.M.S.q.*.*.*.*.*.*.*.*.*.*.",
"k j j j j j j j j j j j j j j j j j j j j j j j j j j j j j j j j j j j j j j j j p X + + h H.V.V.H.V.V.H.q.<.<.*.*.*.*.*.*.*.*.",
"k j j j j j j j j j j j j j j j j j j j j j j j j j j j j j j j j j j j j j j j j p X + + h n.V.V.b.b.H.H.q.<.<.<.<.*.*.*.*.*.*.",
"k j j j j j j j j j j j j j j j j j j j j j j j j z j j j j j j j j j j j j j j j p 6 6 6 g o...X.| +.d.g.h.a.i.0.*.<.<.<.*.*.*.",
"k j j j j j j j j j j j j j j j j j j j j j j z z z j j j j j j j j j j j j j j j z z k k y X + X X e T R z.J.S.t.*.<.<.<.*.*.*.",
"k j j j j j j j j j j j j j j j j j j j j j j j j j j j j j j j j j j j j j j z j j j k j y X X X o G T R z.H.M.q.*.*.<.<.*.*.*.",
"k j j j j j j j j j j j j j j j j j j j z j j j j j j j j j j j j j j j z j j j j j j j j y X X X X I R R z.M.M.u.7.:.<.<.*.*.*.",
"b v c c v c v c v v c z j j j j j j j j z z z c c v c c c x x j j j j j z j j j j j j j j y X X X o w H H [ @.#.j.x.a.r.<.*.*.*.",
"B M M M M M M M M M M x j 9 9 9 j j j j z j x M M M M M M M x j j j j j j j j j j j j j j y X X X + : > > K T T l.J.V.c.) *.*.*.",
"C M M M M V V V V M M x j j j j j j j j j j x M M M M M M M x j j j 9 l j j j j j j j j j 7 X X + + # > > H T T l.V.V.c.<.*.*.*.",
"C M M M M V V V M M M x j j j j j j j j j j x M V M M M V M x j j j 9 j j j j j j j j j j 7 X + + + # > > H T T l.V.V.c.<.<.<.<.",
"C M V M V V V V M M M n v v v v v v v v v n m V V V V V V V m v v v z j j j j j j j j j j y + + + + # > > H T T k.V.J.c.<.<.<.<.",
"C M M V V V V V M M M M M V V V V V V V V V V V V V V V M M M M M M x j j j j k z j j j j p + + + X # . > J T T k.V.H.v.<.<.<.%.",
"C M M M V M V V V V M M M M V V V V V V V V V V V V V V M M M M M M x j j j j k j j j k z p + X X X # > > J T T k.V.H.v.<.*.<.<.",
"N M M M M M V M V V V V V V V V V V V V V V V V V V V V M M M M M M x j j j j j j j j k z p O X X X # > ; K T T g.V.H.v._ _ <.<.",
"N M M M M V M M M M M V V V M M M M M M M M M V V V V V V V V M M M m m m n z j j j j j z j p i y y r = = q S > P ` ' s.m.m.y.<.",
"N M M M M V M M M V V V M M M M M M M M M M M V V V V V V V V V V V M M M M z j z j j z j j j j j j 6 + o # > > H T T O.J.H.i.<.",
"N M M M V V M M V V V V V V V V V V V M M M V V V V V V V V V V V V V V V M z j j j j z j j j j j j 5 + o # > > H T T O.H.V.i.) ",
"N M M M V V M M V M V V V V V V V V V V V M V M M V V V V V V V V V V V V M z j j z z j j j j j j j 5 X + # > > H T T  .H.S.i.*.",
"N M M M V V M M V M V V V V V V V V V V V M V V V V V V V V V V V V V V V M z j z z z j j j j j j j 6 X + # > > H T T O.V.H.i.*.",
"N M M V V V V M V V V V V V V V V V M V V V V V V V V V V V V V V V V V V M z j z z z z j j j j j j 5 X X # > > H T T O.V.M.i.*.",
"N M V V V V V V V V V V V V V V V V V V V V V V V V V V V V V V V V V V V M z j j z z j j j j j j j 5 X X # > > H T T O.V.F.u.*.",
"N M V V V V V V V V M M M V V V V V V V V V V V V V V V V V V M V V V M V M z j j j j j j j j j j j 5 X X # > > H T T  .H.F.u.*.",
"B M V V V V V V V M M M M V V M M M M V V V V V V V V V V V V V V V V M M M z j j j j j j j j j j j 5 X X # > > H T T  .H.S.u.*.",
"C V V V V V V V V M M M M M M M M M V V V V V V V M M M M M M M M M V M V M z j j j j j j j j j j j 5 X o # > > H T T  .H.F.u.*.",
"C V V V M V V V V M M M M M M M M M V V V M M V M M M M M M M M M M M M V M z j j j j j j j p p p p r = = : > > H T T  .V.F.u.*.",
"C V V M V V M V V M M M M M M M M M V V V M V V M M M M M M M M M M M M V M z j j j j z z u O + + + # ; - H P T T T T O.V.F.u.*.",
"N V V V V M M V V V M M V M M M M V V V V V V V M M M M M M M M M M M M M M z j j j j j j y X + + + # > > H T T T T T O.V.F.u.*.",
"N V V M M M M M M V V V V V V V V V V V V V V V M V V V V V V V V V M M M M z j j j 9 j 9 y + X X o # > > H T T T T T O.H.F.u.*.",
"N M V M M M M M V V V V V V V V V V V V V V V M V V V V V V V V V M M M M M j j j j 9 j 9 i + + X X # > > H L T T T T O.H.F.u.*.",
"B V M M V V V V V V V V V V V V V V V V V V V V V V V V V V V V V M M M M M l j j j z j 9 i + + X X # > > H L T T T T O.V.F.i.*.",
"Z V V M V M V V V V V V V V V V M V V V V V V V V V V V V V V V V M M M M M l j j j z j j i + + X X # > > H L T T T T O.V.M.i.*.",
"Z M M M M M V V V V V V V V V V M V V V V V V V V V V V V V V V V V M M M M l j j j z j j y X X + + # > > H T T T T T O.V.M.i.<.",
"B V M M M M M V V V V V V V V V M V V V V V V V V V V V V V V V V V V M V M x x x x j j 9 8 5 5 6 6 $ # : D H H K L T O.V.M.i.*.",
"N V M V M M M V V V V V V M M M V V V V V V V V V V V V V V V V V V M M V M M M M M 9 9 z 9 z z z j 6 o o # > > H T T O.V.M.i.<.",
"N M M M M V V V V V V V V V V V V V V V V V V V V V V V V V V V V V V V V M M M V M j 9 9 j j j j j 6 + + # ; > H T T O.H.H.i.) ",
"N M M M M V M M M V V V V V V V V V V V V V V V V V V V V V V V V V V V M M M M V M j 9 j j j j j j 6 o + # > > H T T O.H.H.i.) ",
"N M M M V V M M M M V V V V V V V V V V V V V V V V V V V V V V V V V V M M M M V M j 9 j j j j j j 5 X o # > > H L T O.H.S.u.*.",
"N M M M V V M M M M V V V V V V V V V V V V V V V V V V V V V V V V V V M M M M V m j 9 j j j j j j 6 X X # > > H L T O.H.S.u.*.",
"N M M M V V V M M V V V V V V V V V V V V V V V V V V V V V V V V V V V M M M M M m j 9 j j j j j j 6 X X # > > H L T O.V.S.u.*.",
"N M M M M M V V V V V V V V V V V V V V V V V V V V V V V V V V V V V V M V V V M m 9 9 j j 9 j j j 6 X X # > > H P P  .V.F.u.*.",
"N M M M M M V V V V V V V V V V V V V V V V V V V V V V V V V V V V V V M M x x x x 9 9 j j j j j j 6 X o # > > T ' ' $.V.F.u.*.",
"N M M M M M M V V V V V V V V V V V V M V V V V V V V V V V V V V V V M M M l j j 9 j j j j j j j j 6 X o # > > ! [ [ k.H.F.i.*.",
"Z V V V V M M V V V V V V V V V V V M M V V V V M M M M M M V V M M M M M M 9 j j j j j j j j j j j 5 X o # > > ! { [ k.H.V.i.<.",
"Z V V V M M M V V V V V V V V V V V M M V V V V V M M M M M M M M M M M M m l j j j j j j j z z j p 4 o o # > > ! [ [ k.V.H.i.<.",
"Z V V V M M M M V V V V V V V V V V V M V V V V V M M M V M M M M M M M M M l j j j j j z p 5 6 5 3 $ @ : F J J ` [ [ k.V.J.i.*.",
"Z V V V M M M M M V V V V V V V V V V V V V V V V V V V V V M M M M M M V M z j j z j j z y X + + + # > > H T T ' [ [ k.V.Z.i.) ",
"Z V V M M M M M M M M V V V V V V V V V V V V V V V V V V V V M M M M M V M z j j j z j j y X X + + # > > H P P ' [ [ k.V.S.i.) ",
"Z V V M M M M V V V V V V V V V V V V V V V V V V V V V V V V M M M M M V M z j j z z j z y X X + + # > > H P P ' [ [ k.V.F.i.*.",
"N V V M M M V V V V V M V V V V V V V V V V V V V V V V V M M M M M M M V M z j z z j j j y X X X + # > > H P P ' [ [ k.V.F.i.<.",
"N M M M M V V V V V M M M M V V V V V V V V V V V V V V M M M M M M M M M M z z z z j j j y X X X + # > > H L P ' [ [ k.V.H.i.<.",
"N M M M V V V V V V M M M M M M V V V V M M M V M M V V M M M M M M M M M M z j j z z j j y X X X + : > > H T P ' [ [ k.V.S.i.<.",
"Z V V V V V V V V V M M M M M M V V V V V M M M M M M M M M M M M V V V V M z j j j j j j y X X X o # > > J T T ' [ [ k.H.S.i.<.",
"N V V V Z V V V M M M M M M M V V V V V V M M M M M M M M M M M M V V V M m j j j j j j j p + X + + # . > R ] ] ] [ [ k.H.J.i.<.",
"N Z Z A Z N N N N N N N N N N N Z N Z N N N N N N N N N N N N N N N N N N N k k k k k k k s 0 & o & @   . R ] [ } [ [ l.J.S.i._ "
};
