/* XPM */
static char *top_center_background[] = {
/* columns rows colors chars-per-pixel */
"64 64 135 2 ",
"   c #7B9E57",
".  c #7B9E5A",
"X  c #7CA057",
"o  c #7CA059",
"O  c #799F65",
"+  c #7AA066",
"@  c #7BA368",
"#  c #7EA675",
"$  c #7FA875",
"%  c #7AA37B",
"&  c #89A759",
"*  c #87AA5B",
"=  c #89AB5A",
"-  c #90AF5C",
";  c #96B65F",
":  c #A1BF5F",
">  c #80A062",
",  c #80A16C",
"<  c #8AAD6E",
"1  c #97B661",
"2  c #98B661",
"3  c #9CBB62",
"4  c #94B468",
"5  c #81A774",
"6  c #80A877",
"7  c #A2BF62",
"8  c #A4BD6B",
"9  c #A3C063",
"0  c #ADC664",
"q  c #ADC665",
"w  c #ADC765",
"e  c #ADC666",
"r  c #ADC766",
"t  c #AEC666",
"y  c #AEC766",
"u  c #ACC564",
"i  c #ACC565",
"p  c #AFC867",
"a  c #B1C967",
"s  c #B2C966",
"d  c #B0C76E",
"f  c #B2C96A",
"g  c #B2CA69",
"h  c #B9CF6A",
"j  c #BCD16D",
"k  c #BED16C",
"l  c #BFD26C",
"z  c #BED26D",
"x  c #BFD26D",
"c  c #BFD16E",
"v  c #BDD36F",
"b  c #BFD26E",
"n  c #BED36E",
"m  c #BFD36E",
"M  c #BFD26A",
"N  c #B1C672",
"B  c #BFCF73",
"V  c #BDCC78",
"C  c #BFD075",
"Z  c #C0D36B",
"A  c #C0CF75",
"S  c #C0D175",
"D  c #C1D178",
"F  c #87B18C",
"G  c #85B08E",
"H  c #85B095",
"J  c #8BB498",
"K  c #89B39C",
"L  c #88B49F",
"P  c #8EB7AC",
"I  c #8AB9AC",
"U  c #8BB9AC",
"Y  c #8BB9AD",
"T  c #8ABAAC",
"R  c #8BBAAC",
"E  c #8BBAAD",
"W  c #8BB9AE",
"Q  c #8CB9AC",
"!  c #8CB9AD",
"~  c #8CBAAC",
"^  c #8CBAAD",
"/  c #8CB9AE",
"(  c #8CB8AF",
")  c #8DBAAE",
"_  c #92B8AE",
"`  c #8BB9B0",
"'  c #8ABAB2",
"]  c #8CBBB3",
"[  c #8EBCB0",
"{  c #8BBBB4",
"}  c #8CBCB7",
"|  c #8FBFB6",
" . c #8DBFB8",
".. c #8FBFB9",
"X. c #8CBCBA",
"o. c #8DBDBB",
"O. c #8DBEBB",
"+. c #8DBFBB",
"@. c #8EBEBA",
"#. c #8EBEBB",
"$. c #8BBDBF",
"%. c #8BBEBE",
"&. c #8BBFBE",
"*. c #8BBEBF",
"=. c #8BBFBF",
"-. c #8DBCBC",
";. c #8CBEBD",
":. c #8EBEBC",
">. c #8CBDBE",
",. c #8CBCBF",
"<. c #8CBEBE",
"1. c #8CBFBE",
"2. c #8CBEBF",
"3. c #8CBFBF",
"4. c #8DBFBF",
"5. c #92BCBD",
"6. c #91BEBD",
"7. c #8BBCC0",
"8. c #8BBCC1",
"9. c #8BBEC0",
"0. c #8BBEC1",
"q. c #8BBDC2",
"w. c #8BBEC2",
"e. c #8CBCC0",
"r. c #8CBDC0",
"t. c #8CBDC1",
"y. c #8CBEC0",
"u. c #8DBEC0",
"i. c #8CBFC0",
"p. c #8DBFC0",
"a. c #8DBFC1",
"s. c #8CBDC3",
"d. c #8CBEC2",
"f. c #8DBEC2",
"g. c #8DBEC3",
/* pixels */
"5.*.2.2.2.2.*.*.*.*.*.2.2.2.*.2.0.0.2.0.r.r.r.0.r.*.*.r.r.2.2.2.r.r.r.2.2.r.r.r.r.2.0.0.r.r.r.r.r.r.r.r.r.r.r.r.2.2.2.2.*.2.2.5.",
"P I I I I ^ ^ I I I I I I I I I ` 2.0.0.r.r.r.r.+.I ^ ^ ^ I I ^ ^ ^ ^ I I I ^ ^ ^ ^ ^ ` r.r.r.r.r.r.0.| I I ^ ^ I I I ^ ^ ^ ^ _ ",
"O O O O + + + + + + O O O + + + # ] 0.0.r.r.r.r.L O O O O O O O + O O + + + O + + + O % 2.r.r.r.r.r.r.H O O O O O O O + + + @ , ",
". . . . . . . . . . . . . o o o @ { r.2.*.r.r.*.K . . . . . . . . . . . . . . o o . . # +.2.r.0.0.r.2.G . . . . . . . . . . o > ",
". . . . . . . . . . . . o o o o @ [ +.+.+.+.+.+.J . . . o o o o . . . . . . . . o o o # | +.+.+.+.2.+.G .   o . . . . . . . . . ",
"4 1 1 1 1 1 1 1 ; ; ; 1 ; ; 1 1 4 5 # # # # # $ < 1 2 2 2 1 1 1 1 1 1 1 1 1 1 1 1 1 2 4 5 # # # # # 6 < 1 1 1 1 1 1 1 1 1 1 ; 4 ",
"8 7 7 7 7 7 7 7 7 7 7 7 7 7 7 7 3 X . . o o .   & 7 7 7 7 7 7 7 7 7 7 7 7 7 7 7 7 7 7 3   . o o X X X = 7 7 7 7 7 7 7 7 7 7 : 8 ",
"8 7 7 7 7 7 7 7 7 7 7 7 7 7 7 7 3 o o . o o o o * 7 7 7 7 7 7 7 7 7 7 7 7 7 7 7 7 7 7 3 X o o o o o o = 7 7 7 7 7 7 7 7 7 : : 8 ",
"8 7 7 7 7 7 7 7 7 7 7 7 7 7 7 7 3 = * * * * * * - 7 7 7 7 7 7 7 7 7 7 7 7 7 7 7 7 7 7 3 * * * * * * * ; 7 7 7 7 7 7 7 7 7 7 : 8 ",
"8 7 7 7 7 7 7 7 7 7 7 7 7 7 7 7 7 7 7 7 7 7 7 7 7 7 7 7 7 7 7 7 7 7 7 7 7 7 7 7 7 7 7 7 7 7 7 7 7 7 7 7 7 7 7 7 7 7 7 7 7 7 7 8 ",
"8 7 7 7 7 7 7 7 7 7 7 7 7 7 7 7 7 7 7 7 7 7 7 7 7 7 7 7 7 7 7 7 7 7 7 7 7 7 7 7 7 7 7 7 7 7 7 7 7 7 7 7 7 7 7 9 9 9 7 7 7 7 7 8 ",
"8 7 7 7 7 7 7 7 7 7 7 7 7 7 7 7 7 7 7 7 7 7 7 7 7 7 7 7 7 7 7 7 7 7 7 7 7 7 7 7 7 7 7 7 7 7 7 7 7 7 7 7 7 7 9 9 9 9 9 9 9 7 9 8 ",
"8 7 7 7 7 9 0 0 0 0 0 0 0 9 7 7 7 7 7 7 7 7 7 7 7 7 9 7 u 0 0 0 0 0 0 0 0 0 0 0 7 7 7 7 7 7 7 7 7 7 7 7 9 7 9 9 9 9 9 9 9 9 9 8 ",
"8 7 7 7 7 a b b b b b b b 9 7 7 7 7 7 7 7 7 7 7 7 7 9 7 g b b b b b b b b b b b 7 7 7 7 7 7 7 7 7 7 7 9 9 9 9 9 9 9 9 9 9 9 9 8 ",
"8 9 7 7 7 g Z Z Z Z Z Z b 9 7 7 7 7 9 9 7 7 7 7 7 7 7 7 g Z Z b Z Z Z Z Z b Z b 7 7 7 7 7 7 7 7 7 7 7 7 9 7 7 7 9 9 9 9 9 9 9 8 ",
"8 9 7 7 7 g b Z k Z b k b 9 7 7 7 9 9 9 7 7 9 7 7 7 7 7 f b b Z Z Z Z Z Z b b b : 7 7 7 7 7 7 7 7 7 7 7 7 7 7 7 9 9 9 9 9 9 9 8 ",
"d a a a a h Z k k Z b k b g a a 0 9 9 7 7 7 7 7 9 a a a h Z Z Z Z Z Z Z Z Z b b a p a 0 7 7 7 7 7 7 7 u g a g a a g g g a a g N ",
"C Z Z b b Z Z k k k b b Z Z b b b 9 9 7 7 7 7 9 0 Z Z k Z Z Z Z Z Z Z Z Z Z b Z b b Z h 7 7 7 7 7 7 7 0 Z Z b b b b b b b b b C ",
"C b Z Z Z Z Z Z Z Z Z Z Z Z b b b 9 9 7 7 7 7 7 0 b Z Z Z Z Z Z b b Z Z Z Z Z Z Z Z Z h 7 7 7 7 7 7 7 0 Z Z b Z Z Z Z Z b k k B ",
"S b Z Z Z Z Z Z Z Z Z Z Z Z Z b b 9 7 7 7 7 7 7 u Z Z Z Z b Z b b b Z Z Z Z Z Z Z Z Z h 7 7 7 7 7 7 7 0 b Z b b Z Z Z Z k k k A ",
"S b k Z Z Z Z Z Z Z Z Z Z Z Z Z b g g g a a a g h Z k k b b b b b b Z Z Z Z Z Z Z b Z k g g a a g a a h Z Z b Z Z Z Z Z k k k A ",
"C b k Z Z Z Z Z Z Z Z Z Z Z Z Z Z Z Z Z Z Z Z Z Z Z k k m b b b b b Z Z Z Z Z Z Z Z Z Z Z Z Z k k k k Z Z Z Z Z Z Z Z Z Z Z k A ",
"C b k Z Z Z Z Z Z Z Z Z Z Z Z Z Z Z Z Z Z Z Z b k k k k b b b b b b Z Z Z Z Z Z Z Z Z Z Z Z Z Z Z k k Z Z Z Z Z Z Z Z Z Z Z k A ",
"C b k k Z Z Z Z Z Z Z Z Z Z Z Z Z Z Z Z Z b b b m m b b b b b b b b Z Z Z k k b b Z Z Z Z Z Z Z Z k k Z Z Z Z Z Z Z Z Z Z Z k S ",
"B k k k k k k Z Z Z Z Z Z Z Z k k k b b M M M k m m k k k k k k M M k Z Z Z k k M M M M b k k k Z Z b b Z Z Z Z Z Z Z Z Z Z k C ",
"A k k k Z Z k k k k Z Z Z Z Z k k Z k k M M M b m m k k k k k k Z Z k Z Z Z k M M M M M b k k Z Z Z b b Z Z Z Z Z Z Z Z Z Z k C ",
"A k k k Z Z Z Z k k Z Z Z Z Z Z k Z M M M M b b m b Z Z Z k k k Z Z Z Z Z Z k k M M k k k k M Z Z Z m b Z b k k k Z Z Z Z Z Z S ",
"S k k Z Z Z Z k Z k Z k Z Z Z Z Z Z Z M M M k b b b Z Z Z k k k Z Z Z M k k k k M M k k k Z M k k b b b b k k k Z Z Z Z Z Z Z S ",
"S b Z Z Z Z Z Z Z Z Z k Z Z Z Z Z Z Z Z k k k b b Z Z Z Z Z Z Z Z Z Z k M M Z Z Z Z Z Z Z Z Z M M m m b b k k k Z Z Z Z Z Z Z S ",
"S b Z Z Z Z Z k Z Z k k Z Z Z Z Z Z Z Z k k k b b Z Z Z Z Z k Z Z Z Z k k M Z Z Z Z Z Z Z Z Z M M b m M b k k Z Z Z Z Z Z Z Z S ",
"S k Z k Z Z Z k k Z k k Z Z Z Z Z Z Z Z Z k k b b Z Z Z Z Z Z Z k Z k k k k Z Z k k k k k k k k M m m M b k M M k M Z Z Z k k C ",
"S k Z k Z Z Z Z k k k b b Z Z Z Z Z Z Z Z k b b b Z Z Z Z Z Z Z k Z k Z Z Z Z Z b b k k k k k k k b M M k k M M k k Z Z Z k Z S ",
"S k k Z Z k k k k k Z Z k k k k k Z Z Z Z k b m b Z Z Z Z b k M k Z k Z Z Z Z Z b b k k Z Z Z M k b b b b k M k M k Z Z Z Z Z C ",
"C k k k k k k k k k Z Z k k k k k Z Z Z k k b k Z Z Z Z Z b M M k Z Z Z Z Z b b b k k k Z Z Z M k k k k k k M M M k k Z Z Z Z A ",
"C b k k k k k k k k Z Z k k Z k Z k Z Z k k k Z Z Z Z Z Z b b b Z Z Z Z Z Z b b b k k k Z Z Z Z Z Z Z Z Z Z Z Z M k k Z Z Z Z A ",
"C b b k k k k k k k Z Z M k Z k k k k k k k k k k Z b k b b b b Z Z Z Z k Z Z Z Z k k k Z Z Z Z Z Z Z Z Z Z Z Z M Z Z k k Z Z A ",
"A b k k k k k k k Z Z Z Z Z Z k k k k k k k k k k k M M M M k k Z Z Z Z Z Z Z Z M k k k k k Z k Z Z Z Z Z Z Z Z Z Z Z Z k k k C ",
"A Z k k k Z k k k k k Z Z Z Z k k k k k Z Z Z k k k k k M Z Z Z Z Z Z Z Z Z Z Z M k k k k k Z Z Z Z Z Z Z Z Z Z Z Z Z Z k k k C ",
"A Z k k k k Z Z k k k Z Z Z Z Z k k k k Z Z Z k k k k k M Z Z Z Z Z Z Z Z Z k Z Z M k k k k Z Z Z Z Z Z Z Z Z Z Z Z Z Z k k k C ",
"C k k Z k k k k k Z Z Z Z Z Z k k k k k Z Z Z Z k k k k M Z Z Z Z Z Z Z Z Z k Z Z Z k k k Z Z Z Z Z Z Z Z Z Z Z Z Z Z Z Z Z Z S ",
"C k k Z Z Z k k k Z Z Z Z Z Z k k Z Z Z Z Z Z Z Z Z k k k Z Z Z Z Z Z Z Z Z Z Z Z Z Z Z Z Z Z Z Z Z Z Z Z Z Z Z Z Z Z Z Z Z Z S ",
"C k Z Z Z k k Z Z Z Z Z k Z k k k Z Z Z Z Z Z Z Z Z Z Z Z Z Z Z Z Z Z Z Z Z Z Z Z Z Z Z Z Z Z Z Z Z Z Z Z Z Z Z Z Z Z Z Z Z Z S ",
"C b Z Z Z Z Z Z k k Z Z k k k k Z Z Z Z b k k Z Z Z Z Z Z Z Z Z Z Z Z Z Z Z Z Z Z Z Z Z Z Z Z Z Z Z Z Z Z Z Z Z Z Z Z Z Z Z Z S ",
"C Z Z Z Z Z Z Z k k k k k k k k Z Z Z Z m b b Z Z Z Z Z Z Z Z Z k Z Z Z Z Z Z Z Z Z Z Z Z Z Z Z Z Z Z Z Z Z Z Z Z Z Z Z Z Z Z S ",
"C k k Z Z Z Z Z k k k Z k k k k k k Z Z Z Z Z Z Z Z Z Z Z Z k k Z Z Z Z Z Z Z Z Z k k Z Z Z Z Z Z Z Z Z Z k k k Z Z Z Z Z Z Z S ",
"A Z Z Z Z Z Z Z Z Z Z Z Z Z Z Z Z Z Z Z Z Z Z Z Z Z k k k Z Z Z Z Z Z Z Z Z Z Z Z Z k Z Z Z Z Z Z Z Z Z Z k k k Z Z Z Z Z Z Z S ",
"A Z Z Z Z Z Z Z Z Z Z Z Z Z Z k k Z Z Z Z Z Z Z Z Z k k k Z Z Z Z Z Z Z Z Z Z Z Z Z k Z Z Z Z Z Z Z Z Z Z Z Z Z Z Z Z Z Z Z Z S ",
"A Z k Z Z Z k Z Z Z Z Z Z Z Z Z Z Z Z Z Z Z Z Z Z Z k k k Z Z Z Z Z Z Z Z Z Z Z Z Z Z Z Z Z Z Z Z Z Z Z Z Z Z Z Z Z Z Z Z Z Z S ",
"A Z k k Z Z Z Z Z Z Z Z Z Z Z Z Z Z Z Z Z Z Z Z Z Z k k k Z Z Z Z Z Z Z Z Z Z Z Z Z Z Z Z Z Z Z Z Z Z Z Z Z Z Z Z Z Z Z Z Z Z S ",
"A Z k k Z k Z Z Z Z Z Z Z Z Z Z Z Z Z Z Z Z Z Z Z Z k k k Z Z Z Z Z Z Z Z Z Z Z Z Z Z Z Z Z Z Z Z Z Z Z Z Z Z Z Z Z Z Z Z Z k A ",
"A Z k k k k Z Z Z Z Z Z Z Z Z Z Z Z Z Z Z Z Z Z Z Z Z Z Z Z Z Z Z Z Z Z Z Z Z Z Z Z Z Z Z Z Z Z Z Z Z Z Z Z Z Z Z Z k Z k Z k A ",
"S k k k k k Z Z Z Z Z Z Z Z Z Z Z Z Z Z Z Z Z Z Z Z Z Z Z Z Z Z Z Z Z Z Z Z Z Z Z Z Z Z Z Z Z Z Z Z Z Z Z Z Z Z Z Z Z Z Z Z k S ",
"C k k k k Z Z Z Z Z Z Z Z Z Z Z Z Z Z Z Z Z Z Z Z Z Z Z Z Z Z Z Z Z Z Z Z Z Z Z Z Z Z Z Z Z Z Z Z Z Z Z Z Z Z Z Z Z k Z Z k Z S ",
"C k k k k Z Z Z Z Z Z Z Z Z Z Z Z Z Z Z Z Z Z Z Z Z Z Z Z Z Z Z Z Z Z Z Z Z Z Z Z Z Z Z Z Z Z Z Z Z Z Z Z Z Z Z Z Z k Z k Z Z S ",
"C k k k Z Z Z Z Z Z Z Z Z Z Z Z Z Z Z Z Z Z Z Z Z Z Z Z Z Z Z Z Z Z Z Z Z Z Z Z Z Z Z Z Z Z Z Z Z Z Z k k Z Z Z Z Z Z Z Z Z Z S ",
"C k k M Z Z Z Z Z Z Z Z Z Z Z Z Z Z Z Z Z Z Z Z Z Z Z Z Z Z Z Z Z Z Z Z Z Z Z Z Z Z Z Z Z Z Z Z Z Z k M k Z Z Z Z Z Z Z Z Z Z S ",
"C k k M Z k Z k k Z Z Z Z Z Z Z Z Z Z Z Z Z Z Z Z Z Z Z Z Z Z Z Z Z Z Z Z Z Z Z Z Z Z Z Z Z Z Z Z Z k b k k Z Z Z Z Z Z Z Z Z S ",
"C k k Z Z Z Z k k Z Z Z Z Z Z Z Z Z Z Z Z Z Z Z Z Z Z Z Z Z Z Z Z Z Z Z Z Z Z Z Z Z Z Z Z Z Z Z Z Z b b k k M M Z Z Z Z Z Z Z S ",
"S k k k Z Z Z k k k Z k k k Z Z Z Z Z Z Z Z Z k k Z Z Z Z Z Z Z Z Z Z Z Z Z k k Z Z Z Z Z Z Z Z Z Z k m k k k k k Z Z Z Z Z Z D ",
"S b k k Z Z Z Z k k k k k k k Z Z Z Z Z Z Z Z k k Z Z Z Z Z Z Z Z Z Z k k k k k k Z Z Z Z Z Z Z Z Z k k k k Z Z Z Z Z Z Z Z Z D ",
"S k k k Z Z Z k k k k k k k M Z Z Z k k k k M Z Z Z Z Z Z Z Z Z Z Z Z k k k k M k k k k k k M Z Z Z k k k k Z Z k k k Z Z Z Z D ",
"C k k Z Z Z Z k k k k k k M Z Z Z k k k k k M Z Z Z Z Z Z Z Z Z Z Z k k Z Z k Z Z k k k k k M Z Z Z k k k k k Z Z Z Z Z Z Z Z D ",
"B k Z Z Z Z Z k k k k k k k Z Z b Z k Z k k k k Z Z Z Z k k k k k k k b Z Z Z Z Z Z Z Z Z Z Z Z Z Z Z Z Z k k k Z Z Z Z Z Z Z S ",
"B B S S S S B B B B B B B B C B B B B A A B B B C C C C B C b b B B B B B B B B B A S S A B A A A A A A A B B B B S S D S B B B "
};
