/* XPM */
static char *center_background[] = {
/* columns rows colors chars-per-pixel */
"64 64 100 2 ",
"   c #BFCC7A",
".  c #BFCE75",
"X  c #BFCF78",
"o  c #BFCF77",
"O  c #BFCF75",
"+  c #C0D075",
"@  c #C0D174",
"#  c #C0D074",
"$  c #C0D076",
"%  c #BFCF74",
"&  c #C1D075",
"*  c #BFD075",
"=  c #C0D176",
"-  c #C0D175",
";  c #C0D073",
":  c #C0CF73",
">  c #C1CF74",
",  c #BFD074",
"<  c #C1D176",
"1  c #C0D072",
"2  c #BECC77",
"3  c #C1CF79",
"4  c #C0D16E",
"5  c #BFD16E",
"6  c #BFD16C",
"7  c #C0D26C",
"8  c #C0D26B",
"9  c #C0D36B",
"0  c #C0D26A",
"q  c #C0D36A",
"w  c #BFD269",
"e  c #BFD26A",
"r  c #C1D26C",
"t  c #C1D36C",
"y  c #C0D369",
"u  c #C0D16B",
"i  c #C1D36A",
"p  c #C1D36B",
"a  c #C0D36C",
"s  c #BFCF76",
"d  c #C2D07B",
"f  c #BFD16D",
"g  c #BFD16B",
"h  c #C1D36D",
"j  c #BFD26B",
"k  c #C0D079",
"l  c #C1CF7A",
"z  c #C0D16D",
"x  c #BFD169",
"c  c #C1D46B",
"v  c #C1D46C",
"b  c #BFD36A",
"n  c #C0D078",
"m  c #BFD16A",
"M  c #C1D46A",
"N  c #C1D177",
"B  c #C0D368",
"V  c #C0CF77",
"C  c #C0D173",
"Z  c #BFD268",
"A  c #BFD174",
"S  c #BFD073",
"D  c #C0D269",
"F  c #C0CF74",
"G  c #BFD36C",
"H  c #BED26B",
"J  c #BFD36D",
"K  c #C0D16A",
"L  c #C0CF76",
"P  c #BFD06C",
"I  c #BED16A",
"U  c #BFD076",
"Y  c #C1D469",
"T  c #C1D36E",
"R  c #BFD267",
"E  c #C1D074",
"W  c #BED26A",
"Q  c #C0CF75",
"!  c #C1D275",
"~  c #BED26C",
"^  c #BFD26D",
"/  c #C1D36F",
"(  c #C1D26A",
")  c #C0D26E",
"_  c #C1D076",
"`  c #BED16B",
"'  c #BED36A",
"]  c #C1CF75",
"[  c #C1CF76",
"{  c #C1CF78",
"}  c #C0CE78",
"|  c #C0D26D",
" . c #C0D177",
".. c #BFD26C",
"X. c #C0D170",
"o. c #C0CF78",
"O. c #BFCD79",
"+. c #C0D077",
"@. c #C1D178",
"#. c #C0CD7C",
/* pixels */
"  . X o O + @ @ # # + $ + % # # # & & & & & & + + + * + = $ $ $ $ $ $ # - - ; : : : > & + # # , # - + + < # # + $ $ $ $ + @ 1 2 ",
"3 4 5 6 7 7 8 9 0 q 0 0 w w e e e 9 q q 8 r t q q q q q q q q q q q q y y y 8 8 u q q q 8 7 8 0 q q q i p 9 a 7 7 7 7 8 0 q 8 s ",
"d 4 f g 8 8 8 9 q q w w w w w w w q q q t h h q q q q q q q q q q q q q w q j 8 j q q q j 8 8 q q q q q q 8 7 7 7 7 7 8 q q q k ",
"l z g x q q q c q q w w w w w w w q q c c v t q q q q q q q q q q q q q w w q w w q q q w q q b b b q q q 8 7 7 7 7 7 9 q q c n ",
"l z m w w y y M q q q q q w w w w w q c M c 9 q q q q q q q q q q q q q q q q q q q q q q q c q b b q q q 9 8 9 9 9 8 9 q c c N ",
"3 z j q y B B y q q q q q q w w w w q c c q q q q q q q q q q q q q q q q q q q q q q q q c c c q q q w q q q q q q q q c c c = ",
"V u m w q q q q q q q q q q w w q q q q c q q q q q q q q q q q q q q c q q q q q q q q q q c c q q w w q q q q q q q q q c M @ ",
"% g m w q q q q q q q q q q q q q q q q q q q q q q q q q q q q q q q q q q q q q q q q q q q c q q w w w w q q q q q y y q q C ",
"* 6 m w q q q q q q q w q q q q q q q q q q q q q q q q c q q q q w w q q q q q q q q q q q q q q q w w w w w w w w q y Z w w A ",
"* 6 m q q q q q q q q q q q q q q q q q q q q q q q q q q q q q w w w q q q q q q q q q q q q q q q w w w w w w q q q y Z w x S ",
"* 6 m q w q q q q q q q q q q q q q q q q q q q q q q q q c q q D D D q q q q q q q q q q q q q q q w w w w w w q c q w Z e x S ",
"* g m w w q q q q q q q q q q q q q q q q q q q q q q q q q q q q q q q q q q q q q q q q q q q q q w w q q q q q q q w w u m F ",
"* g m w w q q q q q q q q q q q q q q q q q q q q q q q q q q q G G H q q q q c q q q q q q q q q q q q q q q q q q q w w u m F ",
"$ 6 m w q q q q q q q q q q q q q q q q q q q q q q q q q q q 9 J G H q q q q q q q q q w w q q q q q q q q q q q q w w w K e F ",
"L 6 m w w q q q q q q q q q q q q q q q q q q q q q q q q q 9 7 7 7 q q q q q q q q q q q q q q q q q q q q q q q q w w w w w , ",
"L P I w w w q q q q q q q q q q q q q q q q q q q q q q q q 9 7 a q y q q q q q q q q q w w q q q q q q q q q q q w w w w w w , ",
"L 6 m w w w q q q q q q q q q q q q q c q q q q q q q q q q 9 7 q y B q q q q q q q q q w w q q q q q q q q q q q w w w w w w , ",
"U 6 m w q q q w q q q q q q q q q q q q q q q q q q q q q q q q q y B M h q q q q q q q q w q q q q q q q q q q q q w w w w Z C ",
"U 6 m w q q q q q q q q q q q q q q q q c q q q q q q q q q q q c M Y v T 9 q q q q q q q q q q q q q q q q q q q q q w q w w @ ",
"s 6 e y q q q q q q q q q q q q q q q q q q q q q q q q q q q q c M Y v T h q q q q q q q q q q q q q q q q q q q q w w q q Z C ",
"$ 8 q R y q q c q q q q q q q q q q c c c q q q q q q q c q q q q c c c c c q q q 9 q B q q q q q q q q q q q q q w q q q q y @ ",
"* j w R y q q q q q q q q q q q q q q q q q q q q q q q q q q q q q q c c q q q q 9 q B M q q q q w w w w q q q q q q w w q y @ ",
"* e w R y q q q q q q q q q q q q q q q q q q q q q q q q q q q q q q q q q q q q 9 q B M c q w w w w w w w q q q q q q q q q @ ",
"F e w w w w q q q q q q q q q q q q q q q q q q q q q q q q q q q q q q q q q q q q q q q q q w w q w w w w w q q q q q q q 9 + ",
"E e w w w w q q q q q q q q q q q q q q q q q q q q q q q q q q q q q c q q q q q q q q q q q q q w w w w w w q q q c q q q q - ",
"# W w w q w w w q q q q q q q q q q q w q q q q q q q q q q q q q q q q q q q q q q q q q q q q q w w w w w w w q q c q q q q - ",
"* j q q q w w w q w q w w w w w w q q q q w q q q q q q q q q q q q q q q q q q q q q q q q q q w w w w w q w q q q q q q q 9 - ",
"U j q q q w w w w w w w w w w w w q q q q q q q q q c q q q q q q q q q q q q q q q w q q q q q w w w w w q q q q q q q q q q - ",
"$ 8 q w q w w w w w w w w w w w w q q q q q q q c c q q q q q q q q q q q q q q q q w q q q q q w w q w w q q q q q q q q q q - ",
"* j q q q w w 9 7 7 8 q q w q w w q q q q q q q q q q q q q q q q q q q q q q q q q q q q q q q w w w w q q q q w q w q q q y @ ",
"* m w q q w q 9 h 7 8 q q 9 8 7 8 q q q q q q q q q q q q q q q q q q q q c q q q q q q q q q q w q w q q q w w w w w q q q y @ ",
"* m w w q w w e 7 7 8 q w 9 7 7 7 q q q q q q q q q q q q q q q q q w q c c q q c q q q q q q q w w w q q q w w w w w q q q y @ ",
"Q W w B y q q q q q q q q 9 7 7 7 q q q q q q q q q q q q q q q q q q c c q q q q q q q q q q q q q q q q q q w w w q q q c M ! ",
"Q ~ 8 w q q q q q q q q q 9 7 7 7 q q c c q q q q q q q q q q q q q q c q q q q q q q q q q c c c q q q q q q w w w q q q q y @ ",
"Q ^ 7 e q q w q q q q q q 9 7 7 7 q q q c q q q q q q q q q q q c q q q q q q q q q q q q q c c q q q w q q q q w w w q q w y @ ",
", g g g 7 j w w q q q q q q q q q 7 7 7 q q q q c q q q q q q q q q q q q w q q q q q q q q q q q q q q q q c q q q w Z R R D = ",
"* 6 7 g 7 j w w q q q q w q q q q 7 7 7 q q q q q q q q q q q q q q q q q q q q q q q q q q q q w w w w q q q q q w w w w w q = ",
"U 6 g g g m w w q q q q w q q c q 7 7 7 q q q q q q q q q q q q w q q q q q q c q q q q q w q w w w w w q q q q w w w 0 e e 0 * ",
"U 6 g g m w w w q q q q w q q q q 0 e e q q q q q q q q c B y q q w w q q q q q q q q q q w w m 7 7 q q q q q q q w w w w e q * ",
"* 6 g g e w w w w q q w q q q q q q w w q q q q q q q q q y 0 8 w w w w q q q q q q q q q w w g 7 7 9 q q q q q q q w w w w 0 , ",
"+ 6 g g 8 q w w q q q q q w q q q q w w w q q q q q q q q q 7 7 w w w w w q q q q q q q q w q 7 7 7 9 q q q q q q w w w q w w , ",
"Q 6 g g 8 q q q c q q q w w w w w w w D q q q q q q q q q v h / 7 e w w w q 8 7 7 q q q q q q q q q q q q q q q q q w w w g g * ",
"Q g g g 8 q q q q q q q w w w w w w 0 ( q q q q c q q q q p h T 7 0 w w w w 7 7 7 q q q q q q q c q q q q q q q w w w w w g g U ",
"Q 6 g g 8 w q q q q q q w w w w w q q ( q q q q q q q w q 9 h ) 7 q q w w w 7 7 7 q q q w w q q q q q q q q q q w w w w w g g U ",
"Q g g g g w y y q q q q q q q q q q q q B Y y q q q q q 7 7 7 7 q q q B q q 9 q q 8 7 7 w w q q q q c q q q q q q w w w w w e * ",
"Q 6 g g g w y B w q q q q q q q q q q q y M q q q q q q 7 7 7 7 q q q B q 9 9 q q 7 7 7 q q q q q q q q q q q q w w w w w w e * ",
"Q 6 g g 7 q Z B q q q q q 9 7 7 8 q w q q c c q w w q q 7 q q q q q q Y q 9 q q q 7 7 7 q q q q q q w w q q q q w w w w w q q - ",
"* 6 g g 8 q w w q q q q q 9 7 7 7 q q q q q q q w q 7 q q c q q q q c c q q q q q 7 7 7 c q q q q w w w c q q q q q q Z R w e * ",
"* 6 7 g 8 q w w q q q q q 9 7 7 7 q q q q q q q w q 7 q q q q c q q q c q q q q q 9 9 9 q q q c q q q q q q q q q q q y B q e * ",
"* 6 g g 8 q q q q q q q q 9 7 7 t q q q q q q q q q 7 q q q q q q q q q q q q q q q q q c q q q q q w q q q q q c q q y B q w * ",
"* 6 g g e w w q q q q q q q 0 0 9 w w q q q q q q q 9 q q q q q q q q q q q q q q q q q q q q q w q w q q q q q c q q q y q q * ",
"* 6 g g e w w q c q q q q q w w q w w w q q q q q q q q q q q q q q q q q q q w w w q q q q q q w q w q q q q q q q q q q q q * ",
"* 6 g g e w w q q q w q q q w w w w w w q w q q q q q q q q q q q q q q q q w w w w w q q q q w w q q q q q q q q q q q w q e * ",
"+ 6 g g e q w q q q w w q q w q q w w w q q q q q q q q q 8 8 j q q q q q w w w w w w q q w q w w q q q q q q q q q q w w q e Q ",
"_ ` g g e q w w q q w w q q w q q w w w w q q q q q q q q 7 g g q q q c q w w w w w w q q w q w w w q q q q q q q q q w w q 0 Q ",
"_ ` g g e w w w q q w w q q w w w w w w w w w w q q ' ' ' 7 7 7 q q q c q w w w w w w q q q q w w w q q q q q q q q q q q q 0 Q ",
"] ` g e e w w w q q q q q q q q q w q w w w w w q q ' ' ' 9 9 9 q q q q q q q w w w w q q q q w w q q q q q q q q q q q q w w * ",
"[ g g q w w w w q q q q q q q q q w q q w w w w q q ' ' ' q q q q q q q q q q q q w w q q q q w w w q q q q q q q q q q q w w , ",
"V 6 g w w w q q q c c q q q q q q q q q q q w w q q q q q q q q q q q q q q q c q w w q q w q w q w q q q q q q q q q q w w w , ",
"{ 6 m Z w 8 9 y y y q q q q q w w y y y y q q q q q q w w q q q q q q q q q q q w w w w y Z Z w q q q q q q q q y y y y w w e $ ",
"} u m Z Z 7 | q y y y q q q q w w Z y y y q 8 q w w w w w q q q q q q c c q 8 9 e w w w Z Z y w w q w w w w w w w Z y y w g 8  .",
"3 g g m e g | q w w w w w w w w w w w q w 8 g m j m m m m j 8 8 8 8 8 t a a 7 7 7 e w w w w w e j 8 j m m m m m w w w w g 6 | k ",
"O m g 6 g 6 ..e j g g j j e e e e g g g g f f f g g g g g 6 7 7 | | | | 6 6 6 ..g j j j g m m g 6 7 g g 6 g g g m g ..| 6 4 X.o.",
"O.% +.+.+.n +.$ $ $ O * * $ +.+.U * $ = +.+.+.V * , * $ $ = = N  . . .+.$ $ + $ * $ $ _ +.+.+.$ $ $ $ $ $ L $ U + =  .@.+.n V #."
};
