/* XPM */
static char *water2[] = {
/* columns rows colors chars-per-pixel */
"64 64 37 1 ",
"  c #9BCEBF",
". c #96D2BE",
"X c #9CD4BE",
"o c #A1D6BE",
"O c #ABD7BE",
"+ c #A5D9BD",
"@ c #ABDDBB",
"# c #AADDBC",
"$ c #A9DCBE",
"% c #ACDDBC",
"& c #AEDEBC",
"* c #B2DFB9",
"= c #B0DFBA",
"- c #AEE0BB",
"; c #AFE1BD",
": c #B7E3B7",
"> c #B7E5B7",
", c #BAE3B7",
"< c #B8E4B6",
"1 c #B0E1BA",
"2 c #B4E3B8",
"3 c #B6E3B9",
"4 c #B6E4B9",
"5 c #B3E3BC",
"6 c #B6E4BC",
"7 c #B8E3B9",
"8 c #B9E4B8",
"9 c #BCE5BA",
"0 c #9DCFC0",
"q c #97D2C0",
"w c #98D2C0",
"e c #98D1C3",
"r c #9DD2C2",
"t c #9CD4C0",
"y c #A1D3C1",
"u c #A4D3C0",
"i c #ABDBC0",
/* pixels */
"rwwwwwwwwwwwwwwwwwwwwwwwwwwwwwwwwwwwwwwwwwwwwwwwwwwwwwwwwwwwwwww",
"rwwwwwwwwwwwwwwwwwwwwwwww$&&&&&&&Xwwwwwwwwwwwwwwwwwwwwwwwwwwwwww",
"rwwwwwwwwwwwwwwwwwwwwwwwX=<<88<84XwwwwwwwwwwwwwwwwwwX+++++++Xwww",
"rwwwwwwwwwwwwwwwwwwwwwwwX$1111311Xwwwwwwwwwwwwwwwwww+<<,,,,8+www",
"rqwwwwwwwwwwwwwwwwwwwwwwwwXXXXXwwwwwwwwwwwwwwwwwwwww+8837848+www",
"rwwwwwwwwwwwwwwwwwwwwwwwwwwwwwwwwwwwwwwwwwwwwwwwwwwwwXXXXXXXwXww",
"rwwwwwwwwwwwwwXwXwwwwwwwwwwwwwwwwwwwwwwwwwwwwwwwwwwwwwwwwwwwwwww",
"rwwwwwwwwwwwXooooooXwwwwwwwwwwwwwwwwwwwwwwwtoooooouwwwwwwwwwwwww",
"rwwwwwwwwwwX-4333331Xwwwwwwwwwwwwwwwwwwwwww$4443444owwwwwwwwwwww",
"rwwwwwwwwwwX1>>>>883Xwwwwwwwwwwwwwwwwwwwwww&884>484+wwwwwwwwwwww",
"rwwwwwwwwwwwo++++++owwwwwwwwwwwwwwwwwwwwwwwo+++++++rwwwwwwwwwwww",
"rwwwwwwwwwwwww0wwwwwwwwwwwwwwwwwwwwwwwwwwwwwwwwwwwwwwwwwwwwwwwww",
"rwwwwwwwwwwwwwwwwwwwwwwwwwwwwwwwwwwwwwwwwwwwwwwwwwwwwwwwwwwwwwww",
"rwwwwwwwwwwwwwwwwwwwwwwwwwwwwwwwwwwwwwwwwwwwwwwwwwwwwwwwwwwwwwww",
"rwwwwwwwwwwwwwwwwwwwwwwwwwwwwwwwwwwwwwwwwwwwwwwwwwwwwwwwwwwwwwww",
"Oooo++owwwwwwwwwwwwwwwwwwwwwwwwwwwwwwwwwwwwwwwwwwwwwwwwwwwwwo+++",
"9>>4886XqwwwwwwwwwwwwwwwwwwwwwXXXXXXXXXXXwwwwwwwwwwwwwwwwwww&888",
"3>>4884Xwwwwwwwwwwwwwwwwwwwwww$333333333&Xwwwwwwwwwwwwwwwwww&473",
"oXoooXXwwwwwwwwwwwwwwwwwwwwqqq&<8,,,,>>4-XwwwwwwwwwwwwwwwwwwXXXX",
"rwwwwwwwwwwwwwwwwwwwwwwwwwwqwqo@$@@@@@$$+wwwwwwwwwwwwwwwwwwwwwww",
"rwwwwwwwwwwwwwwwwwwwwwwwwwwwwwwwwwwwwwwwwwwwwwwwwwwwwwwwXooooXww",
"rwwwwwwwwwwwwwwwwwwwwwwwwwwwwwwwwwwwwwwwwwwwwwwwwwwwwwww$4444$ww",
"rqwwwwwwwwwwwwwwwwwwwwwwwwwwwwwwwwwwwwwwwwwwwwwwwwwwwwww$><::$ww",
"rqwwwwwwwwwwwwwwwwwwwwwwwwwwwwwwwwwwwwwwwwwwwwwwwwwwwwwwX++++oww",
"rqwwwwwwwwwwwwXooo++ooooXwwwwwwwwwwwwwwwwwwwwwwwwwwwwwwwwwwwwwww",
"rqwwwwwwwwwwwwX488888881Xwwwwwwwwwwwwwwwwwwwwwwwwwwwwwwwwwwwwwww",
"rwwwwwwwwwwwwwX38>>><<>1Xwwwwwwwwwwwwwwwwwwwwwwwwwwwwwwwwwwwwwww",
"wwwwwwwwwwwwwwwuooooooooXwwwwwwwwwwwwwwwwwwwwwwwwwwwwwwwwwwwwwww",
"rwwwwwwwwwwwwwwwwwwwwwwwwwwwwwwwwwwwwwwwwwwwwwwwwwwwwwwwwwwwwwww",
"rwwwwwwwwwwwwwwwwwwwwwwwwwwwqwwwwwwwqqwwwwwwwwwqwwwwwwwwwwwwwwww",
"rwwwwwwwwwwwwwwwwwwwwwwwwwwwwwwwwwwwwwwwwwwwwwwwwwwwwwwwwwwwwwww",
"wwwwwwwwwwwwwwwwwwwwwwwwwwwwwwwwwwwwwwwwwwwwwwwwwwwwwwwwwwwwwwww",
"rwwwwX++++++Xwwwwwwwwwwwwwwwwwwwwwwwwwwwwwwwwwwwwwwwwwwwwwwwwwww",
"rqwwwo<<<,<4owwwwwwwwwwwwwwwwwwwwwwwwwwwwwwwwwwwwwwwwwwwwwwwwwww",
"0qwwwo877344owwwwwwwwwwwwwwwwwwwwwwwwwwwwwwwwwwwwwwwwwwwwwwwwwww",
"0qwwwwXXXXXXXwwwwwwwwwwwwwwwwwwwwwwwwwwwwwwwwwwwwwwwwwwwwwwwwwww",
"0wwwwwwwwwwwwwwwwwwwwwwwwwwwwwwwwwwwww+&&&&owwwwwww+&&&&&&$Xwwww",
"Xwwwwwwwwwwwwwwwwwwwwwwwwwwwwwwwwwwwww58<44+wwwwwww&<<<8884Xwwww",
"wwwwwwwwwwwwwwwwwwwwwwwwwwwwwwwwwwwwww;4433+wwwwwww$3333335Xwwww",
"wwwwwwwwwwwwwwwwwwwwwwwwwwwwwwwwwwwwwwXXXXXwwwwwwwwXXXXXXXXXwwww",
"rwwwwwwwwwwwwwwwwwwwwwwwwwwwwwwwwwwwwwwwwwwwwwwwwwwwwwwwwwwXwwww",
"rwwqwwwwwwwwwwwwwwwwwwwwwwwwwwwwwwwwwwwwwwwwwwwwwwwwwwwwwwwwqwww",
"uXXXXwwwwwwwwwwwwwwwwwwwwXXXXXXXXXwwwwwwwwwwwwwwwwwwwwwwwwwwttuo",
"=313+wwwwwwwwwwwwwwwwwwwX@33::3:1Xwwwwwwwwwwwwwwwwwwwwwwwwww$433",
":>88iwwwwwwwwwwwwwwwwwwwX&77377<4Xwwwwwwwwwwwwwwwwwwwwwwwwww&8,,",
"$@&&uwwwwwwwwwwwwwwwwwwww+@@$$@@+Xwwwwwwwwwwwwwwwwwwwwwwwwwwo$$$",
"rwwwwwwwwwwwwwwwwwwwqwwwwwqwwwwqqwwwwwwwwwwwwwwwwwwwwwwwwwwwwqqq",
"rwwwwwwwwwww+$@+$@$+Xqwwwwwwwwwwwwwwwwwwwwwwwwwwwwwwwwwwwwwwwqqq",
"rwwwwwwwwwwX18<>>>44Xqwwwwwwwwwwwwwwwwwwwwwwwwwwwwwwwwwwwwwwwwww",
"rqwwwwwwwwwX&3333341Xqwwwwwwwwwwwwwwwwwwwwwwwwwwwwwwwwwwwwwwwwww",
"0qwwwwwwwwwwwtXXXXXXwwwwwwwwwwwwwwwwwwwwwwwwwwwwwwwwwwwwwwwwwwww",
"rqwwwwwwwwwwwwwwwwwwwwwwwwwwwwwwwwwwwwwwwwwwwwwwwwwwwwwwwwwwwwww",
"rwwXwwwwwwwwwwwwwwwwwwwwwwwwwwwwwwwwwwwwwwwqqqwwwwwwwwwwwwwwwXXX",
"&&&@oqwwwwwwwwwwwwwwwwwwwwwwwwwwwwwwwwwwwwwqqwwwwwqwwwwwwwwwo&&&",
"7888+qwwwwwwwwwwwwwwwwwwwwwwwwwwwwwwwwwwwwwX+++++++twwwwwwww&<:>",
"=111owwwwwwwwwwwwwwwwwwwwwwwwwwwwwwwwwqwwww$44><<88+wwwwqqww$111",
"XXXXXwwwwwwwwwwwwwwwwwwwwwwwwwwwwwwwwwwwwww$4443333+wwwwwwwwwXXX",
"yq.wwwwwwwwwwwwwwwwwwwwwwwwwwwwwwwwwwwwwwwwXXXXXXXowwwwwwwwwwwqq",
"rwwwwwwwwwwwwwwwwwwwwwwwwwwwwwwwwwwwwwwwwwwqqqwwwwXwwwwwwwwwwwqq",
"0qwwwww.XXXwwqwwwwwwwwwwwwwwwwwwwwwwwwwwwwwwwwwwwwwwwwwwwwwwwwww",
" qwwww.+$$$@@$+wwwwwwwwwwwwwwwwwwwwwwwwwwwwwwwwwwwwwwwwwwwwwwwww",
" wwwww.=,,,,,<1Xwwwwwwwwwwwwwwwwwwwwwwwwwwwwwwwwwwwwwwwwwwwwwwqq",
" wwwww.&4333441Xwwwwwwwwwwwwwwwwwwwwwwwwwwwwwwwwwwwwwwwwwwwwwwqq",
"yw.qwqwXXXXXXX.qwwwwwwwwwwwwqqXwwwwwwwwwwwwwwwwwwwwwwwwwwwwwwwww"
};
