/* XPM */
static char *Exit[] = {
/* columns rows colors chars-per-pixel */
"64 64 213 2 ",
"   c #FF00FF",
".  c #7F4E4D",
"X  c #7E504E",
"o  c #6D445B",
"O  c #6E485B",
"+  c #7C4F52",
"@  c #71475B",
"#  c #744B5C",
"$  c #784F5D",
"%  c #77505D",
"&  c #7D535D",
"*  c #7E5655",
"=  c #637B4E",
"-  c #717D52",
";  c #7F5761",
":  c #7F5863",
">  c #8C5A4C",
",  c #84554A",
"<  c #814E50",
"1  c #825656",
"2  c #8A5A54",
"3  c #825659",
"4  c #865A5D",
"5  c #8C5F5C",
"6  c #845A56",
"7  c #804F4E",
"8  c #8E615D",
"9  c #92645B",
"0  c #976A5B",
"q  c #9A6B5B",
"w  c #966451",
"e  c #8A6D50",
"r  c #A36E52",
"t  c #AA7556",
"y  c #A97B55",
"u  c #A27259",
"i  c #AA7759",
"p  c #AB7A5A",
"a  c #A57858",
"s  c #B17F5D",
"d  c #845B62",
"f  c #895F62",
"g  c #865F68",
"h  c #8B6364",
"j  c #8C6469",
"k  c #946B62",
"l  c #976C64",
"z  c #9C7264",
"x  c #9D746A",
"c  c #84697B",
"v  c #977479",
"b  c #A27765",
"n  c #A47964",
"m  c #AB7E62",
"M  c #AA7F69",
"N  c #718E4C",
"B  c #73934D",
"V  c #6E9A54",
"C  c #739D55",
"Z  c #7D9D5A",
"A  c #7A9A57",
"S  c #77A156",
"D  c #7BA256",
"F  c #7CA559",
"G  c #7AA958",
"H  c #7FB75B",
"J  c #9A8A59",
"K  c #859E5E",
"L  c #9B9358",
"P  c #86884F",
"I  c #A78558",
"U  c #B2835D",
"Y  c #B8895F",
"T  c #A1975A",
"R  c #B2925D",
"E  c #81A55A",
"W  c #8AAD5B",
"Q  c #83A95A",
"!  c #8DB15B",
"~  c #81B75B",
"^  c #92B45C",
"/  c #92B85C",
"(  c #ABA15C",
")  c #929D63",
"_  c #AC8165",
"`  c #AD826B",
"'  c #B48662",
"]  c #B68963",
"[  c #BA8D64",
"{  c #BC8E6C",
"}  c #B2866D",
"|  c #BE9266",
" . c #BE936C",
".. c #AB8475",
"X. c #B79177",
"o. c #BD9473",
"O. c #B89178",
"+. c #B78F76",
"@. c #8FA262",
"#. c #94A363",
"$. c #99A566",
"%. c #9EA768",
"&. c #8DBB61",
"*. c #94B661",
"=. c #9DBC62",
"-. c #BDA26D",
";. c #A1BE63",
":. c #AAB766",
">. c #BDAC77",
",. c #A1A669",
"<. c #C09567",
"1. c #C19569",
"2. c #C49A6A",
"3. c #C99F6D",
"4. c #C19471",
"5. c #C59C71",
"6. c #C89E71",
"7. c #C39C79",
"8. c #C08F6F",
"9. c #CBA16D",
"0. c #D1A66F",
"q. c #CDA473",
"w. c #CCA57D",
"e. c #C6A67B",
"r. c #D1A771",
"t. c #D4AA73",
"y. c #D3AB7F",
"u. c #D8AF76",
"i. c #C6B27B",
"p. c #DBB37D",
"a. c #D2B37E",
"s. c #91C55E",
"d. c #8FC25F",
"f. c #9FC363",
"g. c #A3C263",
"h. c #AAC564",
"j. c #AACA66",
"k. c #AAC669",
"l. c #ADC969",
"z. c #A5C766",
"x. c #B3CB6A",
"c. c #B9CC6C",
"v. c #B2CA67",
"b. c #A8D464",
"n. c #BAD26D",
"m. c #B7D66C",
"M. c #B9D470",
"N. c #BDE171",
"B. c #C2D56F",
"V. c #C5D86F",
"C. c #C5D871",
"Z. c #C6D974",
"A. c #C7CC70",
"S. c #CCE375",
"D. c #CFE87C",
"F. c #D2E57A",
"G. c #D1E376",
"H. c #977B8F",
"J. c #AE8C85",
"K. c #B29FAE",
"L. c #B29FB0",
"P. c #AD97A9",
"I. c #BFA6A7",
"U. c #BEA7A8",
"Y. c #BFA8A8",
"T. c #B2A0AF",
"R. c #B7A6B5",
"E. c #B8A6B5",
"W. c #CAAD89",
"Q. c #CBA784",
"!. c #D3AC83",
"~. c #D5B382",
"^. c #DAB483",
"/. c #DFB984",
"(. c #DAB58B",
"). c #DCBA8D",
"_. c #D5B48B",
"`. c #D9BB95",
"'. c #E1BB84",
"]. c #E3BC89",
"[. c #E8B68A",
"{. c #E2BE92",
"}. c #EFBE90",
"|. c #F1BF93",
" X c #C0A8A8",
".X c #C7B5BD",
"XX c #E4C18D",
"oX c #E4C392",
"OX c #EBC392",
"+X c #EBC995",
"@X c #E7CA9A",
"#X c #EDCD99",
"$X c #E3C599",
"%X c #F1D39E",
"&X c #EDD2A5",
"*X c #EFD9AD",
"=X c #EDD4A9",
"-X c #F2DBAB",
";X c #F1D5A9",
":X c #EDD9B6",
">X c #F2DCB2",
",X c #F0DCBB",
"<X c #F5E3BC",
"1X c #CBBECD",
"2X c #D2CBD5",
"3X c #F6E7C2",
"4X c #F7EAC5",
"5X c #F8EAC6",
"6X c #F9E9C5",
"7X c #DDD6E1",
"8X c #E1DAE2",
"9X c #E7E4ED",
"0X c #E8E5ED",
/* pixels */
"                                                        + < < < < < < X                                                         ",
"                                                1 1 1 5 W.!.w.w.w.w.!.W.5 1 1 *                                                 ",
"                                                ..` M } XX+XOX|.OXoX+XXX` M ` ..                                                ",
"                                        2 2 2 > -X#X+XOX^.~.^.[.[.~.~.^.OX+X#X-X> > 2 2                                         ",
"                                * . . 7 &X%X+X+X/.^.[.[.K V V V V V V @.[.[.^.^.+X+X%X&XX . 7 *                                 ",
"                        * 3 3 k Q.W.w.Q.XX].].}.#.@.#.$.;.=./ *.*.*.=.;.$.#.@.#.}.].].XXQ.w.!.W.k 3 3 *                         ",
"                        z q q n oX#XOXOXi.i.i.~.F S C C x.x.g.g.g.z.x.c.C C S E ~.i.i.i.OXOX#XoXn q q x                         ",
"                8 2 2 0 @X#XOXOX^.a.~.[.A C A A z.^ F C x.v.g.g.g.g.v.x.C F / z.A C C A [.~.a.^.OXOX#X@Xq 2 2 8                 ",
"              5 `.{.(.(.'./.[.[.$.Z Z K V g.B.x.g.^ F C =./ ! W W ! =.=.C E / g.x.C.g.V K Z Z $.].[./.'.(.(.{.`.5               ",
"              2 ).oX].[.,.#.$.%.;.=.! E V l.G.B.g.^ F C k.k.=.=.=.=.k.k.C E / g.C.G.k.V E ! =.;.%.$.#.,.[.].oX).2               ",
"              2 y.i.>.>.E C F *.x.v.=.W V g.C.x.g.^ F C x.x.g.g.g.z.x.x.C E / g.x.C.g.V W f.x.x.*.F C E >.>.i.y.2               ",
"              2 o.) V D W S *.F.C.v.=.W V *.k.h.g.^ F C v.v.g.g.g.g.v.v.C E / g.k.k.*.V W =.v.V.F.*.S W D C ) 4.2               ",
"                6 - D =.! D *.F.V.v.=.W V k.S.n.g.^ E C =.=.W W W W =.=.C E / g.n.S.k.V W =.v.C.F.*.D ! =.D - 6                 ",
"                  = B ;.! D W l.h.k.=.W V l.G.B.g.^ F C k.k.=.=.=.=.k.k.C F / g.B.S.l.V W =.k.l.v.Q D ! ;.B =                   ",
"                  = N ;.! D W n.v.k.=.W V =.n.x.g.^ F C M.m.z.j.j.z.m.n.C F ^ g.x.n.=.V W ;.k.x.n.W S ! ;.N =                   ",
"                  = N g.! D *.F.C.v.=.W V / k.k.g./ G S c.c.h.h.h.h.c.c.S G / g.k.k./ V W =.v.C.F.*.D W ;.N =                   ",
"                  = N g.! D *.G.C.v.=.W V g.C.c.b.s.~ F I I I y y I I I F ~ s.b.c.C.z.V W =.v.C.F.*.D W ;.N =                   ",
"                  = N g.! D W n.v.k.=.W V z.S.Z.( L L J W._.!.!.!.!._.W.J L T ( Z.S.z.V W =.k.v.n.W D ! ;.N =                   ",
"                  = N g.! D Q l.l.j.f.! A :.A.A.o.{ { o.:X<X-X>X>X>X<X:X4.{ 8.o.A.A.:.A ! g.j.x.l.Q S ! ;.N =                   ",
"                  = N ;.! S ! C.D.N.b.&.a t t i 5X>X;X*X3X5X5X5X5X5X5X<X;X;X-X5Xp t t a &.b.N.F.Z.! S ! ;.N =                   ",
"                  = N g.d.G &.Z.R y y a ,X>X&X&X4X4X4X3XoX'.'.'.'.'.'.oX3X4X4X5X=X&X>X,Xa y y R Z.&.G d.g.N =                   ",
"                  = B j.T J I -.`.`.(.(.3X3X<X<X@X@X@X@X].'.'.'.'.'.'.].@X@X@X@X<X<X3X3X(.(.`.`.-.I J T j.B =                   ",
"                  e P :.e.7.4.Q.:X<X>X>X>X*X*X*X/.'.].XX7.X.X.+.O.X.X.7.].'././.*X*X*X>X>X>X<X>XQ.4.7.e.:.P e                   ",
"                > r p ' :X>X;X-X<X3X3X3X]./.'.'.^.^.{.$Xg O O O O O O g $X).^.^.'.'.'.'.3X3X3X<X>X;X>X,X' i r w                 ",
"              _ :X>X;X;X3X4X4X<XoX/././.'.'.XX;Xo o o @ 4 5 8 8 8 5 5 4 @ o o o ;XXX'.'./././.oX<X4X4X3X;X;X>X:X'               ",
"              m :X3X<X<X@XoXoXoX'.'.'.#Xk d h j 4 4 4 4 5 5 5 5 5 5 5 5 4 4 4 4 j g d h #X'.'.'.XXoXoX@X<X<X3X:Xs               ",
"              z `.=X=X&X].'.'.].X.....J.d $ & & 5 5 5 5 5 5 5 5 5 8 8 5 5 5 5 5 & & & d J.....O.).'.'.].&X=X&X`.z               ",
"              4 w.'.'./.^.!./._.j # # # 5 8 8 8 8 8 8 8 8 8 8 8 8 8 8 8 8 8 8 8 8 8 8 8 # # # j _./.y.~././.'.w.4               ",
"              > ).XX/.y.h ; : d 0 q q q u u u u u u u u u u u u u u u u u u u u u u u u q q q 0 d : ; h !.^.XX).2               ",
"                _ p n x b b b n ' [ [ [ [ [ [ [ [ [ [ [ [ [ [ [ [ [ [ ] ] [ [ [ [ [ [ [ [ [ [ ' n b b x x i p m                 ",
"                , , + #  .2.2.2.2.2.2.2.2.2.2.2.2.2.2.2.2.2.2.2.2.2.2.2.2.2.2.2.2.2.2.2.2.2.2.2.2.2.2. .# X , ,                 ",
"                      $ 2.2.1.1.1.1.1.1.1.1.1.1.1.<.<.<.1.1.1.| 1.1.1.<.<.1.1.| | 1.1.<.<.| <.<.<.1.2.2.$                       ",
"                      # u p p p p p p p p p p p p p p p p p p p p p p p p p p p p p p p p p p p p p p u #                       ",
"                      $  .| [ [ [ [ [ [ [ [ [ [ [ [ [ [ [ [ [ [ [ [ [ [ [ [ [ [ [ [ [ [ [ [ [ [ [ [ | { $                       ",
"                      $ 3.9.2.2.9.9.9.9.2.2.2.2.2.2.2.2.2.2.2.2.2.2.2.2.2.2.2.2.2.2.2.2.9.9.3.3.2.2.9.3.$                       ",
"                      % 6.9.2.3.5.5.5.2.3.2.2.2.2.2.2.2.3.3.3.3.3.3.3.3.2.2.2.2.2.2.2.3.2.2.2.3.3.2.3.3.$                       ",
"                      % 6.3.3.5.4 $ $ # 6.3.2.2.2.2.2.2.q.r.r.r.r.r.r.q.2.2.2.2.2.2.9.q.# # $ 4 4.3.3.6.$                       ",
"                      $ ' ] m l 4 & & & z m U ' ' ' ' U n z z z z z z n U U U ' ' ' _ z & & & 4 l m Y ' $                       ",
"                      @ i U 9 o 4 5 5 5 o 0 U p p U p 0 & # @ # @ @ # & 0 i s p p U q o 8 8 5 4 @ 9 U i @                       ",
"                      $ 6.9.n @ 4 5 8 5 o ` r.2.2.r.` # 0 0 8 5 5 5 q 0 # ` r.2.2.r.` o 5 5 5 4 @ n 3.6.&                       ",
"                      $ 6.9.n @ 4 5 5 5 @ _ 0.2.t.8 4 q 9 8 5 5 5 8 8 9 u 4 8 t.2.0._ O 5 5 5 4 # n 9.6.$                       ",
"                      $ 6.9.n $ `  . . .@ _ 0.2.t.f 3 u 9 5 5 5 8 5 5 9 u 3 f t.2.r._ @  . . .` $ n 9.3.%                       ",
"                      $ [ | n 8 7.p.p.p.4 m <.[ 2.4 3 u 9 5 5 5 5 z l 9 u 3 4 2.[ <.m 4 p.^.p.e.h n <.[ $                       ",
"                      # u p p ' _.oXoXoXp p p p p & 3 u 9 5 5 5 5 { } 9 u 3 & y p t t U {.{.{.^.' i p u @                       ",
"                      $ 6.3.2.2.2.2.2.2.2.2.2.2.t.f 3 u 9 5 5 5 5 8 5 9 u 3 4 t.2.2.2.2.2.2.2.2.2.2.3.6.&                       ",
"                      % 3.3.2.2.2.2.2.2.2.2.2.2.t.5 3 u 9 8 5 5 5 8 5 9 u 3 4 t.2.2.2.2.2.2.2.2.2.2.9.6.&                       ",
"                      + q.t.9.9.9.9.9.9.9.9.9.9.p.h & 0 q 0 0 0 0 q q 0 0 & h p.9.9.9.9.9.9.9.9.9.9.t.q.$                       ",
"                      + w.w.6.6.6.6.6.6.6.6.6.6.^.h & 9 i p p p p p p p 9 & h ^.3.6.6.3.6.6.6.6.6.6.w.w.+                       ",
"                        d ; & & & & & & & & & & d # 3 u [ | <. . . .| [ u 3 # d & & & & & & & & & & : d                         ",
"                        L.L.H.@ 4 9 4 o P.L.K.L.T.K.J.w | | U ' ' ' | [ w J.K.L.K.L.L.P.o 4 9 4 o H.K.K.                        ",
"                        0X0XR.# n U i o 7X0X9X9X9X9XU.> [ [ U p U U [ [ > Y.0X9X9X9X9X7Xo i U m # R.9X9X                        ",
"                        9X9XR.&  .t. .o 7X0X0X0X9X9XU.> [ 1.1.1.1.1.2.[ >  X0X9X0X9X9X7Xo  .t.2.& E.0X9X                        ",
"                        9X9XR.&  .t. .o 7X0X9X9X9X9XU.> [ ] p p p p ] [ > Y.0X9X0X9X9X7Xo  .t. .& E.0X9X                        ",
"                        9X9XR.&  .t. .o 7X9X9X9X9X9XI.> [ 1.[ [ [ [ <.[ > U.9X9X9X9X9X7Xo  .t. .& E.0X9X                        ",
"                        9X9XR.& 4.t.o.o 7X9X9X9X0X0XI.> [ | [ [ [ [ | [ > Y.9X9X9X9X9X7Xo  .t. .& E.0X0X                        ",
"                        9X9XR.& 4.u.4.o 7X9X9X9X9X0XI.> [ ] p p p p ] [ > Y.0X0X9X9X9X7Xo 4.t.4.& R.9X9X                        ",
"                          9XR.: w.].w.o 7X9X0X0X9X0XI.> [ 2.1.1.1.1.2.[ >  X0X0X0X9X9X7XO w.].w.d E.9X                          ",
"                          9X7X.Xv h v 1X9X9X9X9X9X9XI.> [ [ p p p p [ [ > U.9X9X9X9X9X9X1Xv h v .X7X9X                          ",
"                            9X2Xc O c 9X9X0X9X9X9X9XI.> [ [ U U U U [ [ > U.9X0X9X9X0X0X9Xc O c 2X9X                            ",
"                                                  9XU.> [ 2.2.2.3.2.2.[ >  X9X                                                  ",
"                                                  9XU.> [ ] p p p p ] [ > Y.9X                                                  ",
"                                                  9XU.> 2.2.[ [ [ [ 2.2.>  X9X                                                  ",
"                                                  9X.X.. .[ ] ] ] ] |  ....X9X                                                  ",
"                                                  9X9X8Xk 2 8 8 8 9 2 k 8X9X9X                                                  "
};
