/* XPM */
static char *front5_milka_tablet[] = {
/* columns rows colors chars-per-pixel */
"64 64 202 2 ",
"   c #5F351E",
".  c #603116",
"X  c #64351D",
"o  c #6A361C",
"O  c #67391F",
"+  c #6B391D",
"@  c #723D1F",
"#  c #553527",
"$  c #5B3624",
"%  c #5B3923",
"&  c #5C332B",
"*  c #5C382B",
"=  c #5B3A37",
"-  c #643723",
";  c #6B3C22",
":  c #673A29",
">  c #713D22",
",  c #633C34",
"<  c #6F4222",
"1  c #744325",
"2  c #7B4626",
"3  c #724329",
"4  c #7C462C",
"5  c #75482A",
"6  c #7C4A2B",
"7  c #6A493B",
"8  c #754C35",
"9  c #71463A",
"0  c #785030",
"q  c #3F2C68",
"w  c #462E41",
"e  c #573740",
"r  c #5C3D49",
"t  c #4A3259",
"y  c #643D45",
"u  c #623F51",
"i  c #412E64",
"p  c #413263",
"a  c #4C3D66",
"s  c #46336A",
"d  c #483868",
"f  c #4E3C6B",
"g  c #533E6D",
"h  c #4A3671",
"j  c #4D3C73",
"k  c #523D74",
"l  c #563F79",
"z  c #54445F",
"x  c #6B4344",
"c  c #6E474C",
"v  c #734B44",
"b  c #7B5545",
"n  c #694557",
"m  c #714E5A",
"M  c #7A5557",
"N  c #7A6252",
"B  c #4F416B",
"V  c #564769",
"C  c #52446C",
"Z  c #4E4370",
"A  c #554573",
"S  c #564872",
"D  c #5A4C74",
"F  c #55437A",
"G  c #5B447C",
"H  c #5D4B7B",
"J  c #5C5375",
"K  c #664D65",
"L  c #6A4B65",
"P  c #735169",
"I  c #624A77",
"U  c #6A4E75",
"Y  c #685A77",
"T  c #63547C",
"R  c #6D527D",
"E  c #6A5B7E",
"W  c #725472",
"Q  c #71537D",
"!  c #755979",
"~  c #75717F",
"^  c #834E2C",
"/  c #84512E",
"(  c #834E33",
")  c #855333",
"_  c #8B5435",
"`  c #8A5936",
"'  c #8D563A",
"]  c #8E5A3A",
"[  c #935C3B",
"{  c #99603E",
"}  c #835A45",
"|  c #905F45",
" . c #845B58",
".. c #86654C",
"X. c #886E5C",
"o. c #987056",
"O. c #AA7C5C",
"+. c #835F66",
"@. c #8B6566",
"#. c #8D7663",
"$. c #94766B",
"%. c #876978",
"&. c #8A7875",
"*. c #9B8676",
"=. c #A18879",
"-. c #AB8F7D",
";. c #C39971",
":. c #5E4681",
">. c #5F4A82",
",. c #634E84",
"<. c #634D89",
"1. c #684E89",
"2. c #655284",
"3. c #6B5586",
"4. c #675886",
"5. c #6B5A84",
"6. c #665189",
"7. c #6C558D",
"8. c #6E598C",
"9. c #725683",
"0. c #745A84",
"q. c #785981",
"w. c #70558D",
"e. c #715B8C",
"r. c #6E5691",
"t. c #6E5890",
"y. c #705791",
"u. c #725B92",
"i. c #6E6387",
"p. c #74628C",
"a. c #78668E",
"s. c #756889",
"d. c #756492",
"f. c #796593",
"g. c #766893",
"h. c #7B6B93",
"j. c #7E669A",
"k. c #7D6B9B",
"l. c #7E7192",
"z. c #7F7098",
"x. c #7E69A1",
"c. c #846A88",
"v. c #887987",
"b. c #826D9F",
"n. c #837595",
"m. c #887995",
"M. c #84739B",
"N. c #8B7C9C",
"B. c #826CA2",
"V. c #8572A3",
"C. c #8B79A3",
"Z. c #927FAC",
"A. c magenta",
"S. c #968989",
"D. c #8E829D",
"F. c #95829A",
"G. c #A28A88",
"H. c #B69186",
"J. c #ADA199",
"K. c #BDAC99",
"L. c #8F82A1",
"P. c #968BA5",
"I. c #9384A8",
"U. c #9B8DAA",
"Y. c #9B95AA",
"T. c #9A89B2",
"R. c #9F93B0",
"E. c #A299AD",
"W. c #BC9EA9",
"Q. c #A59AB5",
"!. c #A796BE",
"~. c #AB9DBC",
"^. c #AAA4B6",
"/. c #B3A5BB",
"(. c #B4ACBD",
"). c #B6B5B1",
"_. c #C4B3B4",
"`. c #CBC6BB",
"'. c #AF9CC4",
"]. c #B3A6C6",
"[. c #BDB3C9",
"{. c #BBADD2",
"}. c #BFB2D3",
"|. c #C0B7C8",
" X c #C3BCCC",
".X c #D4BECE",
"XX c #C9BFD2",
"oX c #C3B6D9",
"OX c #C9C4C9",
"+X c #D4D5CB",
"@X c #CFC3D7",
"#X c #D3C9D9",
"$X c #D4CCDB",
"%X c #D7D2DE",
"&X c #DAD4DC",
"*X c #DDD7E2",
"=X c #E5E1E6",
"-X c #EAE4EB",
";X c #ECEAED",
":X c #EEE9F1",
">X c #F3EFF1",
",X c #F8F7F7",
/* pixels */
"A.A.A.A.A.A.A.A.A.A.A.A.A.A.A.A.A.A.A.A.A.A.A.A.A.A.A.A.A.A.A.A.A.A.A.A.A.A.A.A.A.A.A.A.A.A.A.A.A.A.A.A.A.A.A.A.A.A.A.A.A.A.A.A.",
"A.A.A.A.A.A.A.A.A.A.A.A.A.A.A.A.A.A.A.A.A.A.A.A.A.A.A.A.A.A.A.A.A.A.A.A.A.A.A.A.A.A.A.A.A.A.A.A.A.A.A.A.A.A.A.A.A.A.A.A.A.A.A.A.",
"A.A.A.A.A.A.A.A.A.A.A.A.A.A.A.A.A.A.A.A.A.A.A.A.A.A.A.A.A.A.A.A.A.A.A.A.A.A.5.8.8.5.A.A.A.A.A.A.A.A.A.A.A.A.A.A.A.A.A.A.A.A.A.A.",
"A.A.A.A.A.A.A.A.A.A.A.A.A.A.A.A.A.A.A.A.A.A.A.A.A.A.A.A.A.A.A.A.A.A.2.4.4.8.w.0.5.4.A.A.A.A.A.A.A.A.A.A.A.A.A.A.A.A.A.A.A.A.A.A.",
"A.A.A.A.A.A.A.A.A.A.A.A.A.A.A.A.A.A.A.A.A.A.A.A.A.A.A.A.A.A.5.4.8.6.7.7.3.U n u x K A.A.A.A.A.A.A.A.A.A.A.A.A.A.A.A.A.A.A.A.A.A.",
"A.A.A.A.A.A.A.A.A.A.A.A.A.A.A.A.A.A.A.A.A.A.A.A.A.A.2.2.4.6.8.w.w.9.L n e & - -   , A.A.A.A.A.A.A.A.A.A.A.A.A.A.A.A.A.A.A.A.A.A.",
"A.A.A.A.A.A.A.A.A.A.A.A.A.A.A.A.A.A.A.A.A.A.E 3.4.6.6.7.3.3.U L c x : : 3 6 ) ' O # A.A.A.A.A.A.A.A.A.A.A.A.A.A.A.A.A.A.A.A.A.A.",
"A.A.A.A.A.A.A.A.A.A.A.A.A.A.A.A.A.A.A.A.A.T 6.9.w.9.W L u = & - 3 ) @ ` [ ) ^ 4 % # A.A.A.A.A.A.A.A.A.A.A.A.A.A.A.A.A.A.A.A.A.A.",
"A.A.A.A.A.A.A.A.A.A.A.A.A.A.A.A.A.A.A.A.A.T I L m , , & $ ; ) [ [ [ > ' / 2 2 0 X.&.A.A.A.A.A.A.A.A.A.A.A.A.A.A.A.A.A.A.A.A.A.A.",
"A.A.A.A.A.A.A.A.A.A.A.A.A.A.A.A.A.A.A.A.A.K r & : 1 / ` ; ( ' _ ^ 2 @ ' ^ 6 5 N S.~ A.A.A.A.A.A.A.A.A.A.A.A.A.A.A.A.A.A.A.A.A.A.",
"A.A.A.A.A.A.A.A.A.A.A.A.A.A.A.A.A.A.A.A.A.7 : ^ [ [ [ [ @ ^ 2 2 6 6 @ _ ) X.*.S.B p A.A.A.A.A.A.A.A.A.A.A.A.A.A.A.A.A.A.A.A.A.A.",
"A.A.A.A.A.A.A.A.A.A.A.A.A.A.A.A.A.A.A.A.A.% - [ _ ^ ^ 6 > ( ^ 2 2 4 > ] b v.E T D B A.A.A.A.A.A.A.A.A.A.A.A.A.A.A.A.A.A.A.A.A.A.",
"A.A.A.A.A.A.A.A.A.A.A.A.A.A.A.A.A.A.A.A.A.% O [ ^ 2 2 4 @ _ ^ 4 5 5 8 *.G.K s F >.A A.A.A.A.A.A.A.A.A.A.A.A.A.A.A.A.A.A.A.A.A.A.",
"A.A.A.A.A.A.A.A.A.A.A.A.A.A.A.A.A.A.A.A.A.% X [ ^ 4 6 2 + ) 4 > X % #.*.#.n Q w.2.A A.A.A.A.A.A.A.A.A.A.A.A.A.A.A.A.A.A.A.A.A.A.",
"A.A.A.A.A.A.A.A.A.A.A.A.A.A.A.A.A.A.A.A.A.% - ' ( 4 4 1 + O < 7 #.=.9 $ < : n 9.>.F A.A.A.A.A.A.A.A.A.A.A.A.A.A.A.A.A.A.A.A.A.A.",
"A.A.A.A.A.A.A.A.A.A.A.A.A.A.A.A.A.A.A.A.A.% X 2 > o o +   % #.G.J.=.8 ;   < 7 Q 6.A A.A.A.A.A.A.A.A.A.A.A.A.A.A.A.A.A.A.A.A.A.A.",
"A.A.A.A.A.A.A.A.A.A.A.A.A.A.A.A.A.A.A.A.A.%   o @ 2 / [ 0 N J.Y r 9 5 1 ; o.x 9.4.C A.A.A.A.A.A.A.A.A.A.A.A.A.A.A.A.A.A.A.A.A.A.",
"A.A.A.A.A.A.A.A.A.A.A.A.A.A.A.A.A.A.A.A.A.% X ' { [ ` o.K.+X^.V c ) 6 1 X 9 P 7.2.B A.A.A.A.A.A.A.A.A.A.A.A.A.A.A.A.A.A.A.A.A.A.",
"A.A.A.A.A.A.A.A.A.A.A.A.A.A.A.A.A.A.A.A.A.# X ] / 0 ..J.+X^.J J b ) 4 o 4 , U r.<.f A.A.A.A.A.A.A.A.A.A.A.A.A.A.A.A.A.A.A.A.A.A.",
"A.A.A.A.A.A.A.A.A.A.A.A.A.A.A.A.A.A.A.A.A.* X ) b *.`.+X^.i.4.Y 9 } 1 o O.M R r.,.C A.A.A.A.A.A.A.A.A.A.A.A.A.A.A.A.A.A.A.A.A.A.",
"A.A.A.A.A.A.A.A.A.A.A.A.A.A.A.A.A.A.A.A.A.= $ b -.).+X).J k 0.+.4 ' 1 . 9 P 0.w.2.C A.A.A.A.A.A.A.A.A.A.A.A.A.A.A.A.A.A.A.A.A.A.",
"A.A.A.A.A.A.A.A.A.A.A.A.A.A.A.A.A.A.A.A.A.w w *.`.`.Y.E 2.w.w.+.| ) < + : P G.q.,.S A.A.A.A.A.A.A.A.A.A.A.A.A.A.A.A.A.A.A.A.A.A.",
"A.A.A.A.A.A.A.A.A.A.A.A.A.A.A.A.A.A.A.A.A.C C E [.OXD h 1.w.7.q.@.' < O.v P c.0.2.S A.A.A.A.A.A.A.A.A.A.A.A.A.A.A.A.A.A.A.A.A.A.",
"A.A.A.A.A.A.A.A.A.A.A.A.A.A.A.A.A.A.A.A.A.k.k.H M.i.H 7.7.7.1.r.!  .3 0 m Q w.7.6.S A.A.A.A.A.A.A.A.A.A.A.A.A.A.A.A.A.A.A.A.A.A.",
"A.A.A.A.A.A.A.A.A.A.A.A.A.A.A.A.A.A.A.A.A.z.V.t.f d ,.r.w.7.1.w.3.! , y $.L 9.w.1.g A.A.A.A.A.A.A.A.A.A.A.A.A.A.A.A.A.A.A.A.A.A.",
"A.A.A.A.A.A.A.A.A.A.A.A.A.A.A.A.A.A.A.A.A.h.M.d.r.6.r.7.7.w.y.w.6.g t X.;.} 9.w.<.a A.A.A.A.A.A.A.A.A.A.A.A.A.A.A.A.A.A.A.A.A.A.",
"A.A.A.A.A.A.A.A.A.A.A.A.A.A.A.A.A.A.A.A.A.h.V.d.r.y.7.r.7.w.r.r.,.q t -.;.M 9.1.,.a A.A.A.A.A.A.A.A.A.A.A.A.A.A.A.A.A.A.A.A.A.A.",
"A.A.A.A.A.A.A.A.A.A.A.A.A.A.A.A.A.A.A.A.A.f.B.u.t.7.7.7.8.7.r.t.A p t %.H.c.1.r.<.f A.A.A.A.A.A.A.A.A.A.A.A.A.A.A.A.A.A.A.A.A.A.",
"A.A.A.A.A.A.A.A.A.A.A.A.A.A.A.A.A.A.A.A.A.d.x.u.t.8.r.8.~.V.7.d.!.H p D c.9.6.w.1.g A.A.A.A.A.A.A.A.A.A.A.A.A.A.A.A.A.A.A.A.A.A.",
"A.A.A.A.A.A.A.A.A.A.A.A.A.A.A.A.A.A.A.A.A.d.j.u.r.8.g.P.*XL.6.g.~.Q.S s ,.w.1.w.1.S A.A.A.A.A.A.A.A.A.A.A.A.A.A.A.A.A.A.A.A.A.A.",
"A.A.A.A.A.A.A.A.A.A.A.A.A.A.A.A.A.A.A.A.A.d.k.7.7.p.OX:X*XR.p.M.P.~.Z i <.7.w.8.2.S A.A.A.A.A.A.A.A.A.A.A.A.A.A.A.A.A.A.A.A.A.A.",
"A.A.A.A.A.A.A.A.A.A.A.A.A.A.A.A.A.A.A.A.A.g.B.u.7.8.#XR.h.OXM.C.F.N.9.s <.7.7.w.2.S A.A.A.A.A.A.A.A.A.A.A.A.A.A.A.A.A.A.A.A.A.A.",
"A.A.A.A.A.A.A.A.A.A.A.A.A.A.A.A.A.A.A.A.A.g.b.u.7.8.~.D. X=XC./..XW._.I j 4.y.7.6.Z A.A.A.A.A.A.A.A.A.A.A.A.A.A.A.A.A.A.A.A.A.A.",
"A.A.A.A.A.A.A.A.A.A.A.A.A.A.A.A.A.A.A.A.A.h.V.u.t.7.8.~.(.$XN.(.F.K m.h.2.w.w.7.>.B A.A.A.A.A.A.A.A.A.A.A.A.A.A.A.A.A.A.A.A.A.A.",
"A.A.A.A.A.A.A.A.A.A.A.A.A.A.A.A.A.A.A.A.A.h.V.u.t.7.p.OX(.&Xm.c.z Y m.D C.u.7.7.2.B A.A.A.A.A.A.A.A.A.A.A.A.A.A.A.A.A.A.A.A.A.A.",
"A.A.A.A.A.A.A.A.A.A.A.A.A.A.A.A.A.A.A.A.A.h.b.7.8.U. XY.&X;Xs.w.~.(.[.i.A 8.7.8.>.B A.A.A.A.A.A.A.A.A.A.A.A.A.A.A.A.A.A.A.A.A.A.",
"A.A.A.A.A.A.A.A.A.A.A.A.A.A.A.A.A.A.A.A.A.g.k.r.u.@XOX X>X;XL.8.D a E.N.g 6.r.7.6.B A.A.A.A.A.A.A.A.A.A.A.A.A.A.A.A.A.A.A.A.A.A.",
"A.A.A.A.A.A.A.A.A.A.A.A.A.A.A.A.A.A.A.A.A.k.k.r.8.p.n. X^.&X-Xg.q d [.L.d l 7.7.2.C A.A.A.A.A.A.A.A.A.A.A.A.A.A.A.A.A.A.A.A.A.A.",
"A.A.A.A.A.A.A.A.A.A.A.A.A.A.A.A.A.A.A.A.A.z.B.u.7.].*XN.D.=X>Xl.s 4.$Xn.C s 1.7.6.C A.A.A.A.A.A.A.A.A.A.A.A.A.A.A.A.A.A.A.A.A.A.",
"A.A.A.A.A.A.A.A.A.A.A.A.A.A.A.A.A.A.A.A.A.k.V.u.8.Q.P.M.$X=X:Xl.d g.OX$X$XD 3.t.6.V A.A.A.A.A.A.A.A.A.A.A.A.A.A.A.A.A.A.A.A.A.A.",
"A.A.A.A.A.A.A.A.A.A.A.A.A.A.A.A.A.A.A.A.A.z.V.u.7.6.5.].R.U.:X(.Z d l.^.L.j 7.r.2.V A.A.A.A.A.A.A.A.A.A.A.A.A.A.A.A.A.A.A.A.A.A.",
"A.A.A.A.A.A.A.A.A.A.A.A.A.A.A.A.A.A.A.A.A.n.V.u.7.r.w.U.c.@X:X[.2.2.P.H h h 6.t.<.C A.A.A.A.A.A.A.A.A.A.A.A.A.A.A.A.A.A.A.A.A.A.",
"A.A.A.A.A.A.A.A.A.A.A.A.A.A.A.A.A.A.A.A.A.h.B.y.7.u.w.a.P.Q.l.h.Q.XXI.H k G 7.7.,.C A.A.A.A.A.A.A.A.A.A.A.A.A.A.A.A.A.A.A.A.A.A.",
"A.A.A.A.A.A.A.A.A.A.A.A.A.A.A.A.A.A.A.A.A.f.k.y.7.p.(.=X>X[. X*X=X#XN.d.g <.r.7.2.B A.A.A.A.A.A.A.A.A.A.A.A.A.A.A.A.A.A.A.A.A.A.",
"A.A.A.A.A.A.A.A.A.A.A.A.A.A.A.A.A.A.A.A.A.g.k.w.y.u.~.;X,X-X XY.l.h.n.h.f ,.r.7.6.B A.A.A.A.A.A.A.A.A.A.A.A.A.A.A.A.A.A.A.A.A.A.",
"A.A.A.A.A.A.A.A.A.A.A.A.A.A.A.A.A.A.A.A.A.h.B.u.7.w.p.(.;XE.s.L./.N.a.p.H 6.7.7.6.C A.A.A.A.A.A.A.A.A.A.A.A.A.A.A.A.A.A.A.A.A.A.",
"A.A.A.A.A.A.A.A.A.A.A.A.A.A.A.A.A.A.A.A.A.k.V.u.7.w.8.s.&X&X*X*X[.a.2.k 6.r.7.7.6.C A.A.A.A.A.A.A.A.A.A.A.A.A.A.A.A.A.A.A.A.A.A.",
"A.A.A.A.A.A.A.A.A.A.A.A.A.A.A.A.A.A.A.A.A.k.V.e.w.7.6.s.&X,X~.n.a.C.w.,.w.8.8.8.6.B A.A.A.A.A.A.A.A.A.A.A.A.A.A.A.A.A.A.A.A.A.A.",
"A.A.A.A.A.A.A.A.A.A.A.A.A.A.A.A.A.A.A.A.A.g.B.u.7.4.~.%X=X@Xh.d.XX@Xf.<.w.b.Z.T.2.C A.A.A.A.A.A.A.A.A.A.A.A.A.A.A.A.A.A.A.A.A.A.",
"A.A.A.A.A.A.A.A.A.A.A.A.A.A.A.A.A.A.A.A.A.g.B.u.7.8.~.-XQ.e.7.8.b.p.8.Z.~.{.oX'.T B A.A.A.A.A.A.A.A.A.A.A.A.A.A.A.A.A.A.A.A.A.A.",
"A.A.A.A.A.A.A.A.A.A.A.A.A.A.A.A.A.A.A.A.A.d.x.t.7.w.p.(.|.M.8.V.w.8.d.{.oXoX}.!.2.a A.A.A.A.A.A.A.A.A.A.A.A.A.A.A.A.A.A.A.A.A.A.",
"A.A.A.A.A.A.A.A.A.A.A.A.A.A.A.A.A.A.A.A.A.8.x.8.r.w.w.p./.|.*X$Xa.7.j.].].T.V.f.6.C A.A.A.A.A.A.A.A.A.A.A.A.A.A.A.A.A.A.A.A.A.A.",
"A.A.A.A.A.A.A.A.A.A.A.A.A.A.A.A.A.A.A.A.A.e.B.y.y.w.y.8.5.~./.M.w.8.w.j.u.7.,.:.2.i.A.A.A.A.A.A.A.A.A.A.A.A.A.A.A.A.A.A.A.A.A.A.",
"A.A.A.A.A.A.A.A.A.A.A.A.A.A.A.A.A.A.A.A.A.e.B.j.u.7.7.7.7.8.7.r.w.8.,.G l G :.:.1.0.A.A.A.A.A.A.A.A.A.A.A.A.A.A.A.A.A.A.A.A.A.A.",
"A.A.A.A.A.A.A.A.A.A.A.A.A.A.A.A.A.A.A.A.A.p.j.b.w.8.w.w.w.y.r.1.I G l l :.,.7.w.t.7.A.A.A.A.A.A.A.A.A.A.A.A.A.A.A.A.A.A.A.A.A.A.",
"A.A.A.A.A.A.A.A.A.A.A.A.A.A.A.A.A.A.A.A.A.d.B.u.7.r.1.1.1.I I :.:.<.7.1.7.8.6.r.r.6.A.A.A.A.A.A.A.A.A.A.A.A.A.A.A.A.A.A.A.A.A.A.",
"A.A.A.A.A.A.A.A.A.A.A.A.A.A.A.A.A.A.A.A.A.e.B.r.<.G G l A <.6.w.r.r.7.7.8.6.3.4.4.Y A.A.A.A.A.A.A.A.A.A.A.A.A.A.A.A.A.A.A.A.A.A.",
"A.A.A.A.A.A.A.A.A.A.A.A.A.A.A.A.A.A.A.A.A.g.7.G G G ,.7.w.7.w.w.r.r.8.4.T T A.A.A.A.A.A.A.A.A.A.A.A.A.A.A.A.A.A.A.A.A.A.A.A.A.A.",
"A.A.A.A.A.A.A.A.A.A.A.A.A.A.A.A.A.A.A.A.A.f.w.2.7.w.7.r.r.7.6.4.4.4.A.A.A.A.A.A.A.A.A.A.A.A.A.A.A.A.A.A.A.A.A.A.A.A.A.A.A.A.A.A.",
"A.A.A.A.A.A.A.A.A.A.A.A.A.A.A.A.A.A.A.A.A.4.8.8.7.y.7.8.8.8.4.T A.A.A.A.A.A.A.A.A.A.A.A.A.A.A.A.A.A.A.A.A.A.A.A.A.A.A.A.A.A.A.A.",
"A.A.A.A.A.A.A.A.A.A.A.A.A.A.A.A.A.A.A.A.5.w.7.8.w.8.4.E A.A.A.A.A.A.A.A.A.A.A.A.A.A.A.A.A.A.A.A.A.A.A.A.A.A.A.A.A.A.A.A.A.A.A.A.",
"A.A.A.A.A.A.A.A.A.A.A.A.A.A.A.A.A.A.A.A.E 3.4.5.A.A.A.A.A.A.A.A.A.A.A.A.A.A.A.A.A.A.A.A.A.A.A.A.A.A.A.A.A.A.A.A.A.A.A.A.A.A.A.A.",
"A.A.A.A.A.A.A.A.A.A.A.A.A.A.A.A.A.A.A.A.A.A.A.A.A.A.A.A.A.A.A.A.A.A.A.A.A.A.A.A.A.A.A.A.A.A.A.A.A.A.A.A.A.A.A.A.A.A.A.A.A.A.A.A.",
"A.A.A.A.A.A.A.A.A.A.A.A.A.A.A.A.A.A.A.A.A.A.A.A.A.A.A.A.A.A.A.A.A.A.A.A.A.A.A.A.A.A.A.A.A.A.A.A.A.A.A.A.A.A.A.A.A.A.A.A.A.A.A.A."
};
