/* XPM */
static char *tree[] = {
/* columns rows colors chars-per-pixel */
"64 64 166 2 ",
"   c #FF00FF",
".  c #4E2F1C",
"X  c #512F1A",
"o  c #4D301C",
"O  c #53321D",
"+  c #5A361F",
"@  c #4D3221",
"#  c #473A23",
"$  c #413F2B",
"%  c #523523",
"&  c #5A3721",
"*  c #5C3924",
"=  c #643D25",
"-  c #683F2C",
";  c #0F472E",
":  c #0F4C2E",
">  c #124A2E",
",  c #184B2C",
"<  c #0E512E",
"1  c #12542E",
"2  c #19532E",
"3  c #14582F",
"4  c #0E4D31",
"5  c #124D32",
"6  c #184D34",
"7  c #0E5032",
"8  c #125333",
"9  c #195237",
"0  c #165936",
"q  c #1A5B35",
"w  c #1A5139",
"e  c #1D5C39",
"r  c #2D4027",
"t  c #274328",
"y  c #2B4B2E",
"u  c #225F3C",
"i  c #1E6233",
"p  c #1F623A",
"a  c #226636",
"s  c #23643B",
"d  c #29633B",
"f  c #25693B",
"g  c #296D3B",
"h  c #2E733C",
"j  c #53412C",
"k  c #59432E",
"l  c #644024",
"z  c #694224",
"x  c #65412D",
"c  c #6A422D",
"v  c #70462C",
"b  c #744B2D",
"n  c #784B2F",
"m  c #754D31",
"M  c #7A4E31",
"N  c #7D5233",
"B  c #266640",
"V  c #276C41",
"C  c #2C6E44",
"Z  c #2E7145",
"A  c #2E7248",
"S  c #317544",
"D  c #357A45",
"F  c #397E45",
"G  c #825634",
"H  c #825837",
"J  c #825839",
"K  c #8A5C39",
"L  c #8C613D",
"P  c #90613B",
"I  c #9B6D45",
"U  c #3C8246",
"Y  c #3E8548",
"T  c #408742",
"R  c #448B46",
"E  c #408749",
"W  c #458C49",
"Q  c #488E49",
"!  c #46904A",
"~  c #4B944A",
"^  c #4E984B",
"/  c #50974A",
"(  c #539D4B",
")  c #519950",
"_  c #56A14B",
"`  c #5AA44D",
"'  c #5EA94D",
"]  c #5DA94F",
"[  c #5EA84F",
"{  c #5DAA4F",
"}  c #5EAA4F",
"|  c #5FAA4F",
" . c #5FAB4F",
".. c #5CA94C",
"X. c #5FAC4F",
"o. c #5DA94E",
"O. c #5CA850",
"+. c #5DA853",
"@. c #5FAC50",
"#. c #5FAA51",
"$. c #60AB4E",
"%. c #61AD4F",
"&. c #61AF4F",
"*. c #62AE4F",
"=. c #60AC4F",
"-. c #63B14F",
";. c #61AB50",
":. c #60AD50",
">. c #62AD50",
",. c #61AE51",
"<. c #60AF51",
"1. c #63AF50",
"2. c #60AE52",
"3. c #63AF52",
"4. c #62AF51",
"5. c #61B150",
"6. c #63B050",
"7. c #64B350",
"8. c #66B350",
"9. c #65B153",
"0. c #66B253",
"q. c #67B453",
"w. c #67B752",
"e. c #65B154",
"r. c #65B355",
"t. c #66B252",
"y. c #68B551",
"u. c #69B553",
"i. c #6AB753",
"p. c #68B354",
"a. c #69B554",
"s. c #69B654",
"d. c #69B556",
"f. c #69B654",
"g. c #6BB953",
"h. c #6BB853",
"j. c #69BA52",
"k. c #69BA53",
"l. c #6ABA53",
"z. c #6BBB53",
"x. c #6CB953",
"c. c #6DB953",
"v. c #6CBA53",
"b. c #6DBA53",
"n. c #68B954",
"m. c #6AB854",
"M. c #69BA55",
"N. c #6BBA54",
"B. c #6BB957",
"V. c #6BBB57",
"C. c #6CB954",
"Z. c #6DB955",
"A. c #6CBA54",
"S. c #6DBA54",
"D. c #6CBB54",
"F. c #6CBB55",
"G. c #6DBB55",
"H. c #6DBA55",
"J. c #6CBB56",
"K. c #6EBB56",
"L. c #6BBC54",
"P. c #6CBA54",
"I. c #6BBB58",
"U. c #6CB959",
"Y. c #6CBA58",
"T. c #7FD066",
/* pixels */
"                                                                                                                                ",
"                                                                                                                                ",
"                                                                                                                                ",
"                                                                                                                                ",
"                                                                                                                                ",
"                                                                                                                                ",
"                                                                                                                                ",
"                                                                                                                                ",
"                                                                        3 3 3 3 3 3                                             ",
"                                                                  6 4 a I.K.m.m.U.m.s 4 w                                       ",
"                                                                5 ^ ` ` _ m.h.-._ _ ` ` ~ 5                                     ",
"                                          6 5 w 6             2 ! ` [ [ *.m.h.q.>.>.[ 0._ 4                                     ",
"                                        f a a a a d           i e._ _ [ v.K.m.K.K.K.` >._ a                                     ",
"                                  1 1 1 Q K.K.K.K.T 8 5   5 f ( ( ( >.K.K.K.K.K.K.K.K.[ ` U.8                                   ",
"                              5 F u.d.p.[ _ _ _ ( @.u.d.q s F ( ( ( ( _ _ h.h.K.L.K.K.` ( _ 8                                   ",
"                            5 Q ` h.` m.u.5.e.( ( _ ` ` ( U Z F ( ( ( _ q.` ] *.K.K.K.d.>.( T d                                 ",
"                            e ( 0.*.[ m.K.m.K.[ [ _ ( ( $./ Y Z E ( ( _ X._ ` [ >.*.m.0.[ ( ( a                                 ",
"                          7 D _ >.` K.v.K.K.K.h.u.>.( ( ( *.+.S S ^ ( ( ( ( 5.>.( ( 0.+.( ( ( s                                 ",
"                          : d.` ;.K.K.K.v.K.K.( ( ( ( ( ( ( ( ( ( ( ( ( ( ( ( ( ( ( ( ( ( ( Z 8                                 ",
"                          8 0.` ;.K.v.K.*.` _ ( ( ( ( ( ( ( ( ( ( ( ( ( ( ( ( ( ( ( 0.` ~ D 0 5 5 6                             ",
"                          4 _ _ _ [ v.[ _ ( ( >._ ( ( ( ( ( _ 0.( ( ( ^ U U ^ ~ Y ( ` _ ~ C 4 g Z s 6                           ",
"                          5 ! ( ( ( 0.` _ _ ` 0._ ( ( ( ( ( ` K.` ( ( ^ F Z E W U ( W Q E C s W Q U 8                           ",
"                          5 A W ( ( ( d.` ` K.( ( ( ( ( ( ( ` K.K.` ( ( ( S C U ( / D C C Z / ( [ e.< 8                         ",
"                            5 V E ( ( ( ( ( _ ( ( ( ( ( ( e.K.K.K._ ( ( ( S Z Z Z S S C D / ( ( ( ( d.i                         ",
"                          5 8 8 q a D ^ ( ( ( ( ( ( ( ( >.K.K.K.` ( ( ( ( ~ ~ U Z Z C Y ~ ( 0.0.[ ( ` q                         ",
"                          F h h g e Z E ^ ( ( ( Q ~ ( $.u.K.u.>.+.( ( ^ R ( ( ~ Y Y U ~ _ [ v.h.>.( ( q                         ",
"                      d h q.` _ R Z D D W ^ ^ ^ F R _ u.d.q.>.( d.( ~ ~ S ^ ( _ _ _ _ _ ` K.K.K.*.( _ a                         ",
"                    5 W p._ K.` R S ( ( U Z Z Z ~ ( ( ( ( ( ( ( ( D Z D ( ( ( [ K.K.K.K.v.K.K.m.*.( K._ g >                     ",
"                  5 / ` ` h.K.u.` ~ S S Z Z Z ^ ( ( ^ S ^ ( ( / S Z Z D ( ( >.m.K.v.K.K.K.K.K.K.u.0._ ( g 5                     ",
"                  4 ^ $.0.K.K.v.>.( W W F A C F U U U W ( ( ^ U C E W ~ ( ( 0.v.v.v.v.m.K.K.K.K.0.` ( ( g >                     ",
"                  4 W [ 0.K.K.u.[ ( ( ] ~ F F U F S S W W W E Z U ^ ( ( ( ( [ 0.0.K.0.u.K.K.K.0.[ ( ( ~ a >                     ",
"                  5 W / _ K.K.` ( ( _ d.[ _ ( ( ( W Z Z Z Z Z Z ( ( ( ( ( ( ( ( ( m.` 5.K.K.K.` ( ( ( D q 5                     ",
"                  4 f W ( ( ( ( ( ` T.` >.K.m.( ( ( ~ Z Z Z Z Z ( ( ( ( ( ( ( ( ( ( ( 5.K.m._ ( ( ( ( S q >                     ",
"                  5 V D U / F _ u.u.K.d.d.m.m.u._ ( ( ^ S Z Z Z ( ( ( ( ( ( U D F ( ( _ ` _ ( ( ( ( D S e 5                     ",
"                    e f Z h E _ 0.K.K.K.K.m.K.K.3.` ( ( W E U Z Y ^ ( ( ( E Y U S / ( W R ( ( W Y U C p e                       ",
"                    ; u s < ^ ( [ K.K.K.m.m.K.K.K.0._ ( ( ( ~ D C W ~ ^ ( F ~ W F ~ ~ F D ~ ~ U S Z B 5                         ",
"                      6 8 < ^ ( +.K.K.m.h.m.K.K.K.K.p.( ( ( / ) Z Z Z D ( ( ( ( / Z Z Z Z Z Z Q R V 4                           ",
"                          7 Z ~ ( _ _ q.h.0.( _ d.*.( ( ( ( ~ S Z Z Z Z S S S S S Z Z E Q Z Z S S C 7                           ",
"                          4 C D F U ( ` ` _ ( ( _ _ ( / ( R D Z Z q 0 0 0 V Z Z Z Z Z D D Z Z Z s q                             ",
"                          > s V Z S E W ^ ( ( ( ( ^ W W R D V s s y y t , p s f Z Z Z Z Z Z s p e                               ",
"                            5 B V C Z Z W ^ ^ ^ / E Z V V V s , , k - O r : : e V V V V V V > 8                                 ",
"                              : 4 8 Z Z Z Z S Z Z Z V < 4 4 y x x c c O         4 4 4 4 4 5                                     ",
"                                    8 8 8 8 8 8 8 8 9 $ # j k c - c c O                                                         ",
"                                                      @ + c x - c c x O                                                         ",
"                                                      % O v c - - c x O                                                         ",
"                                                      % & G N c x c c O                                                         ",
"                                                      % l I G G G N - O                                                         ",
"                                                      @ = I G G G N - O                                                         ",
"                                                      % = I H G G G c O                                                         ",
"                                                      & z I H G G G c O                                                         ",
"                                                    O H I K G G G G b c & @                                                     ",
"                                                    . H I H G G G G G c & o                                                     ",
"                                                  % m K K G G G G n N m x * @                                                   ",
"                                                  z P K b N G G G c c b M = O                                                   ",
"                                              o L I H N & m G G G c * * J c c * O                                               ",
"                                              O O O O O   % = G G +     O X O O o                                               ",
"                                                              * =                                                               ",
"                                                              % %                                                               ",
"                                                                                                                                ",
"                                                                                                                                ",
"                                                                                                                                ",
"                                                                                                                                ",
"                                                                                                                                ",
"                                                                                                                                "
};
