/* XPM */
static char *left_bottom_background[] = {
/* columns rows colors chars-per-pixel */
"64 64 165 2 ",
"   c #797E77",
".  c #7A7F79",
"X  c #7D9F57",
"o  c #7C9F5B",
"O  c #7DA257",
"+  c #7CA15B",
"@  c #7A876F",
"#  c #7A8B6E",
"$  c #7D9666",
"%  c #7E9B64",
"&  c #7D9569",
"*  c #7A8376",
"=  c #7B8B71",
"-  c #7B817A",
";  c #7E897B",
":  c #82A357",
">  c #88AA57",
",  c #81A35A",
"<  c #88A75B",
"1  c #87AB5B",
"2  c #8AAC5C",
"3  c #93B35C",
"4  c #819D62",
"5  c #829B69",
"6  c #828A7D",
"7  c #819373",
"8  c #89967F",
"9  c #82A063",
"0  c #8DAA64",
"q  c #90AD66",
"w  c #96B662",
"e  c #99B763",
"r  c #9BBA63",
"t  c #97B56A",
"y  c #98B768",
"u  c #8DA07C",
"i  c #9FB870",
"p  c #A4BF63",
"a  c #A6BE6B",
"s  c #A8BE68",
"d  c #A4C162",
"f  c #A9C362",
"g  c #A9C168",
"h  c #B5CA67",
"j  c #B6CC69",
"k  c #BBCE6B",
"l  c #BFD16A",
"z  c #BFCF73",
"x  c #BFD071",
"c  c #C0D26B",
"v  c #C0CF75",
"b  c #C0D072",
"n  c #838680",
"m  c #848A82",
"M  c #8B9485",
"N  c #8B9884",
"B  c #8D948A",
"V  c #949C8E",
"C  c #969E91",
"Z  c #989F92",
"A  c #97A093",
"S  c #9AA194",
"D  c #9EA39A",
"F  c #9EA599",
"G  c #A1A79D",
"H  c #A2A79E",
"J  c #A1A79B",
"K  c #A1A89C",
"L  c #A2A89E",
"P  c #A3AA9D",
"I  c #A9B79E",
"U  c #89B8BB",
"Y  c #8BBDBE",
"T  c #91BCBD",
"R  c #A6ADA1",
"E  c #A9AFA3",
"W  c #A9AFA2",
"Q  c #AAB0A3",
"!  c #ACB1A4",
"~  c #ABB2A4",
"^  c #ACB2A8",
"/  c #B3B7A9",
"(  c #B3B7AC",
")  c #B1B6A9",
"_  c #B5BBAD",
"`  c #B4BAAD",
"'  c #B6BBAD",
"]  c #B6BAAD",
"[  c #B5BBAE",
"{  c #B5BAAF",
"}  c #B5BBAF",
"|  c #B6BBAF",
" . c #B6BBAE",
".. c #B7B9AF",
"X. c #B5BBAD",
"o. c #B8BCAE",
"O. c #B7BBB0",
"+. c #B7BCB0",
"@. c #B6BCB0",
"#. c #BBBDB3",
"$. c #BABDB4",
"%. c #B9BCB0",
"&. c #91C0BE",
"*. c #9AC3BE",
"=. c #BEC2B4",
"-. c #C2C4B7",
";. c #C3C6B8",
":. c #C4C8BE",
">. c #CACCBE",
",. c #8ABDC1",
"<. c #89BFC0",
"1. c #8ABFC1",
"2. c #89BCC0",
"3. c #8CBFC1",
"4. c #8BBDC1",
"5. c #94BFC0",
"6. c #8BC0C2",
"7. c #9CC5C5",
"8. c #ADCBC7",
"9. c #B4CFCB",
"0. c #ADD1CF",
"q. c #B4D2CD",
"w. c #B8D1CC",
"e. c #BAD5CF",
"r. c #BBD4CF",
"t. c #B9D4CF",
"y. c #B9D4CF",
"u. c #B3D4D1",
"i. c #BAD5D0",
"p. c #BAD5D1",
"a. c #BAD5D0",
"s. c #BED8D4",
"d. c #CBCEC0",
"f. c #C7D0C7",
"g. c #CED1C3",
"h. c #CBD5CA",
"j. c #D0D2C4",
"k. c #D0D2C5",
"l. c #D1D3C7",
"z. c #D2D4C6",
"x. c #D3D4C8",
"c. c #D4D5CB",
"v. c #D5D6C9",
"b. c #D7D8CD",
"n. c #C1DAD5",
"m. c #CAD9D0",
"M. c #D7E7DE",
"N. c #D9E6DE",
"B. c #E1E1D6",
"V. c #E5E7DA",
"C. c #EEEEDF",
"Z. c #DDEAE1",
"A. c #EFEFE3",
"S. c #EEEFE2",
"D. c #F1EFE2",
"F. c #F1EFE4",
"G. c #F1EFE2",
"H. c #EFF0E2",
"J. c #F1F0E2",
"K. c #F1F0E3",
"L. c #F0F0E4",
"P. c #F1F0E4",
"I. c #F1F0E5",
"U. c #F2F0E5",
"Y. c #F1F0E3",
/* pixels */
"U w.A.L.c.$.#.#.| ( D     @ 4 9 4 9 i a a a s s s g x z z z x x b b x z x x x x x x b z b x x x b b b b x b b b b b b v v z k z ",
"2.t.L.L.x.+.O.| | | G . - = + + + + r d d d d d d f l l l l l l c c c c l l l l l l c l c l l l l l c c c l c c c c c c c l l z ",
"2.i.K.L.l.| | | | | G . - = o + + + r d d d d d d f l l l l l l c c c c l l c l c l c c c c c l l l c l l c c c c c c c c l l z ",
"2.t.L.K.l.| | | | | G - - # o + + + r d d d d d d f l l l l l l c c c c l l c c c c c c l c l c c c l l l l c c c c l c l l l z ",
"2.t.L.D.l.| | | | | G - - # + + + o r d d d d d d f l c c c l l c c c c l l l c c c l c c c l l l l l l c l c c c l l l l l l z ",
"2.i.L.D.l.| | | | | G - - # o + + X e d d d d d d f l c c c l l c c c c c l l c c c l l c c c c l l c c c c c c l l l l l l l z ",
"3.i.L.D.l.| | | | | G - - # + + + X r d d d d d d f l c c c c c c c c c c c l l c c l c c c c c l l c l c c c c l l l l l l l z ",
"2.t.L.K.l.| | | | | G - - # + + + + r d d d d d d f l l l l c c c c c c c c l l l l l c c c l l l l c l c l c c c l l c c l l x ",
"2.t.L.D.l.| | | | | L - - # + + + + r d d d d d d f l l l l l c c c c c c c c l l l c c c l c l l l l l c l c c l l l c c l l z ",
"2.t.L.D.l.| | | | | G - - # + + + + r s d d d d d f l l l c l l l c c c c c c l l c c c c l c c l l l c c c c c c c c c c l l z ",
"2.t.F.K.j.| | | | | J - - # + + + + r s d d d d d f l c l l l l l l l l l l l l c c c c c c c c l l l c c c c c c c c c c l l z ",
"2.t.F.K.l.| | | | | L - - # + + + + r s d d d d d f l l l l l l l l l l l l c c l c c c c c c l l c c c c c c c c l l c c l l z ",
"2.t.L.K.l.| | | | | K - - # + + + O r p d d d d d f l l l l l l l l l l l l c c c c c c c c c l l l c c c c c c c c c c c l l z ",
"2.t.L.K.l.| | | | | K - - # + + + + r p p d d d d f l l l l l l l l l l l l l l l l l c c c c c l l c c l c c c c c l l c l l z ",
"2.i.L.K.l.| | | | | G - - # + + + + r p d d d d d f l l l l l l l l l l l l l l l l l c l l l l c c l c c c c c c l l c c l l z ",
"2.i.L.K.l.| | | | | J - - = o o o o e d d d d d d f l c l c l l l l l l l c c l l l l l l l l l l l l c c c c c c l c c l l l z ",
"Y i.K.K.l.| | ) ! Q D m m 6 & & & $ q w e w d d d f l c c c l l l l l l c c c l c c c c c l l l l l l c c c l c c c c l l l l z ",
"2.i.D.D.l.| | E Z C C C C B . . - * % + + O p d d f l c c c l l l l l l c c l c c c l l c c l c c c l l l l c c l l l l l l l z ",
"2.i.D.D.l.| } E C C C C C B - - - * % + + O p d d f l c c c c l c c l c c c c c c c c c c c c c c l l l l l l l l l l l l l l z ",
"2.t.F.D.>.Q Q L C C C C C B - - - - & + + + p d d d j h h k l l c c l c l l c c c c c c c c c c c l l l l l l l l l l l l l l z ",
"2.t.L.K.=.V C C C C C C C B - - - - & + + + r d d d d d d f l c c c l c c c c l c c c c c c c c c l l l l c c c l c c l l l l z ",
"2.t.L.K.=.C C C C C C C C B - - - - $ + + + r d p d d d d f c c c c l c l l c c c c c c c c c c c l l l l c c c l c c l l l l z ",
"2.t.K.K.=.A C C C C C Z C B - - - * % + + O r d d d d d d f c c c c c l l c c c c c c c c c c c c l l l c c c c l c c l l l l z ",
"2.t.K.K.=.A C C C C C Z C M * * * * % , , : r d d d d d d f c c c l l l l c c c l l c c c c c c c l l l c c c l l l l l l l l z ",
"2.t.K.K.=.C C C C C B ; ; = % % % % y p p r d d d d d d d f l l l l c l l c c c c c c c c c c c l l l c c c c l c l l l l l l z ",
"2.t.L.K.=.C C C C C B - - = o + + + r d d p d d d d d d d f l l l l l l l c c c l c c l l c l l l c c c c c c l l l l l l l l z ",
"2.i.L.K.-.C C C C C B - - = + + + + r d p d d d d d d d d f l l l l l l l c l c l c l l l l l l l c c l c c c c c l l l l l l z ",
"6.i.F.K.d.! ! P Z C B - - # + + + + r d p d d d d d d d d d f f f j l l l c l c l l l l l l l l c c c l c c c c c l l c c l l z ",
"2.t.D.K.g.| | E Z C B - - # o + o + e d d d d d d d d d d d d d d h l l l l l l l l l l l l l l l l l l c l c c l c c c c l l z ",
"2.t.K.K.l.| | E Z C B - - = o + o + e d d d d d d d d d d d d d d h l l l l l l l l l l l l l l l l l l l l l l l c c c c l l z ",
"2.t.L.K.l.| | E C C B - - = o + o + e d d d d d d d d d d d d d d h l l l l l l l l l l l l l l l l l l l l l c l c c c c c l z ",
"3.i.K.K.l.| | | ) ) D - - = o o + + r p d d d d d d d d d d d d d d f f f f f f f f f f k l l l l l l l l l l c c c c c c l l z ",
"6.i.L.K.l.| | | | | G - - # o o + + r p d d d d d d d d d d d d d d d d d d d d d d d d k l l l l l l l l l l c c c l l l l l z ",
"6.i.L.K.l.| | | | } L - - @ o o + + r d d d d d d d d d d d d d d d d d d d d d d d d d k c l l l l l l l l l l c c l l l l l z ",
"3.i.L.K.l.| | } } } L - - @ + o + O r d d d d d d d d d d d d d d d d d d d d d d d d d j l l l l l l l l l l l l l l l l l l z ",
"3.t.F.K.l.| | } } | L - - @ o + + O r p d d d d d d d d d d d d d d d d d d d d d d d d f f f f f f f f f f f f f f f f f f f s ",
"2.t.K.K.z.} } } | | L - - # + + + + r p s d d d d d d d d d d d d d d d d d d d d d d p d d d d d d d d d d d d d d d d d d d p ",
"Y i.H.L.x.} | | | | L - - # + + + + e p p d d d d d d d d d d d d d d d d d d d d d d d d d d d d d d d d d d d d d p p d d d a ",
"2.7.9.q.m.B.B.>.` | ) L G V = # # # 4 < < > p d d d d d d d d d d d d d 3 1 < 1 < 1 1 > r d d d d d d d d d d d d d d 2 < 2 0 0 ",
"3.3.3.3.n.K.K.z.` | } } | J - - - * $ o X O p d d d d d d d d d d d d p 2 + + + + + + O r p d d d d d d d d d d d d d : X X + 9 ",
"3.3.3.3.s.K.D.x.| } } | | K - - - * $ + + , p d d d d d d d d d d s p s 2 + + + + + + + r s s s d d d d d d d d d d d , X o o 9 ",
"3.3.3.Y s.K.D.c.| } } } | L - - - - $ + + , p d d d d p d p p p p p p p 2 + + + + + + + r p p p p d d d p p d d d p p , + + o % ",
"3.3.3.Y s.D.D.c.} | / ! ^ J m m m m 7 & & % t e w w w w w w w w w w w w 9 & & & & & & % w e e w w w w w w w w w w w w % $ & & & ",
"2.3.3.3.s.D.D.c.| | Q C C C C V V C 6 - - * % X X X X o o o o o o + o + # * * * * * * * 4 + + + + + o X o X X o + o o @ * - - * ",
"2.3.3.3.s.L.D.c.| | Q C C C C C C C m - - * % o o o o o o o o o o o o o # - - - . . . * % + + + + + + + o o X o o o , = - - - . ",
"3.3.3.3.s.L.D.l.! ! P C C C C C C C M m m ; % o o o o o o o o o X o o + 7 6 6 m m m n 6 % + + + + + + + o o o X X o % 8 B B M m ",
"3.3.3.3.s.D.K.>.C C V C C C C C C C Z C C V % o o o o o o o o o o o o o u C C C C C C V 5 o o + + + o o o o o o o o o I o.} | ) ",
"3.3.3.3.s.D.K.d.A C V V C C C C C C C C V V = @ @ # @ @ @ @ @ @ @ @ @ = N C C C C C C V = @ @ @ @ @ = @ @ # @ = @ = @ Q | | | ` ",
"3.3.3.3.s.F.L.d.A C V C C C C C C C C C V C - . - - - - . . .   - - - - M C C C C C V C -   . - - - - - - - - - - .   Q | | } | ",
"4.3.3.2.u.Z.Z.f.P P D V C C C C C C S S S S m m m m ; - - - - - ; ; ; - B C C C C C V C m ; ; ; - - - n m m m m m m m ! | | | +.",
"4.3.4.2.Y Y Y t.K.D.z.A C C C C C V ! | | | } #.o./ C V V V C C C C C C C C C C C C C C C C C C C C C R | | | | } } +.| | | | | ",
"4.2.4.4.2.2.2.i.K.K.c.Z C C C C C V ! | o.o.o.o.o.) V V V V C C C C C C C C C C C C C C C C C C C C C G | | | | | | } | | | | | ",
"2.2.2.2.2.2.2.i.L.L.b.Z C C C V C C ) o.o.o.o.o.| ) V V V C C C C C C C C C C C C C C C C V C C C C C J | | | | | | | | | | | | ",
"3.2.3.2.2.2.3.7.q.q.w.l.g.g.>.! E ! | +.| } | | | ` E E R C C C C C C C C C C C K Q Q E E E Q E S C V A J K K Q | | | | | | | | ",
"3.3.2.2.2.2.3.3.3.3.8.H.C.C.C.-.| +.+.+.| | | | | | o.o.( A C C C C C C C C C V Q } } | } } +.| S C V V V V V L | } | | | | | | ",
"2.2.2.3.3.2.3.3.2.Y 8.A.C.C.C.-.O.+.+.O.| | | | | | o.o.( Z C C C C C C C C C Z Q } } o.o.o.%.| S C C C C V C L } } } +.} } | ) ",
"2.2.2.2.2.2.3.3.3.4.7.w.w.t.w.h.b.c.c.c.c.c.c.c.c.c.c.c.g.S C C C C C C D R R R / } } o.o.o.o.| E R R D C C C D R P P P P P L J ",
"2.2.2.2.2.2.3.3.3.2.2.4.4.Y T N.L.K.D.D.D.D.D.D.D.D.D.D.V.S C C C C C C Q +.+.} } } } o.o.o.o.| | +.| P V A C C C C C C C V C V ",
"3.2.3.2.3.3.3.3.3.4.2.4.4.4.5.M.K.D.A.A.K.H.K.K.A.A.A.H.V.S C C C C C V R } } } } } } } } o.o.o.| | | P C A C C C C C C C C C Z ",
"3.2.2.2.3.3.3.3.3.4.4.4.4.3.3.0.i.i.i.i.i.i.i.i.t.t.t.i.r.:.-.-.-.-.-.-.d.z.z.x.x.z.z.z.x.x.x.x.x.x.x.d.;.-.-.-.-.-.-.-.-.-.;.:.",
"3.3.3.3.3.3.3.3.3.3.3.4.4.Y 4.4.2.3.3.3.3.2.3.3.3.3.2.2.*.S.K.K.D.D.K.K.K.K.K.K.K.D.D.D.D.D.D.K.K.K.D.K.K.D.D.D.D.D.K.D.D.K.K.L.",
"3.3.3.3.3.3.3.3.3.3.3.4.4.4.4.4.3.3.2.2.2.2.2.2.2.3.3.3.*.S.D.A.D.K.K.K.A.A.A.H.H.H.K.K.K.D.K.K.K.K.D.K.K.K.H.A.K.K.A.K.K.K.K.H.",
"2.3.3.3.3.3.3.3.3.3.3.3.4.4.4.4.3.3.2.2.2.2.3.3.2.3.3.2.&.u.t.t.w.t.t.t.w.w.w.w.w.w.t.t.t.t.t.t.t.t.t.t.t.w.w.w.w.t.t.t.i.w.i.w.",
"2.2.3.3.3.3.3.3.3.3.3.3.3.3.4.3.3.3.2.2.2.2.3.3.2.3.3.3.2.2.2.2.3.2.Y Y 2.2.2.2.2.2.2.Y 6.Y 2.2.2.2.2.2.6.2.2.2.2.2.2.2.3.3.3.Y "
};
