/* XPM */
static char *right_background[] = {
/* columns rows colors chars-per-pixel */
"64 64 142 2 ",
"   c #7A7E77",
".  c #7B7F78",
"X  c #7B9F57",
"o  c #7B9E5A",
"O  c #7CA157",
"+  c #7CA05B",
"@  c #79876C",
"#  c #7B8C6E",
"$  c #7D9C62",
"%  c #7D9468",
"&  c #7B8674",
"*  c #7B8C71",
"=  c #7C817A",
"-  c #80A357",
";  c #81A35B",
":  c #87A85C",
">  c #89AA5C",
",  c #8DB05C",
"<  c #93B35E",
"1  c #A4BF5F",
"2  c #819C64",
"3  c #809668",
"4  c #818F78",
"5  c #86927F",
"6  c #83A264",
"7  c #89A762",
"8  c #8AA960",
"9  c #97B660",
"0  c #98B760",
"q  c #97B861",
"w  c #9BBA62",
"e  c #9EB76C",
"r  c #A3BF61",
"t  c #A8BF67",
"y  c #A4BD6A",
"u  c #A1B970",
"i  c #A3C05F",
"p  c #A4C062",
"a  c #AAC262",
"s  c #ABC26E",
"d  c #B0C765",
"f  c #B2C867",
"g  c #B7CE6B",
"h  c #BBCF6B",
"j  c #BFD267",
"k  c #BFD26A",
"l  c #BFCF73",
"z  c #BFCE79",
"x  c #BFD074",
"c  c #BFD178",
"v  c #C0D367",
"b  c #C0D36A",
"n  c #C0CF74",
"m  c #C0D075",
"M  c #C0D078",
"N  c #858B83",
"B  c #8E958A",
"V  c #90968C",
"C  c #939B8D",
"Z  c #979E92",
"A  c #999F93",
"S  c #99A193",
"D  c #9EA599",
"F  c #A2A79C",
"G  c #A3A99D",
"H  c #8BBCBF",
"J  c #A7AEA0",
"K  c #A5ACA1",
"L  c #A8AEA1",
"P  c #A9AEA2",
"I  c #ABB1A5",
"U  c #ACB2A5",
"Y  c #ADB2A6",
"T  c #ABB1A4",
"R  c #AEB4A9",
"E  c #B0B6A8",
"W  c #B4B7AC",
"Q  c #B3B7A9",
"!  c #B4B9AD",
"~  c #B4BAAC",
"^  c #B5BAAC",
"/  c #B5BAAD",
"(  c #B5BBAD",
")  c #B6BBAD",
"_  c #B7BBAD",
"`  c #B5BAAE",
"'  c #B5BBAE",
"]  c #B6BBAF",
"[  c #B7BCAE",
"{  c #B5BBAD",
"}  c #B8BCAE",
"|  c #B8BDAF",
" . c #B8BCAE",
".. c #B7BBB0",
"X. c #B7BCB0",
"o. c #B9BDB0",
"O. c #B9BCB1",
"+. c #BFC3B6",
"@. c #BFC3B6",
"#. c #C0C3B6",
"$. c #C4C5B8",
"%. c #C7CBBD",
"&. c #CACCBF",
"*. c #8BBCC0",
"=. c #8BBDC0",
"-. c #8BBCC1",
";. c #8BBDC1",
":. c #8BBDC0",
">. c #92BBC0",
",. c #B7D2CC",
"<. c #B9D3CD",
"1. c #B9D3CE",
"2. c #B9D3CF",
"3. c #BCD4CF",
"4. c #B9D3CE",
"5. c #B9D3D0",
"6. c #B9D3D0",
"7. c #CFD1C4",
"8. c #D0D1C4",
"9. c #D0D2C4",
"0. c #D1D2C4",
"q. c #D0D2C5",
"w. c #D1D2C5",
"e. c #D1D3C7",
"r. c #D1D2C5",
"t. c #D2D3C8",
"y. c #EFEFE3",
"u. c #EEEFE1",
"i. c #F0EFE2",
"p. c #F1EFE2",
"a. c #F1EFE3",
"s. c #F1EFE2",
"d. c #EFF0E2",
"f. c #EFF1E4",
"g. c #EFF0E3",
"h. c #F0F0E2",
"j. c #F1F0E2",
"k. c #F0F0E3",
"l. c #F1F0E3",
"z. c #F2F0E3",
"x. c #F1F0E5",
"c. c #F0F0E3",
/* pixels */
"z m m n n n m m m m m m m m m m m m m n m m m m m m m m m x m m x x n m m c s y r r r r y e 6 6 o $ @ . . F W ] ] X...t.k.f.3.>.",
"n b b b b b b b b b b b b b b b b b b j j b b b b b b b b b b b b b b b b x a r r r r p p 0 + o o o # = = G ] ] ] ] ] q.k.k.<.H ",
"m j j j b b b b b b b b b b b b b b b b b b b b b j b b k k k b b b j b b k a p p p p p r 0 o o o o # = = G ] ] ] ] ] q.j.y.5.H ",
"l j j j b b b b b b b b b b b b b b b b b b b b b b b j k k k k k j j b b k a r p p p p r 9 X o o o # = = G ] ] ] ] ] q.p.k.5.H ",
"x j j j b b b b b b b b b b b b b b b b b b b b b b b b j j j k k k b b b k a p p p p r r 9 X o o o # = = G ] ] ] ] ] q.p.j.<.=.",
"x k j j b b b b b b b b b b b b b b b b b b b b b b b b j j k b b j j j j k a p p p p r r 0 X o o o * = = G ] ] ] ] ] q.p.j.<.=.",
"l k j j b b b b b b b b b j j j j b b b b b b b b b b j j j k b b k b j j k a p p p r r r 0 X o o o * = = G ] ] ] ] ] q.p.j.<.=.",
"l k j j b j j j j b b b b b b b b b b b b b b b b b b b j j b b b b b j j k a p p p p r r 0 X o o o * = = G ] ] ] ] ] q.j.j.<.=.",
"l k j j b b b j j b b b b b b b b b b b b b b b b b b b b b b b b b b k k k a p p p p r r 9 X o o + * = = G ] ] ] ] ] q.j.j.<.=.",
"l k j j j j j j b j j b b b b b b b b b b b b b b j b b b b b b b j b b k k a r p r p r r 9 X o o + * = = G ] ] ] ] ] q.j.j.<.=.",
"l k j j j b b b j j j b b b b b b b b b b b b b j j j j b b b b b j b b j k a r r r p r r 0 X o o + * = = A L K E ] ] q.j.d.<.=.",
"n k j b b b b b j j j b b b b b b b b b b b b j j j j j b b b b b b j b b k a r r r p r r 0 O o o o # = = B A A I ] [ q.p.j.<.=.",
"n k j b b b b b b b j b b b b b b b b j b b b j j j j j j b b j j j j k j k a p r r r r r 0 + + o o # = = B A S Y } } q.p.j.<.=.",
"n j j b b b b b b b j b b b b b b b b j b j j j j j j j j b b b j j j k j k a p r r p r r 0 O + o o # = . B A S Y } } q.p.j.<.=.",
"m j j b b b b b b b b b b b b b b b b j j j b b b b j j b b b b b j j j j j f f f d r r r 0 O + + o # = = B A S G I L %.p.p.<.=.",
"m j j b b b b b b b b b b b b b b j j j j b b b b b j b b b b b j j j j j j b b j k 1 r r 0 O + + o # = = B S S S S A +.j.p.<.=.",
"m j j j b b b b b b b b b b b b b b b b b b b b b b b b b b b b j j j j j j k k j k p p p 0 O + + o # = = B A A A A A +.j.j.<.=.",
"m j j j j j b b b b b b b b b b b b b b b b b b b b b b b b b b j j j j j j b b k k p i p 0 X o o o # & = B A A A A A #.j.p.<.H ",
"m j j j j j j b b b b b b b b b b b b b b b b b b b b b b b b b j j j j j b b b k k r p r w < < < < 2 % % 4 N N V A A #.j.y.<.H ",
"x j j j j j j b b b b b b b b b b b b b b b b b b b b b b b b b j j j j j j j b b k r r r r r r r r > + + # = = B A A #.j.j.<.H ",
"l j j b j j j b b b b b b b b j j b b b b b b b b b b b b b b b b b b b b b j j k k r r r r r r r p > + + # = = B S S #.p.k.<.=.",
"l j j b b b j j b b b b b b j j j j b b b b b b b b b b b b b k k b b b b j j j j k r r r r r p p p > + + # = = B S S #.j.k.<.=.",
"l j j b b b b b b b b b b b j j j j j b b b b b b b b b b b j k k k b b b j j j j k 1 r r r p p p p > o o # = = B S S #.p.k.<.=.",
"l j j j j j b b b b b b b j j j j j j b b b b b b j b b b b b b b b b b b j b k b k r r r r p p p r > o o # = = B A S #.p.j.4.=.",
"l k j j j b b b b b b b b j j j j j j b b b b b b b b b b b b b b b b b b j j k j k r 1 r p p p r r : o o # = = B A S #.j.j.4.=.",
"l j j j j b b b b b b b b j b j j j j b b j b b b j b b b b b b b b b b b j j j j k r 1 r r p p r r : o o # = = B S S #.p.j.4.=.",
"l k j j j b b b b b b b b b b j j j j b b j j j j b b b b b b b b b b b b j j j j k 1 r r r p p p r > o o # = = B S S #.j.j.<.=.",
"l k j j j b b b b b b b b b b b j b j b b k j j j b b b b b b b b b j j j j j j j k 1 r r r r r r r > o o # = = B S S #.j.p.<.=.",
"l k j j j j b b b b b b b k b b b j j k k j j j j b b b b b b j j b j j j j j j j k 1 r r r r r r r > o o # = = B S A #.p.p.<.=.",
"l k j j j b b j b b b b b j j j j j j j j j j j j b b b b b b j j j j j j j j j k k p i 1 r w w w w 7 2 $ # = = B A A #.p.k.4.=.",
"l k j j j j b j b b b b b b b j j j b j j j j j j b b b b b b j j j j j j j j k k k p p p 0 - ; ; ; % * & S Y R F A A #.p.a.4.=.",
"l k j j j j j j j b b b b b j j b j b b j j j j j b j b b b b b j j j j j j j k k k r p p 0 o o o o # = = G ] [ F Z A #.p.a.<.=.",
"x k j b b j j j b b b b b b b j b j j b j b b b b b j b b b b b b b j j j b b b b k r p p 0 + o o o * = = G [ ] F A A #.p.j.4.=.",
"l k j j b b b b b b b b b b j j j j b b b b b b b b b b j b b b b b j j b b b b k k r p p 0 + o o o # = = F ] ] G S D $.p.j.4.=.",
"l k j j b j b b b j b b b j j j j j b b b b b b b b b b b b j j j j b b b b j b k k r r p 0 + o o o # = = F ] ] ] ] ] q.p.j.4.=.",
"l j j j b b b b j b b b b j b b b b b b b b b k j b j j j j j j j j b b j j b b k j r r r q + + + + # = = F ] ] ] ] ] q.j.k.<.=.",
"l j j j b j b b b b b j j b b b b b b b b b b b b b j j j j j j j j b b j j k k j k r r r q + + + o # = = F ] ] ] ] ] q.j.j.<.=.",
"l j j j b b b j j j j j j b b b b b b j j j j j b b j j j j j j j j j b j k k k j k r r r q O + + + # = = F ] ] ] ] ] q.j.j.<.=.",
"l j j b b b b j j j j j j j j b b b j j j j j j j b b b b j j j j j j j k b b b b j 1 r r 0 + + + + # = = F ] ] ] ] ] q.j.k.<.=.",
"l j j b b b b j j j j b j j j j j j j j j j j j j b b b b j j j j j j j k b b k b j 1 r r 0 O + + + # = = F ] ] ] } [ q.j.j.<.=.",
"l j j j j j b j j j b b j j j j j j j j j j j j j b b b b j j j j j j j b b h g k g r r r 9 + o o o # = = F ] ] Q ~ Q 7.j.j.4.=.",
"l j j j j j j j j b b b j j j j j j j b b b b b b b b b b b b b b b b j b k a r p p p r r q X o o o # = = F ] } G S S #.p.p.<.=.",
"l j j j j j j j j b b b j j j j j j j b b b b b b b b b b b b b b b b j j k a r p p r r r q X o o + # = = G [ } G S S #.p.j.<.=.",
"l j j j j j j j j j b b j b j j j j j b b b b b b b b b b b b b b j j j j k a r p p r p r 0 o o o + # = = G [ ] G S S #.p.j.<.=.",
"l j j j j j j j j b b b j b j j j j b b b b b b b b b b b b b b b j j j j k a p p p p r r 0 X o o + # = = C D D S S S #.p.j.<.=.",
"l k j j j j j j j j b b b b j j j j b b b b b b b b b b b b b b b j j k j k a p p p p r r 0 O + + + # = = V S S S S S #.j.d.<.=.",
"l k j j j j j b b b b b b b j j b b b b b b b b b b b b b j b b b j j k j k a p p p p r r 0 O + + + # = = V S S S S A #.p.d.5.=.",
"l k j j j j j b b b b b b j b j b b b b b b b b b b b b b b b b j j j j j k a p p p p r r 0 + + + + # = = B S S S Z S #.p.f.4.H ",
"l j j j j j b b b b b b b j b b b b b b b b b b b b b b b b b b j j b j k k a p p r r r r w > > , > 3 # # 5 B B C Z S #.j.f.4.H ",
"l k j j b b b b b b b b b b b b b b b b b b b b b b j j j b b b b j b j k k a r r p p r r r r p p r > o o # = = B S S #.p.f.4.H ",
"l k j b b b b b b b b b b b b b b b b b j b b b b b j j j j b b b j j j k k a r r r p r r r r r r r > + + # = = B S S #.j.d.<.H ",
"l k j b b j b b b b b b b b b b b b b b b b b b b b j j j b b b b j j j k k a a a a r r r r r r r r > o + # = = B S S #.j.j.<.*.",
"l k j j b b b b b b j b b b b b b b b b b b b b b j j j b b b b b b j j k k j j j h 1 r p p r r r r > o o # = = B S S #.p.j.<.=.",
"l j j j b b b b b b j b b j j b b b b b b b j j j b b b b b b b j j j j k b b b b j 1 r r r r p r r > o o # = = B A S #.j.k.<.H ",
"n j j b b b b b b b b b b b j b b b b b b b b j b b b b j b b b j j j j k b b j b k 1 p r r r r r r > o o # = = B A S #.p.k.<.H ",
"n k j b b b b b b b b b b b j b b b b b b b b b b b b b j j j b j j j k k b b b b k 1 r p p r r r r > o o # = = A T T &.p.k.<.H ",
"l k k j j j j j j b b b b b b b b j b b b b j j j b b j j j j j j j k k j k k k j k r r r r r r r r > o o # = = D ] ] q.j.k.<.H ",
"l b k j j j j j j b b b b b b b b b b b j j j j j b j j j j j j j k k k j j k b b k r r r r r r r r > + o # = = D ] ] q.j.k.<.H ",
"m b b j j j j j b b b b b b b b j b b j j j j b j j j b b k j j k k k k j j k b b k r r r r r r r w 8 o $ # = = D ] ] q.j.k.<.H ",
"m b k j j j j j b b b b b b b b b b b b b j j j j b b b b j j k k k k k j j d d a a p p p w > > > : 3 * * C F D I ~ ] q.j.k.<.H ",
"l k j j j j j j b b j b j j b b b b b b b b b b b b b j j k k k k k k k b k a p p p p p p w + o o o # = = G ] ] ] ] ] 7.j.k.<.H ",
"l j j j j j b b b b j j j j j b b b b b j j j b b b b b k k k k k k k k k k a r r r p p p w ; + o o # = = K [ [ ] ~ ~ 7.p.k.4.=.",
"l k k k k k k b b k k k k j j k j j j b k k j j b b b k k k k k k k k k j k p r r r r r p w ; ; o o # = = K [ ] [ ] ] 7.p.f.<.H ",
"l l M M z M M m x m m m m m x x m m m m m m m m m l l l x x x x x x m x l l t y y y y y y u 6 6 $ $ # . . G ] o.o.o...7.y.y.,.H "
};
