/* XPM */
static char *right_bottom_background[] = {
/* columns rows colors chars-per-pixel */
"64 64 160 2 ",
"   c #777E76",
".  c #787E77",
"X  c #7A7F79",
"o  c #7B9F56",
"O  c #7C9E5B",
"+  c #7DA157",
"@  c #7DA15B",
"#  c #77876D",
"$  c #7A8B6E",
"%  c #7C9565",
"&  c #7E9A64",
"*  c #7D946A",
"=  c #7F9A68",
"-  c #798276",
";  c #7C8C71",
":  c #7B817A",
">  c #7F897F",
",  c #809F5F",
"<  c #80A255",
"1  c #80A15C",
"2  c #8BAC5C",
"3  c #8DB05C",
"4  c #95B55D",
"5  c #98B95F",
"6  c #A2BD5F",
"7  c #819E64",
"8  c #829C68",
"9  c #80877E",
"0  c #818A7D",
"q  c #879976",
"w  c #899C78",
"e  c #83A164",
"r  c #8BA767",
"t  c #8EAD63",
"y  c #87A16A",
"u  c #92AF65",
"i  c #96B561",
"p  c #98B662",
"a  c #96B860",
"s  c #9BBA63",
"d  c #A4BF62",
"f  c #A5BD6B",
"g  c #A8BF6A",
"h  c #A7BF71",
"j  c #A3C15F",
"k  c #A3C063",
"l  c #A9C262",
"z  c #AFC966",
"x  c #A9C06A",
"c  c #B1C966",
"v  c #BFD26A",
"b  c #BFCF73",
"n  c #BFD071",
"m  c #C0D36B",
"M  c #C1CF75",
"N  c #C0D072",
"B  c #848A82",
"V  c #898E86",
"C  c #879283",
"Z  c #8C9386",
"A  c #8C9489",
"S  c #949C8F",
"D  c #969E91",
"F  c #999F93",
"G  c #95A18D",
"H  c #9FB08E",
"J  c #97A092",
"K  c #9AA194",
"L  c #9DA499",
"P  c #A1A69B",
"I  c #A3A99D",
"U  c #8BBDBF",
"Y  c #8BBCBF",
"T  c #90BBBE",
"R  c #A6ACA1",
"E  c #A9AFA2",
"W  c #ABB1A4",
"Q  c #ACB2A5",
"!  c #AEB5A9",
"~  c #B0B5A7",
"^  c #B2B7A9",
"/  c #B5BBAD",
"(  c #B4BAAC",
")  c #B6BBAD",
"_  c #B5BBAE",
"`  c #B5BBAF",
"'  c #B5BAAF",
"]  c #B6BBAF",
"[  c #B5BCAF",
"{  c #B5BBAD",
"}  c #B8BCAE",
"|  c #B6BCB0",
" . c #B8BBB0",
".. c #B8BDB2",
"X. c #B9BDB1",
"o. c #B8C1B0",
"O. c #C2C4B7",
"+. c #C1C4B8",
"@. c #C6C9BD",
"#. c #C9CCBF",
"$. c #8BBDC1",
"%. c #88BCC0",
"&. c #8CBDC2",
"*. c #8CBDC1",
"=. c #8BBDC1",
"-. c #89C0C0",
";. c #94C1C4",
":. c #9FC5C2",
">. c #AACECC",
",. c #B2CFC9",
"<. c #B7D0CB",
"1. c #B6D4CE",
"2. c #B9D3CE",
"3. c #B9D3CF",
"4. c #B9D4CF",
"5. c #BAD4CF",
"6. c #B9D4CE",
"7. c #ACD1D4",
"8. c #B5D4D3",
"9. c #BBD6D2",
"0. c #BED8D4",
"q. c #C6CBC3",
"w. c #CDCFCA",
"e. c #CED1C3",
"r. c #CDD7CB",
"t. c #C7D8CE",
"y. c #D1D2C5",
"u. c #D1D3C6",
"i. c #D2D4C7",
"p. c #D2D4C6",
"a. c #D5D6C9",
"s. c #D4D8CB",
"d. c #C1D5D0",
"f. c #C2DBD6",
"g. c #C3DDDE",
"h. c #DCDED0",
"j. c #D4E3DB",
"k. c #DBE9DF",
"l. c #E6E6DB",
"z. c #EFEFDF",
"x. c #F0F0DF",
"c. c #CAE0E2",
"v. c #D6E6E3",
"b. c #DBE7E3",
"n. c #ECECE3",
"m. c #F1EFE2",
"M. c #F2EFE3",
"N. c #F1EFE2",
"B. c #EFF0E3",
"V. c #EFF1E4",
"C. c #F0F0E3",
"Z. c #F1F0E3",
"A. c #F2F0E3",
"S. c #F0F0E4",
"D. c #F2F1E4",
"F. c #F2F0E4",
"G. c #F2F2E4",
"H. c #F1F0E3",
"J. c #F5F5EC",
"K. c #F7F7F0",
/* pixels */
"b b N N n n n n N N N N N N N N N N N n n N N N N N N N n n n N N N M b b b g f f d d d d p , e 7 & ; . . L ( ] X.X.X.a.D.n.<.Y ",
"b m m v v v v v m m v m m m m m v m m m m m m m m m m m v v v v m m v v v v l d d d k d 6 4 + @ @ @ $ : X P ] ] ] ] X.i.D.B.3.$.",
"M v v v v v m m m v m v m v m m v m v m m v m m m m m m v v m m m m v v v v l d d d k d d i o @ @ @ ; : : I ] ] ] ] ] p.D.B.6.*.",
"N v v v v m m m v v v m m m m m m m v v v v v m m m m m m m m m m m m m v v l d d d k d d 5 o O O + ; : : I ] ] ] ] ] p.D.C.6.=.",
"b v v v v m m v v v v m m m m m m m v v v v v m m m m m m m v m v v m m m v l d d d d k 6 5 + O O + $ : : I ] ] ] ] ] p.D.C.6.=.",
"b v v v v m v v v v v v m m m m m m m v v v v v v m m m m m v v v v m m m v l d d d k k d p o O O + $ : : I ] ] ] ] ] p.D.B.3.*.",
"n v v v v v v v v v v v m m m m m m m v v v v v v m m m m m v v v v m m m v l k k k k k d p O O O + $ : : I ] ] ] ] ] p.C.C.3.*.",
"b v v v v v v v v v v m m m m m m m m v v v v v v m m m v v v v v v v v v v l k k k k d d p O O + + $ : : I ] ] ] ] ] p.C.C.3.*.",
"b v v v v v v v v v m m m m m m m m v v v v v v v v v m v v v v v v v v v v l k k k k d d p + O + + $ : : I ] ] ] ] ] p.m.C.3.*.",
"b v v v v v v m m m m m m m m m v v v v v v m m m m v m v v v v v v v v v v l k k k k d d p + O + + $ : : I ] ] ] ] ] p.m.C.6.=.",
"b v v v v v m m m m m m m m v m v v v m m v m m m m m v v v v v v v m v v v k k k k k d d s + + + @ ; : : I ] ] ] ] ] p.m.C.6.=.",
"b v v m m m m v m m m m m v v v v v m m m m m m m v v v v v v m m m v v v v k k d k k d d s + O + @ $ : : I ] ] ] ] ] p.m.C.6.=.",
"b v v m m m m m m m m m m m v v v v m m m m m m v v v v v v v m m m m m v v l k d d d d d s O O O + $ : : I ] ] ] ] ] p.m.B.6.=.",
"b v v v v m m m m m m m m m v v v v m m m m m v v v v v v m m m v v v v v v l d d d d d d s O O O + $ : : I ] ] ] ] ] p.m.V.6.U ",
"b v v m m m v m m m m m m m m v v m m m m m v v v v v v v m m m v m m v v v k d k k k d d p O O + + $ : : I ] ] ] ] ] p.m.D.3.U ",
"b v v m m v v v m m m m m v v v v m m m m m v v v v v m v m m m m v v v v v l d k d k d d i O O + + $ : : I ] ] ] ] ] p.D.D.3.=.",
"b v v v v v v v m m m m m v m v v m v v m m v v v v v m v v m m v v v v v v l d d d 4 i 4 t % % % * 0 B B I ] ] ] ] ] p.D.m.6.=.",
"b v v v v v v m m v m m m v v v m m m v v m v v v m m m v v m m m v v v v v l d d d + + + = - : : - Z D D W ] ] ]  .] p.D.B.1.=.",
"b v v v v v v m m v m m m m v v v m v v m m m m m m m m m m m v m v v v v v l d d d + + + = - : : : Z D D W ] ] ] } ] p.D.B.6.=.",
"b v v v v v m m m v v m m m m v v v v m m m m m m m m v m m m v v v v v v v l d d d + + + = - : : : A S D I Q W ^ } ] p.D.C.6.U ",
"b v v v v v v m m m v m m m m m v v m m m m m m m m m m m m v v v v v v v v l k k d + + + = - : : : A S D D D S E ] ] p.C.C.3.U ",
"b v v v v v v m m m v v m m m m v v m m m m m m m m m m m v v v v v v v v v l k d d + + @ = - : : : A S D D D D W X.] p.C.C.3.U ",
"N v v v v v v m m m m v m m m m v m m m m m m m m m m v m v v v v v v v v v l k k d + + @ = : : : : A D D D D D E X.] p.m.D.6.=.",
"b v v m m m m m m m m m m m m m m v v v m m m m m m m v v v m v v v v v v v k k d d + + @ = : : : : A S D D D D R ( ( e.C.V.3.U ",
"b v v v m m m m m m m m m m m m v v v v v v v m m m m v v v m v v v c k k k k k k d + + + = : : : : A S D J D D D F F O.C.D.3.U ",
"b v v v v v m m m m m m m m m m v v v v v v v v v v v m m m m m v v z k k k k d k d + + + = : : : : A D D D D D D D J O.m.D.3.=.",
"b v v v v v m m m m m m m v v v v v v v m m v v v v v m m m m m v v z k k k k d k d < + + & ; - - - A D D D D D D K K O.m.m.6.U ",
"b v v v v v m m m m v m m v v v v v v v m v v v v v v m m m m m v v z k k k k k k k s 5 i u % % % % ; B B L Q W P K K O.m.m.6.=.",
"b v v m m v v v v v v v v v v v v v v v v v v v v m m m v v m m v v c k k k k k k k k d d s + O O @ $ : : I ] ] I J K O.C.m.6.=.",
"b v v v v v v v v v v v v v v v v v v v v v v v v m m v v v v v v v c k k k k k d k k k k s + O O O $ : : I ] ] I D F O.m.C.6.=.",
"b v v v v v v v v v v v v v v v v v v v v v v v v v v v v v v v v v z k k k k k k k k k k s + O O O $ : : I ] ] I D D O.C.C.6.=.",
"b v v v v v v v v m m m m v v v v v v c l l l l l l l l l l l l l l k k k k k d k k k k k s O O O O $ : : I ] ] ( ^ ! e.C.V.1.U ",
"b v v v v v m m m m m m m v v v v v v z k k k k k k k k k k k k k k k k k k k k k k k d k p O O O O $ : : I ] ] ] ] ( p.C.V.6.U ",
"b v v v v m v m m m v v v v v v v v v z k k k k k k k k k k k k k j k k k k k k k k k k k i O O O O $ : : I ] ] ] ] ] p.C.B.6.U ",
"b v v v v v v v v v v v v v v v v v v z k k k k k k k k k k k j k k k k k k k k k k k k k a O + + + ; : : I ] ] ] ] ] p.C.m.6.=.",
"x l l l l l l l l l l l l l l l l l l k k k k k k k k k k k k j k k k k k k d k k k k k d i o + + @ ; : : I ] ] ] ] ] p.D.C.6.=.",
"f k k k k k k k k k k k k k k k k k k k k k k k k k k k k k k k k k k k k k k k k k k d d p o O @ @ ; : : I ] ] ] ] X.i.D.C.6.=.",
"h k k k k k k k k k k k k k k k k k k k k k k k k k k k k k k k k k k k k k k k k k k k k s O O O @ ; : : I ] ] ] ] ] i.G.V.6.=.",
"f k k d d k k d 2 3 3 4 k k k k k k k k k k s 2 2 2 2 2 2 2 4 d d k k k k k k k d k 2 3 3 e $ $ $ $ G R R ^ ] ( #.h.h.t.<.,.:.=.",
"f k k k k d d d + @ @ 2 k k d k k k k k k k s + + + @ @ @ + 2 d d d k k k k d d k d + @ @ = - : : : P ] ] ] ] ] a.m.m.0.*.*.*.*.",
"f d d k k k d s + @ + 2 d d d d d k k k k k s + + + @ @ @ + 2 d d d k k k k d d d s o + 1 = : : : : P ] } } ] ] a.m.C.0.*.*.*.*.",
"d d k k k k d s + 1 + 2 d d k d d d d d d d s 1 + + @ @ @ @ 2 k d d d d d d d d d s o O 1 8 : : : : P ] ] } } ] a.m.C.0.*.*.*.*.",
"i i p s s s p i % * % 7 i p p p i i i i i i u = * * * * * 8 r s i i i i i i i i p i % * * * B V V V L E E ^ ] } a.m.C.0.*.=.=.*.",
"O O O + + + + & - - - $ O O O O + O O O + + & ; : - : - - : * 1 + O O O O O + + + & ; - - > D K K K D S S W } ] a.m.C.9.*.*.=.*.",
"8 O O O O @ @ 8 - - : $ O O O O O O O O O + = - : : : : : : $ @ @ @ O O O O O O @ & - : X > S D D D D D D W } ] a.m.C.0.*.=.=.=.",
"8 O O O O O @ e Z Z Z q O O O O + @ O O O + & 0 9 B B B 9 9 * @ @ @ O O O O O O + 7 0 B B B S D D D D D S I Q Q p.m.C.9.*.*.*.*.",
"8 1 O O O O O y o.} } H & O O O O O @ O O O 8 S D D D D D D w O @ @ @ @ O O O O O 8 G D D D S D D D D D D D D D @.D.C.9.*.=.=.=.",
"; ; $ ; ; $ $ ; ] } ] K $ $ $ $ $ $ $ $ $ $ ; S S D D D D S C # $ $ ; $ $ $ $ $ $ ; S D D D D D D D D D D D D D @.m.m.9.*.=.=.=.",
"X : : : : X . : ] ] ] L . : : : X X : : : X : S S D D D D D C   X : : : : : -     : D D D D D D D D D D D K F K #.D.m.9.*.=.=.=.",
"9 B V V V V B V ] ( ] I B B B B B B B B 9 > 9 S S D D D D D Z : : > > 9 9 > B 9 > 9 K K L L L L K D D D K @.E E q.k.k.8.$.=.=.=.",
"^ ] ] X.X.] ] ] ] ( ( ] ] ] ] ] ] ] ] P D D D D D D D D D D D D D D D D D J ( ] ( ( ] ] X.X.X.X.^ D D D ! n.J.D.6.U U *.=.=.=.=.",
"( ] ] ] ] ] ] ] ] ] ( ( ] ] ] ] ] ] ] L S D D D D D D D D D D D D D S D D J ] } ] ( ] ] ] ] } } ~ D D R q.n.J.D.9.*.U =.=.=.=.*.",
"] ( ] ] ] ] ] ] ] ] ] ] ] ] ] ] ] ] ] L S D D D D D D D D D D D S S S S D J ] X.X.] ] ] ] ] ] ] ! K ! q.w.n.K.J.f.*.=.=.=.=.=.=.",
"] ( ] ] ] ] ] ] ] ] ] ] ] ] ] W I I P F D D D D D D D D D D L W R R R E E W ] X.X.X.] ] ] } ] } O.l.n.n.n.b.v.v.c.7.=.=.=.=.=.=.",
"] ] ] ] ] ] ] ] ] ] ] ] ] ] ] I D D D D D D D D D D D D D D I ] ] ] ] ] ] ] X.X.X.X.] ] } } } } @.D.D.J.K.v.g.8.;.U =.=.=.=.=.=.",
"X.] ] ] ] ] ] ] ] ] ] ] ] ] ] I D D D D D D D D D D D D D D I ] ] ] ] ] ] ] ] | X.X.] } } } } } @.C.m.V.J.v.8.*.=.=.=.=.=.=.=.=.",
"E I I I I I I I I I I I I I I L D D D D D D D D D D K R E E ! ] ] ] ] ] ] ] e.a.a.a.a.a.a.a.a.p.r.9.9.9.f.c.;.=.=.=.=.=.=.=.=.=.",
"F D D D D D D D D D D D D D D D D D D D D D D D D D L X.X.X.] ] ] ] ] X.] ] l.m.m.m.m.m.m.m.m.x.j.T *.*.*.7.*.=.=.*.=.=.=.=.=.=.",
"D D D D D D D D D D D D D D D D S S S S S S D D D D L ] ] ] ] ] ] X.X.X.X.] l.n.m.m.m.C.C.C.B.z.j.U =.=.=.=.=.*.*.*.=.=.=.=.=.=.",
"+.O.O.O.O.O.O.O.O.O.O.O.O.O.O.O.O.O.O.O.O.O.O.O.O.O.@.p.p.p.p.i.p.i.a.a.a.s.d.9.9.9.9.9.9.9.8.9.>.U =.=.=.=.=.*.*.*.=.=.=.=.=.=.",
"m.m.C.C.C.m.C.m.C.m.m.m.m.m.m.m.m.m.m.C.C.C.C.C.C.m.m.C.C.m.C.C.m.m.m.m.C.V.:.=.=.=.*.*.*.*.=.=.U =.=.=.=.=.=.*.*.*.=.=.=.=.=.=.",
"D.C.m.n.n.n.m.m.m.m.m.m.C.C.C.C.C.C.C.n.m.m.C.C.C.m.C.C.C.C.C.m.m.m.m.m.B.V.:.*.*.=.=.=.=.=.*.=.=.=.=.=.=.=.=.=.=.=.=.=.=.=.=.=.",
"6.1.1.6.6.6.6.6.6.6.6.6.6.1.6.6.6.6.6.6.6.6.6.6.6.6.6.6.6.6.6.6.6.6.6.6.6.8.;.*.*.=.=.=.=.=.*.=.=.=.=.=.=.=.=.=.=.=.=.=.=.=.=.=.",
"U =.=.=.=.=.=.=.=.=.=.=.-.-.-.=.=.=.=.=.=.=.=.=.=.=.=.=.=.=.=.=.=.=.=.=.=.=.*.*.*.=.=.=.=.*.*.*.=.=.=.=.=.=.=.=.=.=.=.=.=.=.=.=."
};
