/* XPM */
static char *left_background[] = {
/* columns rows colors chars-per-pixel */
"64 64 139 2 ",
"   c #777D75",
".  c #787F77",
"X  c #7A7F79",
"o  c #7A9F57",
"O  c #7B9E5A",
"+  c #7CA056",
"@  c #7CA15A",
"#  c #77876A",
"$  c #7A8C6D",
"%  c #7E9666",
"&  c #7D9B63",
"*  c #778473",
"=  c #798375",
"-  c #7C8C71",
";  c #7B827A",
":  c #80A459",
">  c #87A95A",
",  c #89AB5C",
"<  c #93B35E",
"1  c #9CBA5F",
"2  c #A2BF5F",
"3  c #819B64",
"4  c #819869",
"5  c #818F76",
"6  c #85A364",
"7  c #8BAB60",
"8  c #99B762",
"9  c #9AB962",
"0  c #A4BF62",
"q  c #A4BC6B",
"w  c #A2B972",
"e  c #A8BF70",
"r  c #A2C15F",
"t  c #A9C15F",
"y  c #A4C062",
"u  c #A9C262",
"i  c #B4CC67",
"p  c #B6CD69",
"a  c #BBCF6C",
"s  c #BFD26A",
"d  c #BFCF73",
"f  c #BFD074",
"g  c #C0D36B",
"h  c #C0CF75",
"j  c #C0D075",
"k  c #C0D078",
"l  c #848A82",
"z  c #8B9387",
"x  c #8D948A",
"c  c #92978C",
"v  c #939D8C",
"b  c #979E91",
"n  c #999E92",
"m  c #97A092",
"M  c #9AA094",
"N  c #9EA49A",
"B  c #A1A69B",
"V  c #A2A99D",
"C  c #A7AC9F",
"Z  c #A3A99D",
"A  c #8CB8BB",
"S  c #8BBCBF",
"D  c #8FBCBE",
"F  c #A5AAA1",
"G  c #A9AFA3",
"H  c #ABAEA3",
"J  c #ACAFA4",
"K  c #A9ADA1",
"L  c #A8B0A3",
"P  c #ACB0A5",
"I  c #AFB4A7",
"U  c #ABB1A3",
"Y  c #B3B9AB",
"T  c #B3BBAE",
"R  c #B4BAAC",
"E  c #B5BAAC",
"W  c #B5BBAD",
"Q  c #B4BAAD",
"!  c #B6BBAD",
"~  c #B5BBAE",
"^  c #B6BBAE",
"/  c #B6BAAE",
"(  c #B7BCAE",
")  c #B6BBAD",
"_  c #B8BCAE",
"`  c #B8BCAF",
"'  c #B8BDAF",
"]  c #B8BCAE",
"[  c #B7BBB0",
"{  c #B6BDB1",
"}  c #B8BDB0",
"|  c #B9BCB1",
" . c #B9BDB1",
".. c #B9BCB1",
"X. c #BDC0B3",
"o. c #BEC0B3",
"O. c #BEC1B3",
"+. c #BEC1B3",
"@. c #C0C3B6",
"#. c #C7C9BC",
"$. c #C8CABD",
"%. c #8CBDC1",
"&. c #8DBDC1",
"*. c #8DBEC1",
"=. c #8CBEC1",
"-. c #8DBDC2",
";. c #8DBEC2",
":. c #8CBEC1",
">. c #B9D1CC",
",. c #BAD3CF",
"<. c #BAD4CF",
"1. c #BAD4CF",
"2. c #B9D3D0",
"3. c #BAD4D0",
"4. c #BAD4D1",
"5. c #BAD4D1",
"6. c #CECFC1",
"7. c #CFD1C4",
"8. c #D0D1C4",
"9. c #D0D2C4",
"0. c #D1D2C5",
"q. c #D2D3C7",
"w. c #D1D2C5",
"e. c #D2D4C8",
"r. c #ECEFE0",
"t. c #F0EFE1",
"y. c #F0EFE2",
"u. c #F1EFE2",
"i. c #F0EFE3",
"p. c #F0EFE4",
"a. c #F1EFE3",
"s. c #EEF1E4",
"d. c #F1F0E2",
"f. c #F0F0E3",
"g. c #F1F0E3",
"h. c #F2F0E3",
"j. c #F1F0E4",
"k. c #F2F1E5",
"l. c #F0F0E3",
/* pixels */
"A >.s.k.e.[ | | ^ T Z X   # O O 3 6 w e q q q 0 q u f j j f f f j j j j j j j j j j j j j j j j j j j j j j j j j j j j j h d d ",
"S >.p.h.q.( ^ ^ ^ ^ Z X . $ O O O @ 9 y y y y y y u s g g s s g g g g g g g g g g g g g g g g g g g g g g g g g g g g g s s s d ",
"%.2.i.h.q.^ ^ ^ ^ ^ Z ; ; $ O O O @ 9 y y y y y y u s s s g g g g g g g g g g g g g g g g g g g g g g g g g g g g g s s s s s d ",
"%.3.i.h.q.^ ^ ^ ^ ^ Z ; ; $ O O O O 9 0 0 0 y y y u s g s g g g g g g g g g g g g g g g g g g g g g g g g g g g g g g s s s s j ",
"%.3.i.i.q.^ ^ ^ ^ ^ Z ; ; $ O O O O 9 0 0 0 y y y u s s s g g g g g g g g g g g g g g g g g s g g g g g g g g g g g s s s s g j ",
"%.3.i.i.q.^ ^ ^ ^ ^ Z ; ; - O O O @ 9 0 0 0 0 y y u s s s s g s g g g g g g g g g g g g g s s g g g g g g g g g g s s s g s g j ",
"%.3.i.h.7.^ ^ ^ ^ ^ Z ; ; $ O O O O 9 0 0 0 0 y y u s s s s s s g g g g s s s s g g g g g s s s g g g s s s s g g s s g g s s d ",
"%.3.i.h.7.E ^ ^ ^ ^ Z ; ; - O O O O 8 0 0 0 0 y y u s s s s s s g g g g g g g g g g g g g s s g g g g s s s g g g g g g g s s f ",
"%.3.i.h.q.^ ^ ^ ^ ^ B ; ; - O O O O 8 0 0 0 y y y u s s s s s g g g g g g g g g g g g g g g g g g g g g g g g g g g s g g s s d ",
"%.3.i.h.q.^ ^ ^ ^ Y B ; ; - O O O O 8 0 0 y y y y u s s s s g g g g g g g g g g g g g g g g g g g g g g g s g g g s s s s s s d ",
"%.3.i.h.q.^ ^ I C C n ; ; - O O O O 8 0 0 y y y y u s s s s g g g g g g g g g g g g g g g g g g g g g g g g g g g s s g s s s d ",
"%.3.i.h.q.( ' G b b x ; ; $ O O O O 9 0 0 y y 0 0 u s s s s g g g g g g g g g g g g g g g g g g g g g g g g g g g g s s s s s d ",
"%.3.k.h.q.' ' J n b x ; ; $ O O O O 9 0 0 y 0 y 0 u s s s s g g g g g g g s s g g g g g g g g g g g g g g g g g g g s s g s s d ",
"%.3.h.h.q.| ' P M M x ; ; $ O O O @ 9 0 0 0 0 y y u s s s s g g g g g g g s s s s g g g g g g g g g g g g g g g g g g s g s s d ",
"%.3.i.i.#.L G Z M M x X ; $ O O O @ 9 0 0 0 0 y y u s s s s g g g g g g g g g g s g g g g g g g g g g g g g g g g g g g g s s d ",
"%.3.i.i.o.M M M M M x X ; $ O O O + 9 0 0 0 0 y 0 u s s s s g g g g g g g g g g g s g g g g g g g g g g g g g g g g g g g s s d ",
"%.3.i.i.o.m M M M M x ; ; $ O O @ + 9 0 y 0 0 0 y u s s s s g g g g g g g g g g g s g g g g g g g g g g g s g g g g g g g g s d ",
"%.<.i.i.o.M M M m b x ; = $ O o o + 9 0 0 0 y 0 y u s s s g g g g g g g g g g g g g g g g g g g g g g g g g g g g g g g g g s d ",
"%.<.i.i.+.M m c l l 5 % % 6 < < < < 9 0 0 0 i i i i s g g g g g g g g g g g g g g g g g g g g g g g g g g g g g g g g g s g s d ",
"%.<.k.i.o.m m x ; ; $ @ @ , 0 0 0 0 0 r 0 2 s s g g g g g g g g g g g g s s s g g g g g g g g g g g g g g g g g g g g g s g s d ",
"%.<.p.i.o.b b z ; ; $ @ @ , y y y 0 0 0 2 0 s s g g g g g g g g g g g g g g g g s g g g g g g g g g g g g g g g g g g g g g s d ",
"%.3.p.i.o.b b z ; ; $ @ @ , y y 0 y 0 0 0 0 s g g g g g g g g s g g g g g g g g g g g g g g g g g g g g g s g g g g g g g g s d ",
"%.3.p.i.o.b b z ; ; $ @ @ , y y y y 0 0 0 0 s s s g g g g g g s s s s g g g g g g g g g g g g g g g g g g s g g g g g g g g s d ",
"%.<.i.i.o.n n z ; ; $ O @ , 0 0 0 0 0 0 y 0 s s s s s s g g g g s s s g g g g g g g g g g g g g g g g g g s g g g g g g g s s d ",
"%.<.i.i.o.n b z ; ; $ O @ , 0 0 0 0 0 0 y 0 a s s s s g g g g s g s s g g g g g g g g g g g g g g g g g g g g g g g g g g g s d ",
"%.<.i.i.+.b b z ; ; $ O O , 0 y 0 0 0 0 0 0 s s s s s s g g g s g g g g g g g g g g g g g g g g g g g g g g g g g g g g s g s d ",
"%.3.i.i.o.m n x ; ; $ O @ , 0 0 0 0 0 y 0 0 s g s s s s s g g g g g g g g g g g g g g g g g g g g g g g g g g g g g g g g s s d ",
"%.3.i.i.o.b n x ; ; $ O @ , 0 0 0 0 0 0 0 0 s g s s s s s g g g g g g g g g g g g g g g g g g g g g g g g g g g g g g g s s s d ",
"%.3.i.i.o.m n x ; ; $ O @ , 2 0 0 0 0 y y y s g s s s s s g g s s g g g g g g g g g g g g g g g g g g g g g g g s s g g s s s d ",
"=.3.i.i.+.n n z ; ; $ O @ , 0 0 0 0 y y 0 y a g s s s s s g s s s s s s s s s g g g g g g g g g g g g g g g g g g s s s s s s d ",
"=.3.h.i.o.m n z ; ; $ O @ , 0 0 0 y y y y y a g s s s s s g g s g g s s s s s s g g g g g g g g g g g g g g g g g g g g g g s d ",
"=.3.h.i.o.m n x ; ; $ O @ , 0 2 2 y y y 0 0 a g s s s s s g g s s g g s s s s s g g g g g g g g g g g g g g g g g g g g g g g d ",
"%.<.h.h.o.m b z ; X $ O @ , 0 r r r y r 0 0 a g g s s s s g g g s s s s s s s s s s g g g g g g g g g g g g g g g g g g g g s d ",
"%.<.h.h.o.b b c l l - % & 6 9 9 9 9 0 0 0 0 i s s a s s s s g g s s s s s s s g g g g g g g g g g g g g g g g g g g g g g s s d ",
"%.<.h.h.+.b b K [ ^ B = * $ + + + + 8 0 0 0 y 0 0 t s s s s g s s s s s s s s g g g g s g g g g g g g g g g g g g g g g s s s d ",
"%.3.i.i.+.m n Z | ' V ; ; $ @ @ O o 9 0 0 0 y y y u s s s s s s s s s s g g s s s s s s g g g g g g g g g g g g g g g g g s s d ",
"%.3.k.i.@.M m Z ( ' Z ; ; $ O O O o 9 0 0 0 y y y u s s s s s s s s s s g g g g g s s s g g g g g g g g g g g g g g g g s s s d ",
"%.3.i.i.q.{ ( ' ^ ] Z ; ; $ O O O O 9 0 0 0 y y y u s s s s s s s s s s g g g g g g s s s g g g g g g g s g g g g s s g s s s d ",
"%.3.h.i.q.^ [ ] ] ^ Z ; ; - O O O O 9 0 0 y y y y u s s s s s s s s s s s s s g s s s s s g g g g g g g g g g g s s s g s s s d ",
"%.3.h.i.q.^ ^ ^ ^ ^ Z ; ; - O O O O 9 0 0 y y y y u s s s s s s s s s s s s s g s s s s s g g g g g g g g g g s s s s s s s s d ",
"%.3.h.h.q.^ ^ ^ ^ ^ Z ; ; - O O O O 9 0 0 0 y y y u s s s s s s s s s s s s s s s g g g g g g g g g g g g g g g s s s s s s s f ",
"=.3.k.h.q.( ^ ^ ^ ^ Z ; ; $ O O @ @ 9 y 0 0 0 y y u s s s s s g g s s g s s s g g g g g g g g g g g g g g g g s g g g g g s s d ",
"=.3.k.h.q.( ^ ^ ^ ^ Z ; ; - O @ @ + 9 y 0 0 y y y u s s s s s g g s s g s s s s g g g g g g g g g g g g g g g g g g g g g s s d ",
"%.3.k.h.q.( ^ ^ ^ ^ V ; ; - O @ @ + 9 y 0 0 y y y u s s s s g g g s s s s s s s s s g g g g g g g g g g g g g g g g g g g s s d ",
"%.3.i.h.@.M N C ^ ^ V ; ; - @ @ @ @ 9 0 0 0 a a a a s s s s s g g s s s s s s s s s s s s g g g g g g g g g g g g g g s s g s d ",
"=.3.h.i.o.b n Z ^ ^ Z ; ; $ @ @ @ @ 9 0 0 y a s s s s s s s s g s s s s s s s s s s s s s g g g g g g g g g g g g g s s g g s d ",
"=.3.h.i.o.n n Z ^ ' Z ; ; $ @ @ @ @ 9 0 0 0 a s s s s s s s g g g s s s s s s s s s s s s g g g g g g g g g g g g g s g g s s d ",
"%.3.k.i.o.n n B ' ( Z ; ; $ @ @ @ + 9 y y 0 a s s s s s s g g g g s s g g g s g g g g g g g g g g g g g g g g g g s s g s s s d ",
"%.3.k.h.+.b b M B N v - $ 4 , , , , 9 y 0 0 a s s s g g g g g g g s s g s s g g g g g g g g g g g g g g g g g g g s s g s s s d ",
"%.3.k.i.+.m m x ; ; $ O O , 0 0 0 0 0 0 0 y s s s s s g g g g g g s s s g g g g g g g g g g g g g g g g g g g g g g s s s s s d ",
"%.<.k.i.+.m m x ; ; $ O O , 0 0 0 0 y y y y s s s s s s g g g g g s g g g s s g s s s g g g g g g g g s s g g s g s s s s s s f ",
"%.<.k.i.+.m m x ; ; $ O O , 0 0 y 0 y y y y s s s s s g g g g g g g g g g s g s s s s g g g g g g g g s s g g g g s s s s s s f ",
"%.<.p.i.+.m m x ; ; $ O O , 0 0 0 0 y y y y s s s s s g g g g g g g g g g g g g g s s s g g g g g g g s s g g g s s s s s s s d ",
"%.3.p.i.@.b b x ; ; $ O O , 0 0 0 0 y y 0 y a s s s s s s g g g g g g g g g g g g g s s g g g g g g g g s s g g s g g s s s s d ",
"%.3.p.i.@.b b x ; ; $ O O , 0 0 y 0 y y 0 y s s s s s s s s g g g g g g g g g g g g s s g g g g g g g g s s g g s g g s s s s d ",
"%.3.k.i.$.G L n ; ; $ O O , 0 0 0 0 0 0 0 y a s s s s s s s g g g g g g g g g g g s s g s g g g g g g g g g g g g s s g s s s d ",
"=.3.p.i.q.^ ^ N ; X $ O O , 0 0 0 0 y y 0 0 s s s s s s s s s s g g g g g g g g s g g g g g g g g g g g g g g g g s s s s s g f ",
"=.3.p.h.7.^ ^ M ; ; $ O @ , q 0 0 0 y y 0 0 s s s s s g s s s s s s g g g g g g g g g g g g g g g g g g g g g s s s s s s s s f ",
"=.3.k.h.7.E ^ M X ; $ & @ 7 0 0 0 0 y y y 0 s s s s s g s s s s g g g s s s s g g g g g g g g g g g g g g s s s s s s s s s s d ",
"%.3.k.h.7.^ ^ U B B v $ $ 4 > > > , 1 y y 0 s s s s s s s s s g g g g s s s s g g g g g g g g g g g g g g s s s g g s g g g s d ",
"%.3.k.i.q.T ^ ^ ^ ^ Z ; ; $ @ @ O o 9 y y 0 a s s s s s s s s g g s g g g g g g g g g g g g s s s s s g g s s s g g s s s s s f ",
"%.3.k.i.7.T ^ ^ ' ( F ; ; $ O @ @ @ 9 0 0 0 s s s s s s s s g g g g g g g g g g g g g g g g g s s s s s s s s s g g s s s s s j ",
"%.3.p.i.6.^ ^ ' ' | F ; X $ O @ @ : 9 0 0 0 a g g s s s s s g s s s s s s s s s s s s g g g g s s s s s s s s s s s s s s s g f ",
"D >.r.i.6.( | | | | F ; X $ & 3 6 6 q q q q d d f f f f f j j j f f f f f j j j j j j j j j j j j f j j j j j j j f d j k d h d "
};
