/* XPM */
static char *top_left_background[] = {
/* columns rows colors chars-per-pixel */
"64 64 158 2 ",
"   c #797E77",
".  c #7A7F78",
"X  c #7B9E56",
"o  c #7B9E5A",
"O  c #7BA156",
"+  c #7CA15A",
"@  c #77896D",
"#  c #7A8C6D",
"$  c #7B9466",
"%  c #799E65",
"&  c #7B916A",
"*  c #769E69",
"=  c #7B9E69",
"-  c #778670",
";  c #7A8276",
":  c #7B8C70",
">  c #7B817A",
",  c #7BA164",
"<  c #77A06C",
"1  c #7DA36D",
"2  c #7EA776",
"3  c #81A556",
"4  c #87A857",
"5  c #82A459",
"6  c #87AA5C",
"7  c #89AA5C",
"8  c #95B55F",
"9  c #99B75E",
"0  c #A1BF5F",
"q  c #849E68",
"w  c #818F77",
"e  c #808D7A",
"r  c #879978",
"t  c #8E9F7D",
"y  c #84A365",
"u  c #8BAA62",
"i  c #96B662",
"p  c #98B761",
"a  c #97B862",
"s  c #9CBB62",
"d  c #80A775",
"f  c #83A970",
"g  c #88AA71",
"h  c #80A778",
"j  c #98AF7B",
"k  c #96B173",
"l  c #98B17C",
"z  c #A2BF62",
"x  c #A3BD68",
"c  c #A4C05F",
"v  c #A3C062",
"b  c #ABC464",
"n  c #AEC865",
"m  c #ADC569",
"M  c #B2CA67",
"N  c #B4CB69",
"B  c #BACF6C",
"V  c #BFD26B",
"C  c #BFCF73",
"Z  c #BFD074",
"A  c #C0D26B",
"S  c #C0CF73",
"D  c #C0D074",
"F  c #868D84",
"G  c #8A8F87",
"H  c #879383",
"J  c #8A9286",
"K  c #8D948A",
"L  c #90978C",
"P  c #91988E",
"I  c #969E91",
"U  c #989F93",
"Y  c #80A884",
"T  c #96B280",
"R  c #97A190",
"E  c #99A094",
"W  c #9FA59A",
"Q  c #89B69E",
"!  c #8CB89D",
"~  c #A1A79E",
"^  c #A3A99E",
"/  c #87B4A2",
"(  c #8CB8A5",
")  c #8EB7AC",
"_  c #8AB9AC",
"`  c #92BBAE",
"'  c #8FBDB5",
"]  c #8CBDBE",
"[  c #91BFB3",
"{  c #91BDBD",
"}  c #ABB1A5",
"|  c #AFB5A8",
" . c #B5BAAC",
".. c #BABDAF",
"X. c #B9BDB1",
"o. c #8EC0BA",
"O. c #BFC2B4",
"+. c #C5D3AE",
"@. c #C1C4B6",
"#. c #C3C5BA",
"$. c #C8D5B3",
"%. c #C9D5B4",
"&. c #CED3BE",
"*. c #8BBCC0",
"=. c #8BBDC1",
"-. c #8BBEC0",
";. c #8BBEC1",
":. c #8ABEC2",
">. c #8CBDC1",
",. c #8CBCC0",
"<. c #8EBDC1",
"1. c #8CBEC0",
"2. c #8CBEC1",
"3. c #8DBFC0",
"4. c #8DBEC2",
"5. c #8CBFC2",
"6. c #8CBEC3",
"7. c #8DBEC2",
"8. c #8DBEC1",
"9. c #94BFC0",
"0. c #90BEC2",
"q. c #8BC0C2",
"w. c #8DC0C3",
"e. c #9BC6C9",
"r. c #A1C4C3",
"t. c #A2C4C3",
"y. c #A1C4C1",
"u. c #A1CAC9",
"i. c #AECEC9",
"p. c #A9CCC9",
"a. c #B0CECA",
"s. c #B5D2CD",
"d. c #BBD4CE",
"f. c #B2D2D0",
"g. c #B7D2D1",
"h. c #BBD5D0",
"j. c #C2CDC1",
"k. c #CED1C4",
"l. c #C0D2CC",
"z. c #D3D3C4",
"x. c #D0D2C5",
"c. c #D4D6C9",
"v. c #C5DED6",
"b. c #CADED6",
"n. c #C7DED8",
"m. c #CDDFD8",
"M. c #F1F1DF",
"N. c #F0F1DD",
"B. c #EEEFE3",
"V. c #F1EFE0",
"C. c #F1EFE1",
"Z. c #F1EFE2",
"A. c #F1EFE2",
"S. c #EDF1E2",
"D. c #EEF1E5",
"F. c #EFF0E3",
"G. c #F0F1E2",
"H. c #F1F0E4",
/* pixels */
"5.5.5.5.;.;.;.;.;.;.;.;.5.5.5.5.5.5.;.;.;.5.5.5.*.5.5.;.5.;.5.5.5.5.] 5.] ] ] ] ] 5.5.;.;.5.5.5.5.;.;.;.;.] ;.5.5.5.5.5.5.5.] ] ",
"5.5.5.5.;.;.;.5.;.;.;.5.5.5.5.5.5.5.;.;.;.;.*.*.;.;.*.*.5.] _ _ _ _ _ _ _ _ _ _ _ _ ( _ _ ] ;.5.5.5.5.5.] ( _ _ _ _ _ _ _ _ _ ) ",
"5.5.5.5.;.;.;.5.;.;.;.5.5.5.5.5.5.5.;.;.;.;.;.;.;.*.;.*.;._ * % % % % % % , % % % , , , < ' ;.;.;.;.5.] / % % % % % % % % % % = ",
"5.5.5.5.5.;.5.;.;.;.5.5.5.5.5.5.5.5.;.;.;.] ;.;.;.;.5.5.] ( o X X X X o X X X X X + + + , [ ] 5.;.] ] ] Q o X X X X X X X X X o ",
"5.5.w.5.5.5.5.;.;.5.5.5.5.5.5.5.5.5.5.5.*.5.] ] ] ] ] ] ] ( o X X X X X o o X o o o + + , [ ] ] ] ] ] o.Q o X X X X X X X X X o ",
"5.5.5.5.5.5.5.5.;.;.;.5.5.5.5.5.5.5.5.,.*.] Y 2 2 2 2 2 d f i i i i i i i i i i i i i i i d d d h 2 2 2 g i i i i i i i i p p i ",
"5.5.5.5.5.;.;.5.;.;.;.;.5.5.5.5.5.;.,.;.] ] 1 X X X X X X 5 z z z z z z z z z z z z z z s X X + + + X X 5 z z z z z z z z z z x ",
"5.5.5.5.5.5.5.5.;.;.5.5.5.5.5.5.5.5.,.*.] ] 1 X + X X X + 5 z z z z z z z z z z z z z z s X X + + + + X 5 z z z z z z z z z z x ",
"5.5.5.5.5.5.5.5.5.5.9.y.y.y.y.y.y.y.` ( ( ! y 5 5 3 3 3 3 4 z z z z z z z z z z z z z z s 3 3 3 5 3 3 3 7 z z z z z z z z z z x ",
"5.5.5.5.5.5.q.5.5.;.i.D.D.B.B.S.B.S.T , , + s z z z z z z z z z z z z z z z z z z z z z z z z z z z z z z z z z z z z z z z z x ",
"5.5.5.5.5.5.5.5.5.5.i.H.C.C.C.C.C.M.l + + + s z z z z z z z z z z z z z z z z z z z z z z z z z z z z z z z z z z z z z z z z x ",
";.5.;.5.5.5.5.5.5.5.a.H.C.C.M.H.C.M.j o + + s z z z z z z z z z z z z z z z z z z z z z z z z z z z z z z v z z z z z z z z z x ",
";.;.;.5.5.5.5.e.s.f.l.c.z.&.$.%.$.+.k 6 6 4 s z z z z z z z z z z z z z z z z z z z z z z z z z z z z z v v v v v z z z z z z x ",
";.;.;.5.5.5.] s.H.H.z.E R t o + + o i s z z z z z z z z z z z z z z z z z z z z z z z z z z z z z z z z v v v v v z z z z z z x ",
";.;.;.5.5.5.5.g.H.H.z.E E t o + + + i z z z z z z z z z z z z z z z z z z z z z z z z z z z z z z z z z z z v v v z z z z z z x ",
"5.5.5.;.;.;.5.s.H.H.c.E E t X X + + a z z z z z z z z z z z z z z z z z z z z v z z v z v v v v z z z z v z v v z v v z z v z x ",
"5.5.5.;.u.s.s.d.k.k.X.L L r X X X O i z z z z z z z z z z z z z z z z z z z z v z b n n n n m m m n n n n n n n n n n n n n n m ",
"5.5.5.] v.H.H.k.E E P > > : + X X X i z z z z z z v z z z z z z z z z z z v v v c N V V V V V V V V V V V A V V V V V V V V V Z ",
"5.5.5.5.v.H.C.k.E E K > > # + + + X i z z z z z v v z z z z z z z z z z z v v v c N V V A A A A A A A A A A A A A A A A A V V C ",
"5.5.5.5.v.H.C.k.E E K . ; # + + + O 9 z z z z v v v z z z z z z z z z z v v v v v N A V A A A A A A A A A A A A A A A A A V V C ",
"5.5.5.5.n.H.H.#.F F e # & q i i i 8 s z z z v v v v z v z v M M M M M M M M M M M B A A A A A A A A A A A A A A A A A A A V V C ",
"5.5.5.0.n.H.H.#.> > # X X 7 z v v z z z z z z z z z z z z v V A A V V V V A V A A A A A A A A A A A A A A A A A A A A A A A V C ",
"5.5.6.5.n.H.H.#.> > # X X 6 z z z z z z v z v z z z z z z v A A A A A A A A A A A A A A A A A A A A A A A A A A A A A A A A V C ",
"5.] ] { b.H.H.#.> > # X X 7 z z z z z v v z z z z z z v z v V A A A A A A A A A A A A A A A A A A A A A A A A A A A A A A A V C ",
",.p.b.m.j.....~ > > # X X 6 z z z z z z z z z z z z N N N B V V A A A A A A A A A A V A A A A A A A V A A A A V A A A A A A V C ",
",.h.Z.C.O.E I K > > # X X 4 z z z z z z v z z z z v V A A A V A V A A A A A A A A A A A A A A A A V A A A A A A A A A A A V V C ",
"5.d.Z.C.O.E E J > > # + X 7 z z z z z z z v v v z v V V V V A A A A A A A A A A A A A A A A A A A V V A A A A A A A A A A V V S ",
"5.d.H.C.O.E I J   > # + + 7 z z z z z v v v v v v v V A V V V A A A A A A A A A A A A V V A A V V V A A A A A A A A A A A A V C ",
"5.h.H.H.O.E U G   . # + + 7 z z z z z v v v v v v v V V V V V V A A A A A A A A A A V V V V V V V V A A A A A A A A A A V A V C ",
"5.h.H.H.@.E U G   . # + + 7 z z z z z z v v v v v v V V V V V V A A A A A A A V V V V V V V V V V V A A A A A A A A A V V V V C ",
"5.h.H.H.O.E U J   . # o o u v z z z z z z v v v v v V V V V V V A A A A A A V V V V V V V V V V V V V V V A A A A A A A A V V C ",
"5.h.H.H.O.E U I P P H - @ $ 5 5 5 3 9 z z z z z v v V V V V V V A A A A A A V V V V V V V V V V V V V V V A A A A A A A A V V C ",
"5.h.H.H.O.E E E E E K ; ; # + + + O i v v z z z v v V V V V V A A A A A A A V V A A A V V A A A A A A V V A A A A A A A A V V C ",
"5.h.H.H.O.E E E E E K >   # X X + + a z z z z z v v V V V V V A A A A A A A V V A A A A A A A A A A A A V A A A A A A A A V V C ",
"5.h.H.C.O.E E E E E K >   # X X + + p z z z z z v v V V V V V A A A A A A A V V A A A A A A A A A A A A A A A A A A A A A V V C ",
"5.h.H.H.O.E E E E E K > . # X X o + p z z z z z v b V V V A A V A A A A A A V V A A A A A A A A A A A A A A A A V A A A A V V Z ",
"5.h.H.H.O.E E E E E K . . # X X X O p z z z z z z v V A V A A A A A A A A A V A A A A A A A A A A A A A A A A A V A A A A A V C ",
"5.h.H.H.O.E U E E E K . . # o X + O p z z z z v v v V A V A A A A A A A A A A A A A A A A A A A A A A A A A A V A V A A A A V C ",
"5.h.H.H.O.E U I I I J ; - & 5 5 5 3 p z z z v v v b V V V A A A A A A A A A A A A A V V V V A A A V V A A A A A V A A A A A A C ",
"5.h.H.H.O.E E K > > # % % u s s s s z z z z B V V V V V V A A A A A A A A A A A A A V V V V V V V V V V A A A V V V V V A A A C ",
"5.h.H.H.O.E E K . . # X + 7 z z z z z z 0 z B V V V V V A A A A A A A A A A A A A A V V V V V V V V V V A A V V V V V V A V V C ",
"5.h.H.H.O.E E K > > # X X 7 z z z z z v c z B V V V V V A A A A A A A A A A A A V A V V V V V V V V V V V V V V V V V V A V V C ",
"5.h.H.H.O.E E K > > # X X 7 z z z z z v z 0 B V V V V A A A A A A A A A A A A A A A V V V V V V V V V V V V V V V V V A A V V C ",
"5.h.H.H.O.E I K > > # X X 7 z z z 0 v z z z V V V V A A A A A A A A A A A A A A A A V V V V V A A A V V V V V V V V A A V V V C ",
"5.h.H.H.O.E I K > > # X X 4 z z z v 0 v z z V V V A A A A A A A A A A A A A A A A A V V V V V A A A V V V V V A A A A A V V A C ",
"5.h.H.H.O.U I K > > # + + 6 z z z 0 0 z z z V A V A A A A A A A A A A A A A A A A A V V V V V A A V V V V V V A A A A A A V V C ",
"5.h.H.C.O.U U K . > # + + 7 z z 0 0 0 z 0 z B A V V A A A A A A A A A A V V V A A A A V V A A A V V V V V V V A A A A A V A V C ",
"5.h.H.C.O.U U K . > # + + 4 z z 0 0 0 z z z B V V V A A A A A A A A A A V A A A A A V V A A A A A A A A A A A A A A A V V A V C ",
"5.h.H.C.O.E U K > > # + + 4 z z z 0 0 0 z z B V V V A A A A A A A A A A V V V V V V V A A A A A A A A A A A A A A A A A A A V C ",
"5.d.H.H.O.I I K > > # X o 7 z z z z 0 0 z z B A A V A A A A A A A A A V A A A A A V V V V V V A A A A A A A A A A A A A A A V C ",
"5.d.H.C.@.W W I F F e $ $ y i i i 9 s z z z B V V V V A A A A A A V V V A A A V V V V V V A A A A A A A A A A A A A A A A A A C ",
"5.d.H.H.k. . .} E E K > ; # + + X X p v z z B V V V V A A A A A A V V V A A A V V V V V V A A A A A A A A A A A A A A A A A A C ",
"5.h.H.H.k. ...} E U K . > : X X X X p v z z B A V V V V A A A A A A A A A A A V V A V A A A A A A A A A A A A A A V V A A A A Z ",
"5.h.H.H.z. ...} E E L > > # X X X X p v z z B A V V V V A A A A A A A A V V V A V A V A A A A A A A A A A A A A A V V A A A A D ",
"5.h.H.H.k. ...| ~ ^ U > > : X X X X p v z z B A V V V A A A A A A A A A V V V A V A V A A A A A A A A A A A A A A V A A A A A D ",
"5.h.H.H.k. . . . . .~ > > : o X X + p z v v B A V V V A A V V V V V A A A A A A A A A A A A A A A A V A A A A A V V A A A A A Z ",
"5.h.H.H.k. . . . . .~ > > : o X X + i v v v B V V A A A A V V V V V A A A A V V V A A A A A A A A A V A A A A A V V V V V A A C ",
"5.h.H.H.z. . . . . .~ > > : o X + + i z z z B V V A V A A V V V V A A A A V V V V A A A A A A A A A A A A A A A V V V V V A A C ",
"5.h.H.H.z. . . . . .~ > > : X X + X p z z z B A A A V A A A A A A A A A A A V V A A A A A A A A A A A A A A A A A V V V V A V C ",
"5.h.H.C.z. . . . . .~ > > : X X X X p z z z B A A A V A A A A A A A A A A V V A A A A A A A A A A A A A A A A A A A V V V V V C ",
"5.h.H.H.z. . . . . .~ > > : o + X X p z z z B A A V A A A A A A A A A V V V V V A A A A A A A A A A A A A A A A A A A A A V V C ",
"5.h.S.C.k. . . . . .~ > > : + + X X 9 z z z B A A A A A A A A A A A A A A V V A A V A A A A V V V A A A A A A A A A V V V V V D ",
"5.h.H.H.z. . . . . .~ > > : o + o X 9 z z z V A A A A A A A A A A A A A A A A A A A A A A A A V V V A A A A A A A V V V A A A D ",
"5.h.H.H.z. . . . . .W > > # X + + + p z z z C D A V V V V D V V V V V V A V V A A A A V V V V V V V V A A A A A A A V V A A V V "
};
