/* XPM */
static char *center_bottom_center[] = {
/* columns rows colors chars-per-pixel */
"64 64 165 2 ",
"   c #797F76",
".  c #777E79",
"X  c #7A7F78",
"o  c #7E9F57",
"O  c #7C9E5B",
"+  c #7FA357",
"@  c #7DA15B",
"#  c #7A8D6D",
"$  c #7B9466",
"%  c #7E9C63",
"&  c #7C9369",
"*  c #768173",
"=  c #7A8276",
"-  c #7C8E70",
";  c #7B8179",
":  c #7F9171",
">  c #829F5E",
",  c #81A25D",
"<  c #87AA59",
"1  c #8BAB5E",
"2  c #93B25F",
"3  c #99B65D",
"4  c #A6BF5E",
"5  c #819C64",
"6  c #809C69",
"7  c #80857D",
"8  c #828A7E",
"9  c #829275",
"0  c #83917A",
"q  c #80A060",
"w  c #8EAB65",
"e  c #86A169",
"r  c #8FA96A",
"t  c #94B361",
"y  c #99B662",
"u  c #9CBA63",
"i  c #96B168",
"p  c #A4BF62",
"a  c #A4BD6B",
"s  c #A5C15E",
"d  c #A4C162",
"f  c #ADC664",
"g  c #ABC463",
"h  c #ADC865",
"j  c #A8C268",
"k  c #AAC16E",
"l  c #B5CB66",
"z  c #B5CC67",
"x  c #B2C967",
"c  c #B5CC68",
"v  c #B6CE69",
"b  c #B2C968",
"n  c #BACE6A",
"m  c #BCCF6A",
"M  c #B9CF6C",
"N  c #BFD267",
"B  c #B9D06B",
"V  c #BAD06A",
"C  c #BFD168",
"Z  c #BFD268",
"A  c #BFD269",
"S  c #BCD16A",
"D  c #BED06A",
"F  c #BFD16A",
"G  c #BFD06B",
"H  c #BED16B",
"J  c #BFD16B",
"K  c #BED06B",
"L  c #BDD26B",
"P  c #BFD26A",
"I  c #BED36A",
"U  c #BFD36A",
"Y  c #BFD26B",
"T  c #BED26B",
"R  c #BBD16C",
"E  c #B8D06D",
"W  c #BCD16C",
"Q  c #BDD16C",
"!  c #BED16C",
"~  c #BFD16C",
"^  c #BFD16D",
"/  c #BFD06C",
"(  c #BDD26C",
")  c #BDD26D",
"_  c #BFD26C",
"`  c #BFD26D",
"'  c #BFD16E",
"]  c #BED26E",
"[  c #A9C272",
"{  c #BFCF73",
"}  c #BBCC75",
"|  c #BFCF75",
" . c #BFCF77",
".. c #BFD075",
"X. c #BFD076",
"o. c #BDD077",
"O. c #C0D167",
"+. c #C0D368",
"@. c #C0D369",
"#. c #C0D269",
"$. c #C0D16A",
"%. c #C0D16B",
"&. c #C1D16B",
"*. c #C0D26A",
"=. c #C0D36A",
"-. c #C0D26B",
";. c #C0D36B",
":. c #C1D36A",
">. c #C0D168",
",. c #C1D46B",
"<. c #C1D46A",
"1. c #C0D16C",
"2. c #C0D26C",
"3. c #C1D26C",
"4. c #C0D36C",
"5. c #C0D26D",
"6. c #C1D36D",
"7. c #C0D26E",
"8. c #C0D26F",
"9. c #C0CF75",
"0. c #C0CF74",
"q. c #C0CF76",
"w. c #C1CF78",
"e. c #C0D076",
"r. c #C1D077",
"t. c #C0D075",
"y. c #C1D179",
"u. c #848B82",
"i. c #8C8F87",
"p. c #8B9385",
"a. c #8D9489",
"s. c #91968D",
"d. c #949B8E",
"f. c #969D91",
"g. c #999F94",
"h. c #9CA297",
"j. c #9FA599",
"k. c #A1A79B",
"l. c #A3A89C",
"z. c #8CBDBF",
"x. c #94BDBF",
"c. c #A6ADA2",
"v. c #A9AEA1",
"b. c #ABB1A4",
"n. c #AFB5A8",
"m. c #B3B7AA",
"M. c #B5BBAD",
"N. c #B8BCAE",
"B. c #B7BDB1",
"V. c #B9BDB1",
"C. c #C2C5B7",
"Z. c #C3C5B8",
"A. c #C6C9BD",
"S. c #8ABFC1",
"D. c #89C0C1",
"F. c #B7D4CD",
"G. c #B9D4CF",
"H. c #B9D4D0",
"J. c #CCCFC1",
"K. c #D3D4C7",
"L. c #D4D5C8",
"P. c #EFEFE1",
"I. c #F1EFE2",
"U. c #EFF0E2",
"Y. c #F1F0E2",
/* pixels */
"| 8.~ 8.~ ~ J J J J J J J -.@.@.J J J J J J J ~ ~ ~ ~ ~ J 8.-.J J J J J J -.8.8.~ ~ J J -.-.-.J 8.8.8.8.8.-.-.-.J J J 8.J -.-.{ ",
"y.8.~ ~ J J J J J J J J J J -.-.J J J J J J J J J J J J J -.J J J J -.J J -.8.8.8.J J J J -.-.-.-.-.8.8.8.J J -.J J J J J O.J { ",
"y.~ J J J J J -.J J J J J J -.@.-.J J J J J J J J J J J J J J J J J J J J -.-.8.8.J J J J J -.-.-.J 8.8.-.-.-.-.J J J J N O.N 0.",
"r.~ J J J -.-.-.-.J J J J J -.-.J J J J J J J J J J J J J J J J J J J -.-.-.8.8.8.J J J J J -.-.-.J J -.-.-.-.J -.-.J J J J J | ",
"| J J J J -.-.-.8.-.-.-.-.-.-.-.J J J J J J J J @.J J J J -.J J J J J -.-.-.-.-.-.J J J J J -.-.@.I J -.-.-.-.-.-.-.J J J J J ..",
"..J J J -.-.-.-.8.-.-.8.-.-.J J J J J J -.J J J @.@.J -.J -.-.-.-.-.-.-.-.-.-.-.-.J J J J J -.-.J J J @.-.-.-.-.-.J J J J J J ..",
"0.J J J J -.-.-.-.-.-.-.-.-.J J J J J @.-.-.-.-.@.J -.-.-.-.-.-.@.@.-.-.-.-.@.-.J J J J -.-.-.-.@.I -.-.-.-.-.-.-.-.J J J 8.J ..",
"0.J J J J J -.-.J J -.-.-.-.J J J J J @.-.-.-.-.-.-.-.-.-.-.-.-.@.@.@.-.-.-.-.J J J J J -.-.-.-.@.@.J -.@.-.-.-.-.-.J J J 8.~ ..",
"0.8.J J J -.-.-.J J J J @.@.J J J J -.-.O.O.+.@.J J @.@.-.-.-.-.@.@.@.8.8.J -.J J J J -.-.@.-.-.J -.-.@.@.-.-.-.-.-.-.J J 8.J ..",
"r.~ J J J -.-.-.-.-.J J J J J J J @.@.-.-.@.-.@.-.J @.-.-.-.-.-.@.@.@.@.J J J J J J J J -.@.@.-.J -.-.@.@.@.-.-.-.-.-.J J J J ..",
"r.~ J J J J -.-.-.-.J J J J J J J -.-.-.-.-.-.-.-.-.-.-.-.-.-.-.@.@.@.-.J J J J J J J J J -.-.-.J -.-.-.-.-.-.-.8.-.-.-.-.J J ..",
"..~ J J 8.8.-.-.-.-.J J J J J J J -.-.-.-.J J J J -.-.-.-.-.-.-.-.-.-.J J J J J J J J -.-.-.-.-.J -.J -.-.-.-.-.8.-.-.-.J 8.8...",
"r.~ J J J J -.-.J J J J J @.J J J -.-.-.J J J J -.-.J -.@.8.8.8.-.-.-.J J J -.@.@.J J -.-.-.-.-.J J J J J @.-.-.-.-.-.-.J ~ ~ ..",
"r.~ J J J J J J J J J J J @.J J -.-.-.-.J J J J -.-.-.-.@.8.8.8.-.@.-.J J J -.@.@.J -.-.-.-.-.-.-.-.J J J J -.-.-.@.-.-.J J J ..",
"r.~ J J J J J J J J J J J J -.J @.@.-.@.J J J -.-.J -.-.8.-.8.8.@.@.-.J J -.@.@.-.-.-.-.@.-.@.@.-.-.-.-.@.@.-.-.-.-.-.J N J J | ",
"r.~ J J J -.J J J J J J -.-.J J J J J J J J J J -.-.-.-.-.-.J J -.J J J J J J J J J J J J J @.J -.J J J J @.-.-.-.-.-.J J J J 0.",
"r.~ J J J -.-.-.J J J J @.@.J J J J -.-.J J @.J -.-.J J J J J J -.-.-.J J J J J J J J J J J J J -.-.J J J -.-.@.-.8.8.J J J J 0.",
"0.J J J J -.-.J J J J J J J J J J J J J -.-.@.-.J J J J J J J J -.J J J J @.J J J J J J J J J J J J J J -.-.-.-.-.8.8.J J J J 0.",
"0.J J J J J J J J J J J J J J J J J J J -.-.-.-.J J J J J J J J J -.-.J J J J J J J J J J J J J J J J -.-.-.-.J -.-.8.J J J J ..",
"r.J J J J J J J J J J J J J J J J J -.-.-.-.-.-.-.J J J J J J J J J -.J J J J J J J J J J J J J J @.J -.J J J J -.-.8.J J J J ..",
"r.~ J J J J J J J J J J J -.-.-.J J -.-.-.-.-.-.J J J J J J J J J J J @.-.J J J J J J J J J J J @.-.-.-.J J J J J -.-.-.J J J ..",
"r.~ J J J J J J -.-.J -.-.-.-.-.@.@.-.-.J -.-.J J @.J J J @.J J N N J -.-.J J J @.@.-.-.-.J J J @.@.-.-.O.J J J J -.-.-.8.J J ..",
"r.~ J J J J J 8.-.-.J -.-.-.-.-.@.-.-.-.-.@.@.-.-.-.-.J J @.J J -.-.-.-.-.@.-.-.@.@.-.-.-.-.@.-.@.-.-.@.-.-.8.8.J 8.-.8.8.J J ..",
"r.~ J 8.-.J J J J J J -.-.-.-.-.-.-.-.-.J @.J -.@.-.J -.-.J J J -.-.-.J J @.J -.@.@.-.-.-.-.-.@.@.-.-.-.-.-.8.8.8.8.8.8.J J J ..",
"r.~ J J 8.-.J J J J J -.-.-.-.-.-.@.@.-.J J J -.@.J J -.J J J J -.-.-.J -.-.-.-.-.-.-.-.J -.-.-.-.-.8.8.8.-.-.-.8.-.-.-.-.J J ..",
"r.~ J J 8.J J J J J J 8.8.8.-.-.O.N @.-.J J J -.-.J J J J J -.@.J J J J J J J J -.-.-.-.J -.-.-.-.8.8.8.8.-.J -.8.8.-.-.-.J J ..",
"..~ J J 8.J J J -.-.8.8.-.-.-.-.N O.J J J J J J -.-.J J J -.-.@.J J J J J J J J -.J J -.-.-.-.-.-.8.8.8.-.-.J J -.8.8.8.J J J ..",
"..~ J J 8.-.J -.8.8.8.-.-.-.-.-.N N J J J J J J J J J J J -.J J J J J J J J J J J J J -.J J J -.-.-.J -.J J J -.8.8.8.8.J J J 0.",
"..~ J J J J J -.8.8.8.-.-.-.-.J J J J J J J J J J J J J J J J J J J J J J J J J J J J J J J J J J J J -.J J -.-.-.-.-.J J J -.0.",
"r.J J J J J J -.-.-.8.J N -.-.J J -.-.J J J J J J J J J J J J J -.-.-.J J J J J J J J J J J J J J J J J J J -.-.J J J J J J J 0.",
"r.J J J J -.8.8.-.-.-.-.-.-.-.-.J J -.-.-.-.J J J J J J J -.-.J J J -.J J J J J J J J J J J J J J J J J J J -.-.J J J J J J J 0.",
"r.8.J J -.-.-.-.J J J -.-.-.-.J J J -.8.-.-.-.J J J J J J -.-.J J J J J J J J J J J J J J J J J J J J J -.J J J J J J -.-.-.-.0.",
"w.~ J J J J J -.J J J J J -.8.J J J J J -.J -.J J J J J J J J J J J J J J J J J J J J J J J J J J J J J J J J ~ ~ J J J -.-.-.| ",
"| J J J J ~ ~ ~ J J J J J 8.8.J J J J J -.-.-.-.J J J J J J J J J J J J J J J J J ~ J J J J J J J J J J J J J ~ J J J J -.8.-.| ",
"} m J J J J J ~ ~ ~ J J J 8.J J J ~ ~ ~ ~ ~ ~ ~ J J J J J J J J J J J J J J J J J ~ J J ~ ~ ~ ~ ~ ~ ~ ~ J J J J J J J J J ~ ~ ..",
"p p p d j d d d s V -.8.-.8.J J l s s s s s s s l J J J J J J J J J J J J J J J J J -.n d d d s s s s g ~ J J J J J J g 4 s d k ",
"a p d j j d d d d V J -.J J J J l d d d d d d d v -.J -.-.J J J J J J J J J J J J J -.M d d d d d d s g ~ J J J ~ -.J g p d d [ ",
"a p j j j d p p d E ~ 8.~ ~ ~ ~ l d d d d d d d v ~ ~ ~ J J J J -.J J J J J J ~ ~ ~ J M d j j d d d d f ~ ~ ~ ~ ~ ~ ~ f p p d a ",
"r 1 1 1 < u p d d g g g g g g g g d d d d d d d d g g g n 8.8.8.-.J 8.J J J J E g g g g d d j d d d d d g g g g g g g d d p p a ",
"e , @ O o y p d j d j d p d d d d d d d d d d d p d p p v J J ~ 8.-.~ J J J J V p d d p d d d p p p p p d d d d d d d d d d p a ",
"e @ @ o o y p j j d d p p d d d j j d d d j p d p p p p v ~ J -.-.-.-.-.J -.J V d p d d d p p d d d d d d d d p d d d d j j p p ",
"5 O o o O u j j j d d p p p d d d d d d d d d d p p d d v ~ ~ ~ J J J ~ ~ ~ ~ V p d d d d d p p p p p p d d d d d p d d d d j a ",
"# & & & $ i y y 3 p p p p p d d d d d d y t t 2 u d d d h x x b b b b x x x x x p d d p 2 t 2 3 p p p d d d d d d p p y y y t i ",
"X = ; ; = 5 , @ o u p p p p p p p p p p 1 @ @ @ y p d d d d d d p p p p d d d d d d p u @ @ @ 1 p p p p p p p p p p p 1 @ , , e ",
"X ; ; 7 = 5 O O O u p p p d d d d p p p 1 @ O O y p d d d j d d p p p d d d j j d d d u O O O 1 p p p p p p p p p p p 1 O O > e ",
"f.g.g.g.d.: # # $ 1 2 2 t t t 2 2 2 2 t 5 & & & w y 2 3 p j j p p p p d d d d p 3 3 3 w & & & 5 t 2 2 2 2 2 t 2 2 2 t 5 & & & 9 ",
"V.V.V.N.M.;     * O @ @ @ @ @ @ O O O O # = = = $ @ @ @ y d d d p j d d d d j p + + + 5 = = = # @ O @ @ @ @ O @ @ @ O # ; = ; ; ",
"V.M.M.M.m.; X X = 5 @ @ @ O O O O O O O & ; ; ; & @ @ @ y p p d p d d d d d d u @ @ @ 5 = ; X # @ O O O o o o @ @ @ , # ; ; X ; ",
"V.M.M.M.m.7 ; ; = % @ @ @ o o o o o @ @ & ; ; ; & @ @ @ y p p p p j d d d d p u @ @ @ % ; ; ; # @ @ @ o o o o o O @ q # ; ; ; . ",
"V.M.M.M.M.f.d.s.p.& $ $ $ & & & $ $ & & 9 u.u.u.: $ $ $ w y y 3 y y y y y 3 y t $ $ $ & u.u.u.0 & $ $ $ $ $ $ $ & & & p.a.s.s.p.",
"V.M.M.M.M.M.V.V.n.; * * = = = = = = = = p.g.f.d.8 * = * $ @ @ @ @ @ @ @ @ @ @ % * =   = d.f.f.p.; = = = ; = =     = ; c.M.M.M.m.",
"V.M.M.M.M.M.B.M.m.7 ; X X X   X ; ; ; ; p.f.f.d.u.; ; = $ @ @ @ @ @ @ @ @ @ @ % * X X ; d.f.f.a.; ; ; ; ; ; X     X ; c.B.M.M.M.",
"N.M.M.M.M.M.M.M.m.8 ; X X     X ; ; ; ; p.f.d.d.u.; ; ; & @ @ @ @ @ @ @ @ @ @ % = X ; ; f.f.f.a.; ; ; X X ; ; X   ; ; c.M.M.M.M.",
"M.M.M.M.M.M.M.M.M.l.j.j.j.j.j.j.h.a.a.a.d.d.d.d.h.l.k.l.0 # # # # # # # # # - 9 l.k.k.k.f.d.d.d.a.a.a.a.a.a.p.g.j.j.k.n.M.M.M.V.",
"M.M.M.M.M.M.M.M.M.M.M.M.M.M.M.M.n.f.f.f.f.f.d.d.b.N.N.V.i.; ; ; ; ; ; ; ; ; ; 8 N.N.M.m.f.f.f.f.f.f.f.f.f.f.f.b.M.M.M.M.M.M.M.V.",
"m.M.M.M.M.M.M.M.M.M.M.M.M.M.M.M.n.f.f.f.f.d.d.d.b.N.N.V.i.; X X X X X X X ; ; u.V.N.M.m.f.d.f.d.f.f.f.f.f.f.f.n.M.M.M.M.m.m.m.M.",
"l.l.k.k.k.k.k.j.j.j.k.j.k.k.k.k.j.f.f.f.l.b.n.n.m.N.N.V.v.l.l.l.l.l.l.l.l.l.c.c.N.N.M.M.b.v.b.l.f.f.f.f.f.f.f.h.j.j.j.j.j.j.j.j.",
"h.g.f.f.f.f.f.f.f.f.f.f.f.f.f.f.f.f.f.f.v.N.N.V.N.M.N.N.N.N.M.M.M.M.M.M.M.M.N.M.M.M.M.M.N.N.M.b.f.f.f.f.f.f.f.f.f.f.f.f.f.f.d.d.",
"h.f.f.f.f.f.f.f.f.f.f.f.f.f.f.f.f.f.f.f.v.N.N.N.N.N.N.N.N.N.N.N.M.M.M.M.M.M.M.M.M.M.M.M.N.N.N.b.f.f.d.d.f.f.f.f.f.f.f.f.f.f.d.d.",
"A.Z.Z.C.C.C.C.C.C.C.Z.C.C.C.C.C.C.Z.Z.C.J.L.L.L.L.L.L.L.L.L.L.L.L.K.L.L.L.K.K.K.K.K.K.L.L.L.L.J.C.C.C.C.C.C.C.C.C.C.C.C.Z.Z.Z.Z.",
"Y.I.I.I.Y.Y.I.I.I.I.I.I.I.I.P.I.I.I.I.Y.Y.Y.I.I.Y.Y.I.I.I.Y.I.I.Y.Y.Y.Y.Y.Y.I.Y.Y.Y.Y.I.Y.Y.I.Y.Y.I.I.I.I.I.I.I.Y.Y.Y.Y.I.I.I.Y.",
"U.I.P.Y.Y.I.P.I.I.I.I.U.U.U.Y.I.Y.I.I.I.I.Y.Y.Y.I.I.I.I.I.I.I.I.I.I.I.Y.Y.Y.I.I.I.I.I.I.I.I.I.I.Y.Y.Y.I.P.I.I.I.Y.Y.Y.I.I.I.P.U.",
"F.F.F.F.F.G.G.G.G.G.G.G.G.G.G.G.G.G.F.G.G.G.G.G.G.G.G.G.G.G.G.G.G.G.G.G.G.G.G.G.G.G.G.G.G.G.G.H.H.G.G.F.F.G.G.G.G.G.G.G.G.G.G.G.",
"z.z.z.S.S.S.S.S.D.S.S.D.D.z.S.S.S.S.S.D.S.S.S.S.S.S.D.D.D.S.S.S.S.S.S.S.D.S.S.S.S.D.S.S.S.S.S.S.S.S.D.D.D.S.S.S.S.S.S.S.S.S.S.x."
};
