/* XPM */
static char *water1[] = {
/* columns rows colors chars-per-pixel */
"64 64 156 2 ",
"   c #96D1BF",
".  c #9BD3BE",
"X  c #ADDDB7",
"o  c #A2D7BE",
"O  c #A4D9BD",
"+  c #AFDFB9",
"@  c #ACDDBA",
"#  c #ACDDBB",
"$  c #ACDFBB",
"%  c #ADDFBB",
"&  c #A9DBBD",
"*  c #A8DCBC",
"=  c #AADCBC",
"-  c #AADDBC",
";  c #ADDDBC",
":  c #ADDDBD",
">  c #ADDEBC",
",  c #AFDFBC",
"<  c #ADDDBE",
"1  c #AEDCBE",
"2  c #A9DCBB",
"3  c #B0DFB9",
"4  c #AFE0BA",
"5  c #AFE0BB",
"6  c #AFE0BC",
"7  c #B6E2B4",
"8  c #B4E1B6",
"9  c #B4E1B7",
"0  c #B4E2B7",
"q  c #B5E2B7",
"w  c #B4E3B7",
"e  c #B7E3B6",
"r  c #B6E2B7",
"t  c #B7E3B7",
"y  c #B6E4B6",
"u  c #B7E4B6",
"i  c #B6E4B7",
"p  c #B7E4B7",
"a  c #B6E5B7",
"s  c #B7E5B7",
"d  c #B6E3B7",
"f  c #B8E3B6",
"g  c #B9E3B6",
"h  c #B8E3B7",
"j  c #B9E3B7",
"k  c #BAE3B7",
"l  c #B8E4B6",
"z  c #B8E4B7",
"x  c #B9E4B7",
"c  c #B9E5B7",
"v  c #BAE4B7",
"b  c #B9E3B7",
"n  c #B1E0B9",
"m  c #B1E1B9",
"M  c #B2E1B8",
"N  c #B2E0B9",
"B  c #B2E1B9",
"V  c #B3E1B9",
"C  c #B1E0BA",
"Z  c #B1E1BA",
"A  c #B1E1BB",
"S  c #B2E0BA",
"D  c #B2E1BA",
"F  c #B3E1BB",
"G  c #B2E2BA",
"H  c #B3E3BA",
"J  c #B5E1B8",
"K  c #B4E2B8",
"L  c #B4E3B8",
"P  c #B5E3B8",
"I  c #B4E2B9",
"U  c #B4E3B9",
"Y  c #B5E3B9",
"T  c #B6E2B8",
"R  c #B6E3B8",
"E  c #B7E3B8",
"W  c #B6E2B9",
"Q  c #B6E3B9",
"!  c #B7E3B9",
"~  c #B4E3BA",
"^  c #B5E3BB",
"/  c #B6E2BA",
"(  c #B5E4B8",
")  c #B5E4B9",
"_  c #B6E4B8",
"`  c #B7E4B8",
"'  c #B7E5B8",
"]  c #B6E4B9",
"[  c #B7E5B9",
"{  c #B7E6B8",
"}  c #B7E4BA",
"|  c #B7E4BB",
" . c #B3E1BC",
".. c #B2E2BC",
"X. c #B7E2BC",
"o. c #B5E3B9",
"O. c #B8E3B8",
"+. c #B9E3B8",
"@. c #B8E4B8",
"#. c #B9E4B8",
"$. c #B8E5B8",
"%. c #B8E4B9",
"&. c #B9E4B9",
"*. c #B9E5B9",
"=. c #BAE4B8",
"-. c #BAE5B8",
";. c #BAE4B9",
":. c #BBE4B9",
">. c #B8E6B8",
",. c #BAE4BB",
"<. c #BEE4BB",
"1. c #BBE3BD",
"2. c #97D0C0",
"3. c #97D1C0",
"4. c #97D1C1",
"5. c #96D2C0",
"6. c #97D2C0",
"7. c #96D2C1",
"8. c #97D2C1",
"9. c #97D1C2",
"0. c #97D2C2",
"q. c #97D2C0",
"w. c #98D0C0",
"e. c #98D1C0",
"r. c #99D1C0",
"t. c #98D1C1",
"y. c #99D1C1",
"u. c #9AD1C1",
"i. c #98D2C0",
"p. c #99D2C0",
"a. c #98D2C1",
"s. c #99D2C1",
"d. c #98D3C1",
"f. c #9AD2C0",
"g. c #9BD2C0",
"h. c #9AD3C0",
"j. c #9BD3C0",
"k. c #9AD2C1",
"l. c #9BD2C1",
"z. c #9AD3C1",
"x. c #99D0C2",
"c. c #98D1C2",
"v. c #99D1C2",
"b. c #98D1C3",
"n. c #99D1C3",
"m. c #98D2C2",
"M. c #99D2C2",
"N. c #98D2C3",
"B. c #99D2C3",
"V. c #9AD3C2",
"C. c #9CD2C0",
"Z. c #9CD3C0",
"A. c #9DD3C0",
"S. c #9ED4C0",
"D. c #9FD5C0",
"F. c #98D1C0",
/* pixels */
"s.s.s.s.s.s.s.s.s.s.s.s.s.s.s.s.s.s.s.s.s.s.s.s.s.s.s.s.s.s.s.s.s.s.s.s.s.s.s.s.s.s.s.s.s.s.s.s.s.s.s.s.s.s.s.s.s.s.s.s.s.s.s.s.",
"s.s.s.s.s.s.s.s.s.s.s.s.s.s.s.s.s.s.s.s.s.s.s.s.s.s.s.s.s.s.s.s.s.s.s.s.s.s.s.s.s.s.s.s.s.s.s.s.s.s.s.s.s.s.s.s.s.s.s.s.s.s.s.s.",
"s.s.s.s.s.s.s.s.s.s.s.s.s.s.s.s.s.s.s.s.s.s.s.s.s.s.s.o O O O O O O O O .   s.s.s.s.s.s.s.s.s.s.s.s.s.s.s.s.s.s.s.s.s.s.s.s.s.s.",
"s.s.s.s.s.s.s.s.s.s.s.s.s.s.s.s.s.s.s.s.s.s.s.s.s.s.s.% x g g g g g s s O   s.s.s.s.s.s.s.s.s.s.s.s.s.s.s.s.s.s.s.s.s.s.s.s.s.s.",
"s.s.s.s.s.s.s.s.s.s.s.s.s.s.s.s.s.s.s.s.s.s.s.s.s.s.  % ] $.$.$.$.] ^ ^ O s.s.s.s.s.s.s.s.s.s.s.s.s.s.s.s.s.s.s.s.s.s.s.s.s.s.  ",
"s.s.s.s.s.s.s.s.s.s.s.s.s.s.s.s.s.s.s.s.s.s.s.s.s.s.s.. . . . . . . . . s.s.s.  s.s.s.s.s.s.s.s.s.s.s.s.s.s.s.s.s.s.s.s.s.s.s.s.",
"s.s.s.s.s.s.s.s.s.s.s.s.s.s.s.s.s.s.    s.s.s.s.s.s.s.s.s.s.s.s.s.s.s.s.s.s.s.9.s.s.s.s.s.s.s.s.s.s.s.s.s.s.s.s.s.s.s.s.s.s.s.s.",
"s.s.s.s.s.s.s.s.s.s.s.s.s.. o o o o o o . s.s.s.s.s.s.s.s.s.s.s.s.s.s.s.s.s.s.s.s.s.s.s.S.o o o o o o . s.s.s.s.s.s.s.s.s.s.s.s.",
"s.s.s.s.s.s.s.s.s.s.s.s.. ..] ^ ] ] ] ] 4   s.s.s.s.s.s.s.s.s.s.s.s.s.s.s.s.s.s.s.s.s.  6 ] ] ] ] ] ] Z . s.s.s.s.s.s.s.s.s.s.  ",
"s.s.s.s.s.s.s.s.s.s.s.s.. ^ $.s s s ] ] Z     s.s.s.s.s.s.s.s.s.s.s.s.s.s.  s.s.s.s.s.  Z ] s ] ] ] ] Z . s.s.s.s.s.s.s.s.s.s.  ",
"s.s.s.s.s.s.s.s.s.s.s.s.s.O O O O O O O o s.s.s.s.s.s.s.s.s.s.s.s.s.s.s.s.s.s.s.s.s.s.s.o O O O O O O o s.s.s.s.s.s.s.s.s.s.s.s.",
"s.s.s.s.s.s.s.s.s.s.s.s.s.s.s.s.s.s.s.s.s.s.s.s.s.s.s.s.s.s.s.s.s.s.s.s.s.s.s.s.s.s.  s.s.s.9.9.s.s.s.s.s.9.s.s.s.s.s.s.s.s.s.s.",
"s.s.s.s.s.s.s.s.s.s.9.s.9.s.s.s.s.s.s.s.s.s.9.s.s.s.s.s.s.s.s.s.s.s.s.s.s.s.s.s.s.s.s.s.s.s.s.s.s.s.s.s.s.s.s.s.s.s.s.s.s.s.s.  ",
"s.s.s.s.s.s.s.s.s.s.s.s.s.s.s.s.s.s.s.s.s.s.9.s.9.s.s.s.s.s.s.s.s.s.s.s.s.s.s.s.s.s.s.s.s.s.s.s.s.s.s.s.s.s.s.s.s.s.s.s.s.s.s.  ",
"s.s.s.s.s.s.  s.s.s.s.s.s.s.s.s.s.s.s.s.s.s.s.s.s.s.s.s.s.s.s.9.s.s.s.s.s.s.s.s.s.s.s.s.s.s.s.s.s.s.s.s.s.s.s.s.s.s.s.s.s.s.s.9.",
"O O O O O O . s.s.s.s.s.s.s.s.s.s.s.s.s.s.s.s.s.s.s.s.s.s.s.s.o O O O O O O O O O . s.s.s.s.s.s.s.s.s.s.s.s.s.s.s.s.s.s.s.9.. O ",
"$.$.$.$.$.x O   s.s.s.s.s.s.s.s.s.s.s.s.s.s.s.s.s.s.9.9.2.    Z $.$.$.g $.O.g x $.* s.s.s.s.s.9.s.s.s.s.s.s.s.s.s.  s.s.s.9.2 $.",
"s ] ] $.] s O   s.s.s.s.s.s.s.9.s.s.s.s.s.s.9.s.s.s.s.s.s.s.s.Z $.s ] ^ ^ ^ ] $.] * s.s.s.s.s.9.s.s.s.s.s.s.s.s.s.  s.s.s.s.2 $.",
". . o . . .     s.s.  s.s.s.9.s.s.s.s.s.s.s.s.s.s.s.s.s.s.s.s.. . . . . . . . . .   s.s.s.s.s.s.s.s.s.s.s.s.s.s.s.s.s.s.s.9.C.o ",
"s.s.s.s.s.s.s.s.s.s.  s.s.s.s.s.s.s.s.9.s.s.s.s.s.s.s.s.s.s.s.s.s.s.s.s.s.s.s.s.s.s.s.s.s.s.s.s.s.s.s.s.s.s.s.s.s.s.s.s.s.s.s.s.",
"s.s.s.s.s.s.s.s.s.s.s.s.s.s.s.s.s.s.s.s.s.s.s.s.s.s.s.s.s.s.s.s.s.s.s.  s.s.s.s.s.s.s.s.s.s.s.s.s.s.s.s.  s.s.s.s.s.s.s.s.s.s.  ",
"s.s.s.s.s.s.s.s.s.s.s.s.s.s.s.s.s.s.s.s.s.s.s.  s.s.s.s.s.s.s.s.s.s.s.s.s.s.s.s.s.s.s.s.s.s.s.s.s.s.s.s.    s.s.s.s.s.s.s.s.s.  ",
"s.s.s.s.s.s.  s.s.s.s.s.s.s.s.s.s.s.s.s.s.s.s.  s.s.s.s.s.s.s.s.s.s.9.s.s.s.s.s.s.s.s.s.s.s.s.s.s.s.s.s.s.s.s.s.s.s.s.s.s.s.s.s.",
"s.s.s.s.s.s.  s.s.s.s.s.s.s.s.s.s.s.    s.s.s.s.s.s.s.s.s.s.s.s.s.s.9.s.s.s.s.s.s.s.s.s.s.s.s.s.s.s.s.s.s.s.s.s.s.s.s.s.s.s.s.s.",
"s.s.s.s.s.s.s.s.s.s.s.s.s.9.s.s.s.s.o O O O O O O O s.s.s.s.s.s.s.s.s.s.    s.s.s.9.s.s.s.s.9.s.s.o O O O O O O O   s.s.s.s.s.s.",
"s.s.s.s.s.s.s.s.s.s.s.s.9.s.s.s.s.s.Z x g g x $.$.]   s.s.s.s.s.s.s.s.s.s.  s.s.s.9.9.s.s.s.s.s.s.; $.] ] s ] $.^ o s.s.s.s.s.s.",
"s.s.s.s.s.s.s.s.s.s.s.s.s.s.s.s.s.  Z s s s x x x O.. s.s.s.s.s.s.s.9.s.s.s.s.s.s.s.s.s.s.s.s.s.s.; $.s s s s s ^ o s.s.s.s.s.s.",
"s.s.s.s.s.s.s.s.s.s.s.s.s.s.s.s.s.  o o o o o o o o s.s.s.s.s.s.s.s.9.s.s.s.s.s.s.s.s.s.s.s.s.s.s.. o o o o o o o   s.s.  s.s.s.",
"9.s.s.s.s.s.s.s.s.s.s.s.s.s.s.s.s.s.s.s.9.s.s.s.s.s.s.s.s.s.s.s.s.s.s.s.s.s.s.s.s.s.s.s.s.s.s.s.s.s.9.s.s.s.s.9.s.s.s.s.s.s.s.  ",
"s.s.s.s.s.s.s.s.s.s.s.s.s.s.s.s.s.s.s.9.9.9.s.s.s.s.9.s.s.s.s.s.s.s.s.s.s.s.s.s.s.s.s.s.s.s.s.s.s.s.s.s.s.s.s.9.9.s.s.s.s.s.s.  ",
"s.s.s.s.s.s.9.9.9.s.s.s.s.s.s.s.s.s.s.s.s.s.s.s.s.s.s.s.s.s.s.s.s.s.s.s.s.s.s.s.s.s.s.9.s.s.s.s.s.s.s.s.s.s.s.s.s.s.s.s.s.s.s.s.",
"s.s.s.s.s.s.s.s.s.s.s.s.s.s.s.s.s.s.s.s.s.s.s.s.s.s.s.s.s.s.s.s.s.s.s.s.s.s.s.s.s.s.s.9.s.s.s.s.s.s.s.s.s.s.s.s.s.s.s.s.s.s.s.s.",
"s.s.s.s.s.s.o O O O O O O s.s.  s.s.s.s.9.s.s.s.  9.s.s.s.s.s.s.s.9.s.s.s.s.s.o O O O O . s.s.s.s.s.s.9.9.s.s.s.s.s.s.s.s.s.s.s.",
"s.s.s.s.s.s.2 ] x x g $.Z .     s.s.s.s.s.9.s.s.s.s.s.s.s.s.s.s.s.9.s.s.s.s.C.^ $.s s ] . s.s.s.s.s.s.s.s.s.s.s.9.s.s.s.s.s.s.  ",
"s.9.s.s.s.s.& ] ^ ^ ^ ] Z .   s.s.s.s.s.s.s.s.s.s.s.s.s.s.s.s.s.s.s.s.s.s.s.C.Z $.$.$.] . s.s.s.s.s.s.s.s.s.s.s.s.s.s.s.s.s.s.s.",
"s.9.9.s.s.s.              s.s.s.s.s.s.s.s.s.s.s.s.s.s.s.s.s.s.s.s.s.s.s.s.s.s.  .         s.s.s.s.s.s.s.s.s.s.s.s.s.s.s.s.s.s.s.",
"s.s.s.s.s.s.s.s.s.s.s.s.s.s.s.s.s.s.s.s.s.s.s.s.s.  s.s.s.s.s.s.s.s.s.s.s.s.s.  s.s.s.s.s.s.s.s.s.s.s.s.s.s.s.s.s.s.s.s.s.s.s.s.",
"s.s.s.  s.s.s.s.s.s.s.s.s.s.s.s.s.s.s.s.s.s.s.s.    s.s.s.s.9.s.s.s.s.s.s.s.s.s.s.s.s.s.s.s.s.s.s.s.9.9.s.s.s.s.s.s.s.s.s.s.s.s.",
"s.  s.s.s.s.s.s.s.s.s.s.s.s.s.s.s.s.9.9.s.s.s.s.s.s.s.s.s.s.s.s.9.s.s.s.s.s.s.s.s.s.s.s.s.s.s.s.s.s.s.s.s.s.s.s.s.s.s.s.s.s.s.s.",
"    s.s.s.s.s.s.s.s.s.s.s.s.s.s.s.s.s.s.9.s.s.s.s.s.s.s.s.s.s.s.9.s.s.s.s.9.s.s.s.s.s.s.s.s.s.s.s.s.s.s.s.s.s.s.s.s.s.s.s.s.s.s.",
"s.s.s.s.s.s.s.s.s.s.s.s.s.s.s.s.s.s.s.s.s.s.9.s.s.s.s.s.s.s.s.s.s.s.s.  s.s.s.9.s.s.9.s.s.s.s.s.s.s.s.s.s.s.s.s.s.s.s.s.s.s.s.9.",
"s.s.s.s.s.s.s.s.s.s.s.s.s.s.s.s.s.s.s.s.s.s.9.s.s.s.s.s.s.s.s.s.s.s.s.s.s.s.s.s.s.s.s.s.s.s.s.s.s.s.s.s.s.s.s.9.s.s.s.s.s.s.s.  ",
". . . . s.s.s.s.s.s.s.s.s.s.s.s.s.s.s.s.s.s.s.s.s.s.S.. . . . . . . s.  s.s.s.s.s.s.s.9.s.s.s.s.s.s.s.s.s.s.s.s.s.s.s.s.s.s.. o ",
"^ ^ 9 3   s.s.s.s.s.s.s.s.s.s.s.s.s.s.s.s.s.s.s.s.  Z ^ ^ 9 9 9 9 % s.s.s.s.s.s.s.s.s.s.9.s.s.s.s.s.s.s.s.s.9.s.s.s.s.s.s.s.* 1.",
"9 x g Z   s.s.s.s.s.s.s.s.s.s.s.s.s.s.s.s.s.s.s.s.  ^ $.g 9 g g g Z   s.s.s.s.s.s.s.s.s.9.s.s.s.s.s.s.s.s.s.s.s.s.s.s.s.s.9.; <.",
"2 2 2 O   s.s.s.s.s.s.s.s.s.9.s.s.s.s.s.s.s.s.s.s.s.O 2 2 2 2 2 2 O   s.s.s.s.s.s.s.s.s.s.s.s.s.s.s.s.s.s.s.s.s.s.s.s.s.s.9.O ; ",
"  s.s.s.s.s.s.s.s.s.s.s.s.s.s.s.s.s.s.s.s.s.s.s.s.s.9.s.s.s.s.s.s.9.s.s.s.s.s.s.s.s.s.s.s.s.s.s.s.s.s.9.s.s.s.s.n.n.s.s.s.s.    ",
"s.s.s.s.s.s.s.s.s.s.s.s.. O 2 2 2 2 2 2 o   s.s.s.s.s.s.s.s.s.s.s.s.s.s.s.9.s.9.s.s.s.s.s.s.s.9.9.s.s.9.s.s.s.s.n.s.s.s.s.s.s.  ",
"s.s.s.s.s.s.s.s.s.s.s.s.. ^ x x s s s s 4   s.s.9.s.s.s.s.s.s.s.s.s.s.s.s.s.s.s.s.s.s.s.s.s.9.9.9.s.s.s.s.s.s.s.s.s.s.s.s.s.s.  ",
"s.s.s.s.s.s.s.s.s.s.s.s.. Z ^ ^ 9 ^ ^ 9 %   s.s.9.9.s.s.s.s.s.s.s.s.s.s.s.s.s.s.s.s.s.s.s.s.s.s.s.s.s.s.s.s.s.s.s.s.s.s.s.s.s.s.",
"s.s.s.s.s.s.s.s.s.s.s.9.s.s.. . . . . .   s.s.s.s.s.s.s.s.s.s.s.s.s.s.s.s.s.s.s.s.s.s.s.s.s.s.s.s.s.s.s.9.s.s.s.s.s.s.s.s.s.s.s.",
"s.s.s.s.s.s.s.s.s.s.9.s.s.s.s.s.s.s.s.s.s.s.s.s.s.s.s.s.s.s.s.s.s.s.s.s.s.s.s.s.s.s.s.s.s.s.s.s.s.s.s.s.9.s.s.s.s.s.s.s.s.s.s.s.",
"          s.s.s.s.s.s.s.s.s.s.s.s.s.s.s.s.s.s.s.s.s.s.s.s.9.s.s.s.s.s.s.9.s.s.s.s.s.s.s.s.s.s.s.s.s.s.s.s.s.s.s.s.s.s.s.s.s.    ",
"% % % % 2   s.s.s.s.s.s.s.s.s.s.s.s.s.s.s.s.s.s.s.s.s.s.s.9.s.s.s.s.s.s.s.s.s.s.s.s.s.s.s.s.s.s.s.s.s.  s.s.s.s.s.s.s.s.s.; ; X ",
"s x x x g . s.s.s.s.s.s.s.s.s.s.s.s.s.s.s.s.s.s.s.s.s.s.s.s.s.s.s.s.9.9.s.s.s.s.s.s.s.s.o O O O O O O o s.s.s.s.s.s.s.s.s.X.$.9 ",
"Z Z Z Z Z . s.s.s.s.s.s.s.s.s.s.s.s.s.s.s.s.s.s.s.s.s.s.s.s.s.s.s.s.9.s.s.s.s.s.s.s.s.  ..$.] s s s x ^ . s.s.s.s.s.s.s.s.3 Z + ",
"          s.s.s.s.s.s.s.s.s.s.s.s.s.s.s.s.s.s.s.s.s.s.s.s.s.s.s.s.s.9.s.s.s.s.s.s.s.s.  ..] ] ^ ] ^ ^ Z . s.s.s.s.s.s.s.s.      ",
"9.9.9.9.s.s.s.s.s.s.s.s.s.s.s.s.s.s.s.s.s.s.s.s.s.s.s.s.s.s.s.s.s.s.s.s.s.s.s.s.s.s.s.s.. o o o o . . .   s.s.s.s.s.s.s.s.  9.s.",
"  s.s.s.s.s.s.s.s.s.s.s.s.s.s.s.s.s.s.s.s.s.s.s.9.9.s.s.s.9.s.s.s.s.s.s.        s.s.s.s.9.9.s.s.s.s.s.9.9.s.s.s.s.s.s.s.s.9.9.s.",
"  s.s.s.s.s.s.s.        s.s.s.9.s.s.9.s.s.s.s.s.s.s.s.s.s.s.s.s.s.s.s.s.s.    s.s.s.s.s.s.s.s.s.s.s.s.s.s.s.s.s.s.s.s.s.s.    s.",
"    s.s.s.s.9.. * * * * * * 2 O s.s.s.s.s.s.s.s.s.s.s.s.9.s.s.s.s.s.s.s.s.s.s.s.s.s.s.s.s.s.s.s.s.s.s.s.s.s.s.s.s.s.s.s.s.s.s.s.",
"s.  s.s.s.s.  o ^ g g g x x s 2   s.s.s.s.s.s.s.s.s.s.s.s.s.s.s.s.s.s.s.s.s.s.s.s.s.s.s.s.s.s.s.    s.s.s.s.s.s.s.s.s.s.s.s.s.  ",
"s.s.s.s.s.s.  . ^ ^ ^ ^ $.$.9 * 9.9.s.s.s.s.s.s.s.s.s.s.s.s.s.s.s.s.s.s.s.9.9.s.s.s.s.s.s.s.s.s.s.s.s.s.s.s.s.s.s.s.s.s.9.s.9.  ",
"s.  s.s.s.s.s.s.  .     .       s.s.s.s.s.s.s.s.s.s.s.s.s.s.s.s.9.9.s.s.s.s.s.s.s.s.s.s.s.s.s.s.s.s.s.s.s.s.s.s.s.s.s.s.s.9.9.  "
};
