/* XPM */
static char *back_mm[] = {
/* columns rows colors chars-per-pixel */
"64 64 231 2 ",
"   c #0A0304",
".  c #150202",
"X  c #1C0302",
"o  c #180C0A",
"O  c #15100C",
"+  c #171416",
"@  c #240101",
"#  c #2D0303",
"$  c #230909",
"%  c #340403",
"&  c #3D0304",
"*  c #3A0B09",
"=  c #2A170F",
"-  c #39140D",
";  c #271815",
":  c #1E2117",
">  c #272618",
",  c #37261B",
"<  c #2F2D2D",
"1  c #372825",
"2  c #3A2C2B",
"3  c #312937",
"4  c #393739",
"5  c #430505",
"6  c #4A0302",
"7  c #460B09",
"8  c #580807",
"9  c #540C13",
"0  c #471517",
"q  c #571715",
"w  c #680808",
"e  c #6C0C0B",
"r  c #760A0B",
"t  c #7C0C0B",
"y  c #66130D",
"u  c #76120E",
"i  c #670E11",
"p  c #7A0D12",
"a  c #681416",
"s  c #7B1214",
"d  c #751816",
"f  c #42261F",
"g  c #75241E",
"h  c #571E20",
"j  c #7D1D21",
"k  c #4E332B",
"l  c #453837",
"z  c #563D39",
"x  c #652C27",
"c  c #71322D",
"v  c #4F4233",
"b  c #584B3B",
"n  c #654C3D",
"m  c #4A4944",
"M  c #484750",
"N  c #575557",
"B  c #684E44",
"V  c #625142",
"C  c #72554A",
"Z  c #675951",
"A  c #77614D",
"S  c #786458",
"D  c #5F6265",
"F  c #676868",
"G  c #766E6F",
"H  c #6F6A76",
"J  c #767673",
"K  c #7D7E7C",
"L  c #870706",
"P  c #990B0E",
"I  c #8B120E",
"U  c #95120B",
"Y  c #890D14",
"T  c #831514",
"R  c #8B1414",
"E  c #8A1819",
"W  c #941313",
"Q  c #9A1314",
"!  c #961A1A",
"~  c #991818",
"^  c #9B1A19",
"/  c #AE0907",
"(  c #A40B0B",
")  c #AC0A0C",
"_  c #BC0604",
"`  c #B40804",
"'  c #BA0A07",
"]  c #BB060A",
"[  c #B40C0C",
"{  c #BD0C0C",
"}  c #A8110D",
"|  c #B3120E",
" . c #BE100D",
".. c #A90B12",
"X. c #B50E11",
"o. c #BB0F11",
"O. c #A41515",
"+. c #A61716",
"@. c #B21314",
"#. c #BA1718",
"$. c #B0211F",
"%. c #901A21",
"&. c #9D1D23",
"*. c #B01E23",
"=. c #8E2D2E",
"-. c #952423",
";. c #AA2D2B",
":. c #BC2524",
">. c #C40303",
",. c #CB0302",
"<. c #C40D0B",
"1. c #CA0908",
"2. c #D30402",
"3. c #DD0904",
"4. c #D7050B",
"5. c #DB0908",
"6. c #D3150D",
"7. c #DC110D",
"8. c #D80A10",
"9. c #C41413",
"0. c #CA1312",
"q. c #C81718",
"w. c #D41414",
"e. c #D81715",
"r. c #E30405",
"t. c #EC0605",
"y. c #E60A05",
"u. c #EB0905",
"i. c #E3060C",
"p. c #ED060A",
"a. c #E40B0C",
"s. c #EC090A",
"d. c #F50502",
"f. c #FA0302",
"g. c #F40803",
"h. c #F90804",
"j. c #F40509",
"k. c #F2090A",
"l. c #E4110D",
"z. c #E8190D",
"x. c #E41513",
"c. c #EE141A",
"v. c #E1211B",
"b. c #D82F2B",
"n. c #CE3735",
"m. c #EB322C",
"M. c #E63F36",
"N. c #864237",
"B. c #BB423F",
"V. c #F1483E",
"C. c #895F52",
"Z. c #A84D4B",
"A. c #B85656",
"S. c #96705F",
"D. c #AD6254",
"F. c #856C6B",
"G. c #987C69",
"H. c #8B7E75",
"J. c #947671",
"K. c #BA7370",
"L. c #CE4541",
"P. c #C65554",
"I. c #F25249",
"U. c #F2554C",
"Y. c #F8685D",
"T. c #C96F6B",
"R. c #C67266",
"E. c #FE776A",
"W. c #FD7D73",
"Q. c #7D827F",
"!. c #8E8476",
"~. c #8B837C",
"^. c #B09274",
"/. c #FD8277",
"(. c magenta",
"). c #888988",
"_. c #958C87",
"`. c #908F93",
"'. c #959794",
"]. c #9C9D9B",
"[. c #A78B82",
"{. c #B88D89",
"}. c #B79983",
"|. c #A09B9B",
" X c #9A9DA0",
".X c #9FA0A2",
"XX c #AAABAA",
"oX c #AEB1B1",
"OX c #B6B6B4",
"+X c #BBBCBA",
"@X c #CB9A96",
"#X c #E19C9D",
"$X c #C8A68F",
"%X c #CCA795",
"&X c #D6A99B",
"*X c #DAB898",
"=X c #E7BB9B",
"-X c #F2BC99",
";X c #E49FA1",
":X c #D6A3A1",
">X c #C3B3A7",
",X c #D5B9A5",
"<X c #DEBCA3",
"1X c #C5BDBE",
"2X c #EEAEA4",
"3X c #E6BBA3",
"4X c #EEC79D",
"5X c #F1C59D",
"6X c #DCC3A9",
"7X c #CDC5BD",
"8X c #D3C4BC",
"9X c #EAC2A6",
"0X c #F5C8A7",
"qX c #F4D2A6",
"wX c #E6CBB5",
"eX c #C6C6C6",
"rX c #D2CEC9",
"tX c #D6D4CE",
"yX c #D7D4D4",
"uX c #DDDEDE",
"iX c #E5D7CB",
"pX c #EEE1D6",
"aX c #E2DFE6",
"sX c #E3E3E2",
"dX c #E9E8E8",
"fX c #EDECED",
"gX c #F2EFE8",
"hX c #F1F1EF",
"jX c #EDF2F6",
"kX c #F4F6F7",
"lX c #FBFBFC",
/* pixels */
"(.(.(.(.(.(.(.(.(.(.(.(.(.(.(.(.(.(.(.(.(.(.(.(.(.(.(.(.(.(.(.(.(.(.(.(.(.(.(.(.(.(.(.(.(.(.(.(.(.(.(.(.(.(.(.(.(.(.(.(.(.(.(.(.",
"(.(.(.(.(.(.(.(.(.(.(.(.(.(.(.(.(.(.(.(.(.(.(.(.(.(.(.(.(.(.(.(.(.(.(.(.(.(.(.(.(.(.(.(.(.(.(.(.(.(.(.(.(.(.(.(.(.(.(.(.(.(.(.(.",
"(.(.(.(.(.(.(.(.(.(.(.(.(.(.(.(.(.(.(.(.(.(.(.(.(.(.(.(.(.(.(.(.(.(.(.(.(.(.(.(.(.(.(.(.(.(.(.(.(.(.(.(.(.(.(.(.(.(.(.(.(.(.(.(.",
"(.(.(.(.(.(.(.(.(.(.(.(.(.(.(.(.(.(.(.(.(.(.(.(.(.(.(.(.(.(.(.(.(.(.(.(.(.(.(.(.(.(.(.(.(.(.(.(.(.(.(.(.(.(.(.(.(.(.(.(.(.(.(.(.",
"(.(.(.(.(.(.(.(.(.(.(.(.(.(.(.(.(.(.(.(.(.(.(.(.(.(.(.(.(.(.(.(.(.(.(.(.(.(.(.(.(.(.(.(.(.(.(.(.(.(.(.(.(.(.(.(.(.(.(.(.(.(.(.(.",
"(.(.(.(.(.(.(.(.(.(.(.(.(.(.(.(.(.(.(.(.(.(.(.(.(.(.(.(.(.(.(.(.(.(.(.(.(.(.(.(.(.(.(.(.(.(.(.(.(.(.(.(.(.(.(.(.(.(.(.(.(.(.(.(.",
"(.(.(.(.(.(.(.(.(.(.(.(.(.(.(.(.(.(.(.(.(.(.(.(.(.(.(.(.(.(.(.(.(.(.(.(.(.(.(.(.(.(.(.(.(.(.(.(.(.(.(.(.(.(.(.(.(.(.(.(.(.(.(.(.",
"(.(.(.(.(.(.(.(.(.(.(.(.(.(.(.(.(.(.(.(.(.(.(.(.(.(.(.(.(.(.% # # # # % # % # (.(.(.(.(.(.(.(.(.(.(.(.(.(.(.(.(.(.(.(.(.(.(.(.(.",
"(.(.(.(.(.(.(.(.(.(.(.(.(.(.(.(.(.(.(.(.(.(.(.(.(.(.(.(.6 e E W W W W Q ~ ~ E w 5 (.(.(.(.(.(.(.(.(.(.(.(.(.(.(.(.(.(.(.(.(.(.(.",
"(.(.(.(.(.(.(.(.(.(.(.(.(.(.(.(.(.(.(.(.(.(.(.(.(.(.8 T Q @.q.w.7.7.7.a.x.x.w.@.~ u 8 (.(.(.(.(.(.(.(.(.(.(.(.(.(.(.(.(.(.(.(.(.",
"(.(.(.(.(.(.(.(.(.(.(.(.(.(.(.(.(.(.(.(.(.(.(.(.a s W $.q.6.7.u.d.j.d.d.f.h.k.c.e.q.U u 6 (.(.(.(.(.(.(.(.(.(.(.(.(.(.(.(.(.(.(.",
"(.(.(.(.(.(.(.(.(.(.(.(.(.(.(.(.(.(.(.(.(.(.(.e &.*.:.b.V.m.l.g.d.d.d.f.f.h.h.h.u.y.6.| R 8 (.(.(.(.(.(.(.(.(.(.(.(.(.(.(.(.(.(.",
"(.(.(.(.(.(.(.(.(.(.(.(.(.(.(.(.(.(.(.(.(.(.T +.#.b.U.Y./.Y.z.g.j.j.g.d.h.f.h.h.h.g.k.l.q.Q w (.(.(.(.(.(.(.(.(.(.(.(.(.(.(.(.(.",
"(.(.(.(.(.(.(.(.(.(.(.(.(.(.(.(.(.(.(.(.(.u +.9.b.Y.W.W./.E.v.u.j.j.h.h.h.f.f.f.h.h.h.k.a.w.&.9 (.(.(.(.(.(.(.(.(.(.(.(.(.(.(.(.",
"(.(.(.(.(.(.(.(.(.(.(.(.(.(.(.(.(.(.(.(.(.U <.w.I.E.W.W./.V.e.g.g.g.f.f.h.f.f.f.h.f.f.h.j.a.#.p (.(.(.(.(.(.(.(.(.(.(.(.(.(.(.(.",
"(.(.(.(.(.(.(.(.(.(.(.(.(.(.(.(.(.(.(.(.R o.8.7.V.W./.W.U.v.y.g.d.f.g.f.f.f.h.f.f.f.h.f.j.k.e.~ 8 (.(.(.(.(.(.(.(.(.(.(.(.(.(.(.",
"(.(.(.(.(.(.(.(.(.(.(.(.(.(.(.(.(.(.(.e } 8.p.i.M.Y.Y.I.e.u.g.f.f.f.f.f.f.d.d.f.f.f.f.h.d.t.a. .t 7 (.(.(.(.(.(.(.(.(.(.(.(.(.(.",
"(.(.(.(.(.(.(.(.(.(.(.(.(.(.(.(.(.(.(.! 9.i.j.j.c.m.w.e.s.g.f.f.f.f.f.f.f.d.d.f.f.f.f.f.d.d.t.7.#.y # (.(.(.(.(.(.(.(.(.(.(.(.(.",
"(.(.(.(.(.(.(.(.(.(.(.(.(.(.(.(.(.(.w @.8.p.j.f.j.u.r.r.h.d.f.d.f.f.f.f.f.f.f.f.f.h.f.f.d.d.d.u.w.W & (.(.(.(.(.(.(.(.(.(.(.(.(.",
"(.(.(.(.(.(.(.(.(.(.(.(.(.(.(.(.(.(.W 6.p.j.f.f.f.f.d.d.d.f.f.d.h.f.h.f.f.f.f.f.f.f.f.f.d.t.d.h.a.+.8 . (.(.(.(.(.(.(.(.(.(.(.(.",
"(.(.(.(.(.(.(.(.(.(.(.(.(.(.(.(.(.(.~ 7.j.f.f.f.f.f.f.f.d.d.f.f.f.f.f.f.f.f.f.f.f.f.f.f.f.d.d.d.a.@.w . (.(.(.(.(.(.(.(.(.(.(.(.",
"(.(.(.(.(.(.(.(.(.(.(.(.(.(.(.(.(.* +.l.j.f.f.f.d.f.d.d.d.f.f.f.f.h.f.f.f.f.f.f.f.f.f.f.f.f.d.d.p.X.e . + (.(.(.(.(.(.(.(.(.(.(.",
"(.(.(.(.(.(.(.(.(.(.(.(.(.(.(.(.(.5 +.l.h.f.f.f.d.d.d.d.d.d.f.f.f.f.f.j.f.f.f.f.f.f.f.f.f.f.f.f.y.9.r X + (.(.(.(.(.(.(.(.(.(.(.",
"(.(.(.(.(.(.(.(.(.(.(.(.(.(.(.(.X 5 +.l.f.f.f.f.f.d.d.d.d.f.f.f.f.h.f.f.f.f.f.f.f.f.f.f.f.f.f.f.y.<.r X + (.(.(.(.(.(.(.(.(.(.(.",
"(.(.(.(.(.(.(.(.(.(.(.(.(.(.(.(.o 5 +.l.f.f.f.f.f.f.f.d.f.f.f.f.f.f.f.f.f.f.f.d.f.f.f.d.f.f.f.f.y.<.t @ + (.(.(.(.(.(.(.(.(.(.(.",
"(.(.(.(.(.(.(.(.(.(.(.(.(.(.(.(.X 5 +.l.f.f.f.f.f.f.f.f.f.f.f.f.f.d.f.d.d.f.f.d.f.h.f.f.f.f.f.g.3.{ t @ O (.(.(.(.(.(.(.(.(.(.(.",
"(.(.(.(.(.(.(.(.(.(.(.(.(.(.(.(.. 5 O.7.j.f.f.f.f.f.f.f.f.f.f.f.f.f.f.f.d.f.f.d.f.d.f.d.f.f.j.t.2.| t @ . (.(.(.(.(.(.(.(.(.(.(.",
"(.(.(.(.(.(.(.(.(.(.(.(.(.(.(.= X & Q 8.s.h.f.d.f.f.f.f.f.f.f.f.f.f.f.f.d.f.f.f.f.f.f.d.d.j.j.t.1.| u @ + 1 (.(.(.(.(.(.(.(.(.(.",
"(.(.(.(.(.(.(.(.(.(.(.(.(.(.(.N o 5 I <.a.j.j.d.f.f.f.f.f.f.f.f.f.j.f.f.f.f.f.f.f.d.f.d.g.s.p.r.<.+.y X z F.(.(.(.(.(.(.(.(.(.(.",
"(.(.(.(.(.(.(.(.(.(.(.(.(.(.(.~.v & t ' 5.s.g.g.f.f.f.f.f.f.f.f.f.f.f.f.f.d.d.d.d.d.f.d.g.s.r.4.{ U 8 f _.F.o (.(.(.(.(.(.(.(.(.",
"(.(.(.(.(.(.(.(.(.(.(.(.(.(.~.8X>X7 w } 1.3.u.g.d.f.f.f.f.f.f.f.f.f.f.f.f.f.f.f.f.f.d.j.y.5.2.>./ I & n iX[.> (.(.(.(.(.(.(.(.(.",
"(.(.(.(.(.(.(.(.(.(.(.(.(.(.}.wX,X- 6 U { 2.3.y.t.f.f.f.j.j.f.f.f.f.f.f.f.f.f.f.f.f.f.j.r.>.>.` } d * n wX<XJ.(.(.(.(.(.(.(.(.(.",
"(.(.(.(.(.(.(.(.(.(.(.(.(.Z 9X4X%X$ # w P _ 2.r.r.j.f.f.d.d.f.d.f.f.f.f.f.f.f.d.d.g.d.r.,._ ` / Y 7 X n 4X9X^.; (.(.(.(.(.(.(.(.",
"(.(.(.(.(.(.(.(.(.(.(.(.(.A <X9X%X, . & Y ..>.4.r.t.f.d.d.f.d.g.h.h.f.f.f.f.d.d.t.u.y.,.>.] ] P u # o n =X=X}.2 (.(.(.(.(.(.(.(.",
"(.(.(.(.(.(.(.(.(.(.(.(._.>X6X9X6X!.; . 9 Y ) >.2.3.t.j.j.f.d.f.f.f.f.f.d.g.t.y.r.2.,.>._ ] ( E 7 . N $X4X4X6XOXm (.(.(.(.(.(.(.",
"(.(.(.(.(.(.(.(.(.(.(.(._.pXwXwXwX!.O   # i ~ ` >.2.3.4.r.r.p.j.j.j.j.k.s.u.r.2.2.,.>._ ' @.~ 8 X o N 1XwXwXwXtX4 (.(.(.(.(.(.(.",
"(.(.(.(.(.(.(.(.(.(.(.F +X7XG S G v (.(.= 7 u } ' ,.,.,.,.,.2.4.4.4.4.5.3.2.2.,.,.>.>.' @.+.y - 2 4 3 G _.H.].tX`.4 (.(.(.(.(.(.",
"(.(.(.(.(.(.(.(.(.(.(.oXlXrX!.G H.K (.(.(.(.7 s +.| ] <.>.>.>.>.>.>.>.>.>.,.>.>.<.' [ ..! y 7 (.(.M H `.J J `.dXfXN (.(.(.(.(.(.",
"(.(.(.(.(.(.(.(.(.(.(.eXlXkXgXgXsX+Xm (.(.(.(.q i T Q @.@._ _ >.>.>.>.>.>.' ' ' @.O.I t y 7 (.(.(.3 H aXdXkXjXjXdX).(.(.(.(.(.(.",
"(.(.(.(.(.(.(.(.(.(.OXjXkXhXkXhX+X].J (.(.(.(.(.X % i p W ( | | [ X.X.X.X...} W s 8 5 # $ (.(.(.(.F '.'.yXlXjXjXhXuXJ (.(.(.(.(.",
"(.(.(.(.(.(.(.(.(.(.oXlXlXkXkX+XF F ].b (.(.(.(.O o $ * 6 8 s s T s E T T T d 9 9 - $ o (.(.(.(.(.K ).N ].eXfXfXfXuXJ (.(.(.(.(.",
"(.(.(.(.(.(.(.(.(.(.OXlXgXsXoXQ.'.oXrXb (.(.(.(.(.: v C.k * # % (.(.(.(.(.5 7 c [.G., (.(.(.(.(.(.].'.H F H 1XdXhXsXG (.(.(.(.(.",
"(.(.(.(.(.(.(.(.(.(.].uXtXoX.X+XOX'.Q.< (.(.(.(.(.> A 3X=XG.= (.(.(.(.(.(.(.C @X9X$Xb (.(.(.(.(.(.).K F ].].+X+XuXeX(.(.(.(.(.(.",
"(.(.(.(.(.(.(.(.(.(.(.).sXhXtXOX+X].1 (.(.(.(.(.(.v ^.5X0X}., (.(.(.(.(.(.(.G.=X9X4XS., (.(.(.(.(.(.N  XXXeXsXdXsXF (.(.(.(.(.(.",
"(.(.(.(.(.(.(.(.(.(.(.(.+XdXsXeX).N (.(.(.(.(.(.(.V *X4X4X^., (.(.(.(.(.(.(.G.=X-X5X^., (.(.(.(.(.(.(.4 ).uXsXyXQ.(.(.(.(.(.(.(.",
"(.(.(.(.(.(.(.(.(.(.(.(.(.(.(.(.(.(.(.(.(.(.(.(.(.V *XqX*Xb O (.(.(.(.(.(.(.G.3X-X0X%Xf (.(.(.(.(.(.(.(.(.(.(.(.(.(.(.(.(.(.(.(.",
"(.(.(.(.(.(.(.(.(.(.(.(.(.(.(.(.(.(.(.(.(.(.(.(.(.B *XqX*X1   (.(.(.(.(.(.(.C.$X2X9X%Xb $ (.(.(.(.(.(.(.(.(.(.(.(.(.(.(.(.(.(.(.",
"(.(.(.(.(.(.(.(.(.(.(.(.(.(.(.(.(.(.(.(.(.(.(.(.(.B *XqX*X1   (.(.(.(.(.(.(.a g N.N.x q 0 (.(.(.(.(.(.(.(.(.(.(.(.(.(.(.(.(.(.(.",
"(.(.(.(.(.(.(.(.(.(.(.(.(.(.(.(.(.(.(.(.(.(.(.(.. n <XqX*Xf . (.(.(.(.(.(.s &.Q L I p p d (.(.(.(.(.(.(.(.(.(.(.(.(.(.(.(.(.(.(.",
"(.(.(.(.(.(.(.(.(.(.(.(.(.(.(.(.(.(.(.(.(.(.(., - x D.R.D.g q (.(.(.(.(.(.Q #.o.@.( ( ..W d (.(.(.(.(.(.(.(.(.(.(.(.(.(.(.(.(.(.",
"(.(.(.(.(.(.(.(.(.(.(.(.(.(.(.(.(.(.(.(.(.(.7 8 y d u I ! -.j (.(.(.(.(.d $.9.1.` ` ` { @.-.(.(.(.(.(.(.(.(.(.(.(.(.(.(.(.(.(.(.",
"(.(.(.(.(.(.(.(.(.(.(.(.(.(.(.(.(.(.(.(.(.y R ~ L R &.! &.~ u q (.(.(.(.d #.w.a.7.6.1.9.@.%.q (.(.(.(.(.(.(.(.(.(.(.(.(.(.(.(.(.",
"(.(.(.(.(.(.(.(.(.(.(.(.(.(.(.(.(.(.(.(.E -.9.6.9.( L t L L ! j (.(.(.(.a +.q.9.<. . .[ ;.T.B (.(.(.(.(.(.(.(.(.(.(.(.(.(.(.(.(.",
"(.(.(.(.(.(.(.(.(.(.(.(.(.(.(.(.(.(.(.(.=.q.7.u.x.<.) } ( ] @.%.9 (.(.(.q Z.P.P.P.P.P.A.A.K.C (.(.(.(.(.(.(.(.(.(.(.(.(.(.(.(.(.",
"(.(.(.(.(.(.(.(.(.(.(.(.(.(.(.(.(.(.(.(.A.:.e.z.z.z.6.e.0.w.#.! q (.(.(.(.S.&X:X:X@X@X@X{.b (.(.(.(.(.(.(.(.(.(.(.(.(.(.(.(.(.(.",
"(.(.(.(.(.(.(.(.(.(.(.(.(.(.(.(.(.(.(.(.%XA.L.b.6.6.6.q.0. .:.=.0 (.(.(.(.(.(.(.4 2 2 2 < (.(.(.(.(.(.(.(.(.(.(.(.(.(.(.(.(.(.(.",
"(.(.(.(.(.(.(.(.(.(.(.(.(.(.(.(.(.(.(.(.Z [.&XT.;.L.n.n.Z.;.R.J.(.(.(.(.(.(.(.(.(.(.(.(.(.(.(.(.(.(.(.(.(.(.(.(.(.(.(.(.(.(.(.(.",
"(.(.(.(.(.(.(.(.(.(.(.(.(.(.(.(.(.(.(.(.(.v l F.:X#X2X#X2X:XB l (.(.(.(.(.(.(.(.(.(.(.(.(.(.(.(.(.(.(.(.(.(.(.(.(.(.(.(.(.(.(.(.",
"(.(.(.(.(.(.(.(.(.(.(.(.(.(.(.(.(.(.(.(.(.(.(.< l l l l l 3 (.(.(.(.(.(.(.(.(.(.(.(.(.(.(.(.(.(.(.(.(.(.(.(.(.(.(.(.(.(.(.(.(.(.",
"(.(.(.(.(.(.(.(.(.(.(.(.(.(.(.(.(.(.(.(.(.(.(.(.(.(.(.(.(.(.(.(.(.(.(.(.(.(.(.(.(.(.(.(.(.(.(.(.(.(.(.(.(.(.(.(.(.(.(.(.(.(.(.(.",
"(.(.(.(.(.(.(.(.(.(.(.(.(.(.(.(.(.(.(.(.(.(.(.(.(.(.(.(.(.(.(.(.(.(.(.(.(.(.(.(.(.(.(.(.(.(.(.(.(.(.(.(.(.(.(.(.(.(.(.(.(.(.(.(.",
"(.(.(.(.(.(.(.(.(.(.(.(.(.(.(.(.(.(.(.(.(.(.(.(.(.(.(.(.(.(.(.(.(.(.(.(.(.(.(.(.(.(.(.(.(.(.(.(.(.(.(.(.(.(.(.(.(.(.(.(.(.(.(.(.",
"(.(.(.(.(.(.(.(.(.(.(.(.(.(.(.(.(.(.(.(.(.(.(.(.(.(.(.(.(.(.(.(.(.(.(.(.(.(.(.(.(.(.(.(.(.(.(.(.(.(.(.(.(.(.(.(.(.(.(.(.(.(.(.(.",
"(.(.(.(.(.(.(.(.(.(.(.(.(.(.(.(.(.(.(.(.(.(.(.(.(.(.(.(.(.(.(.(.(.(.(.(.(.(.(.(.(.(.(.(.(.(.(.(.(.(.(.(.(.(.(.(.(.(.(.(.(.(.(.(."
};
