/* XPM */
static char *front_mm[] = {
/* columns rows colors chars-per-pixel */
"64 64 243 2 ",
"   c #080103",
".  c #130303",
"X  c #170809",
"o  c #1C100D",
"O  c #171714",
"+  c #240202",
"@  c #2B0202",
"#  c #250806",
"$  c #2B0D0D",
"%  c #320201",
"&  c #3C0504",
"*  c #370A0A",
"=  c #33110E",
"-  c #251413",
";  c #3B1414",
":  c #31201A",
">  c #1C1621",
",  c #2B2A29",
"<  c #3A362D",
"1  c #2D2931",
"2  c #322D32",
"3  c #393533",
"4  c #4B0505",
"5  c #470807",
"6  c #590807",
"7  c #520A0B",
"8  c #48150D",
"9  c #501211",
"0  c #591515",
"q  c #630504",
"w  c #630A0B",
"e  c #6B0C0C",
"r  c #7A0C0B",
"t  c #68160E",
"y  c #76110C",
"u  c #760F11",
"i  c #641314",
"p  c #68181A",
"a  c #7B1413",
"s  c #791717",
"d  c #4A261F",
"f  c #6D221B",
"g  c #7D221E",
"h  c #581E24",
"j  c #621B20",
"k  c #7B1A21",
"l  c #582626",
"z  c #47352C",
"x  c #55342D",
"c  c #453E37",
"v  c #583C35",
"b  c #6C2827",
"n  c #782625",
"m  c #66382B",
"M  c #773A34",
"N  c #5B4238",
"B  c #6A4337",
"V  c #3F4444",
"C  c #484647",
"Z  c #504E4A",
"A  c #595658",
"S  c #694B42",
"D  c #70554C",
"F  c #6C6557",
"G  c #79655B",
"H  c #6A676A",
"J  c #776E64",
"K  c #787777",
"L  c #8B0806",
"P  c #840C0D",
"I  c #930303",
"U  c #9D0605",
"Y  c #84100E",
"T  c #960F11",
"R  c #841414",
"E  c #871818",
"W  c #941312",
"Q  c #991719",
"!  c #A70806",
"~  c #B60C0A",
"^  c #BA0D0C",
"/  c #A5130D",
"(  c #BA120E",
")  c #A50C12",
"_  c #B00E13",
"`  c #BC0D11",
"'  c #A51413",
"]  c #AC1314",
"[  c #A7181A",
"{  c #AC1B1B",
"}  c #B51514",
"|  c #BC1413",
" . c #B9191A",
".. c #8E241E",
"X. c #BA211B",
"o. c #8A1D22",
"O. c #911E20",
"+. c #A41E23",
"@. c #862426",
"#. c #982427",
"$. c #902F2D",
"%. c #9D3937",
"&. c #A72525",
"*. c #B03332",
"=. c #C80A06",
"-. c #C40C0B",
";. c #CB0C0C",
":. c #D40B03",
">. c #DC0A03",
",. c #D30C0B",
"<. c #DC0D0B",
"1. c #C8110C",
"2. c #DC110C",
"3. c #C90D12",
"4. c #D50F10",
"5. c #DB0C11",
"6. c #C41513",
"7. c #CD1515",
"8. c #C51B1A",
"9. c #C91918",
"0. c #D41312",
"q. c #DC1313",
"w. c #D8171A",
"e. c #EC0505",
"r. c #E40B03",
"t. c #EC0A04",
"y. c #E70608",
"u. c #E30D0B",
"i. c #EB0C0C",
"p. c #F50403",
"a. c #FA0403",
"s. c #F40A03",
"d. c #FA0904",
"f. c #F4040B",
"g. c #F40A09",
"h. c #FA0809",
"j. c #E3130C",
"k. c #EE130B",
"l. c #F31205",
"z. c #F91305",
"x. c #F0140D",
"c. c #E80E12",
"v. c #E41413",
"b. c #E61716",
"n. c #EB1B14",
"m. c #C6231C",
"M. c #DC2019",
"N. c #CB2728",
"B. c #D32E2C",
"V. c #DD3A38",
"C. c #E5312D",
"Z. c #88453D",
"A. c #E3443A",
"S. c #8B3D43",
"D. c #BD3D43",
"F. c #85494B",
"G. c #9A4645",
"H. c #8D584E",
"J. c #985857",
"K. c #A74A4A",
"L. c #B84D49",
"P. c #A85656",
"I. c #B95651",
"U. c #BF625F",
"Y. c #B25C61",
"T. c #91736A",
"R. c #BA6665",
"E. c #B0726D",
"W. c #B67C74",
"Q. c #D84645",
"!. c #CA524C",
"~. c #ED5F59",
"^. c #CA645A",
"/. c #C65C63",
"(. c #CD6A67",
"). c #F1726D",
"_. c #B68368",
"`. c #B9867C",
"'. c #CA837B",
"]. c #D18779",
"[. c #E4807B",
"{. c #F48177",
"}. c #7E7D82",
"|. c magenta",
" X c #878889",
".X c #988B86",
"XX c #959289",
"oX c #989A99",
"OX c #B79689",
"+X c #B29491",
"@X c #B9AA96",
"#X c #BBA79B",
"$X c #A4A6A4",
"%X c #BBA7A5",
"&X c #AFB1B0",
"*X c #B6B6B8",
"=X c #BBBBBC",
"-X c #C38E8C",
";X c #C8998D",
":X c #C69896",
">X c #EC8E84",
",X c #C9A999",
"<X c #D9AC97",
"1X c #D1B49B",
"2X c #E8A793",
"3X c #CB9EA2",
"4X c #DC9BA5",
"5X c #C5A8A5",
"6X c #CCB3AC",
"7X c #CDB3B2",
"8X c #DEB8B5",
"9X c #EDA6A8",
"0X c #F2ACA7",
"qX c #EABBAA",
"wX c #F4B9A8",
"eX c #EBB9B8",
"rX c #DEC9B3",
"tX c #EAC4A6",
"yX c #F7C8A9",
"uX c #F9C6B7",
"iX c #F1CDB5",
"pX c #BBB9C3",
"aX c #C7BFC3",
"sX c #CBCBCB",
"dX c #D4CCCB",
"fX c #D2D0CF",
"gX c #D6D6D5",
"hX c #DCDCDB",
"jX c #F7C7C5",
"kX c #ECD0CA",
"lX c #E4DCD9",
"zX c #FDD6D8",
"xX c #DBE1DD",
"cX c #E0E2DF",
"vX c #DDE3E1",
"bX c #E4E4E3",
"nX c #E9E9E8",
"mX c #FCE8E8",
"MX c #FAF5ED",
"NX c #EFF2F2",
"BX c #F4F5F4",
"VX c #F9F8F5",
"CX c #FCFDFD",
/* pixels */
"|.|.|.|.|.|.|.|.|.|.|.|.|.|.|.|.|.|.|.|.|.|.|.|.|.|.|.|.|.|.|.|.|.|.|.|.|.|.|.|.|.|.|.|.|.|.|.|.|.|.|.|.|.|.|.|.|.|.|.|.|.|.|.|.",
"|.|.|.|.|.|.|.|.|.|.|.|.|.|.|.|.|.|.|.|.|.|.|.|.|.|.|.|.|.|.|.|.|.|.|.|.|.|.|.|.|.|.|.|.|.|.|.|.|.|.|.|.|.|.|.|.|.|.|.|.|.|.|.|.",
"|.|.|.|.|.|.|.|.|.|.|.|.|.|.|.|.|.|.|.|.|.|.|.|.|.|.|.|.|.|.|.|.|.|.|.|.|.|.|.|.|.|.|.|.|.|.|.|.|.|.|.|.|.|.|.|.|.|.|.|.|.|.|.|.",
"|.|.|.|.|.|.|.|.|.|.|.|.|.|.|.|.|.|.|.|.|.|.|.|.|.|.|.|.|.|.|.|.|.|.|.|.|.|.|.|.|.|.|.|.|.|.|.|.|.|.|.|.|.|.|.|.|.|.|.|.|.|.|.|.",
"|.|.|.|.|.|.|.|.|.|.|.|.|.|.|.|.|.|.|.|.|.|.|.|.|.|.|.|.|.|.|.|.|.|.|.|.|.|.|.|.|.|.|.|.|.|.|.|.|.|.|.|.|.|.|.|.|.|.|.|.|.|.|.|.",
"|.|.|.|.|.|.|.|.|.|.|.|.|.|.|.|.|.|.|.|.|.|.|.|.|.|.|.|.o . . X . . .   |.|.|.|.|.|.|.|.|.|.|.|.|.|.|.|.|.|.|.|.|.|.|.|.|.|.|.|.",
"|.|.|.|.|.|.|.|.|.|.|.|.|.|.|.|.|.|.|.|.|.|.|.|.|.|.; @ * 5 4 4 5 4 4 4 * $   |.|.|.|.|.|.|.|.|.|.|.|.|.|.|.|.|.|.|.|.|.|.|.|.|.",
"|.|.|.|.|.|.|.|.|.|.|.|.|.|.|.|.|.|.|.|.|.|.|.|.  o - j #.+.' ' ' ] { [ #.p + X X |.|.|.|.|.|.|.|.|.|.|.|.|.|.|.|.|.|.|.|.|.|.|.",
"|.|.|.|.|.|.|.|.|.|.|.|.|.|.|.|.|.|.|.|.|.|.|.o X   $ 0 #.X.7.<.u.c.v.9.&.s @ X # $ |.|.|.|.|.|.|.|.|.|.|.|.|.|.|.|.|.|.|.|.|.|.",
"|.|.|.|.|.|.|.|.|.|.|.|.|.|.|.|.|.|.|.|.|.|.= d ; @ $ 5 6 [ M.y.f.h.u. .P q 7 7 4 p 9 = |.|.|.|.|.|.|.|.|.|.|.|.|.|.|.|.|.|.|.|.",
"|.|.|.|.|.|.|.|.|.|.|.|.|.|.|.|.|.|.|.|.|.8 f f f P.P.K.a L ;.i.d.g.,.U L Q &.&.P P #.0 * |.|.|.|.|.|.|.|.|.|.|.|.|.|.|.|.|.|.|.",
"|.|.|.|.|.|.|.|.|.|.|.|.|.|.|.|.|.|.|.|.9 $.L.!.^.{.).B. .=.u.g.p.d.r.,.w.w.b.w.7.6.8.{ u |.|.|.|.|.|.|.|.|.|.|.|.|.|.|.|.|.|.|.",
"|.|.|.|.|.|.|.|.|.|.|.|.|.|.|.|.|.|.|.& @.Q.).>X{.~.V.3.2.c.g.d.d.s.l.k.n.c.c.j.j.r.u.5. .e |.|.|.|.|.|.|.|.|.|.|.|.|.|.|.|.|.|.",
"|.|.|.|.|.|.|.|.|.|.|.|.|.|.|.|.|.|.@ 6 *.).{.{.!.*.]  .6.2.k.d.d.s.k.2.6.| } 6.1.2.e.f.7.W & |.|.|.|.|.|.|.|.|.|.|.|.|.|.|.|.|.",
"|.|.|.|.|.|.|.|.|.|.|.|.|.|.|.|.|.|.6 +.Q.).).(.n 0 i i y W 9.n.k.v.9.W e 0 0 t R  .c.y.c.| y & |.|.|.|.|.|.|.|.|.|.|.|.|.|.|.|.",
"|.|.|.|.|.|.|.|.|.|.|.|.|.|.|.|.|.5 Q 9.V.~.!.$.T.5X%X%X5X`.#.m.n.w.Q W.5X%X%X%XOX$._ 5.>.q. .6 |.|.|.|.|.|.|.|.|.|.|.|.|.|.|.|.",
"|.|.|.|.|.|.|.|.|.|.|.|.|.|.|.|.|.q  .2.b.w.&.E.kXCXCXCXCXnXW.Q 8._ G.kXCXVXCXCXMX;X$.1.t.x.w.Q & |.|.|.|.|.|.|.|.|.|.|.|.|.|.|.",
"|.|.|.|.|.|.|.|.|.|.|.|.|.|.|.|.5 W q.l.i.0.R :XCXCXbX X}.lXkX@.+.E 8XlXXX}.aXCXMXMXZ.! k.z.n.{ 7 |.|.|.|.|.|.|.|.|.|.|.|.|.|.|.",
"|.|.|.|.|.|.|.|.|.|.|.|.|.|.|.|.6  .k.l.l.w.R 5XCXNXK , H .X7Xb o.n 7X X3 K H hXVXMXD ~ n.z.k.m.q |.|.|.|.|.|.|.|.|.|.|.|.|.|.|.",
"|.|.|.|.|.|.|.|.|.|.|.|.|.|.|.+ r 7.k.z.z.n.E 5XCXxX3 O A C %Xb o.k 5XC > A 1 pXCXVXF.] n.x.l.w.P + |.|.|.|.|.|.|.|.|.|.|.|.|.|.",
"|.|.|.|.|.|.|.|.|.|.|.|.|.|.|.@ Q v.s.z.z.n.E 5XCXhX2     c #Xn O.o.5XZ     O pXCXVXF._ n.l.s.2.W @ |.|.|.|.|.|.|.|.|.|.|.|.|.|.",
"|.|.|.|.|.|.|.|.|.|.|.|.|.|.|.@ T v.d.d.l.n.T 5XCXNX XV , .XOXE [ Q J..XC 2  XnXCXMXG.` c.p.p.j.T @ |.|.|.|.|.|.|.|.|.|.|.|.|.|.",
"|.|.|.|.|.|.|.|.|.|.|.|.|.|.|.@ Q c.d.d.g.b.} P.kXCXBXhXaX:X@._ 3. .o.-XdXdXCXCXMX;X&.7.i.h.d.<.T + |.|.|.|.|.|.|.|.|.|.|.|.|.|.",
"|.|.|.|.|.|.|.|.|.|.|.|.|.|.|.% W v.d.d.s.k.9.Q J.%X3X%X3XK.) 0.y.5. .%.OX,X5X5X-X%.| c.h.a.p.2.W + |.|.|.|.|.|.|.|.|.|.|.|.|.|.",
"|.|.|.|.|.|.|.|.|.|.|.|.|.|.|.% W v.p.d.d.p.y.0.Q s s s E _ 4.s.f.e.q.| W R s R W 6.2.s.p.h.p.2.W + |.|.|.|.|.|.|.|.|.|.|.|.|.|.",
"|.|.|.|.|.|.|.|.|.|.|.|.|.|.|.# R 0.g.a.p.p.f.y.,.6.} 6.0.u.e.d.d.p.i.u.q.7.8.8.0.r.r.p.a.a.p.,.Y + |.|.|.|.|.|.|.|.|.|.|.|.|.|.",
"|.|.|.|.|.|.|.|.|.|.|.|.|.|.X # e } y.p.p.p.f.f.t.:.;.5.u.s.p.d.p.s.g.s.i.c.q.0.r.p.e.p.a.a.e.( y + X |.|.|.|.|.|.|.|.|.|.|.|.|.",
"|.|.|.|.|.|.|.|.|.|.|.|.|.|.< < 0 L ,.p.a.a.a.a.t.=.~ _ =.u.j.j.j.i.v.j.<.,.3.^ :.t.p.p.a.p.u.) f v < |.|.|.|.|.|.|.|.|.|.|.|.|.",
"|.|.|.|.|.|.|.|.|.|.|.|.|.|.@XrXM 6 6.r.p.a.d.a.p.2.~ ! ! ` ~ ~ ^ ^ ^ ^ ~ ! ! =.>.p.a.p.p.i.0.r B kX@X: |.|.|.|.|.|.|.|.|.|.|.|.",
"|.|.|.|.|.|.|.|.|.|.|.|.|.|.1XtXv 4 T <.p.p.p.d.d.g.c.w.` U I I I I I I ! ^ 3.y.p.a.p.p.e.u.} w x 6X,XN |.|.|.|.|.|.|.|.|.|.|.|.",
"|.|.|.|.|.|.|.|.|.|.|.|.|.@XtX<Xx % P ` <.t.d.d.a.a.f.c.5.=.6.1.;.3.3.-.,.,.y.f.a.p.s.d.r.;.Q 7 # G tXOXz |.|.|.|.|.|.|.|.|.|.|.",
"|.|.|.|.|.|.|.|.|.|.|.|.|.;XwX<Xx + w ) ;.r.t.d.a.h.h.u.0.7.8.m.N.7.9.w.q.y.f.f.p.s.t.r.:.| E 8 . B tX,Xz |.|.|.|.|.|.|.|.|.|.|.",
"|.|.|.|.|.|.|.|.|.|.|.|.|.;XuX<Xz . & P ( :.>.g.d.d.r.C.).)./.>X>XL.(.).B.5.f.p.p.e.r.>.=.T 7 + |.D iXrXN |.|.|.|.|.|.|.|.|.|.|.",
"|.|.|.|.|.|.|.|.|.|.|.|.|.OX1XOXF |.+ w / ~ :.t.s.z.r.A.jXmXzXmXmXjXjXjX[.6.e.p.p.e.>.=./ y @ o |.G ,X@XJ 3 |.|.|.|.|.|.|.|.|.|.",
"|.|.|.|.|.|.|.|.|.|.|.|.fX+XF F  X|.- * e / =.:.r.l.v.N.eXmX5X%XmX8X`.jX0X6.r.e.r.>.=.] Y 5 . |.}.`.F `.xX*X|.|.|.|.|.|.|.|.|.|.",
"|.|.|.|.|.|.|.|.|.|.|.V xXNXxXhX&X, |.- * y _ 3.;.>.q._ 4XmXJ.F.zX;XM eX0X| >.r.:.^ ' R 4 = |.|.A xXxXvXCXsX|.|.|.|.|.|.|.|.|.|.",
"|.|.|.|.|.|.|.|.|.|.|.=XVXCXCXCXcXK 2 |.$ & u Q } :.:.} 4XmXY.J.zX:XS.eXuX{ ;.,.( Q a 7 |.|.|.C &XBXCXCXCXNX&X|.|.|.|.|.|.|.|.|.",
"|.|.|.|.|.|.|.|.|.|.|.bXCXCXCXCXnXdXH |.|.= $ 0 E T ! { 9XzXE.Y.zX9XK.0XuXD. .{ Q s 4 |.|.|.|.&XNXNXCXCXCXCXgX|.|.|.|.|.|.|.|.|.",
"|.|.|.|.|.|.|.|.|.|.|.vXCXCXCXVX$XfX XO |.|.|.- % 6 y ..D.Y.%.$.I.L.#.I.I.$.u w 7 |.|.|.|.|.|.xX*XpXBXCXCXCXsX|.|.|.|.|.|.|.|.|.",
"|.|.|.|.|.|.|.|.|.|.|.hXCXCXCXCX X&XH O |.|.|.|.o ; 0 y s s k o.s s O.E s g 0 * |.|.|.|.|.|.|.fXoX$XCXCXBXCXsX|.|.|.|.|.|.|.|.|.",
"|.|.|.|.|.|.|.|.|.|.|. XgXxXBXVX}.F C |.|.|.|.|.D `.`.(.B 4 4 6 |.|.w 6 t E.'.B |.|.|.|.|.|.|.H  XgXVXcXbX=XH |.|.|.|.|.|.|.|.|.",
"|.|.|.|.|.|.|.|.|.|.|.|.$X=XgXNXsXV |.|.|.|.|.|.T.qXwXyXT.|.|.|.|.|.|.m _.2XrXG |.|.|.|.|.|.|.|.&XBXVXgX=XA |.|.|.|.|.|.|.|.|.|.",
"|.|.|.|.|.|.|.|.|.|.|.|.|.|.|.|.|.|.|.|.|.|.|.|.T.qXyX1XB |.|.|.|.|.|.OXtXtXtXG |.|.|.|.|.|.|.|.|.|.|.|.|.|.|.|.|.|.|.|.|.|.|.|.",
"|.|.|.|.|.|.|.|.|.|.|.|.|.|.|.|.|.|.|.|.|.|.|.|.m E.iX`.0 m |.|.|.|.|.,XyXtXrXG |.|.|.|.|.|.|.|.|.|.|.|.|.|.|.|.|.|.|.|.|.|.|.|.",
"|.|.|.|.|.|.|.|.|.|.|.|.|.|.|.|.|.|.|.|.|.|.|.d f b P.Z.k n h |.|.|.|.1XyXyXtXF |.|.|.|.|.|.|.|.|.|.|.|.|.|.|.|.|.|.|.|.|.|.|.|.",
"|.|.|.|.|.|.|.|.|.|.|.|.|.|.|.|.|.|.|.|.|.|.|.8 @.E E @.k k p = |.|.|.;XyXyXtXB |.|.|.|.|.|.|.|.|.|.|.|.|.|.|.|.|.|.|.|.|.|.|.|.",
"|.|.|.|.|.|.|.|.|.|.|.|.|.|.|.|.|.|.|.|.|.|.& 6 y Y a R Q o.s * |.|.l Z.].2XK.f |.|.|.|.|.|.|.|.|.|.|.|.|.|.|.|.|.|.|.|.|.|.|.|.",
"|.|.|.|.|.|.|.|.|.|.|.|.|.|.|.|.|.|.|.|.|.|.t R L L I I ) [ f = |.* b t E Z.g g d |.|.|.|.|.|.|.|.|.|.|.|.|.|.|.|.|.|.|.|.|.|.|.",
"|.|.|.|.|.|.|.|.|.|.|.|.|.|.|.|.|.|.|.|.|.|.O.N.N.6.6.6.( / n d |.5 p @.o...@.p * |.|.|.|.|.|.|.|.|.|.|.|.|.|.|.|.|.|.|.|.|.|.|.",
"|.|.|.|.|.|.|.|.|.|.|.|.|.|.|.|.|.|.|.|.|.s [ C.C.,.5.w.9.W f S ; p P P u e R a 9 |.|.|.|.|.|.|.|.|.|.|.|.|.|.|.|.|.|.|.|.|.|.|.",
"|.|.|.|.|.|.|.|.|.|.|.|.|.|.|.|.|.|.|.|.|.n &.&.{ 8. . .*.G.l D 5 k T I P Y W &...t |.|.|.|.|.|.|.|.|.|.|.|.|.|.|.|.|.|.|.|.|.|.",
"|.|.|.|.|.|.|.|.|.|.|.|.|.|.|.|.|.|.|.|.|.|.R.(.].;X(.-XW.G N A ; s ) ~ ( m.V.Q.Q.#.p |.|.|.|.|.|.|.|.|.|.|.|.|.|.|.|.|.|.|.|.|.",
"|.|.|.|.|.|.|.|.|.|.|.|.|.|.|.|.|.|.|.|.|.|.|.6X6X5X6X7X+X|.|.|.* g [ ` =.6.C.A.V.&.s |.|.|.|.|.|.|.|.|.|.|.|.|.|.|.|.|.|.|.|.|.",
"|.|.|.|.|.|.|.|.|.|.|.|.|.|.|.|.|.|.|.|.|.|.|.|.|.|.|.|.|.|.|.|.|.b %.T ) ) / T ] +.@.|.|.|.|.|.|.|.|.|.|.|.|.|.|.|.|.|.|.|.|.|.",
"|.|.|.|.|.|.|.|.|.|.|.|.|.|.|.|.|.|.|.|.|.|.|.|.|.|.|.|.|.|.|.|.|.|.F.P././.U.(.(.R.H.|.|.|.|.|.|.|.|.|.|.|.|.|.|.|.|.|.|.|.|.|.",
"|.|.|.|.|.|.|.|.|.|.|.|.|.|.|.|.|.|.|.|.|.|.|.|.|.|.|.|.|.|.|.|.|.|.|.E.:X-X:X+X:X+X|.|.|.|.|.|.|.|.|.|.|.|.|.|.|.|.|.|.|.|.|.|.",
"|.|.|.|.|.|.|.|.|.|.|.|.|.|.|.|.|.|.|.|.|.|.|.|.|.|.|.|.|.|.|.|.|.|.|.|.|.|.|.|.|.|.|.|.|.|.|.|.|.|.|.|.|.|.|.|.|.|.|.|.|.|.|.|.",
"|.|.|.|.|.|.|.|.|.|.|.|.|.|.|.|.|.|.|.|.|.|.|.|.|.|.|.|.|.|.|.|.|.|.|.|.|.|.|.|.|.|.|.|.|.|.|.|.|.|.|.|.|.|.|.|.|.|.|.|.|.|.|.|.",
"|.|.|.|.|.|.|.|.|.|.|.|.|.|.|.|.|.|.|.|.|.|.|.|.|.|.|.|.|.|.|.|.|.|.|.|.|.|.|.|.|.|.|.|.|.|.|.|.|.|.|.|.|.|.|.|.|.|.|.|.|.|.|.|.",
"|.|.|.|.|.|.|.|.|.|.|.|.|.|.|.|.|.|.|.|.|.|.|.|.|.|.|.|.|.|.|.|.|.|.|.|.|.|.|.|.|.|.|.|.|.|.|.|.|.|.|.|.|.|.|.|.|.|.|.|.|.|.|.|.",
"|.|.|.|.|.|.|.|.|.|.|.|.|.|.|.|.|.|.|.|.|.|.|.|.|.|.|.|.|.|.|.|.|.|.|.|.|.|.|.|.|.|.|.|.|.|.|.|.|.|.|.|.|.|.|.|.|.|.|.|.|.|.|.|.",
"|.|.|.|.|.|.|.|.|.|.|.|.|.|.|.|.|.|.|.|.|.|.|.|.|.|.|.|.|.|.|.|.|.|.|.|.|.|.|.|.|.|.|.|.|.|.|.|.|.|.|.|.|.|.|.|.|.|.|.|.|.|.|.|.",
"|.|.|.|.|.|.|.|.|.|.|.|.|.|.|.|.|.|.|.|.|.|.|.|.|.|.|.|.|.|.|.|.|.|.|.|.|.|.|.|.|.|.|.|.|.|.|.|.|.|.|.|.|.|.|.|.|.|.|.|.|.|.|.|.",
"|.|.|.|.|.|.|.|.|.|.|.|.|.|.|.|.|.|.|.|.|.|.|.|.|.|.|.|.|.|.|.|.|.|.|.|.|.|.|.|.|.|.|.|.|.|.|.|.|.|.|.|.|.|.|.|.|.|.|.|.|.|.|.|."
};
