/* XPM */
static char *front3_milka_tablet[] = {
/* columns rows colors chars-per-pixel */
"64 64 199 2 ",
"   c #5C331F",
".  c #613417",
"X  c #65361B",
"o  c #6D3A1D",
"O  c #713E1E",
"+  c #5E3725",
"@  c #5D383A",
"#  c #6A3721",
"$  c #6B3C24",
"%  c #633828",
"&  c #693C2B",
"*  c #723D20",
"=  c #663B35",
"-  c #74401F",
";  c #5F402C",
":  c #744225",
">  c #7A4827",
",  c #76452C",
"<  c #7A462B",
"1  c #7C4A2C",
"2  c #6D4638",
"3  c #784934",
"4  c #7C523C",
"5  c #38275C",
"6  c #3C2A62",
"7  c #5F3943",
"8  c #442F5F",
"9  c #543656",
"0  c #623C47",
"q  c #603A51",
"w  c #442D69",
"e  c #463569",
"r  c #4C3B6C",
"t  c #563D6A",
"y  c #4D3B74",
"u  c #523E73",
"i  c #5B414B",
"p  c #664245",
"a  c #664347",
"s  c #754B42",
"d  c #7A524C",
"f  c #7A584A",
"g  c #664456",
"h  c #6C495B",
"j  c #704D5C",
"k  c #7B555E",
"l  c #4F4865",
"z  c #58466E",
"x  c #554575",
"c  c #584276",
"v  c #594A76",
"b  c #544178",
"n  c #5C457C",
"m  c #5C4C7B",
"M  c #654D67",
"N  c #6A4A6C",
"B  c #6F516F",
"V  c #785369",
"C  c #6D4E74",
"Z  c #664B7A",
"A  c #64547E",
"S  c #6B547C",
"D  c #665A7C",
"F  c #69587F",
"G  c #7B5673",
"H  c #77597D",
"J  c #716577",
"K  c #834D2C",
"L  c #894E2E",
"P  c #87542D",
"I  c #804D31",
"U  c #855234",
"Y  c #8B5434",
"T  c #8C5937",
"R  c #8C5A3B",
"E  c #915633",
"W  c #925935",
"Q  c #945D3C",
"!  c #98613A",
"~  c #8A5E49",
"^  c #825652",
"/  c #886447",
"(  c #9E6E4A",
")  c #866453",
"_  c #A37451",
"`  c #825862",
"'  c #805F70",
"]  c #8D7867",
"[  c #8C6B79",
"{  c #997C76",
"}  c #9A816D",
"|  c #8F8479",
" . c #958478",
".. c #A4917F",
"X. c #C59973",
"o. c #5E4780",
"O. c #5E4982",
"+. c #644D84",
"@. c #654F8A",
"#. c #645380",
"$. c #6B5585",
"%. c #655983",
"&. c #6C5A85",
"*. c #665189",
"=. c #6C558C",
"-. c #6D5A8B",
";. c #725482",
":. c #725A85",
">. c #71568D",
",. c #715B8D",
"<. c #6E5591",
"1. c #6F5B91",
"2. c #705791",
"3. c #735C92",
"4. c #785E99",
"5. c #795F9A",
"6. c #6E608C",
"7. c #776483",
"8. c #796785",
"9. c #73628C",
"0. c #776B8A",
"q. c #7B6B8E",
"w. c #756293",
"e. c #796495",
"r. c #776894",
"t. c #7C6A92",
"y. c #77609A",
"u. c #7B649B",
"i. c #7E6B99",
"p. c #7D7093",
"a. c #7E66A0",
"s. c #815B82",
"d. c #857283",
"f. c #9E7A82",
"g. c #806E95",
"h. c #816E9A",
"j. c #817197",
"k. c #8B7796",
"l. c #867A96",
"z. c #84749C",
"x. c #877B99",
"c. c #8C7C9C",
"v. c #8C7BA4",
"b. c #8D7DA8",
"n. c #9079A8",
"m. c magenta",
"M. c #9A8A87",
"N. c #8E899B",
"B. c #988D91",
"V. c #A18E87",
"C. c #A98990",
"Z. c #B3A899",
"A. c #8D85A2",
"S. c #9483A5",
"D. c #968DA3",
"F. c #988DA3",
"G. c #9686AB",
"H. c #9A8CAB",
"J. c #9B92A6",
"K. c #9A96A5",
"L. c #9D92AB",
"P. c #9B8CB2",
"I. c #9F8FBA",
"U. c #A197AB",
"Y. c #B29EAE",
"T. c #A394B4",
"R. c #A799B6",
"E. c #AB9DB9",
"W. c #B2AEAF",
"Q. c #ABAAB0",
"!. c #ADADB3",
"~. c #AEA5BB",
"^. c #B4A6BA",
"/. c #C2BFB0",
"(. c #BEC3B3",
"). c #AC9CC4",
"_. c #B7A8C5",
"`. c #B9ACC5",
"'. c #BCB2C3",
"]. c #BFB5CA",
"[. c #BFB1D0",
"{. c #C5BBCD",
"}. c #C4B7D3",
"|. c #C8CCC3",
" X c #D2D3CB",
".X c #D8D8C9",
"XX c #CDC5D1",
"oX c #CFC6D8",
"OX c #D1CCD6",
"+X c #D1C5DA",
"@X c #D4CCDA",
"#X c #D8CDDD",
"$X c #D6D1DA",
"%X c #DAD5DC",
"&X c #DCD6E1",
"*X c #E6E2E8",
"=X c #EDE8EB",
"-X c #F3F1F3",
";X c #FCFAF9",
/* pixels */
"m.m.m.m.m.m.m.m.m.m.m.m.m.m.m.m.m.m.m.m.m.m.m.m.m.m.m.m.m.m.m.m.m.m.m.m.m.m.m.m.m.m.m.m.m.m.m.m.m.m.m.m.m.m.m.m.m.m.m.m.m.m.m.m.",
"m.m.m.m.m.m.m.m.m.m.m.m.m.m.m.m.m.m.m.m.m.m.m.m.m.m.m.m.m.m.m.m.m.m.m.m.m.m.m.m.m.m.m.m.m.m.m.m.m.m.m.m.m.m.m.m.m.m.m.m.m.m.m.m.",
"m.m.m.m.m.m.m.m.m.m.m.m.m.m.m.m.m.m.m.m.m.m.m.m.m.m.m.m.m.m.m.m.m.m.m.m.m.m.m.m.m.m.m.m.m.m.m.m.m.m.m.m.m.m.m.m.m.m.m.m.m.m.m.m.",
"m.m.m.m.m.m.m.m.m.m.m.m.m.m.m.m.m.m.m.m.m.m.m.9.-.A A m.m.m.m.m.m.m.m.m.m.m.m.m.m.m.m.m.m.m.m.m.m.m.m.m.m.m.m.m.m.m.m.m.m.m.m.m.",
"m.m.m.m.m.m.m.m.m.m.m.m.m.m.m.m.m.m.m.m.m.m.m.:.:.-.>.=.&.%.-.m.m.m.m.m.m.m.m.m.m.m.m.m.m.m.m.m.m.m.m.m.m.m.m.m.m.m.m.m.m.m.m.m.",
"m.m.m.m.m.m.m.m.m.m.m.m.m.m.m.m.m.m.m.m.m.m.m.i i h C $.-.=.=.=.%.S F m.m.m.m.m.m.m.m.m.m.m.m.m.m.m.m.m.m.m.m.m.m.m.m.m.m.m.m.m.",
"m.m.m.m.m.m.m.m.m.m.m.m.m.m.m.m.m.m.m.m.m.m.m.m.$ , & = a g N Z S >.>.-.&.%.m.m.m.m.m.m.m.m.m.m.m.m.m.m.m.m.m.m.m.m.m.m.m.m.m.m.",
"m.m.m.m.m.m.m.m.m.m.m.m.m.m.m.m.m.m.m.m.m.m.m.m.1 ! Q W I % % = 0 g B S $.$.$.-.-.6.m.m.m.m.m.m.m.m.m.m.m.m.m.m.m.m.m.m.m.m.m.m.",
"m.m.m.m.m.m.m.m.m.m.m.m.m.m.m.m.m.m.m.m.m.m.m.m., P L E T : T U 1 1 = @ 7 i M S :.:.m.m.m.m.m.m.m.m.m.m.m.m.m.m.m.m.m.m.m.m.m.m.",
"m.m.m.m.m.m.m.m.m.m.m.m.m.m.m.m.m.m.m.m.m.m.m.m.3 P > 1 K O W E W ! > : , : % = q M m.m.m.m.m.m.m.m.m.m.m.m.m.m.m.m.m.m.m.m.m.m.",
"m.m.m.m.m.m.m.m.m.m.m.m.m.m.m.m.m.m.m.m.m.m.m.m.4 P < < < O Q L K Y - Y ! ! T 1 X a m.m.m.m.m.m.m.m.m.m.m.m.m.m.m.m.m.m.m.m.m.m.",
"m.m.m.m.m.m.m.m.m.m.m.m.m.m.m.m.m.m.m.m.m.m.m.m.1 P , < , * Q P K 1 O Y T 1 P 3   + m.m.m.m.m.m.m.m.m.m.m.m.m.m.m.m.m.m.m.m.m.m.",
"m.m.m.m.m.m.m.m.m.m.m.m.m.m.m.m.m.m.m.m.m.m.m.m.o o o # $ o T 1 > K - T Y 1 1 , % ; m.m.m.m.m.m.m.m.m.m.m.m.m.m.m.m.m.m.m.m.m.m.",
"m.m.m.m.m.m.m.m.m.m.m.m.m.m.m.m.m.m.m.m.m.m.m.m.3 Q Y K o   X $ : : o Y T ) ) f  .| m.m.m.m.m.m.m.m.m.m.m.m.m.m.m.m.m.m.m.m.m.m.",
"m.m.m.m.m.m.m.m.m.m.m.m.m.m.m.m.m.m.m.m.m.m.m.m.I Y Y Q R     2 2 ; ~ } ] M.B.d.D J m.m.m.m.m.m.m.m.m.m.m.m.m.m.m.m.m.m.m.m.m.m.",
"m.m.m.m.m.m.m.m.m.m.m.m.m.m.m.m.m.m.m.m.m.m.m.m.1 R 4 4 } ..| M.M.V.] { ..M v v y r m.m.m.m.m.m.m.m.m.m.m.m.m.m.m.m.m.m.m.m.m.m.",
"m.m.m.m.m.m.m.m.m.m.m.m.m.m.m.m.m.m.m.m.m.m.m.m.d |  .Z./..X XQ.l J f & s q t n u.,.m.m.m.m.m.m.m.m.m.m.m.m.m.m.m.m.m.m.m.m.m.m.",
"m.m.m.m.m.m.m.m.m.m.m.m.m.m.m.m.m.m.m.m.m.m.m.m.7.!.(. X|.W.K.%.t 0 3 < O & j ;.u.9.m.m.m.m.m.m.m.m.m.m.m.m.m.m.m.m.m.m.m.m.m.m.",
"m.m.m.m.m.m.m.m.m.m.m.m.m.m.m.m.m.m.m.m.m.m.m.m.%.K. XQ.N.z v #.V U 1 , # U = S y.9.m.m.m.m.m.m.m.m.m.m.m.m.m.m.m.m.m.m.m.m.m.m.",
"m.m.m.m.m.m.m.m.m.m.m.m.m.m.m.m.m.m.m.m.m.m.m.m.6.%.A.%.x O.m -.V U Y $ X _ s C u.9.m.m.m.m.m.m.m.m.m.m.m.m.m.m.m.m.m.m.m.m.m.m.",
"m.m.m.m.m.m.m.m.m.m.m.m.m.m.m.m.m.m.m.m.m.m.m.m.w.b e O.<.2.=.H ^ E E X . # j ;.a.w.m.m.m.m.m.m.m.m.m.m.m.m.m.m.m.m.m.m.m.m.m.m.",
"m.m.m.m.m.m.m.m.m.m.m.m.m.m.m.m.m.m.m.m.m.m.m.m.y.<.*.<.<.=.>.;.` Q E O ( 2 N >.u.i.m.m.m.m.m.m.m.m.m.m.m.m.m.m.m.m.m.m.m.m.m.m.",
"m.m.m.m.m.m.m.m.m.m.m.m.m.m.m.m.m.m.m.m.m.m.m.m.e.$.*.<.<.=.<.>.' / > o T a Z $.i.u.m.m.m.m.m.m.m.m.m.m.m.m.m.m.m.m.m.m.m.m.m.m.",
"m.m.m.m.m.m.m.m.m.m.m.m.m.m.m.m.m.m.m.m.m.m.m.m.u.=.<.=.<.<.=.<.>.V 2 ! 3 V :.$.u.6.m.m.m.m.m.m.m.m.m.m.m.m.m.m.m.m.m.m.m.m.m.m.",
"m.m.m.m.m.m.m.m.m.m.m.m.m.m.m.m.m.m.m.m.m.m.m.m.u.>.=.<.=.=.=.2.2.;.0 / ^ G C.s.4.-.m.m.m.m.m.m.m.m.m.m.m.m.m.m.m.m.m.m.m.m.m.m.",
"m.m.m.m.m.m.m.m.m.m.m.m.m.m.m.m.m.m.m.m.m.m.m.m.u.>.2.=.,.z.>.=.2.+.9 @ ` s.d.:.3.,.m.m.m.m.m.m.m.m.m.m.m.m.m.m.m.m.m.m.m.m.m.m.",
"m.m.m.m.m.m.m.m.m.m.m.m.m.m.m.m.m.m.m.m.m.m.m.m.4.>.3.v.J.}.w.<.+.y w G { k S >.y.2.m.m.m.m.m.m.m.m.m.m.m.m.m.m.m.m.m.m.m.m.m.m.",
"m.m.m.m.m.m.m.m.m.m.m.m.m.m.m.m.m.m.m.m.m.m.m.m.3.>.,.{.=X#X9.$.=.u w f.X.4 C >.u.6.m.m.m.m.m.m.m.m.m.m.m.m.m.m.m.m.m.m.m.m.m.m.",
"m.m.m.m.m.m.m.m.m.m.m.m.m.m.m.m.m.m.m.m.m.m.m.m.w.>.,._.J.F.H.:.b.P.8 [ X.^ C ;.u.r.m.m.m.m.m.m.m.m.m.m.m.m.m.m.m.m.m.m.m.m.m.m.",
"m.m.m.m.m.m.m.m.m.m.m.m.m.m.m.m.m.m.m.m.m.m.m.m.4.2.,.t.c.^.@Xq.b.T.#.z { ' ;.>.e.r.m.m.m.m.m.m.m.m.m.m.m.m.m.m.m.m.m.m.m.m.m.m.",
"m.m.m.m.m.m.m.m.m.m.m.m.m.m.m.m.m.m.m.m.m.m.m.m.e.=.$.,.`.&X%Xj.v.T.r.w Z ;.<.=.e.w.m.m.m.m.m.m.m.m.m.m.m.m.m.m.m.m.m.m.m.m.m.m.",
"m.m.m.m.m.m.m.m.m.m.m.m.m.m.m.m.m.m.m.m.m.m.m.m.i.=.H.^.{.F.XXc._.Y.&.w o.<.=.*.u.w.m.m.m.m.m.m.m.m.m.m.m.m.m.m.m.m.m.m.m.m.m.m.",
"m.m.m.m.m.m.m.m.m.m.m.m.m.m.m.m.m.m.m.m.m.m.m.m.e.1.S.'.F.$X$Xk.'.^.Q.$.m $.<.=.u.e.m.m.m.m.m.m.m.m.m.m.m.m.m.m.m.m.m.m.m.m.m.m.",
"m.m.m.m.m.m.m.m.m.m.m.m.m.m.m.m.m.m.m.m.m.m.m.m.u.>.z.k.XX;X%Xq.8.t k.i.Z @.=.=.a.w.m.m.m.m.m.m.m.m.m.m.m.m.m.m.m.m.m.m.m.m.m.m.",
"m.m.m.m.m.m.m.m.m.m.m.m.m.m.m.m.m.m.m.m.m.m.m.m.e.$.R.+XF.~.%Xc.z.T.c.i.c +.=.=.a.r.m.m.m.m.m.m.m.m.m.m.m.m.m.m.m.m.m.m.m.m.m.m.",
"m.m.m.m.m.m.m.m.m.m.m.m.m.m.m.m.m.m.m.m.m.m.m.m.u.<.-.t.h.U.-XOX9.p.R.6.r.2.<.=.u.9.m.m.m.m.m.m.m.m.m.m.m.m.m.m.m.m.m.m.m.m.m.m.",
"m.m.m.m.m.m.m.m.m.m.m.m.m.m.m.m.m.m.m.m.m.m.m.m.u.2.>.,.E.@X-X@Xm 5 p.p.Z =.=.=.y.-.m.m.m.m.m.m.m.m.m.m.m.m.m.m.m.m.m.m.m.m.m.m.",
"m.m.m.m.m.m.m.m.m.m.m.m.m.m.m.m.m.m.m.m.m.m.m.m.w.>.>.e.].q.F.XXA 6 l.S.y *.2.=.u.1.m.m.m.m.m.m.m.m.m.m.m.m.m.m.m.m.m.m.m.m.m.m.",
"m.m.m.m.m.m.m.m.m.m.m.m.m.m.m.m.m.m.m.m.m.m.m.m.4.>.3.g.p.0.'.OX%.l `.T.b @.1.=.y.-.m.m.m.m.m.m.m.m.m.m.m.m.m.m.m.m.m.m.m.m.m.m.",
"m.m.m.m.m.m.m.m.m.m.m.m.m.m.m.m.m.m.m.m.m.m.m.m.w.>.3.`.$XXX^.@XT.r L.U.v r *.=.y.9.m.m.m.m.m.m.m.m.m.m.m.m.m.m.m.m.m.m.m.m.m.m.",
"m.m.m.m.m.m.m.m.m.m.m.m.m.m.m.m.m.m.m.m.m.m.m.m.u.,.>.z.*X-XK.l.q.O.6.{.{.x +.=.y.w.m.m.m.m.m.m.m.m.m.m.m.m.m.m.m.m.m.m.m.m.m.m.",
"m.m.m.m.m.m.m.m.m.m.m.m.m.m.m.m.m.m.m.m.m.m.m.m.u.,.>.>.R.=X*X*XXXE.G.8.-.e O.=.u.y.m.m.m.m.m.m.m.m.m.m.m.m.m.m.m.m.m.m.m.m.m.m.",
"m.m.m.m.m.m.m.m.m.m.m.m.m.m.m.m.m.m.m.m.m.m.m.m.u.>.=.$.0.OXN.D.`.#XT.x u e +.=.y.w.m.m.m.m.m.m.m.m.m.m.m.m.m.m.m.m.m.m.m.m.m.m.",
"m.m.m.m.m.m.m.m.m.m.m.m.m.m.m.m.m.m.m.m.m.m.m.m.t.>.=.z.N.*X$X~.x.q.t.=.b y *.=.y.w.m.m.m.m.m.m.m.m.m.m.m.m.m.m.m.m.m.m.m.m.m.m.",
"m.m.m.m.m.m.m.m.m.m.m.m.m.m.m.m.m.m.m.m.m.m.m.0.r.=.>.`.=X;X-XOX&X~.9.e.b *.<.$.y.,.m.m.m.m.m.m.m.m.m.m.m.m.m.m.m.m.m.m.m.m.m.m.",
"m.m.m.m.m.m.m.m.m.m.m.m.m.m.m.m.m.m.m.m.m.m.m.0.w.<.=.t.#XQ.E.t.h.p.>.<.u $.2.=.y.-.m.m.m.m.m.m.m.m.m.m.m.m.m.m.m.m.m.m.m.m.m.m.",
"m.m.m.m.m.m.m.m.m.m.m.m.m.m.m.m.m.m.m.m.m.m.m.8.h.3.$.>.n.Y.9.$.z.`.z.u n =.=.=.y.,.m.m.m.m.m.m.m.m.m.m.m.m.m.m.m.m.m.m.m.m.m.m.",
"m.m.m.m.m.m.m.m.m.m.m.m.m.m.m.m.m.m.m.m.m.m.m.0.v.3.$.=.e.~.z.$.q.`.H.=.<.>.<.=.u.3.m.m.m.m.m.m.m.m.m.m.m.m.m.m.m.m.m.m.m.m.m.m.",
"m.m.m.m.m.m.m.m.m.m.m.m.m.m.m.m.m.m.m.m.m.m.m.0.r.=.=.>.=.t.@XoXH.-.2.<.<.=.<.$.u.w.m.m.m.m.m.m.m.m.m.m.m.m.m.m.m.m.m.m.m.m.m.m.",
"m.m.m.m.m.m.m.m.m.m.m.m.m.m.m.m.m.m.m.m.m.m.m.D =.=.2.2.1.=.c.E.R.$.>.n.v.3.*.@.u.w.m.m.m.m.m.m.m.m.m.m.m.m.m.m.m.m.m.m.m.m.m.m.",
"m.m.m.m.m.m.m.m.m.m.m.m.m.m.m.m.m.m.m.m.m.m.m.m u Z +.+.=.2.=.=.=.=.2.).[.).I.v.h.3.m.m.m.m.m.m.m.m.m.m.m.m.m.m.m.m.m.m.m.m.m.m.",
"m.m.m.m.m.m.m.m.m.m.m.m.m.m.m.m.m.m.m.m.m.m.m.=.*.+.+.n n +.+.*.=.<.2.T.[.}.[.).h.,.m.m.m.m.m.m.m.m.m.m.m.m.m.m.m.m.m.m.m.m.m.m.",
"m.m.m.m.m.m.m.m.m.m.m.m.m.m.m.m.m.m.m.m.m.m.m.=.<.=.=.=.*.O.o.b n +.*.3.h.P.).I.u.9.m.m.m.m.m.m.m.m.m.m.m.m.m.m.m.m.m.m.m.m.m.m.",
"m.m.m.m.m.m.m.m.m.m.m.m.m.m.m.m.m.m.m.m.m.m.m.&.-.$.-.-.-.-.=.*.+.+.+.u o.+.1.y.y.=.m.m.m.m.m.m.m.m.m.m.m.m.m.m.m.m.m.m.m.m.m.m.",
"m.m.m.m.m.m.m.m.m.m.m.m.m.m.m.m.m.m.m.m.m.m.m.m.m.m.%.=.=.=.=.-.2.=.=.@.+.n n n +.$.m.m.m.m.m.m.m.m.m.m.m.m.m.m.m.m.m.m.m.m.m.m.",
"m.m.m.m.m.m.m.m.m.m.m.m.m.m.m.m.m.m.m.m.m.m.m.m.m.m.m.m.m.%.=.=.=.<.2.2.=.=.=.+.x -.m.m.m.m.m.m.m.m.m.m.m.m.m.m.m.m.m.m.m.m.m.m.",
"m.m.m.m.m.m.m.m.m.m.m.m.m.m.m.m.m.m.m.m.m.m.m.m.m.m.m.m.m.m.m.m.$.-.-.$.$.<.=.=.<.1.$.m.m.m.m.m.m.m.m.m.m.m.m.m.m.m.m.m.m.m.m.m.",
"m.m.m.m.m.m.m.m.m.m.m.m.m.m.m.m.m.m.m.m.m.m.m.m.m.m.m.m.m.m.m.m.m.m.m.m.#.$.=.=.<.1.-.m.m.m.m.m.m.m.m.m.m.m.m.m.m.m.m.m.m.m.m.m.",
"m.m.m.m.m.m.m.m.m.m.m.m.m.m.m.m.m.m.m.m.m.m.m.m.m.m.m.m.m.m.m.m.m.m.m.m.m.m.m.A &.-.&.m.m.m.m.m.m.m.m.m.m.m.m.m.m.m.m.m.m.m.m.m.",
"m.m.m.m.m.m.m.m.m.m.m.m.m.m.m.m.m.m.m.m.m.m.m.m.m.m.m.m.m.m.m.m.m.m.m.m.m.m.m.m.D D &.m.m.m.m.m.m.m.m.m.m.m.m.m.m.m.m.m.m.m.m.m.",
"m.m.m.m.m.m.m.m.m.m.m.m.m.m.m.m.m.m.m.m.m.m.m.m.m.m.m.m.m.m.m.m.m.m.m.m.m.m.m.m.m.m.m.m.m.m.m.m.m.m.m.m.m.m.m.m.m.m.m.m.m.m.m.m.",
"m.m.m.m.m.m.m.m.m.m.m.m.m.m.m.m.m.m.m.m.m.m.m.m.m.m.m.m.m.m.m.m.m.m.m.m.m.m.m.m.m.m.m.m.m.m.m.m.m.m.m.m.m.m.m.m.m.m.m.m.m.m.m.m.",
"m.m.m.m.m.m.m.m.m.m.m.m.m.m.m.m.m.m.m.m.m.m.m.m.m.m.m.m.m.m.m.m.m.m.m.m.m.m.m.m.m.m.m.m.m.m.m.m.m.m.m.m.m.m.m.m.m.m.m.m.m.m.m.m.",
"m.m.m.m.m.m.m.m.m.m.m.m.m.m.m.m.m.m.m.m.m.m.m.m.m.m.m.m.m.m.m.m.m.m.m.m.m.m.m.m.m.m.m.m.m.m.m.m.m.m.m.m.m.m.m.m.m.m.m.m.m.m.m.m."
};
